G04 #@! TF.GenerationSoftware,KiCad,Pcbnew,10.0.5-1-g226df246f3*
G04 #@! TF.CreationDate,2026-09-22T12:47:11+02:00*
G04 #@! TF.ProjectId,vinyl_adc_rev_c,76696e79-6c5f-4616-9463-5f7265765f63,rev?*
G04 #@! TF.SameCoordinates,Original*
G04 #@! TF.FileFunction,Copper,L4,Bot*
G04 #@! TF.FilePolarity,Positive*
%FSLAX46Y46*%
G04 Gerber Fmt 4.6, Leading zero omitted, Abs format (unit mm)*
G04 Created by KiCad (PCBNEW 10.0.5-1-g226df246f3) date 2026-09-22 12:47:11*
%MOMM*%
%LPD*%
G01*
G04 APERTURE LIST*
G04 Aperture macros list*
%AMRoundRect*
0 Rectangle with rounded corners*
0 $1 Rounding radius*
0 $2 $3 $4 $5 $6 $7 $8 $9 X,Y pos of 4 corners*
0 Add a 4 corners polygon primitive as box body*
4,1,4,$2,$3,$4,$5,$6,$7,$8,$9,$2,$3,0*
0 Add four circle primitives for the rounded corners*
1,1,$1+$1,$2,$3*
1,1,$1+$1,$4,$5*
1,1,$1+$1,$6,$7*
1,1,$1+$1,$8,$9*
0 Add four rect primitives between the rounded corners*
20,1,$1+$1,$2,$3,$4,$5,0*
20,1,$1+$1,$4,$5,$6,$7,0*
20,1,$1+$1,$6,$7,$8,$9,0*
20,1,$1+$1,$8,$9,$2,$3,0*%
G04 Aperture macros list end*
G04 #@! TA.AperFunction,ComponentPad*
%ADD10RoundRect,0.250000X0.550000X-0.950000X0.550000X0.950000X-0.550000X0.950000X-0.550000X-0.950000X0*%
G04 #@! TD*
G04 #@! TA.AperFunction,ComponentPad*
%ADD11O,1.600000X2.400000*%
G04 #@! TD*
G04 #@! TA.AperFunction,ComponentPad*
%ADD12C,1.600000*%
G04 #@! TD*
G04 #@! TA.AperFunction,ComponentPad*
%ADD13R,3.000000X3.000000*%
G04 #@! TD*
G04 #@! TA.AperFunction,ComponentPad*
%ADD14C,3.000000*%
G04 #@! TD*
G04 #@! TA.AperFunction,ComponentPad*
%ADD15R,1.700000X1.700000*%
G04 #@! TD*
G04 #@! TA.AperFunction,ComponentPad*
%ADD16C,1.700000*%
G04 #@! TD*
G04 #@! TA.AperFunction,ComponentPad*
%ADD17RoundRect,0.250000X-0.550000X-0.550000X0.550000X-0.550000X0.550000X0.550000X-0.550000X0.550000X0*%
G04 #@! TD*
G04 #@! TA.AperFunction,ComponentPad*
%ADD18RoundRect,0.249999X0.850001X-0.850001X0.850001X0.850001X-0.850001X0.850001X-0.850001X-0.850001X0*%
G04 #@! TD*
G04 #@! TA.AperFunction,ComponentPad*
%ADD19C,2.200000*%
G04 #@! TD*
G04 #@! TA.AperFunction,ComponentPad*
%ADD20RoundRect,0.250000X-0.750000X-0.750000X0.750000X-0.750000X0.750000X0.750000X-0.750000X0.750000X0*%
G04 #@! TD*
G04 #@! TA.AperFunction,ComponentPad*
%ADD21C,2.000000*%
G04 #@! TD*
G04 #@! TA.AperFunction,ComponentPad*
%ADD22C,1.500000*%
G04 #@! TD*
G04 #@! TA.AperFunction,ViaPad*
%ADD23C,0.700000*%
G04 #@! TD*
G04 #@! TA.AperFunction,Conductor*
%ADD24C,0.300000*%
G04 #@! TD*
G04 #@! TA.AperFunction,Conductor*
%ADD25C,0.600000*%
G04 #@! TD*
G04 APERTURE END LIST*
D10*
X138380000Y-15810000D03*
D11*
X140920000Y-15810000D03*
X143460000Y-15810000D03*
X146000000Y-15810000D03*
X148540000Y-15810000D03*
X151080000Y-15810000D03*
X153620000Y-15810000D03*
X153620000Y-8190000D03*
X151080000Y-8190000D03*
X148540000Y-8190000D03*
X146000000Y-8190000D03*
X143460000Y-8190000D03*
X140920000Y-8190000D03*
X138380000Y-8190000D03*
D12*
X89500000Y-50310000D03*
X94500000Y-50310000D03*
X142075000Y-42525000D03*
X149695000Y-42525000D03*
X98075000Y-26525000D03*
X105695000Y-26525000D03*
X72075000Y-68525000D03*
X79695000Y-68525000D03*
X46075000Y-7525000D03*
X53695000Y-7525000D03*
D13*
X9460000Y-14000000D03*
D14*
X14540000Y-14000000D03*
D10*
X122110000Y-55810000D03*
D11*
X124650000Y-55810000D03*
X127190000Y-55810000D03*
X129730000Y-55810000D03*
X132270000Y-55810000D03*
X134810000Y-55810000D03*
X137350000Y-55810000D03*
X139890000Y-55810000D03*
X139890000Y-48190000D03*
X137350000Y-48190000D03*
X134810000Y-48190000D03*
X132270000Y-48190000D03*
X129730000Y-48190000D03*
X127190000Y-48190000D03*
X124650000Y-48190000D03*
X122110000Y-48190000D03*
D10*
X147110000Y-37810000D03*
D11*
X149650000Y-37810000D03*
X152190000Y-37810000D03*
X154730000Y-37810000D03*
X157270000Y-37810000D03*
X159810000Y-37810000D03*
X162350000Y-37810000D03*
X164890000Y-37810000D03*
X164890000Y-30190000D03*
X162350000Y-30190000D03*
X159810000Y-30190000D03*
X157270000Y-30190000D03*
X154730000Y-30190000D03*
X152190000Y-30190000D03*
X149650000Y-30190000D03*
X147110000Y-30190000D03*
D12*
X24075000Y-97525000D03*
X29075000Y-97525000D03*
X35500000Y-26310000D03*
X40500000Y-26310000D03*
D10*
X86190000Y-21810000D03*
D11*
X88730000Y-21810000D03*
X91270000Y-21810000D03*
X93810000Y-21810000D03*
X93810000Y-14190000D03*
X91270000Y-14190000D03*
X88730000Y-14190000D03*
X86190000Y-14190000D03*
D15*
X162000000Y-9460000D03*
D16*
X162000000Y-12000000D03*
X162000000Y-14540000D03*
D12*
X120500000Y-112310000D03*
X125500000Y-112310000D03*
D10*
X147110000Y-55810000D03*
D11*
X149650000Y-55810000D03*
X152190000Y-55810000D03*
X154730000Y-55810000D03*
X157270000Y-55810000D03*
X159810000Y-55810000D03*
X162350000Y-55810000D03*
X164890000Y-55810000D03*
X164890000Y-48190000D03*
X162350000Y-48190000D03*
X159810000Y-48190000D03*
X157270000Y-48190000D03*
X154730000Y-48190000D03*
X152190000Y-48190000D03*
X149650000Y-48190000D03*
X147110000Y-48190000D03*
D12*
X35500000Y-9690000D03*
X40500000Y-9690000D03*
D13*
X9460000Y-70000000D03*
D14*
X14540000Y-70000000D03*
D12*
X120920000Y-66000000D03*
X131080000Y-66000000D03*
X98075000Y-63525000D03*
X105695000Y-63525000D03*
X157075000Y-20525000D03*
X162075000Y-20525000D03*
X124075000Y-42525000D03*
X129075000Y-42525000D03*
X87500000Y-65690000D03*
X92500000Y-65690000D03*
X46075000Y-63525000D03*
X53695000Y-63525000D03*
X35075000Y-31525000D03*
X42695000Y-31525000D03*
D17*
X150347300Y-112000000D03*
D12*
X153847300Y-112000000D03*
X46075000Y-12525000D03*
X53695000Y-12525000D03*
X20075000Y-63525000D03*
X25075000Y-63525000D03*
X35075000Y-87525000D03*
X42695000Y-87525000D03*
X72075000Y-17525000D03*
X79695000Y-17525000D03*
X35500000Y-82310000D03*
X40500000Y-82310000D03*
X124075000Y-25525000D03*
X129075000Y-25525000D03*
X46075000Y-22525000D03*
X53695000Y-22525000D03*
D18*
X163000000Y-85080000D03*
D19*
X163000000Y-74920000D03*
D12*
X24075000Y-46525000D03*
X31695000Y-46525000D03*
X61500000Y-82310000D03*
X66500000Y-82310000D03*
X98075000Y-68525000D03*
X105695000Y-68525000D03*
D10*
X117570000Y-85810000D03*
D11*
X120110000Y-85810000D03*
X122650000Y-85810000D03*
X125190000Y-85810000D03*
X127730000Y-85810000D03*
X130270000Y-85810000D03*
X132810000Y-85810000D03*
X135350000Y-85810000D03*
X137890000Y-85810000D03*
X140430000Y-85810000D03*
X140430000Y-78190000D03*
X137890000Y-78190000D03*
X135350000Y-78190000D03*
X132810000Y-78190000D03*
X130270000Y-78190000D03*
X127730000Y-78190000D03*
X125190000Y-78190000D03*
X122650000Y-78190000D03*
X120110000Y-78190000D03*
X117570000Y-78190000D03*
D10*
X60190000Y-77810000D03*
D11*
X62730000Y-77810000D03*
X65270000Y-77810000D03*
X67810000Y-77810000D03*
X67810000Y-70190000D03*
X65270000Y-70190000D03*
X62730000Y-70190000D03*
X60190000Y-70190000D03*
D12*
X72075000Y-12525000D03*
X79695000Y-12525000D03*
D10*
X123380000Y-37810000D03*
D11*
X125920000Y-37810000D03*
X128460000Y-37810000D03*
X131000000Y-37810000D03*
X133540000Y-37810000D03*
X136080000Y-37810000D03*
X138620000Y-37810000D03*
X138620000Y-30190000D03*
X136080000Y-30190000D03*
X133540000Y-30190000D03*
X131000000Y-30190000D03*
X128460000Y-30190000D03*
X125920000Y-30190000D03*
X123380000Y-30190000D03*
D12*
X98075000Y-31525000D03*
X105695000Y-31525000D03*
X89500000Y-106310000D03*
X94500000Y-106310000D03*
D17*
X150347300Y-94000000D03*
D12*
X153847300Y-94000000D03*
D10*
X86190000Y-77810000D03*
D11*
X88730000Y-77810000D03*
X91270000Y-77810000D03*
X93810000Y-77810000D03*
X93810000Y-70190000D03*
X91270000Y-70190000D03*
X88730000Y-70190000D03*
X86190000Y-70190000D03*
D12*
X132075000Y-93525000D03*
X139695000Y-93525000D03*
D15*
X7615000Y-27460000D03*
D16*
X7615000Y-30000000D03*
X7615000Y-32540000D03*
D12*
X148075000Y-20525000D03*
X153075000Y-20525000D03*
X46075000Y-68525000D03*
X53695000Y-68525000D03*
X98075000Y-16525000D03*
X105695000Y-16525000D03*
X132075000Y-98525000D03*
X139695000Y-98525000D03*
X36075000Y-36525000D03*
X43695000Y-36525000D03*
X24075000Y-102525000D03*
X31695000Y-102525000D03*
X24075000Y-41525000D03*
X29075000Y-41525000D03*
X72075000Y-63525000D03*
X79695000Y-63525000D03*
X33075000Y-97525000D03*
X40695000Y-97525000D03*
X132075000Y-103525000D03*
X139695000Y-103525000D03*
X24075000Y-36525000D03*
X31695000Y-36525000D03*
X72075000Y-73525000D03*
X79695000Y-73525000D03*
X21075000Y-28425000D03*
X31075000Y-28425000D03*
X46075000Y-73525000D03*
X53695000Y-73525000D03*
X21075000Y-84425000D03*
X31075000Y-84425000D03*
X46075000Y-78525000D03*
X53695000Y-78525000D03*
D10*
X34190000Y-21810000D03*
D11*
X36730000Y-21810000D03*
X39270000Y-21810000D03*
X41810000Y-21810000D03*
X41810000Y-14190000D03*
X39270000Y-14190000D03*
X36730000Y-14190000D03*
X34190000Y-14190000D03*
D12*
X136075000Y-20525000D03*
X143695000Y-20525000D03*
D17*
X150347300Y-80000000D03*
D12*
X153847300Y-80000000D03*
X61500000Y-106310000D03*
X66500000Y-106310000D03*
X72075000Y-22525000D03*
X77075000Y-22525000D03*
X47075000Y-83525000D03*
X52075000Y-83525000D03*
X98075000Y-73525000D03*
X105695000Y-73525000D03*
X61500000Y-50310000D03*
X66500000Y-50310000D03*
D18*
X163000000Y-103080000D03*
D19*
X163000000Y-92920000D03*
D10*
X60190000Y-21810000D03*
D11*
X62730000Y-21810000D03*
X65270000Y-21810000D03*
X67810000Y-21810000D03*
X67810000Y-14190000D03*
X65270000Y-14190000D03*
X62730000Y-14190000D03*
X60190000Y-14190000D03*
D12*
X24075000Y-92525000D03*
X31695000Y-92525000D03*
D10*
X56380000Y-101810000D03*
D11*
X58920000Y-101810000D03*
X61460000Y-101810000D03*
X64000000Y-101810000D03*
X66540000Y-101810000D03*
X69080000Y-101810000D03*
X71620000Y-101810000D03*
X71620000Y-94190000D03*
X69080000Y-94190000D03*
X66540000Y-94190000D03*
X64000000Y-94190000D03*
X61460000Y-94190000D03*
X58920000Y-94190000D03*
X56380000Y-94190000D03*
D12*
X20075000Y-68525000D03*
X27695000Y-68525000D03*
X20075000Y-12525000D03*
X27695000Y-12525000D03*
D15*
X7615000Y-83460000D03*
D16*
X7615000Y-86000000D03*
X7615000Y-88540000D03*
D10*
X84380000Y-101810000D03*
D11*
X86920000Y-101810000D03*
X89460000Y-101810000D03*
X92000000Y-101810000D03*
X94540000Y-101810000D03*
X97080000Y-101810000D03*
X99620000Y-101810000D03*
X99620000Y-94190000D03*
X97080000Y-94190000D03*
X94540000Y-94190000D03*
X92000000Y-94190000D03*
X89460000Y-94190000D03*
X86920000Y-94190000D03*
X84380000Y-94190000D03*
D12*
X124075000Y-60525000D03*
X129075000Y-60525000D03*
X36075000Y-92525000D03*
X43695000Y-92525000D03*
X98075000Y-21525000D03*
X105695000Y-21525000D03*
X61500000Y-65690000D03*
X66500000Y-65690000D03*
X72075000Y-7525000D03*
X79695000Y-7525000D03*
D20*
X137632300Y-68000000D03*
D21*
X142632300Y-68000000D03*
D12*
X126500000Y-73690000D03*
X131500000Y-73690000D03*
D10*
X34190000Y-77810000D03*
D11*
X36730000Y-77810000D03*
X39270000Y-77810000D03*
X41810000Y-77810000D03*
X41810000Y-70190000D03*
X39270000Y-70190000D03*
X36730000Y-70190000D03*
X34190000Y-70190000D03*
D12*
X61500000Y-26310000D03*
X66500000Y-26310000D03*
X46075000Y-17525000D03*
X53695000Y-17525000D03*
X87500000Y-9690000D03*
X92500000Y-9690000D03*
D10*
X84380000Y-45810000D03*
D11*
X86920000Y-45810000D03*
X89460000Y-45810000D03*
X92000000Y-45810000D03*
X94540000Y-45810000D03*
X97080000Y-45810000D03*
X99620000Y-45810000D03*
X99620000Y-38190000D03*
X97080000Y-38190000D03*
X94540000Y-38190000D03*
X92000000Y-38190000D03*
X89460000Y-38190000D03*
X86920000Y-38190000D03*
X84380000Y-38190000D03*
D12*
X149500000Y-66000000D03*
X154500000Y-66000000D03*
X148190000Y-104000000D03*
X155810000Y-104000000D03*
X120500000Y-95690000D03*
X125500000Y-95690000D03*
X35500000Y-65690000D03*
X40500000Y-65690000D03*
X61500000Y-9690000D03*
X66500000Y-9690000D03*
X98075000Y-83525000D03*
X105695000Y-83525000D03*
X133075000Y-42525000D03*
X138075000Y-42525000D03*
X148075000Y-60525000D03*
X153075000Y-60525000D03*
X154075000Y-42525000D03*
X161695000Y-42525000D03*
X132075000Y-108525000D03*
X139695000Y-108525000D03*
D10*
X56380000Y-45810000D03*
D11*
X58920000Y-45810000D03*
X61460000Y-45810000D03*
X64000000Y-45810000D03*
X66540000Y-45810000D03*
X69080000Y-45810000D03*
X71620000Y-45810000D03*
X71620000Y-38190000D03*
X69080000Y-38190000D03*
X66540000Y-38190000D03*
X64000000Y-38190000D03*
X61460000Y-38190000D03*
X58920000Y-38190000D03*
X56380000Y-38190000D03*
D12*
X20075000Y-7525000D03*
X25075000Y-7525000D03*
X124075000Y-20525000D03*
X131695000Y-20525000D03*
D10*
X119190000Y-107810000D03*
D11*
X121730000Y-107810000D03*
X124270000Y-107810000D03*
X126810000Y-107810000D03*
X126810000Y-100190000D03*
X124270000Y-100190000D03*
X121730000Y-100190000D03*
X119190000Y-100190000D03*
D22*
X124560000Y-12000000D03*
X129440000Y-12000000D03*
D12*
X47075000Y-27525000D03*
X52075000Y-27525000D03*
X72075000Y-78525000D03*
X77075000Y-78525000D03*
X98075000Y-78525000D03*
X105695000Y-78525000D03*
X98075000Y-11525000D03*
X105695000Y-11525000D03*
X33075000Y-41525000D03*
X40695000Y-41525000D03*
D15*
X118770000Y-56630000D03*
D16*
X116230000Y-56630000D03*
X118770000Y-54090000D03*
X116230000Y-54090000D03*
X118770000Y-51550000D03*
X116230000Y-51550000D03*
X118770000Y-49010000D03*
X116230000Y-49010000D03*
X118770000Y-46470000D03*
X116230000Y-46470000D03*
X118770000Y-43930000D03*
X116230000Y-43930000D03*
X118770000Y-41390000D03*
X116230000Y-41390000D03*
X118770000Y-38850000D03*
X116230000Y-38850000D03*
X118770000Y-36310000D03*
X116230000Y-36310000D03*
X118770000Y-33770000D03*
X116230000Y-33770000D03*
X118770000Y-31230000D03*
X116230000Y-31230000D03*
X118770000Y-28690000D03*
X116230000Y-28690000D03*
X118770000Y-26150000D03*
X116230000Y-26150000D03*
X118770000Y-23610000D03*
X116230000Y-23610000D03*
X118770000Y-21070000D03*
X116230000Y-21070000D03*
X118770000Y-18530000D03*
X116230000Y-18530000D03*
X118770000Y-15990000D03*
X116230000Y-15990000D03*
X118770000Y-13450000D03*
X116230000Y-13450000D03*
X118770000Y-10910000D03*
X116230000Y-10910000D03*
X118770000Y-8370000D03*
X116230000Y-8370000D03*
D23*
X49551900Y-29559000D03*
X87590500Y-64056200D03*
X56441800Y-83967700D03*
D24*
X124560000Y-12000000D02*
X124560000Y-15810000D01*
X146134400Y-20525000D02*
X148075000Y-20525000D01*
X139941400Y-14248600D02*
X141454000Y-14248600D01*
X124560000Y-20040000D02*
X124075000Y-20525000D01*
X124560000Y-15810000D02*
X138380000Y-15810000D01*
X124560000Y-15810000D02*
X124560000Y-20040000D01*
X141454000Y-14248600D02*
X142190000Y-14984600D01*
X138380000Y-15810000D02*
X139941400Y-14248600D01*
X142190000Y-14984600D02*
X142190000Y-16580600D01*
X142190000Y-16580600D02*
X146134400Y-20525000D01*
X136075000Y-20525000D02*
X137756700Y-20525000D01*
X137756700Y-20525000D02*
X140920000Y-17361700D01*
X140920000Y-15810000D02*
X140920000Y-17361700D01*
X105695000Y-11525000D02*
X105695000Y-16525000D01*
X105695000Y-21525000D02*
X105695000Y-26525000D01*
X64495000Y-103361700D02*
X65270000Y-102586700D01*
X26498000Y-96581200D02*
X28604400Y-98687600D01*
X58920000Y-101810000D02*
X58920000Y-100258300D01*
X65270000Y-91248000D02*
X70670300Y-85847700D01*
X26498000Y-94947900D02*
X26498000Y-96581200D01*
X38039300Y-96367400D02*
X55029100Y-96367400D01*
X24075000Y-92525000D02*
X26497900Y-94947900D01*
X55029100Y-96367400D02*
X58920000Y-100258300D01*
X35719100Y-98687600D02*
X38039300Y-96367400D01*
X58920000Y-101810000D02*
X58920000Y-103361700D01*
X70670300Y-85847700D02*
X70670300Y-69929700D01*
X28604400Y-98687600D02*
X35719100Y-98687600D01*
X70670300Y-69929700D02*
X72075000Y-68525000D01*
X58920000Y-103361700D02*
X64495000Y-103361700D01*
X26497900Y-94947900D02*
X26498000Y-94947900D01*
X65270000Y-102586700D02*
X65270000Y-91248000D01*
X79695000Y-73525000D02*
X79695000Y-68525000D01*
X79695000Y-73525000D02*
X77075000Y-73525000D01*
X77075000Y-73525000D02*
X72075000Y-78525000D01*
X79695000Y-63525000D02*
X79695000Y-68525000D01*
X29075000Y-41525000D02*
X29075000Y-33151600D01*
X29075000Y-33151600D02*
X34190000Y-28036600D01*
X34190000Y-28036600D02*
X34190000Y-21810000D01*
X51911700Y-15741700D02*
X53695000Y-17525000D01*
X39270000Y-14190000D02*
X40821700Y-15741700D01*
X53695000Y-22525000D02*
X53695000Y-17525000D01*
X51911700Y-15741700D02*
X51911700Y-14308300D01*
X40821700Y-15741700D02*
X51911700Y-15741700D01*
X51911700Y-14308300D02*
X53695000Y-12525000D01*
X53695000Y-12525000D02*
X53695000Y-7525000D01*
X9460000Y-16810000D02*
X9460000Y-14000000D01*
X21075000Y-28425000D02*
X9460000Y-16810000D01*
X87458400Y-89158900D02*
X85751300Y-90866000D01*
X87458400Y-68125000D02*
X87458400Y-89158900D01*
X88665100Y-63375300D02*
X88665100Y-66918300D01*
X131000000Y-47411700D02*
X131000000Y-49019300D01*
X131971500Y-46561800D02*
X131849900Y-46561800D01*
X131000000Y-49019300D02*
X126629500Y-53389800D01*
X162324800Y-36233100D02*
X142300200Y-36233100D01*
X86424700Y-103361700D02*
X89460000Y-103361700D01*
X88665100Y-66918300D02*
X87458400Y-68125000D01*
X85751300Y-90866000D02*
X85751300Y-102688300D01*
X131849900Y-46561800D02*
X131000000Y-47411700D01*
X162350000Y-37810000D02*
X162350000Y-36258300D01*
X142300200Y-36233100D02*
X131971500Y-46561800D01*
X126629500Y-53389800D02*
X124530200Y-53389800D01*
X88290700Y-48531000D02*
X88290700Y-63000900D01*
X85751300Y-102688300D02*
X86424700Y-103361700D01*
X162350000Y-36258300D02*
X162324800Y-36233100D01*
X89460000Y-45810000D02*
X89460000Y-47361700D01*
X88290700Y-63000900D02*
X88665100Y-63375300D01*
X89460000Y-47361700D02*
X88290700Y-48531000D01*
X89460000Y-101810000D02*
X89460000Y-103361700D01*
X124530200Y-53389800D02*
X122110000Y-55810000D01*
X120559300Y-108864500D02*
X120013600Y-109410200D01*
X94540000Y-101810000D02*
X94540000Y-103361700D01*
X122149800Y-71451400D02*
X121493600Y-72107600D01*
X120013600Y-109410200D02*
X100085800Y-109410200D01*
X122149800Y-59861900D02*
X122149800Y-71451400D01*
X121691700Y-93401900D02*
X121691700Y-96891700D01*
X124650000Y-57361700D02*
X122149800Y-59861900D01*
X56380000Y-101810000D02*
X58434400Y-103864400D01*
X121493600Y-72107600D02*
X121493600Y-93203800D01*
X120559300Y-98024100D02*
X120559300Y-108864500D01*
X100085800Y-109410200D02*
X94540000Y-103864400D01*
X94540000Y-103864400D02*
X94540000Y-103361700D01*
X124650000Y-55810000D02*
X124650000Y-57361700D01*
X121691700Y-96891700D02*
X120559300Y-98024100D01*
X121493600Y-93203800D02*
X121691700Y-93401900D01*
X58434400Y-103864400D02*
X94540000Y-103864400D01*
D25*
X152190000Y-37810000D02*
X152190000Y-39511700D01*
X140430000Y-78190000D02*
X140430000Y-76488300D01*
X140430000Y-78190000D02*
X140430000Y-79891700D01*
X140430000Y-76488300D02*
X145162500Y-71755800D01*
X135350000Y-79891700D02*
X140430000Y-79891700D01*
X135350000Y-79891700D02*
X135350000Y-84108300D01*
X145162500Y-71755800D02*
X145162500Y-45156600D01*
X130270000Y-84108300D02*
X135350000Y-84108300D01*
X130270000Y-85810000D02*
X130270000Y-84108300D01*
X150807400Y-39511700D02*
X152190000Y-39511700D01*
X145162500Y-45156600D02*
X150807400Y-39511700D01*
X135350000Y-84108300D02*
X135350000Y-85810000D01*
X135350000Y-78190000D02*
X135350000Y-79891700D01*
X130270000Y-78190000D02*
X130270000Y-84108300D01*
D24*
X158601400Y-56572100D02*
X158601400Y-54644100D01*
X157811800Y-57361700D02*
X158601400Y-56572100D01*
X152190000Y-55810000D02*
X152190000Y-57361700D01*
X158601400Y-54644100D02*
X163620000Y-49625500D01*
X152190000Y-57361700D02*
X157811800Y-57361700D01*
X163620000Y-49625500D02*
X163620000Y-33011700D01*
X163620000Y-33011700D02*
X164890000Y-31741700D01*
X164890000Y-30190000D02*
X164890000Y-31741700D01*
X162350000Y-30190000D02*
X162350000Y-31741700D01*
X162350000Y-31741700D02*
X158698200Y-35393500D01*
X129324800Y-35393500D02*
X128460000Y-36258300D01*
X158698200Y-35393500D02*
X129324800Y-35393500D01*
X128460000Y-37810000D02*
X128460000Y-36258300D01*
X42695000Y-87525000D02*
X43695000Y-88525000D01*
X43695000Y-88525000D02*
X43695000Y-92525000D01*
X35631600Y-88676700D02*
X35543300Y-88676700D01*
X35543300Y-88676700D02*
X31695000Y-92525000D01*
X36730000Y-81560000D02*
X39739200Y-84569100D01*
X36730000Y-77810000D02*
X36730000Y-81560000D01*
X39739200Y-84569100D02*
X42695000Y-87525000D01*
X39739200Y-84569100D02*
X35631600Y-88676700D01*
X34190000Y-84036700D02*
X34190000Y-77810000D01*
X29075000Y-97525000D02*
X29075000Y-89151700D01*
X29075000Y-89151700D02*
X34190000Y-84036700D01*
D25*
X41017200Y-24304500D02*
X41017200Y-26310000D01*
X66500000Y-26310000D02*
X73396100Y-33206100D01*
X63944900Y-84865100D02*
X45675100Y-84865100D01*
X67810000Y-21810000D02*
X67810000Y-25000000D01*
X73396100Y-65002300D02*
X69116900Y-69281500D01*
X45675100Y-84865100D02*
X41810000Y-81000000D01*
X73396100Y-33206100D02*
X73396100Y-65002300D01*
X69116900Y-69281500D02*
X69116900Y-74801400D01*
X41810000Y-81000000D02*
X40500000Y-82310000D01*
X49551900Y-29559000D02*
X44266200Y-29559000D01*
X67810000Y-25000000D02*
X66500000Y-26310000D01*
X67810000Y-81000000D02*
X66500000Y-82310000D01*
X67810000Y-77810000D02*
X67810000Y-81000000D01*
X41810000Y-23511700D02*
X41017200Y-24304500D01*
X44266200Y-29559000D02*
X41017200Y-26310000D01*
X41017200Y-26310000D02*
X40500000Y-26310000D01*
X41810000Y-77810000D02*
X41810000Y-81000000D01*
X66500000Y-82310000D02*
X63944900Y-84865100D01*
X67810000Y-77810000D02*
X67810000Y-76108300D01*
X41810000Y-21810000D02*
X41810000Y-23511700D01*
X69116900Y-74801400D02*
X67810000Y-76108300D01*
X100520000Y-76469900D02*
X100520000Y-73525000D01*
X88730000Y-21810000D02*
X88730000Y-20108300D01*
X100520000Y-73525000D02*
X98075000Y-73525000D01*
X100935300Y-24385300D02*
X98075000Y-21525000D01*
X100935300Y-73109700D02*
X100935300Y-24385300D01*
X107556100Y-83506000D02*
X100520000Y-76469900D01*
X96658300Y-20108300D02*
X88730000Y-20108300D01*
X107556100Y-96176100D02*
X107556100Y-83506000D01*
X119190000Y-107810000D02*
X107556100Y-96176100D01*
X100520000Y-73525000D02*
X100935300Y-73109700D01*
X98075000Y-21525000D02*
X96658300Y-20108300D01*
D24*
X87559400Y-18818000D02*
X88730000Y-17647400D01*
X88730000Y-14190000D02*
X88730000Y-17647400D01*
X87559400Y-25184600D02*
X87559400Y-18818000D01*
X95836500Y-17647400D02*
X88730000Y-17647400D01*
X101885100Y-23696000D02*
X95836500Y-17647400D01*
X101885100Y-27715100D02*
X101885100Y-23696000D01*
X86920000Y-44258300D02*
X85729400Y-43067700D01*
X85729400Y-43067700D02*
X85729400Y-27014600D01*
X86920000Y-45810000D02*
X86920000Y-44258300D01*
X105695000Y-31525000D02*
X101885100Y-27715100D01*
X85729400Y-27014600D02*
X87559400Y-25184600D01*
X152377100Y-23632800D02*
X150264500Y-23632800D01*
X158185300Y-17734500D02*
X155453800Y-20466000D01*
X160538800Y-17734500D02*
X158185300Y-17734500D01*
X162000000Y-12000000D02*
X163233700Y-13233700D01*
X125920000Y-37810000D02*
X125920000Y-36258300D01*
X150264500Y-23632800D02*
X139174100Y-34723200D01*
X155453800Y-20466000D02*
X155453800Y-20556100D01*
X127455100Y-34723200D02*
X125920000Y-36258300D01*
X163233700Y-15039600D02*
X160538800Y-17734500D01*
X139174100Y-34723200D02*
X127455100Y-34723200D01*
X155453800Y-20556100D02*
X152377100Y-23632800D01*
X163233700Y-13233700D02*
X163233700Y-15039600D01*
X117566500Y-47806500D02*
X118770000Y-49010000D01*
X123400400Y-35094400D02*
X118282100Y-35094400D01*
X118282100Y-35094400D02*
X117566500Y-35810000D01*
X117566500Y-35810000D02*
X117566500Y-47806500D01*
X149090500Y-21748300D02*
X139097100Y-31741700D01*
X154407900Y-20792200D02*
X154407900Y-20880900D01*
X162000000Y-14540000D02*
X160660100Y-14540000D01*
X139097100Y-31741700D02*
X126753100Y-31741700D01*
X154407900Y-20880900D02*
X153540500Y-21748300D01*
X160660100Y-14540000D02*
X154407900Y-20792200D01*
X126753100Y-31741700D02*
X123400400Y-35094400D01*
X153540500Y-21748300D02*
X149090500Y-21748300D01*
D25*
X120171700Y-37711700D02*
X120171700Y-55228300D01*
X118770000Y-36310000D02*
X120171700Y-37711700D01*
X120171700Y-55228300D02*
X118770000Y-56630000D01*
X148075000Y-56775000D02*
X148075000Y-60525000D01*
X147110000Y-55810000D02*
X148075000Y-56775000D01*
D24*
X157270000Y-54258300D02*
X149650000Y-54258300D01*
X157270000Y-55810000D02*
X157270000Y-54258300D01*
X149650000Y-55810000D02*
X149650000Y-54258300D01*
X159810000Y-55810000D02*
X159810000Y-54258300D01*
X164890000Y-48190000D02*
X164890000Y-49741700D01*
X164890000Y-49741700D02*
X164326600Y-49741700D01*
X164326600Y-49741700D02*
X159810000Y-54258300D01*
X162350000Y-46638300D02*
X158188300Y-46638300D01*
X162350000Y-48190000D02*
X162350000Y-46638300D01*
X158188300Y-46638300D02*
X154075000Y-42525000D01*
X152190000Y-48190000D02*
X152190000Y-49741700D01*
X157270000Y-48190000D02*
X157270000Y-49741700D01*
X152190000Y-49741700D02*
X157270000Y-49741700D01*
X9460000Y-72810000D02*
X9460000Y-70000000D01*
X21075000Y-84425000D02*
X9460000Y-72810000D01*
X116230000Y-54090000D02*
X116230000Y-56630000D01*
X120920000Y-61320000D02*
X120920000Y-66000000D01*
X116230000Y-56630000D02*
X120920000Y-61320000D01*
X77075000Y-78525000D02*
X84866500Y-70733500D01*
X84866500Y-66640200D02*
X87450500Y-64056200D01*
X84866500Y-70733500D02*
X84866500Y-66640200D01*
X87450500Y-64056200D02*
X87590500Y-64056200D01*
X105695000Y-73525000D02*
X105695000Y-68525000D01*
X105695000Y-78525000D02*
X105695000Y-73525000D01*
X105695000Y-68525000D02*
X105695000Y-63525000D01*
X53695000Y-78525000D02*
X53695000Y-73525000D01*
X53695000Y-73525000D02*
X53695000Y-68525000D01*
X31776300Y-36525000D02*
X38296500Y-30004800D01*
X41174800Y-30004800D02*
X42695000Y-31525000D01*
X31695000Y-36525000D02*
X31776300Y-36525000D01*
X38296500Y-30004800D02*
X41174800Y-30004800D01*
X42695000Y-35525000D02*
X42695000Y-31525000D01*
X38296500Y-24928200D02*
X36730000Y-23361700D01*
X43695000Y-36525000D02*
X42695000Y-35525000D01*
X38296500Y-30004800D02*
X38296500Y-24928200D01*
X36730000Y-21810000D02*
X36730000Y-23361700D01*
X65270000Y-42988300D02*
X64000000Y-44258300D01*
X73256700Y-6373300D02*
X73256700Y-13068500D01*
X73256700Y-13068500D02*
X66540000Y-19785200D01*
X65270000Y-24603400D02*
X65270000Y-42988300D01*
X98075000Y-16341300D02*
X98075000Y-16525000D01*
X87312300Y-6373300D02*
X92806400Y-11867400D01*
X52226700Y-6373300D02*
X73256700Y-6373300D01*
X93601100Y-11867400D02*
X98075000Y-16341300D01*
X66540000Y-19785200D02*
X66540000Y-23333400D01*
X64000000Y-45810000D02*
X64000000Y-44258300D01*
X92806400Y-11867400D02*
X93601100Y-11867400D01*
X73256700Y-6373300D02*
X87312300Y-6373300D01*
X66540000Y-23333400D02*
X65270000Y-24603400D01*
X46075000Y-12525000D02*
X52226700Y-6373300D01*
D25*
X36075000Y-39414700D02*
X36075000Y-36525000D01*
X46075000Y-73525000D02*
X47384100Y-72215900D01*
X47384100Y-50723800D02*
X36075000Y-39414700D01*
X47384100Y-72215900D02*
X47384100Y-50723800D01*
D24*
X79695000Y-12525000D02*
X79695000Y-17525000D01*
X79695000Y-7525000D02*
X79695000Y-12525000D01*
X77075000Y-17525000D02*
X72075000Y-22525000D01*
X79695000Y-17525000D02*
X77075000Y-17525000D01*
X39287100Y-35368300D02*
X35582900Y-35368300D01*
X51549200Y-28690500D02*
X46075000Y-23216300D01*
X55453800Y-25787000D02*
X52550300Y-28690500D01*
X44161800Y-37704600D02*
X41623400Y-37704600D01*
X41623400Y-37704600D02*
X39287100Y-35368300D01*
X62730000Y-14190000D02*
X62730000Y-15843000D01*
X55453800Y-23119200D02*
X55453800Y-25787000D01*
X51549200Y-30317200D02*
X44161800Y-37704600D01*
X52550300Y-28690500D02*
X51549200Y-28690500D01*
X51549200Y-28690500D02*
X51549200Y-30317200D01*
X35582900Y-35368300D02*
X31695000Y-39256200D01*
X46075000Y-23216300D02*
X46075000Y-22525000D01*
X31695000Y-39256200D02*
X31695000Y-46525000D01*
X62730000Y-15843000D02*
X55453800Y-23119200D01*
X163000000Y-103080000D02*
X157114400Y-97194400D01*
X157114400Y-83267100D02*
X155883700Y-82036300D01*
X155883700Y-82036300D02*
X153847300Y-80000000D01*
X157114400Y-97194400D02*
X157114400Y-83267100D01*
X163000000Y-74920000D02*
X155883700Y-82036300D01*
X56467600Y-23089400D02*
X56467600Y-26160300D01*
X65270000Y-15741700D02*
X63815300Y-15741700D01*
X56467600Y-26160300D02*
X41102900Y-41525000D01*
X65270000Y-14190000D02*
X65270000Y-15741700D01*
X41102900Y-41525000D02*
X40695000Y-41525000D01*
X63815300Y-15741700D02*
X56467600Y-23089400D01*
X38000000Y-75491200D02*
X38000000Y-81510700D01*
X40705600Y-84216300D02*
X41133600Y-84216300D01*
X35554500Y-73045700D02*
X38000000Y-75491200D01*
X36349600Y-68525000D02*
X35554500Y-69320100D01*
X41133600Y-84216300D02*
X52659000Y-95741700D01*
X64000000Y-101810000D02*
X64000000Y-100258300D01*
X46075000Y-68525000D02*
X36349600Y-68525000D01*
X59483400Y-95741700D02*
X64000000Y-100258300D01*
X52659000Y-95741700D02*
X59483400Y-95741700D01*
X38000000Y-81510700D02*
X40705600Y-84216300D01*
X35554500Y-69320100D02*
X35554500Y-73045700D01*
X127730000Y-87235800D02*
X127730000Y-87360200D01*
X122650000Y-76638300D02*
X127730000Y-76638300D01*
X127730000Y-87360200D02*
X127730000Y-87361700D01*
X127730000Y-78190000D02*
X127730000Y-76638300D01*
X127728500Y-87361700D02*
X122650000Y-87361700D01*
X127730000Y-85810000D02*
X127730000Y-87235800D01*
X132811700Y-87361700D02*
X137890000Y-87361700D01*
X132810000Y-85810000D02*
X132810000Y-87235800D01*
X132808300Y-87361700D02*
X127730000Y-87361700D01*
X132810000Y-87235800D02*
X132810000Y-87360000D01*
X137890000Y-85810000D02*
X137890000Y-87361700D01*
X132810000Y-87360000D02*
X132811700Y-87361700D01*
X122650000Y-78190000D02*
X122650000Y-76638300D01*
X127730000Y-87360200D02*
X127728500Y-87361700D01*
X122650000Y-85810000D02*
X122650000Y-87361700D01*
X132810000Y-87360000D02*
X132808300Y-87361700D01*
X61559300Y-78850200D02*
X56441800Y-83967700D01*
X37551300Y-100668700D02*
X25931300Y-100668700D01*
X40695000Y-97525000D02*
X37551300Y-100668700D01*
X65270000Y-70190000D02*
X65270000Y-71915200D01*
X25931300Y-100668700D02*
X24075000Y-102525000D01*
X65270000Y-71915200D02*
X61559300Y-75625900D01*
X61559300Y-75625900D02*
X61559300Y-78850200D01*
X60190000Y-42988300D02*
X60190000Y-37334100D01*
X60190000Y-37334100D02*
X64118300Y-33405800D01*
X58920000Y-44258300D02*
X60190000Y-42988300D01*
X58920000Y-45810000D02*
X58920000Y-44258300D01*
X64118300Y-33405800D02*
X64118300Y-20481700D01*
X64118300Y-20481700D02*
X72075000Y-12525000D01*
X86920000Y-101810000D02*
X86920000Y-100258300D01*
X90000000Y-82331900D02*
X104501900Y-82331900D01*
X88190000Y-98988300D02*
X86920000Y-100258300D01*
X90000000Y-82331900D02*
X88190000Y-84141900D01*
X90000000Y-73011700D02*
X90000000Y-82331900D01*
X88190000Y-84141900D02*
X88190000Y-98988300D01*
X88730000Y-70190000D02*
X88730000Y-71741700D01*
X88730000Y-71741700D02*
X90000000Y-73011700D01*
X104501900Y-82331900D02*
X105695000Y-83525000D01*
X124270000Y-106258300D02*
X123096200Y-105084500D01*
X123096200Y-99279100D02*
X123850300Y-98525000D01*
X123850300Y-98525000D02*
X132075000Y-98525000D01*
X137075000Y-93525000D02*
X139695000Y-93525000D01*
X123096200Y-105084500D02*
X123096200Y-99279100D01*
X124270000Y-107810000D02*
X124270000Y-106258300D01*
X132075000Y-98525000D02*
X137075000Y-93525000D01*
X37804900Y-71741700D02*
X36730000Y-71741700D01*
X43956200Y-78051900D02*
X43956200Y-77893000D01*
X36730000Y-70190000D02*
X36730000Y-71741700D01*
X68118900Y-67481100D02*
X72075000Y-63525000D01*
X64042800Y-71557200D02*
X64042800Y-69375500D01*
X64042800Y-69375500D02*
X65937200Y-67481100D01*
X43956200Y-77893000D02*
X37804900Y-71741700D01*
X52075000Y-83525000D02*
X49429300Y-83525000D01*
X52075000Y-83525000D02*
X64042800Y-71557200D01*
X49429300Y-83525000D02*
X43956200Y-78051900D01*
X65937200Y-67481100D02*
X68118900Y-67481100D01*
X132075000Y-107593200D02*
X135626800Y-107593200D01*
X132075000Y-107593200D02*
X132075000Y-108525000D01*
X135626800Y-107593200D02*
X139695000Y-103525000D01*
X126223500Y-101741700D02*
X132075000Y-107593200D01*
X124270000Y-101741700D02*
X126223500Y-101741700D01*
X124270000Y-100190000D02*
X124270000Y-101741700D01*
X20075000Y-17425000D02*
X20075000Y-12525000D01*
X31075000Y-28425000D02*
X20075000Y-17425000D01*
X20075000Y-73425000D02*
X20075000Y-68525000D01*
X31075000Y-84425000D02*
X20075000Y-73425000D01*
X61458500Y-16403100D02*
X51668900Y-26192700D01*
X41544600Y-16777900D02*
X41860200Y-17093500D01*
X61458500Y-15033800D02*
X61458500Y-16403100D01*
X52075000Y-26598900D02*
X52075000Y-27525000D01*
X41860200Y-17093500D02*
X42569600Y-17093500D01*
X61460000Y-15032300D02*
X61458500Y-15033800D01*
X38766300Y-15741700D02*
X39268000Y-16243400D01*
X67464800Y-12135200D02*
X62742000Y-12135200D01*
X36730000Y-15741700D02*
X38766300Y-15741700D01*
X42569600Y-17093500D02*
X51668900Y-26192700D01*
X41008100Y-16243400D02*
X41542600Y-16777900D01*
X36730000Y-14190000D02*
X36730000Y-15741700D01*
X62742000Y-12135200D02*
X61460000Y-13417200D01*
X41542600Y-16777900D02*
X41544600Y-16777900D01*
X51668900Y-26192700D02*
X52075000Y-26598900D01*
X39268000Y-16243400D02*
X41008100Y-16243400D01*
X72075000Y-7525000D02*
X67464800Y-12135200D01*
X61460000Y-13417200D02*
X61460000Y-15032300D01*
M02*
