M48
; DRILL file KiCad 10.0.5-1-g226df246f3 date 2026-09-22T12:47:12
; FORMAT={-:-/ absolute / metric / decimal}
; #@! TF.CreationDate,2026-09-22T12:47:12+02:00
; #@! TF.GenerationSoftware,Kicad,Pcbnew,10.0.5-1-g226df246f3
; #@! TF.FileFunction,Plated,1,4,PTH
FMAT,2
METRIC
; #@! TA.AperFunction,Plated,PTH,ViaDrill
T1C0.350
; #@! TA.AperFunction,Plated,PTH,ComponentDrill
T2C0.800
; #@! TA.AperFunction,Plated,PTH,ComponentDrill
T3C1.000
; #@! TA.AperFunction,Plated,PTH,ComponentDrill
T4C1.100
; #@! TA.AperFunction,Plated,PTH,ComponentDrill
T5C1.520
%
G90
G05
T1
X49.552Y-29.559
X56.442Y-83.968
X87.59Y-64.056
T2
X20.075Y-7.525
X20.075Y-12.525
X20.075Y-63.525
X20.075Y-68.525
X21.075Y-28.425
X21.075Y-84.425
X24.075Y-36.525
X24.075Y-41.525
X24.075Y-46.525
X24.075Y-92.525
X24.075Y-97.525
X24.075Y-102.525
X25.075Y-7.525
X25.075Y-63.525
X27.695Y-12.525
X27.695Y-68.525
X29.075Y-41.525
X29.075Y-97.525
X31.075Y-28.425
X31.075Y-84.425
X31.695Y-36.525
X31.695Y-46.525
X31.695Y-92.525
X31.695Y-102.525
X33.075Y-41.525
X33.075Y-97.525
X34.19Y-14.19
X34.19Y-21.81
X34.19Y-70.19
X34.19Y-77.81
X35.075Y-31.525
X35.075Y-87.525
X35.5Y-9.69
X35.5Y-26.31
X35.5Y-65.69
X35.5Y-82.31
X36.075Y-36.525
X36.075Y-92.525
X36.73Y-14.19
X36.73Y-21.81
X36.73Y-70.19
X36.73Y-77.81
X39.27Y-14.19
X39.27Y-21.81
X39.27Y-70.19
X39.27Y-77.81
X40.5Y-9.69
X40.5Y-26.31
X40.5Y-65.69
X40.5Y-82.31
X40.695Y-41.525
X40.695Y-97.525
X41.81Y-14.19
X41.81Y-21.81
X41.81Y-70.19
X41.81Y-77.81
X42.695Y-31.525
X42.695Y-87.525
X43.695Y-36.525
X43.695Y-92.525
X46.075Y-7.525
X46.075Y-12.525
X46.075Y-17.525
X46.075Y-22.525
X46.075Y-63.525
X46.075Y-68.525
X46.075Y-73.525
X46.075Y-78.525
X47.075Y-27.525
X47.075Y-83.525
X52.075Y-27.525
X52.075Y-83.525
X53.695Y-7.525
X53.695Y-12.525
X53.695Y-17.525
X53.695Y-22.525
X53.695Y-63.525
X53.695Y-68.525
X53.695Y-73.525
X53.695Y-78.525
X56.38Y-38.19
X56.38Y-45.81
X56.38Y-94.19
X56.38Y-101.81
X58.92Y-38.19
X58.92Y-45.81
X58.92Y-94.19
X58.92Y-101.81
X60.19Y-14.19
X60.19Y-21.81
X60.19Y-70.19
X60.19Y-77.81
X61.46Y-38.19
X61.46Y-45.81
X61.46Y-94.19
X61.46Y-101.81
X61.5Y-9.69
X61.5Y-26.31
X61.5Y-50.31
X61.5Y-65.69
X61.5Y-82.31
X61.5Y-106.31
X62.73Y-14.19
X62.73Y-21.81
X62.73Y-70.19
X62.73Y-77.81
X64.0Y-38.19
X64.0Y-45.81
X64.0Y-94.19
X64.0Y-101.81
X65.27Y-14.19
X65.27Y-21.81
X65.27Y-70.19
X65.27Y-77.81
X66.5Y-9.69
X66.5Y-26.31
X66.5Y-50.31
X66.5Y-65.69
X66.5Y-82.31
X66.5Y-106.31
X66.54Y-38.19
X66.54Y-45.81
X66.54Y-94.19
X66.54Y-101.81
X67.81Y-14.19
X67.81Y-21.81
X67.81Y-70.19
X67.81Y-77.81
X69.08Y-38.19
X69.08Y-45.81
X69.08Y-94.19
X69.08Y-101.81
X71.62Y-38.19
X71.62Y-45.81
X71.62Y-94.19
X71.62Y-101.81
X72.075Y-7.525
X72.075Y-12.525
X72.075Y-17.525
X72.075Y-22.525
X72.075Y-63.525
X72.075Y-68.525
X72.075Y-73.525
X72.075Y-78.525
X77.075Y-22.525
X77.075Y-78.525
X79.695Y-7.525
X79.695Y-12.525
X79.695Y-17.525
X79.695Y-63.525
X79.695Y-68.525
X79.695Y-73.525
X84.38Y-38.19
X84.38Y-45.81
X84.38Y-94.19
X84.38Y-101.81
X86.19Y-14.19
X86.19Y-21.81
X86.19Y-70.19
X86.19Y-77.81
X86.92Y-38.19
X86.92Y-45.81
X86.92Y-94.19
X86.92Y-101.81
X87.5Y-9.69
X87.5Y-65.69
X88.73Y-14.19
X88.73Y-21.81
X88.73Y-70.19
X88.73Y-77.81
X89.46Y-38.19
X89.46Y-45.81
X89.46Y-94.19
X89.46Y-101.81
X89.5Y-50.31
X89.5Y-106.31
X91.27Y-14.19
X91.27Y-21.81
X91.27Y-70.19
X91.27Y-77.81
X92.0Y-38.19
X92.0Y-45.81
X92.0Y-94.19
X92.0Y-101.81
X92.5Y-9.69
X92.5Y-65.69
X93.81Y-14.19
X93.81Y-21.81
X93.81Y-70.19
X93.81Y-77.81
X94.5Y-50.31
X94.5Y-106.31
X94.54Y-38.19
X94.54Y-45.81
X94.54Y-94.19
X94.54Y-101.81
X97.08Y-38.19
X97.08Y-45.81
X97.08Y-94.19
X97.08Y-101.81
X98.075Y-11.525
X98.075Y-16.525
X98.075Y-21.525
X98.075Y-26.525
X98.075Y-31.525
X98.075Y-63.525
X98.075Y-68.525
X98.075Y-73.525
X98.075Y-78.525
X98.075Y-83.525
X99.62Y-38.19
X99.62Y-45.81
X99.62Y-94.19
X99.62Y-101.81
X105.695Y-11.525
X105.695Y-16.525
X105.695Y-21.525
X105.695Y-26.525
X105.695Y-31.525
X105.695Y-63.525
X105.695Y-68.525
X105.695Y-73.525
X105.695Y-78.525
X105.695Y-83.525
X117.57Y-78.19
X117.57Y-85.81
X119.19Y-100.19
X119.19Y-107.81
X120.11Y-78.19
X120.11Y-85.81
X120.5Y-95.69
X120.5Y-112.31
X120.92Y-66.0
X121.73Y-100.19
X121.73Y-107.81
X122.11Y-48.19
X122.11Y-55.81
X122.65Y-78.19
X122.65Y-85.81
X123.38Y-30.19
X123.38Y-37.81
X124.075Y-20.525
X124.075Y-25.525
X124.075Y-42.525
X124.075Y-60.525
X124.27Y-100.19
X124.27Y-107.81
X124.56Y-12.0
X124.65Y-48.19
X124.65Y-55.81
X125.19Y-78.19
X125.19Y-85.81
X125.5Y-95.69
X125.5Y-112.31
X125.92Y-30.19
X125.92Y-37.81
X126.5Y-73.69
X126.81Y-100.19
X126.81Y-107.81
X127.19Y-48.19
X127.19Y-55.81
X127.73Y-78.19
X127.73Y-85.81
X128.46Y-30.19
X128.46Y-37.81
X129.075Y-25.525
X129.075Y-42.525
X129.075Y-60.525
X129.44Y-12.0
X129.73Y-48.19
X129.73Y-55.81
X130.27Y-78.19
X130.27Y-85.81
X131.0Y-30.19
X131.0Y-37.81
X131.08Y-66.0
X131.5Y-73.69
X131.695Y-20.525
X132.075Y-93.525
X132.075Y-98.525
X132.075Y-103.525
X132.075Y-108.525
X132.27Y-48.19
X132.27Y-55.81
X132.81Y-78.19
X132.81Y-85.81
X133.075Y-42.525
X133.54Y-30.19
X133.54Y-37.81
X134.81Y-48.19
X134.81Y-55.81
X135.35Y-78.19
X135.35Y-85.81
X136.075Y-20.525
X136.08Y-30.19
X136.08Y-37.81
X137.35Y-48.19
X137.35Y-55.81
X137.89Y-78.19
X137.89Y-85.81
X138.075Y-42.525
X138.38Y-8.19
X138.38Y-15.81
X138.62Y-30.19
X138.62Y-37.81
X139.695Y-93.525
X139.695Y-98.525
X139.695Y-103.525
X139.695Y-108.525
X139.89Y-48.19
X139.89Y-55.81
X140.43Y-78.19
X140.43Y-85.81
X140.92Y-8.19
X140.92Y-15.81
X142.075Y-42.525
X143.46Y-8.19
X143.46Y-15.81
X143.695Y-20.525
X146.0Y-8.19
X146.0Y-15.81
X147.11Y-30.19
X147.11Y-37.81
X147.11Y-48.19
X147.11Y-55.81
X148.075Y-20.525
X148.075Y-60.525
X148.19Y-104.0
X148.54Y-8.19
X148.54Y-15.81
X149.5Y-66.0
X149.65Y-30.19
X149.65Y-37.81
X149.65Y-48.19
X149.65Y-55.81
X149.695Y-42.525
X150.347Y-80.0
X150.347Y-94.0
X150.347Y-112.0
X151.08Y-8.19
X151.08Y-15.81
X152.19Y-30.19
X152.19Y-37.81
X152.19Y-48.19
X152.19Y-55.81
X153.075Y-20.525
X153.075Y-60.525
X153.62Y-8.19
X153.62Y-15.81
X153.847Y-80.0
X153.847Y-94.0
X153.847Y-112.0
X154.075Y-42.525
X154.5Y-66.0
X154.73Y-30.19
X154.73Y-37.81
X154.73Y-48.19
X154.73Y-55.81
X155.81Y-104.0
X157.075Y-20.525
X157.27Y-30.19
X157.27Y-37.81
X157.27Y-48.19
X157.27Y-55.81
X159.81Y-30.19
X159.81Y-37.81
X159.81Y-48.19
X159.81Y-55.81
X161.695Y-42.525
X162.075Y-20.525
X162.35Y-30.19
X162.35Y-37.81
X162.35Y-48.19
X162.35Y-55.81
X164.89Y-30.19
X164.89Y-37.81
X164.89Y-48.19
X164.89Y-55.81
T3
X7.615Y-27.46
X7.615Y-30.0
X7.615Y-32.54
X7.615Y-83.46
X7.615Y-86.0
X7.615Y-88.54
X116.23Y-8.37
X116.23Y-10.91
X116.23Y-13.45
X116.23Y-15.99
X116.23Y-18.53
X116.23Y-21.07
X116.23Y-23.61
X116.23Y-26.15
X116.23Y-28.69
X116.23Y-31.23
X116.23Y-33.77
X116.23Y-36.31
X116.23Y-38.85
X116.23Y-41.39
X116.23Y-43.93
X116.23Y-46.47
X116.23Y-49.01
X116.23Y-51.55
X116.23Y-54.09
X116.23Y-56.63
X118.77Y-8.37
X118.77Y-10.91
X118.77Y-13.45
X118.77Y-15.99
X118.77Y-18.53
X118.77Y-21.07
X118.77Y-23.61
X118.77Y-26.15
X118.77Y-28.69
X118.77Y-31.23
X118.77Y-33.77
X118.77Y-36.31
X118.77Y-38.85
X118.77Y-41.39
X118.77Y-43.93
X118.77Y-46.47
X118.77Y-49.01
X118.77Y-51.55
X118.77Y-54.09
X118.77Y-56.63
X137.632Y-68.0
X142.632Y-68.0
X162.0Y-9.46
X162.0Y-12.0
X162.0Y-14.54
T4
X163.0Y-74.92
X163.0Y-85.08
X163.0Y-92.92
X163.0Y-103.08
T5
X9.46Y-14.0
X9.46Y-70.0
X14.54Y-14.0
X14.54Y-70.0
M30
