G04 #@! TF.GenerationSoftware,KiCad,Pcbnew,10.0.5-1-g226df246f3*
G04 #@! TF.CreationDate,2026-09-22T12:47:11+02:00*
G04 #@! TF.ProjectId,vinyl_adc_rev_c,76696e79-6c5f-4616-9463-5f7265765f63,rev?*
G04 #@! TF.SameCoordinates,Original*
G04 #@! TF.FileFunction,Copper,L1,Top*
G04 #@! TF.FilePolarity,Positive*
%FSLAX46Y46*%
G04 Gerber Fmt 4.6, Leading zero omitted, Abs format (unit mm)*
G04 Created by KiCad (PCBNEW 10.0.5-1-g226df246f3) date 2026-09-22 12:47:11*
%MOMM*%
%LPD*%
G01*
G04 APERTURE LIST*
G04 Aperture macros list*
%AMRoundRect*
0 Rectangle with rounded corners*
0 $1 Rounding radius*
0 $2 $3 $4 $5 $6 $7 $8 $9 X,Y pos of 4 corners*
0 Add a 4 corners polygon primitive as box body*
4,1,4,$2,$3,$4,$5,$6,$7,$8,$9,$2,$3,0*
0 Add four circle primitives for the rounded corners*
1,1,$1+$1,$2,$3*
1,1,$1+$1,$4,$5*
1,1,$1+$1,$6,$7*
1,1,$1+$1,$8,$9*
0 Add four rect primitives between the rounded corners*
20,1,$1+$1,$2,$3,$4,$5,0*
20,1,$1+$1,$4,$5,$6,$7,0*
20,1,$1+$1,$6,$7,$8,$9,0*
20,1,$1+$1,$8,$9,$2,$3,0*%
G04 Aperture macros list end*
G04 #@! TA.AperFunction,ComponentPad*
%ADD10RoundRect,0.250000X0.550000X-0.950000X0.550000X0.950000X-0.550000X0.950000X-0.550000X-0.950000X0*%
G04 #@! TD*
G04 #@! TA.AperFunction,ComponentPad*
%ADD11O,1.600000X2.400000*%
G04 #@! TD*
G04 #@! TA.AperFunction,ComponentPad*
%ADD12C,1.600000*%
G04 #@! TD*
G04 #@! TA.AperFunction,ComponentPad*
%ADD13R,3.000000X3.000000*%
G04 #@! TD*
G04 #@! TA.AperFunction,ComponentPad*
%ADD14C,3.000000*%
G04 #@! TD*
G04 #@! TA.AperFunction,ComponentPad*
%ADD15R,1.700000X1.700000*%
G04 #@! TD*
G04 #@! TA.AperFunction,ComponentPad*
%ADD16C,1.700000*%
G04 #@! TD*
G04 #@! TA.AperFunction,ComponentPad*
%ADD17RoundRect,0.250000X-0.550000X-0.550000X0.550000X-0.550000X0.550000X0.550000X-0.550000X0.550000X0*%
G04 #@! TD*
G04 #@! TA.AperFunction,ComponentPad*
%ADD18RoundRect,0.249999X0.850001X-0.850001X0.850001X0.850001X-0.850001X0.850001X-0.850001X-0.850001X0*%
G04 #@! TD*
G04 #@! TA.AperFunction,ComponentPad*
%ADD19C,2.200000*%
G04 #@! TD*
G04 #@! TA.AperFunction,ComponentPad*
%ADD20RoundRect,0.250000X-0.750000X-0.750000X0.750000X-0.750000X0.750000X0.750000X-0.750000X0.750000X0*%
G04 #@! TD*
G04 #@! TA.AperFunction,ComponentPad*
%ADD21C,2.000000*%
G04 #@! TD*
G04 #@! TA.AperFunction,ComponentPad*
%ADD22C,1.500000*%
G04 #@! TD*
G04 #@! TA.AperFunction,ViaPad*
%ADD23C,0.700000*%
G04 #@! TD*
G04 #@! TA.AperFunction,Conductor*
%ADD24C,0.300000*%
G04 #@! TD*
G04 #@! TA.AperFunction,Conductor*
%ADD25C,0.600000*%
G04 #@! TD*
G04 APERTURE END LIST*
D10*
X138380000Y-15810000D03*
D11*
X140920000Y-15810000D03*
X143460000Y-15810000D03*
X146000000Y-15810000D03*
X148540000Y-15810000D03*
X151080000Y-15810000D03*
X153620000Y-15810000D03*
X153620000Y-8190000D03*
X151080000Y-8190000D03*
X148540000Y-8190000D03*
X146000000Y-8190000D03*
X143460000Y-8190000D03*
X140920000Y-8190000D03*
X138380000Y-8190000D03*
D12*
X89500000Y-50310000D03*
X94500000Y-50310000D03*
X142075000Y-42525000D03*
X149695000Y-42525000D03*
X98075000Y-26525000D03*
X105695000Y-26525000D03*
X72075000Y-68525000D03*
X79695000Y-68525000D03*
X46075000Y-7525000D03*
X53695000Y-7525000D03*
D13*
X9460000Y-14000000D03*
D14*
X14540000Y-14000000D03*
D10*
X122110000Y-55810000D03*
D11*
X124650000Y-55810000D03*
X127190000Y-55810000D03*
X129730000Y-55810000D03*
X132270000Y-55810000D03*
X134810000Y-55810000D03*
X137350000Y-55810000D03*
X139890000Y-55810000D03*
X139890000Y-48190000D03*
X137350000Y-48190000D03*
X134810000Y-48190000D03*
X132270000Y-48190000D03*
X129730000Y-48190000D03*
X127190000Y-48190000D03*
X124650000Y-48190000D03*
X122110000Y-48190000D03*
D10*
X147110000Y-37810000D03*
D11*
X149650000Y-37810000D03*
X152190000Y-37810000D03*
X154730000Y-37810000D03*
X157270000Y-37810000D03*
X159810000Y-37810000D03*
X162350000Y-37810000D03*
X164890000Y-37810000D03*
X164890000Y-30190000D03*
X162350000Y-30190000D03*
X159810000Y-30190000D03*
X157270000Y-30190000D03*
X154730000Y-30190000D03*
X152190000Y-30190000D03*
X149650000Y-30190000D03*
X147110000Y-30190000D03*
D12*
X24075000Y-97525000D03*
X29075000Y-97525000D03*
X35500000Y-26310000D03*
X40500000Y-26310000D03*
D10*
X86190000Y-21810000D03*
D11*
X88730000Y-21810000D03*
X91270000Y-21810000D03*
X93810000Y-21810000D03*
X93810000Y-14190000D03*
X91270000Y-14190000D03*
X88730000Y-14190000D03*
X86190000Y-14190000D03*
D15*
X162000000Y-9460000D03*
D16*
X162000000Y-12000000D03*
X162000000Y-14540000D03*
D12*
X120500000Y-112310000D03*
X125500000Y-112310000D03*
D10*
X147110000Y-55810000D03*
D11*
X149650000Y-55810000D03*
X152190000Y-55810000D03*
X154730000Y-55810000D03*
X157270000Y-55810000D03*
X159810000Y-55810000D03*
X162350000Y-55810000D03*
X164890000Y-55810000D03*
X164890000Y-48190000D03*
X162350000Y-48190000D03*
X159810000Y-48190000D03*
X157270000Y-48190000D03*
X154730000Y-48190000D03*
X152190000Y-48190000D03*
X149650000Y-48190000D03*
X147110000Y-48190000D03*
D12*
X35500000Y-9690000D03*
X40500000Y-9690000D03*
D13*
X9460000Y-70000000D03*
D14*
X14540000Y-70000000D03*
D12*
X120920000Y-66000000D03*
X131080000Y-66000000D03*
X98075000Y-63525000D03*
X105695000Y-63525000D03*
X157075000Y-20525000D03*
X162075000Y-20525000D03*
X124075000Y-42525000D03*
X129075000Y-42525000D03*
X87500000Y-65690000D03*
X92500000Y-65690000D03*
X46075000Y-63525000D03*
X53695000Y-63525000D03*
X35075000Y-31525000D03*
X42695000Y-31525000D03*
D17*
X150347300Y-112000000D03*
D12*
X153847300Y-112000000D03*
X46075000Y-12525000D03*
X53695000Y-12525000D03*
X20075000Y-63525000D03*
X25075000Y-63525000D03*
X35075000Y-87525000D03*
X42695000Y-87525000D03*
X72075000Y-17525000D03*
X79695000Y-17525000D03*
X35500000Y-82310000D03*
X40500000Y-82310000D03*
X124075000Y-25525000D03*
X129075000Y-25525000D03*
X46075000Y-22525000D03*
X53695000Y-22525000D03*
D18*
X163000000Y-85080000D03*
D19*
X163000000Y-74920000D03*
D12*
X24075000Y-46525000D03*
X31695000Y-46525000D03*
X61500000Y-82310000D03*
X66500000Y-82310000D03*
X98075000Y-68525000D03*
X105695000Y-68525000D03*
D10*
X117570000Y-85810000D03*
D11*
X120110000Y-85810000D03*
X122650000Y-85810000D03*
X125190000Y-85810000D03*
X127730000Y-85810000D03*
X130270000Y-85810000D03*
X132810000Y-85810000D03*
X135350000Y-85810000D03*
X137890000Y-85810000D03*
X140430000Y-85810000D03*
X140430000Y-78190000D03*
X137890000Y-78190000D03*
X135350000Y-78190000D03*
X132810000Y-78190000D03*
X130270000Y-78190000D03*
X127730000Y-78190000D03*
X125190000Y-78190000D03*
X122650000Y-78190000D03*
X120110000Y-78190000D03*
X117570000Y-78190000D03*
D10*
X60190000Y-77810000D03*
D11*
X62730000Y-77810000D03*
X65270000Y-77810000D03*
X67810000Y-77810000D03*
X67810000Y-70190000D03*
X65270000Y-70190000D03*
X62730000Y-70190000D03*
X60190000Y-70190000D03*
D12*
X72075000Y-12525000D03*
X79695000Y-12525000D03*
D10*
X123380000Y-37810000D03*
D11*
X125920000Y-37810000D03*
X128460000Y-37810000D03*
X131000000Y-37810000D03*
X133540000Y-37810000D03*
X136080000Y-37810000D03*
X138620000Y-37810000D03*
X138620000Y-30190000D03*
X136080000Y-30190000D03*
X133540000Y-30190000D03*
X131000000Y-30190000D03*
X128460000Y-30190000D03*
X125920000Y-30190000D03*
X123380000Y-30190000D03*
D12*
X98075000Y-31525000D03*
X105695000Y-31525000D03*
X89500000Y-106310000D03*
X94500000Y-106310000D03*
D17*
X150347300Y-94000000D03*
D12*
X153847300Y-94000000D03*
D10*
X86190000Y-77810000D03*
D11*
X88730000Y-77810000D03*
X91270000Y-77810000D03*
X93810000Y-77810000D03*
X93810000Y-70190000D03*
X91270000Y-70190000D03*
X88730000Y-70190000D03*
X86190000Y-70190000D03*
D12*
X132075000Y-93525000D03*
X139695000Y-93525000D03*
D15*
X7615000Y-27460000D03*
D16*
X7615000Y-30000000D03*
X7615000Y-32540000D03*
D12*
X148075000Y-20525000D03*
X153075000Y-20525000D03*
X46075000Y-68525000D03*
X53695000Y-68525000D03*
X98075000Y-16525000D03*
X105695000Y-16525000D03*
X132075000Y-98525000D03*
X139695000Y-98525000D03*
X36075000Y-36525000D03*
X43695000Y-36525000D03*
X24075000Y-102525000D03*
X31695000Y-102525000D03*
X24075000Y-41525000D03*
X29075000Y-41525000D03*
X72075000Y-63525000D03*
X79695000Y-63525000D03*
X33075000Y-97525000D03*
X40695000Y-97525000D03*
X132075000Y-103525000D03*
X139695000Y-103525000D03*
X24075000Y-36525000D03*
X31695000Y-36525000D03*
X72075000Y-73525000D03*
X79695000Y-73525000D03*
X21075000Y-28425000D03*
X31075000Y-28425000D03*
X46075000Y-73525000D03*
X53695000Y-73525000D03*
X21075000Y-84425000D03*
X31075000Y-84425000D03*
X46075000Y-78525000D03*
X53695000Y-78525000D03*
D10*
X34190000Y-21810000D03*
D11*
X36730000Y-21810000D03*
X39270000Y-21810000D03*
X41810000Y-21810000D03*
X41810000Y-14190000D03*
X39270000Y-14190000D03*
X36730000Y-14190000D03*
X34190000Y-14190000D03*
D12*
X136075000Y-20525000D03*
X143695000Y-20525000D03*
D17*
X150347300Y-80000000D03*
D12*
X153847300Y-80000000D03*
X61500000Y-106310000D03*
X66500000Y-106310000D03*
X72075000Y-22525000D03*
X77075000Y-22525000D03*
X47075000Y-83525000D03*
X52075000Y-83525000D03*
X98075000Y-73525000D03*
X105695000Y-73525000D03*
X61500000Y-50310000D03*
X66500000Y-50310000D03*
D18*
X163000000Y-103080000D03*
D19*
X163000000Y-92920000D03*
D10*
X60190000Y-21810000D03*
D11*
X62730000Y-21810000D03*
X65270000Y-21810000D03*
X67810000Y-21810000D03*
X67810000Y-14190000D03*
X65270000Y-14190000D03*
X62730000Y-14190000D03*
X60190000Y-14190000D03*
D12*
X24075000Y-92525000D03*
X31695000Y-92525000D03*
D10*
X56380000Y-101810000D03*
D11*
X58920000Y-101810000D03*
X61460000Y-101810000D03*
X64000000Y-101810000D03*
X66540000Y-101810000D03*
X69080000Y-101810000D03*
X71620000Y-101810000D03*
X71620000Y-94190000D03*
X69080000Y-94190000D03*
X66540000Y-94190000D03*
X64000000Y-94190000D03*
X61460000Y-94190000D03*
X58920000Y-94190000D03*
X56380000Y-94190000D03*
D12*
X20075000Y-68525000D03*
X27695000Y-68525000D03*
X20075000Y-12525000D03*
X27695000Y-12525000D03*
D15*
X7615000Y-83460000D03*
D16*
X7615000Y-86000000D03*
X7615000Y-88540000D03*
D10*
X84380000Y-101810000D03*
D11*
X86920000Y-101810000D03*
X89460000Y-101810000D03*
X92000000Y-101810000D03*
X94540000Y-101810000D03*
X97080000Y-101810000D03*
X99620000Y-101810000D03*
X99620000Y-94190000D03*
X97080000Y-94190000D03*
X94540000Y-94190000D03*
X92000000Y-94190000D03*
X89460000Y-94190000D03*
X86920000Y-94190000D03*
X84380000Y-94190000D03*
D12*
X124075000Y-60525000D03*
X129075000Y-60525000D03*
X36075000Y-92525000D03*
X43695000Y-92525000D03*
X98075000Y-21525000D03*
X105695000Y-21525000D03*
X61500000Y-65690000D03*
X66500000Y-65690000D03*
X72075000Y-7525000D03*
X79695000Y-7525000D03*
D20*
X137632300Y-68000000D03*
D21*
X142632300Y-68000000D03*
D12*
X126500000Y-73690000D03*
X131500000Y-73690000D03*
D10*
X34190000Y-77810000D03*
D11*
X36730000Y-77810000D03*
X39270000Y-77810000D03*
X41810000Y-77810000D03*
X41810000Y-70190000D03*
X39270000Y-70190000D03*
X36730000Y-70190000D03*
X34190000Y-70190000D03*
D12*
X61500000Y-26310000D03*
X66500000Y-26310000D03*
X46075000Y-17525000D03*
X53695000Y-17525000D03*
X87500000Y-9690000D03*
X92500000Y-9690000D03*
D10*
X84380000Y-45810000D03*
D11*
X86920000Y-45810000D03*
X89460000Y-45810000D03*
X92000000Y-45810000D03*
X94540000Y-45810000D03*
X97080000Y-45810000D03*
X99620000Y-45810000D03*
X99620000Y-38190000D03*
X97080000Y-38190000D03*
X94540000Y-38190000D03*
X92000000Y-38190000D03*
X89460000Y-38190000D03*
X86920000Y-38190000D03*
X84380000Y-38190000D03*
D12*
X149500000Y-66000000D03*
X154500000Y-66000000D03*
X148190000Y-104000000D03*
X155810000Y-104000000D03*
X120500000Y-95690000D03*
X125500000Y-95690000D03*
X35500000Y-65690000D03*
X40500000Y-65690000D03*
X61500000Y-9690000D03*
X66500000Y-9690000D03*
X98075000Y-83525000D03*
X105695000Y-83525000D03*
X133075000Y-42525000D03*
X138075000Y-42525000D03*
X148075000Y-60525000D03*
X153075000Y-60525000D03*
X154075000Y-42525000D03*
X161695000Y-42525000D03*
X132075000Y-108525000D03*
X139695000Y-108525000D03*
D10*
X56380000Y-45810000D03*
D11*
X58920000Y-45810000D03*
X61460000Y-45810000D03*
X64000000Y-45810000D03*
X66540000Y-45810000D03*
X69080000Y-45810000D03*
X71620000Y-45810000D03*
X71620000Y-38190000D03*
X69080000Y-38190000D03*
X66540000Y-38190000D03*
X64000000Y-38190000D03*
X61460000Y-38190000D03*
X58920000Y-38190000D03*
X56380000Y-38190000D03*
D12*
X20075000Y-7525000D03*
X25075000Y-7525000D03*
X124075000Y-20525000D03*
X131695000Y-20525000D03*
D10*
X119190000Y-107810000D03*
D11*
X121730000Y-107810000D03*
X124270000Y-107810000D03*
X126810000Y-107810000D03*
X126810000Y-100190000D03*
X124270000Y-100190000D03*
X121730000Y-100190000D03*
X119190000Y-100190000D03*
D22*
X124560000Y-12000000D03*
X129440000Y-12000000D03*
D12*
X47075000Y-27525000D03*
X52075000Y-27525000D03*
X72075000Y-78525000D03*
X77075000Y-78525000D03*
X98075000Y-78525000D03*
X105695000Y-78525000D03*
X98075000Y-11525000D03*
X105695000Y-11525000D03*
X33075000Y-41525000D03*
X40695000Y-41525000D03*
D15*
X118770000Y-56630000D03*
D16*
X116230000Y-56630000D03*
X118770000Y-54090000D03*
X116230000Y-54090000D03*
X118770000Y-51550000D03*
X116230000Y-51550000D03*
X118770000Y-49010000D03*
X116230000Y-49010000D03*
X118770000Y-46470000D03*
X116230000Y-46470000D03*
X118770000Y-43930000D03*
X116230000Y-43930000D03*
X118770000Y-41390000D03*
X116230000Y-41390000D03*
X118770000Y-38850000D03*
X116230000Y-38850000D03*
X118770000Y-36310000D03*
X116230000Y-36310000D03*
X118770000Y-33770000D03*
X116230000Y-33770000D03*
X118770000Y-31230000D03*
X116230000Y-31230000D03*
X118770000Y-28690000D03*
X116230000Y-28690000D03*
X118770000Y-26150000D03*
X116230000Y-26150000D03*
X118770000Y-23610000D03*
X116230000Y-23610000D03*
X118770000Y-21070000D03*
X116230000Y-21070000D03*
X118770000Y-18530000D03*
X116230000Y-18530000D03*
X118770000Y-15990000D03*
X116230000Y-15990000D03*
X118770000Y-13450000D03*
X116230000Y-13450000D03*
X118770000Y-10910000D03*
X116230000Y-10910000D03*
X118770000Y-8370000D03*
X116230000Y-8370000D03*
D23*
X49551900Y-29559000D03*
X87590500Y-64056200D03*
X56441800Y-83967700D03*
D24*
X140920000Y-15810000D02*
X140920000Y-14258300D01*
X131695000Y-20525000D02*
X136075000Y-20525000D01*
X143460000Y-15810000D02*
X143460000Y-14258300D01*
X143460000Y-14258300D02*
X140920000Y-14258300D01*
X156000000Y-14258300D02*
X146000000Y-14258300D01*
X146000000Y-15810000D02*
X146000000Y-14258300D01*
X160798300Y-9460000D02*
X156000000Y-14258300D01*
X162000000Y-9460000D02*
X160798300Y-9460000D01*
X150860500Y-43943100D02*
X150860500Y-42053800D01*
X148496700Y-49091800D02*
X148496700Y-46306900D01*
X150180000Y-41373300D02*
X143226700Y-41373300D01*
X153663200Y-54258300D02*
X148496700Y-49091800D01*
X143226700Y-41373300D02*
X142075000Y-42525000D01*
X150860500Y-42053800D02*
X150180000Y-41373300D01*
X154730000Y-55810000D02*
X154730000Y-54258300D01*
X148496700Y-46306900D02*
X150860500Y-43943100D01*
X154730000Y-54258300D02*
X153663200Y-54258300D01*
X147033600Y-45186400D02*
X149695000Y-42525000D01*
X117486400Y-45186400D02*
X147033600Y-45186400D01*
X116230000Y-43930000D02*
X117486400Y-45186400D01*
X104428300Y-17791700D02*
X105695000Y-16525000D01*
X91270000Y-21810000D02*
X91270000Y-20258300D01*
X91270000Y-20258300D02*
X104428300Y-20258300D01*
X104428300Y-20258300D02*
X105695000Y-21525000D01*
X104428300Y-20258300D02*
X104428300Y-17791700D01*
X62730000Y-79361700D02*
X71238300Y-79361700D01*
X62730000Y-77810000D02*
X62730000Y-79361700D01*
X71238300Y-79361700D02*
X72075000Y-78525000D01*
X34190000Y-21810000D02*
X40540000Y-15460000D01*
X40540000Y-13060000D02*
X46075000Y-7525000D01*
X40540000Y-15460000D02*
X40540000Y-13060000D01*
X53695000Y-22525000D02*
X52075000Y-22525000D01*
X52075000Y-22525000D02*
X47075000Y-27525000D01*
X95810000Y-46639400D02*
X95810000Y-45003400D01*
X89460000Y-45810000D02*
X89460000Y-44258300D01*
X95810000Y-45003400D02*
X95064900Y-44258300D01*
X120060700Y-57859300D02*
X107029900Y-57859300D01*
X107029900Y-57859300D02*
X95810000Y-46639400D01*
X95064900Y-44258300D02*
X89460000Y-44258300D01*
X122110000Y-55810000D02*
X120060700Y-57859300D01*
X94490700Y-47411000D02*
X94540000Y-47361700D01*
X127190000Y-57361700D02*
X126179600Y-58372100D01*
X126179600Y-58372100D02*
X105550400Y-58372100D01*
X105550400Y-58372100D02*
X94540000Y-47361700D01*
X57981000Y-47411000D02*
X94490700Y-47411000D01*
X127190000Y-55810000D02*
X127190000Y-57361700D01*
X94540000Y-45810000D02*
X94540000Y-47361700D01*
X56380000Y-45810000D02*
X57981000Y-47411000D01*
X155938600Y-53613100D02*
X159810000Y-49741700D01*
X155938600Y-56632500D02*
X155938600Y-53613100D01*
X129730000Y-55810000D02*
X129730000Y-57361700D01*
X159810000Y-48190000D02*
X159810000Y-49741700D01*
X155173700Y-57397400D02*
X155938600Y-56632500D01*
X129730000Y-57361700D02*
X129765700Y-57397400D01*
X129765700Y-57397400D02*
X155173700Y-57397400D01*
D25*
X125190000Y-78190000D02*
X125190000Y-79891700D01*
X130270000Y-85810000D02*
X130270000Y-84108300D01*
X125190000Y-85810000D02*
X125190000Y-84309100D01*
X125190000Y-84309100D02*
X125190000Y-84108300D01*
X125190000Y-84108300D02*
X130270000Y-84108300D01*
X120110000Y-84108300D02*
X125190000Y-84108300D01*
X120110000Y-85810000D02*
X120110000Y-84108300D01*
X125190000Y-79891700D02*
X125190000Y-84108300D01*
D24*
X162159600Y-41332600D02*
X163560000Y-42733000D01*
X163560000Y-42733000D02*
X163560000Y-53048300D01*
X163560000Y-53048300D02*
X162350000Y-54258300D01*
X154730000Y-37810000D02*
X158252600Y-41332600D01*
X162350000Y-55810000D02*
X162350000Y-54258300D01*
X158252600Y-41332600D02*
X162159600Y-41332600D01*
X31695000Y-92525000D02*
X29075000Y-92525000D01*
X29075000Y-92525000D02*
X24075000Y-97525000D01*
X38031000Y-73969000D02*
X34190000Y-77810000D01*
X40311800Y-66860200D02*
X38031000Y-69141000D01*
X38031000Y-69141000D02*
X38031000Y-73969000D01*
X42739800Y-66860200D02*
X40311800Y-66860200D01*
X46075000Y-63525000D02*
X42739800Y-66860200D01*
D25*
X125500000Y-110651500D02*
X119406800Y-110651500D01*
X126810000Y-109511700D02*
X125670200Y-110651500D01*
X80141100Y-95951100D02*
X66500000Y-82310000D01*
X153847300Y-112000000D02*
X153847300Y-109893100D01*
X125670200Y-110651500D02*
X125500000Y-110651500D01*
X125500000Y-110651500D02*
X125500000Y-112310000D01*
X126810000Y-109511700D02*
X127191400Y-109893100D01*
X127191400Y-109893100D02*
X153847300Y-109893100D01*
X104706400Y-95951100D02*
X80141100Y-95951100D01*
X119406800Y-110651500D02*
X104706400Y-95951100D01*
X153847300Y-109893100D02*
X153847300Y-105962700D01*
X126810000Y-107810000D02*
X126810000Y-109511700D01*
X63251000Y-29559000D02*
X49551900Y-29559000D01*
X153847300Y-105962700D02*
X155810000Y-104000000D01*
X66500000Y-26310000D02*
X63251000Y-29559000D01*
X129491700Y-106108300D02*
X132075000Y-103525000D01*
X121730000Y-106108300D02*
X129491700Y-106108300D01*
X95491700Y-76108300D02*
X98075000Y-73525000D01*
X88730000Y-76108300D02*
X95491700Y-76108300D01*
X121730000Y-107810000D02*
X121730000Y-106108300D01*
X121730000Y-107810000D02*
X119190000Y-107810000D01*
X88730000Y-77810000D02*
X88730000Y-76108300D01*
D24*
X124931700Y-36258300D02*
X123380000Y-37810000D01*
X125920000Y-37810000D02*
X125920000Y-36258300D01*
X125920000Y-36258300D02*
X124931700Y-36258300D01*
D25*
X121225500Y-54083600D02*
X145383600Y-54083600D01*
X118770000Y-56630000D02*
X118770000Y-56539100D01*
X145383600Y-54083600D02*
X147110000Y-55810000D01*
X118770000Y-56539100D02*
X121225500Y-54083600D01*
D24*
X117431700Y-13893800D02*
X117431700Y-12111700D01*
X151377500Y-41851400D02*
X150169300Y-40643200D01*
X149650000Y-46638300D02*
X151377500Y-44910800D01*
X118258000Y-14720100D02*
X117431700Y-13893800D01*
X149650000Y-48190000D02*
X149650000Y-46638300D01*
X144506600Y-40643200D02*
X135879500Y-32016100D01*
X135879500Y-32016100D02*
X133288200Y-32016100D01*
X133288200Y-32016100D02*
X132270000Y-30997900D01*
X151377500Y-44910800D02*
X151377500Y-41851400D01*
X132270000Y-30997900D02*
X132270000Y-27020800D01*
X117431700Y-12111700D02*
X116230000Y-10910000D01*
X119969300Y-14720100D02*
X118258000Y-14720100D01*
X150169300Y-40643200D02*
X144506600Y-40643200D01*
X132270000Y-27020800D02*
X119969300Y-14720100D01*
X34823600Y-97525000D02*
X51262600Y-81086000D01*
X51262600Y-81086000D02*
X56914000Y-81086000D01*
X60190000Y-77810000D02*
X62256400Y-79876400D01*
X88121700Y-63525000D02*
X98075000Y-63525000D01*
X75723600Y-79876400D02*
X77075000Y-78525000D01*
X33075000Y-97525000D02*
X34823600Y-97525000D01*
X87590500Y-64056200D02*
X88121700Y-63525000D01*
X56914000Y-81086000D02*
X60190000Y-77810000D01*
X62256400Y-79876400D02*
X75723600Y-79876400D01*
X91270000Y-77810000D02*
X91270000Y-79361700D01*
X91270000Y-79361700D02*
X91605200Y-79696900D01*
X91605200Y-79696900D02*
X104523100Y-79696900D01*
X104523100Y-79696900D02*
X105695000Y-78525000D01*
X143695000Y-19369100D02*
X155919100Y-19369100D01*
X143695000Y-20525000D02*
X143695000Y-19369100D01*
X155919100Y-19369100D02*
X157075000Y-20525000D01*
X136809100Y-19369100D02*
X143695000Y-19369100D01*
X129440000Y-12000000D02*
X136809100Y-19369100D01*
X53695000Y-78525000D02*
X52075000Y-78525000D01*
X52537600Y-64682400D02*
X53695000Y-63525000D01*
X52537600Y-67367600D02*
X53695000Y-68525000D01*
X40540700Y-67367600D02*
X52537600Y-67367600D01*
X52075000Y-78525000D02*
X47075000Y-83525000D01*
X39270000Y-70190000D02*
X39270000Y-68638300D01*
X39270000Y-68638300D02*
X40540700Y-67367600D01*
X52537600Y-67367600D02*
X52537600Y-64682400D01*
X33550000Y-30000000D02*
X35075000Y-31525000D01*
X7615000Y-30000000D02*
X33550000Y-30000000D01*
X26695000Y-41525000D02*
X24075000Y-41525000D01*
X31695000Y-36525000D02*
X26695000Y-41525000D01*
X23501400Y-64331400D02*
X27695000Y-68525000D01*
X18462100Y-71411200D02*
X18462100Y-65944300D01*
X7615000Y-83460000D02*
X7615000Y-82258300D01*
X20075000Y-64331400D02*
X23501400Y-64331400D01*
X7615000Y-82258300D02*
X18462100Y-71411200D01*
X20075000Y-64331400D02*
X20075000Y-63525000D01*
X18462100Y-65944300D02*
X20075000Y-64331400D01*
X7615000Y-86000000D02*
X33550000Y-86000000D01*
X33550000Y-86000000D02*
X35075000Y-87525000D01*
D25*
X51038400Y-76025000D02*
X47219600Y-79843800D01*
X69575000Y-76025000D02*
X51038400Y-76025000D01*
X121730000Y-101891700D02*
X133061700Y-101891700D01*
X36075000Y-34725200D02*
X47378800Y-23421400D01*
X121730000Y-99756400D02*
X121730000Y-100190000D01*
X76318600Y-73525000D02*
X72075000Y-73525000D01*
X46075000Y-17525000D02*
X47378800Y-18828800D01*
X70771200Y-18828800D02*
X72075000Y-17525000D01*
X109477000Y-98488300D02*
X93308200Y-82319500D01*
X44769900Y-79119000D02*
X44769900Y-74830100D01*
X36075000Y-36525000D02*
X36075000Y-34725200D01*
X47378800Y-18828800D02*
X70771200Y-18828800D01*
X47219600Y-79843800D02*
X45494700Y-79843800D01*
X121730000Y-100190000D02*
X121730000Y-101891700D01*
X44769900Y-74830100D02*
X46075000Y-73525000D01*
X47378800Y-23421400D02*
X47378800Y-18828800D01*
X121730000Y-99756400D02*
X121730000Y-98488300D01*
X133061700Y-101891700D02*
X139695000Y-108525000D01*
X45494700Y-79843800D02*
X36075000Y-89263500D01*
X36075000Y-89263500D02*
X36075000Y-92525000D01*
X45494700Y-79843800D02*
X44769900Y-79119000D01*
X85113100Y-82319500D02*
X76318600Y-73525000D01*
X121730000Y-98488300D02*
X109477000Y-98488300D01*
X72075000Y-73525000D02*
X69575000Y-76025000D01*
X93308200Y-82319500D02*
X85113100Y-82319500D01*
D24*
X62730000Y-21810000D02*
X62730000Y-23361700D01*
X71238300Y-23361700D02*
X72075000Y-22525000D01*
X62730000Y-23361700D02*
X71238300Y-23361700D01*
X25931300Y-44668700D02*
X24075000Y-46525000D01*
X40695000Y-41525000D02*
X37551300Y-44668700D01*
X37551300Y-44668700D02*
X25931300Y-44668700D01*
X54207900Y-69725100D02*
X47275100Y-69725100D01*
X96881300Y-67331300D02*
X56601700Y-67331300D01*
X47275100Y-69725100D02*
X46075000Y-68525000D01*
X56601700Y-67331300D02*
X54207900Y-69725100D01*
X98075000Y-68525000D02*
X96881300Y-67331300D01*
X132810000Y-79615800D02*
X132810000Y-79740200D01*
X137888500Y-79741700D02*
X137890000Y-79740200D01*
X132810000Y-79740200D02*
X132811500Y-79741700D01*
X127730000Y-78190000D02*
X127730000Y-79741700D01*
X127730000Y-79741700D02*
X132808500Y-79741700D01*
X132808500Y-79741700D02*
X132810000Y-79740200D01*
X137890000Y-80000000D02*
X150347300Y-80000000D01*
X137888500Y-79998500D02*
X137890000Y-80000000D01*
X137890000Y-85810000D02*
X137890000Y-84258300D01*
X132811500Y-79741700D02*
X137888500Y-79741700D01*
X132810000Y-78190000D02*
X132810000Y-79615800D01*
X137890000Y-78190000D02*
X137890000Y-79740200D01*
X137890000Y-80000000D02*
X137890000Y-84258300D01*
X137888500Y-79741700D02*
X137888500Y-79998500D01*
X40695000Y-97525000D02*
X54252300Y-83967700D01*
X54252300Y-83967700D02*
X56441800Y-83967700D01*
X62730000Y-71741700D02*
X47857000Y-71741700D01*
X62730000Y-70190000D02*
X62730000Y-71741700D01*
X45185300Y-72356800D02*
X40540000Y-77002100D01*
X47241900Y-77358100D02*
X46075000Y-78525000D01*
X40540000Y-80641300D02*
X36981400Y-84199900D01*
X27431000Y-102525000D02*
X31695000Y-102525000D01*
X22880300Y-97034600D02*
X22880300Y-97974300D01*
X34149600Y-90101500D02*
X29813400Y-90101500D01*
X36981400Y-87269700D02*
X34149600Y-90101500D01*
X29813400Y-90101500D02*
X22880300Y-97034600D01*
X22880300Y-97974300D02*
X27431000Y-102525000D01*
X47857000Y-71741700D02*
X47241900Y-72356800D01*
X40540000Y-77002100D02*
X40540000Y-80641300D01*
X47241900Y-72356800D02*
X45185300Y-72356800D01*
X47241900Y-72356800D02*
X47241900Y-77358100D01*
X36981400Y-84199900D02*
X36981400Y-87269700D01*
X23563100Y-42679700D02*
X37584900Y-42679700D01*
X39934300Y-40330300D02*
X54992000Y-40330300D01*
X58920000Y-45810000D02*
X58920000Y-44258300D01*
X54992000Y-40330300D02*
X58920000Y-44258300D01*
X37584900Y-42679700D02*
X39934300Y-40330300D01*
X22880700Y-41997300D02*
X23563100Y-42679700D01*
X24075000Y-36525000D02*
X22880700Y-37719300D01*
X22880700Y-37719300D02*
X22880700Y-41997300D01*
X163000000Y-92920000D02*
X161920000Y-94000000D01*
X153847300Y-98342700D02*
X148190000Y-104000000D01*
X153847300Y-94000000D02*
X153847300Y-98342700D01*
X161920000Y-94000000D02*
X153847300Y-94000000D01*
X17188900Y-11342900D02*
X20075000Y-8456800D01*
X7615000Y-26258300D02*
X17188900Y-16684400D01*
X17188900Y-16684400D02*
X17188900Y-11342900D01*
X20075000Y-8456800D02*
X20075000Y-7525000D01*
X20075000Y-8456800D02*
X23626800Y-8456800D01*
X7615000Y-27460000D02*
X7615000Y-26258300D01*
X23626800Y-8456800D02*
X27695000Y-12525000D01*
X91127000Y-18932400D02*
X98075000Y-11984400D01*
X61748600Y-20251400D02*
X60190000Y-21810000D01*
X77075000Y-22525000D02*
X80667600Y-18932400D01*
X80667600Y-18932400D02*
X91127000Y-18932400D01*
X74801400Y-20251400D02*
X61748600Y-20251400D01*
X36370500Y-41525000D02*
X33075000Y-41525000D01*
X98075000Y-11984400D02*
X98075000Y-11525000D01*
X77075000Y-22525000D02*
X74801400Y-20251400D01*
X60190000Y-21810000D02*
X56085500Y-21810000D01*
X56085500Y-21810000D02*
X36370500Y-41525000D01*
X97080000Y-103361700D02*
X97076300Y-103365400D01*
X61460000Y-101810000D02*
X61460000Y-103361700D01*
X97076300Y-103365400D02*
X61463700Y-103365400D01*
X61463700Y-103365400D02*
X61460000Y-103361700D01*
X97080000Y-101810000D02*
X97080000Y-103361700D01*
X96563300Y-43741600D02*
X61976700Y-43741600D01*
X97080000Y-45810000D02*
X97080000Y-44258300D01*
X61976700Y-43741600D02*
X61460000Y-44258300D01*
X61460000Y-45810000D02*
X61460000Y-44258300D01*
X97080000Y-44258300D02*
X96563300Y-43741600D01*
X157395800Y-42525000D02*
X153460000Y-38589200D01*
X153460000Y-38589200D02*
X153460000Y-37025900D01*
X153460000Y-37025900D02*
X152321100Y-35887000D01*
X147537100Y-35887000D02*
X139645300Y-27995200D01*
X119418800Y-13450000D02*
X118770000Y-13450000D01*
X152321100Y-35887000D02*
X147537100Y-35887000D01*
X133964000Y-27995200D02*
X119418800Y-13450000D01*
X161695000Y-42525000D02*
X157395800Y-42525000D01*
X139645300Y-27995200D02*
X133964000Y-27995200D01*
M02*
