0
SECTION
2
HEADER
9
$ACADVER
1
AC1009
9
$INSUNITS
70
4
0
ENDSEC
0
SECTION
2
TABLES
0
TABLE
2
LAYER
70
2
0
LAYER
2
CUT
70
64
62
1
6
CONTINUOUS
0
LAYER
2
ENGRAVE
70
64
62
5
6
CONTINUOUS
0
ENDTAB
0
ENDSEC
0
SECTION
2
BLOCKS
0
ENDSEC
0
SECTION
2
ENTITIES
0
CIRCLE
8
CUT
62
1
10
64.0000
20
64.0000
30
0.0
40
1.7000
0
CIRCLE
8
CUT
62
1
10
-64.0000
20
64.0000
30
0.0
40
1.7000
0
CIRCLE
8
CUT
62
1
10
-64.0000
20
-64.0000
30
0.0
40
1.7000
0
CIRCLE
8
CUT
62
1
10
64.0000
20
-64.0000
30
0.0
40
1.7000
0
LINE
8
CUT
62
1
10
-64.0000
20
70.0000
30
0.0
11
64.0000
21
70.0000
31
0.0
0
LINE
8
CUT
62
1
10
70.0000
20
64.0000
30
0.0
11
70.0000
21
-64.0000
31
0.0
0
LINE
8
CUT
62
1
10
64.0000
20
-70.0000
30
0.0
11
-64.0000
21
-70.0000
31
0.0
0
LINE
8
CUT
62
1
10
-70.0000
20
-64.0000
30
0.0
11
-70.0000
21
64.0000
31
0.0
0
ARC
8
CUT
62
1
10
64.0000
20
64.0000
30
0.0
40
6.0000
50
0.0000
51
90.0000
0
ARC
8
CUT
62
1
10
-64.0000
20
64.0000
30
0.0
40
6.0000
50
90.0000
51
180.0000
0
ARC
8
CUT
62
1
10
-64.0000
20
-64.0000
30
0.0
40
6.0000
50
180.0000
51
270.0000
0
ARC
8
CUT
62
1
10
64.0000
20
-64.0000
30
0.0
40
6.0000
50
270.0000
51
360.0000
0
TEXT
8
ENGRAVE
62
5
10
-20.0000
20
52.0000
30
0.0
40
4.0000
1
VINYL ADC
0
TEXT
8
ENGRAVE
62
5
10
-50.0000
20
46.0000
30
0.0
40
2.2000
1
DISCRETE 3RD-ORDER DELTA-SIGMA
0
TEXT
8
ENGRAVE
62
5
10
-50.0000
20
20.0000
30
0.0
40
2.0000
1
TIER 4: DIGITAL CLOCK & PI INTERFACE
0
TEXT
8
ENGRAVE
62
5
10
-50.0000
20
-5.0000
30
0.0
40
2.0000
1
TIER 2/3: STEREO MODULATOR CHANNELS
0
TEXT
8
ENGRAVE
62
5
10
-50.0000
20
-32.0000
30
0.0
40
2.0000
1
TIER 1: POWER & REFERENCE
0
TEXT
8
ENGRAVE
62
5
10
48.0000
20
28.0000
30
0.0
40
1.8000
1
CH-R IN
0
TEXT
8
ENGRAVE
62
5
10
48.0000
20
12.0000
30
0.0
40
1.8000
1
CH-L IN
0
TEXT
8
ENGRAVE
62
5
10
48.0000
20
-4.0000
30
0.0
40
1.8000
1
GND
0
ENDSEC
0
EOF
