0
SECTION
2
HEADER
9
$ACADVER
1
AC1015
9
$INSUNITS
70
4
0
ENDSEC
0
SECTION
2
TABLES
0
TABLE
2
LAYER
70
2
0
LAYER
2
MASK
70
0
62
1
6
CONTINUOUS
0
LAYER
2
EDGE
70
0
62
3
6
CONTINUOUS
0
ENDTAB
0
ENDSEC
0
SECTION
2
ENTITIES
0
CIRCLE
8
MASK
10
48.1350
20
-48.2600
40
0.8500
0
CIRCLE
8
MASK
10
53.0150
20
-48.2600
40
0.8500
0
LWPOLYLINE
8
MASK
90
20
70
1
10
38.7150
20
-40.6700
10
38.5811
20
-40.6434
10
38.4675
20
-40.5675
10
38.3916
20
-40.4539
10
38.3650
20
-40.3200
10
38.3650
20
-38.4200
10
38.3916
20
-38.2861
10
38.4675
20
-38.1725
10
38.5811
20
-38.0966
10
38.7150
20
-38.0700
10
39.8150
20
-38.0700
10
39.9489
20
-38.0966
10
40.0625
20
-38.1725
10
40.1384
20
-38.2861
10
40.1650
20
-38.4200
10
40.1650
20
-40.3200
10
40.1384
20
-40.4539
10
40.0625
20
-40.5675
10
39.9489
20
-40.6434
10
39.8150
20
-40.6700
0
LWPOLYLINE
8
MASK
90
28
70
1
10
40.9127
20
-38.8525
10
40.9735
20
-38.6256
10
41.0910
20
-38.4221
10
41.2571
20
-38.2560
10
41.4606
20
-38.1385
10
41.6875
20
-38.0777
10
41.9225
20
-38.0777
10
42.1494
20
-38.1385
10
42.3529
20
-38.2560
10
42.5190
20
-38.4221
10
42.6365
20
-38.6256
10
42.6973
20
-38.8525
10
42.7050
20
-38.9700
10
42.7050
20
-39.7700
10
42.6973
20
-39.8875
10
42.6365
20
-40.1144
10
42.5190
20
-40.3179
10
42.3529
20
-40.4840
10
42.1494
20
-40.6015
10
41.9225
20
-40.6623
10
41.6875
20
-40.6623
10
41.4606
20
-40.6015
10
41.2571
20
-40.4840
10
41.0910
20
-40.3179
10
40.9735
20
-40.1144
10
40.9127
20
-39.8875
10
40.9050
20
-39.7700
10
40.9050
20
-38.9700
0
LWPOLYLINE
8
MASK
90
28
70
1
10
43.4527
20
-38.8525
10
43.5135
20
-38.6256
10
43.6310
20
-38.4221
10
43.7971
20
-38.2560
10
44.0006
20
-38.1385
10
44.2275
20
-38.0777
10
44.4625
20
-38.0777
10
44.6894
20
-38.1385
10
44.8929
20
-38.2560
10
45.0590
20
-38.4221
10
45.1765
20
-38.6256
10
45.2373
20
-38.8525
10
45.2450
20
-38.9700
10
45.2450
20
-39.7700
10
45.2373
20
-39.8875
10
45.1765
20
-40.1144
10
45.0590
20
-40.3179
10
44.8929
20
-40.4840
10
44.6894
20
-40.6015
10
44.4625
20
-40.6623
10
44.2275
20
-40.6623
10
44.0006
20
-40.6015
10
43.7971
20
-40.4840
10
43.6310
20
-40.3179
10
43.5135
20
-40.1144
10
43.4527
20
-39.8875
10
43.4450
20
-39.7700
10
43.4450
20
-38.9700
0
LWPOLYLINE
8
MASK
90
28
70
1
10
45.9927
20
-38.8525
10
46.0535
20
-38.6256
10
46.1710
20
-38.4221
10
46.3371
20
-38.2560
10
46.5406
20
-38.1385
10
46.7675
20
-38.0777
10
47.0025
20
-38.0777
10
47.2294
20
-38.1385
10
47.4329
20
-38.2560
10
47.5990
20
-38.4221
10
47.7165
20
-38.6256
10
47.7773
20
-38.8525
10
47.7850
20
-38.9700
10
47.7850
20
-39.7700
10
47.7773
20
-39.8875
10
47.7165
20
-40.1144
10
47.5990
20
-40.3179
10
47.4329
20
-40.4840
10
47.2294
20
-40.6015
10
47.0025
20
-40.6623
10
46.7675
20
-40.6623
10
46.5406
20
-40.6015
10
46.3371
20
-40.4840
10
46.1710
20
-40.3179
10
46.0535
20
-40.1144
10
45.9927
20
-39.8875
10
45.9850
20
-39.7700
10
45.9850
20
-38.9700
0
LWPOLYLINE
8
MASK
90
28
70
1
10
48.5327
20
-38.8525
10
48.5935
20
-38.6256
10
48.7110
20
-38.4221
10
48.8771
20
-38.2560
10
49.0806
20
-38.1385
10
49.3075
20
-38.0777
10
49.5425
20
-38.0777
10
49.7694
20
-38.1385
10
49.9729
20
-38.2560
10
50.1390
20
-38.4221
10
50.2565
20
-38.6256
10
50.3173
20
-38.8525
10
50.3250
20
-38.9700
10
50.3250
20
-39.7700
10
50.3173
20
-39.8875
10
50.2565
20
-40.1144
10
50.1390
20
-40.3179
10
49.9729
20
-40.4840
10
49.7694
20
-40.6015
10
49.5425
20
-40.6623
10
49.3075
20
-40.6623
10
49.0806
20
-40.6015
10
48.8771
20
-40.4840
10
48.7110
20
-40.3179
10
48.5935
20
-40.1144
10
48.5327
20
-39.8875
10
48.5250
20
-39.7700
10
48.5250
20
-38.9700
0
LWPOLYLINE
8
MASK
90
28
70
1
10
51.0727
20
-38.8525
10
51.1335
20
-38.6256
10
51.2510
20
-38.4221
10
51.4171
20
-38.2560
10
51.6206
20
-38.1385
10
51.8475
20
-38.0777
10
52.0825
20
-38.0777
10
52.3094
20
-38.1385
10
52.5129
20
-38.2560
10
52.6790
20
-38.4221
10
52.7965
20
-38.6256
10
52.8573
20
-38.8525
10
52.8650
20
-38.9700
10
52.8650
20
-39.7700
10
52.8573
20
-39.8875
10
52.7965
20
-40.1144
10
52.6790
20
-40.3179
10
52.5129
20
-40.4840
10
52.3094
20
-40.6015
10
52.0825
20
-40.6623
10
51.8475
20
-40.6623
10
51.6206
20
-40.6015
10
51.4171
20
-40.4840
10
51.2510
20
-40.3179
10
51.1335
20
-40.1144
10
51.0727
20
-39.8875
10
51.0650
20
-39.7700
10
51.0650
20
-38.9700
0
LWPOLYLINE
8
MASK
90
28
70
1
10
53.6127
20
-38.8525
10
53.6735
20
-38.6256
10
53.7910
20
-38.4221
10
53.9571
20
-38.2560
10
54.1606
20
-38.1385
10
54.3875
20
-38.0777
10
54.6225
20
-38.0777
10
54.8494
20
-38.1385
10
55.0529
20
-38.2560
10
55.2190
20
-38.4221
10
55.3365
20
-38.6256
10
55.3973
20
-38.8525
10
55.4050
20
-38.9700
10
55.4050
20
-39.7700
10
55.3973
20
-39.8875
10
55.3365
20
-40.1144
10
55.2190
20
-40.3179
10
55.0529
20
-40.4840
10
54.8494
20
-40.6015
10
54.6225
20
-40.6623
10
54.3875
20
-40.6623
10
54.1606
20
-40.6015
10
53.9571
20
-40.4840
10
53.7910
20
-40.3179
10
53.6735
20
-40.1144
10
53.6127
20
-39.8875
10
53.6050
20
-39.7700
10
53.6050
20
-38.9700
0
LWPOLYLINE
8
MASK
90
28
70
1
10
53.6127
20
-31.2325
10
53.6735
20
-31.0056
10
53.7910
20
-30.8021
10
53.9571
20
-30.6360
10
54.1606
20
-30.5185
10
54.3875
20
-30.4577
10
54.6225
20
-30.4577
10
54.8494
20
-30.5185
10
55.0529
20
-30.6360
10
55.2190
20
-30.8021
10
55.3365
20
-31.0056
10
55.3973
20
-31.2325
10
55.4050
20
-31.3500
10
55.4050
20
-32.1500
10
55.3973
20
-32.2675
10
55.3365
20
-32.4944
10
55.2190
20
-32.6979
10
55.0529
20
-32.8640
10
54.8494
20
-32.9815
10
54.6225
20
-33.0423
10
54.3875
20
-33.0423
10
54.1606
20
-32.9815
10
53.9571
20
-32.8640
10
53.7910
20
-32.6979
10
53.6735
20
-32.4944
10
53.6127
20
-32.2675
10
53.6050
20
-32.1500
10
53.6050
20
-31.3500
0
LWPOLYLINE
8
MASK
90
28
70
1
10
51.0727
20
-31.2325
10
51.1335
20
-31.0056
10
51.2510
20
-30.8021
10
51.4171
20
-30.6360
10
51.6206
20
-30.5185
10
51.8475
20
-30.4577
10
52.0825
20
-30.4577
10
52.3094
20
-30.5185
10
52.5129
20
-30.6360
10
52.6790
20
-30.8021
10
52.7965
20
-31.0056
10
52.8573
20
-31.2325
10
52.8650
20
-31.3500
10
52.8650
20
-32.1500
10
52.8573
20
-32.2675
10
52.7965
20
-32.4944
10
52.6790
20
-32.6979
10
52.5129
20
-32.8640
10
52.3094
20
-32.9815
10
52.0825
20
-33.0423
10
51.8475
20
-33.0423
10
51.6206
20
-32.9815
10
51.4171
20
-32.8640
10
51.2510
20
-32.6979
10
51.1335
20
-32.4944
10
51.0727
20
-32.2675
10
51.0650
20
-32.1500
10
51.0650
20
-31.3500
0
LWPOLYLINE
8
MASK
90
28
70
1
10
48.5327
20
-31.2325
10
48.5935
20
-31.0056
10
48.7110
20
-30.8021
10
48.8771
20
-30.6360
10
49.0806
20
-30.5185
10
49.3075
20
-30.4577
10
49.5425
20
-30.4577
10
49.7694
20
-30.5185
10
49.9729
20
-30.6360
10
50.1390
20
-30.8021
10
50.2565
20
-31.0056
10
50.3173
20
-31.2325
10
50.3250
20
-31.3500
10
50.3250
20
-32.1500
10
50.3173
20
-32.2675
10
50.2565
20
-32.4944
10
50.1390
20
-32.6979
10
49.9729
20
-32.8640
10
49.7694
20
-32.9815
10
49.5425
20
-33.0423
10
49.3075
20
-33.0423
10
49.0806
20
-32.9815
10
48.8771
20
-32.8640
10
48.7110
20
-32.6979
10
48.5935
20
-32.4944
10
48.5327
20
-32.2675
10
48.5250
20
-32.1500
10
48.5250
20
-31.3500
0
LWPOLYLINE
8
MASK
90
28
70
1
10
45.9927
20
-31.2325
10
46.0535
20
-31.0056
10
46.1710
20
-30.8021
10
46.3371
20
-30.6360
10
46.5406
20
-30.5185
10
46.7675
20
-30.4577
10
47.0025
20
-30.4577
10
47.2294
20
-30.5185
10
47.4329
20
-30.6360
10
47.5990
20
-30.8021
10
47.7165
20
-31.0056
10
47.7773
20
-31.2325
10
47.7850
20
-31.3500
10
47.7850
20
-32.1500
10
47.7773
20
-32.2675
10
47.7165
20
-32.4944
10
47.5990
20
-32.6979
10
47.4329
20
-32.8640
10
47.2294
20
-32.9815
10
47.0025
20
-33.0423
10
46.7675
20
-33.0423
10
46.5406
20
-32.9815
10
46.3371
20
-32.8640
10
46.1710
20
-32.6979
10
46.0535
20
-32.4944
10
45.9927
20
-32.2675
10
45.9850
20
-32.1500
10
45.9850
20
-31.3500
0
LWPOLYLINE
8
MASK
90
28
70
1
10
43.4527
20
-31.2325
10
43.5135
20
-31.0056
10
43.6310
20
-30.8021
10
43.7971
20
-30.6360
10
44.0006
20
-30.5185
10
44.2275
20
-30.4577
10
44.4625
20
-30.4577
10
44.6894
20
-30.5185
10
44.8929
20
-30.6360
10
45.0590
20
-30.8021
10
45.1765
20
-31.0056
10
45.2373
20
-31.2325
10
45.2450
20
-31.3500
10
45.2450
20
-32.1500
10
45.2373
20
-32.2675
10
45.1765
20
-32.4944
10
45.0590
20
-32.6979
10
44.8929
20
-32.8640
10
44.6894
20
-32.9815
10
44.4625
20
-33.0423
10
44.2275
20
-33.0423
10
44.0006
20
-32.9815
10
43.7971
20
-32.8640
10
43.6310
20
-32.6979
10
43.5135
20
-32.4944
10
43.4527
20
-32.2675
10
43.4450
20
-32.1500
10
43.4450
20
-31.3500
0
LWPOLYLINE
8
MASK
90
28
70
1
10
40.9127
20
-31.2325
10
40.9735
20
-31.0056
10
41.0910
20
-30.8021
10
41.2571
20
-30.6360
10
41.4606
20
-30.5185
10
41.6875
20
-30.4577
10
41.9225
20
-30.4577
10
42.1494
20
-30.5185
10
42.3529
20
-30.6360
10
42.5190
20
-30.8021
10
42.6365
20
-31.0056
10
42.6973
20
-31.2325
10
42.7050
20
-31.3500
10
42.7050
20
-32.1500
10
42.6973
20
-32.2675
10
42.6365
20
-32.4944
10
42.5190
20
-32.6979
10
42.3529
20
-32.8640
10
42.1494
20
-32.9815
10
41.9225
20
-33.0423
10
41.6875
20
-33.0423
10
41.4606
20
-32.9815
10
41.2571
20
-32.8640
10
41.0910
20
-32.6979
10
40.9735
20
-32.4944
10
40.9127
20
-32.2675
10
40.9050
20
-32.1500
10
40.9050
20
-31.3500
0
LWPOLYLINE
8
MASK
90
28
70
1
10
38.3727
20
-31.2325
10
38.4335
20
-31.0056
10
38.5510
20
-30.8021
10
38.7171
20
-30.6360
10
38.9206
20
-30.5185
10
39.1475
20
-30.4577
10
39.3825
20
-30.4577
10
39.6094
20
-30.5185
10
39.8129
20
-30.6360
10
39.9790
20
-30.8021
10
40.0965
20
-31.0056
10
40.1573
20
-31.2325
10
40.1650
20
-31.3500
10
40.1650
20
-32.1500
10
40.1573
20
-32.2675
10
40.0965
20
-32.4944
10
39.9790
20
-32.6979
10
39.8129
20
-32.8640
10
39.6094
20
-32.9815
10
39.3825
20
-33.0423
10
39.1475
20
-33.0423
10
38.9206
20
-32.9815
10
38.7171
20
-32.8640
10
38.5510
20
-32.6979
10
38.4335
20
-32.4944
10
38.3727
20
-32.2675
10
38.3650
20
-32.1500
10
38.3650
20
-31.3500
0
CIRCLE
8
MASK
10
30.6950
20
-55.8800
40
0.9000
0
CIRCLE
8
MASK
10
35.6950
20
-55.8800
40
0.9000
0
LWPOLYLINE
8
MASK
90
20
70
1
10
22.6950
20
-23.5150
10
22.7216
20
-23.3811
10
22.7975
20
-23.2675
10
22.9111
20
-23.1916
10
23.0450
20
-23.1650
10
24.9450
20
-23.1650
10
25.0789
20
-23.1916
10
25.1925
20
-23.2675
10
25.2684
20
-23.3811
10
25.2950
20
-23.5150
10
25.2950
20
-24.6150
10
25.2684
20
-24.7489
10
25.1925
20
-24.8625
10
25.0789
20
-24.9384
10
24.9450
20
-24.9650
10
23.0450
20
-24.9650
10
22.9111
20
-24.9384
10
22.7975
20
-24.8625
10
22.7216
20
-24.7489
10
22.6950
20
-24.6150
0
LWPOLYLINE
8
MASK
90
28
70
1
10
24.5125
20
-25.7127
10
24.7394
20
-25.7735
10
24.9429
20
-25.8910
10
25.1090
20
-26.0571
10
25.2265
20
-26.2606
10
25.2873
20
-26.4875
10
25.2873
20
-26.7225
10
25.2265
20
-26.9494
10
25.1090
20
-27.1529
10
24.9429
20
-27.3190
10
24.7394
20
-27.4365
10
24.5125
20
-27.4973
10
24.3950
20
-27.5050
10
23.5950
20
-27.5050
10
23.4775
20
-27.4973
10
23.2506
20
-27.4365
10
23.0471
20
-27.3190
10
22.8810
20
-27.1529
10
22.7635
20
-26.9494
10
22.7027
20
-26.7225
10
22.7027
20
-26.4875
10
22.7635
20
-26.2606
10
22.8810
20
-26.0571
10
23.0471
20
-25.8910
10
23.2506
20
-25.7735
10
23.4775
20
-25.7127
10
23.5950
20
-25.7050
10
24.3950
20
-25.7050
0
LWPOLYLINE
8
MASK
90
28
70
1
10
24.5125
20
-28.2527
10
24.7394
20
-28.3135
10
24.9429
20
-28.4310
10
25.1090
20
-28.5971
10
25.2265
20
-28.8006
10
25.2873
20
-29.0275
10
25.2873
20
-29.2625
10
25.2265
20
-29.4894
10
25.1090
20
-29.6929
10
24.9429
20
-29.8590
10
24.7394
20
-29.9765
10
24.5125
20
-30.0373
10
24.3950
20
-30.0450
10
23.5950
20
-30.0450
10
23.4775
20
-30.0373
10
23.2506
20
-29.9765
10
23.0471
20
-29.8590
10
22.8810
20
-29.6929
10
22.7635
20
-29.4894
10
22.7027
20
-29.2625
10
22.7027
20
-29.0275
10
22.7635
20
-28.8006
10
22.8810
20
-28.5971
10
23.0471
20
-28.4310
10
23.2506
20
-28.3135
10
23.4775
20
-28.2527
10
23.5950
20
-28.2450
10
24.3950
20
-28.2450
0
LWPOLYLINE
8
MASK
90
28
70
1
10
24.5125
20
-30.7927
10
24.7394
20
-30.8535
10
24.9429
20
-30.9710
10
25.1090
20
-31.1371
10
25.2265
20
-31.3406
10
25.2873
20
-31.5675
10
25.2873
20
-31.8025
10
25.2265
20
-32.0294
10
25.1090
20
-32.2329
10
24.9429
20
-32.3990
10
24.7394
20
-32.5165
10
24.5125
20
-32.5773
10
24.3950
20
-32.5850
10
23.5950
20
-32.5850
10
23.4775
20
-32.5773
10
23.2506
20
-32.5165
10
23.0471
20
-32.3990
10
22.8810
20
-32.2329
10
22.7635
20
-32.0294
10
22.7027
20
-31.8025
10
22.7027
20
-31.5675
10
22.7635
20
-31.3406
10
22.8810
20
-31.1371
10
23.0471
20
-30.9710
10
23.2506
20
-30.8535
10
23.4775
20
-30.7927
10
23.5950
20
-30.7850
10
24.3950
20
-30.7850
0
LWPOLYLINE
8
MASK
90
28
70
1
10
32.1325
20
-30.7927
10
32.3594
20
-30.8535
10
32.5629
20
-30.9710
10
32.7290
20
-31.1371
10
32.8465
20
-31.3406
10
32.9073
20
-31.5675
10
32.9073
20
-31.8025
10
32.8465
20
-32.0294
10
32.7290
20
-32.2329
10
32.5629
20
-32.3990
10
32.3594
20
-32.5165
10
32.1325
20
-32.5773
10
32.0150
20
-32.5850
10
31.2150
20
-32.5850
10
31.0975
20
-32.5773
10
30.8706
20
-32.5165
10
30.6671
20
-32.3990
10
30.5010
20
-32.2329
10
30.3835
20
-32.0294
10
30.3227
20
-31.8025
10
30.3227
20
-31.5675
10
30.3835
20
-31.3406
10
30.5010
20
-31.1371
10
30.6671
20
-30.9710
10
30.8706
20
-30.8535
10
31.0975
20
-30.7927
10
31.2150
20
-30.7850
10
32.0150
20
-30.7850
0
LWPOLYLINE
8
MASK
90
28
70
1
10
32.1325
20
-28.2527
10
32.3594
20
-28.3135
10
32.5629
20
-28.4310
10
32.7290
20
-28.5971
10
32.8465
20
-28.8006
10
32.9073
20
-29.0275
10
32.9073
20
-29.2625
10
32.8465
20
-29.4894
10
32.7290
20
-29.6929
10
32.5629
20
-29.8590
10
32.3594
20
-29.9765
10
32.1325
20
-30.0373
10
32.0150
20
-30.0450
10
31.2150
20
-30.0450
10
31.0975
20
-30.0373
10
30.8706
20
-29.9765
10
30.6671
20
-29.8590
10
30.5010
20
-29.6929
10
30.3835
20
-29.4894
10
30.3227
20
-29.2625
10
30.3227
20
-29.0275
10
30.3835
20
-28.8006
10
30.5010
20
-28.5971
10
30.6671
20
-28.4310
10
30.8706
20
-28.3135
10
31.0975
20
-28.2527
10
31.2150
20
-28.2450
10
32.0150
20
-28.2450
0
LWPOLYLINE
8
MASK
90
28
70
1
10
32.1325
20
-25.7127
10
32.3594
20
-25.7735
10
32.5629
20
-25.8910
10
32.7290
20
-26.0571
10
32.8465
20
-26.2606
10
32.9073
20
-26.4875
10
32.9073
20
-26.7225
10
32.8465
20
-26.9494
10
32.7290
20
-27.1529
10
32.5629
20
-27.3190
10
32.3594
20
-27.4365
10
32.1325
20
-27.4973
10
32.0150
20
-27.5050
10
31.2150
20
-27.5050
10
31.0975
20
-27.4973
10
30.8706
20
-27.4365
10
30.6671
20
-27.3190
10
30.5010
20
-27.1529
10
30.3835
20
-26.9494
10
30.3227
20
-26.7225
10
30.3227
20
-26.4875
10
30.3835
20
-26.2606
10
30.5010
20
-26.0571
10
30.6671
20
-25.8910
10
30.8706
20
-25.7735
10
31.0975
20
-25.7127
10
31.2150
20
-25.7050
10
32.0150
20
-25.7050
0
LWPOLYLINE
8
MASK
90
28
70
1
10
32.1325
20
-23.1727
10
32.3594
20
-23.2335
10
32.5629
20
-23.3510
10
32.7290
20
-23.5171
10
32.8465
20
-23.7206
10
32.9073
20
-23.9475
10
32.9073
20
-24.1825
10
32.8465
20
-24.4094
10
32.7290
20
-24.6129
10
32.5629
20
-24.7790
10
32.3594
20
-24.8965
10
32.1325
20
-24.9573
10
32.0150
20
-24.9650
10
31.2150
20
-24.9650
10
31.0975
20
-24.9573
10
30.8706
20
-24.8965
10
30.6671
20
-24.7790
10
30.5010
20
-24.6129
10
30.3835
20
-24.4094
10
30.3227
20
-24.1825
10
30.3227
20
-23.9475
10
30.3835
20
-23.7206
10
30.5010
20
-23.5171
10
30.6671
20
-23.3510
10
30.8706
20
-23.2335
10
31.0975
20
-23.1727
10
31.2150
20
-23.1650
10
32.0150
20
-23.1650
0
CIRCLE
8
MASK
10
40.4250
20
-55.8800
40
0.9000
0
CIRCLE
8
MASK
10
48.0450
20
-55.8800
40
0.9000
0
CIRCLE
8
MASK
10
36.7650
20
-26.1700
40
0.9000
0
CIRCLE
8
MASK
10
41.7650
20
-26.1700
40
0.9000
0
CIRCLE
8
MASK
10
35.9450
20
-48.2600
40
0.9000
0
CIRCLE
8
MASK
10
40.9450
20
-48.2600
40
0.9000
0
CIRCLE
8
MASK
10
23.5950
20
-48.2600
40
0.9000
0
CIRCLE
8
MASK
10
31.2150
20
-48.2600
40
0.9000
0
LWPOLYLINE
8
EDGE
90
4
70
1
10
61.9000
20
-64.0000
10
20.0000
20
-64.0000
10
20.0000
20
-20.0000
10
61.9000
20
-20.0000
0
ENDSEC
0
EOF
