  0
SECTION
  2
HEADER
  9
$ACADVER
  1
AC1018
  9
$HANDSEED
  5
FFFFFFFF
  9
$ANGBASE
  50
0.0
  9
$ANGDIR
  70
1
  9
$MEASUREMENT
  70
1
  9
$INSUNITS
  70
4
  0
ENDSEC
  0
SECTION
  2
TABLES
  0
TABLE
  2
APPID
  5
1
330
0
100
AcDbSymbolTable
 70
1
  0
APPID
  5
2
330
1
100
AcDbSymbolTableRecord
100
AcDbRegAppTableRecord
  2
ACAD
 70
0
  0
ENDTAB
  0
TABLE
  2
LTYPE
  5
3
330
0
100
AcDbSymbolTable
 70
6
  0
LTYPE
  5
4
330
3
100
AcDbSymbolTableRecord
100
AcDbLinetypeTableRecord
  2
ByBlock
 70
0
  3

 72
65
 73
0
 40
0
  0
LTYPE
  5
5
330
3
100
AcDbSymbolTableRecord
100
AcDbLinetypeTableRecord
  2
ByLayer
 70
0
  3

 72
65
 73
0
 40
0
  0
LTYPE
  5
6
330
3
100
AcDbSymbolTableRecord
100
AcDbLinetypeTableRecord
  2
CONTINUOUS
 70
0
  3
Solid line
 72
65
 73
0
 40
0
  0
LTYPE
  5
7
330
3
100
AcDbSymbolTableRecord
100
AcDbLinetypeTableRecord
  2
DASHDOT
 70
0
  3
Dash Dot ____ _ ____ _
 72
65
 73
4
 40
2
 49
1.25
 74
0
 49
-0.25
 74
0
 49
0.25
 74
0
 49
-0.25
 74
0
  0
LTYPE
  5
8
330
3
100
AcDbSymbolTableRecord
100
AcDbLinetypeTableRecord
  2
DASHED
 70
0
  3
Dashed __ __ __ __ __
 72
65
 73
2
 40
0.75
 49
0.5
 74
0
 49
-0.25
 74
0
  0
LTYPE
  5
9
330
3
100
AcDbSymbolTableRecord
100
AcDbLinetypeTableRecord
  2
DOTTED
 70
0
  3
Dotted .  .  .  .
 72
65
 73
2
 40
0.2
 49
0.0
 74
0
 49
-0.2
 74
0
  0
ENDTAB
  0
TABLE
  2
STYLE
  5
A
330
0
100
AcDbSymbolTable
 70
4
  0
STYLE
  5
B
330
A
100
AcDbSymbolTableRecord
100
AcDbTextStyleTableRecord
  2
KICAD
 70
0
 40
0
 41
1
 42
1
 50
0
 71
0
  3
isocp.shx
  0
STYLE
  5
C
330
A
100
AcDbSymbolTableRecord
100
AcDbTextStyleTableRecord
  2
KICADB
 70
0
 40
0
 41
1
 42
1
 50
0
 71
0
  3
isocp.shx
  0
STYLE
  5
D
330
A
100
AcDbSymbolTableRecord
100
AcDbTextStyleTableRecord
  2
KICADI
 70
0
 40
0
 41
1
 42
1
 50
15
 71
0
  3
isocp.shx
  0
STYLE
  5
E
330
A
100
AcDbSymbolTableRecord
100
AcDbTextStyleTableRecord
  2
KICADBI
 70
0
 40
0
 41
1
 42
1
 50
15
 71
0
  3
isocp.shx
  0
ENDTAB
  0
TABLE
  2
LAYER
  5
F
330
0
100
AcDbSymbolTable
 70
3
  0
LAYER
  5
12
330
F
100
AcDbSymbolTableRecord
100
AcDbLayerTableRecord
  2
0
 70
0
 62
7
  6
CONTINUOUS
390
10
  0
LAYER
  5
13
330
F
100
AcDbSymbolTableRecord
100
AcDbLayerTableRecord
  2
F.Silkscreen
 70
0
 62
254
420
15457202
  6
CONTINUOUS
390
10
  0
LAYER
  5
14
330
F
100
AcDbSymbolTableRecord
100
AcDbLayerTableRecord
  2
Edge.Cuts
 70
0
 62
40
420
16432431
  6
CONTINUOUS
390
10
  0
ENDTAB
  0
TABLE
  2
VPORT
  5
15
330
0
100
AcDbSymbolTable
 70
0
  0
ENDTAB
  0
TABLE
  2
VIEW
  5
16
330
0
100
AcDbSymbolTable
 70
0
  0
ENDTAB
  0
TABLE
  2
UCS
  5
17
330
0
100
AcDbSymbolTable
 70
0
  0
ENDTAB
  0
TABLE
  2
DIMSTYLE
  5
18
330
0
100
AcDbSymbolTable
 70
1
100
AcDbDimStyleTable
 71
0
  0
DIMSTYLE
105
19
330
18
100
AcDbSymbolTableRecord
100
AcDbDimStyleTableRecord
  2
Standard
 70
0
  0
ENDTAB
  0
TABLE
  2
BLOCK_RECORD
  5
1A
330
0
100
AcDbSymbolTable
 70
3
  0
BLOCK_RECORD
  5
1B
330
1A
100
AcDbSymbolTableRecord
100
AcDbBlockTableRecord
  2
*Model_Space
340
1E
 70
0
280
1
281
0
  0
BLOCK_RECORD
  5
1C
330
1A
100
AcDbSymbolTableRecord
100
AcDbBlockTableRecord
  2
*Paper_Space
340
1F
 70
0
280
1
281
0
  0
BLOCK_RECORD
  5
1D
330
1A
100
AcDbSymbolTableRecord
100
AcDbBlockTableRecord
  2
*Paper_Space0
340
20
 70
0
280
1
281
0
  0
ENDTAB
  0
ENDSEC
  0
SECTION
  2
BLOCKS
  0
BLOCK
  5
24
330
1B
100
AcDbEntity
  8
0
100
AcDbBlockBegin
  2
*Model_Space
 70
0
 10
0.0
 20
0.0
 30
0.0
  3
*Model_Space
  1

  0
ENDBLK
  5
23
330
1B
100
AcDbEntity
  8
0
100
AcDbBlockEnd
  0
BLOCK
  5
26
330
1C
100
AcDbEntity
 67
1
  8
0
100
AcDbBlockBegin
  2
*Paper_Space
 70
0
 10
0.0
 20
0.0
 30
0.0
  3
*Paper_Space
  1

  0
ENDBLK
  5
25
330
1C
100
AcDbEntity
 67
1
  8
0
100
AcDbBlockEnd
  0
BLOCK
  5
28
330
1D
100
AcDbEntity
 67
1
  8
0
100
AcDbBlockBegin
  2
*Paper_Space0
 70
0
 10
0.0
 20
0.0
 30
0.0
  3
*Paper_Space0
  1

  0
ENDBLK
  5
27
330
1D
100
AcDbEntity
 67
1
  8
0
100
AcDbBlockEnd
  0
ENDSEC
  0
SECTION
  2
ENTITIES
  0
LINE
  5
29
330
1B
100
AcDbEntity
  8
F.Silkscreen
  6
CONTINUOUS
100
AcDbLine
 10
50.0988089999999957
 20
-44.7186279999999954
 30
0
 11
50.0988089999999957
 21
-45.1948189999999954
 31
0
  0
LINE
  5
2A
330
1B
100
AcDbEntity
  8
F.Silkscreen
  6
CONTINUOUS
100
AcDbLine
 10
49.7654759999999996
 20
-44.1948189999999954
 30
0
 11
50.0988089999999957
 21
-44.7186279999999954
 31
0
  0
LINE
  5
2B
330
1B
100
AcDbEntity
  8
F.Silkscreen
  6
CONTINUOUS
100
AcDbLine
 10
50.0988089999999957
 20
-44.7186279999999954
 30
0
 11
50.4321419999999989
 21
-44.1948189999999954
 31
0
  0
LINE
  5
2C
330
1B
100
AcDbEntity
  8
F.Silkscreen
  6
CONTINUOUS
100
AcDbLine
 10
51.2892849999999996
 20
-45.1948189999999954
 30
0
 11
50.7178569999999951
 21
-45.1948189999999954
 31
0
  0
LINE
  5
2D
330
1B
100
AcDbEntity
  8
F.Silkscreen
  6
CONTINUOUS
100
AcDbLine
 10
51.0035710000000009
 20
-45.1948189999999954
 30
0
 11
51.0035710000000009
 21
-44.1948189999999954
 31
0
  0
LINE
  5
2E
330
1B
100
AcDbEntity
  8
F.Silkscreen
  6
CONTINUOUS
100
AcDbLine
 10
51.0035710000000009
 20
-44.1948189999999954
 30
0
 11
50.9083329999999989
 21
-44.3376759999999948
 31
0
  0
LINE
  5
2F
330
1B
100
AcDbEntity
  8
F.Silkscreen
  6
CONTINUOUS
100
AcDbLine
 10
50.9083329999999989
 20
-44.3376759999999948
 30
0
 11
50.813094999999997
 21
-44.4329139999999967
 31
0
  0
LINE
  5
30
330
1B
100
AcDbEntity
  8
F.Silkscreen
  6
CONTINUOUS
100
AcDbLine
 10
50.813094999999997
 20
-44.4329139999999967
 30
0
 11
50.7178569999999951
 21
-44.4805330000000012
 31
0
  0
LINE
  5
31
330
1B
100
AcDbEntity
  8
F.Silkscreen
  6
CONTINUOUS
100
AcDbLine
 10
36.3898189999999957
 20
-36.3219039999999964
 30
0
 11
37.1993420000000015
 21
-36.3219039999999964
 31
0
  0
LINE
  5
32
330
1B
100
AcDbEntity
  8
F.Silkscreen
  6
CONTINUOUS
100
AcDbLine
 10
37.1993420000000015
 20
-36.3219039999999964
 30
0
 11
37.2945799999999963
 21
-36.274284999999999
 31
0
  0
LINE
  5
33
330
1B
100
AcDbEntity
  8
F.Silkscreen
  6
CONTINUOUS
100
AcDbLine
 10
37.2945799999999963
 20
-36.274284999999999
 30
0
 11
37.3421999999999983
 21
-36.2266660000000016
 31
0
  0
LINE
  5
34
330
1B
100
AcDbEntity
  8
F.Silkscreen
  6
CONTINUOUS
100
AcDbLine
 10
37.3421999999999983
 20
-36.2266660000000016
 30
0
 11
37.3898189999999957
 21
-36.1314279999999997
 31
0
  0
LINE
  5
35
330
1B
100
AcDbEntity
  8
F.Silkscreen
  6
CONTINUOUS
100
AcDbLine
 10
37.3898189999999957
 20
-36.1314279999999997
 30
0
 11
37.3898189999999957
 21
-35.9409519999999958
 31
0
  0
LINE
  5
36
330
1B
100
AcDbEntity
  8
F.Silkscreen
  6
CONTINUOUS
100
AcDbLine
 10
37.3898189999999957
 20
-35.9409519999999958
 30
0
 11
37.3421999999999983
 21
-35.845714000000001
 31
0
  0
LINE
  5
37
330
1B
100
AcDbEntity
  8
F.Silkscreen
  6
CONTINUOUS
100
AcDbLine
 10
37.3421999999999983
 20
-35.845714000000001
 30
0
 11
37.2945799999999963
 21
-35.7980949999999964
 31
0
  0
LINE
  5
38
330
1B
100
AcDbEntity
  8
F.Silkscreen
  6
CONTINUOUS
100
AcDbLine
 10
37.2945799999999963
 20
-35.7980949999999964
 30
0
 11
37.1993420000000015
 21
-35.750475999999999
 31
0
  0
LINE
  5
39
330
1B
100
AcDbEntity
  8
F.Silkscreen
  6
CONTINUOUS
100
AcDbLine
 10
37.1993420000000015
 20
-35.750475999999999
 30
0
 11
36.3898189999999957
 21
-35.750475999999999
 31
0
  0
LINE
  5
3A
330
1B
100
AcDbEntity
  8
F.Silkscreen
  6
CONTINUOUS
100
AcDbLine
 10
37.3898189999999957
 20
-35.2266660000000016
 30
0
 11
37.3898189999999957
 21
-35.0361899999999977
 31
0
  0
LINE
  5
3B
330
1B
100
AcDbEntity
  8
F.Silkscreen
  6
CONTINUOUS
100
AcDbLine
 10
37.3898189999999957
 20
-35.0361899999999977
 30
0
 11
37.3421999999999983
 21
-34.9409519999999958
 31
0
  0
LINE
  5
3C
330
1B
100
AcDbEntity
  8
F.Silkscreen
  6
CONTINUOUS
100
AcDbLine
 10
37.3421999999999983
 20
-34.9409519999999958
 30
0
 11
37.2945799999999963
 21
-34.8933329999999984
 31
0
  0
LINE
  5
3D
330
1B
100
AcDbEntity
  8
F.Silkscreen
  6
CONTINUOUS
100
AcDbLine
 10
37.2945799999999963
 20
-34.8933329999999984
 30
0
 11
37.1517229999999969
 21
-34.7980949999999964
 31
0
  0
LINE
  5
3E
330
1B
100
AcDbEntity
  8
F.Silkscreen
  6
CONTINUOUS
100
AcDbLine
 10
37.1517229999999969
 20
-34.7980949999999964
 30
0
 11
36.9612470000000002
 21
-34.750475999999999
 31
0
  0
LINE
  5
3F
330
1B
100
AcDbEntity
  8
F.Silkscreen
  6
CONTINUOUS
100
AcDbLine
 10
36.9612470000000002
 20
-34.750475999999999
 30
0
 11
36.5802949999999996
 21
-34.750475999999999
 31
0
  0
LINE
  5
40
330
1B
100
AcDbEntity
  8
F.Silkscreen
  6
CONTINUOUS
100
AcDbLine
 10
36.5802949999999996
 20
-34.750475999999999
 30
0
 11
36.4850569999999976
 21
-34.7980949999999964
 31
0
  0
LINE
  5
41
330
1B
100
AcDbEntity
  8
F.Silkscreen
  6
CONTINUOUS
100
AcDbLine
 10
36.4850569999999976
 20
-34.7980949999999964
 30
0
 11
36.4374380000000002
 21
-34.845714000000001
 31
0
  0
LINE
  5
42
330
1B
100
AcDbEntity
  8
F.Silkscreen
  6
CONTINUOUS
100
AcDbLine
 10
36.4374380000000002
 20
-34.845714000000001
 30
0
 11
36.3898189999999957
 21
-34.9409519999999958
 31
0
  0
LINE
  5
43
330
1B
100
AcDbEntity
  8
F.Silkscreen
  6
CONTINUOUS
100
AcDbLine
 10
36.3898189999999957
 20
-34.9409519999999958
 30
0
 11
36.3898189999999957
 21
-35.1314279999999997
 31
0
  0
LINE
  5
44
330
1B
100
AcDbEntity
  8
F.Silkscreen
  6
CONTINUOUS
100
AcDbLine
 10
36.3898189999999957
 20
-35.1314279999999997
 30
0
 11
36.4374380000000002
 21
-35.2266660000000016
 31
0
  0
LINE
  5
45
330
1B
100
AcDbEntity
  8
F.Silkscreen
  6
CONTINUOUS
100
AcDbLine
 10
36.4374380000000002
 20
-35.2266660000000016
 30
0
 11
36.4850569999999976
 21
-35.274284999999999
 31
0
  0
LINE
  5
46
330
1B
100
AcDbEntity
  8
F.Silkscreen
  6
CONTINUOUS
100
AcDbLine
 10
36.4850569999999976
 20
-35.274284999999999
 30
0
 11
36.5802949999999996
 21
-35.3219039999999964
 31
0
  0
LINE
  5
47
330
1B
100
AcDbEntity
  8
F.Silkscreen
  6
CONTINUOUS
100
AcDbLine
 10
36.5802949999999996
 20
-35.3219039999999964
 30
0
 11
36.8183900000000008
 21
-35.3219039999999964
 31
0
  0
LINE
  5
48
330
1B
100
AcDbEntity
  8
F.Silkscreen
  6
CONTINUOUS
100
AcDbLine
 10
36.8183900000000008
 20
-35.3219039999999964
 30
0
 11
36.9136279999999957
 21
-35.274284999999999
 31
0
  0
LINE
  5
49
330
1B
100
AcDbEntity
  8
F.Silkscreen
  6
CONTINUOUS
100
AcDbLine
 10
36.9136279999999957
 20
-35.274284999999999
 30
0
 11
36.9612470000000002
 21
-35.2266660000000016
 31
0
  0
LINE
  5
4A
330
1B
100
AcDbEntity
  8
F.Silkscreen
  6
CONTINUOUS
100
AcDbLine
 10
36.9612470000000002
 20
-35.2266660000000016
 30
0
 11
37.0088659999999976
 21
-35.1314279999999997
 31
0
  0
LINE
  5
4B
330
1B
100
AcDbEntity
  8
F.Silkscreen
  6
CONTINUOUS
100
AcDbLine
 10
37.0088659999999976
 20
-35.1314279999999997
 30
0
 11
37.0088659999999976
 21
-34.9409519999999958
 31
0
  0
LINE
  5
4C
330
1B
100
AcDbEntity
  8
F.Silkscreen
  6
CONTINUOUS
100
AcDbLine
 10
37.0088659999999976
 20
-34.9409519999999958
 30
0
 11
36.9612470000000002
 21
-34.845714000000001
 31
0
  0
LINE
  5
4D
330
1B
100
AcDbEntity
  8
F.Silkscreen
  6
CONTINUOUS
100
AcDbLine
 10
36.9612470000000002
 20
-34.845714000000001
 30
0
 11
36.9136279999999957
 21
-34.7980949999999964
 31
0
  0
LINE
  5
4E
330
1B
100
AcDbEntity
  8
F.Silkscreen
  6
CONTINUOUS
100
AcDbLine
 10
36.9136279999999957
 20
-34.7980949999999964
 30
0
 11
36.8183900000000008
 21
-34.750475999999999
 31
0
  0
LINE
  5
4F
330
1B
100
AcDbEntity
  8
F.Silkscreen
  6
CONTINUOUS
100
AcDbLine
 10
32.5521419999999964
 20
-53.7395799999999966
 30
0
 11
32.5045229999999989
 21
-53.7871999999999986
 31
0
  0
LINE
  5
50
330
1B
100
AcDbEntity
  8
F.Silkscreen
  6
CONTINUOUS
100
AcDbLine
 10
32.5045229999999989
 20
-53.7871999999999986
 30
0
 11
32.3616659999999996
 21
-53.834818999999996
 31
0
  0
LINE
  5
51
330
1B
100
AcDbEntity
  8
F.Silkscreen
  6
CONTINUOUS
100
AcDbLine
 10
32.3616659999999996
 20
-53.834818999999996
 30
0
 11
32.2664279999999977
 21
-53.834818999999996
 31
0
  0
LINE
  5
52
330
1B
100
AcDbEntity
  8
F.Silkscreen
  6
CONTINUOUS
100
AcDbLine
 10
32.2664279999999977
 20
-53.834818999999996
 30
0
 11
32.1235709999999983
 21
-53.7871999999999986
 31
0
  0
LINE
  5
53
330
1B
100
AcDbEntity
  8
F.Silkscreen
  6
CONTINUOUS
100
AcDbLine
 10
32.1235709999999983
 20
-53.7871999999999986
 30
0
 11
32.0283329999999964
 21
-53.6919609999999992
 31
0
  0
LINE
  5
54
330
1B
100
AcDbEntity
  8
F.Silkscreen
  6
CONTINUOUS
100
AcDbLine
 10
32.0283329999999964
 20
-53.6919609999999992
 30
0
 11
31.980713999999999
 21
-53.5967229999999972
 31
0
  0
LINE
  5
55
330
1B
100
AcDbEntity
  8
F.Silkscreen
  6
CONTINUOUS
100
AcDbLine
 10
31.980713999999999
 20
-53.5967229999999972
 30
0
 11
31.933094999999998
 21
-53.4062470000000005
 31
0
  0
LINE
  5
56
330
1B
100
AcDbEntity
  8
F.Silkscreen
  6
CONTINUOUS
100
AcDbLine
 10
31.933094999999998
 20
-53.4062470000000005
 30
0
 11
31.933094999999998
 21
-53.2633900000000011
 31
0
  0
LINE
  5
57
330
1B
100
AcDbEntity
  8
F.Silkscreen
  6
CONTINUOUS
100
AcDbLine
 10
31.933094999999998
 20
-53.2633900000000011
 30
0
 11
31.980713999999999
 21
-53.0729139999999973
 31
0
  0
LINE
  5
58
330
1B
100
AcDbEntity
  8
F.Silkscreen
  6
CONTINUOUS
100
AcDbLine
 10
31.980713999999999
 20
-53.0729139999999973
 30
0
 11
32.0283329999999964
 21
-52.9776759999999953
 31
0
  0
LINE
  5
59
330
1B
100
AcDbEntity
  8
F.Silkscreen
  6
CONTINUOUS
100
AcDbLine
 10
32.0283329999999964
 20
-52.9776759999999953
 30
0
 11
32.1235709999999983
 21
-52.8824380000000005
 31
0
  0
LINE
  5
5A
330
1B
100
AcDbEntity
  8
F.Silkscreen
  6
CONTINUOUS
100
AcDbLine
 10
32.1235709999999983
 20
-52.8824380000000005
 30
0
 11
32.2664279999999977
 21
-52.834818999999996
 31
0
  0
LINE
  5
5B
330
1B
100
AcDbEntity
  8
F.Silkscreen
  6
CONTINUOUS
100
AcDbLine
 10
32.2664279999999977
 20
-52.834818999999996
 30
0
 11
32.3616659999999996
 21
-52.834818999999996
 31
0
  0
LINE
  5
5C
330
1B
100
AcDbEntity
  8
F.Silkscreen
  6
CONTINUOUS
100
AcDbLine
 10
32.3616659999999996
 20
-52.834818999999996
 30
0
 11
32.5045229999999989
 21
-52.8824380000000005
 31
0
  0
LINE
  5
5D
330
1B
100
AcDbEntity
  8
F.Silkscreen
  6
CONTINUOUS
100
AcDbLine
 10
32.5045229999999989
 20
-52.8824380000000005
 30
0
 11
32.5521419999999964
 21
-52.9300569999999979
 31
0
  0
LINE
  5
5E
330
1B
100
AcDbEntity
  8
F.Silkscreen
  6
CONTINUOUS
100
AcDbLine
 10
33.5045229999999989
 20
-53.834818999999996
 30
0
 11
32.9330950000000016
 21
-53.834818999999996
 31
0
  0
LINE
  5
5F
330
1B
100
AcDbEntity
  8
F.Silkscreen
  6
CONTINUOUS
100
AcDbLine
 10
33.2188090000000003
 20
-53.834818999999996
 30
0
 11
33.2188090000000003
 21
-52.834818999999996
 31
0
  0
LINE
  5
60
330
1B
100
AcDbEntity
  8
F.Silkscreen
  6
CONTINUOUS
100
AcDbLine
 10
33.2188090000000003
 20
-52.834818999999996
 30
0
 11
33.1235709999999983
 21
-52.9776759999999953
 31
0
  0
LINE
  5
61
330
1B
100
AcDbEntity
  8
F.Silkscreen
  6
CONTINUOUS
100
AcDbLine
 10
33.1235709999999983
 20
-52.9776759999999953
 30
0
 11
33.0283329999999964
 21
-53.0729139999999973
 31
0
  0
LINE
  5
62
330
1B
100
AcDbEntity
  8
F.Silkscreen
  6
CONTINUOUS
100
AcDbLine
 10
33.0283329999999964
 20
-53.0729139999999973
 30
0
 11
32.9330950000000016
 21
-53.1205329999999947
 31
0
  0
LINE
  5
63
330
1B
100
AcDbEntity
  8
F.Silkscreen
  6
CONTINUOUS
100
AcDbLine
 10
34.3616659999999996
 20
-52.834818999999996
 30
0
 11
34.1711899999999957
 21
-52.834818999999996
 31
0
  0
LINE
  5
64
330
1B
100
AcDbEntity
  8
F.Silkscreen
  6
CONTINUOUS
100
AcDbLine
 10
34.1711899999999957
 20
-52.834818999999996
 30
0
 11
34.0759520000000009
 21
-52.8824380000000005
 31
0
  0
LINE
  5
65
330
1B
100
AcDbEntity
  8
F.Silkscreen
  6
CONTINUOUS
100
AcDbLine
 10
34.0759520000000009
 20
-52.8824380000000005
 30
0
 11
34.0283329999999964
 21
-52.9300569999999979
 31
0
  0
LINE
  5
66
330
1B
100
AcDbEntity
  8
F.Silkscreen
  6
CONTINUOUS
100
AcDbLine
 10
34.0283329999999964
 20
-52.9300569999999979
 30
0
 11
33.9330950000000016
 21
-53.0729139999999973
 31
0
  0
LINE
  5
67
330
1B
100
AcDbEntity
  8
F.Silkscreen
  6
CONTINUOUS
100
AcDbLine
 10
33.9330950000000016
 20
-53.0729139999999973
 30
0
 11
33.885475999999997
 21
-53.2633900000000011
 31
0
  0
LINE
  5
68
330
1B
100
AcDbEntity
  8
F.Silkscreen
  6
CONTINUOUS
100
AcDbLine
 10
33.885475999999997
 20
-53.2633900000000011
 30
0
 11
33.885475999999997
 21
-53.6443419999999946
 31
0
  0
LINE
  5
69
330
1B
100
AcDbEntity
  8
F.Silkscreen
  6
CONTINUOUS
100
AcDbLine
 10
33.885475999999997
 20
-53.6443419999999946
 30
0
 11
33.9330950000000016
 21
-53.7395799999999966
 31
0
  0
LINE
  5
6A
330
1B
100
AcDbEntity
  8
F.Silkscreen
  6
CONTINUOUS
100
AcDbLine
 10
33.9330950000000016
 20
-53.7395799999999966
 30
0
 11
33.980713999999999
 21
-53.7871999999999986
 31
0
  0
LINE
  5
6B
330
1B
100
AcDbEntity
  8
F.Silkscreen
  6
CONTINUOUS
100
AcDbLine
 10
33.980713999999999
 20
-53.7871999999999986
 30
0
 11
34.0759520000000009
 21
-53.834818999999996
 31
0
  0
LINE
  5
6C
330
1B
100
AcDbEntity
  8
F.Silkscreen
  6
CONTINUOUS
100
AcDbLine
 10
34.0759520000000009
 20
-53.834818999999996
 30
0
 11
34.2664279999999977
 21
-53.834818999999996
 31
0
  0
LINE
  5
6D
330
1B
100
AcDbEntity
  8
F.Silkscreen
  6
CONTINUOUS
100
AcDbLine
 10
34.2664279999999977
 20
-53.834818999999996
 30
0
 11
34.3616659999999996
 21
-53.7871999999999986
 31
0
  0
LINE
  5
6E
330
1B
100
AcDbEntity
  8
F.Silkscreen
  6
CONTINUOUS
100
AcDbLine
 10
34.3616659999999996
 20
-53.7871999999999986
 30
0
 11
34.409284999999997
 21
-53.7395799999999966
 31
0
  0
LINE
  5
6F
330
1B
100
AcDbEntity
  8
F.Silkscreen
  6
CONTINUOUS
100
AcDbLine
 10
34.409284999999997
 20
-53.7395799999999966
 30
0
 11
34.4569040000000015
 21
-53.6443419999999946
 31
0
  0
LINE
  5
70
330
1B
100
AcDbEntity
  8
F.Silkscreen
  6
CONTINUOUS
100
AcDbLine
 10
34.4569040000000015
 20
-53.6443419999999946
 30
0
 11
34.4569040000000015
 21
-53.4062470000000005
 31
0
  0
LINE
  5
71
330
1B
100
AcDbEntity
  8
F.Silkscreen
  6
CONTINUOUS
100
AcDbLine
 10
34.4569040000000015
 20
-53.4062470000000005
 30
0
 11
34.409284999999997
 21
-53.3110089999999985
 31
0
  0
LINE
  5
72
330
1B
100
AcDbEntity
  8
F.Silkscreen
  6
CONTINUOUS
100
AcDbLine
 10
34.409284999999997
 20
-53.3110089999999985
 30
0
 11
34.3616659999999996
 21
-53.2633900000000011
 31
0
  0
LINE
  5
73
330
1B
100
AcDbEntity
  8
F.Silkscreen
  6
CONTINUOUS
100
AcDbLine
 10
34.3616659999999996
 20
-53.2633900000000011
 30
0
 11
34.2664279999999977
 21
-53.2157709999999966
 31
0
  0
LINE
  5
74
330
1B
100
AcDbEntity
  8
F.Silkscreen
  6
CONTINUOUS
100
AcDbLine
 10
34.2664279999999977
 20
-53.2157709999999966
 30
0
 11
34.0759520000000009
 21
-53.2157709999999966
 31
0
  0
LINE
  5
75
330
1B
100
AcDbEntity
  8
F.Silkscreen
  6
CONTINUOUS
100
AcDbLine
 10
34.0759520000000009
 20
-53.2157709999999966
 30
0
 11
33.980713999999999
 21
-53.2633900000000011
 31
0
  0
LINE
  5
76
330
1B
100
AcDbEntity
  8
F.Silkscreen
  6
CONTINUOUS
100
AcDbLine
 10
33.980713999999999
 20
-53.2633900000000011
 30
0
 11
33.9330950000000016
 21
-53.3110089999999985
 31
0
  0
LINE
  5
77
330
1B
100
AcDbEntity
  8
F.Silkscreen
  6
CONTINUOUS
100
AcDbLine
 10
33.9330950000000016
 20
-53.3110089999999985
 30
0
 11
33.885475999999997
 21
-53.4062470000000005
 31
0
  0
LINE
  5
78
330
1B
100
AcDbEntity
  8
F.Silkscreen
  6
CONTINUOUS
100
AcDbLine
 10
27.471665999999999
 20
-21.189819
 30
0
 11
27.471665999999999
 21
-21.9041040000000002
 31
0
  0
LINE
  5
79
330
1B
100
AcDbEntity
  8
F.Silkscreen
  6
CONTINUOUS
100
AcDbLine
 10
27.471665999999999
 20
-21.9041040000000002
 30
0
 11
27.4240469999999981
 21
-22.0469609999999996
 31
0
  0
LINE
  5
7A
330
1B
100
AcDbEntity
  8
F.Silkscreen
  6
CONTINUOUS
100
AcDbLine
 10
27.4240469999999981
 20
-22.0469609999999996
 30
0
 11
27.3288089999999997
 21
-22.142199999999999
 31
0
  0
LINE
  5
7B
330
1B
100
AcDbEntity
  8
F.Silkscreen
  6
CONTINUOUS
100
AcDbLine
 10
27.3288089999999997
 20
-22.142199999999999
 30
0
 11
27.1859520000000003
 21
-22.189819
 31
0
  0
LINE
  5
7C
330
1B
100
AcDbEntity
  8
F.Silkscreen
  6
CONTINUOUS
100
AcDbLine
 10
27.1859520000000003
 20
-22.189819
 30
0
 11
27.0907139999999984
 21
-22.189819
 31
0
  0
LINE
  5
7D
330
1B
100
AcDbEntity
  8
F.Silkscreen
  6
CONTINUOUS
100
AcDbLine
 10
28.471665999999999
 20
-22.189819
 30
0
 11
27.9002379999999981
 21
-22.189819
 31
0
  0
LINE
  5
7E
330
1B
100
AcDbEntity
  8
F.Silkscreen
  6
CONTINUOUS
100
AcDbLine
 10
28.1859520000000003
 20
-22.189819
 30
0
 11
28.1859520000000003
 21
-21.189819
 31
0
  0
LINE
  5
7F
330
1B
100
AcDbEntity
  8
F.Silkscreen
  6
CONTINUOUS
100
AcDbLine
 10
28.1859520000000003
 20
-21.189819
 30
0
 11
28.0907139999999984
 21
-21.3326759999999993
 31
0
  0
LINE
  5
80
330
1B
100
AcDbEntity
  8
F.Silkscreen
  6
CONTINUOUS
100
AcDbLine
 10
28.0907139999999984
 20
-21.3326759999999993
 30
0
 11
27.995476
 21
-21.4279139999999977
 31
0
  0
LINE
  5
81
330
1B
100
AcDbEntity
  8
F.Silkscreen
  6
CONTINUOUS
100
AcDbLine
 10
27.995476
 20
-21.4279139999999977
 30
0
 11
27.9002379999999981
 21
-21.4755329999999987
 31
0
  0
LINE
  5
82
330
1B
100
AcDbEntity
  8
F.Silkscreen
  6
CONTINUOUS
100
AcDbLine
 10
43.5921419999999955
 20
-53.9648189999999985
 30
0
 11
43.2588089999999994
 21
-53.4886279999999985
 31
0
  0
LINE
  5
83
330
1B
100
AcDbEntity
  8
F.Silkscreen
  6
CONTINUOUS
100
AcDbLine
 10
43.0207139999999981
 20
-53.9648189999999985
 30
0
 11
43.0207139999999981
 21
-52.9648189999999985
 31
0
  0
LINE
  5
84
330
1B
100
AcDbEntity
  8
F.Silkscreen
  6
CONTINUOUS
100
AcDbLine
 10
43.0207139999999981
 20
-52.9648189999999985
 30
0
 11
43.4016659999999987
 21
-52.9648189999999985
 31
0
  0
LINE
  5
85
330
1B
100
AcDbEntity
  8
F.Silkscreen
  6
CONTINUOUS
100
AcDbLine
 10
43.4016659999999987
 20
-52.9648189999999985
 30
0
 11
43.4969040000000007
 21
-53.012437999999996
 31
0
  0
LINE
  5
86
330
1B
100
AcDbEntity
  8
F.Silkscreen
  6
CONTINUOUS
100
AcDbLine
 10
43.4969040000000007
 20
-53.012437999999996
 30
0
 11
43.5445229999999981
 21
-53.0600570000000005
 31
0
  0
LINE
  5
87
330
1B
100
AcDbEntity
  8
F.Silkscreen
  6
CONTINUOUS
100
AcDbLine
 10
43.5445229999999981
 20
-53.0600570000000005
 30
0
 11
43.5921419999999955
 21
-53.1552949999999953
 31
0
  0
LINE
  5
88
330
1B
100
AcDbEntity
  8
F.Silkscreen
  6
CONTINUOUS
100
AcDbLine
 10
43.5921419999999955
 20
-53.1552949999999953
 30
0
 11
43.5921419999999955
 21
-53.2981519999999946
 31
0
  0
LINE
  5
89
330
1B
100
AcDbEntity
  8
F.Silkscreen
  6
CONTINUOUS
100
AcDbLine
 10
43.5921419999999955
 20
-53.2981519999999946
 30
0
 11
43.5445229999999981
 21
-53.3933899999999966
 31
0
  0
LINE
  5
8A
330
1B
100
AcDbEntity
  8
F.Silkscreen
  6
CONTINUOUS
100
AcDbLine
 10
43.5445229999999981
 20
-53.3933899999999966
 30
0
 11
43.4969040000000007
 21
-53.4410090000000011
 31
0
  0
LINE
  5
8B
330
1B
100
AcDbEntity
  8
F.Silkscreen
  6
CONTINUOUS
100
AcDbLine
 10
43.4969040000000007
 20
-53.4410090000000011
 30
0
 11
43.4016659999999987
 21
-53.4886279999999985
 31
0
  0
LINE
  5
8C
330
1B
100
AcDbEntity
  8
F.Silkscreen
  6
CONTINUOUS
100
AcDbLine
 10
43.4016659999999987
 20
-53.4886279999999985
 30
0
 11
43.0207139999999981
 21
-53.4886279999999985
 31
0
  0
LINE
  5
8D
330
1B
100
AcDbEntity
  8
F.Silkscreen
  6
CONTINUOUS
100
AcDbLine
 10
44.5445229999999981
 20
-53.9648189999999985
 30
0
 11
43.9730950000000007
 21
-53.9648189999999985
 31
0
  0
LINE
  5
8E
330
1B
100
AcDbEntity
  8
F.Silkscreen
  6
CONTINUOUS
100
AcDbLine
 10
44.2588089999999994
 20
-53.9648189999999985
 30
0
 11
44.2588089999999994
 21
-52.9648189999999985
 31
0
  0
LINE
  5
8F
330
1B
100
AcDbEntity
  8
F.Silkscreen
  6
CONTINUOUS
100
AcDbLine
 10
44.2588089999999994
 20
-52.9648189999999985
 30
0
 11
44.1635709999999975
 21
-53.1076759999999979
 31
0
  0
LINE
  5
90
330
1B
100
AcDbEntity
  8
F.Silkscreen
  6
CONTINUOUS
100
AcDbLine
 10
44.1635709999999975
 20
-53.1076759999999979
 30
0
 11
44.0683329999999955
 21
-53.2029139999999998
 31
0
  0
LINE
  5
91
330
1B
100
AcDbEntity
  8
F.Silkscreen
  6
CONTINUOUS
100
AcDbLine
 10
44.0683329999999955
 20
-53.2029139999999998
 30
0
 11
43.9730950000000007
 21
-53.2505329999999972
 31
0
  0
LINE
  5
92
330
1B
100
AcDbEntity
  8
F.Silkscreen
  6
CONTINUOUS
100
AcDbLine
 10
45.1635709999999975
 20
-52.9648189999999985
 30
0
 11
45.2588089999999994
 21
-52.9648189999999985
 31
0
  0
LINE
  5
93
330
1B
100
AcDbEntity
  8
F.Silkscreen
  6
CONTINUOUS
100
AcDbLine
 10
45.2588089999999994
 20
-52.9648189999999985
 30
0
 11
45.3540470000000013
 21
-53.012437999999996
 31
0
  0
LINE
  5
94
330
1B
100
AcDbEntity
  8
F.Silkscreen
  6
CONTINUOUS
100
AcDbLine
 10
45.3540470000000013
 20
-53.012437999999996
 30
0
 11
45.4016659999999987
 21
-53.0600570000000005
 31
0
  0
LINE
  5
95
330
1B
100
AcDbEntity
  8
F.Silkscreen
  6
CONTINUOUS
100
AcDbLine
 10
45.4016659999999987
 20
-53.0600570000000005
 30
0
 11
45.4492849999999962
 21
-53.1552949999999953
 31
0
  0
LINE
  5
96
330
1B
100
AcDbEntity
  8
F.Silkscreen
  6
CONTINUOUS
100
AcDbLine
 10
45.4492849999999962
 20
-53.1552949999999953
 30
0
 11
45.4969040000000007
 21
-53.3457709999999992
 31
0
  0
LINE
  5
97
330
1B
100
AcDbEntity
  8
F.Silkscreen
  6
CONTINUOUS
100
AcDbLine
 10
45.4969040000000007
 20
-53.3457709999999992
 30
0
 11
45.4969040000000007
 21
-53.5838660000000004
 31
0
  0
LINE
  5
98
330
1B
100
AcDbEntity
  8
F.Silkscreen
  6
CONTINUOUS
100
AcDbLine
 10
45.4969040000000007
 20
-53.5838660000000004
 30
0
 11
45.4492849999999962
 21
-53.7743419999999972
 31
0
  0
LINE
  5
99
330
1B
100
AcDbEntity
  8
F.Silkscreen
  6
CONTINUOUS
100
AcDbLine
 10
45.4492849999999962
 20
-53.7743419999999972
 30
0
 11
45.4016659999999987
 21
-53.8695799999999991
 31
0
  0
LINE
  5
9A
330
1B
100
AcDbEntity
  8
F.Silkscreen
  6
CONTINUOUS
100
AcDbLine
 10
45.4016659999999987
 20
-53.8695799999999991
 30
0
 11
45.3540470000000013
 21
-53.917199999999994
 31
0
  0
LINE
  5
9B
330
1B
100
AcDbEntity
  8
F.Silkscreen
  6
CONTINUOUS
100
AcDbLine
 10
45.3540470000000013
 20
-53.917199999999994
 30
0
 11
45.2588089999999994
 21
-53.9648189999999985
 31
0
  0
LINE
  5
9C
330
1B
100
AcDbEntity
  8
F.Silkscreen
  6
CONTINUOUS
100
AcDbLine
 10
45.2588089999999994
 20
-53.9648189999999985
 30
0
 11
45.1635709999999975
 21
-53.9648189999999985
 31
0
  0
LINE
  5
9D
330
1B
100
AcDbEntity
  8
F.Silkscreen
  6
CONTINUOUS
100
AcDbLine
 10
45.1635709999999975
 20
-53.9648189999999985
 30
0
 11
45.0683329999999955
 21
-53.917199999999994
 31
0
  0
LINE
  5
9E
330
1B
100
AcDbEntity
  8
F.Silkscreen
  6
CONTINUOUS
100
AcDbLine
 10
45.0683329999999955
 20
-53.917199999999994
 30
0
 11
45.0207139999999981
 21
-53.8695799999999991
 31
0
  0
LINE
  5
9F
330
1B
100
AcDbEntity
  8
F.Silkscreen
  6
CONTINUOUS
100
AcDbLine
 10
45.0207139999999981
 20
-53.8695799999999991
 30
0
 11
44.9730950000000007
 21
-53.7743419999999972
 31
0
  0
LINE
  5
A0
330
1B
100
AcDbEntity
  8
F.Silkscreen
  6
CONTINUOUS
100
AcDbLine
 10
44.9730950000000007
 20
-53.7743419999999972
 30
0
 11
44.9254759999999962
 21
-53.5838660000000004
 31
0
  0
LINE
  5
A1
330
1B
100
AcDbEntity
  8
F.Silkscreen
  6
CONTINUOUS
100
AcDbLine
 10
44.9254759999999962
 20
-53.5838660000000004
 30
0
 11
44.9254759999999962
 21
-53.3457709999999992
 31
0
  0
LINE
  5
A2
330
1B
100
AcDbEntity
  8
F.Silkscreen
  6
CONTINUOUS
100
AcDbLine
 10
44.9254759999999962
 20
-53.3457709999999992
 30
0
 11
44.9730950000000007
 21
-53.1552949999999953
 31
0
  0
LINE
  5
A3
330
1B
100
AcDbEntity
  8
F.Silkscreen
  6
CONTINUOUS
100
AcDbLine
 10
44.9730950000000007
 20
-53.1552949999999953
 30
0
 11
45.0207139999999981
 21
-53.0600570000000005
 31
0
  0
LINE
  5
A4
330
1B
100
AcDbEntity
  8
F.Silkscreen
  6
CONTINUOUS
100
AcDbLine
 10
45.0207139999999981
 20
-53.0600570000000005
 30
0
 11
45.0683329999999955
 21
-53.012437999999996
 31
0
  0
LINE
  5
A5
330
1B
100
AcDbEntity
  8
F.Silkscreen
  6
CONTINUOUS
100
AcDbLine
 10
45.0683329999999955
 20
-53.012437999999996
 30
0
 11
45.1635709999999975
 21
-52.9648189999999985
 31
0
  0
LINE
  5
A6
330
1B
100
AcDbEntity
  8
F.Silkscreen
  6
CONTINUOUS
100
AcDbLine
 10
39.0983329999999967
 20
-24.0295799999999993
 30
0
 11
39.0507139999999993
 21
-24.0771999999999977
 31
0
  0
LINE
  5
A7
330
1B
100
AcDbEntity
  8
F.Silkscreen
  6
CONTINUOUS
100
AcDbLine
 10
39.0507139999999993
 20
-24.0771999999999977
 30
0
 11
38.9078569999999999
 21
-24.1248189999999987
 31
0
  0
LINE
  5
A8
330
1B
100
AcDbEntity
  8
F.Silkscreen
  6
CONTINUOUS
100
AcDbLine
 10
38.9078569999999999
 20
-24.1248189999999987
 30
0
 11
38.812618999999998
 21
-24.1248189999999987
 31
0
  0
LINE
  5
A9
330
1B
100
AcDbEntity
  8
F.Silkscreen
  6
CONTINUOUS
100
AcDbLine
 10
38.812618999999998
 20
-24.1248189999999987
 30
0
 11
38.6697619999999986
 21
-24.0771999999999977
 31
0
  0
LINE
  5
AA
330
1B
100
AcDbEntity
  8
F.Silkscreen
  6
CONTINUOUS
100
AcDbLine
 10
38.6697619999999986
 20
-24.0771999999999977
 30
0
 11
38.5745239999999967
 21
-23.9819609999999983
 31
0
  0
LINE
  5
AB
330
1B
100
AcDbEntity
  8
F.Silkscreen
  6
CONTINUOUS
100
AcDbLine
 10
38.5745239999999967
 20
-23.9819609999999983
 30
0
 11
38.5269049999999993
 21
-23.8867229999999999
 31
0
  0
LINE
  5
AC
330
1B
100
AcDbEntity
  8
F.Silkscreen
  6
CONTINUOUS
100
AcDbLine
 10
38.5269049999999993
 20
-23.8867229999999999
 30
0
 11
38.4792859999999948
 21
-23.6962469999999996
 31
0
  0
LINE
  5
AD
330
1B
100
AcDbEntity
  8
F.Silkscreen
  6
CONTINUOUS
100
AcDbLine
 10
38.4792859999999948
 20
-23.6962469999999996
 30
0
 11
38.4792859999999948
 21
-23.5533900000000003
 31
0
  0
LINE
  5
AE
330
1B
100
AcDbEntity
  8
F.Silkscreen
  6
CONTINUOUS
100
AcDbLine
 10
38.4792859999999948
 20
-23.5533900000000003
 30
0
 11
38.5269049999999993
 21
-23.362914
 31
0
  0
LINE
  5
AF
330
1B
100
AcDbEntity
  8
F.Silkscreen
  6
CONTINUOUS
100
AcDbLine
 10
38.5269049999999993
 20
-23.362914
 30
0
 11
38.5745239999999967
 21
-23.267675999999998
 31
0
  0
LINE
  5
B0
330
1B
100
AcDbEntity
  8
F.Silkscreen
  6
CONTINUOUS
100
AcDbLine
 10
38.5745239999999967
 20
-23.267675999999998
 30
0
 11
38.6697619999999986
 21
-23.1724379999999996
 31
0
  0
LINE
  5
B1
330
1B
100
AcDbEntity
  8
F.Silkscreen
  6
CONTINUOUS
100
AcDbLine
 10
38.6697619999999986
 20
-23.1724379999999996
 30
0
 11
38.812618999999998
 21
-23.1248189999999987
 31
0
  0
LINE
  5
B2
330
1B
100
AcDbEntity
  8
F.Silkscreen
  6
CONTINUOUS
100
AcDbLine
 10
38.812618999999998
 20
-23.1248189999999987
 30
0
 11
38.9078569999999999
 21
-23.1248189999999987
 31
0
  0
LINE
  5
B3
330
1B
100
AcDbEntity
  8
F.Silkscreen
  6
CONTINUOUS
100
AcDbLine
 10
38.9078569999999999
 20
-23.1248189999999987
 30
0
 11
39.0507139999999993
 21
-23.1724379999999996
 31
0
  0
LINE
  5
B4
330
1B
100
AcDbEntity
  8
F.Silkscreen
  6
CONTINUOUS
100
AcDbLine
 10
39.0507139999999993
 20
-23.1724379999999996
 30
0
 11
39.0983329999999967
 21
-23.2200570000000006
 31
0
  0
LINE
  5
B5
330
1B
100
AcDbEntity
  8
F.Silkscreen
  6
CONTINUOUS
100
AcDbLine
 10
39.5745239999999967
 20
-24.1248189999999987
 30
0
 11
39.7650000000000006
 21
-24.1248189999999987
 31
0
  0
LINE
  5
B6
330
1B
100
AcDbEntity
  8
F.Silkscreen
  6
CONTINUOUS
100
AcDbLine
 10
39.7650000000000006
 20
-24.1248189999999987
 30
0
 11
39.8602379999999954
 21
-24.0771999999999977
 31
0
  0
LINE
  5
B7
330
1B
100
AcDbEntity
  8
F.Silkscreen
  6
CONTINUOUS
100
AcDbLine
 10
39.8602379999999954
 20
-24.0771999999999977
 30
0
 11
39.9078569999999999
 21
-24.0295799999999993
 31
0
  0
LINE
  5
B8
330
1B
100
AcDbEntity
  8
F.Silkscreen
  6
CONTINUOUS
100
AcDbLine
 10
39.9078569999999999
 20
-24.0295799999999993
 30
0
 11
40.0030949999999947
 21
-23.8867229999999999
 31
0
  0
LINE
  5
B9
330
1B
100
AcDbEntity
  8
F.Silkscreen
  6
CONTINUOUS
100
AcDbLine
 10
40.0030949999999947
 20
-23.8867229999999999
 30
0
 11
40.0507139999999993
 21
-23.6962469999999996
 31
0
  0
LINE
  5
BA
330
1B
100
AcDbEntity
  8
F.Silkscreen
  6
CONTINUOUS
100
AcDbLine
 10
40.0507139999999993
 20
-23.6962469999999996
 30
0
 11
40.0507139999999993
 21
-23.315294999999999
 31
0
  0
LINE
  5
BB
330
1B
100
AcDbEntity
  8
F.Silkscreen
  6
CONTINUOUS
100
AcDbLine
 10
40.0507139999999993
 20
-23.315294999999999
 30
0
 11
40.0030949999999947
 21
-23.2200570000000006
 31
0
  0
LINE
  5
BC
330
1B
100
AcDbEntity
  8
F.Silkscreen
  6
CONTINUOUS
100
AcDbLine
 10
40.0030949999999947
 20
-23.2200570000000006
 30
0
 11
39.9554759999999973
 21
-23.1724379999999996
 31
0
  0
LINE
  5
BD
330
1B
100
AcDbEntity
  8
F.Silkscreen
  6
CONTINUOUS
100
AcDbLine
 10
39.9554759999999973
 20
-23.1724379999999996
 30
0
 11
39.8602379999999954
 21
-23.1248189999999987
 31
0
  0
LINE
  5
BE
330
1B
100
AcDbEntity
  8
F.Silkscreen
  6
CONTINUOUS
100
AcDbLine
 10
39.8602379999999954
 20
-23.1248189999999987
 30
0
 11
39.6697619999999986
 21
-23.1248189999999987
 31
0
  0
LINE
  5
BF
330
1B
100
AcDbEntity
  8
F.Silkscreen
  6
CONTINUOUS
100
AcDbLine
 10
39.6697619999999986
 20
-23.1248189999999987
 30
0
 11
39.5745239999999967
 21
-23.1724379999999996
 31
0
  0
LINE
  5
C0
330
1B
100
AcDbEntity
  8
F.Silkscreen
  6
CONTINUOUS
100
AcDbLine
 10
39.5745239999999967
 20
-23.1724379999999996
 30
0
 11
39.5269049999999993
 21
-23.2200570000000006
 31
0
  0
LINE
  5
C1
330
1B
100
AcDbEntity
  8
F.Silkscreen
  6
CONTINUOUS
100
AcDbLine
 10
39.5269049999999993
 20
-23.2200570000000006
 30
0
 11
39.4792859999999948
 21
-23.315294999999999
 31
0
  0
LINE
  5
C2
330
1B
100
AcDbEntity
  8
F.Silkscreen
  6
CONTINUOUS
100
AcDbLine
 10
39.4792859999999948
 20
-23.315294999999999
 30
0
 11
39.4792859999999948
 21
-23.5533900000000003
 31
0
  0
LINE
  5
C3
330
1B
100
AcDbEntity
  8
F.Silkscreen
  6
CONTINUOUS
100
AcDbLine
 10
39.4792859999999948
 20
-23.5533900000000003
 30
0
 11
39.5269049999999993
 21
-23.6486279999999987
 31
0
  0
LINE
  5
C4
330
1B
100
AcDbEntity
  8
F.Silkscreen
  6
CONTINUOUS
100
AcDbLine
 10
39.5269049999999993
 20
-23.6486279999999987
 30
0
 11
39.5745239999999967
 21
-23.6962469999999996
 31
0
  0
LINE
  5
C5
330
1B
100
AcDbEntity
  8
F.Silkscreen
  6
CONTINUOUS
100
AcDbLine
 10
39.5745239999999967
 20
-23.6962469999999996
 30
0
 11
39.6697619999999986
 21
-23.7438660000000006
 31
0
  0
LINE
  5
C6
330
1B
100
AcDbEntity
  8
F.Silkscreen
  6
CONTINUOUS
100
AcDbLine
 10
39.6697619999999986
 20
-23.7438660000000006
 30
0
 11
39.8602379999999954
 21
-23.7438660000000006
 31
0
  0
LINE
  5
C7
330
1B
100
AcDbEntity
  8
F.Silkscreen
  6
CONTINUOUS
100
AcDbLine
 10
39.8602379999999954
 20
-23.7438660000000006
 30
0
 11
39.9554759999999973
 21
-23.6962469999999996
 31
0
  0
LINE
  5
C8
330
1B
100
AcDbEntity
  8
F.Silkscreen
  6
CONTINUOUS
100
AcDbLine
 10
39.9554759999999973
 20
-23.6962469999999996
 30
0
 11
40.0030949999999947
 21
-23.6486279999999987
 31
0
  0
LINE
  5
C9
330
1B
100
AcDbEntity
  8
F.Silkscreen
  6
CONTINUOUS
100
AcDbLine
 10
40.0030949999999947
 20
-23.6486279999999987
 30
0
 11
40.0507139999999993
 21
-23.5533900000000003
 31
0
  0
LINE
  5
CA
330
1B
100
AcDbEntity
  8
F.Silkscreen
  6
CONTINUOUS
100
AcDbLine
 10
37.8021419999999964
 20
-46.1195799999999991
 30
0
 11
37.7545229999999989
 21
-46.1672000000000011
 31
0
  0
LINE
  5
CB
330
1B
100
AcDbEntity
  8
F.Silkscreen
  6
CONTINUOUS
100
AcDbLine
 10
37.7545229999999989
 20
-46.1672000000000011
 30
0
 11
37.6116659999999996
 21
-46.2148189999999985
 31
0
  0
LINE
  5
CC
330
1B
100
AcDbEntity
  8
F.Silkscreen
  6
CONTINUOUS
100
AcDbLine
 10
37.6116659999999996
 20
-46.2148189999999985
 30
0
 11
37.5164279999999977
 21
-46.2148189999999985
 31
0
  0
LINE
  5
CD
330
1B
100
AcDbEntity
  8
F.Silkscreen
  6
CONTINUOUS
100
AcDbLine
 10
37.5164279999999977
 20
-46.2148189999999985
 30
0
 11
37.3735709999999983
 21
-46.1672000000000011
 31
0
  0
LINE
  5
CE
330
1B
100
AcDbEntity
  8
F.Silkscreen
  6
CONTINUOUS
100
AcDbLine
 10
37.3735709999999983
 20
-46.1672000000000011
 30
0
 11
37.2783329999999964
 21
-46.0719609999999946
 31
0
  0
LINE
  5
CF
330
1B
100
AcDbEntity
  8
F.Silkscreen
  6
CONTINUOUS
100
AcDbLine
 10
37.2783329999999964
 20
-46.0719609999999946
 30
0
 11
37.230713999999999
 21
-45.9767229999999998
 31
0
  0
LINE
  5
D0
330
1B
100
AcDbEntity
  8
F.Silkscreen
  6
CONTINUOUS
100
AcDbLine
 10
37.230713999999999
 20
-45.9767229999999998
 30
0
 11
37.1830950000000016
 21
-45.7862469999999959
 31
0
  0
LINE
  5
D1
330
1B
100
AcDbEntity
  8
F.Silkscreen
  6
CONTINUOUS
100
AcDbLine
 10
37.1830950000000016
 20
-45.7862469999999959
 30
0
 11
37.1830950000000016
 21
-45.6433899999999966
 31
0
  0
LINE
  5
D2
330
1B
100
AcDbEntity
  8
F.Silkscreen
  6
CONTINUOUS
100
AcDbLine
 10
37.1830950000000016
 20
-45.6433899999999966
 30
0
 11
37.230713999999999
 21
-45.4529139999999998
 31
0
  0
LINE
  5
D3
330
1B
100
AcDbEntity
  8
F.Silkscreen
  6
CONTINUOUS
100
AcDbLine
 10
37.230713999999999
 20
-45.4529139999999998
 30
0
 11
37.2783329999999964
 21
-45.3576759999999979
 31
0
  0
LINE
  5
D4
330
1B
100
AcDbEntity
  8
F.Silkscreen
  6
CONTINUOUS
100
AcDbLine
 10
37.2783329999999964
 20
-45.3576759999999979
 30
0
 11
37.3735709999999983
 21
-45.262437999999996
 31
0
  0
LINE
  5
D5
330
1B
100
AcDbEntity
  8
F.Silkscreen
  6
CONTINUOUS
100
AcDbLine
 10
37.3735709999999983
 20
-45.262437999999996
 30
0
 11
37.5164279999999977
 21
-45.2148189999999985
 31
0
  0
LINE
  5
D6
330
1B
100
AcDbEntity
  8
F.Silkscreen
  6
CONTINUOUS
100
AcDbLine
 10
37.5164279999999977
 20
-45.2148189999999985
 30
0
 11
37.6116659999999996
 21
-45.2148189999999985
 31
0
  0
LINE
  5
D7
330
1B
100
AcDbEntity
  8
F.Silkscreen
  6
CONTINUOUS
100
AcDbLine
 10
37.6116659999999996
 20
-45.2148189999999985
 30
0
 11
37.7545229999999989
 21
-45.262437999999996
 31
0
  0
LINE
  5
D8
330
1B
100
AcDbEntity
  8
F.Silkscreen
  6
CONTINUOUS
100
AcDbLine
 10
37.7545229999999989
 20
-45.262437999999996
 30
0
 11
37.8021419999999964
 21
-45.3100570000000005
 31
0
  0
LINE
  5
D9
330
1B
100
AcDbEntity
  8
F.Silkscreen
  6
CONTINUOUS
100
AcDbLine
 10
38.7545229999999989
 20
-46.2148189999999985
 30
0
 11
38.1830950000000016
 21
-46.2148189999999985
 31
0
  0
LINE
  5
DA
330
1B
100
AcDbEntity
  8
F.Silkscreen
  6
CONTINUOUS
100
AcDbLine
 10
38.4688090000000003
 20
-46.2148189999999985
 30
0
 11
38.4688090000000003
 21
-45.2148189999999985
 31
0
  0
LINE
  5
DB
330
1B
100
AcDbEntity
  8
F.Silkscreen
  6
CONTINUOUS
100
AcDbLine
 10
38.4688090000000003
 20
-45.2148189999999985
 30
0
 11
38.3735709999999983
 21
-45.3576759999999979
 31
0
  0
LINE
  5
DC
330
1B
100
AcDbEntity
  8
F.Silkscreen
  6
CONTINUOUS
100
AcDbLine
 10
38.3735709999999983
 20
-45.3576759999999979
 30
0
 11
38.2783329999999964
 21
-45.4529139999999998
 31
0
  0
LINE
  5
DD
330
1B
100
AcDbEntity
  8
F.Silkscreen
  6
CONTINUOUS
100
AcDbLine
 10
38.2783329999999964
 20
-45.4529139999999998
 30
0
 11
38.1830950000000016
 21
-45.5005329999999972
 31
0
  0
LINE
  5
DE
330
1B
100
AcDbEntity
  8
F.Silkscreen
  6
CONTINUOUS
100
AcDbLine
 10
39.0878569999999996
 20
-45.2148189999999985
 30
0
 11
39.7545229999999989
 21
-45.2148189999999985
 31
0
  0
LINE
  5
DF
330
1B
100
AcDbEntity
  8
F.Silkscreen
  6
CONTINUOUS
100
AcDbLine
 10
39.7545229999999989
 20
-45.2148189999999985
 30
0
 11
39.3259520000000009
 21
-46.2148189999999985
 31
0
  0
LINE
  5
E0
330
1B
100
AcDbEntity
  8
F.Silkscreen
  6
CONTINUOUS
100
AcDbLine
 10
26.7621419999999972
 20
-46.3448190000000011
 30
0
 11
26.4288089999999976
 21
-45.8686280000000011
 31
0
  0
LINE
  5
E1
330
1B
100
AcDbEntity
  8
F.Silkscreen
  6
CONTINUOUS
100
AcDbLine
 10
26.1907139999999998
 20
-46.3448190000000011
 30
0
 11
26.1907139999999998
 21
-45.3448190000000011
 31
0
  0
LINE
  5
E2
330
1B
100
AcDbEntity
  8
F.Silkscreen
  6
CONTINUOUS
100
AcDbLine
 10
26.1907139999999998
 20
-45.3448190000000011
 30
0
 11
26.5716660000000005
 21
-45.3448190000000011
 31
0
  0
LINE
  5
E3
330
1B
100
AcDbEntity
  8
F.Silkscreen
  6
CONTINUOUS
100
AcDbLine
 10
26.5716660000000005
 20
-45.3448190000000011
 30
0
 11
26.6669039999999988
 21
-45.3924379999999985
 31
0
  0
LINE
  5
E4
330
1B
100
AcDbEntity
  8
F.Silkscreen
  6
CONTINUOUS
100
AcDbLine
 10
26.6669039999999988
 20
-45.3924379999999985
 30
0
 11
26.7145229999999998
 21
-45.4400569999999959
 31
0
  0
LINE
  5
E5
330
1B
100
AcDbEntity
  8
F.Silkscreen
  6
CONTINUOUS
100
AcDbLine
 10
26.7145229999999998
 20
-45.4400569999999959
 30
0
 11
26.7621419999999972
 21
-45.5352949999999979
 31
0
  0
LINE
  5
E6
330
1B
100
AcDbEntity
  8
F.Silkscreen
  6
CONTINUOUS
100
AcDbLine
 10
26.7621419999999972
 20
-45.5352949999999979
 30
0
 11
26.7621419999999972
 21
-45.6781519999999972
 31
0
  0
LINE
  5
E7
330
1B
100
AcDbEntity
  8
F.Silkscreen
  6
CONTINUOUS
100
AcDbLine
 10
26.7621419999999972
 20
-45.6781519999999972
 30
0
 11
26.7145229999999998
 21
-45.7733899999999991
 31
0
  0
LINE
  5
E8
330
1B
100
AcDbEntity
  8
F.Silkscreen
  6
CONTINUOUS
100
AcDbLine
 10
26.7145229999999998
 20
-45.7733899999999991
 30
0
 11
26.6669039999999988
 21
-45.8210089999999965
 31
0
  0
LINE
  5
E9
330
1B
100
AcDbEntity
  8
F.Silkscreen
  6
CONTINUOUS
100
AcDbLine
 10
26.6669039999999988
 20
-45.8210089999999965
 30
0
 11
26.5716660000000005
 21
-45.8686280000000011
 31
0
  0
LINE
  5
EA
330
1B
100
AcDbEntity
  8
F.Silkscreen
  6
CONTINUOUS
100
AcDbLine
 10
26.5716660000000005
 20
-45.8686280000000011
 30
0
 11
26.1907139999999998
 21
-45.8686280000000011
 31
0
  0
LINE
  5
EB
330
1B
100
AcDbEntity
  8
F.Silkscreen
  6
CONTINUOUS
100
AcDbLine
 10
27.7145229999999998
 20
-46.3448190000000011
 30
0
 11
27.1430949999999989
 21
-46.3448190000000011
 31
0
  0
LINE
  5
EC
330
1B
100
AcDbEntity
  8
F.Silkscreen
  6
CONTINUOUS
100
AcDbLine
 10
27.4288089999999976
 20
-46.3448190000000011
 30
0
 11
27.4288089999999976
 21
-45.3448190000000011
 31
0
  0
LINE
  5
ED
330
1B
100
AcDbEntity
  8
F.Silkscreen
  6
CONTINUOUS
100
AcDbLine
 10
27.4288089999999976
 20
-45.3448190000000011
 30
0
 11
27.3335709999999992
 21
-45.4876760000000004
 31
0
  0
LINE
  5
EE
330
1B
100
AcDbEntity
  8
F.Silkscreen
  6
CONTINUOUS
100
AcDbLine
 10
27.3335709999999992
 20
-45.4876760000000004
 30
0
 11
27.2383329999999972
 21
-45.5829139999999953
 31
0
  0
LINE
  5
EF
330
1B
100
AcDbEntity
  8
F.Silkscreen
  6
CONTINUOUS
100
AcDbLine
 10
27.2383329999999972
 20
-45.5829139999999953
 30
0
 11
27.1430949999999989
 21
-45.6305329999999998
 31
0
  0
LINE
  5
F0
330
1B
100
AcDbEntity
  8
F.Silkscreen
  6
CONTINUOUS
100
AcDbLine
 10
28.6669039999999988
 20
-46.3448190000000011
 30
0
 11
28.0954759999999979
 21
-46.3448190000000011
 31
0
  0
LINE
  5
F1
330
1B
100
AcDbEntity
  8
F.Silkscreen
  6
CONTINUOUS
100
AcDbLine
 10
28.3811900000000001
 20
-46.3448190000000011
 30
0
 11
28.3811900000000001
 21
-45.3448190000000011
 31
0
  0
LINE
  5
F2
330
1B
100
AcDbEntity
  8
F.Silkscreen
  6
CONTINUOUS
100
AcDbLine
 10
28.3811900000000001
 20
-45.3448190000000011
 30
0
 11
28.2859519999999982
 21
-45.4876760000000004
 31
0
  0
LINE
  5
F3
330
1B
100
AcDbEntity
  8
F.Silkscreen
  6
CONTINUOUS
100
AcDbLine
 10
28.2859519999999982
 20
-45.4876760000000004
 30
0
 11
28.1907139999999998
 21
-45.5829139999999953
 31
0
  0
LINE
  5
F4
330
1B
100
AcDbEntity
  8
F.Silkscreen
  6
CONTINUOUS
100
AcDbLine
 10
28.1907139999999998
 20
-45.5829139999999953
 30
0
 11
28.0954759999999979
 21
-45.6305329999999998
 31
0
  0
LINE
  5
F5
330
1B
100
AcDbEntity
  8
F.Silkscreen
  6
CONTINUOUS
100
AcDbLine
 10
47.4499999999999957
 20
-45.8249999999999957
 30
0
 11
53.6999999999999957
 21
-45.8249999999999957
 31
0
  0
LINE
  5
F6
330
1B
100
AcDbEntity
  8
F.Silkscreen
  6
CONTINUOUS
100
AcDbLine
 10
53.6999999999999957
 20
-50.6950000000000003
 30
0
 11
47.4499999999999957
 21
-50.6950000000000003
 31
0
  0
ARC
  5
F7
330
1B
100
AcDbEntity
  8
F.Silkscreen
100
AcDbCircle
 10
47.4499999999999957
 20
-48.259999999999998
 30
0
 40
2.4350000000000001
100
AcDbArc
 50
-270.00000000
 51
-90.00000000
  0
ARC
  5
F8
330
1B
100
AcDbEntity
  8
F.Silkscreen
100
AcDbCircle
 10
53.6999999999999957
 20
-48.259999999999998
 30
0
 40
2.4350000000000001
100
AcDbArc
 50
-90.00000000
 51
90.00000000
  0
LINE
  5
F9
330
1B
100
AcDbEntity
  8
F.Silkscreen
  6
CONTINUOUS
100
AcDbLine
 10
37.9349999999999952
 20
-33.3099999999999952
 30
0
 11
37.9349999999999952
 21
-34.5599999999999952
 31
0
  0
LINE
  5
FA
330
1B
100
AcDbEntity
  8
F.Silkscreen
  6
CONTINUOUS
100
AcDbLine
 10
37.9349999999999952
 20
-36.5599999999999952
 30
0
 11
37.9349999999999952
 21
-37.8099999999999952
 31
0
  0
LINE
  5
FB
330
1B
100
AcDbEntity
  8
F.Silkscreen
  6
CONTINUOUS
100
AcDbLine
 10
37.9349999999999952
 20
-37.8099999999999952
 30
0
 11
55.8350000000000009
 21
-37.8099999999999952
 31
0
  0
LINE
  5
FC
330
1B
100
AcDbEntity
  8
F.Silkscreen
  6
CONTINUOUS
100
AcDbLine
 10
55.8350000000000009
 20
-33.3099999999999952
 30
0
 11
37.9349999999999952
 21
-33.3099999999999952
 31
0
  0
LINE
  5
FD
330
1B
100
AcDbEntity
  8
F.Silkscreen
  6
CONTINUOUS
100
AcDbLine
 10
55.8350000000000009
 20
-37.8099999999999952
 30
0
 11
55.8350000000000009
 21
-33.3099999999999952
 31
0
  0
ARC
  5
FE
330
1B
100
AcDbEntity
  8
F.Silkscreen
100
AcDbCircle
 10
37.9349999999999952
 20
-35.5599999999999952
 30
0
 40
1.
100
AcDbArc
 50
-90.00000000
 51
90.00000000
  0
LINE
  5
FF
330
1B
100
AcDbEntity
  8
F.Silkscreen
  6
CONTINUOUS
100
AcDbLine
 10
30.5749999999999993
 20
-54.509999999999998
 30
0
 11
35.8149999999999977
 21
-54.509999999999998
 31
0
  0
LINE
  5
100
330
1B
100
AcDbEntity
  8
F.Silkscreen
  6
CONTINUOUS
100
AcDbLine
 10
30.5749999999999993
 20
-54.8469999999999942
 30
0
 11
30.5749999999999993
 21
-54.509999999999998
 31
0
  0
LINE
  5
101
330
1B
100
AcDbEntity
  8
F.Silkscreen
  6
CONTINUOUS
100
AcDbLine
 10
30.5749999999999993
 20
-57.25
 30
0
 11
30.5749999999999993
 21
-56.9129999999999967
 31
0
  0
LINE
  5
102
330
1B
100
AcDbEntity
  8
F.Silkscreen
  6
CONTINUOUS
100
AcDbLine
 10
35.8149999999999977
 20
-54.509999999999998
 30
0
 11
35.8149999999999977
 21
-54.8469999999999942
 31
0
  0
LINE
  5
103
330
1B
100
AcDbEntity
  8
F.Silkscreen
  6
CONTINUOUS
100
AcDbLine
 10
35.8149999999999977
 20
-56.9129999999999967
 30
0
 11
35.8149999999999977
 21
-57.25
 31
0
  0
LINE
  5
104
330
1B
100
AcDbEntity
  8
F.Silkscreen
  6
CONTINUOUS
100
AcDbLine
 10
35.8149999999999977
 20
-57.25
 30
0
 11
30.5749999999999993
 21
-57.25
 31
0
  0
LINE
  5
105
330
1B
100
AcDbEntity
  8
F.Silkscreen
  6
CONTINUOUS
100
AcDbLine
 10
25.5549999999999997
 20
-22.7349999999999994
 30
0
 11
25.5549999999999997
 21
-33.0150000000000006
 31
0
  0
LINE
  5
106
330
1B
100
AcDbEntity
  8
F.Silkscreen
  6
CONTINUOUS
100
AcDbLine
 10
25.5549999999999997
 20
-33.0150000000000006
 30
0
 11
30.0549999999999997
 21
-33.0150000000000006
 31
0
  0
LINE
  5
107
330
1B
100
AcDbEntity
  8
F.Silkscreen
  6
CONTINUOUS
100
AcDbLine
 10
26.8049999999999997
 20
-22.7349999999999994
 30
0
 11
25.5549999999999997
 21
-22.7349999999999994
 31
0
  0
LINE
  5
108
330
1B
100
AcDbEntity
  8
F.Silkscreen
  6
CONTINUOUS
100
AcDbLine
 10
30.0549999999999997
 20
-22.7349999999999994
 30
0
 11
28.8049999999999997
 21
-22.7349999999999994
 31
0
  0
LINE
  5
109
330
1B
100
AcDbEntity
  8
F.Silkscreen
  6
CONTINUOUS
100
AcDbLine
 10
30.0549999999999997
 20
-33.0150000000000006
 30
0
 11
30.0549999999999997
 21
-22.7349999999999994
 31
0
  0
ARC
  5
10A
330
1B
100
AcDbEntity
  8
F.Silkscreen
100
AcDbCircle
 10
27.8049999999999997
 20
-22.7349999999999994
 30
0
 40
1.
100
AcDbArc
 50
-180.00000000
 51
-0.00000000
  0
LINE
  5
10B
330
1B
100
AcDbEntity
  8
F.Silkscreen
  6
CONTINUOUS
100
AcDbLine
 10
40.9649999999999963
 20
-54.509999999999998
 30
0
 11
47.5049999999999955
 21
-54.509999999999998
 31
0
  0
LINE
  5
10C
330
1B
100
AcDbEntity
  8
F.Silkscreen
  6
CONTINUOUS
100
AcDbLine
 10
40.9649999999999963
 20
-54.8399999999999963
 30
0
 11
40.9649999999999963
 21
-54.509999999999998
 31
0
  0
LINE
  5
10D
330
1B
100
AcDbEntity
  8
F.Silkscreen
  6
CONTINUOUS
100
AcDbLine
 10
40.9649999999999963
 20
-56.9199999999999946
 30
0
 11
40.9649999999999963
 21
-57.25
 31
0
  0
LINE
  5
10E
330
1B
100
AcDbEntity
  8
F.Silkscreen
  6
CONTINUOUS
100
AcDbLine
 10
40.9649999999999963
 20
-57.25
 30
0
 11
47.5049999999999955
 21
-57.25
 31
0
  0
LINE
  5
10F
330
1B
100
AcDbEntity
  8
F.Silkscreen
  6
CONTINUOUS
100
AcDbLine
 10
47.5049999999999955
 20
-54.509999999999998
 30
0
 11
47.5049999999999955
 21
-54.8399999999999963
 31
0
  0
LINE
  5
110
330
1B
100
AcDbEntity
  8
F.Silkscreen
  6
CONTINUOUS
100
AcDbLine
 10
47.5049999999999955
 20
-57.25
 30
0
 11
47.5049999999999955
 21
-56.9199999999999946
 31
0
  0
LINE
  5
111
330
1B
100
AcDbEntity
  8
F.Silkscreen
  6
CONTINUOUS
100
AcDbLine
 10
36.644999999999996
 20
-24.7999999999999972
 30
0
 11
41.884999999999998
 21
-24.7999999999999972
 31
0
  0
LINE
  5
112
330
1B
100
AcDbEntity
  8
F.Silkscreen
  6
CONTINUOUS
100
AcDbLine
 10
36.644999999999996
 20
-25.1370000000000005
 30
0
 11
36.644999999999996
 21
-24.7999999999999972
 31
0
  0
LINE
  5
113
330
1B
100
AcDbEntity
  8
F.Silkscreen
  6
CONTINUOUS
100
AcDbLine
 10
36.644999999999996
 20
-27.5399999999999991
 30
0
 11
36.644999999999996
 21
-27.2029999999999994
 31
0
  0
LINE
  5
114
330
1B
100
AcDbEntity
  8
F.Silkscreen
  6
CONTINUOUS
100
AcDbLine
 10
41.884999999999998
 20
-24.7999999999999972
 30
0
 11
41.884999999999998
 21
-25.1370000000000005
 31
0
  0
LINE
  5
115
330
1B
100
AcDbEntity
  8
F.Silkscreen
  6
CONTINUOUS
100
AcDbLine
 10
41.884999999999998
 20
-27.2029999999999994
 30
0
 11
41.884999999999998
 21
-27.5399999999999991
 31
0
  0
LINE
  5
116
330
1B
100
AcDbEntity
  8
F.Silkscreen
  6
CONTINUOUS
100
AcDbLine
 10
41.884999999999998
 20
-27.5399999999999991
 30
0
 11
36.644999999999996
 21
-27.5399999999999991
 31
0
  0
LINE
  5
117
330
1B
100
AcDbEntity
  8
F.Silkscreen
  6
CONTINUOUS
100
AcDbLine
 10
35.8249999999999957
 20
-46.8900000000000006
 30
0
 11
41.0649999999999977
 21
-46.8900000000000006
 31
0
  0
LINE
  5
118
330
1B
100
AcDbEntity
  8
F.Silkscreen
  6
CONTINUOUS
100
AcDbLine
 10
35.8249999999999957
 20
-47.2269999999999968
 30
0
 11
35.8249999999999957
 21
-46.8900000000000006
 31
0
  0
LINE
  5
119
330
1B
100
AcDbEntity
  8
F.Silkscreen
  6
CONTINUOUS
100
AcDbLine
 10
35.8249999999999957
 20
-49.6299999999999955
 30
0
 11
35.8249999999999957
 21
-49.2929999999999993
 31
0
  0
LINE
  5
11A
330
1B
100
AcDbEntity
  8
F.Silkscreen
  6
CONTINUOUS
100
AcDbLine
 10
41.0649999999999977
 20
-46.8900000000000006
 30
0
 11
41.0649999999999977
 21
-47.2269999999999968
 31
0
  0
LINE
  5
11B
330
1B
100
AcDbEntity
  8
F.Silkscreen
  6
CONTINUOUS
100
AcDbLine
 10
41.0649999999999977
 20
-49.2929999999999993
 30
0
 11
41.0649999999999977
 21
-49.6299999999999955
 31
0
  0
LINE
  5
11C
330
1B
100
AcDbEntity
  8
F.Silkscreen
  6
CONTINUOUS
100
AcDbLine
 10
41.0649999999999977
 20
-49.6299999999999955
 30
0
 11
35.8249999999999957
 21
-49.6299999999999955
 31
0
  0
LINE
  5
11D
330
1B
100
AcDbEntity
  8
F.Silkscreen
  6
CONTINUOUS
100
AcDbLine
 10
24.134999999999998
 20
-46.8900000000000006
 30
0
 11
30.6749999999999972
 21
-46.8900000000000006
 31
0
  0
LINE
  5
11E
330
1B
100
AcDbEntity
  8
F.Silkscreen
  6
CONTINUOUS
100
AcDbLine
 10
24.134999999999998
 20
-47.2199999999999989
 30
0
 11
24.134999999999998
 21
-46.8900000000000006
 31
0
  0
LINE
  5
11F
330
1B
100
AcDbEntity
  8
F.Silkscreen
  6
CONTINUOUS
100
AcDbLine
 10
24.134999999999998
 20
-49.2999999999999972
 30
0
 11
24.134999999999998
 21
-49.6299999999999955
 31
0
  0
LINE
  5
120
330
1B
100
AcDbEntity
  8
F.Silkscreen
  6
CONTINUOUS
100
AcDbLine
 10
24.134999999999998
 20
-49.6299999999999955
 30
0
 11
30.6749999999999972
 21
-49.6299999999999955
 31
0
  0
LINE
  5
121
330
1B
100
AcDbEntity
  8
F.Silkscreen
  6
CONTINUOUS
100
AcDbLine
 10
30.6749999999999972
 20
-46.8900000000000006
 30
0
 11
30.6749999999999972
 21
-47.2199999999999989
 31
0
  0
LINE
  5
122
330
1B
100
AcDbEntity
  8
F.Silkscreen
  6
CONTINUOUS
100
AcDbLine
 10
30.6749999999999972
 20
-49.6299999999999955
 30
0
 11
30.6749999999999972
 21
-49.2999999999999972
 31
0
  0
LINE
  5
123
330
1B
100
AcDbEntity
  8
Edge.Cuts
  6
CONTINUOUS
100
AcDbLine
 10
20.
 20
-20.
 30
0
 11
61.8999999999999986
 21
-20.
 31
0
  0
LINE
  5
124
330
1B
100
AcDbEntity
  8
Edge.Cuts
  6
CONTINUOUS
100
AcDbLine
 10
61.8999999999999986
 20
-20.
 30
0
 11
61.8999999999999986
 21
-64.
 31
0
  0
LINE
  5
125
330
1B
100
AcDbEntity
  8
Edge.Cuts
  6
CONTINUOUS
100
AcDbLine
 10
61.8999999999999986
 20
-64.
 30
0
 11
20.
 21
-64.
 31
0
  0
LINE
  5
126
330
1B
100
AcDbEntity
  8
Edge.Cuts
  6
CONTINUOUS
100
AcDbLine
 10
20.
 20
-64.
 30
0
 11
20.
 21
-20.
 31
0
  0
ENDSEC
  0
SECTION
  2
OBJECTS
  0
DICTIONARY
  5
21
330
0
100
AcDbDictionary
281
1
  3
ACAD_GROUP
350
127
  3
ACAD_LAYOUT
350
22
  3
ACAD_PLOTSTYLENAME
350
11
  0
DICTIONARY
  5
127
330
21
100
AcDbDictionary
281
1
  0
ACDBDICTIONARYWDFLT
  5
11
330
21
100
AcDbDictionary
281
1
  3
Normal
350
10
100
AcDbDictionaryWithDefault
340
10
  0
ACDBPLACEHOLDER
  5
10
330
11
  0
DICTIONARY
  5
22
330
21
100
AcDbDictionary
281
1
  3
Model
350
1E
  3
Layout1
350
1F
  3
Layout2
350
20
  0
LAYOUT
  5
1E
330
22
100
AcDbPlotSettings
  1

  2
none_device
  4
A3
  6

 40
0.0
 41
0.0
 42
0.0
 43
0.0
 44
420.0
 45
297.0
 46
0.0
 47
0.0
 48
0.0
 49
0.0
140
0.0
141
0.0
142
1.0
143
1.0
 70
1024
 72
1
 73
0
 74
5
  7

 75
16
 76
0
 77
2
 78
300
147
1.0
148
0.0
149
0.0
100
AcDbLayout
  1
Model
 70
1
 71
0
 10
0.0
 20
0.0
 11
420.0
 21
297.0
 12
0.0
 22
0.0
 32
0.0
 14
1e+20
 24
1e+20
 34
1e+20
 15
-1e+20
 25
-1e+20
 35
-1e+20
146
0.0
 13
0.0
 23
0.0
 33
0.0
 16
1.0
 26
0.0
 36
0.0
 17
0.0
 27
1.0
 37
0.0
 76
0
330
1B
  0
LAYOUT
  5
1F
330
22
100
AcDbPlotSettings
  1

  2
none_device
  4
A3
  6

 40
0.0
 41
0.0
 42
0.0
 43
0.0
 44
420.0
 45
297.0
 46
0.0
 47
0.0
 48
0.0
 49
0.0
140
0.0
141
0.0
142
1.0
143
1.0
 70
0
 72
1
 73
0
 74
5
  7

 75
16
 76
0
 77
2
 78
300
147
1.0
148
0.0
149
0.0
100
AcDbLayout
  1
Layout1
 70
1
 71
1
 10
0.0
 20
0.0
 11
420.0
 21
297.0
 12
0.0
 22
0.0
 32
0.0
 14
1e+20
 24
1e+20
 34
1e+20
 15
-1e+20
 25
-1e+20
 35
-1e+20
146
0.0
 13
0.0
 23
0.0
 33
0.0
 16
1.0
 26
0.0
 36
0.0
 17
0.0
 27
1.0
 37
0.0
 76
0
330
1C
  0
LAYOUT
  5
20
330
22
100
AcDbPlotSettings
  1

  2
none_device
  4
A3
  6

 40
0.0
 41
0.0
 42
0.0
 43
0.0
 44
420.0
 45
297.0
 46
0.0
 47
0.0
 48
0.0
 49
0.0
140
0.0
141
0.0
142
1.0
143
1.0
 70
0
 72
1
 73
0
 74
5
  7

 75
16
 76
0
 77
2
 78
300
147
1.0
148
0.0
149
0.0
100
AcDbLayout
  1
Layout2
 70
1
 71
2
 10
0.0
 20
0.0
 11
420.0
 21
297.0
 12
0.0
 22
0.0
 32
0.0
 14
1e+20
 24
1e+20
 34
1e+20
 15
-1e+20
 25
-1e+20
 35
-1e+20
146
0.0
 13
0.0
 23
0.0
 33
0.0
 16
1.0
 26
0.0
 36
0.0
 17
0.0
 27
1.0
 37
0.0
 76
0
330
1D
  0
ENDSEC
  0
EOF
