%TF.GenerationSoftware,KiCad,Pcbnew,10.0.5-1-g226df246f3*%
%TF.CreationDate,2026-09-09T20:59:17+02:00*%
%TF.ProjectId,vinyl_adc_osc,76696e79-6c5f-4616-9463-5f6f73632e6b,rev?*%
%TF.SameCoordinates,Original*%
%TF.FileFunction,Copper,L2,Bot*%
%TF.FilePolarity,Positive*%
%FSLAX46Y46*%
G04 Gerber Fmt 4.6, Leading zero omitted, Abs format (unit mm)*
G04 Created by KiCad (PCBNEW 10.0.5-1-g226df246f3) date 2026-09-09 20:59:17*
%MOMM*%
%LPD*%
G01*
G04 APERTURE LIST*
G04 Aperture macros list*
%AMRoundRect*
0 Rectangle with rounded corners*
0 $1 Rounding radius*
0 $2 $3 $4 $5 $6 $7 $8 $9 X,Y pos of 4 corners*
0 Add a 4 corners polygon primitive as box body*
4,1,4,$2,$3,$4,$5,$6,$7,$8,$9,$2,$3,0*
0 Add four circle primitives for the rounded corners*
1,1,$1+$1,$2,$3*
1,1,$1+$1,$4,$5*
1,1,$1+$1,$6,$7*
1,1,$1+$1,$8,$9*
0 Add four rect primitives between the rounded corners*
20,1,$1+$1,$2,$3,$4,$5,0*
20,1,$1+$1,$4,$5,$6,$7,0*
20,1,$1+$1,$6,$7,$8,$9,0*
20,1,$1+$1,$8,$9,$2,$3,0*%
G04 Aperture macros list end*
%TA.AperFunction,ComponentPad*%
%ADD10C,1.500000*%
%TD*%
%TA.AperFunction,ComponentPad*%
%ADD11RoundRect,0.250000X0.550000X-0.950000X0.550000X0.950000X-0.550000X0.950000X-0.550000X-0.950000X0*%
%TD*%
%TA.AperFunction,ComponentPad*%
%ADD12O,1.600000X2.400000*%
%TD*%
%TA.AperFunction,ComponentPad*%
%ADD13C,1.600000*%
%TD*%
%TA.AperFunction,ComponentPad*%
%ADD14RoundRect,0.250000X-0.950000X-0.550000X0.950000X-0.550000X0.950000X0.550000X-0.950000X0.550000X0*%
%TD*%
%TA.AperFunction,ComponentPad*%
%ADD15O,2.400000X1.600000*%
%TD*%
%TA.AperFunction,Conductor*%
%ADD16C,1.000000*%
%TD*%
G04 APERTURE END LIST*
D10*
%TO.P,Y1,1*%
%TO.N,Net-(C16-Pad1)*%
X48135000Y-48260000D03*
%TO.P,Y1,2*%
%TO.N,Net-(C17-Pad1)*%
X53015000Y-48260000D03*
%TD*%
D11*
%TO.P,U9,1*%
%TO.N,Net-(C16-Pad1)*%
X39265000Y-39370000D03*
D12*
%TO.P,U9,2*%
%TO.N,Net-(R10-Pad2)*%
X41805000Y-39370000D03*
%TO.P,U9,3*%
X44345000Y-39370000D03*
%TO.P,U9,4*%
%TO.N,Net-(J1-Pin_5)*%
X46885000Y-39370000D03*
%TO.P,U9,5*%
%TO.N,GND*%
X49425000Y-39370000D03*
%TO.P,U9,6*%
%TO.N,N/C*%
X51965000Y-39370000D03*
%TO.P,U9,7*%
%TO.N,GND*%
X54505000Y-39370000D03*
%TO.P,U9,8*%
%TO.N,N/C*%
X54505000Y-31750000D03*
%TO.P,U9,9*%
%TO.N,GND*%
X51965000Y-31750000D03*
%TO.P,U9,10*%
%TO.N,N/C*%
X49425000Y-31750000D03*
%TO.P,U9,11*%
%TO.N,GND*%
X46885000Y-31750000D03*
%TO.P,U9,12*%
%TO.N,N/C*%
X44345000Y-31750000D03*
%TO.P,U9,13*%
%TO.N,GND*%
X41805000Y-31750000D03*
%TO.P,U9,14*%
%TO.N,+5V*%
X39265000Y-31750000D03*
%TD*%
D13*
%TO.P,C16,1*%
%TO.N,Net-(C16-Pad1)*%
X30695000Y-55880000D03*
%TO.P,C16,2*%
%TO.N,GND*%
X35695000Y-55880000D03*
%TD*%
D14*
%TO.P,J1,1*%
%TO.N,N/C*%
X23995000Y-24065000D03*
D15*
%TO.P,J1,2*%
X23995000Y-26605000D03*
%TO.P,J1,3*%
X23995000Y-29145000D03*
%TO.P,J1,4*%
%TO.N,GND*%
X23995000Y-31685000D03*
%TO.P,J1,5*%
%TO.N,Net-(J1-Pin_5)*%
X31615000Y-31685000D03*
%TO.P,J1,6*%
%TO.N,N/C*%
X31615000Y-29145000D03*
%TO.P,J1,7*%
X31615000Y-26605000D03*
%TO.P,J1,8*%
%TO.N,+5V*%
X31615000Y-24065000D03*
%TD*%
D13*
%TO.P,R10,1*%
%TO.N,Net-(C16-Pad1)*%
X40425000Y-55880000D03*
%TO.P,R10,2*%
%TO.N,Net-(R10-Pad2)*%
X48045000Y-55880000D03*
%TD*%
%TO.P,C9,1*%
%TO.N,+5V*%
X36765000Y-26170000D03*
%TO.P,C9,2*%
%TO.N,GND*%
X41765000Y-26170000D03*
%TD*%
%TO.P,C17,1*%
%TO.N,Net-(C17-Pad1)*%
X35945000Y-48260000D03*
%TO.P,C17,2*%
%TO.N,GND*%
X40945000Y-48260000D03*
%TD*%
%TO.P,R11,1*%
%TO.N,Net-(R10-Pad2)*%
X23595000Y-48260000D03*
%TO.P,R11,2*%
%TO.N,Net-(C17-Pad1)*%
X31215000Y-48260000D03*
%TD*%
%TO.N,Net-(C16-Pad1)*%
D16*
X31900000Y-52600000D02*
X38700000Y-52600000D01*
X48135000Y-48260000D02*
X50545000Y-45850000D01*
X30695000Y-53805000D02*
X31900000Y-52600000D01*
X38700000Y-52600000D02*
X40425000Y-54325000D01*
X39265000Y-40270559D02*
X39265000Y-39370000D01*
X40425000Y-54325000D02*
X40425000Y-55880000D01*
X47254441Y-48260000D02*
X39265000Y-40270559D01*
X56750000Y-47250000D02*
X56750000Y-51000000D01*
X55250000Y-52500000D02*
X42700000Y-52500000D01*
X55350000Y-45850000D02*
X56750000Y-47250000D01*
X50545000Y-45850000D02*
X55350000Y-45850000D01*
X40425000Y-54775000D02*
X40425000Y-55880000D01*
X30695000Y-55880000D02*
X30695000Y-53805000D01*
X42700000Y-52500000D02*
X40425000Y-54775000D01*
X48135000Y-48260000D02*
X47254441Y-48260000D01*
X56750000Y-51000000D02*
X55250000Y-52500000D01*
%TO.N,Net-(C17-Pad1)*%
X45110000Y-50360000D02*
X50915000Y-50360000D01*
X43750000Y-49000000D02*
X45110000Y-50360000D01*
X35945000Y-45305000D02*
X36500000Y-44750000D01*
X41000000Y-44750000D02*
X43750000Y-47500000D01*
X31215000Y-48260000D02*
X35945000Y-48260000D01*
X50915000Y-50360000D02*
X53015000Y-48260000D01*
X36500000Y-44750000D02*
X41000000Y-44750000D01*
X35945000Y-48260000D02*
X35945000Y-45305000D01*
X43750000Y-47500000D02*
X43750000Y-49000000D01*
%TO.N,Net-(R10-Pad2)*%
X23595000Y-48260000D02*
X23595000Y-43405000D01*
X46250000Y-44000000D02*
X57250000Y-44000000D01*
X41138400Y-36151700D02*
X41805000Y-36818300D01*
X41805000Y-36818300D02*
X41805000Y-39370000D01*
X58750000Y-45500000D02*
X58750000Y-52750000D01*
X41805000Y-39370000D02*
X44345000Y-39370000D01*
X44345000Y-42095000D02*
X46250000Y-44000000D01*
X55620000Y-55880000D02*
X48045000Y-55880000D01*
X58750000Y-52750000D02*
X55620000Y-55880000D01*
X57250000Y-44000000D02*
X58750000Y-45500000D01*
X36017105Y-36151700D02*
X41138400Y-36151700D01*
X44345000Y-39370000D02*
X44345000Y-42095000D01*
X30848300Y-36151700D02*
X36017105Y-36151700D01*
X23595000Y-43405000D02*
X30848300Y-36151700D01*
%TO.N,Net-(J1-Pin_5)*%
X36783400Y-34301700D02*
X34166700Y-31685000D01*
X46885000Y-39370000D02*
X46885000Y-38418400D01*
X42768300Y-34301700D02*
X36783400Y-34301700D01*
X46885000Y-38418400D02*
X42768300Y-34301700D01*
X31615000Y-31685000D02*
X34166700Y-31685000D01*
%TO.N,GND*%
X46885000Y-31546200D02*
X46885000Y-31750000D01*
X41805000Y-26210000D02*
X41765000Y-26170000D01*
%TO.N,+5V*%
X36765000Y-26170000D02*
X39265000Y-28670000D01*
X34660000Y-24065000D02*
X36765000Y-26170000D01*
X39265000Y-28670000D02*
X39265000Y-31750000D01*
X31615000Y-24065000D02*
X34660000Y-24065000D01*
%TD*%
%TA.AperFunction,Conductor*%
%TO.N,GND*%
G36*
X61342539Y-20520185D02*
G01*
X61388294Y-20572989D01*
X61399500Y-20624500D01*
X61399500Y-63375500D01*
X61379815Y-63442539D01*
X61327011Y-63488294D01*
X61275500Y-63499500D01*
X20624500Y-63499500D01*
X20557461Y-63479815D01*
X20511706Y-63427011D01*
X20500500Y-63375500D01*
X20500500Y-48130097D01*
X21944500Y-48130097D01*
X21944500Y-48389902D01*
X21985140Y-48646493D01*
X22065422Y-48893576D01*
X22146534Y-49052764D01*
X22183366Y-49125051D01*
X22336069Y-49335229D01*
X22519771Y-49518931D01*
X22729949Y-49671634D01*
X22870481Y-49743239D01*
X22961423Y-49789577D01*
X22961425Y-49789577D01*
X22961428Y-49789579D01*
X23208507Y-49869860D01*
X23340706Y-49890797D01*
X23465098Y-49910500D01*
X23465103Y-49910500D01*
X23724902Y-49910500D01*
X23838298Y-49892539D01*
X23981493Y-49869860D01*
X24228572Y-49789579D01*
X24460051Y-49671634D01*
X24670229Y-49518931D01*
X24853931Y-49335229D01*
X25006634Y-49125051D01*
X25124579Y-48893572D01*
X25204860Y-48646493D01*
X25237469Y-48440604D01*
X25245500Y-48389902D01*
X25245500Y-48130097D01*
X25211603Y-47916083D01*
X25204860Y-47873507D01*
X25124579Y-47626428D01*
X25124577Y-47626425D01*
X25124577Y-47626423D01*
X25062357Y-47504312D01*
X25006634Y-47394949D01*
X24969181Y-47343400D01*
X24945702Y-47277594D01*
X24945500Y-47270515D01*
X24945500Y-44015757D01*
X24965185Y-43948718D01*
X24981819Y-43928076D01*
X31371377Y-37538519D01*
X31432700Y-37505034D01*
X31459058Y-37502200D01*
X35910818Y-37502200D01*
X37777096Y-37502200D01*
X37844135Y-37521885D01*
X37889890Y-37574689D01*
X37899834Y-37643847D01*
X37870809Y-37707403D01*
X37864777Y-37713881D01*
X37862525Y-37716132D01*
X37862521Y-37716137D01*
X37744718Y-37890191D01*
X37661987Y-38083386D01*
X37661984Y-38083397D01*
X37617312Y-38288749D01*
X37617312Y-38288755D01*
X37614500Y-38335962D01*
X37614500Y-40404038D01*
X37616484Y-40437360D01*
X37617312Y-40451250D01*
X37661984Y-40656602D01*
X37661987Y-40656613D01*
X37744718Y-40849808D01*
X37744720Y-40849811D01*
X37744721Y-40849813D01*
X37862523Y-41023865D01*
X38011135Y-41172477D01*
X38185187Y-41290279D01*
X38210928Y-41301302D01*
X38378385Y-41373012D01*
X38378386Y-41373012D01*
X38378388Y-41373013D01*
X38443991Y-41387283D01*
X38505312Y-41420766D01*
X40272365Y-43187819D01*
X40305850Y-43249142D01*
X40300866Y-43318834D01*
X40258994Y-43374767D01*
X40193530Y-43399184D01*
X40184684Y-43399500D01*
X36611422Y-43399500D01*
X36611398Y-43399499D01*
X36606287Y-43399499D01*
X36393714Y-43399499D01*
X36345041Y-43407208D01*
X36183760Y-43432753D01*
X35981585Y-43498444D01*
X35792179Y-43594951D01*
X35620213Y-43719890D01*
X34914890Y-44425213D01*
X34789951Y-44597179D01*
X34693444Y-44786585D01*
X34627753Y-44988760D01*
X34594500Y-45198713D01*
X34594500Y-46785500D01*
X34574815Y-46852539D01*
X34522011Y-46898294D01*
X34470500Y-46909500D01*
X32204485Y-46909500D01*
X32137446Y-46889815D01*
X32131599Y-46885818D01*
X32080051Y-46848366D01*
X31848576Y-46730422D01*
X31601493Y-46650140D01*
X31344902Y-46609500D01*
X31344897Y-46609500D01*
X31085103Y-46609500D01*
X31085098Y-46609500D01*
X30828506Y-46650140D01*
X30581423Y-46730422D01*
X30349945Y-46848368D01*
X30139774Y-47001066D01*
X30139768Y-47001071D01*
X29956071Y-47184768D01*
X29956066Y-47184774D01*
X29803368Y-47394945D01*
X29685422Y-47626423D01*
X29605140Y-47873506D01*
X29564500Y-48130097D01*
X29564500Y-48389902D01*
X29605140Y-48646493D01*
X29685422Y-48893576D01*
X29766534Y-49052764D01*
X29803366Y-49125051D01*
X29956069Y-49335229D01*
X30139771Y-49518931D01*
X30349949Y-49671634D01*
X30490481Y-49743239D01*
X30581423Y-49789577D01*
X30581425Y-49789577D01*
X30581428Y-49789579D01*
X30828507Y-49869860D01*
X30960706Y-49890797D01*
X31085098Y-49910500D01*
X31085103Y-49910500D01*
X31344902Y-49910500D01*
X31458298Y-49892539D01*
X31601493Y-49869860D01*
X31848572Y-49789579D01*
X32080051Y-49671634D01*
X32131599Y-49634181D01*
X32197406Y-49610702D01*
X32204485Y-49610500D01*
X34955515Y-49610500D01*
X35022554Y-49630185D01*
X35028393Y-49634177D01*
X35079949Y-49671634D01*
X35150960Y-49707816D01*
X35311423Y-49789577D01*
X35311425Y-49789577D01*
X35311428Y-49789579D01*
X35558507Y-49869860D01*
X35690706Y-49890797D01*
X35815098Y-49910500D01*
X35815103Y-49910500D01*
X36074902Y-49910500D01*
X36188298Y-49892539D01*
X36331493Y-49869860D01*
X36578572Y-49789579D01*
X36810051Y-49671634D01*
X37020229Y-49518931D01*
X37203931Y-49335229D01*
X37356634Y-49125051D01*
X37474579Y-48893572D01*
X37554860Y-48646493D01*
X37587469Y-48440604D01*
X37595500Y-48389902D01*
X37595500Y-48130097D01*
X37561603Y-47916083D01*
X37554860Y-47873507D01*
X37474579Y-47626428D01*
X37474577Y-47626425D01*
X37474577Y-47626423D01*
X37412357Y-47504312D01*
X37356634Y-47394949D01*
X37319181Y-47343400D01*
X37295702Y-47277594D01*
X37295500Y-47270515D01*
X37295500Y-46224500D01*
X37315185Y-46157461D01*
X37367989Y-46111706D01*
X37419500Y-46100500D01*
X40389243Y-46100500D01*
X40456282Y-46120185D01*
X40476924Y-46136819D01*
X42363181Y-48023076D01*
X42396666Y-48084399D01*
X42399500Y-48110757D01*
X42399500Y-49106287D01*
X42409534Y-49169644D01*
X42430601Y-49302654D01*
X42432754Y-49316243D01*
X42486221Y-49480798D01*
X42498444Y-49518414D01*
X42594951Y-49707820D01*
X42719889Y-49879784D01*
X42719893Y-49879788D01*
X42719896Y-49879792D01*
X42870208Y-50030104D01*
X42874538Y-50034434D01*
X42874549Y-50034444D01*
X43777923Y-50937819D01*
X43811408Y-50999142D01*
X43806424Y-51068834D01*
X43764552Y-51124767D01*
X43699088Y-51149184D01*
X43690242Y-51149500D01*
X42811422Y-51149500D01*
X42811398Y-51149499D01*
X42806287Y-51149499D01*
X42593713Y-51149499D01*
X42545040Y-51157208D01*
X42383760Y-51182753D01*
X42181585Y-51248444D01*
X41992179Y-51344951D01*
X41820213Y-51469890D01*
X41820209Y-51469894D01*
X41669893Y-51620211D01*
X40737680Y-52552423D01*
X40676357Y-52585908D01*
X40606665Y-52580924D01*
X40562320Y-52552424D01*
X39734443Y-51724548D01*
X39734435Y-51724539D01*
X39730104Y-51720208D01*
X39579792Y-51569896D01*
X39579788Y-51569893D01*
X39579784Y-51569889D01*
X39407820Y-51444951D01*
X39218414Y-51348444D01*
X39218413Y-51348443D01*
X39218412Y-51348443D01*
X39016243Y-51282754D01*
X39016241Y-51282753D01*
X39016240Y-51282753D01*
X38854957Y-51257208D01*
X38806287Y-51249500D01*
X32006286Y-51249500D01*
X31793713Y-51249500D01*
X31745042Y-51257208D01*
X31583760Y-51282753D01*
X31381585Y-51348444D01*
X31192179Y-51444951D01*
X31020213Y-51569890D01*
X29664890Y-52925213D01*
X29539951Y-53097179D01*
X29443444Y-53286585D01*
X29377753Y-53488760D01*
X29344500Y-53698713D01*
X29344500Y-54890515D01*
X29324815Y-54957554D01*
X29320818Y-54963401D01*
X29283366Y-55014948D01*
X29165422Y-55246423D01*
X29085140Y-55493506D01*
X29044500Y-55750097D01*
X29044500Y-56009902D01*
X29085140Y-56266493D01*
X29165422Y-56513576D01*
X29283368Y-56745054D01*
X29436066Y-56955225D01*
X29436069Y-56955229D01*
X29619771Y-57138931D01*
X29829949Y-57291634D01*
X29977445Y-57366787D01*
X30061423Y-57409577D01*
X30061425Y-57409577D01*
X30061428Y-57409579D01*
X30308507Y-57489860D01*
X30440706Y-57510797D01*
X30565098Y-57530500D01*
X30565103Y-57530500D01*
X30824902Y-57530500D01*
X30938298Y-57512539D01*
X31081493Y-57489860D01*
X31328572Y-57409579D01*
X31560051Y-57291634D01*
X31770229Y-57138931D01*
X31953931Y-56955229D01*
X32106634Y-56745051D01*
X32224579Y-56513572D01*
X32304860Y-56266493D01*
X32327539Y-56123298D01*
X32345500Y-56009902D01*
X32345500Y-55750097D01*
X32323947Y-55614021D01*
X32304860Y-55493507D01*
X32224579Y-55246428D01*
X32224577Y-55246425D01*
X32224577Y-55246423D01*
X32106633Y-55014948D01*
X32106631Y-55014945D01*
X32069181Y-54963400D01*
X32045702Y-54897594D01*
X32045500Y-54890515D01*
X32045500Y-54415757D01*
X32065185Y-54348718D01*
X32081819Y-54328076D01*
X32423077Y-53986819D01*
X32484400Y-53953334D01*
X32510758Y-53950500D01*
X38089243Y-53950500D01*
X38156282Y-53970185D01*
X38176924Y-53986819D01*
X39019142Y-54829037D01*
X39052627Y-54890360D01*
X39047643Y-54960052D01*
X39031781Y-54989601D01*
X39013367Y-55014946D01*
X38895422Y-55246423D01*
X38815140Y-55493506D01*
X38774500Y-55750097D01*
X38774500Y-56009902D01*
X38815140Y-56266493D01*
X38895422Y-56513576D01*
X39013368Y-56745054D01*
X39166066Y-56955225D01*
X39166069Y-56955229D01*
X39349771Y-57138931D01*
X39559949Y-57291634D01*
X39707445Y-57366787D01*
X39791423Y-57409577D01*
X39791425Y-57409577D01*
X39791428Y-57409579D01*
X40038507Y-57489860D01*
X40170706Y-57510797D01*
X40295098Y-57530500D01*
X40295103Y-57530500D01*
X40554902Y-57530500D01*
X40668298Y-57512539D01*
X40811493Y-57489860D01*
X41058572Y-57409579D01*
X41290051Y-57291634D01*
X41500229Y-57138931D01*
X41683931Y-56955229D01*
X41836634Y-56745051D01*
X41954579Y-56513572D01*
X42034860Y-56266493D01*
X42057539Y-56123298D01*
X42075500Y-56009902D01*
X42075500Y-55750097D01*
X42034860Y-55493506D01*
X42018228Y-55442320D01*
X41955714Y-55249923D01*
X41953720Y-55180087D01*
X41985963Y-55123930D01*
X43223076Y-53886819D01*
X43284399Y-53853334D01*
X43310757Y-53850500D01*
X55356286Y-53850500D01*
X55356287Y-53850500D01*
X55434809Y-53838063D01*
X55504101Y-53847017D01*
X55557553Y-53892013D01*
X55578193Y-53958765D01*
X55559468Y-54026079D01*
X55541887Y-54048217D01*
X55096924Y-54493181D01*
X55035601Y-54526666D01*
X55009243Y-54529500D01*
X49034485Y-54529500D01*
X48967446Y-54509815D01*
X48961599Y-54505818D01*
X48910051Y-54468366D01*
X48678576Y-54350422D01*
X48431493Y-54270140D01*
X48174902Y-54229500D01*
X48174897Y-54229500D01*
X47915103Y-54229500D01*
X47915098Y-54229500D01*
X47658506Y-54270140D01*
X47411423Y-54350422D01*
X47179945Y-54468368D01*
X46969774Y-54621066D01*
X46969768Y-54621071D01*
X46786071Y-54804768D01*
X46786066Y-54804774D01*
X46633368Y-55014945D01*
X46515422Y-55246423D01*
X46435140Y-55493506D01*
X46394500Y-55750097D01*
X46394500Y-56009902D01*
X46435140Y-56266493D01*
X46515422Y-56513576D01*
X46633368Y-56745054D01*
X46786066Y-56955225D01*
X46786069Y-56955229D01*
X46969771Y-57138931D01*
X47179949Y-57291634D01*
X47327445Y-57366787D01*
X47411423Y-57409577D01*
X47411425Y-57409577D01*
X47411428Y-57409579D01*
X47658507Y-57489860D01*
X47790706Y-57510797D01*
X47915098Y-57530500D01*
X47915103Y-57530500D01*
X48174902Y-57530500D01*
X48288298Y-57512539D01*
X48431493Y-57489860D01*
X48678572Y-57409579D01*
X48910051Y-57291634D01*
X48961599Y-57254181D01*
X49027406Y-57230702D01*
X49034485Y-57230500D01*
X55726286Y-57230500D01*
X55726287Y-57230500D01*
X55936243Y-57197246D01*
X56138412Y-57131557D01*
X56327816Y-57035051D01*
X56437682Y-56955229D01*
X56499792Y-56910104D01*
X56650104Y-56759792D01*
X56650105Y-56759790D01*
X56657165Y-56752730D01*
X56657170Y-56752723D01*
X59780104Y-53629792D01*
X59780106Y-53629788D01*
X59780109Y-53629786D01*
X59905048Y-53457820D01*
X59905047Y-53457820D01*
X59905051Y-53457816D01*
X60001557Y-53268412D01*
X60067246Y-53066243D01*
X60100500Y-52856287D01*
X60100500Y-52643714D01*
X60100500Y-45393713D01*
X60067246Y-45183757D01*
X60001557Y-44981588D01*
X59905051Y-44792184D01*
X59905049Y-44792181D01*
X59905048Y-44792179D01*
X59780109Y-44620213D01*
X59629791Y-44469895D01*
X58284444Y-43124549D01*
X58284435Y-43124539D01*
X58248653Y-43088757D01*
X58129792Y-42969896D01*
X58129788Y-42969893D01*
X58129784Y-42969889D01*
X57957820Y-42844951D01*
X57768414Y-42748444D01*
X57768413Y-42748443D01*
X57768412Y-42748443D01*
X57566243Y-42682754D01*
X57566241Y-42682753D01*
X57566240Y-42682753D01*
X57404957Y-42657208D01*
X57356287Y-42649500D01*
X57356286Y-42649500D01*
X46860757Y-42649500D01*
X46793718Y-42629815D01*
X46773076Y-42613181D01*
X45731819Y-41571924D01*
X45698334Y-41510601D01*
X45695500Y-41484243D01*
X45695500Y-41189271D01*
X45715185Y-41122232D01*
X45767989Y-41076477D01*
X45837147Y-41066533D01*
X45892382Y-41088951D01*
X46019949Y-41181634D01*
X46129312Y-41237357D01*
X46251423Y-41299577D01*
X46251425Y-41299577D01*
X46251428Y-41299579D01*
X46498507Y-41379860D01*
X46630706Y-41400797D01*
X46755098Y-41420500D01*
X46755103Y-41420500D01*
X47014902Y-41420500D01*
X47128298Y-41402539D01*
X47271493Y-41379860D01*
X47518572Y-41299579D01*
X47750051Y-41181634D01*
X47960229Y-41028931D01*
X48143931Y-40845229D01*
X48296634Y-40635051D01*
X48414579Y-40403572D01*
X48494860Y-40156493D01*
X48517539Y-40013298D01*
X48535500Y-39899902D01*
X48535500Y-38840097D01*
X50314500Y-38840097D01*
X50314500Y-39899902D01*
X50355140Y-40156493D01*
X50435422Y-40403576D01*
X50459714Y-40451250D01*
X50553366Y-40635051D01*
X50706069Y-40845229D01*
X50889771Y-41028931D01*
X51099949Y-41181634D01*
X51247445Y-41256787D01*
X51331423Y-41299577D01*
X51331425Y-41299577D01*
X51331428Y-41299579D01*
X51578507Y-41379860D01*
X51710706Y-41400797D01*
X51835098Y-41420500D01*
X51835103Y-41420500D01*
X52094902Y-41420500D01*
X52208298Y-41402539D01*
X52351493Y-41379860D01*
X52598572Y-41299579D01*
X52830051Y-41181634D01*
X53040229Y-41028931D01*
X53223931Y-40845229D01*
X53376634Y-40635051D01*
X53494579Y-40403572D01*
X53574860Y-40156493D01*
X53597539Y-40013298D01*
X53615500Y-39899902D01*
X53615500Y-38840097D01*
X53593947Y-38704021D01*
X53574860Y-38583507D01*
X53494579Y-38336428D01*
X53494577Y-38336425D01*
X53494577Y-38336423D01*
X53451787Y-38252445D01*
X53376634Y-38104949D01*
X53223931Y-37894771D01*
X53040229Y-37711069D01*
X53039566Y-37710587D01*
X52830054Y-37558368D01*
X52830053Y-37558367D01*
X52830051Y-37558366D01*
X52719820Y-37502200D01*
X52598576Y-37440422D01*
X52351493Y-37360140D01*
X52094902Y-37319500D01*
X52094897Y-37319500D01*
X51835103Y-37319500D01*
X51835098Y-37319500D01*
X51578506Y-37360140D01*
X51331423Y-37440422D01*
X51099945Y-37558368D01*
X50889774Y-37711066D01*
X50889768Y-37711071D01*
X50706071Y-37894768D01*
X50706066Y-37894774D01*
X50553368Y-38104945D01*
X50435422Y-38336423D01*
X50355140Y-38583506D01*
X50314500Y-38840097D01*
X48535500Y-38840097D01*
X48513947Y-38704021D01*
X48494860Y-38583507D01*
X48414579Y-38336428D01*
X48414577Y-38336425D01*
X48414577Y-38336423D01*
X48371787Y-38252445D01*
X48296634Y-38104949D01*
X48143931Y-37894771D01*
X48137363Y-37888203D01*
X48114559Y-37856816D01*
X48040051Y-37710584D01*
X48002356Y-37658701D01*
X47915110Y-37538615D01*
X47915106Y-37538611D01*
X47915104Y-37538608D01*
X47764792Y-37388296D01*
X47764791Y-37388295D01*
X47761680Y-37385184D01*
X47761665Y-37385170D01*
X44388676Y-34012181D01*
X44355191Y-33950858D01*
X44360175Y-33881166D01*
X44402047Y-33825233D01*
X44467511Y-33800816D01*
X44473694Y-33800595D01*
X44474900Y-33800500D01*
X44557548Y-33787409D01*
X44731493Y-33759860D01*
X44978572Y-33679579D01*
X45210051Y-33561634D01*
X45420229Y-33408931D01*
X45603931Y-33225229D01*
X45756634Y-33015051D01*
X45874579Y-32783572D01*
X45954860Y-32536493D01*
X45989375Y-32318572D01*
X45995500Y-32279902D01*
X45995500Y-31220097D01*
X47774500Y-31220097D01*
X47774500Y-32279902D01*
X47815140Y-32536493D01*
X47895422Y-32783576D01*
X47969236Y-32928442D01*
X48013366Y-33015051D01*
X48166069Y-33225229D01*
X48349771Y-33408931D01*
X48559949Y-33561634D01*
X48707445Y-33636787D01*
X48791423Y-33679577D01*
X48791425Y-33679577D01*
X48791428Y-33679579D01*
X49038507Y-33759860D01*
X49170706Y-33780797D01*
X49295098Y-33800500D01*
X49295103Y-33800500D01*
X49554902Y-33800500D01*
X49668298Y-33782539D01*
X49811493Y-33759860D01*
X50058572Y-33679579D01*
X50290051Y-33561634D01*
X50500229Y-33408931D01*
X50683931Y-33225229D01*
X50836634Y-33015051D01*
X50954579Y-32783572D01*
X51034860Y-32536493D01*
X51069375Y-32318572D01*
X51075500Y-32279902D01*
X51075500Y-31220097D01*
X52854500Y-31220097D01*
X52854500Y-32279902D01*
X52895140Y-32536493D01*
X52975422Y-32783576D01*
X53049236Y-32928442D01*
X53093366Y-33015051D01*
X53246069Y-33225229D01*
X53429771Y-33408931D01*
X53639949Y-33561634D01*
X53787445Y-33636787D01*
X53871423Y-33679577D01*
X53871425Y-33679577D01*
X53871428Y-33679579D01*
X54118507Y-33759860D01*
X54250706Y-33780797D01*
X54375098Y-33800500D01*
X54375103Y-33800500D01*
X54634902Y-33800500D01*
X54748298Y-33782539D01*
X54891493Y-33759860D01*
X55138572Y-33679579D01*
X55370051Y-33561634D01*
X55580229Y-33408931D01*
X55763931Y-33225229D01*
X55916634Y-33015051D01*
X56034579Y-32783572D01*
X56114860Y-32536493D01*
X56149375Y-32318572D01*
X56155500Y-32279902D01*
X56155500Y-31220097D01*
X56128784Y-31051423D01*
X56114860Y-30963507D01*
X56034579Y-30716428D01*
X56034577Y-30716425D01*
X56034577Y-30716423D01*
X55980233Y-30609768D01*
X55916634Y-30484949D01*
X55763931Y-30274771D01*
X55580229Y-30091069D01*
X55370051Y-29938366D01*
X55297764Y-29901534D01*
X55138576Y-29820422D01*
X54891493Y-29740140D01*
X54634902Y-29699500D01*
X54634897Y-29699500D01*
X54375103Y-29699500D01*
X54375098Y-29699500D01*
X54118506Y-29740140D01*
X53871423Y-29820422D01*
X53639945Y-29938368D01*
X53429774Y-30091066D01*
X53429768Y-30091071D01*
X53246071Y-30274768D01*
X53246066Y-30274774D01*
X53093368Y-30484945D01*
X52975422Y-30716423D01*
X52895140Y-30963506D01*
X52854500Y-31220097D01*
X51075500Y-31220097D01*
X51048784Y-31051423D01*
X51034860Y-30963507D01*
X50954579Y-30716428D01*
X50954577Y-30716425D01*
X50954577Y-30716423D01*
X50900233Y-30609768D01*
X50836634Y-30484949D01*
X50683931Y-30274771D01*
X50500229Y-30091069D01*
X50290051Y-29938366D01*
X50217764Y-29901534D01*
X50058576Y-29820422D01*
X49811493Y-29740140D01*
X49554902Y-29699500D01*
X49554897Y-29699500D01*
X49295103Y-29699500D01*
X49295098Y-29699500D01*
X49038506Y-29740140D01*
X48791423Y-29820422D01*
X48559945Y-29938368D01*
X48349774Y-30091066D01*
X48349768Y-30091071D01*
X48166071Y-30274768D01*
X48166066Y-30274774D01*
X48013368Y-30484945D01*
X47895422Y-30716423D01*
X47815140Y-30963506D01*
X47774500Y-31220097D01*
X45995500Y-31220097D01*
X45968784Y-31051423D01*
X45954860Y-30963507D01*
X45874579Y-30716428D01*
X45874577Y-30716425D01*
X45874577Y-30716423D01*
X45820233Y-30609768D01*
X45756634Y-30484949D01*
X45603931Y-30274771D01*
X45420229Y-30091069D01*
X45210051Y-29938366D01*
X45137764Y-29901534D01*
X44978576Y-29820422D01*
X44731493Y-29740140D01*
X44474902Y-29699500D01*
X44474897Y-29699500D01*
X44215103Y-29699500D01*
X44215098Y-29699500D01*
X43958506Y-29740140D01*
X43711423Y-29820422D01*
X43479945Y-29938368D01*
X43269774Y-30091066D01*
X43269768Y-30091071D01*
X43086071Y-30274768D01*
X43086066Y-30274774D01*
X42933368Y-30484945D01*
X42815422Y-30716423D01*
X42735140Y-30963506D01*
X42694500Y-31220097D01*
X42694500Y-32279902D01*
X42735140Y-32536493D01*
X42815421Y-32783572D01*
X42815422Y-32783575D01*
X42816927Y-32788205D01*
X42814820Y-32788889D01*
X42821306Y-32849218D01*
X42790030Y-32911697D01*
X42729941Y-32947349D01*
X42699276Y-32951200D01*
X40910724Y-32951200D01*
X40843685Y-32931515D01*
X40797930Y-32878711D01*
X40787986Y-32809553D01*
X40793779Y-32788434D01*
X40793073Y-32788205D01*
X40794577Y-32783575D01*
X40794579Y-32783572D01*
X40874860Y-32536493D01*
X40909375Y-32318572D01*
X40915500Y-32279902D01*
X40915500Y-31220097D01*
X40888784Y-31051423D01*
X40874860Y-30963507D01*
X40794579Y-30716428D01*
X40794577Y-30716425D01*
X40794577Y-30716423D01*
X40732357Y-30594312D01*
X40676634Y-30484949D01*
X40639181Y-30433400D01*
X40615702Y-30367594D01*
X40615500Y-30360515D01*
X40615500Y-28563713D01*
X40582246Y-28353760D01*
X40582246Y-28353757D01*
X40516557Y-28151588D01*
X40420051Y-27962184D01*
X40420049Y-27962181D01*
X40420048Y-27962179D01*
X40295110Y-27790215D01*
X40295106Y-27790211D01*
X40295104Y-27790208D01*
X40144792Y-27639896D01*
X40144791Y-27639895D01*
X40141680Y-27636784D01*
X40141665Y-27636770D01*
X38419619Y-25914724D01*
X38386134Y-25853401D01*
X38384834Y-25846483D01*
X38374860Y-25783507D01*
X38294579Y-25536428D01*
X38176634Y-25304949D01*
X38023931Y-25094771D01*
X37840229Y-24911069D01*
X37630051Y-24758366D01*
X37398572Y-24640421D01*
X37151493Y-24560140D01*
X37151491Y-24560139D01*
X37088556Y-24550171D01*
X37025421Y-24520241D01*
X37020274Y-24515379D01*
X35694444Y-23189549D01*
X35694435Y-23189539D01*
X35683282Y-23178386D01*
X35539792Y-23034896D01*
X35539788Y-23034893D01*
X35539784Y-23034889D01*
X35367820Y-22909951D01*
X35178414Y-22813444D01*
X35178413Y-22813443D01*
X35178412Y-22813443D01*
X34976243Y-22747754D01*
X34976241Y-22747753D01*
X34976240Y-22747753D01*
X34814957Y-22722208D01*
X34766287Y-22714500D01*
X34766286Y-22714500D01*
X33004485Y-22714500D01*
X32937446Y-22694815D01*
X32931599Y-22690818D01*
X32892654Y-22662523D01*
X32880051Y-22653366D01*
X32648576Y-22535422D01*
X32401493Y-22455140D01*
X32144902Y-22414500D01*
X32144897Y-22414500D01*
X31085103Y-22414500D01*
X31085098Y-22414500D01*
X30828506Y-22455140D01*
X30581423Y-22535422D01*
X30349945Y-22653368D01*
X30139774Y-22806066D01*
X30139768Y-22806071D01*
X29956071Y-22989768D01*
X29956066Y-22989774D01*
X29803368Y-23199945D01*
X29685422Y-23431423D01*
X29605140Y-23678506D01*
X29564500Y-23935097D01*
X29564500Y-24194902D01*
X29605140Y-24451493D01*
X29685422Y-24698576D01*
X29766534Y-24857764D01*
X29793695Y-24911071D01*
X29803368Y-24930054D01*
X29956066Y-25140225D01*
X29956071Y-25140231D01*
X30063159Y-25247319D01*
X30096644Y-25308642D01*
X30091660Y-25378334D01*
X30063159Y-25422681D01*
X29956071Y-25529768D01*
X29956066Y-25529774D01*
X29803368Y-25739945D01*
X29685422Y-25971423D01*
X29605140Y-26218506D01*
X29564500Y-26475097D01*
X29564500Y-26734902D01*
X29605140Y-26991493D01*
X29685422Y-27238576D01*
X29803368Y-27470054D01*
X29956066Y-27680225D01*
X29956071Y-27680231D01*
X30063159Y-27787319D01*
X30096644Y-27848642D01*
X30091660Y-27918334D01*
X30063159Y-27962681D01*
X29956071Y-28069768D01*
X29956066Y-28069774D01*
X29803368Y-28279945D01*
X29685422Y-28511423D01*
X29605140Y-28758506D01*
X29564500Y-29015097D01*
X29564500Y-29274902D01*
X29605140Y-29531493D01*
X29685422Y-29778576D01*
X29803368Y-30010054D01*
X29956066Y-30220225D01*
X29956071Y-30220231D01*
X30063159Y-30327319D01*
X30096644Y-30388642D01*
X30091660Y-30458334D01*
X30063159Y-30502681D01*
X29956071Y-30609768D01*
X29956066Y-30609774D01*
X29803368Y-30819945D01*
X29685422Y-31051423D01*
X29605140Y-31298506D01*
X29564500Y-31555097D01*
X29564500Y-31814902D01*
X29605140Y-32071493D01*
X29685422Y-32318576D01*
X29766534Y-32477764D01*
X29803366Y-32550051D01*
X29956069Y-32760229D01*
X30139771Y-32943931D01*
X30349949Y-33096634D01*
X30497445Y-33171787D01*
X30581423Y-33214577D01*
X30581425Y-33214577D01*
X30581428Y-33214579D01*
X30828507Y-33294860D01*
X30960706Y-33315797D01*
X31085098Y-33335500D01*
X31085103Y-33335500D01*
X32144902Y-33335500D01*
X32258298Y-33317539D01*
X32401493Y-33294860D01*
X32648572Y-33214579D01*
X32880051Y-33096634D01*
X32931599Y-33059181D01*
X32997406Y-33035702D01*
X33004485Y-33035500D01*
X33555943Y-33035500D01*
X33622982Y-33055185D01*
X33643624Y-33071819D01*
X35161324Y-34589519D01*
X35194809Y-34650842D01*
X35189825Y-34720534D01*
X35147953Y-34776467D01*
X35082489Y-34800884D01*
X35073643Y-34801200D01*
X30954586Y-34801200D01*
X30742013Y-34801200D01*
X30693342Y-34808908D01*
X30532060Y-34834453D01*
X30329885Y-34900144D01*
X30140479Y-34996651D01*
X29968513Y-35121590D01*
X22564890Y-42525213D01*
X22439951Y-42697179D01*
X22343444Y-42886585D01*
X22277753Y-43088760D01*
X22244500Y-43298713D01*
X22244500Y-47270515D01*
X22224815Y-47337554D01*
X22220818Y-47343401D01*
X22183366Y-47394948D01*
X22065422Y-47626423D01*
X21985140Y-47873506D01*
X21944500Y-48130097D01*
X20500500Y-48130097D01*
X20500500Y-23430962D01*
X21944500Y-23430962D01*
X21944500Y-24699038D01*
X21946484Y-24732360D01*
X21947312Y-24746250D01*
X21991984Y-24951602D01*
X21991987Y-24951613D01*
X22074718Y-25144808D01*
X22192521Y-25318862D01*
X22192525Y-25318867D01*
X22289527Y-25415869D01*
X22323012Y-25477192D01*
X22318028Y-25546884D01*
X22302164Y-25576435D01*
X22183368Y-25739945D01*
X22065422Y-25971423D01*
X21985140Y-26218506D01*
X21944500Y-26475097D01*
X21944500Y-26734902D01*
X21985140Y-26991493D01*
X22065422Y-27238576D01*
X22183368Y-27470054D01*
X22336066Y-27680225D01*
X22336071Y-27680231D01*
X22443159Y-27787319D01*
X22476644Y-27848642D01*
X22471660Y-27918334D01*
X22443159Y-27962681D01*
X22336071Y-28069768D01*
X22336066Y-28069774D01*
X22183368Y-28279945D01*
X22065422Y-28511423D01*
X21985140Y-28758506D01*
X21944500Y-29015097D01*
X21944500Y-29274902D01*
X21985140Y-29531493D01*
X22065422Y-29778576D01*
X22183368Y-30010054D01*
X22316179Y-30192853D01*
X22336069Y-30220229D01*
X22519771Y-30403931D01*
X22729949Y-30556634D01*
X22834230Y-30609768D01*
X22961423Y-30674577D01*
X22961425Y-30674577D01*
X22961428Y-30674579D01*
X23208507Y-30754860D01*
X23340706Y-30775797D01*
X23465098Y-30795500D01*
X23465103Y-30795500D01*
X24524902Y-30795500D01*
X24638298Y-30777539D01*
X24781493Y-30754860D01*
X25028572Y-30674579D01*
X25260051Y-30556634D01*
X25470229Y-30403931D01*
X25653931Y-30220229D01*
X25806634Y-30010051D01*
X25924579Y-29778572D01*
X26004860Y-29531493D01*
X26027539Y-29388298D01*
X26045500Y-29274902D01*
X26045500Y-29015097D01*
X26023947Y-28879021D01*
X26004860Y-28758507D01*
X25924579Y-28511428D01*
X25924577Y-28511425D01*
X25924577Y-28511423D01*
X25881787Y-28427445D01*
X25806634Y-28279949D01*
X25653931Y-28069771D01*
X25546841Y-27962681D01*
X25513356Y-27901358D01*
X25518340Y-27831666D01*
X25546841Y-27787319D01*
X25554303Y-27779857D01*
X25653931Y-27680229D01*
X25806634Y-27470051D01*
X25924579Y-27238572D01*
X26004860Y-26991493D01*
X26034623Y-26803572D01*
X26045500Y-26734902D01*
X26045500Y-26475097D01*
X26023947Y-26339021D01*
X26004860Y-26218507D01*
X25924579Y-25971428D01*
X25924577Y-25971425D01*
X25924577Y-25971423D01*
X25860894Y-25846440D01*
X25806634Y-25739949D01*
X25792154Y-25720019D01*
X25687835Y-25576435D01*
X25664355Y-25510629D01*
X25680181Y-25442575D01*
X25700465Y-25415876D01*
X25797477Y-25318865D01*
X25915279Y-25144813D01*
X25998013Y-24951612D01*
X26042688Y-24746245D01*
X26045500Y-24699038D01*
X26045500Y-23430962D01*
X26042688Y-23383755D01*
X26002702Y-23199945D01*
X25998015Y-23178397D01*
X25998012Y-23178386D01*
X25915281Y-22985191D01*
X25915280Y-22985189D01*
X25915279Y-22985187D01*
X25797477Y-22811135D01*
X25648865Y-22662523D01*
X25474813Y-22544721D01*
X25474811Y-22544720D01*
X25474808Y-22544718D01*
X25281613Y-22461987D01*
X25281602Y-22461984D01*
X25076250Y-22417312D01*
X25061492Y-22416433D01*
X25029038Y-22414500D01*
X22960962Y-22414500D01*
X22930416Y-22416319D01*
X22913749Y-22417312D01*
X22708397Y-22461984D01*
X22708386Y-22461987D01*
X22515191Y-22544718D01*
X22341137Y-22662521D01*
X22341132Y-22662525D01*
X22192525Y-22811132D01*
X22192521Y-22811137D01*
X22074718Y-22985191D01*
X21991987Y-23178386D01*
X21991984Y-23178397D01*
X21947312Y-23383749D01*
X21947312Y-23383755D01*
X21944500Y-23430962D01*
X20500500Y-23430962D01*
X20500500Y-20624500D01*
X20520185Y-20557461D01*
X20572989Y-20511706D01*
X20624500Y-20500500D01*
X61275500Y-20500500D01*
X61342539Y-20520185D01*
G37*
%TD.AperFunction*%
%TD*%
M02*
