%TF.GenerationSoftware,KiCad,Pcbnew,10.0.5-1-g226df246f3*%
%TF.CreationDate,2026-09-09T20:59:17+02:00*%
%TF.ProjectId,vinyl_adc_osc,76696e79-6c5f-4616-9463-5f6f73632e6b,rev?*%
%TF.SameCoordinates,Original*%
%TF.FileFunction,AssemblyDrawing,Top*%
%FSLAX46Y46*%
G04 Gerber Fmt 4.6, Leading zero omitted, Abs format (unit mm)*
G04 Created by KiCad (PCBNEW 10.0.5-1-g226df246f3) date 2026-09-09 20:59:17*
%MOMM*%
%LPD*%
G01*
G04 APERTURE LIST*
%ADD10C,0.150000*%
%ADD11C,0.100000*%
G04 APERTURE END LIST*
D10*
X47598809Y-51234819D02*
X47408333Y-51234819D01*
X47408333Y-51234819D02*
X47313095Y-51282438D01*
X47313095Y-51282438D02*
X47265476Y-51330057D01*
X47265476Y-51330057D02*
X47170238Y-51472914D01*
X47170238Y-51472914D02*
X47122619Y-51663390D01*
X47122619Y-51663390D02*
X47122619Y-52044342D01*
X47122619Y-52044342D02*
X47170238Y-52139580D01*
X47170238Y-52139580D02*
X47217857Y-52187200D01*
X47217857Y-52187200D02*
X47313095Y-52234819D01*
X47313095Y-52234819D02*
X47503571Y-52234819D01*
X47503571Y-52234819D02*
X47598809Y-52187200D01*
X47598809Y-52187200D02*
X47646428Y-52139580D01*
X47646428Y-52139580D02*
X47694047Y-52044342D01*
X47694047Y-52044342D02*
X47694047Y-51806247D01*
X47694047Y-51806247D02*
X47646428Y-51711009D01*
X47646428Y-51711009D02*
X47598809Y-51663390D01*
X47598809Y-51663390D02*
X47503571Y-51615771D01*
X47503571Y-51615771D02*
X47313095Y-51615771D01*
X47313095Y-51615771D02*
X47217857Y-51663390D01*
X47217857Y-51663390D02*
X47170238Y-51711009D01*
X47170238Y-51711009D02*
X47122619Y-51806247D01*
X48122619Y-52139580D02*
X48170238Y-52187200D01*
X48170238Y-52187200D02*
X48122619Y-52234819D01*
X48122619Y-52234819D02*
X48075000Y-52187200D01*
X48075000Y-52187200D02*
X48122619Y-52139580D01*
X48122619Y-52139580D02*
X48122619Y-52234819D01*
X49122618Y-52234819D02*
X48551190Y-52234819D01*
X48836904Y-52234819D02*
X48836904Y-51234819D01*
X48836904Y-51234819D02*
X48741666Y-51377676D01*
X48741666Y-51377676D02*
X48646428Y-51472914D01*
X48646428Y-51472914D02*
X48551190Y-51520533D01*
X49979761Y-51568152D02*
X49979761Y-52234819D01*
X49741666Y-51187200D02*
X49503571Y-51901485D01*
X49503571Y-51901485D02*
X50122618Y-51901485D01*
X50932142Y-51568152D02*
X50932142Y-52234819D01*
X50694047Y-51187200D02*
X50455952Y-51901485D01*
X50455952Y-51901485D02*
X51074999Y-51901485D01*
X51455952Y-52234819D02*
X51455952Y-51234819D01*
X51455952Y-51234819D02*
X51789285Y-51949104D01*
X51789285Y-51949104D02*
X52122618Y-51234819D01*
X52122618Y-51234819D02*
X52122618Y-52234819D01*
X52598809Y-52234819D02*
X52598809Y-51234819D01*
X52598809Y-51711009D02*
X53170237Y-51711009D01*
X53170237Y-52234819D02*
X53170237Y-51234819D01*
X53551190Y-51568152D02*
X54074999Y-51568152D01*
X54074999Y-51568152D02*
X53551190Y-52234819D01*
X53551190Y-52234819D02*
X54074999Y-52234819D01*
X50098809Y-48238628D02*
X50098809Y-48714819D01*
X49765476Y-47714819D02*
X50098809Y-48238628D01*
X50098809Y-48238628D02*
X50432142Y-47714819D01*
X51289285Y-48714819D02*
X50717857Y-48714819D01*
X51003571Y-48714819D02*
X51003571Y-47714819D01*
X51003571Y-47714819D02*
X50908333Y-47857676D01*
X50908333Y-47857676D02*
X50813095Y-47952914D01*
X50813095Y-47952914D02*
X50717857Y-48000533D01*
X56289819Y-38869523D02*
X56289819Y-38202857D01*
X56289819Y-38202857D02*
X57289819Y-38631428D01*
X56623152Y-37393333D02*
X57289819Y-37393333D01*
X56242200Y-37631428D02*
X56956485Y-37869523D01*
X56956485Y-37869523D02*
X56956485Y-37250476D01*
X57289819Y-36869523D02*
X56289819Y-36869523D01*
X56766009Y-36869523D02*
X56766009Y-36298095D01*
X57289819Y-36298095D02*
X56289819Y-36298095D01*
X57194580Y-35250476D02*
X57242200Y-35298095D01*
X57242200Y-35298095D02*
X57289819Y-35440952D01*
X57289819Y-35440952D02*
X57289819Y-35536190D01*
X57289819Y-35536190D02*
X57242200Y-35679047D01*
X57242200Y-35679047D02*
X57146961Y-35774285D01*
X57146961Y-35774285D02*
X57051723Y-35821904D01*
X57051723Y-35821904D02*
X56861247Y-35869523D01*
X56861247Y-35869523D02*
X56718390Y-35869523D01*
X56718390Y-35869523D02*
X56527914Y-35821904D01*
X56527914Y-35821904D02*
X56432676Y-35774285D01*
X56432676Y-35774285D02*
X56337438Y-35679047D01*
X56337438Y-35679047D02*
X56289819Y-35536190D01*
X56289819Y-35536190D02*
X56289819Y-35440952D01*
X56289819Y-35440952D02*
X56337438Y-35298095D01*
X56337438Y-35298095D02*
X56385057Y-35250476D01*
X56289819Y-34821904D02*
X57099342Y-34821904D01*
X57099342Y-34821904D02*
X57194580Y-34774285D01*
X57194580Y-34774285D02*
X57242200Y-34726666D01*
X57242200Y-34726666D02*
X57289819Y-34631428D01*
X57289819Y-34631428D02*
X57289819Y-34440952D01*
X57289819Y-34440952D02*
X57242200Y-34345714D01*
X57242200Y-34345714D02*
X57194580Y-34298095D01*
X57194580Y-34298095D02*
X57099342Y-34250476D01*
X57099342Y-34250476D02*
X56289819Y-34250476D01*
X56289819Y-33583809D02*
X56289819Y-33488571D01*
X56289819Y-33488571D02*
X56337438Y-33393333D01*
X56337438Y-33393333D02*
X56385057Y-33345714D01*
X56385057Y-33345714D02*
X56480295Y-33298095D01*
X56480295Y-33298095D02*
X56670771Y-33250476D01*
X56670771Y-33250476D02*
X56908866Y-33250476D01*
X56908866Y-33250476D02*
X57099342Y-33298095D01*
X57099342Y-33298095D02*
X57194580Y-33345714D01*
X57194580Y-33345714D02*
X57242200Y-33393333D01*
X57242200Y-33393333D02*
X57289819Y-33488571D01*
X57289819Y-33488571D02*
X57289819Y-33583809D01*
X57289819Y-33583809D02*
X57242200Y-33679047D01*
X57242200Y-33679047D02*
X57194580Y-33726666D01*
X57194580Y-33726666D02*
X57099342Y-33774285D01*
X57099342Y-33774285D02*
X56908866Y-33821904D01*
X56908866Y-33821904D02*
X56670771Y-33821904D01*
X56670771Y-33821904D02*
X56480295Y-33774285D01*
X56480295Y-33774285D02*
X56385057Y-33726666D01*
X56385057Y-33726666D02*
X56337438Y-33679047D01*
X56337438Y-33679047D02*
X56289819Y-33583809D01*
X56623152Y-32393333D02*
X57289819Y-32393333D01*
X56242200Y-32631428D02*
X56956485Y-32869523D01*
X56956485Y-32869523D02*
X56956485Y-32250476D01*
X46123095Y-35014819D02*
X46123095Y-35824342D01*
X46123095Y-35824342D02*
X46170714Y-35919580D01*
X46170714Y-35919580D02*
X46218333Y-35967200D01*
X46218333Y-35967200D02*
X46313571Y-36014819D01*
X46313571Y-36014819D02*
X46504047Y-36014819D01*
X46504047Y-36014819D02*
X46599285Y-35967200D01*
X46599285Y-35967200D02*
X46646904Y-35919580D01*
X46646904Y-35919580D02*
X46694523Y-35824342D01*
X46694523Y-35824342D02*
X46694523Y-35014819D01*
X47218333Y-36014819D02*
X47408809Y-36014819D01*
X47408809Y-36014819D02*
X47504047Y-35967200D01*
X47504047Y-35967200D02*
X47551666Y-35919580D01*
X47551666Y-35919580D02*
X47646904Y-35776723D01*
X47646904Y-35776723D02*
X47694523Y-35586247D01*
X47694523Y-35586247D02*
X47694523Y-35205295D01*
X47694523Y-35205295D02*
X47646904Y-35110057D01*
X47646904Y-35110057D02*
X47599285Y-35062438D01*
X47599285Y-35062438D02*
X47504047Y-35014819D01*
X47504047Y-35014819D02*
X47313571Y-35014819D01*
X47313571Y-35014819D02*
X47218333Y-35062438D01*
X47218333Y-35062438D02*
X47170714Y-35110057D01*
X47170714Y-35110057D02*
X47123095Y-35205295D01*
X47123095Y-35205295D02*
X47123095Y-35443390D01*
X47123095Y-35443390D02*
X47170714Y-35538628D01*
X47170714Y-35538628D02*
X47218333Y-35586247D01*
X47218333Y-35586247D02*
X47313571Y-35633866D01*
X47313571Y-35633866D02*
X47504047Y-35633866D01*
X47504047Y-35633866D02*
X47599285Y-35586247D01*
X47599285Y-35586247D02*
X47646904Y-35538628D01*
X47646904Y-35538628D02*
X47694523Y-35443390D01*
X31980714Y-57930057D02*
X32028333Y-57882438D01*
X32028333Y-57882438D02*
X32123571Y-57834819D01*
X32123571Y-57834819D02*
X32361666Y-57834819D01*
X32361666Y-57834819D02*
X32456904Y-57882438D01*
X32456904Y-57882438D02*
X32504523Y-57930057D01*
X32504523Y-57930057D02*
X32552142Y-58025295D01*
X32552142Y-58025295D02*
X32552142Y-58120533D01*
X32552142Y-58120533D02*
X32504523Y-58263390D01*
X32504523Y-58263390D02*
X31933095Y-58834819D01*
X31933095Y-58834819D02*
X32552142Y-58834819D01*
X32885476Y-57834819D02*
X33552142Y-57834819D01*
X33552142Y-57834819D02*
X33123571Y-58834819D01*
X33933095Y-58168152D02*
X33933095Y-59168152D01*
X33933095Y-58215771D02*
X34028333Y-58168152D01*
X34028333Y-58168152D02*
X34218809Y-58168152D01*
X34218809Y-58168152D02*
X34314047Y-58215771D01*
X34314047Y-58215771D02*
X34361666Y-58263390D01*
X34361666Y-58263390D02*
X34409285Y-58358628D01*
X34409285Y-58358628D02*
X34409285Y-58644342D01*
X34409285Y-58644342D02*
X34361666Y-58739580D01*
X34361666Y-58739580D02*
X34314047Y-58787200D01*
X34314047Y-58787200D02*
X34218809Y-58834819D01*
X34218809Y-58834819D02*
X34028333Y-58834819D01*
X34028333Y-58834819D02*
X33933095Y-58787200D01*
X32552142Y-56239580D02*
X32504523Y-56287200D01*
X32504523Y-56287200D02*
X32361666Y-56334819D01*
X32361666Y-56334819D02*
X32266428Y-56334819D01*
X32266428Y-56334819D02*
X32123571Y-56287200D01*
X32123571Y-56287200D02*
X32028333Y-56191961D01*
X32028333Y-56191961D02*
X31980714Y-56096723D01*
X31980714Y-56096723D02*
X31933095Y-55906247D01*
X31933095Y-55906247D02*
X31933095Y-55763390D01*
X31933095Y-55763390D02*
X31980714Y-55572914D01*
X31980714Y-55572914D02*
X32028333Y-55477676D01*
X32028333Y-55477676D02*
X32123571Y-55382438D01*
X32123571Y-55382438D02*
X32266428Y-55334819D01*
X32266428Y-55334819D02*
X32361666Y-55334819D01*
X32361666Y-55334819D02*
X32504523Y-55382438D01*
X32504523Y-55382438D02*
X32552142Y-55430057D01*
X33504523Y-56334819D02*
X32933095Y-56334819D01*
X33218809Y-56334819D02*
X33218809Y-55334819D01*
X33218809Y-55334819D02*
X33123571Y-55477676D01*
X33123571Y-55477676D02*
X33028333Y-55572914D01*
X33028333Y-55572914D02*
X32933095Y-55620533D01*
X34361666Y-55334819D02*
X34171190Y-55334819D01*
X34171190Y-55334819D02*
X34075952Y-55382438D01*
X34075952Y-55382438D02*
X34028333Y-55430057D01*
X34028333Y-55430057D02*
X33933095Y-55572914D01*
X33933095Y-55572914D02*
X33885476Y-55763390D01*
X33885476Y-55763390D02*
X33885476Y-56144342D01*
X33885476Y-56144342D02*
X33933095Y-56239580D01*
X33933095Y-56239580D02*
X33980714Y-56287200D01*
X33980714Y-56287200D02*
X34075952Y-56334819D01*
X34075952Y-56334819D02*
X34266428Y-56334819D01*
X34266428Y-56334819D02*
X34361666Y-56287200D01*
X34361666Y-56287200D02*
X34409285Y-56239580D01*
X34409285Y-56239580D02*
X34456904Y-56144342D01*
X34456904Y-56144342D02*
X34456904Y-55906247D01*
X34456904Y-55906247D02*
X34409285Y-55811009D01*
X34409285Y-55811009D02*
X34361666Y-55763390D01*
X34361666Y-55763390D02*
X34266428Y-55715771D01*
X34266428Y-55715771D02*
X34075952Y-55715771D01*
X34075952Y-55715771D02*
X33980714Y-55763390D01*
X33980714Y-55763390D02*
X33933095Y-55811009D01*
X33933095Y-55811009D02*
X33885476Y-55906247D01*
X23400238Y-34469819D02*
X23400238Y-33469819D01*
X23400238Y-33469819D02*
X23638333Y-33469819D01*
X23638333Y-33469819D02*
X23781190Y-33517438D01*
X23781190Y-33517438D02*
X23876428Y-33612676D01*
X23876428Y-33612676D02*
X23924047Y-33707914D01*
X23924047Y-33707914D02*
X23971666Y-33898390D01*
X23971666Y-33898390D02*
X23971666Y-34041247D01*
X23971666Y-34041247D02*
X23924047Y-34231723D01*
X23924047Y-34231723D02*
X23876428Y-34326961D01*
X23876428Y-34326961D02*
X23781190Y-34422200D01*
X23781190Y-34422200D02*
X23638333Y-34469819D01*
X23638333Y-34469819D02*
X23400238Y-34469819D01*
X24400238Y-34469819D02*
X24400238Y-33469819D01*
X24876428Y-34469819D02*
X24876428Y-33469819D01*
X24876428Y-33469819D02*
X25257380Y-33469819D01*
X25257380Y-33469819D02*
X25352618Y-33517438D01*
X25352618Y-33517438D02*
X25400237Y-33565057D01*
X25400237Y-33565057D02*
X25447856Y-33660295D01*
X25447856Y-33660295D02*
X25447856Y-33803152D01*
X25447856Y-33803152D02*
X25400237Y-33898390D01*
X25400237Y-33898390D02*
X25352618Y-33946009D01*
X25352618Y-33946009D02*
X25257380Y-33993628D01*
X25257380Y-33993628D02*
X24876428Y-33993628D01*
X25876428Y-34088866D02*
X26638333Y-34088866D01*
X27257380Y-33898390D02*
X27162142Y-33850771D01*
X27162142Y-33850771D02*
X27114523Y-33803152D01*
X27114523Y-33803152D02*
X27066904Y-33707914D01*
X27066904Y-33707914D02*
X27066904Y-33660295D01*
X27066904Y-33660295D02*
X27114523Y-33565057D01*
X27114523Y-33565057D02*
X27162142Y-33517438D01*
X27162142Y-33517438D02*
X27257380Y-33469819D01*
X27257380Y-33469819D02*
X27447856Y-33469819D01*
X27447856Y-33469819D02*
X27543094Y-33517438D01*
X27543094Y-33517438D02*
X27590713Y-33565057D01*
X27590713Y-33565057D02*
X27638332Y-33660295D01*
X27638332Y-33660295D02*
X27638332Y-33707914D01*
X27638332Y-33707914D02*
X27590713Y-33803152D01*
X27590713Y-33803152D02*
X27543094Y-33850771D01*
X27543094Y-33850771D02*
X27447856Y-33898390D01*
X27447856Y-33898390D02*
X27257380Y-33898390D01*
X27257380Y-33898390D02*
X27162142Y-33946009D01*
X27162142Y-33946009D02*
X27114523Y-33993628D01*
X27114523Y-33993628D02*
X27066904Y-34088866D01*
X27066904Y-34088866D02*
X27066904Y-34279342D01*
X27066904Y-34279342D02*
X27114523Y-34374580D01*
X27114523Y-34374580D02*
X27162142Y-34422200D01*
X27162142Y-34422200D02*
X27257380Y-34469819D01*
X27257380Y-34469819D02*
X27447856Y-34469819D01*
X27447856Y-34469819D02*
X27543094Y-34422200D01*
X27543094Y-34422200D02*
X27590713Y-34374580D01*
X27590713Y-34374580D02*
X27638332Y-34279342D01*
X27638332Y-34279342D02*
X27638332Y-34088866D01*
X27638332Y-34088866D02*
X27590713Y-33993628D01*
X27590713Y-33993628D02*
X27543094Y-33946009D01*
X27543094Y-33946009D02*
X27447856Y-33898390D01*
X28828809Y-34469819D02*
X28828809Y-33469819D01*
X28828809Y-33469819D02*
X29209761Y-33469819D01*
X29209761Y-33469819D02*
X29304999Y-33517438D01*
X29304999Y-33517438D02*
X29352618Y-33565057D01*
X29352618Y-33565057D02*
X29400237Y-33660295D01*
X29400237Y-33660295D02*
X29400237Y-33803152D01*
X29400237Y-33803152D02*
X29352618Y-33898390D01*
X29352618Y-33898390D02*
X29304999Y-33946009D01*
X29304999Y-33946009D02*
X29209761Y-33993628D01*
X29209761Y-33993628D02*
X28828809Y-33993628D01*
X30304999Y-34469819D02*
X29828809Y-34469819D01*
X29828809Y-34469819D02*
X29828809Y-33469819D01*
X30638333Y-33469819D02*
X30638333Y-34279342D01*
X30638333Y-34279342D02*
X30685952Y-34374580D01*
X30685952Y-34374580D02*
X30733571Y-34422200D01*
X30733571Y-34422200D02*
X30828809Y-34469819D01*
X30828809Y-34469819D02*
X31019285Y-34469819D01*
X31019285Y-34469819D02*
X31114523Y-34422200D01*
X31114523Y-34422200D02*
X31162142Y-34374580D01*
X31162142Y-34374580D02*
X31209761Y-34279342D01*
X31209761Y-34279342D02*
X31209761Y-33469819D01*
X32209761Y-33517438D02*
X32114523Y-33469819D01*
X32114523Y-33469819D02*
X31971666Y-33469819D01*
X31971666Y-33469819D02*
X31828809Y-33517438D01*
X31828809Y-33517438D02*
X31733571Y-33612676D01*
X31733571Y-33612676D02*
X31685952Y-33707914D01*
X31685952Y-33707914D02*
X31638333Y-33898390D01*
X31638333Y-33898390D02*
X31638333Y-34041247D01*
X31638333Y-34041247D02*
X31685952Y-34231723D01*
X31685952Y-34231723D02*
X31733571Y-34326961D01*
X31733571Y-34326961D02*
X31828809Y-34422200D01*
X31828809Y-34422200D02*
X31971666Y-34469819D01*
X31971666Y-34469819D02*
X32066904Y-34469819D01*
X32066904Y-34469819D02*
X32209761Y-34422200D01*
X32209761Y-34422200D02*
X32257380Y-34374580D01*
X32257380Y-34374580D02*
X32257380Y-34041247D01*
X32257380Y-34041247D02*
X32066904Y-34041247D01*
X27259819Y-28208333D02*
X27974104Y-28208333D01*
X27974104Y-28208333D02*
X28116961Y-28255952D01*
X28116961Y-28255952D02*
X28212200Y-28351190D01*
X28212200Y-28351190D02*
X28259819Y-28494047D01*
X28259819Y-28494047D02*
X28259819Y-28589285D01*
X28259819Y-27208333D02*
X28259819Y-27779761D01*
X28259819Y-27494047D02*
X27259819Y-27494047D01*
X27259819Y-27494047D02*
X27402676Y-27589285D01*
X27402676Y-27589285D02*
X27497914Y-27684523D01*
X27497914Y-27684523D02*
X27545533Y-27779761D01*
X43949285Y-58704819D02*
X43377857Y-58704819D01*
X43663571Y-58704819D02*
X43663571Y-57704819D01*
X43663571Y-57704819D02*
X43568333Y-57847676D01*
X43568333Y-57847676D02*
X43473095Y-57942914D01*
X43473095Y-57942914D02*
X43377857Y-57990533D01*
X44377857Y-58704819D02*
X44377857Y-57704819D01*
X44377857Y-57704819D02*
X44711190Y-58419104D01*
X44711190Y-58419104D02*
X45044523Y-57704819D01*
X45044523Y-57704819D02*
X45044523Y-58704819D01*
X43592142Y-56334819D02*
X43258809Y-55858628D01*
X43020714Y-56334819D02*
X43020714Y-55334819D01*
X43020714Y-55334819D02*
X43401666Y-55334819D01*
X43401666Y-55334819D02*
X43496904Y-55382438D01*
X43496904Y-55382438D02*
X43544523Y-55430057D01*
X43544523Y-55430057D02*
X43592142Y-55525295D01*
X43592142Y-55525295D02*
X43592142Y-55668152D01*
X43592142Y-55668152D02*
X43544523Y-55763390D01*
X43544523Y-55763390D02*
X43496904Y-55811009D01*
X43496904Y-55811009D02*
X43401666Y-55858628D01*
X43401666Y-55858628D02*
X43020714Y-55858628D01*
X44544523Y-56334819D02*
X43973095Y-56334819D01*
X44258809Y-56334819D02*
X44258809Y-55334819D01*
X44258809Y-55334819D02*
X44163571Y-55477676D01*
X44163571Y-55477676D02*
X44068333Y-55572914D01*
X44068333Y-55572914D02*
X43973095Y-55620533D01*
X45163571Y-55334819D02*
X45258809Y-55334819D01*
X45258809Y-55334819D02*
X45354047Y-55382438D01*
X45354047Y-55382438D02*
X45401666Y-55430057D01*
X45401666Y-55430057D02*
X45449285Y-55525295D01*
X45449285Y-55525295D02*
X45496904Y-55715771D01*
X45496904Y-55715771D02*
X45496904Y-55953866D01*
X45496904Y-55953866D02*
X45449285Y-56144342D01*
X45449285Y-56144342D02*
X45401666Y-56239580D01*
X45401666Y-56239580D02*
X45354047Y-56287200D01*
X45354047Y-56287200D02*
X45258809Y-56334819D01*
X45258809Y-56334819D02*
X45163571Y-56334819D01*
X45163571Y-56334819D02*
X45068333Y-56287200D01*
X45068333Y-56287200D02*
X45020714Y-56239580D01*
X45020714Y-56239580D02*
X44973095Y-56144342D01*
X44973095Y-56144342D02*
X44925476Y-55953866D01*
X44925476Y-55953866D02*
X44925476Y-55715771D01*
X44925476Y-55715771D02*
X44973095Y-55525295D01*
X44973095Y-55525295D02*
X45020714Y-55430057D01*
X45020714Y-55430057D02*
X45068333Y-55382438D01*
X45068333Y-55382438D02*
X45163571Y-55334819D01*
X38145952Y-29124819D02*
X37574524Y-29124819D01*
X37860238Y-29124819D02*
X37860238Y-28124819D01*
X37860238Y-28124819D02*
X37765000Y-28267676D01*
X37765000Y-28267676D02*
X37669762Y-28362914D01*
X37669762Y-28362914D02*
X37574524Y-28410533D01*
X38765000Y-28124819D02*
X38860238Y-28124819D01*
X38860238Y-28124819D02*
X38955476Y-28172438D01*
X38955476Y-28172438D02*
X39003095Y-28220057D01*
X39003095Y-28220057D02*
X39050714Y-28315295D01*
X39050714Y-28315295D02*
X39098333Y-28505771D01*
X39098333Y-28505771D02*
X39098333Y-28743866D01*
X39098333Y-28743866D02*
X39050714Y-28934342D01*
X39050714Y-28934342D02*
X39003095Y-29029580D01*
X39003095Y-29029580D02*
X38955476Y-29077200D01*
X38955476Y-29077200D02*
X38860238Y-29124819D01*
X38860238Y-29124819D02*
X38765000Y-29124819D01*
X38765000Y-29124819D02*
X38669762Y-29077200D01*
X38669762Y-29077200D02*
X38622143Y-29029580D01*
X38622143Y-29029580D02*
X38574524Y-28934342D01*
X38574524Y-28934342D02*
X38526905Y-28743866D01*
X38526905Y-28743866D02*
X38526905Y-28505771D01*
X38526905Y-28505771D02*
X38574524Y-28315295D01*
X38574524Y-28315295D02*
X38622143Y-28220057D01*
X38622143Y-28220057D02*
X38669762Y-28172438D01*
X38669762Y-28172438D02*
X38765000Y-28124819D01*
X39717381Y-28124819D02*
X39812619Y-28124819D01*
X39812619Y-28124819D02*
X39907857Y-28172438D01*
X39907857Y-28172438D02*
X39955476Y-28220057D01*
X39955476Y-28220057D02*
X40003095Y-28315295D01*
X40003095Y-28315295D02*
X40050714Y-28505771D01*
X40050714Y-28505771D02*
X40050714Y-28743866D01*
X40050714Y-28743866D02*
X40003095Y-28934342D01*
X40003095Y-28934342D02*
X39955476Y-29029580D01*
X39955476Y-29029580D02*
X39907857Y-29077200D01*
X39907857Y-29077200D02*
X39812619Y-29124819D01*
X39812619Y-29124819D02*
X39717381Y-29124819D01*
X39717381Y-29124819D02*
X39622143Y-29077200D01*
X39622143Y-29077200D02*
X39574524Y-29029580D01*
X39574524Y-29029580D02*
X39526905Y-28934342D01*
X39526905Y-28934342D02*
X39479286Y-28743866D01*
X39479286Y-28743866D02*
X39479286Y-28505771D01*
X39479286Y-28505771D02*
X39526905Y-28315295D01*
X39526905Y-28315295D02*
X39574524Y-28220057D01*
X39574524Y-28220057D02*
X39622143Y-28172438D01*
X39622143Y-28172438D02*
X39717381Y-28124819D01*
X40479286Y-28458152D02*
X40479286Y-29124819D01*
X40479286Y-28553390D02*
X40526905Y-28505771D01*
X40526905Y-28505771D02*
X40622143Y-28458152D01*
X40622143Y-28458152D02*
X40765000Y-28458152D01*
X40765000Y-28458152D02*
X40860238Y-28505771D01*
X40860238Y-28505771D02*
X40907857Y-28601009D01*
X40907857Y-28601009D02*
X40907857Y-29124819D01*
X39098333Y-26529580D02*
X39050714Y-26577200D01*
X39050714Y-26577200D02*
X38907857Y-26624819D01*
X38907857Y-26624819D02*
X38812619Y-26624819D01*
X38812619Y-26624819D02*
X38669762Y-26577200D01*
X38669762Y-26577200D02*
X38574524Y-26481961D01*
X38574524Y-26481961D02*
X38526905Y-26386723D01*
X38526905Y-26386723D02*
X38479286Y-26196247D01*
X38479286Y-26196247D02*
X38479286Y-26053390D01*
X38479286Y-26053390D02*
X38526905Y-25862914D01*
X38526905Y-25862914D02*
X38574524Y-25767676D01*
X38574524Y-25767676D02*
X38669762Y-25672438D01*
X38669762Y-25672438D02*
X38812619Y-25624819D01*
X38812619Y-25624819D02*
X38907857Y-25624819D01*
X38907857Y-25624819D02*
X39050714Y-25672438D01*
X39050714Y-25672438D02*
X39098333Y-25720057D01*
X39574524Y-26624819D02*
X39765000Y-26624819D01*
X39765000Y-26624819D02*
X39860238Y-26577200D01*
X39860238Y-26577200D02*
X39907857Y-26529580D01*
X39907857Y-26529580D02*
X40003095Y-26386723D01*
X40003095Y-26386723D02*
X40050714Y-26196247D01*
X40050714Y-26196247D02*
X40050714Y-25815295D01*
X40050714Y-25815295D02*
X40003095Y-25720057D01*
X40003095Y-25720057D02*
X39955476Y-25672438D01*
X39955476Y-25672438D02*
X39860238Y-25624819D01*
X39860238Y-25624819D02*
X39669762Y-25624819D01*
X39669762Y-25624819D02*
X39574524Y-25672438D01*
X39574524Y-25672438D02*
X39526905Y-25720057D01*
X39526905Y-25720057D02*
X39479286Y-25815295D01*
X39479286Y-25815295D02*
X39479286Y-26053390D01*
X39479286Y-26053390D02*
X39526905Y-26148628D01*
X39526905Y-26148628D02*
X39574524Y-26196247D01*
X39574524Y-26196247D02*
X39669762Y-26243866D01*
X39669762Y-26243866D02*
X39860238Y-26243866D01*
X39860238Y-26243866D02*
X39955476Y-26196247D01*
X39955476Y-26196247D02*
X40003095Y-26148628D01*
X40003095Y-26148628D02*
X40050714Y-26053390D01*
X37230714Y-50310057D02*
X37278333Y-50262438D01*
X37278333Y-50262438D02*
X37373571Y-50214819D01*
X37373571Y-50214819D02*
X37611666Y-50214819D01*
X37611666Y-50214819D02*
X37706904Y-50262438D01*
X37706904Y-50262438D02*
X37754523Y-50310057D01*
X37754523Y-50310057D02*
X37802142Y-50405295D01*
X37802142Y-50405295D02*
X37802142Y-50500533D01*
X37802142Y-50500533D02*
X37754523Y-50643390D01*
X37754523Y-50643390D02*
X37183095Y-51214819D01*
X37183095Y-51214819D02*
X37802142Y-51214819D01*
X38135476Y-50214819D02*
X38802142Y-50214819D01*
X38802142Y-50214819D02*
X38373571Y-51214819D01*
X39183095Y-50548152D02*
X39183095Y-51548152D01*
X39183095Y-50595771D02*
X39278333Y-50548152D01*
X39278333Y-50548152D02*
X39468809Y-50548152D01*
X39468809Y-50548152D02*
X39564047Y-50595771D01*
X39564047Y-50595771D02*
X39611666Y-50643390D01*
X39611666Y-50643390D02*
X39659285Y-50738628D01*
X39659285Y-50738628D02*
X39659285Y-51024342D01*
X39659285Y-51024342D02*
X39611666Y-51119580D01*
X39611666Y-51119580D02*
X39564047Y-51167200D01*
X39564047Y-51167200D02*
X39468809Y-51214819D01*
X39468809Y-51214819D02*
X39278333Y-51214819D01*
X39278333Y-51214819D02*
X39183095Y-51167200D01*
X37802142Y-48619580D02*
X37754523Y-48667200D01*
X37754523Y-48667200D02*
X37611666Y-48714819D01*
X37611666Y-48714819D02*
X37516428Y-48714819D01*
X37516428Y-48714819D02*
X37373571Y-48667200D01*
X37373571Y-48667200D02*
X37278333Y-48571961D01*
X37278333Y-48571961D02*
X37230714Y-48476723D01*
X37230714Y-48476723D02*
X37183095Y-48286247D01*
X37183095Y-48286247D02*
X37183095Y-48143390D01*
X37183095Y-48143390D02*
X37230714Y-47952914D01*
X37230714Y-47952914D02*
X37278333Y-47857676D01*
X37278333Y-47857676D02*
X37373571Y-47762438D01*
X37373571Y-47762438D02*
X37516428Y-47714819D01*
X37516428Y-47714819D02*
X37611666Y-47714819D01*
X37611666Y-47714819D02*
X37754523Y-47762438D01*
X37754523Y-47762438D02*
X37802142Y-47810057D01*
X38754523Y-48714819D02*
X38183095Y-48714819D01*
X38468809Y-48714819D02*
X38468809Y-47714819D01*
X38468809Y-47714819D02*
X38373571Y-47857676D01*
X38373571Y-47857676D02*
X38278333Y-47952914D01*
X38278333Y-47952914D02*
X38183095Y-48000533D01*
X39087857Y-47714819D02*
X39754523Y-47714819D01*
X39754523Y-47714819D02*
X39325952Y-48714819D01*
X26238333Y-50180057D02*
X26285952Y-50132438D01*
X26285952Y-50132438D02*
X26381190Y-50084819D01*
X26381190Y-50084819D02*
X26619285Y-50084819D01*
X26619285Y-50084819D02*
X26714523Y-50132438D01*
X26714523Y-50132438D02*
X26762142Y-50180057D01*
X26762142Y-50180057D02*
X26809761Y-50275295D01*
X26809761Y-50275295D02*
X26809761Y-50370533D01*
X26809761Y-50370533D02*
X26762142Y-50513390D01*
X26762142Y-50513390D02*
X26190714Y-51084819D01*
X26190714Y-51084819D02*
X26809761Y-51084819D01*
X27238333Y-51084819D02*
X27238333Y-50084819D01*
X27333571Y-50703866D02*
X27619285Y-51084819D01*
X27619285Y-50418152D02*
X27238333Y-50799104D01*
X28000238Y-50180057D02*
X28047857Y-50132438D01*
X28047857Y-50132438D02*
X28143095Y-50084819D01*
X28143095Y-50084819D02*
X28381190Y-50084819D01*
X28381190Y-50084819D02*
X28476428Y-50132438D01*
X28476428Y-50132438D02*
X28524047Y-50180057D01*
X28524047Y-50180057D02*
X28571666Y-50275295D01*
X28571666Y-50275295D02*
X28571666Y-50370533D01*
X28571666Y-50370533D02*
X28524047Y-50513390D01*
X28524047Y-50513390D02*
X27952619Y-51084819D01*
X27952619Y-51084819D02*
X28571666Y-51084819D01*
X26762142Y-48714819D02*
X26428809Y-48238628D01*
X26190714Y-48714819D02*
X26190714Y-47714819D01*
X26190714Y-47714819D02*
X26571666Y-47714819D01*
X26571666Y-47714819D02*
X26666904Y-47762438D01*
X26666904Y-47762438D02*
X26714523Y-47810057D01*
X26714523Y-47810057D02*
X26762142Y-47905295D01*
X26762142Y-47905295D02*
X26762142Y-48048152D01*
X26762142Y-48048152D02*
X26714523Y-48143390D01*
X26714523Y-48143390D02*
X26666904Y-48191009D01*
X26666904Y-48191009D02*
X26571666Y-48238628D01*
X26571666Y-48238628D02*
X26190714Y-48238628D01*
X27714523Y-48714819D02*
X27143095Y-48714819D01*
X27428809Y-48714819D02*
X27428809Y-47714819D01*
X27428809Y-47714819D02*
X27333571Y-47857676D01*
X27333571Y-47857676D02*
X27238333Y-47952914D01*
X27238333Y-47952914D02*
X27143095Y-48000533D01*
X28666904Y-48714819D02*
X28095476Y-48714819D01*
X28381190Y-48714819D02*
X28381190Y-47714819D01*
X28381190Y-47714819D02*
X28285952Y-47857676D01*
X28285952Y-47857676D02*
X28190714Y-47952914D01*
X28190714Y-47952914D02*
X28095476Y-48000533D01*
%TO.C,Y1*%
D11*
X47450000Y-45935000D02*
X53700000Y-45935000D01*
X53700000Y-50585000D02*
X47450000Y-50585000D01*
X47450000Y-50585000D02*
G75*
G02*
X47450000Y-45935000I0J2325000D01*
G01*
X53700000Y-45935000D02*
G75*
G02*
X53700000Y-50585000I0J-2325000D01*
G01*
%TO.C,U9*%
X37995000Y-32385000D02*
X55775000Y-32385000D01*
X37995000Y-37735000D02*
X37995000Y-32385000D01*
X38995000Y-38735000D02*
X37995000Y-37735000D01*
X55775000Y-32385000D02*
X55775000Y-38735000D01*
X55775000Y-38735000D02*
X38995000Y-38735000D01*
%TO.C,C16*%
X30695000Y-54630000D02*
X35695000Y-54630000D01*
X35695000Y-57130000D01*
X30695000Y-57130000D01*
X30695000Y-54630000D01*
%TO.C,J1*%
X24630000Y-23795000D02*
X25630000Y-22795000D01*
X24630000Y-32955000D02*
X24630000Y-23795000D01*
X25630000Y-22795000D02*
X30980000Y-22795000D01*
X30980000Y-22795000D02*
X30980000Y-32955000D01*
X30980000Y-32955000D02*
X24630000Y-32955000D01*
%TO.C,R10*%
X40425000Y-55880000D02*
X41085000Y-55880000D01*
X48045000Y-55880000D02*
X47385000Y-55880000D01*
X41085000Y-54630000D02*
X47385000Y-54630000D01*
X47385000Y-57130000D01*
X41085000Y-57130000D01*
X41085000Y-54630000D01*
%TO.C,C9*%
X36765000Y-24920000D02*
X41765000Y-24920000D01*
X41765000Y-27420000D01*
X36765000Y-27420000D01*
X36765000Y-24920000D01*
%TO.C,C17*%
X35945000Y-47010000D02*
X40945000Y-47010000D01*
X40945000Y-49510000D01*
X35945000Y-49510000D01*
X35945000Y-47010000D01*
%TO.C,R11*%
X23595000Y-48260000D02*
X24255000Y-48260000D01*
X31215000Y-48260000D02*
X30555000Y-48260000D01*
X24255000Y-47010000D02*
X30555000Y-47010000D01*
X30555000Y-49510000D01*
X24255000Y-49510000D01*
X24255000Y-47010000D01*
%TD*%
M02*
