M48
; DRILL file KiCad 10.0.5-1-g226df246f3 date 2026-09-09T20:59:18
; FORMAT={-:-/ absolute / metric / decimal}
; #@! TF.CreationDate,2026-09-09T20:59:18+02:00
; #@! TF.GenerationSoftware,Kicad,Pcbnew,10.0.5-1-g226df246f3
; #@! TF.FileFunction,MixedPlating,1,2
FMAT,2
METRIC
; #@! TA.AperFunction,Plated,PTH,ComponentDrill
T1C0.800
%
G90
G05
T1
X23.595Y-48.26
X23.995Y-24.065
X23.995Y-26.605
X23.995Y-29.145
X23.995Y-31.685
X30.695Y-55.88
X31.215Y-48.26
X31.615Y-24.065
X31.615Y-26.605
X31.615Y-29.145
X31.615Y-31.685
X35.695Y-55.88
X35.945Y-48.26
X36.765Y-26.17
X39.265Y-31.75
X39.265Y-39.37
X40.425Y-55.88
X40.945Y-48.26
X41.765Y-26.17
X41.805Y-31.75
X41.805Y-39.37
X44.345Y-31.75
X44.345Y-39.37
X46.885Y-31.75
X46.885Y-39.37
X48.045Y-55.88
X48.135Y-48.26
X49.425Y-31.75
X49.425Y-39.37
X51.965Y-31.75
X51.965Y-39.37
X53.015Y-48.26
X54.505Y-31.75
X54.505Y-39.37
M30
