%TF.GenerationSoftware,KiCad,Pcbnew,10.0.5-1-g226df246f3*%
%TF.CreationDate,2026-09-09T20:59:17+02:00*%
%TF.ProjectId,vinyl_adc_osc,76696e79-6c5f-4616-9463-5f6f73632e6b,rev?*%
%TF.SameCoordinates,Original*%
%TF.FileFunction,Legend,Top*%
%TF.FilePolarity,Positive*%
%FSLAX46Y46*%
G04 Gerber Fmt 4.6, Leading zero omitted, Abs format (unit mm)*
G04 Created by KiCad (PCBNEW 10.0.5-1-g226df246f3) date 2026-09-09 20:59:17*
%MOMM*%
%LPD*%
G01*
G04 APERTURE LIST*
%ADD10C,0.150000*%
%ADD11C,0.120000*%
G04 APERTURE END LIST*
D10*
X50098809Y-44718628D02*
X50098809Y-45194819D01*
X49765476Y-44194819D02*
X50098809Y-44718628D01*
X50098809Y-44718628D02*
X50432142Y-44194819D01*
X51289285Y-45194819D02*
X50717857Y-45194819D01*
X51003571Y-45194819D02*
X51003571Y-44194819D01*
X51003571Y-44194819D02*
X50908333Y-44337676D01*
X50908333Y-44337676D02*
X50813095Y-44432914D01*
X50813095Y-44432914D02*
X50717857Y-44480533D01*
X36389819Y-36321904D02*
X37199342Y-36321904D01*
X37199342Y-36321904D02*
X37294580Y-36274285D01*
X37294580Y-36274285D02*
X37342200Y-36226666D01*
X37342200Y-36226666D02*
X37389819Y-36131428D01*
X37389819Y-36131428D02*
X37389819Y-35940952D01*
X37389819Y-35940952D02*
X37342200Y-35845714D01*
X37342200Y-35845714D02*
X37294580Y-35798095D01*
X37294580Y-35798095D02*
X37199342Y-35750476D01*
X37199342Y-35750476D02*
X36389819Y-35750476D01*
X37389819Y-35226666D02*
X37389819Y-35036190D01*
X37389819Y-35036190D02*
X37342200Y-34940952D01*
X37342200Y-34940952D02*
X37294580Y-34893333D01*
X37294580Y-34893333D02*
X37151723Y-34798095D01*
X37151723Y-34798095D02*
X36961247Y-34750476D01*
X36961247Y-34750476D02*
X36580295Y-34750476D01*
X36580295Y-34750476D02*
X36485057Y-34798095D01*
X36485057Y-34798095D02*
X36437438Y-34845714D01*
X36437438Y-34845714D02*
X36389819Y-34940952D01*
X36389819Y-34940952D02*
X36389819Y-35131428D01*
X36389819Y-35131428D02*
X36437438Y-35226666D01*
X36437438Y-35226666D02*
X36485057Y-35274285D01*
X36485057Y-35274285D02*
X36580295Y-35321904D01*
X36580295Y-35321904D02*
X36818390Y-35321904D01*
X36818390Y-35321904D02*
X36913628Y-35274285D01*
X36913628Y-35274285D02*
X36961247Y-35226666D01*
X36961247Y-35226666D02*
X37008866Y-35131428D01*
X37008866Y-35131428D02*
X37008866Y-34940952D01*
X37008866Y-34940952D02*
X36961247Y-34845714D01*
X36961247Y-34845714D02*
X36913628Y-34798095D01*
X36913628Y-34798095D02*
X36818390Y-34750476D01*
X32552142Y-53739580D02*
X32504523Y-53787200D01*
X32504523Y-53787200D02*
X32361666Y-53834819D01*
X32361666Y-53834819D02*
X32266428Y-53834819D01*
X32266428Y-53834819D02*
X32123571Y-53787200D01*
X32123571Y-53787200D02*
X32028333Y-53691961D01*
X32028333Y-53691961D02*
X31980714Y-53596723D01*
X31980714Y-53596723D02*
X31933095Y-53406247D01*
X31933095Y-53406247D02*
X31933095Y-53263390D01*
X31933095Y-53263390D02*
X31980714Y-53072914D01*
X31980714Y-53072914D02*
X32028333Y-52977676D01*
X32028333Y-52977676D02*
X32123571Y-52882438D01*
X32123571Y-52882438D02*
X32266428Y-52834819D01*
X32266428Y-52834819D02*
X32361666Y-52834819D01*
X32361666Y-52834819D02*
X32504523Y-52882438D01*
X32504523Y-52882438D02*
X32552142Y-52930057D01*
X33504523Y-53834819D02*
X32933095Y-53834819D01*
X33218809Y-53834819D02*
X33218809Y-52834819D01*
X33218809Y-52834819D02*
X33123571Y-52977676D01*
X33123571Y-52977676D02*
X33028333Y-53072914D01*
X33028333Y-53072914D02*
X32933095Y-53120533D01*
X34361666Y-52834819D02*
X34171190Y-52834819D01*
X34171190Y-52834819D02*
X34075952Y-52882438D01*
X34075952Y-52882438D02*
X34028333Y-52930057D01*
X34028333Y-52930057D02*
X33933095Y-53072914D01*
X33933095Y-53072914D02*
X33885476Y-53263390D01*
X33885476Y-53263390D02*
X33885476Y-53644342D01*
X33885476Y-53644342D02*
X33933095Y-53739580D01*
X33933095Y-53739580D02*
X33980714Y-53787200D01*
X33980714Y-53787200D02*
X34075952Y-53834819D01*
X34075952Y-53834819D02*
X34266428Y-53834819D01*
X34266428Y-53834819D02*
X34361666Y-53787200D01*
X34361666Y-53787200D02*
X34409285Y-53739580D01*
X34409285Y-53739580D02*
X34456904Y-53644342D01*
X34456904Y-53644342D02*
X34456904Y-53406247D01*
X34456904Y-53406247D02*
X34409285Y-53311009D01*
X34409285Y-53311009D02*
X34361666Y-53263390D01*
X34361666Y-53263390D02*
X34266428Y-53215771D01*
X34266428Y-53215771D02*
X34075952Y-53215771D01*
X34075952Y-53215771D02*
X33980714Y-53263390D01*
X33980714Y-53263390D02*
X33933095Y-53311009D01*
X33933095Y-53311009D02*
X33885476Y-53406247D01*
X27471666Y-21189819D02*
X27471666Y-21904104D01*
X27471666Y-21904104D02*
X27424047Y-22046961D01*
X27424047Y-22046961D02*
X27328809Y-22142200D01*
X27328809Y-22142200D02*
X27185952Y-22189819D01*
X27185952Y-22189819D02*
X27090714Y-22189819D01*
X28471666Y-22189819D02*
X27900238Y-22189819D01*
X28185952Y-22189819D02*
X28185952Y-21189819D01*
X28185952Y-21189819D02*
X28090714Y-21332676D01*
X28090714Y-21332676D02*
X27995476Y-21427914D01*
X27995476Y-21427914D02*
X27900238Y-21475533D01*
X43592142Y-53964819D02*
X43258809Y-53488628D01*
X43020714Y-53964819D02*
X43020714Y-52964819D01*
X43020714Y-52964819D02*
X43401666Y-52964819D01*
X43401666Y-52964819D02*
X43496904Y-53012438D01*
X43496904Y-53012438D02*
X43544523Y-53060057D01*
X43544523Y-53060057D02*
X43592142Y-53155295D01*
X43592142Y-53155295D02*
X43592142Y-53298152D01*
X43592142Y-53298152D02*
X43544523Y-53393390D01*
X43544523Y-53393390D02*
X43496904Y-53441009D01*
X43496904Y-53441009D02*
X43401666Y-53488628D01*
X43401666Y-53488628D02*
X43020714Y-53488628D01*
X44544523Y-53964819D02*
X43973095Y-53964819D01*
X44258809Y-53964819D02*
X44258809Y-52964819D01*
X44258809Y-52964819D02*
X44163571Y-53107676D01*
X44163571Y-53107676D02*
X44068333Y-53202914D01*
X44068333Y-53202914D02*
X43973095Y-53250533D01*
X45163571Y-52964819D02*
X45258809Y-52964819D01*
X45258809Y-52964819D02*
X45354047Y-53012438D01*
X45354047Y-53012438D02*
X45401666Y-53060057D01*
X45401666Y-53060057D02*
X45449285Y-53155295D01*
X45449285Y-53155295D02*
X45496904Y-53345771D01*
X45496904Y-53345771D02*
X45496904Y-53583866D01*
X45496904Y-53583866D02*
X45449285Y-53774342D01*
X45449285Y-53774342D02*
X45401666Y-53869580D01*
X45401666Y-53869580D02*
X45354047Y-53917200D01*
X45354047Y-53917200D02*
X45258809Y-53964819D01*
X45258809Y-53964819D02*
X45163571Y-53964819D01*
X45163571Y-53964819D02*
X45068333Y-53917200D01*
X45068333Y-53917200D02*
X45020714Y-53869580D01*
X45020714Y-53869580D02*
X44973095Y-53774342D01*
X44973095Y-53774342D02*
X44925476Y-53583866D01*
X44925476Y-53583866D02*
X44925476Y-53345771D01*
X44925476Y-53345771D02*
X44973095Y-53155295D01*
X44973095Y-53155295D02*
X45020714Y-53060057D01*
X45020714Y-53060057D02*
X45068333Y-53012438D01*
X45068333Y-53012438D02*
X45163571Y-52964819D01*
X39098333Y-24029580D02*
X39050714Y-24077200D01*
X39050714Y-24077200D02*
X38907857Y-24124819D01*
X38907857Y-24124819D02*
X38812619Y-24124819D01*
X38812619Y-24124819D02*
X38669762Y-24077200D01*
X38669762Y-24077200D02*
X38574524Y-23981961D01*
X38574524Y-23981961D02*
X38526905Y-23886723D01*
X38526905Y-23886723D02*
X38479286Y-23696247D01*
X38479286Y-23696247D02*
X38479286Y-23553390D01*
X38479286Y-23553390D02*
X38526905Y-23362914D01*
X38526905Y-23362914D02*
X38574524Y-23267676D01*
X38574524Y-23267676D02*
X38669762Y-23172438D01*
X38669762Y-23172438D02*
X38812619Y-23124819D01*
X38812619Y-23124819D02*
X38907857Y-23124819D01*
X38907857Y-23124819D02*
X39050714Y-23172438D01*
X39050714Y-23172438D02*
X39098333Y-23220057D01*
X39574524Y-24124819D02*
X39765000Y-24124819D01*
X39765000Y-24124819D02*
X39860238Y-24077200D01*
X39860238Y-24077200D02*
X39907857Y-24029580D01*
X39907857Y-24029580D02*
X40003095Y-23886723D01*
X40003095Y-23886723D02*
X40050714Y-23696247D01*
X40050714Y-23696247D02*
X40050714Y-23315295D01*
X40050714Y-23315295D02*
X40003095Y-23220057D01*
X40003095Y-23220057D02*
X39955476Y-23172438D01*
X39955476Y-23172438D02*
X39860238Y-23124819D01*
X39860238Y-23124819D02*
X39669762Y-23124819D01*
X39669762Y-23124819D02*
X39574524Y-23172438D01*
X39574524Y-23172438D02*
X39526905Y-23220057D01*
X39526905Y-23220057D02*
X39479286Y-23315295D01*
X39479286Y-23315295D02*
X39479286Y-23553390D01*
X39479286Y-23553390D02*
X39526905Y-23648628D01*
X39526905Y-23648628D02*
X39574524Y-23696247D01*
X39574524Y-23696247D02*
X39669762Y-23743866D01*
X39669762Y-23743866D02*
X39860238Y-23743866D01*
X39860238Y-23743866D02*
X39955476Y-23696247D01*
X39955476Y-23696247D02*
X40003095Y-23648628D01*
X40003095Y-23648628D02*
X40050714Y-23553390D01*
X37802142Y-46119580D02*
X37754523Y-46167200D01*
X37754523Y-46167200D02*
X37611666Y-46214819D01*
X37611666Y-46214819D02*
X37516428Y-46214819D01*
X37516428Y-46214819D02*
X37373571Y-46167200D01*
X37373571Y-46167200D02*
X37278333Y-46071961D01*
X37278333Y-46071961D02*
X37230714Y-45976723D01*
X37230714Y-45976723D02*
X37183095Y-45786247D01*
X37183095Y-45786247D02*
X37183095Y-45643390D01*
X37183095Y-45643390D02*
X37230714Y-45452914D01*
X37230714Y-45452914D02*
X37278333Y-45357676D01*
X37278333Y-45357676D02*
X37373571Y-45262438D01*
X37373571Y-45262438D02*
X37516428Y-45214819D01*
X37516428Y-45214819D02*
X37611666Y-45214819D01*
X37611666Y-45214819D02*
X37754523Y-45262438D01*
X37754523Y-45262438D02*
X37802142Y-45310057D01*
X38754523Y-46214819D02*
X38183095Y-46214819D01*
X38468809Y-46214819D02*
X38468809Y-45214819D01*
X38468809Y-45214819D02*
X38373571Y-45357676D01*
X38373571Y-45357676D02*
X38278333Y-45452914D01*
X38278333Y-45452914D02*
X38183095Y-45500533D01*
X39087857Y-45214819D02*
X39754523Y-45214819D01*
X39754523Y-45214819D02*
X39325952Y-46214819D01*
X26762142Y-46344819D02*
X26428809Y-45868628D01*
X26190714Y-46344819D02*
X26190714Y-45344819D01*
X26190714Y-45344819D02*
X26571666Y-45344819D01*
X26571666Y-45344819D02*
X26666904Y-45392438D01*
X26666904Y-45392438D02*
X26714523Y-45440057D01*
X26714523Y-45440057D02*
X26762142Y-45535295D01*
X26762142Y-45535295D02*
X26762142Y-45678152D01*
X26762142Y-45678152D02*
X26714523Y-45773390D01*
X26714523Y-45773390D02*
X26666904Y-45821009D01*
X26666904Y-45821009D02*
X26571666Y-45868628D01*
X26571666Y-45868628D02*
X26190714Y-45868628D01*
X27714523Y-46344819D02*
X27143095Y-46344819D01*
X27428809Y-46344819D02*
X27428809Y-45344819D01*
X27428809Y-45344819D02*
X27333571Y-45487676D01*
X27333571Y-45487676D02*
X27238333Y-45582914D01*
X27238333Y-45582914D02*
X27143095Y-45630533D01*
X28666904Y-46344819D02*
X28095476Y-46344819D01*
X28381190Y-46344819D02*
X28381190Y-45344819D01*
X28381190Y-45344819D02*
X28285952Y-45487676D01*
X28285952Y-45487676D02*
X28190714Y-45582914D01*
X28190714Y-45582914D02*
X28095476Y-45630533D01*
%TO.C,Y1*%
D11*
X47450000Y-45825000D02*
X53700000Y-45825000D01*
X53700000Y-50695000D02*
X47450000Y-50695000D01*
X47450000Y-50695000D02*
G75*
G02*
X47450000Y-45825000I0J2435000D01*
G01*
X53700000Y-45825000D02*
G75*
G02*
X53700000Y-50695000I0J-2435000D01*
G01*
%TO.C,U9*%
X37935000Y-33310000D02*
X37935000Y-34560000D01*
X37935000Y-36560000D02*
X37935000Y-37810000D01*
X37935000Y-37810000D02*
X55835000Y-37810000D01*
X55835000Y-33310000D02*
X37935000Y-33310000D01*
X55835000Y-37810000D02*
X55835000Y-33310000D01*
X37935000Y-34560000D02*
G75*
G02*
X37935000Y-36560000I0J-1000000D01*
G01*
%TO.C,C16*%
X30575000Y-54510000D02*
X35815000Y-54510000D01*
X30575000Y-54847000D02*
X30575000Y-54510000D01*
X30575000Y-57250000D02*
X30575000Y-56913000D01*
X35815000Y-54510000D02*
X35815000Y-54847000D01*
X35815000Y-56913000D02*
X35815000Y-57250000D01*
X35815000Y-57250000D02*
X30575000Y-57250000D01*
%TO.C,J1*%
X25555000Y-22735000D02*
X25555000Y-33015000D01*
X25555000Y-33015000D02*
X30055000Y-33015000D01*
X26805000Y-22735000D02*
X25555000Y-22735000D01*
X30055000Y-22735000D02*
X28805000Y-22735000D01*
X30055000Y-33015000D02*
X30055000Y-22735000D01*
X28805000Y-22735000D02*
G75*
G02*
X26805000Y-22735000I-1000000J0D01*
G01*
%TO.C,R10*%
X40965000Y-54510000D02*
X47505000Y-54510000D01*
X40965000Y-54840000D02*
X40965000Y-54510000D01*
X40965000Y-56920000D02*
X40965000Y-57250000D01*
X40965000Y-57250000D02*
X47505000Y-57250000D01*
X47505000Y-54510000D02*
X47505000Y-54840000D01*
X47505000Y-57250000D02*
X47505000Y-56920000D01*
%TO.C,C9*%
X36645000Y-24800000D02*
X41885000Y-24800000D01*
X36645000Y-25137000D02*
X36645000Y-24800000D01*
X36645000Y-27540000D02*
X36645000Y-27203000D01*
X41885000Y-24800000D02*
X41885000Y-25137000D01*
X41885000Y-27203000D02*
X41885000Y-27540000D01*
X41885000Y-27540000D02*
X36645000Y-27540000D01*
%TO.C,C17*%
X35825000Y-46890000D02*
X41065000Y-46890000D01*
X35825000Y-47227000D02*
X35825000Y-46890000D01*
X35825000Y-49630000D02*
X35825000Y-49293000D01*
X41065000Y-46890000D02*
X41065000Y-47227000D01*
X41065000Y-49293000D02*
X41065000Y-49630000D01*
X41065000Y-49630000D02*
X35825000Y-49630000D01*
%TO.C,R11*%
X24135000Y-46890000D02*
X30675000Y-46890000D01*
X24135000Y-47220000D02*
X24135000Y-46890000D01*
X24135000Y-49300000D02*
X24135000Y-49630000D01*
X24135000Y-49630000D02*
X30675000Y-49630000D01*
X30675000Y-46890000D02*
X30675000Y-47220000D01*
X30675000Y-49630000D02*
X30675000Y-49300000D01*
%TD*%
M02*
