<svg viewBox="0 0 900 300" width="900" height="300" xmlns="http://www.w3.org/2000/svg" role="img" aria-label="What the converter actually outputs">
<rect width="900" height="300" fill="#151312"/>
<style>.t{font:600 17px system-ui,sans-serif;fill:#ffffff}.s{font:14px system-ui,sans-serif;fill:#8f8888}.a{font:12.5px ui-monospace,SFMono-Regular,Menlo,monospace;fill:#8f8888}.lab{font:600 13.5px system-ui,sans-serif}.note{font:13px system-ui,sans-serif;fill:#c3c2b7}</style>
<text class="t" x="18" y="26">What the converter actually outputs</text>
<text class="s" x="18" y="45">The first 192 modulator bits of each channel, 1.536 million of them per second. Filled = 1.</text>
<text class="lab" x="18" y="111" fill="#c3c2b7">Left</text>
<rect x="70.02" y="96" width="3.42" height="26" fill="#3987e5" opacity="0.95"/>
<rect x="82.08" y="96" width="3.42" height="26" fill="#3987e5" opacity="0.95"/>
<rect x="86.10" y="96" width="3.42" height="26" fill="#3987e5" opacity="0.95"/>
<rect x="94.15" y="96" width="3.42" height="26" fill="#3987e5" opacity="0.95"/>
<rect x="102.19" y="96" width="3.42" height="26" fill="#3987e5" opacity="0.95"/>
<rect x="110.23" y="96" width="3.42" height="26" fill="#3987e5" opacity="0.95"/>
<rect x="118.27" y="96" width="3.42" height="26" fill="#3987e5" opacity="0.95"/>
<rect x="126.31" y="96" width="3.42" height="26" fill="#3987e5" opacity="0.95"/>
<rect x="134.35" y="96" width="3.42" height="26" fill="#3987e5" opacity="0.95"/>
<rect x="146.42" y="96" width="3.42" height="26" fill="#3987e5" opacity="0.95"/>
<rect x="150.44" y="96" width="3.42" height="26" fill="#3987e5" opacity="0.95"/>
<rect x="158.48" y="96" width="3.42" height="26" fill="#3987e5" opacity="0.95"/>
<rect x="166.52" y="96" width="3.42" height="26" fill="#3987e5" opacity="0.95"/>
<rect x="174.56" y="96" width="3.42" height="26" fill="#3987e5" opacity="0.95"/>
<rect x="186.62" y="96" width="3.42" height="26" fill="#3987e5" opacity="0.95"/>
<rect x="190.65" y="96" width="3.42" height="26" fill="#3987e5" opacity="0.95"/>
<rect x="198.69" y="96" width="3.42" height="26" fill="#3987e5" opacity="0.95"/>
<rect x="210.75" y="96" width="3.42" height="26" fill="#3987e5" opacity="0.95"/>
<rect x="214.77" y="96" width="3.42" height="26" fill="#3987e5" opacity="0.95"/>
<rect x="222.81" y="96" width="3.42" height="26" fill="#3987e5" opacity="0.95"/>
<rect x="230.85" y="96" width="3.42" height="26" fill="#3987e5" opacity="0.95"/>
<rect x="242.92" y="96" width="3.42" height="26" fill="#3987e5" opacity="0.95"/>
<rect x="246.94" y="96" width="3.42" height="26" fill="#3987e5" opacity="0.95"/>
<rect x="259.00" y="96" width="3.42" height="26" fill="#3987e5" opacity="0.95"/>
<rect x="263.02" y="96" width="3.42" height="26" fill="#3987e5" opacity="0.95"/>
<rect x="275.08" y="96" width="3.42" height="26" fill="#3987e5" opacity="0.95"/>
<rect x="279.10" y="96" width="3.42" height="26" fill="#3987e5" opacity="0.95"/>
<rect x="287.15" y="96" width="3.42" height="26" fill="#3987e5" opacity="0.95"/>
<rect x="299.21" y="96" width="3.42" height="26" fill="#3987e5" opacity="0.95"/>
<rect x="303.23" y="96" width="3.42" height="26" fill="#3987e5" opacity="0.95"/>
<rect x="315.29" y="96" width="3.42" height="26" fill="#3987e5" opacity="0.95"/>
<rect x="323.33" y="96" width="3.42" height="26" fill="#3987e5" opacity="0.95"/>
<rect x="327.35" y="96" width="3.42" height="26" fill="#3987e5" opacity="0.95"/>
<rect x="339.42" y="96" width="3.42" height="26" fill="#3987e5" opacity="0.95"/>
<rect x="343.44" y="96" width="3.42" height="26" fill="#3987e5" opacity="0.95"/>
<rect x="355.50" y="96" width="3.42" height="26" fill="#3987e5" opacity="0.95"/>
<rect x="359.52" y="96" width="3.42" height="26" fill="#3987e5" opacity="0.95"/>
<rect x="371.58" y="96" width="3.42" height="26" fill="#3987e5" opacity="0.95"/>
<rect x="379.62" y="96" width="3.42" height="26" fill="#3987e5" opacity="0.95"/>
<rect x="383.65" y="96" width="3.42" height="26" fill="#3987e5" opacity="0.95"/>
<rect x="395.71" y="96" width="3.42" height="26" fill="#3987e5" opacity="0.95"/>
<rect x="403.75" y="96" width="3.42" height="26" fill="#3987e5" opacity="0.95"/>
<rect x="411.79" y="96" width="3.42" height="26" fill="#3987e5" opacity="0.95"/>
<rect x="415.81" y="96" width="3.42" height="26" fill="#3987e5" opacity="0.95"/>
<rect x="427.88" y="96" width="3.42" height="26" fill="#3987e5" opacity="0.95"/>
<rect x="435.92" y="96" width="3.42" height="26" fill="#3987e5" opacity="0.95"/>
<rect x="443.96" y="96" width="3.42" height="26" fill="#3987e5" opacity="0.95"/>
<rect x="452.00" y="96" width="3.42" height="26" fill="#3987e5" opacity="0.95"/>
<rect x="456.02" y="96" width="3.42" height="26" fill="#3987e5" opacity="0.95"/>
<rect x="468.08" y="96" width="3.42" height="26" fill="#3987e5" opacity="0.95"/>
<rect x="476.12" y="96" width="3.42" height="26" fill="#3987e5" opacity="0.95"/>
<rect x="484.17" y="96" width="3.42" height="26" fill="#3987e5" opacity="0.95"/>
<rect x="492.21" y="96" width="3.42" height="26" fill="#3987e5" opacity="0.95"/>
<rect x="500.25" y="96" width="3.42" height="26" fill="#3987e5" opacity="0.95"/>
<rect x="508.29" y="96" width="3.42" height="26" fill="#3987e5" opacity="0.95"/>
<rect x="516.33" y="96" width="3.42" height="26" fill="#3987e5" opacity="0.95"/>
<rect x="520.35" y="96" width="3.42" height="26" fill="#3987e5" opacity="0.95"/>
<rect x="532.42" y="96" width="3.42" height="26" fill="#3987e5" opacity="0.95"/>
<rect x="544.48" y="96" width="3.42" height="26" fill="#3987e5" opacity="0.95"/>
<rect x="548.50" y="96" width="3.42" height="26" fill="#3987e5" opacity="0.95"/>
<rect x="556.54" y="96" width="3.42" height="26" fill="#3987e5" opacity="0.95"/>
<rect x="564.58" y="96" width="3.42" height="26" fill="#3987e5" opacity="0.95"/>
<rect x="572.62" y="96" width="3.42" height="26" fill="#3987e5" opacity="0.95"/>
<rect x="580.67" y="96" width="3.42" height="26" fill="#3987e5" opacity="0.95"/>
<rect x="588.71" y="96" width="3.42" height="26" fill="#3987e5" opacity="0.95"/>
<rect x="596.75" y="96" width="3.42" height="26" fill="#3987e5" opacity="0.95"/>
<rect x="604.79" y="96" width="3.42" height="26" fill="#3987e5" opacity="0.95"/>
<rect x="616.85" y="96" width="3.42" height="26" fill="#3987e5" opacity="0.95"/>
<rect x="620.88" y="96" width="3.42" height="26" fill="#3987e5" opacity="0.95"/>
<rect x="628.92" y="96" width="3.42" height="26" fill="#3987e5" opacity="0.95"/>
<rect x="636.96" y="96" width="3.42" height="26" fill="#3987e5" opacity="0.95"/>
<rect x="649.02" y="96" width="3.42" height="26" fill="#3987e5" opacity="0.95"/>
<rect x="653.04" y="96" width="3.42" height="26" fill="#3987e5" opacity="0.95"/>
<rect x="661.08" y="96" width="3.42" height="26" fill="#3987e5" opacity="0.95"/>
<rect x="669.12" y="96" width="3.42" height="26" fill="#3987e5" opacity="0.95"/>
<rect x="677.17" y="96" width="3.42" height="26" fill="#3987e5" opacity="0.95"/>
<rect x="689.23" y="96" width="3.42" height="26" fill="#3987e5" opacity="0.95"/>
<rect x="693.25" y="96" width="3.42" height="26" fill="#3987e5" opacity="0.95"/>
<rect x="705.31" y="96" width="3.42" height="26" fill="#3987e5" opacity="0.95"/>
<rect x="709.33" y="96" width="3.42" height="26" fill="#3987e5" opacity="0.95"/>
<rect x="721.40" y="96" width="3.42" height="26" fill="#3987e5" opacity="0.95"/>
<rect x="725.42" y="96" width="3.42" height="26" fill="#3987e5" opacity="0.95"/>
<rect x="733.46" y="96" width="3.42" height="26" fill="#3987e5" opacity="0.95"/>
<rect x="745.52" y="96" width="3.42" height="26" fill="#3987e5" opacity="0.95"/>
<rect x="749.54" y="96" width="3.42" height="26" fill="#3987e5" opacity="0.95"/>
<rect x="757.58" y="96" width="3.42" height="26" fill="#3987e5" opacity="0.95"/>
<rect x="769.65" y="96" width="3.42" height="26" fill="#3987e5" opacity="0.95"/>
<rect x="777.69" y="96" width="3.42" height="26" fill="#3987e5" opacity="0.95"/>
<rect x="781.71" y="96" width="3.42" height="26" fill="#3987e5" opacity="0.95"/>
<rect x="793.77" y="96" width="3.42" height="26" fill="#3987e5" opacity="0.95"/>
<rect x="797.79" y="96" width="3.42" height="26" fill="#3987e5" opacity="0.95"/>
<rect x="809.85" y="96" width="3.42" height="26" fill="#3987e5" opacity="0.95"/>
<rect x="817.90" y="96" width="3.42" height="26" fill="#3987e5" opacity="0.95"/>
<rect x="821.92" y="96" width="3.42" height="26" fill="#3987e5" opacity="0.95"/>
<rect x="833.98" y="96" width="3.42" height="26" fill="#3987e5" opacity="0.95"/>
<rect x="66" y="96" width="772" height="26" fill="none" stroke="rgba(255,255,255,0.09)" stroke-width="1"/>
<text class="a" x="838" y="141" text-anchor="end">49.5% ones over this window</text>
<text class="lab" x="18" y="197" fill="#c3c2b7">Right</text>
<rect x="70.02" y="182" width="3.42" height="26" fill="#d95926" opacity="0.95"/>
<rect x="78.06" y="182" width="3.42" height="26" fill="#d95926" opacity="0.95"/>
<rect x="86.10" y="182" width="3.42" height="26" fill="#d95926" opacity="0.95"/>
<rect x="94.15" y="182" width="3.42" height="26" fill="#d95926" opacity="0.95"/>
<rect x="102.19" y="182" width="3.42" height="26" fill="#d95926" opacity="0.95"/>
<rect x="110.23" y="182" width="3.42" height="26" fill="#d95926" opacity="0.95"/>
<rect x="118.27" y="182" width="3.42" height="26" fill="#d95926" opacity="0.95"/>
<rect x="126.31" y="182" width="3.42" height="26" fill="#d95926" opacity="0.95"/>
<rect x="134.35" y="182" width="3.42" height="26" fill="#d95926" opacity="0.95"/>
<rect x="142.40" y="182" width="3.42" height="26" fill="#d95926" opacity="0.95"/>
<rect x="150.44" y="182" width="3.42" height="26" fill="#d95926" opacity="0.95"/>
<rect x="162.50" y="182" width="3.42" height="26" fill="#d95926" opacity="0.95"/>
<rect x="166.52" y="182" width="3.42" height="26" fill="#d95926" opacity="0.95"/>
<rect x="174.56" y="182" width="3.42" height="26" fill="#d95926" opacity="0.95"/>
<rect x="182.60" y="182" width="3.42" height="26" fill="#d95926" opacity="0.95"/>
<rect x="190.65" y="182" width="3.42" height="26" fill="#d95926" opacity="0.95"/>
<rect x="198.69" y="182" width="3.42" height="26" fill="#d95926" opacity="0.95"/>
<rect x="210.75" y="182" width="3.42" height="26" fill="#d95926" opacity="0.95"/>
<rect x="214.77" y="182" width="3.42" height="26" fill="#d95926" opacity="0.95"/>
<rect x="222.81" y="182" width="3.42" height="26" fill="#d95926" opacity="0.95"/>
<rect x="230.85" y="182" width="3.42" height="26" fill="#d95926" opacity="0.95"/>
<rect x="242.92" y="182" width="3.42" height="26" fill="#d95926" opacity="0.95"/>
<rect x="246.94" y="182" width="3.42" height="26" fill="#d95926" opacity="0.95"/>
<rect x="259.00" y="182" width="3.42" height="26" fill="#d95926" opacity="0.95"/>
<rect x="263.02" y="182" width="3.42" height="26" fill="#d95926" opacity="0.95"/>
<rect x="271.06" y="182" width="3.42" height="26" fill="#d95926" opacity="0.95"/>
<rect x="279.10" y="182" width="3.42" height="26" fill="#d95926" opacity="0.95"/>
<rect x="291.17" y="182" width="3.42" height="26" fill="#d95926" opacity="0.95"/>
<rect x="295.19" y="182" width="3.42" height="26" fill="#d95926" opacity="0.95"/>
<rect x="307.25" y="182" width="3.42" height="26" fill="#d95926" opacity="0.95"/>
<rect x="311.27" y="182" width="3.42" height="26" fill="#d95926" opacity="0.95"/>
<rect x="323.33" y="182" width="3.42" height="26" fill="#d95926" opacity="0.95"/>
<rect x="327.35" y="182" width="3.42" height="26" fill="#d95926" opacity="0.95"/>
<rect x="339.42" y="182" width="3.42" height="26" fill="#d95926" opacity="0.95"/>
<rect x="343.44" y="182" width="3.42" height="26" fill="#d95926" opacity="0.95"/>
<rect x="355.50" y="182" width="3.42" height="26" fill="#d95926" opacity="0.95"/>
<rect x="359.52" y="182" width="3.42" height="26" fill="#d95926" opacity="0.95"/>
<rect x="371.58" y="182" width="3.42" height="26" fill="#d95926" opacity="0.95"/>
<rect x="375.60" y="182" width="3.42" height="26" fill="#d95926" opacity="0.95"/>
<rect x="387.67" y="182" width="3.42" height="26" fill="#d95926" opacity="0.95"/>
<rect x="395.71" y="182" width="3.42" height="26" fill="#d95926" opacity="0.95"/>
<rect x="403.75" y="182" width="3.42" height="26" fill="#d95926" opacity="0.95"/>
<rect x="407.77" y="182" width="3.42" height="26" fill="#d95926" opacity="0.95"/>
<rect x="419.83" y="182" width="3.42" height="26" fill="#d95926" opacity="0.95"/>
<rect x="423.85" y="182" width="3.42" height="26" fill="#d95926" opacity="0.95"/>
<rect x="435.92" y="182" width="3.42" height="26" fill="#d95926" opacity="0.95"/>
<rect x="443.96" y="182" width="3.42" height="26" fill="#d95926" opacity="0.95"/>
<rect x="452.00" y="182" width="3.42" height="26" fill="#d95926" opacity="0.95"/>
<rect x="456.02" y="182" width="3.42" height="26" fill="#d95926" opacity="0.95"/>
<rect x="468.08" y="182" width="3.42" height="26" fill="#d95926" opacity="0.95"/>
<rect x="476.12" y="182" width="3.42" height="26" fill="#d95926" opacity="0.95"/>
<rect x="484.17" y="182" width="3.42" height="26" fill="#d95926" opacity="0.95"/>
<rect x="492.21" y="182" width="3.42" height="26" fill="#d95926" opacity="0.95"/>
<rect x="500.25" y="182" width="3.42" height="26" fill="#d95926" opacity="0.95"/>
<rect x="504.27" y="182" width="3.42" height="26" fill="#d95926" opacity="0.95"/>
<rect x="516.33" y="182" width="3.42" height="26" fill="#d95926" opacity="0.95"/>
<rect x="524.38" y="182" width="3.42" height="26" fill="#d95926" opacity="0.95"/>
<rect x="532.42" y="182" width="3.42" height="26" fill="#d95926" opacity="0.95"/>
<rect x="540.46" y="182" width="3.42" height="26" fill="#d95926" opacity="0.95"/>
<rect x="548.50" y="182" width="3.42" height="26" fill="#d95926" opacity="0.95"/>
<rect x="556.54" y="182" width="3.42" height="26" fill="#d95926" opacity="0.95"/>
<rect x="564.58" y="182" width="3.42" height="26" fill="#d95926" opacity="0.95"/>
<rect x="572.62" y="182" width="3.42" height="26" fill="#d95926" opacity="0.95"/>
<rect x="580.67" y="182" width="3.42" height="26" fill="#d95926" opacity="0.95"/>
<rect x="588.71" y="182" width="3.42" height="26" fill="#d95926" opacity="0.95"/>
<rect x="596.75" y="182" width="3.42" height="26" fill="#d95926" opacity="0.95"/>
<rect x="604.79" y="182" width="3.42" height="26" fill="#d95926" opacity="0.95"/>
<rect x="616.85" y="182" width="3.42" height="26" fill="#d95926" opacity="0.95"/>
<rect x="620.88" y="182" width="3.42" height="26" fill="#d95926" opacity="0.95"/>
<rect x="628.92" y="182" width="3.42" height="26" fill="#d95926" opacity="0.95"/>
<rect x="636.96" y="182" width="3.42" height="26" fill="#d95926" opacity="0.95"/>
<rect x="645.00" y="182" width="3.42" height="26" fill="#d95926" opacity="0.95"/>
<rect x="653.04" y="182" width="3.42" height="26" fill="#d95926" opacity="0.95"/>
<rect x="661.08" y="182" width="3.42" height="26" fill="#d95926" opacity="0.95"/>
<rect x="669.12" y="182" width="3.42" height="26" fill="#d95926" opacity="0.95"/>
<rect x="681.19" y="182" width="3.42" height="26" fill="#d95926" opacity="0.95"/>
<rect x="685.21" y="182" width="3.42" height="26" fill="#d95926" opacity="0.95"/>
<rect x="697.27" y="182" width="3.42" height="26" fill="#d95926" opacity="0.95"/>
<rect x="701.29" y="182" width="3.42" height="26" fill="#d95926" opacity="0.95"/>
<rect x="709.33" y="182" width="3.42" height="26" fill="#d95926" opacity="0.95"/>
<rect x="717.38" y="182" width="3.42" height="26" fill="#d95926" opacity="0.95"/>
<rect x="729.44" y="182" width="3.42" height="26" fill="#d95926" opacity="0.95"/>
<rect x="733.46" y="182" width="3.42" height="26" fill="#d95926" opacity="0.95"/>
<rect x="741.50" y="182" width="3.42" height="26" fill="#d95926" opacity="0.95"/>
<rect x="753.56" y="182" width="3.42" height="26" fill="#d95926" opacity="0.95"/>
<rect x="757.58" y="182" width="3.42" height="26" fill="#d95926" opacity="0.95"/>
<rect x="769.65" y="182" width="3.42" height="26" fill="#d95926" opacity="0.95"/>
<rect x="773.67" y="182" width="3.42" height="26" fill="#d95926" opacity="0.95"/>
<rect x="785.73" y="182" width="3.42" height="26" fill="#d95926" opacity="0.95"/>
<rect x="789.75" y="182" width="3.42" height="26" fill="#d95926" opacity="0.95"/>
<rect x="801.81" y="182" width="3.42" height="26" fill="#d95926" opacity="0.95"/>
<rect x="805.83" y="182" width="3.42" height="26" fill="#d95926" opacity="0.95"/>
<rect x="817.90" y="182" width="3.42" height="26" fill="#d95926" opacity="0.95"/>
<rect x="821.92" y="182" width="3.42" height="26" fill="#d95926" opacity="0.95"/>
<rect x="833.98" y="182" width="3.42" height="26" fill="#d95926" opacity="0.95"/>
<rect x="66" y="182" width="772" height="26" fill="none" stroke="rgba(255,255,255,0.09)" stroke-width="1"/>
<text class="a" x="838" y="227" text-anchor="end">49.5% ones over this window</text>
<text class="a" x="66" y="227">125 microseconds of stream</text>
<text class="note" x="18" y="266">With the inputs shorted the stream is a fine, irregular hatch sitting at half density: the loop is modulating.</text>
<text class="note" x="18" y="286">A broken loop looks completely different — long solid bars, because it oscillates rail to rail instead of tracking the input.</text>
</svg>
