%TF.GenerationSoftware,KiCad,Pcbnew,10.0.4*%
%TF.CreationDate,2026-08-30T18:59:51+02:00*%
%TF.ProjectId,vinyl_adc_channel_l,76696e79-6c5f-4616-9463-5f6368616e6e,rev?*%
%TF.SameCoordinates,Original*%
%TF.FileFunction,Copper,L2,Bot*%
%TF.FilePolarity,Positive*%
%FSLAX46Y46*%
G04 Gerber Fmt 4.6, Leading zero omitted, Abs format (unit mm)*
G04 Created by KiCad (PCBNEW 10.0.4) date 2026-08-30 18:59:51*
%MOMM*%
%LPD*%
G01*
G04 APERTURE LIST*
G04 Aperture macros list*
%AMRoundRect*
0 Rectangle with rounded corners*
0 $1 Rounding radius*
0 $2 $3 $4 $5 $6 $7 $8 $9 X,Y pos of 4 corners*
0 Add a 4 corners polygon primitive as box body*
4,1,4,$2,$3,$4,$5,$6,$7,$8,$9,$2,$3,0*
0 Add four circle primitives for the rounded corners*
1,1,$1+$1,$2,$3*
1,1,$1+$1,$4,$5*
1,1,$1+$1,$6,$7*
1,1,$1+$1,$8,$9*
0 Add four rect primitives between the rounded corners*
20,1,$1+$1,$2,$3,$4,$5,0*
20,1,$1+$1,$4,$5,$6,$7,0*
20,1,$1+$1,$6,$7,$8,$9,0*
20,1,$1+$1,$8,$9,$2,$3,0*%
G04 Aperture macros list end*
%TA.AperFunction,ComponentPad*%
%ADD10C,1.600000*%
%TD*%
%TA.AperFunction,ComponentPad*%
%ADD11RoundRect,0.250000X-0.950000X-0.550000X0.950000X-0.550000X0.950000X0.550000X-0.950000X0.550000X0*%
%TD*%
%TA.AperFunction,ComponentPad*%
%ADD12O,2.400000X1.600000*%
%TD*%
%TA.AperFunction,ComponentPad*%
%ADD13R,1.700000X1.700000*%
%TD*%
%TA.AperFunction,ComponentPad*%
%ADD14C,1.700000*%
%TD*%
%TA.AperFunction,ComponentPad*%
%ADD15R,3.000000X3.000000*%
%TD*%
%TA.AperFunction,ComponentPad*%
%ADD16C,3.000000*%
%TD*%
%TA.AperFunction,Conductor*%
%ADD17C,0.800000*%
%TD*%
G04 APERTURE END LIST*
D10*
%TO.P,R20,1*%
%TO.N,Net-(C20-Pad2)*%
X99800000Y-93395000D03*
%TO.P,R20,2*%
%TO.N,Net-(C21-Pad1)*%
X99800000Y-101015000D03*
%TD*%
%TO.P,C31,1*%
%TO.N,+5V*%
X49600000Y-72600000D03*
%TO.P,C31,2*%
%TO.N,GND*%
X49600000Y-77600000D03*
%TD*%
%TO.P,C22,1*%
%TO.N,Net-(U20A--)*%
X48110000Y-90205000D03*
%TO.P,C22,2*%
%TO.N,Net-(C22-Pad2)*%
X53110000Y-90205000D03*
%TD*%
%TO.P,C26,1*%
%TO.N,GND*%
X63110000Y-108205000D03*
%TO.P,C26,2*%
%TO.N,-5V*%
X58110000Y-108205000D03*
%TD*%
%TO.P,R23,1*%
%TO.N,VREF_N*%
X43800000Y-102205000D03*
%TO.P,R23,2*%
%TO.N,Net-(U20A--)*%
X51420000Y-102205000D03*
%TD*%
%TO.P,R26,1*%
%TO.N,VREF_N*%
X79420000Y-106205000D03*
%TO.P,R26,2*%
%TO.N,Net-(U20B--)*%
X71800000Y-106205000D03*
%TD*%
%TO.P,R22,1*%
%TO.N,DACN_L*%
X37800000Y-98205000D03*
%TO.P,R22,2*%
%TO.N,Net-(U20A--)*%
X45420000Y-98205000D03*
%TD*%
%TO.P,C28,1*%
%TO.N,+5V*%
X85110000Y-67205000D03*
%TO.P,C28,2*%
%TO.N,GND*%
X80110000Y-67205000D03*
%TD*%
D11*
%TO.P,U21,1*%
%TO.N,GND*%
X88800000Y-44395000D03*
D12*
%TO.P,U21,2*%
%TO.N,VREF_P*%
X88800000Y-46935000D03*
%TO.P,U21,3*%
%TO.N,Net-(U21--)*%
X88800000Y-49475000D03*
%TO.P,U21,4*%
%TO.N,GND*%
X88800000Y-52015000D03*
%TO.P,U21,5*%
%TO.N,N/C*%
X96420000Y-52015000D03*
%TO.P,U21,6*%
X96420000Y-49475000D03*
%TO.P,U21,7*%
%TO.N,CMP_L*%
X96420000Y-46935000D03*
%TO.P,U21,8*%
%TO.N,+5V*%
X96420000Y-44395000D03*
%TD*%
D11*
%TO.P,U24,1*%
%TO.N,Q_OUT*%
X36790000Y-65780000D03*
D12*
%TO.P,U24,2*%
%TO.N,DACN_L*%
X36790000Y-68320000D03*
%TO.P,U24,3*%
%TO.N,QN_OUT*%
X36790000Y-70860000D03*
%TO.P,U24,4*%
%TO.N,DACP_L*%
X36790000Y-73400000D03*
%TO.P,U24,5*%
%TO.N,GND*%
X36790000Y-75940000D03*
%TO.P,U24,6*%
%TO.N,N/C*%
X36790000Y-78480000D03*
%TO.P,U24,7*%
%TO.N,GND*%
X36790000Y-81020000D03*
%TO.P,U24,8*%
%TO.N,N/C*%
X44410000Y-81020000D03*
%TO.P,U24,9*%
%TO.N,GND*%
X44410000Y-78480000D03*
%TO.P,U24,10*%
%TO.N,N/C*%
X44410000Y-75940000D03*
%TO.P,U24,11*%
%TO.N,GND*%
X44410000Y-73400000D03*
%TO.P,U24,12*%
%TO.N,N/C*%
X44410000Y-70860000D03*
%TO.P,U24,13*%
%TO.N,GND*%
X44410000Y-68320000D03*
%TO.P,U24,14*%
%TO.N,+5V*%
X44410000Y-65780000D03*
%TD*%
D11*
%TO.P,U22,1*%
%TO.N,Net-(C24-Pad2)*%
X78800000Y-71395000D03*
D12*
%TO.P,U22,2*%
%TO.N,Net-(U22A--)*%
X78800000Y-73935000D03*
%TO.P,U22,3*%
%TO.N,GND*%
X78800000Y-76475000D03*
%TO.P,U22,4*%
%TO.N,-5V*%
X78800000Y-79015000D03*
%TO.P,U22,5*%
%TO.N,GND*%
X86420000Y-79015000D03*
%TO.P,U22,6*%
%TO.N,Net-(U22B--)*%
X86420000Y-76475000D03*
%TO.P,U22,7*%
%TO.N,Net-(R27-Pad1)*%
X86420000Y-73935000D03*
%TO.P,U22,8*%
%TO.N,+5V*%
X86420000Y-71395000D03*
%TD*%
D10*
%TO.P,R35,1*%
%TO.N,VREF_P*%
X74800000Y-40205000D03*
%TO.P,R35,2*%
%TO.N,Net-(U21--)*%
X82420000Y-40205000D03*
%TD*%
%TO.P,C20,1*%
%TO.N,Net-(J20-Pin_1)*%
X106800000Y-102205000D03*
%TO.P,C20,2*%
%TO.N,Net-(C20-Pad2)*%
X106800000Y-92205000D03*
%TD*%
%TO.P,R31,1*%
%TO.N,Net-(C24-Pad2)*%
X92180000Y-79205000D03*
%TO.P,R31,2*%
%TO.N,Net-(U22B--)*%
X99800000Y-79205000D03*
%TD*%
D11*
%TO.P,U23,1*%
%TO.N,+5V*%
X52800000Y-42060000D03*
D12*
%TO.P,U23,2*%
%TO.N,CMP_L*%
X52800000Y-44600000D03*
%TO.P,U23,3*%
%TO.N,MCLK*%
X52800000Y-47140000D03*
%TO.P,U23,4*%
%TO.N,+5V*%
X52800000Y-49680000D03*
%TO.P,U23,5*%
%TO.N,Q_OUT*%
X52800000Y-52220000D03*
%TO.P,U23,6*%
%TO.N,QN_OUT*%
X52800000Y-54760000D03*
%TO.P,U23,7*%
%TO.N,GND*%
X52800000Y-57300000D03*
%TO.P,U23,8*%
%TO.N,N/C*%
X60420000Y-57300000D03*
%TO.P,U23,9*%
X60420000Y-54760000D03*
%TO.P,U23,10*%
%TO.N,+5V*%
X60420000Y-52220000D03*
%TO.P,U23,11*%
%TO.N,GND*%
X60420000Y-49680000D03*
%TO.P,U23,12*%
X60420000Y-47140000D03*
%TO.P,U23,13*%
%TO.N,+5V*%
X60420000Y-44600000D03*
%TO.P,U23,14*%
X60420000Y-42060000D03*
%TD*%
D10*
%TO.P,R36,1*%
%TO.N,+5V*%
X74800000Y-54205000D03*
%TO.P,R36,2*%
%TO.N,Net-(U21--)*%
X82420000Y-54205000D03*
%TD*%
D13*
%TO.P,J7,1*%
%TO.N,GND*%
X78890000Y-30000000D03*
D14*
%TO.P,J7,2*%
%TO.N,+5V*%
X78890000Y-32540000D03*
%TO.P,J7,3*%
%TO.N,GND*%
X76350000Y-30000000D03*
%TO.P,J7,4*%
%TO.N,VREF_P*%
X76350000Y-32540000D03*
%TO.P,J7,5*%
%TO.N,GND*%
X73810000Y-30000000D03*
%TO.P,J7,6*%
%TO.N,VREF_N*%
X73810000Y-32540000D03*
%TO.P,J7,7*%
%TO.N,GND*%
X71270000Y-30000000D03*
%TO.P,J7,8*%
%TO.N,MCLK*%
X71270000Y-32540000D03*
%TO.P,J7,9*%
%TO.N,GND*%
X68730000Y-30000000D03*
%TO.P,J7,10*%
%TO.N,PUMP*%
X68730000Y-32540000D03*
%TO.P,J7,11*%
%TO.N,GND*%
X66190000Y-30000000D03*
%TO.P,J7,12*%
%TO.N,QL*%
X66190000Y-32540000D03*
%TO.P,J7,13*%
%TO.N,GND*%
X63650000Y-30000000D03*
%TO.P,J7,14*%
%TO.N,QR*%
X63650000Y-32540000D03*
%TO.P,J7,15*%
%TO.N,GND*%
X61110000Y-30000000D03*
%TO.P,J7,16*%
%TO.N,-5V*%
X61110000Y-32540000D03*
%TD*%
D10*
%TO.P,R33,1*%
%TO.N,Net-(C24-Pad2)*%
X74800000Y-49538300D03*
%TO.P,R33,2*%
%TO.N,Net-(U21--)*%
X82420000Y-49538300D03*
%TD*%
%TO.P,R32,1*%
%TO.N,Net-(U22B--)*%
X99800000Y-74205000D03*
%TO.P,R32,2*%
%TO.N,Net-(R27-Pad1)*%
X92180000Y-74205000D03*
%TD*%
%TO.P,R27,1*%
%TO.N,Net-(R27-Pad1)*%
X79420000Y-91205000D03*
%TO.P,R27,2*%
%TO.N,Net-(U20B--)*%
X71800000Y-91205000D03*
%TD*%
%TO.P,R21,1*%
%TO.N,Net-(R21-Pad1)*%
X43800000Y-94205000D03*
%TO.P,R21,2*%
%TO.N,Net-(U20A--)*%
X51420000Y-94205000D03*
%TD*%
%TO.P,R37,1*%
%TO.N,+5V*%
X102610000Y-39395000D03*
%TO.P,R37,2*%
%TO.N,CMP_L*%
X102610000Y-47015000D03*
%TD*%
%TO.P,C29,1*%
%TO.N,GND*%
X85110000Y-84205000D03*
%TO.P,C29,2*%
%TO.N,-5V*%
X80110000Y-84205000D03*
%TD*%
%TO.P,R28,1*%
%TO.N,Net-(C23-Pad2)*%
X65780000Y-79000000D03*
%TO.P,R28,2*%
%TO.N,Net-(U22A--)*%
X73400000Y-79000000D03*
%TD*%
%TO.P,C30,1*%
%TO.N,+5V*%
X65610000Y-42180000D03*
%TO.P,C30,2*%
%TO.N,GND*%
X65610000Y-47180000D03*
%TD*%
D13*
%TO.P,RV20,1*%
%TO.N,Net-(C21-Pad1)*%
X92140000Y-108415000D03*
D14*
%TO.P,RV20,2*%
%TO.N,Net-(R21-Pad1)*%
X89600000Y-108415000D03*
%TO.P,RV20,3*%
%TO.N,GND*%
X87060000Y-108415000D03*
%TD*%
D11*
%TO.P,U20,1*%
%TO.N,Net-(C22-Pad2)*%
X56800000Y-94395000D03*
D12*
%TO.P,U20,2*%
%TO.N,Net-(U20A--)*%
X56800000Y-96935000D03*
%TO.P,U20,3*%
%TO.N,GND*%
X56800000Y-99475000D03*
%TO.P,U20,4*%
%TO.N,-5V*%
X56800000Y-102015000D03*
%TO.P,U20,5*%
%TO.N,GND*%
X64420000Y-102015000D03*
%TO.P,U20,6*%
%TO.N,Net-(U20B--)*%
X64420000Y-99475000D03*
%TO.P,U20,7*%
%TO.N,Net-(C23-Pad2)*%
X64420000Y-96935000D03*
%TO.P,U20,8*%
%TO.N,+5V*%
X64420000Y-94395000D03*
%TD*%
D10*
%TO.P,R25,1*%
%TO.N,DACP_L*%
X61980000Y-83200000D03*
%TO.P,R25,2*%
%TO.N,Net-(U20B--)*%
X69600000Y-83200000D03*
%TD*%
%TO.P,C21,1*%
%TO.N,Net-(C21-Pad1)*%
X93800000Y-100705000D03*
%TO.P,C21,2*%
%TO.N,GND*%
X93800000Y-95705000D03*
%TD*%
%TO.P,C23,1*%
%TO.N,Net-(U20B--)*%
X72110000Y-87205000D03*
%TO.P,C23,2*%
%TO.N,Net-(C23-Pad2)*%
X67110000Y-87205000D03*
%TD*%
%TO.P,C27,1*%
%TO.N,+5V*%
X95110000Y-39205000D03*
%TO.P,C27,2*%
%TO.N,GND*%
X90110000Y-39205000D03*
%TD*%
D15*
%TO.P,J20,1*%
%TO.N,Net-(J20-Pin_1)*%
X115800000Y-100745000D03*
D16*
%TO.P,J20,2*%
%TO.N,GND*%
X115800000Y-95665000D03*
%TD*%
D10*
%TO.P,C24,1*%
%TO.N,Net-(U22A--)*%
X69090000Y-62000000D03*
%TO.P,C24,2*%
%TO.N,Net-(C24-Pad2)*%
X74090000Y-62000000D03*
%TD*%
%TO.P,R29,1*%
%TO.N,DACN_L*%
X65780000Y-72600000D03*
%TO.P,R29,2*%
%TO.N,Net-(U22A--)*%
X73400000Y-72600000D03*
%TD*%
D13*
%TO.P,J21,1*%
%TO.N,QL*%
X42600000Y-40400000D03*
D14*
%TO.P,J21,2*%
%TO.N,Q_OUT*%
X42600000Y-37860000D03*
%TO.P,J21,3*%
%TO.N,QR*%
X42600000Y-35320000D03*
%TD*%
D10*
%TO.P,C25,1*%
%TO.N,+5V*%
X63110000Y-89205000D03*
%TO.P,C25,2*%
%TO.N,GND*%
X58110000Y-89205000D03*
%TD*%
%TO.P,R24,1*%
%TO.N,Net-(C22-Pad2)*%
X79410000Y-98338300D03*
%TO.P,R24,2*%
%TO.N,Net-(U20B--)*%
X71790000Y-98338300D03*
%TD*%
%TO.P,R34,1*%
%TO.N,DACP_L*%
X74800000Y-44871700D03*
%TO.P,R34,2*%
%TO.N,Net-(U21--)*%
X82420000Y-44871700D03*
%TD*%
%TO.P,R30,1*%
%TO.N,VREF_N*%
X65780000Y-67200000D03*
%TO.P,R30,2*%
%TO.N,Net-(U22A--)*%
X73400000Y-67200000D03*
%TD*%
%TO.N,Net-(C20-Pad2)*%
D17*
X100990000Y-92205000D02*
X99800000Y-93395000D01*
X106800000Y-92205000D02*
X100990000Y-92205000D01*
%TO.N,Net-(C21-Pad1)*%
X93800000Y-104653300D02*
X93800000Y-100705000D01*
X99490000Y-100705000D02*
X99800000Y-101015000D01*
X93800000Y-100705000D02*
X99490000Y-100705000D01*
X92140000Y-108415000D02*
X92140000Y-106313300D01*
X92140000Y-106313300D02*
X93800000Y-104653300D01*
%TO.N,+5V*%
X99038300Y-42966700D02*
X102610000Y-39395000D01*
X58858000Y-52220000D02*
X57968300Y-52220000D01*
X86216200Y-71395000D02*
X86420000Y-71395000D01*
X55593500Y-49338200D02*
X55251700Y-49680000D01*
X47647000Y-65780000D02*
X46861700Y-65780000D01*
X57968300Y-55458700D02*
X47647000Y-65780000D01*
X96623800Y-44395000D02*
X98871700Y-44395000D01*
X57968300Y-52220000D02*
X57968300Y-55458700D01*
X61645900Y-42060000D02*
X60420000Y-42060000D01*
X64420000Y-94395000D02*
X61968300Y-94395000D01*
X57064600Y-45503700D02*
X53620800Y-42060000D01*
X61645900Y-42060000D02*
X62871700Y-42060000D01*
X61968300Y-90346700D02*
X63110000Y-89205000D01*
X98871700Y-42966700D02*
X98871700Y-44395000D01*
X84539100Y-63944100D02*
X84539100Y-67205000D01*
X62871700Y-42180000D02*
X65610000Y-42180000D01*
X55976200Y-46592100D02*
X57064600Y-45503700D01*
X83968300Y-67775800D02*
X84539100Y-67205000D01*
X62871700Y-42060000D02*
X62871700Y-42180000D01*
X59194200Y-52220000D02*
X58858000Y-52220000D01*
X55976200Y-49338200D02*
X55976200Y-46592100D01*
X98871700Y-42966700D02*
X99038300Y-42966700D01*
X74800000Y-54205000D02*
X84539100Y-63944100D01*
X46861700Y-65780000D02*
X49600000Y-68518300D01*
X84539100Y-67205000D02*
X85110000Y-67205000D01*
X44410000Y-65780000D02*
X46861700Y-65780000D01*
X55976200Y-49338200D02*
X55593500Y-49338200D01*
X58858000Y-52220000D02*
X55976200Y-49338200D01*
X49600000Y-68518300D02*
X49600000Y-72600000D01*
X62871700Y-42180000D02*
X62871700Y-44600000D01*
X53559400Y-49680000D02*
X55251700Y-49680000D01*
X53620800Y-42060000D02*
X52800000Y-42060000D01*
X57064600Y-45503700D02*
X57968300Y-44600000D01*
X61968300Y-94395000D02*
X61968300Y-90346700D01*
X86216200Y-71395000D02*
X83968300Y-71395000D01*
X60420000Y-44600000D02*
X62871700Y-44600000D01*
X96623800Y-44395000D02*
X96420000Y-44395000D01*
X95110000Y-39205000D02*
X98871700Y-42966700D01*
X83968300Y-71395000D02*
X83968300Y-67775800D01*
X88445000Y-32540000D02*
X95110000Y-39205000D01*
X78890000Y-32540000D02*
X88445000Y-32540000D01*
X60420000Y-44600000D02*
X57968300Y-44600000D01*
X53559400Y-49680000D02*
X52800000Y-49680000D01*
X60420000Y-52220000D02*
X59194200Y-52220000D01*
%TO.N,Net-(U20A--)*%
X54150000Y-96935000D02*
X56800000Y-96935000D01*
X48110000Y-90895000D02*
X48110000Y-90205000D01*
X51420000Y-94205000D02*
X54150000Y-96935000D01*
X51420000Y-99665000D02*
X51420000Y-102205000D01*
X50420000Y-93205000D02*
X48110000Y-90895000D01*
X45420000Y-98205000D02*
X50420000Y-93205000D01*
X54150000Y-96935000D02*
X51420000Y-99665000D01*
X51420000Y-94205000D02*
X50420000Y-93205000D01*
%TO.N,Net-(C22-Pad2)*%
X56800000Y-94395000D02*
X53110000Y-90705000D01*
X53110000Y-90705000D02*
X53110000Y-90205000D01*
%TO.N,-5V*%
X77318600Y-94715500D02*
X75666900Y-96367200D01*
X75666900Y-107604400D02*
X73001800Y-110269500D01*
X80110000Y-84205000D02*
X77318600Y-86996400D01*
X81251700Y-79015000D02*
X81251700Y-83063300D01*
X77318600Y-86996400D02*
X77318600Y-94715500D01*
X60174500Y-110269500D02*
X58110000Y-108205000D01*
X73001800Y-110269500D02*
X60174500Y-110269500D01*
X59251700Y-107063300D02*
X58110000Y-108205000D01*
X81251700Y-83063300D02*
X80110000Y-84205000D01*
X56800000Y-102015000D02*
X59251700Y-102015000D01*
X75666900Y-96367200D02*
X75666900Y-107604400D01*
X78800000Y-79015000D02*
X81251700Y-79015000D01*
X59251700Y-102015000D02*
X59251700Y-107063300D01*
%TO.N,VREF_N*%
X73668700Y-111956300D02*
X78744600Y-106880400D01*
X53551300Y-111956300D02*
X73668700Y-111956300D01*
X78744600Y-106880400D02*
X78744600Y-106205000D01*
X64600000Y-66020000D02*
X65780000Y-67200000D01*
X78744600Y-106205000D02*
X79420000Y-106205000D01*
X68900000Y-48438248D02*
X64600000Y-52738248D01*
X73810000Y-32540000D02*
X73810000Y-38295862D01*
X73810000Y-38295862D02*
X68900000Y-43205862D01*
X43800000Y-102205000D02*
X53551300Y-111956300D01*
X64600000Y-52738248D02*
X64600000Y-66020000D01*
X68900000Y-43205862D02*
X68900000Y-48438248D01*
%TO.N,Net-(U20B--)*%
X72110000Y-90895000D02*
X72110000Y-87205000D01*
X71800000Y-106205000D02*
X70653300Y-105058300D01*
X64420000Y-99475000D02*
X70653300Y-99475000D01*
X69600000Y-84695000D02*
X72110000Y-87205000D01*
X71790000Y-98338300D02*
X71800000Y-98328300D01*
X71800000Y-98328300D02*
X71800000Y-91205000D01*
X70653300Y-99475000D02*
X71790000Y-98338300D01*
X70653300Y-105058300D02*
X70653300Y-99475000D01*
X71800000Y-91205000D02*
X72110000Y-90895000D01*
X69600000Y-83200000D02*
X69600000Y-84695000D01*
%TO.N,DACN_L*%
X34338300Y-81953500D02*
X34338300Y-68320000D01*
X41675000Y-89290200D02*
X34338300Y-81953500D01*
X58365200Y-72600000D02*
X41675000Y-89290200D01*
X65780000Y-72600000D02*
X58365200Y-72600000D01*
X36790000Y-68320000D02*
X34338300Y-68320000D01*
X37800000Y-93165200D02*
X37800000Y-98205000D01*
X41675000Y-89290200D02*
X37800000Y-93165200D01*
%TO.N,VREF_P*%
X85409500Y-45996200D02*
X86348300Y-46935000D01*
X76350100Y-34982900D02*
X76350000Y-34982900D01*
X78801700Y-38802900D02*
X78801700Y-37434500D01*
X77399600Y-40205000D02*
X78801700Y-38802900D01*
X83254400Y-38118700D02*
X85409500Y-40273800D01*
X76350000Y-34982900D02*
X76350000Y-32540000D01*
X88800000Y-46935000D02*
X86348300Y-46935000D01*
X78801700Y-38118700D02*
X83254400Y-38118700D01*
X74800000Y-40205000D02*
X77399600Y-40205000D01*
X78801700Y-37434500D02*
X76350100Y-34982900D01*
X85409500Y-40273800D02*
X85409500Y-45996200D01*
%TO.N,Net-(U21--)*%
X82420000Y-49538300D02*
X82420000Y-54205000D01*
X82420000Y-49538300D02*
X82420000Y-44871700D01*
X82420000Y-44871700D02*
X82420000Y-40205000D01*
X88800000Y-49475000D02*
X82483300Y-49475000D01*
X82483300Y-49475000D02*
X82420000Y-49538300D01*
%TO.N,CMP_L*%
X102610000Y-47015000D02*
X102530000Y-46935000D01*
X102530000Y-46935000D02*
X96420000Y-46935000D01*
%TO.N,Q_OUT*%
X41630400Y-37860000D02*
X42600000Y-37860000D01*
X40495900Y-52220000D02*
X40495900Y-38994500D01*
X40495900Y-52220000D02*
X52800000Y-52220000D01*
X36790000Y-55925900D02*
X40495900Y-52220000D01*
X40495900Y-38994500D02*
X41630400Y-37860000D01*
X36790000Y-65780000D02*
X36790000Y-55925900D01*
%TO.N,QN_OUT*%
X36790000Y-70860000D02*
X39241700Y-70860000D01*
X39774600Y-64691400D02*
X49706000Y-54760000D01*
X39774600Y-70327100D02*
X39774600Y-64691400D01*
X49706000Y-54760000D02*
X52800000Y-54760000D01*
X39241700Y-70860000D02*
X39774600Y-70327100D01*
%TO.N,DACP_L*%
X61980000Y-79820000D02*
X61980000Y-83200000D01*
X70100000Y-76900000D02*
X70100000Y-68620862D01*
X70100000Y-76900000D02*
X64900000Y-76900000D01*
X74800000Y-44871700D02*
X66630001Y-53041699D01*
X70100000Y-68620862D02*
X66630001Y-65150863D01*
X66630001Y-53041699D02*
X66630001Y-65150863D01*
X64900000Y-76900000D02*
X61980000Y-79820000D01*
%TO.N,Net-(C24-Pad2)*%
X72707300Y-60617300D02*
X74090000Y-62000000D01*
X74783300Y-51286600D02*
X72707300Y-53362600D01*
X78028500Y-65938500D02*
X78028500Y-70623500D01*
X78028500Y-70623500D02*
X78800000Y-71395000D01*
X74090000Y-62000000D02*
X78028500Y-65938500D01*
X74783300Y-51286600D02*
X74783200Y-51286600D01*
X74783200Y-51286600D02*
X74783200Y-49555100D01*
X72707300Y-53362600D02*
X72707300Y-60617300D01*
X74783200Y-49555100D02*
X74800000Y-49538300D01*
%TO.N,Net-(U22A--)*%
X74735000Y-73935000D02*
X73400000Y-72600000D01*
X78800000Y-73935000D02*
X74735000Y-73935000D01*
X73400000Y-66310000D02*
X69090000Y-62000000D01*
X73400000Y-72600000D02*
X73400000Y-67200000D01*
X74735000Y-73935000D02*
X73400000Y-75270000D01*
X73400000Y-75270000D02*
X73400000Y-79000000D01*
X73400000Y-67200000D02*
X73400000Y-66310000D01*
%TO.N,Net-(U22B--)*%
X86420000Y-76475000D02*
X97530000Y-76475000D01*
X97530000Y-76475000D02*
X97530000Y-76935000D01*
X97530000Y-76475000D02*
X99800000Y-74205000D01*
X97530000Y-76935000D02*
X99800000Y-79205000D01*
%TO.N,Net-(R27-Pad1)*%
X91910000Y-73935000D02*
X92180000Y-74205000D01*
X88907700Y-73935000D02*
X91910000Y-73935000D01*
X86420000Y-73935000D02*
X88907700Y-73935000D01*
%TO.N,Net-(J20-Pin_1)*%
X115800000Y-100745000D02*
X108260000Y-100745000D01*
X108260000Y-100745000D02*
X106800000Y-102205000D01*
%TO.N,MCLK*%
X48643000Y-45434700D02*
X48643000Y-40248700D01*
X71270000Y-32988700D02*
X71270000Y-32540000D01*
X48643000Y-40248700D02*
X50799100Y-38092600D01*
X52800000Y-47140000D02*
X50348300Y-47140000D01*
X50799100Y-38092600D02*
X66166100Y-38092600D01*
X50348300Y-47140000D02*
X48643000Y-45434700D01*
X66166100Y-38092600D02*
X71270000Y-32988700D01*
%TO.N,QL*%
X46039400Y-40400000D02*
X49998500Y-36440900D01*
X42600000Y-40400000D02*
X46039400Y-40400000D01*
X62795800Y-36440900D02*
X66190000Y-33046700D01*
X49998500Y-36440900D02*
X62795800Y-36440900D01*
X66190000Y-33046700D02*
X66190000Y-32540000D01*
%TO.N,QR*%
X42600000Y-35320000D02*
X43132300Y-34787700D01*
X61836800Y-34787700D02*
X63650000Y-32974500D01*
X63650000Y-32974500D02*
X63650000Y-32540000D01*
X43132300Y-34787700D02*
X61836800Y-34787700D01*
%TO.N,Net-(R21-Pad1)*%
X89600000Y-108921300D02*
X89600000Y-108415000D01*
X41732600Y-96272400D02*
X41732600Y-103091000D01*
X41732600Y-103091000D02*
X52302900Y-113661300D01*
X43800000Y-94205000D02*
X41732600Y-96272400D01*
X84860000Y-113661300D02*
X89600000Y-108921300D01*
X52302900Y-113661300D02*
X84860000Y-113661300D01*
%TO.N,Net-(C23-Pad2)*%
X66871700Y-96935000D02*
X66871700Y-87443300D01*
X66871700Y-87443300D02*
X67110000Y-87205000D01*
X64420000Y-96935000D02*
X66871700Y-96935000D01*
X67110000Y-80330000D02*
X65780000Y-79000000D01*
X67110000Y-87205000D02*
X67110000Y-80330000D01*
%TD*%
%TA.AperFunction,Conductor*%
%TO.N,GND*%
G36*
X119442539Y-20520185D02*
G01*
X119488294Y-20572989D01*
X119499500Y-20624500D01*
X119499500Y-119375500D01*
X119479815Y-119442539D01*
X119427011Y-119488294D01*
X119375500Y-119499500D01*
X20624500Y-119499500D01*
X20557461Y-119479815D01*
X20511706Y-119427011D01*
X20500500Y-119375500D01*
X20500500Y-113878711D01*
X24149500Y-113878711D01*
X24149500Y-114121288D01*
X24181161Y-114361785D01*
X24243947Y-114596104D01*
X24336764Y-114820184D01*
X24336776Y-114820212D01*
X24458064Y-115030289D01*
X24458066Y-115030292D01*
X24458067Y-115030293D01*
X24605733Y-115222736D01*
X24605739Y-115222743D01*
X24777256Y-115394260D01*
X24777262Y-115394265D01*
X24969711Y-115541936D01*
X25179788Y-115663224D01*
X25403900Y-115756054D01*
X25638211Y-115818838D01*
X25818586Y-115842584D01*
X25878711Y-115850500D01*
X25878712Y-115850500D01*
X26121289Y-115850500D01*
X26169388Y-115844167D01*
X26361789Y-115818838D01*
X26596100Y-115756054D01*
X26820212Y-115663224D01*
X27030289Y-115541936D01*
X27222738Y-115394265D01*
X27394265Y-115222738D01*
X27541936Y-115030289D01*
X27663224Y-114820212D01*
X27756054Y-114596100D01*
X27818838Y-114361789D01*
X27850500Y-114121288D01*
X27850500Y-113878712D01*
X27818838Y-113638211D01*
X27756054Y-113403900D01*
X27663224Y-113179788D01*
X27541936Y-112969711D01*
X27394265Y-112777262D01*
X27394260Y-112777256D01*
X27222743Y-112605739D01*
X27222736Y-112605733D01*
X27030293Y-112458067D01*
X27030292Y-112458066D01*
X27030289Y-112458064D01*
X26820212Y-112336776D01*
X26820205Y-112336773D01*
X26596104Y-112243947D01*
X26361785Y-112181161D01*
X26121289Y-112149500D01*
X26121288Y-112149500D01*
X25878712Y-112149500D01*
X25878711Y-112149500D01*
X25638214Y-112181161D01*
X25403895Y-112243947D01*
X25179794Y-112336773D01*
X25179785Y-112336777D01*
X24969706Y-112458067D01*
X24777263Y-112605733D01*
X24777256Y-112605739D01*
X24605739Y-112777256D01*
X24605733Y-112777263D01*
X24458067Y-112969706D01*
X24336777Y-113179785D01*
X24336773Y-113179794D01*
X24243947Y-113403895D01*
X24181161Y-113638214D01*
X24149500Y-113878711D01*
X20500500Y-113878711D01*
X20500500Y-68221577D01*
X33087800Y-68221577D01*
X33087800Y-82051922D01*
X33118590Y-82246326D01*
X33179417Y-82433530D01*
X33236381Y-82545326D01*
X33268776Y-82608905D01*
X33384472Y-82768146D01*
X33384474Y-82768148D01*
X39818845Y-89202519D01*
X39852330Y-89263842D01*
X39847346Y-89333534D01*
X39818845Y-89377881D01*
X36846174Y-92350551D01*
X36846174Y-92350552D01*
X36846172Y-92350554D01*
X36796485Y-92418941D01*
X36730476Y-92509794D01*
X36641117Y-92685171D01*
X36591274Y-92838572D01*
X36591273Y-92838574D01*
X36580292Y-92872366D01*
X36580291Y-92872372D01*
X36549500Y-93066777D01*
X36549500Y-97077877D01*
X36529815Y-97144916D01*
X36525818Y-97150762D01*
X36388368Y-97339945D01*
X36270422Y-97571423D01*
X36190140Y-97818506D01*
X36149500Y-98075097D01*
X36149500Y-98334902D01*
X36190140Y-98591493D01*
X36270422Y-98838576D01*
X36327184Y-98949976D01*
X36380442Y-99054500D01*
X36388368Y-99070054D01*
X36471862Y-99184974D01*
X36541069Y-99280229D01*
X36724771Y-99463931D01*
X36934949Y-99616634D01*
X37082445Y-99691787D01*
X37166423Y-99734577D01*
X37166425Y-99734577D01*
X37166428Y-99734579D01*
X37413507Y-99814860D01*
X37545706Y-99835797D01*
X37670098Y-99855500D01*
X37670103Y-99855500D01*
X37929902Y-99855500D01*
X38043298Y-99837539D01*
X38186493Y-99814860D01*
X38433572Y-99734579D01*
X38665051Y-99616634D01*
X38875229Y-99463931D01*
X39058931Y-99280229D01*
X39211634Y-99070051D01*
X39329579Y-98838572D01*
X39409860Y-98591493D01*
X39440225Y-98399774D01*
X39450500Y-98334902D01*
X39450500Y-98075097D01*
X39428947Y-97939021D01*
X39409860Y-97818507D01*
X39329579Y-97571428D01*
X39329577Y-97571425D01*
X39329577Y-97571423D01*
X39249887Y-97415025D01*
X39211634Y-97339949D01*
X39074182Y-97150762D01*
X39050702Y-97084956D01*
X39050500Y-97077877D01*
X39050500Y-96173977D01*
X40482100Y-96173977D01*
X40482100Y-103189422D01*
X40512890Y-103383826D01*
X40573717Y-103571030D01*
X40657049Y-103734577D01*
X40663076Y-103746405D01*
X40778772Y-103905646D01*
X51488255Y-114615129D01*
X51647495Y-114730824D01*
X51730354Y-114773042D01*
X51822869Y-114820182D01*
X51822871Y-114820182D01*
X51822874Y-114820184D01*
X51923218Y-114852787D01*
X52010073Y-114881009D01*
X52204478Y-114911800D01*
X52204483Y-114911800D01*
X84958422Y-114911800D01*
X85152826Y-114881009D01*
X85340026Y-114820184D01*
X85515405Y-114730824D01*
X85674646Y-114615128D01*
X86411063Y-113878711D01*
X112149500Y-113878711D01*
X112149500Y-114121288D01*
X112181161Y-114361785D01*
X112243947Y-114596104D01*
X112336764Y-114820184D01*
X112336776Y-114820212D01*
X112458064Y-115030289D01*
X112458066Y-115030292D01*
X112458067Y-115030293D01*
X112605733Y-115222736D01*
X112605739Y-115222743D01*
X112777256Y-115394260D01*
X112777262Y-115394265D01*
X112969711Y-115541936D01*
X113179788Y-115663224D01*
X113403900Y-115756054D01*
X113638211Y-115818838D01*
X113818586Y-115842584D01*
X113878711Y-115850500D01*
X113878712Y-115850500D01*
X114121289Y-115850500D01*
X114169388Y-115844167D01*
X114361789Y-115818838D01*
X114596100Y-115756054D01*
X114820212Y-115663224D01*
X115030289Y-115541936D01*
X115222738Y-115394265D01*
X115394265Y-115222738D01*
X115541936Y-115030289D01*
X115663224Y-114820212D01*
X115756054Y-114596100D01*
X115818838Y-114361789D01*
X115850500Y-114121288D01*
X115850500Y-113878712D01*
X115818838Y-113638211D01*
X115756054Y-113403900D01*
X115663224Y-113179788D01*
X115541936Y-112969711D01*
X115394265Y-112777262D01*
X115394260Y-112777256D01*
X115222743Y-112605739D01*
X115222736Y-112605733D01*
X115030293Y-112458067D01*
X115030292Y-112458066D01*
X115030289Y-112458064D01*
X114820212Y-112336776D01*
X114820205Y-112336773D01*
X114596104Y-112243947D01*
X114361785Y-112181161D01*
X114121289Y-112149500D01*
X114121288Y-112149500D01*
X113878712Y-112149500D01*
X113878711Y-112149500D01*
X113638214Y-112181161D01*
X113403895Y-112243947D01*
X113179794Y-112336773D01*
X113179785Y-112336777D01*
X112969706Y-112458067D01*
X112777263Y-112605733D01*
X112777256Y-112605739D01*
X112605739Y-112777256D01*
X112605733Y-112777263D01*
X112458067Y-112969706D01*
X112336777Y-113179785D01*
X112336773Y-113179794D01*
X112243947Y-113403895D01*
X112181161Y-113638214D01*
X112149500Y-113878711D01*
X86411063Y-113878711D01*
X90324776Y-109964996D01*
X90350453Y-109945294D01*
X90353721Y-109943406D01*
X90353726Y-109943405D01*
X90528316Y-109842604D01*
X90596214Y-109826132D01*
X90662241Y-109848984D01*
X90679878Y-109865622D01*
X90680311Y-109865190D01*
X90685062Y-109869942D01*
X90705330Y-109886234D01*
X90829247Y-109985842D01*
X90994979Y-110068037D01*
X91174501Y-110112682D01*
X91174502Y-110112682D01*
X91174505Y-110112683D01*
X91216046Y-110115500D01*
X91216048Y-110115500D01*
X93063952Y-110115500D01*
X93063954Y-110115500D01*
X93105495Y-110112683D01*
X93285021Y-110068037D01*
X93450753Y-109985842D01*
X93594940Y-109869940D01*
X93710842Y-109725753D01*
X93793037Y-109560021D01*
X93837683Y-109380495D01*
X93840500Y-109338954D01*
X93840500Y-107491046D01*
X93837683Y-107449505D01*
X93793037Y-107269979D01*
X93710842Y-107104247D01*
X93641735Y-107018275D01*
X93594938Y-106960057D01*
X93517934Y-106898160D01*
X93478015Y-106840817D01*
X93475435Y-106770995D01*
X93507938Y-106713834D01*
X94753829Y-105467945D01*
X94869524Y-105308705D01*
X94958884Y-105133325D01*
X95019709Y-104946126D01*
X95019718Y-104946069D01*
X95019722Y-104946048D01*
X95019727Y-104946048D01*
X95019728Y-104946046D01*
X95019727Y-104946011D01*
X95031680Y-104870542D01*
X95050500Y-104751722D01*
X95050500Y-102079500D01*
X95070185Y-102012461D01*
X95122989Y-101966706D01*
X95174500Y-101955500D01*
X98380002Y-101955500D01*
X98447041Y-101975185D01*
X98480318Y-102006612D01*
X98541069Y-102090229D01*
X98724771Y-102273931D01*
X98934949Y-102426634D01*
X99082445Y-102501787D01*
X99166423Y-102544577D01*
X99166425Y-102544577D01*
X99166428Y-102544579D01*
X99413507Y-102624860D01*
X99545706Y-102645797D01*
X99670098Y-102665500D01*
X99670103Y-102665500D01*
X99929902Y-102665500D01*
X100043298Y-102647539D01*
X100186493Y-102624860D01*
X100433572Y-102544579D01*
X100665051Y-102426634D01*
X100875229Y-102273931D01*
X101058931Y-102090229D01*
X101069925Y-102075097D01*
X105149500Y-102075097D01*
X105149500Y-102334902D01*
X105190140Y-102591493D01*
X105270422Y-102838576D01*
X105335269Y-102965843D01*
X105377149Y-103048037D01*
X105388368Y-103070054D01*
X105404808Y-103092682D01*
X105541069Y-103280229D01*
X105724771Y-103463931D01*
X105934949Y-103616634D01*
X106082445Y-103691787D01*
X106166423Y-103734577D01*
X106166425Y-103734577D01*
X106166428Y-103734579D01*
X106413507Y-103814860D01*
X106545706Y-103835797D01*
X106670098Y-103855500D01*
X106670103Y-103855500D01*
X106929902Y-103855500D01*
X107043298Y-103837539D01*
X107186493Y-103814860D01*
X107433572Y-103734579D01*
X107665051Y-103616634D01*
X107875229Y-103463931D01*
X108058931Y-103280229D01*
X108211634Y-103070051D01*
X108329579Y-102838572D01*
X108409860Y-102591493D01*
X108435971Y-102426631D01*
X108446442Y-102360522D01*
X108476371Y-102297388D01*
X108481216Y-102292257D01*
X108741655Y-102031819D01*
X108802978Y-101998334D01*
X108829336Y-101995500D01*
X113325500Y-101995500D01*
X113392539Y-102015185D01*
X113438294Y-102067989D01*
X113449500Y-102119500D01*
X113449500Y-102318951D01*
X113452317Y-102360499D01*
X113496963Y-102540021D01*
X113496964Y-102540023D01*
X113579156Y-102705750D01*
X113695059Y-102849940D01*
X113732519Y-102880051D01*
X113839247Y-102965842D01*
X114004979Y-103048037D01*
X114184501Y-103092682D01*
X114184502Y-103092682D01*
X114184505Y-103092683D01*
X114226046Y-103095500D01*
X114226048Y-103095500D01*
X117373952Y-103095500D01*
X117373954Y-103095500D01*
X117415495Y-103092683D01*
X117595021Y-103048037D01*
X117760753Y-102965842D01*
X117904940Y-102849940D01*
X118020842Y-102705753D01*
X118103037Y-102540021D01*
X118147683Y-102360495D01*
X118150500Y-102318954D01*
X118150500Y-99171046D01*
X118147683Y-99129505D01*
X118103037Y-98949979D01*
X118020842Y-98784247D01*
X117970945Y-98722173D01*
X117904940Y-98640059D01*
X117786506Y-98544859D01*
X117760753Y-98524158D01*
X117760751Y-98524157D01*
X117760750Y-98524156D01*
X117595023Y-98441964D01*
X117595021Y-98441963D01*
X117415497Y-98397317D01*
X117415501Y-98397317D01*
X117384339Y-98395204D01*
X117373954Y-98394500D01*
X114226046Y-98394500D01*
X114214177Y-98395304D01*
X114184500Y-98397317D01*
X114004978Y-98441963D01*
X114004976Y-98441964D01*
X113839249Y-98524156D01*
X113695059Y-98640059D01*
X113579156Y-98784249D01*
X113496964Y-98949976D01*
X113496963Y-98949978D01*
X113452317Y-99129500D01*
X113449500Y-99171048D01*
X113449500Y-99370500D01*
X113429815Y-99437539D01*
X113377011Y-99483294D01*
X113325500Y-99494500D01*
X108161578Y-99494500D01*
X108022180Y-99516579D01*
X108022179Y-99516579D01*
X107967174Y-99525290D01*
X107967173Y-99525290D01*
X107779969Y-99586117D01*
X107604594Y-99675476D01*
X107523250Y-99734577D01*
X107445354Y-99791172D01*
X107445352Y-99791174D01*
X107445351Y-99791174D01*
X106712760Y-100523765D01*
X106651437Y-100557250D01*
X106644477Y-100558557D01*
X106413506Y-100595139D01*
X106166423Y-100675422D01*
X105934945Y-100793368D01*
X105724774Y-100946066D01*
X105724768Y-100946071D01*
X105541071Y-101129768D01*
X105541066Y-101129774D01*
X105388368Y-101339945D01*
X105270422Y-101571423D01*
X105190140Y-101818506D01*
X105149500Y-102075097D01*
X101069925Y-102075097D01*
X101211634Y-101880051D01*
X101329579Y-101648572D01*
X101409860Y-101401493D01*
X101441717Y-101200352D01*
X101450500Y-101144902D01*
X101450500Y-100885097D01*
X101427648Y-100740818D01*
X101409860Y-100628507D01*
X101329579Y-100381428D01*
X101329577Y-100381425D01*
X101329577Y-100381423D01*
X101286787Y-100297445D01*
X101211634Y-100149949D01*
X101058931Y-99939771D01*
X100875229Y-99756069D01*
X100701399Y-99629774D01*
X100665054Y-99603368D01*
X100665053Y-99603367D01*
X100665051Y-99603366D01*
X100592764Y-99566534D01*
X100433576Y-99485422D01*
X100186493Y-99405140D01*
X99929902Y-99364500D01*
X99929897Y-99364500D01*
X99670103Y-99364500D01*
X99670098Y-99364500D01*
X99413506Y-99405140D01*
X99387688Y-99413529D01*
X99280270Y-99448431D01*
X99241953Y-99454500D01*
X94927123Y-99454500D01*
X94860084Y-99434815D01*
X94854238Y-99430818D01*
X94665054Y-99293368D01*
X94665053Y-99293367D01*
X94665051Y-99293366D01*
X94592764Y-99256534D01*
X94433576Y-99175422D01*
X94186493Y-99095140D01*
X93929902Y-99054500D01*
X93929897Y-99054500D01*
X93670103Y-99054500D01*
X93670098Y-99054500D01*
X93413506Y-99095140D01*
X93166423Y-99175422D01*
X92934945Y-99293368D01*
X92724774Y-99446066D01*
X92724768Y-99446071D01*
X92541071Y-99629768D01*
X92541066Y-99629774D01*
X92388368Y-99839945D01*
X92270422Y-100071423D01*
X92190140Y-100318506D01*
X92149500Y-100575097D01*
X92149500Y-100834902D01*
X92190140Y-101091493D01*
X92270422Y-101338576D01*
X92370491Y-101534970D01*
X92388366Y-101570051D01*
X92525819Y-101759239D01*
X92549298Y-101825043D01*
X92549500Y-101832122D01*
X92549500Y-104083964D01*
X92529815Y-104151003D01*
X92513181Y-104171645D01*
X91186174Y-105498651D01*
X91186174Y-105498652D01*
X91186172Y-105498654D01*
X91157346Y-105538330D01*
X91070476Y-105657894D01*
X90981115Y-105833273D01*
X90981113Y-105833279D01*
X90958201Y-105903799D01*
X90958201Y-105903800D01*
X90920290Y-106020476D01*
X90920290Y-106020477D01*
X90889500Y-106214877D01*
X90889500Y-106737737D01*
X90888921Y-106739706D01*
X90889437Y-106741695D01*
X90879120Y-106773084D01*
X90869815Y-106804776D01*
X90868061Y-106806736D01*
X90867622Y-106808072D01*
X90862035Y-106813469D01*
X90843670Y-106833994D01*
X90834146Y-106841728D01*
X90829247Y-106844158D01*
X90685060Y-106960060D01*
X90678714Y-106967953D01*
X90668483Y-106976263D01*
X90647894Y-106984882D01*
X90629572Y-106997627D01*
X90616292Y-106998112D01*
X90604033Y-107003245D01*
X90582050Y-106999364D01*
X90559749Y-107000180D01*
X90539107Y-106991783D01*
X90535228Y-106991099D01*
X90533501Y-106989503D01*
X90528313Y-106987393D01*
X90353733Y-106886598D01*
X90353722Y-106886593D01*
X90147790Y-106801293D01*
X90147783Y-106801291D01*
X90147781Y-106801290D01*
X89932463Y-106743596D01*
X89932457Y-106743595D01*
X89932452Y-106743594D01*
X89711466Y-106714501D01*
X89711463Y-106714500D01*
X89711457Y-106714500D01*
X89488543Y-106714500D01*
X89488537Y-106714500D01*
X89488533Y-106714501D01*
X89267547Y-106743594D01*
X89267540Y-106743595D01*
X89267537Y-106743596D01*
X89052219Y-106801290D01*
X89052209Y-106801293D01*
X88846277Y-106886593D01*
X88846273Y-106886595D01*
X88653226Y-106998052D01*
X88653217Y-106998058D01*
X88476377Y-107133751D01*
X88476370Y-107133757D01*
X88318757Y-107291370D01*
X88318751Y-107291377D01*
X88183058Y-107468217D01*
X88183052Y-107468226D01*
X88071595Y-107661273D01*
X88071593Y-107661277D01*
X87986293Y-107867209D01*
X87986290Y-107867219D01*
X87928597Y-108082534D01*
X87928594Y-108082547D01*
X87899501Y-108303533D01*
X87899500Y-108303549D01*
X87899500Y-108526450D01*
X87899501Y-108526466D01*
X87929126Y-108751488D01*
X87927946Y-108751643D01*
X87922163Y-108816105D01*
X87894465Y-108858359D01*
X84378345Y-112374481D01*
X84317022Y-112407966D01*
X84290664Y-112410800D01*
X75282036Y-112410800D01*
X75214997Y-112391115D01*
X75169242Y-112338311D01*
X75159298Y-112269153D01*
X75188323Y-112205597D01*
X75194355Y-112199119D01*
X77325439Y-110068035D01*
X79507241Y-107886232D01*
X79568562Y-107852749D01*
X79575522Y-107851442D01*
X79654539Y-107838926D01*
X79806493Y-107814860D01*
X80053572Y-107734579D01*
X80285051Y-107616634D01*
X80495229Y-107463931D01*
X80678931Y-107280229D01*
X80831634Y-107070051D01*
X80949579Y-106838572D01*
X81029860Y-106591493D01*
X81063657Y-106378103D01*
X81070500Y-106334902D01*
X81070500Y-106075097D01*
X81043369Y-105903800D01*
X81029860Y-105818507D01*
X80949579Y-105571428D01*
X80949577Y-105571425D01*
X80949577Y-105571423D01*
X80906787Y-105487445D01*
X80831634Y-105339949D01*
X80678931Y-105129771D01*
X80495229Y-104946069D01*
X80495225Y-104946066D01*
X80285054Y-104793368D01*
X80285053Y-104793367D01*
X80285051Y-104793366D01*
X80212764Y-104756534D01*
X80053576Y-104675422D01*
X79806493Y-104595140D01*
X79549902Y-104554500D01*
X79549897Y-104554500D01*
X79290103Y-104554500D01*
X79290098Y-104554500D01*
X79033506Y-104595140D01*
X78786423Y-104675422D01*
X78554945Y-104793368D01*
X78344774Y-104946065D01*
X78344767Y-104946071D01*
X78237987Y-105052850D01*
X78206603Y-105075652D01*
X78089197Y-105135474D01*
X78009574Y-105193324D01*
X77929954Y-105251172D01*
X77929952Y-105251174D01*
X77929951Y-105251174D01*
X77790774Y-105390351D01*
X77790774Y-105390352D01*
X77790772Y-105390354D01*
X77741085Y-105458741D01*
X77675076Y-105549594D01*
X77585717Y-105724970D01*
X77524890Y-105912173D01*
X77494100Y-106106577D01*
X77494100Y-106311064D01*
X77474415Y-106378103D01*
X77457781Y-106398745D01*
X77129081Y-106727445D01*
X77067758Y-106760930D01*
X76998066Y-106755946D01*
X76942133Y-106714074D01*
X76917716Y-106648610D01*
X76917400Y-106639764D01*
X76917400Y-98208397D01*
X77759500Y-98208397D01*
X77759500Y-98468202D01*
X77800140Y-98724793D01*
X77880422Y-98971876D01*
X77922522Y-99054500D01*
X77989002Y-99184974D01*
X77998368Y-99203354D01*
X78063767Y-99293368D01*
X78151069Y-99413529D01*
X78334771Y-99597231D01*
X78544949Y-99749934D01*
X78672371Y-99814859D01*
X78776423Y-99867877D01*
X78776425Y-99867877D01*
X78776428Y-99867879D01*
X79023507Y-99948160D01*
X79155706Y-99969097D01*
X79280098Y-99988800D01*
X79280103Y-99988800D01*
X79539902Y-99988800D01*
X79653298Y-99970839D01*
X79796493Y-99948160D01*
X80043572Y-99867879D01*
X80275051Y-99749934D01*
X80485229Y-99597231D01*
X80668931Y-99413529D01*
X80821634Y-99203351D01*
X80939579Y-98971872D01*
X81019860Y-98724793D01*
X81051637Y-98524158D01*
X81060500Y-98468202D01*
X81060500Y-98208397D01*
X81028209Y-98004524D01*
X81019860Y-97951807D01*
X80939579Y-97704728D01*
X80939577Y-97704725D01*
X80939577Y-97704723D01*
X80871656Y-97571423D01*
X80821634Y-97473249D01*
X80668931Y-97263071D01*
X80485229Y-97079369D01*
X80485225Y-97079366D01*
X80275054Y-96926668D01*
X80275053Y-96926667D01*
X80275051Y-96926666D01*
X80193619Y-96885174D01*
X80043576Y-96808722D01*
X79796493Y-96728440D01*
X79539902Y-96687800D01*
X79539897Y-96687800D01*
X79280103Y-96687800D01*
X79280098Y-96687800D01*
X79023506Y-96728440D01*
X78776423Y-96808722D01*
X78544945Y-96926668D01*
X78334774Y-97079366D01*
X78334768Y-97079371D01*
X78151071Y-97263068D01*
X78151066Y-97263074D01*
X77998368Y-97473245D01*
X77880422Y-97704723D01*
X77800140Y-97951806D01*
X77759500Y-98208397D01*
X76917400Y-98208397D01*
X76917400Y-96936536D01*
X76937085Y-96869497D01*
X76953719Y-96848855D01*
X77533797Y-96268777D01*
X78272429Y-95530145D01*
X78388124Y-95370905D01*
X78477484Y-95195525D01*
X78538309Y-95008326D01*
X78559421Y-94875026D01*
X78569100Y-94813917D01*
X78569100Y-93265097D01*
X98149500Y-93265097D01*
X98149500Y-93524902D01*
X98190140Y-93781493D01*
X98270422Y-94028576D01*
X98351534Y-94187764D01*
X98388366Y-94260051D01*
X98541069Y-94470229D01*
X98724771Y-94653931D01*
X98934949Y-94806634D01*
X99069173Y-94875025D01*
X99166423Y-94924577D01*
X99166425Y-94924577D01*
X99166428Y-94924579D01*
X99413507Y-95004860D01*
X99545706Y-95025797D01*
X99670098Y-95045500D01*
X99670103Y-95045500D01*
X99929902Y-95045500D01*
X100043298Y-95027539D01*
X100186493Y-95004860D01*
X100433572Y-94924579D01*
X100665051Y-94806634D01*
X100875229Y-94653931D01*
X101058931Y-94470229D01*
X101211634Y-94260051D01*
X101329579Y-94028572D01*
X101409860Y-93781493D01*
X101435971Y-93616631D01*
X101444925Y-93560102D01*
X101474854Y-93496967D01*
X101534166Y-93460036D01*
X101567398Y-93455500D01*
X105672877Y-93455500D01*
X105739916Y-93475185D01*
X105745762Y-93479182D01*
X105857139Y-93560102D01*
X105934949Y-93616634D01*
X106082445Y-93691787D01*
X106166423Y-93734577D01*
X106166425Y-93734577D01*
X106166428Y-93734579D01*
X106413507Y-93814860D01*
X106545706Y-93835797D01*
X106670098Y-93855500D01*
X106670103Y-93855500D01*
X106929902Y-93855500D01*
X107043298Y-93837539D01*
X107186493Y-93814860D01*
X107433572Y-93734579D01*
X107665051Y-93616634D01*
X107875229Y-93463931D01*
X108058931Y-93280229D01*
X108211634Y-93070051D01*
X108329579Y-92838572D01*
X108409860Y-92591493D01*
X108432539Y-92448298D01*
X108450500Y-92334902D01*
X108450500Y-92075097D01*
X108417290Y-91865421D01*
X108409860Y-91818507D01*
X108329579Y-91571428D01*
X108329577Y-91571425D01*
X108329577Y-91571423D01*
X108227883Y-91371840D01*
X108211634Y-91339949D01*
X108058931Y-91129771D01*
X107875229Y-90946069D01*
X107732367Y-90842274D01*
X107665054Y-90793368D01*
X107665053Y-90793367D01*
X107665051Y-90793366D01*
X107549672Y-90734577D01*
X107433576Y-90675422D01*
X107186493Y-90595140D01*
X106929902Y-90554500D01*
X106929897Y-90554500D01*
X106670103Y-90554500D01*
X106670098Y-90554500D01*
X106413506Y-90595140D01*
X106166423Y-90675422D01*
X105934945Y-90793368D01*
X105745762Y-90930818D01*
X105679956Y-90954298D01*
X105672877Y-90954500D01*
X100891578Y-90954500D01*
X100697173Y-90985290D01*
X100509969Y-91046117D01*
X100334594Y-91135476D01*
X100243741Y-91201485D01*
X100175354Y-91251172D01*
X100175352Y-91251174D01*
X100175351Y-91251174D01*
X99712760Y-91713765D01*
X99651437Y-91747250D01*
X99644477Y-91748557D01*
X99413506Y-91785139D01*
X99166423Y-91865422D01*
X98934945Y-91983368D01*
X98724774Y-92136066D01*
X98724768Y-92136071D01*
X98541071Y-92319768D01*
X98541066Y-92319774D01*
X98388368Y-92529945D01*
X98270422Y-92761423D01*
X98190140Y-93008506D01*
X98149500Y-93265097D01*
X78569100Y-93265097D01*
X78569100Y-92826194D01*
X78588785Y-92759155D01*
X78641589Y-92713400D01*
X78710747Y-92703456D01*
X78749393Y-92715708D01*
X78786428Y-92734579D01*
X79033507Y-92814860D01*
X79165706Y-92835797D01*
X79290098Y-92855500D01*
X79290103Y-92855500D01*
X79549902Y-92855500D01*
X79663298Y-92837539D01*
X79806493Y-92814860D01*
X80053572Y-92734579D01*
X80285051Y-92616634D01*
X80495229Y-92463931D01*
X80678931Y-92280229D01*
X80831634Y-92070051D01*
X80949579Y-91838572D01*
X81029860Y-91591493D01*
X81059678Y-91403226D01*
X81070500Y-91334902D01*
X81070500Y-91075097D01*
X81042404Y-90897708D01*
X81029860Y-90818507D01*
X80949579Y-90571428D01*
X80949577Y-90571425D01*
X80949577Y-90571423D01*
X80894805Y-90463928D01*
X80831634Y-90339949D01*
X80678931Y-90129771D01*
X80495229Y-89946069D01*
X80360499Y-89848182D01*
X80285054Y-89793368D01*
X80285053Y-89793367D01*
X80285051Y-89793366D01*
X80212764Y-89756534D01*
X80053576Y-89675422D01*
X79806493Y-89595140D01*
X79549902Y-89554500D01*
X79549897Y-89554500D01*
X79290103Y-89554500D01*
X79290098Y-89554500D01*
X79033506Y-89595140D01*
X78918869Y-89632388D01*
X78786428Y-89675421D01*
X78786425Y-89675422D01*
X78786423Y-89675423D01*
X78749395Y-89694290D01*
X78680725Y-89707186D01*
X78615985Y-89680909D01*
X78575728Y-89623803D01*
X78569100Y-89583805D01*
X78569100Y-87565736D01*
X78588785Y-87498697D01*
X78605419Y-87478055D01*
X79379905Y-86703569D01*
X80197243Y-85886231D01*
X80258564Y-85852748D01*
X80265525Y-85851441D01*
X80496493Y-85814860D01*
X80743572Y-85734579D01*
X80975051Y-85616634D01*
X81185229Y-85463931D01*
X81368931Y-85280229D01*
X81521634Y-85070051D01*
X81639579Y-84838572D01*
X81719860Y-84591493D01*
X81743926Y-84439539D01*
X81756442Y-84360522D01*
X81786371Y-84297388D01*
X81791216Y-84292257D01*
X82205529Y-83877945D01*
X82321224Y-83718705D01*
X82410584Y-83543326D01*
X82471409Y-83356126D01*
X82473972Y-83339945D01*
X82502200Y-83161721D01*
X82502200Y-78916577D01*
X82471409Y-78722173D01*
X82410582Y-78534970D01*
X82332348Y-78381428D01*
X82321224Y-78359595D01*
X82205528Y-78200354D01*
X82066346Y-78061172D01*
X81907105Y-77945476D01*
X81895902Y-77939768D01*
X81731729Y-77856117D01*
X81544526Y-77795290D01*
X81350122Y-77764500D01*
X81350117Y-77764500D01*
X80327123Y-77764500D01*
X80260084Y-77744815D01*
X80254238Y-77740818D01*
X80065054Y-77603368D01*
X80065053Y-77603367D01*
X80065051Y-77603366D01*
X79969147Y-77554500D01*
X79833576Y-77485422D01*
X79586493Y-77405140D01*
X79329902Y-77364500D01*
X79329897Y-77364500D01*
X78270103Y-77364500D01*
X78270098Y-77364500D01*
X78013506Y-77405140D01*
X77766423Y-77485422D01*
X77534945Y-77603368D01*
X77324774Y-77756066D01*
X77324768Y-77756071D01*
X77141071Y-77939768D01*
X77141066Y-77939774D01*
X76988368Y-78149945D01*
X76870422Y-78381423D01*
X76790140Y-78628506D01*
X76749500Y-78885097D01*
X76749500Y-79144902D01*
X76790140Y-79401493D01*
X76870422Y-79648576D01*
X76916461Y-79738931D01*
X76973043Y-79849979D01*
X76988368Y-79880054D01*
X77035388Y-79944771D01*
X77141069Y-80090229D01*
X77324771Y-80273931D01*
X77534949Y-80426634D01*
X77682445Y-80501787D01*
X77766423Y-80544577D01*
X77766425Y-80544577D01*
X77766428Y-80544579D01*
X78013507Y-80624860D01*
X78145706Y-80645797D01*
X78270098Y-80665500D01*
X78270103Y-80665500D01*
X79329902Y-80665500D01*
X79450227Y-80646442D01*
X79586493Y-80624860D01*
X79833572Y-80544579D01*
X79833575Y-80544577D01*
X79838205Y-80543073D01*
X79838899Y-80545209D01*
X79899064Y-80538666D01*
X79961582Y-80569862D01*
X79997310Y-80629907D01*
X80001200Y-80660723D01*
X80001200Y-82445252D01*
X79981515Y-82512291D01*
X79928711Y-82558046D01*
X79896598Y-82567725D01*
X79723506Y-82595140D01*
X79476423Y-82675422D01*
X79244945Y-82793368D01*
X79034774Y-82946066D01*
X79034768Y-82946071D01*
X78851071Y-83129768D01*
X78851066Y-83129774D01*
X78698368Y-83339945D01*
X78580422Y-83571423D01*
X78500139Y-83818506D01*
X78463558Y-84049475D01*
X78433629Y-84112610D01*
X78428766Y-84117758D01*
X76364774Y-86181751D01*
X76364772Y-86181754D01*
X76315085Y-86250141D01*
X76249076Y-86340994D01*
X76159269Y-86517251D01*
X76158208Y-86521012D01*
X76098891Y-86703569D01*
X76098891Y-86703572D01*
X76068100Y-86897977D01*
X76068100Y-94146164D01*
X76048415Y-94213203D01*
X76031781Y-94233845D01*
X74713074Y-95552551D01*
X74713074Y-95552552D01*
X74713072Y-95552554D01*
X74666517Y-95616631D01*
X74597376Y-95711794D01*
X74508017Y-95887169D01*
X74477992Y-95979577D01*
X74457486Y-96042688D01*
X74457486Y-96042689D01*
X74457485Y-96042688D01*
X74447191Y-96074371D01*
X74416400Y-96268777D01*
X74416400Y-107035064D01*
X74396715Y-107102103D01*
X74380081Y-107122745D01*
X72520145Y-108982681D01*
X72458822Y-109016166D01*
X72432464Y-109019000D01*
X60743836Y-109019000D01*
X60676797Y-108999315D01*
X60656155Y-108982681D01*
X59966155Y-108292681D01*
X59932670Y-108231358D01*
X59937654Y-108161666D01*
X59966155Y-108117319D01*
X60008377Y-108075097D01*
X60205529Y-107877945D01*
X60321224Y-107718705D01*
X60410584Y-107543326D01*
X60471409Y-107356126D01*
X60501758Y-107164509D01*
X60501760Y-107164497D01*
X60502198Y-107161727D01*
X60502200Y-107161714D01*
X60502200Y-101916577D01*
X60471409Y-101722173D01*
X60410582Y-101534970D01*
X60332348Y-101381428D01*
X60321224Y-101359595D01*
X60205528Y-101200354D01*
X60066346Y-101061172D01*
X59907105Y-100945476D01*
X59895902Y-100939768D01*
X59731729Y-100856117D01*
X59544526Y-100795290D01*
X59350122Y-100764500D01*
X59350117Y-100764500D01*
X58327123Y-100764500D01*
X58260084Y-100744815D01*
X58254238Y-100740818D01*
X58065054Y-100603368D01*
X58065053Y-100603367D01*
X58065051Y-100603366D01*
X57969147Y-100554500D01*
X57833576Y-100485422D01*
X57586493Y-100405140D01*
X57329902Y-100364500D01*
X57329897Y-100364500D01*
X56270103Y-100364500D01*
X56270098Y-100364500D01*
X56013506Y-100405140D01*
X55766423Y-100485422D01*
X55534945Y-100603368D01*
X55324774Y-100756066D01*
X55324768Y-100756071D01*
X55141071Y-100939768D01*
X55141066Y-100939774D01*
X54988368Y-101149945D01*
X54870422Y-101381423D01*
X54790140Y-101628506D01*
X54749500Y-101885097D01*
X54749500Y-102144902D01*
X54790140Y-102401493D01*
X54870422Y-102648576D01*
X54899556Y-102705753D01*
X54988366Y-102880051D01*
X55141069Y-103090229D01*
X55324771Y-103273931D01*
X55534949Y-103426634D01*
X55682445Y-103501787D01*
X55766423Y-103544577D01*
X55766425Y-103544577D01*
X55766428Y-103544579D01*
X56013507Y-103624860D01*
X56145706Y-103645797D01*
X56270098Y-103665500D01*
X56270103Y-103665500D01*
X57329902Y-103665500D01*
X57443298Y-103647539D01*
X57586493Y-103624860D01*
X57833572Y-103544579D01*
X57833575Y-103544577D01*
X57838205Y-103543073D01*
X57838899Y-103545209D01*
X57899064Y-103538666D01*
X57961582Y-103569862D01*
X57997310Y-103629907D01*
X58001200Y-103660723D01*
X58001200Y-106445252D01*
X57981515Y-106512291D01*
X57928711Y-106558046D01*
X57896598Y-106567725D01*
X57723506Y-106595140D01*
X57476423Y-106675422D01*
X57244945Y-106793368D01*
X57034774Y-106946066D01*
X57034768Y-106946071D01*
X56851071Y-107129768D01*
X56851066Y-107129774D01*
X56698368Y-107339945D01*
X56580422Y-107571423D01*
X56500140Y-107818506D01*
X56459500Y-108075097D01*
X56459500Y-108334902D01*
X56500140Y-108591493D01*
X56580422Y-108838576D01*
X56661534Y-108997764D01*
X56698366Y-109070051D01*
X56851069Y-109280229D01*
X57034771Y-109463931D01*
X57244949Y-109616634D01*
X57392445Y-109691787D01*
X57476423Y-109734577D01*
X57476425Y-109734577D01*
X57476428Y-109734579D01*
X57723507Y-109814860D01*
X57831399Y-109831948D01*
X57954477Y-109851442D01*
X58017612Y-109881371D01*
X58022760Y-109886234D01*
X58630645Y-110494119D01*
X58664130Y-110555442D01*
X58659146Y-110625134D01*
X58617274Y-110681067D01*
X58551810Y-110705484D01*
X58542964Y-110705800D01*
X54120636Y-110705800D01*
X54053597Y-110686115D01*
X54032955Y-110669481D01*
X45481234Y-102117760D01*
X45447749Y-102056437D01*
X45446442Y-102049477D01*
X45425392Y-101916577D01*
X45409860Y-101818507D01*
X45329579Y-101571428D01*
X45329577Y-101571425D01*
X45329577Y-101571423D01*
X45242992Y-101401493D01*
X45211634Y-101339949D01*
X45058931Y-101129771D01*
X44875229Y-100946069D01*
X44866561Y-100939771D01*
X44665054Y-100793368D01*
X44665053Y-100793367D01*
X44665051Y-100793366D01*
X44591846Y-100756066D01*
X44433576Y-100675422D01*
X44186493Y-100595140D01*
X43929902Y-100554500D01*
X43929897Y-100554500D01*
X43670103Y-100554500D01*
X43670098Y-100554500D01*
X43413506Y-100595140D01*
X43378618Y-100606476D01*
X43166428Y-100675421D01*
X43166425Y-100675422D01*
X43166420Y-100675424D01*
X43163392Y-100676967D01*
X43162115Y-100677206D01*
X43161919Y-100677288D01*
X43161901Y-100677246D01*
X43094722Y-100689862D01*
X43029983Y-100663584D01*
X42989727Y-100606476D01*
X42983100Y-100566481D01*
X42983100Y-98075097D01*
X43769500Y-98075097D01*
X43769500Y-98334902D01*
X43810140Y-98591493D01*
X43890422Y-98838576D01*
X43947184Y-98949976D01*
X44000442Y-99054500D01*
X44008368Y-99070054D01*
X44091862Y-99184974D01*
X44161069Y-99280229D01*
X44344771Y-99463931D01*
X44554949Y-99616634D01*
X44702445Y-99691787D01*
X44786423Y-99734577D01*
X44786425Y-99734577D01*
X44786428Y-99734579D01*
X45033507Y-99814860D01*
X45165706Y-99835797D01*
X45290098Y-99855500D01*
X45290103Y-99855500D01*
X45549902Y-99855500D01*
X45663298Y-99837539D01*
X45806493Y-99814860D01*
X46053572Y-99734579D01*
X46285051Y-99616634D01*
X46495229Y-99463931D01*
X46678931Y-99280229D01*
X46831634Y-99070051D01*
X46949579Y-98838572D01*
X47029860Y-98591493D01*
X47061060Y-98394500D01*
X47066442Y-98360522D01*
X47096371Y-98297388D01*
X47101217Y-98292256D01*
X50049477Y-95343995D01*
X50110798Y-95310512D01*
X50180490Y-95315496D01*
X50224837Y-95343997D01*
X50344771Y-95463931D01*
X50554949Y-95616634D01*
X50678285Y-95679477D01*
X50786423Y-95734577D01*
X50786425Y-95734577D01*
X50786428Y-95734579D01*
X51033507Y-95814860D01*
X51161393Y-95835114D01*
X51264477Y-95851442D01*
X51327612Y-95881371D01*
X51332760Y-95886234D01*
X52293845Y-96847319D01*
X52327330Y-96908642D01*
X52322346Y-96978334D01*
X52293845Y-97022681D01*
X50466174Y-98850351D01*
X50466174Y-98850352D01*
X50466172Y-98850354D01*
X50416485Y-98918741D01*
X50350476Y-99009594D01*
X50261115Y-99184973D01*
X50261113Y-99184979D01*
X50230166Y-99280228D01*
X50230166Y-99280229D01*
X50200290Y-99372176D01*
X50200290Y-99372177D01*
X50169500Y-99566577D01*
X50169500Y-101077877D01*
X50149815Y-101144916D01*
X50145818Y-101150762D01*
X50008368Y-101339945D01*
X49890422Y-101571423D01*
X49810140Y-101818506D01*
X49769500Y-102075097D01*
X49769500Y-102334902D01*
X49810140Y-102591493D01*
X49890422Y-102838576D01*
X49955269Y-102965843D01*
X49997149Y-103048037D01*
X50008368Y-103070054D01*
X50024808Y-103092682D01*
X50161069Y-103280229D01*
X50344771Y-103463931D01*
X50554949Y-103616634D01*
X50702445Y-103691787D01*
X50786423Y-103734577D01*
X50786425Y-103734577D01*
X50786428Y-103734579D01*
X51033507Y-103814860D01*
X51165706Y-103835797D01*
X51290098Y-103855500D01*
X51290103Y-103855500D01*
X51549902Y-103855500D01*
X51663298Y-103837539D01*
X51806493Y-103814860D01*
X52053572Y-103734579D01*
X52285051Y-103616634D01*
X52495229Y-103463931D01*
X52678931Y-103280229D01*
X52831634Y-103070051D01*
X52949579Y-102838572D01*
X53029860Y-102591493D01*
X53055971Y-102426631D01*
X53070500Y-102334902D01*
X53070500Y-102075097D01*
X53045392Y-101916577D01*
X53029860Y-101818507D01*
X52949579Y-101571428D01*
X52949577Y-101571425D01*
X52949577Y-101571423D01*
X52862992Y-101401493D01*
X52831634Y-101339949D01*
X52782987Y-101272992D01*
X52694182Y-101150762D01*
X52670702Y-101084956D01*
X52670500Y-101077877D01*
X52670500Y-100234336D01*
X52690185Y-100167297D01*
X52706819Y-100146655D01*
X54631655Y-98221819D01*
X54692978Y-98188334D01*
X54719336Y-98185500D01*
X55272877Y-98185500D01*
X55339916Y-98205185D01*
X55345762Y-98209182D01*
X55399650Y-98248334D01*
X55534949Y-98346634D01*
X55634420Y-98397317D01*
X55766423Y-98464577D01*
X55766425Y-98464577D01*
X55766428Y-98464579D01*
X56013507Y-98544860D01*
X56145706Y-98565797D01*
X56270098Y-98585500D01*
X56270103Y-98585500D01*
X57329902Y-98585500D01*
X57443298Y-98567539D01*
X57586493Y-98544860D01*
X57833572Y-98464579D01*
X58065051Y-98346634D01*
X58275229Y-98193931D01*
X58458931Y-98010229D01*
X58611634Y-97800051D01*
X58729579Y-97568572D01*
X58809860Y-97321493D01*
X58836901Y-97150762D01*
X58850500Y-97064902D01*
X58850500Y-96805097D01*
X58828947Y-96669021D01*
X58809860Y-96548507D01*
X58729579Y-96301428D01*
X58729577Y-96301425D01*
X58729577Y-96301423D01*
X58664639Y-96173977D01*
X58611634Y-96069949D01*
X58597154Y-96050019D01*
X58492835Y-95906435D01*
X58469355Y-95840629D01*
X58485181Y-95772575D01*
X58505465Y-95745876D01*
X58602477Y-95648865D01*
X58720279Y-95474813D01*
X58803013Y-95281612D01*
X58847688Y-95076245D01*
X58850500Y-95029038D01*
X58850500Y-93760962D01*
X58847688Y-93713755D01*
X58841035Y-93683174D01*
X58803015Y-93508397D01*
X58803012Y-93508386D01*
X58788794Y-93475185D01*
X58720279Y-93315187D01*
X58602477Y-93141135D01*
X58453865Y-92992523D01*
X58279813Y-92874721D01*
X58279811Y-92874720D01*
X58279808Y-92874718D01*
X58086613Y-92791987D01*
X58086602Y-92791984D01*
X57881250Y-92747312D01*
X57866492Y-92746433D01*
X57834038Y-92744500D01*
X57834027Y-92744500D01*
X56969336Y-92744500D01*
X56902297Y-92724815D01*
X56881655Y-92708181D01*
X54770702Y-90597228D01*
X54737217Y-90535905D01*
X54735910Y-90490152D01*
X54759700Y-90339949D01*
X54760500Y-90334901D01*
X54760500Y-90075097D01*
X54730441Y-89885317D01*
X54719860Y-89818507D01*
X54639579Y-89571428D01*
X54639577Y-89571425D01*
X54639577Y-89571423D01*
X54540961Y-89377881D01*
X54521634Y-89339949D01*
X54368931Y-89129771D01*
X54185229Y-88946069D01*
X54009655Y-88818507D01*
X53975054Y-88793368D01*
X53975053Y-88793367D01*
X53975051Y-88793366D01*
X53902764Y-88756534D01*
X53743576Y-88675422D01*
X53496493Y-88595140D01*
X53239902Y-88554500D01*
X53239897Y-88554500D01*
X52980103Y-88554500D01*
X52980098Y-88554500D01*
X52723506Y-88595140D01*
X52476423Y-88675422D01*
X52244945Y-88793368D01*
X52034774Y-88946066D01*
X52034768Y-88946071D01*
X51851071Y-89129768D01*
X51851066Y-89129774D01*
X51698368Y-89339945D01*
X51580422Y-89571423D01*
X51500140Y-89818506D01*
X51459500Y-90075097D01*
X51459500Y-90334902D01*
X51500140Y-90591493D01*
X51580422Y-90838576D01*
X51655178Y-90985290D01*
X51698366Y-91070051D01*
X51851069Y-91280229D01*
X52034771Y-91463931D01*
X52182721Y-91571423D01*
X52244949Y-91616634D01*
X52249101Y-91619179D01*
X52248831Y-91619619D01*
X52275578Y-91639052D01*
X54713181Y-94076655D01*
X54746666Y-94137978D01*
X54749500Y-94164336D01*
X54749500Y-95029038D01*
X54750481Y-95045500D01*
X54752312Y-95076250D01*
X54796984Y-95281602D01*
X54796987Y-95281613D01*
X54879718Y-95474808D01*
X54879720Y-95474811D01*
X54879721Y-95474813D01*
X54890675Y-95490998D01*
X54893882Y-95501030D01*
X54900779Y-95508989D01*
X54904336Y-95533732D01*
X54911950Y-95557548D01*
X54909224Y-95567721D01*
X54910723Y-95578147D01*
X54900337Y-95600888D01*
X54893867Y-95625037D01*
X54886073Y-95632121D01*
X54881698Y-95641703D01*
X54860665Y-95655219D01*
X54842167Y-95672036D01*
X54830223Y-95674783D01*
X54822920Y-95679477D01*
X54787985Y-95684500D01*
X54719336Y-95684500D01*
X54652297Y-95664815D01*
X54631655Y-95648181D01*
X53101234Y-94117760D01*
X53067749Y-94056437D01*
X53066442Y-94049477D01*
X53050114Y-93946393D01*
X53029860Y-93818507D01*
X52949579Y-93571428D01*
X52949577Y-93571425D01*
X52949577Y-93571423D01*
X52902577Y-93479182D01*
X52831634Y-93339949D01*
X52678931Y-93129771D01*
X52495229Y-92946069D01*
X52397023Y-92874718D01*
X52285054Y-92793368D01*
X52285053Y-92793367D01*
X52285051Y-92793366D01*
X52198518Y-92749275D01*
X52053576Y-92675422D01*
X51806493Y-92595139D01*
X51575522Y-92558557D01*
X51512387Y-92528628D01*
X51507239Y-92523765D01*
X49738057Y-90754583D01*
X49704572Y-90693260D01*
X49707807Y-90628584D01*
X49719860Y-90591493D01*
X49740063Y-90463933D01*
X49760500Y-90334902D01*
X49760500Y-90075097D01*
X49730441Y-89885317D01*
X49719860Y-89818507D01*
X49639579Y-89571428D01*
X49639577Y-89571425D01*
X49639577Y-89571423D01*
X49540961Y-89377881D01*
X49521634Y-89339949D01*
X49368931Y-89129771D01*
X49185229Y-88946069D01*
X49009655Y-88818507D01*
X48975054Y-88793368D01*
X48975053Y-88793367D01*
X48975051Y-88793366D01*
X48902764Y-88756534D01*
X48743576Y-88675422D01*
X48496493Y-88595140D01*
X48239902Y-88554500D01*
X48239897Y-88554500D01*
X47980103Y-88554500D01*
X47980098Y-88554500D01*
X47723506Y-88595140D01*
X47476423Y-88675422D01*
X47244945Y-88793368D01*
X47034774Y-88946066D01*
X47034768Y-88946071D01*
X46851071Y-89129768D01*
X46851066Y-89129774D01*
X46698368Y-89339945D01*
X46580422Y-89571423D01*
X46500140Y-89818506D01*
X46459500Y-90075097D01*
X46459500Y-90334902D01*
X46500140Y-90591493D01*
X46580422Y-90838576D01*
X46655178Y-90985290D01*
X46686170Y-91046116D01*
X46698368Y-91070054D01*
X46851066Y-91280225D01*
X46851071Y-91280231D01*
X46942680Y-91371840D01*
X46965484Y-91403226D01*
X46996415Y-91463931D01*
X47040476Y-91550405D01*
X47156172Y-91709646D01*
X47156174Y-91709648D01*
X48563845Y-93117319D01*
X48597330Y-93178642D01*
X48592346Y-93248334D01*
X48563845Y-93292681D01*
X45332760Y-96523765D01*
X45271437Y-96557250D01*
X45264477Y-96558557D01*
X45033506Y-96595139D01*
X44786423Y-96675422D01*
X44554945Y-96793368D01*
X44344774Y-96946066D01*
X44344768Y-96946071D01*
X44161071Y-97129768D01*
X44161066Y-97129774D01*
X44008368Y-97339945D01*
X43890422Y-97571423D01*
X43810140Y-97818506D01*
X43769500Y-98075097D01*
X42983100Y-98075097D01*
X42983100Y-96841736D01*
X43002785Y-96774697D01*
X43019419Y-96754055D01*
X43249709Y-96523765D01*
X43887241Y-95886232D01*
X43948562Y-95852749D01*
X43955522Y-95851442D01*
X44034539Y-95838926D01*
X44186493Y-95814860D01*
X44433572Y-95734579D01*
X44665051Y-95616634D01*
X44875229Y-95463931D01*
X45058931Y-95280229D01*
X45211634Y-95070051D01*
X45329579Y-94838572D01*
X45409860Y-94591493D01*
X45432539Y-94448298D01*
X45450500Y-94334902D01*
X45450500Y-94075097D01*
X45428947Y-93939021D01*
X45409860Y-93818507D01*
X45329579Y-93571428D01*
X45329577Y-93571425D01*
X45329577Y-93571423D01*
X45282577Y-93479182D01*
X45211634Y-93339949D01*
X45058931Y-93129771D01*
X44875229Y-92946069D01*
X44777023Y-92874718D01*
X44665054Y-92793368D01*
X44665053Y-92793367D01*
X44665051Y-92793366D01*
X44578518Y-92749275D01*
X44433576Y-92675422D01*
X44186493Y-92595140D01*
X43929902Y-92554500D01*
X43929897Y-92554500D01*
X43670103Y-92554500D01*
X43670098Y-92554500D01*
X43413506Y-92595140D01*
X43166423Y-92675422D01*
X42934945Y-92793368D01*
X42724774Y-92946066D01*
X42724768Y-92946071D01*
X42541071Y-93129768D01*
X42541066Y-93129774D01*
X42388368Y-93339945D01*
X42270422Y-93571423D01*
X42190139Y-93818506D01*
X42153557Y-94049477D01*
X42123628Y-94112612D01*
X42118765Y-94117760D01*
X40778774Y-95457751D01*
X40778774Y-95457752D01*
X40778772Y-95457754D01*
X40729085Y-95526141D01*
X40663076Y-95616994D01*
X40573715Y-95792373D01*
X40573714Y-95792376D01*
X40542914Y-95887173D01*
X40512890Y-95979576D01*
X40512890Y-95979577D01*
X40482100Y-96173977D01*
X39050500Y-96173977D01*
X39050500Y-93734535D01*
X39070185Y-93667496D01*
X39086814Y-93646859D01*
X42489642Y-90244031D01*
X42489646Y-90244029D01*
X42628829Y-90104846D01*
X42628831Y-90104842D01*
X58846855Y-73886819D01*
X58908178Y-73853334D01*
X58934536Y-73850500D01*
X64652877Y-73850500D01*
X64719916Y-73870185D01*
X64725762Y-73874182D01*
X64847992Y-73962987D01*
X64914949Y-74011634D01*
X65062445Y-74086787D01*
X65146423Y-74129577D01*
X65146425Y-74129577D01*
X65146428Y-74129579D01*
X65393507Y-74209860D01*
X65525706Y-74230797D01*
X65650098Y-74250500D01*
X65650103Y-74250500D01*
X65909902Y-74250500D01*
X66023298Y-74232539D01*
X66166493Y-74209860D01*
X66413572Y-74129579D01*
X66645051Y-74011634D01*
X66855229Y-73858931D01*
X67038931Y-73675229D01*
X67191634Y-73465051D01*
X67309579Y-73233572D01*
X67389860Y-72986493D01*
X67419797Y-72797477D01*
X67430500Y-72729902D01*
X67430500Y-72470097D01*
X67407072Y-72322181D01*
X67389860Y-72213507D01*
X67309579Y-71966428D01*
X67309577Y-71966425D01*
X67309577Y-71966423D01*
X67231825Y-71813828D01*
X67191634Y-71734949D01*
X67038931Y-71524771D01*
X66855229Y-71341069D01*
X66750671Y-71265103D01*
X66645054Y-71188368D01*
X66645053Y-71188367D01*
X66645051Y-71188366D01*
X66572764Y-71151534D01*
X66413576Y-71070422D01*
X66166493Y-70990140D01*
X65909902Y-70949500D01*
X65909897Y-70949500D01*
X65650103Y-70949500D01*
X65650098Y-70949500D01*
X65393506Y-70990140D01*
X65146423Y-71070422D01*
X64914945Y-71188368D01*
X64725762Y-71325818D01*
X64659956Y-71349298D01*
X64652877Y-71349500D01*
X58266778Y-71349500D01*
X58072373Y-71380290D01*
X57885169Y-71441117D01*
X57709794Y-71530476D01*
X57618941Y-71596485D01*
X57550554Y-71646172D01*
X57550552Y-71646174D01*
X57550551Y-71646174D01*
X41762681Y-87434045D01*
X41701358Y-87467530D01*
X41631666Y-87462546D01*
X41587319Y-87434045D01*
X35625119Y-81471845D01*
X35591634Y-81410522D01*
X35588800Y-81384164D01*
X35588800Y-80890097D01*
X42359500Y-80890097D01*
X42359500Y-81149902D01*
X42400140Y-81406493D01*
X42480422Y-81653576D01*
X42549102Y-81788366D01*
X42583096Y-81855083D01*
X42598368Y-81885054D01*
X42751066Y-82095225D01*
X42751069Y-82095229D01*
X42934771Y-82278931D01*
X43144949Y-82431634D01*
X43292445Y-82506787D01*
X43376423Y-82549577D01*
X43376425Y-82549577D01*
X43376428Y-82549579D01*
X43623507Y-82629860D01*
X43755706Y-82650797D01*
X43880098Y-82670500D01*
X43880103Y-82670500D01*
X44939902Y-82670500D01*
X45053298Y-82652539D01*
X45196493Y-82629860D01*
X45443572Y-82549579D01*
X45675051Y-82431634D01*
X45885229Y-82278931D01*
X46068931Y-82095229D01*
X46221634Y-81885051D01*
X46339579Y-81653572D01*
X46419860Y-81406493D01*
X46442539Y-81263298D01*
X46460500Y-81149902D01*
X46460500Y-80890097D01*
X46435868Y-80734579D01*
X46419860Y-80633507D01*
X46339579Y-80386428D01*
X46339577Y-80386425D01*
X46339577Y-80386423D01*
X46285468Y-80280229D01*
X46221634Y-80154949D01*
X46068931Y-79944771D01*
X45885229Y-79761069D01*
X45885225Y-79761066D01*
X45675054Y-79608368D01*
X45675053Y-79608367D01*
X45675051Y-79608366D01*
X45602764Y-79571534D01*
X45443576Y-79490422D01*
X45196493Y-79410140D01*
X44939902Y-79369500D01*
X44939897Y-79369500D01*
X43880103Y-79369500D01*
X43880098Y-79369500D01*
X43623506Y-79410140D01*
X43376423Y-79490422D01*
X43144945Y-79608368D01*
X42934774Y-79761066D01*
X42934768Y-79761071D01*
X42751071Y-79944768D01*
X42751066Y-79944774D01*
X42598368Y-80154945D01*
X42480422Y-80386423D01*
X42400140Y-80633506D01*
X42359500Y-80890097D01*
X35588800Y-80890097D01*
X35588800Y-80125723D01*
X35608485Y-80058684D01*
X35661289Y-80012929D01*
X35730447Y-80002985D01*
X35751561Y-80008791D01*
X35751795Y-80008073D01*
X35756424Y-80009577D01*
X35756428Y-80009579D01*
X36003507Y-80089860D01*
X36135706Y-80110797D01*
X36260098Y-80130500D01*
X36260103Y-80130500D01*
X37319902Y-80130500D01*
X37433298Y-80112539D01*
X37576493Y-80089860D01*
X37823572Y-80009579D01*
X38055051Y-79891634D01*
X38265229Y-79738931D01*
X38448931Y-79555229D01*
X38601634Y-79345051D01*
X38719579Y-79113572D01*
X38799860Y-78866493D01*
X38837553Y-78628506D01*
X38840500Y-78609902D01*
X38840500Y-78350097D01*
X38818947Y-78214021D01*
X38799860Y-78093507D01*
X38719579Y-77846428D01*
X38719577Y-77846425D01*
X38719577Y-77846423D01*
X38665768Y-77740818D01*
X38601634Y-77614949D01*
X38448931Y-77404771D01*
X38265229Y-77221069D01*
X38265225Y-77221066D01*
X38055054Y-77068368D01*
X38055053Y-77068367D01*
X38055051Y-77068366D01*
X37982764Y-77031534D01*
X37823576Y-76950422D01*
X37576493Y-76870140D01*
X37319902Y-76829500D01*
X37319897Y-76829500D01*
X36260103Y-76829500D01*
X36260098Y-76829500D01*
X36003506Y-76870140D01*
X35919090Y-76897568D01*
X35756428Y-76950421D01*
X35756424Y-76950422D01*
X35751795Y-76951927D01*
X35751120Y-76949850D01*
X35690628Y-76956277D01*
X35628189Y-76924922D01*
X35592613Y-76864788D01*
X35588800Y-76834275D01*
X35588800Y-75810097D01*
X42359500Y-75810097D01*
X42359500Y-76069902D01*
X42400140Y-76326493D01*
X42480422Y-76573576D01*
X42547387Y-76705000D01*
X42598366Y-76805051D01*
X42751069Y-77015229D01*
X42934771Y-77198931D01*
X43144949Y-77351634D01*
X43249230Y-77404768D01*
X43376423Y-77469577D01*
X43376425Y-77469577D01*
X43376428Y-77469579D01*
X43623507Y-77549860D01*
X43755706Y-77570797D01*
X43880098Y-77590500D01*
X43880103Y-77590500D01*
X44939902Y-77590500D01*
X45053298Y-77572539D01*
X45196493Y-77549860D01*
X45443572Y-77469579D01*
X45675051Y-77351634D01*
X45885229Y-77198931D01*
X46068931Y-77015229D01*
X46221634Y-76805051D01*
X46339579Y-76573572D01*
X46419860Y-76326493D01*
X46457553Y-76088506D01*
X46460500Y-76069902D01*
X46460500Y-75810097D01*
X46438947Y-75674021D01*
X46419860Y-75553507D01*
X46339579Y-75306428D01*
X46339577Y-75306425D01*
X46339577Y-75306423D01*
X46287993Y-75205185D01*
X46221634Y-75074949D01*
X46068931Y-74864771D01*
X45885229Y-74681069D01*
X45885225Y-74681066D01*
X45675054Y-74528368D01*
X45675053Y-74528367D01*
X45675051Y-74528366D01*
X45602764Y-74491534D01*
X45443576Y-74410422D01*
X45196493Y-74330140D01*
X44939902Y-74289500D01*
X44939897Y-74289500D01*
X43880103Y-74289500D01*
X43880098Y-74289500D01*
X43623506Y-74330140D01*
X43376423Y-74410422D01*
X43144945Y-74528368D01*
X42934774Y-74681066D01*
X42934768Y-74681071D01*
X42751071Y-74864768D01*
X42751066Y-74864774D01*
X42598368Y-75074945D01*
X42480422Y-75306423D01*
X42400140Y-75553506D01*
X42359500Y-75810097D01*
X35588800Y-75810097D01*
X35588800Y-75045723D01*
X35608485Y-74978684D01*
X35661289Y-74932929D01*
X35730447Y-74922985D01*
X35751561Y-74928791D01*
X35751795Y-74928073D01*
X35756424Y-74929577D01*
X35756428Y-74929579D01*
X36003507Y-75009860D01*
X36135706Y-75030797D01*
X36260098Y-75050500D01*
X36260103Y-75050500D01*
X37319902Y-75050500D01*
X37433298Y-75032539D01*
X37576493Y-75009860D01*
X37823572Y-74929579D01*
X38055051Y-74811634D01*
X38265229Y-74658931D01*
X38448931Y-74475229D01*
X38601634Y-74265051D01*
X38719579Y-74033572D01*
X38799860Y-73786493D01*
X38822539Y-73643298D01*
X38840500Y-73529902D01*
X38840500Y-73270097D01*
X38818947Y-73134021D01*
X38799860Y-73013507D01*
X38719579Y-72766428D01*
X38719577Y-72766425D01*
X38719577Y-72766423D01*
X38673539Y-72676069D01*
X38601634Y-72534949D01*
X38448931Y-72324771D01*
X38446341Y-72322181D01*
X38412856Y-72260858D01*
X38417840Y-72191166D01*
X38459712Y-72135233D01*
X38525176Y-72110816D01*
X38534022Y-72110500D01*
X39340122Y-72110500D01*
X39534526Y-72079709D01*
X39545187Y-72076245D01*
X39721726Y-72018884D01*
X39897105Y-71929524D01*
X40056346Y-71813828D01*
X40728428Y-71141746D01*
X40844123Y-70982506D01*
X40860941Y-70949500D01*
X40933484Y-70807125D01*
X40958512Y-70730097D01*
X42359500Y-70730097D01*
X42359500Y-70989902D01*
X42400140Y-71246493D01*
X42480422Y-71493576D01*
X42507013Y-71545762D01*
X42598366Y-71725051D01*
X42751069Y-71935229D01*
X42934771Y-72118931D01*
X43144949Y-72271634D01*
X43244153Y-72322181D01*
X43376423Y-72389577D01*
X43376425Y-72389577D01*
X43376428Y-72389579D01*
X43623507Y-72469860D01*
X43755706Y-72490797D01*
X43880098Y-72510500D01*
X43880103Y-72510500D01*
X44939902Y-72510500D01*
X45053298Y-72492539D01*
X45196493Y-72469860D01*
X45443572Y-72389579D01*
X45675051Y-72271634D01*
X45885229Y-72118931D01*
X46068931Y-71935229D01*
X46221634Y-71725051D01*
X46339579Y-71493572D01*
X46419860Y-71246493D01*
X46442539Y-71103298D01*
X46460500Y-70989902D01*
X46460500Y-70730097D01*
X46428799Y-70529949D01*
X46419860Y-70473507D01*
X46339579Y-70226428D01*
X46339577Y-70226425D01*
X46339577Y-70226423D01*
X46293537Y-70136066D01*
X46221634Y-69994949D01*
X46068931Y-69784771D01*
X45885229Y-69601069D01*
X45675051Y-69448366D01*
X45602764Y-69411534D01*
X45443576Y-69330422D01*
X45196493Y-69250140D01*
X44939902Y-69209500D01*
X44939897Y-69209500D01*
X43880103Y-69209500D01*
X43880098Y-69209500D01*
X43623506Y-69250140D01*
X43376423Y-69330422D01*
X43144945Y-69448368D01*
X42934774Y-69601066D01*
X42934768Y-69601071D01*
X42751071Y-69784768D01*
X42751066Y-69784774D01*
X42598368Y-69994945D01*
X42480422Y-70226423D01*
X42400140Y-70473506D01*
X42359500Y-70730097D01*
X40958512Y-70730097D01*
X40994309Y-70619926D01*
X41009331Y-70525083D01*
X41011975Y-70508388D01*
X41025100Y-70425521D01*
X41025100Y-65260736D01*
X41044785Y-65193697D01*
X41061419Y-65173055D01*
X50187655Y-56046819D01*
X50248978Y-56013334D01*
X50275336Y-56010500D01*
X51272877Y-56010500D01*
X51339916Y-56030185D01*
X51345762Y-56034182D01*
X51376285Y-56056358D01*
X51534949Y-56171634D01*
X51639230Y-56224768D01*
X51766423Y-56289577D01*
X51766425Y-56289577D01*
X51766428Y-56289579D01*
X52013507Y-56369860D01*
X52145706Y-56390797D01*
X52270098Y-56410500D01*
X52270103Y-56410500D01*
X53329902Y-56410500D01*
X53443298Y-56392539D01*
X53586493Y-56369860D01*
X53833572Y-56289579D01*
X54065051Y-56171634D01*
X54275229Y-56018931D01*
X54458931Y-55835229D01*
X54611634Y-55625051D01*
X54729579Y-55393572D01*
X54809860Y-55146493D01*
X54832539Y-55003298D01*
X54850500Y-54889902D01*
X54850500Y-54630097D01*
X54828947Y-54494021D01*
X54809860Y-54373507D01*
X54729579Y-54126428D01*
X54729577Y-54126425D01*
X54729577Y-54126423D01*
X54686787Y-54042445D01*
X54611634Y-53894949D01*
X54458931Y-53684771D01*
X54351841Y-53577681D01*
X54318356Y-53516358D01*
X54323340Y-53446666D01*
X54351841Y-53402319D01*
X54458931Y-53295229D01*
X54611634Y-53085051D01*
X54729579Y-52853572D01*
X54809860Y-52606493D01*
X54850500Y-52349897D01*
X54850500Y-52090103D01*
X54850500Y-52090097D01*
X54818944Y-51890863D01*
X54809860Y-51833507D01*
X54729579Y-51586428D01*
X54729577Y-51586425D01*
X54729577Y-51586423D01*
X54686787Y-51502445D01*
X54611634Y-51354949D01*
X54458931Y-51144771D01*
X54456341Y-51142181D01*
X54422856Y-51080858D01*
X54427840Y-51011166D01*
X54469712Y-50955233D01*
X54535176Y-50930816D01*
X54544022Y-50930500D01*
X55350122Y-50930500D01*
X55438484Y-50916504D01*
X55544526Y-50899709D01*
X55641861Y-50868081D01*
X55711699Y-50866086D01*
X55767858Y-50898332D01*
X56710493Y-51840967D01*
X56743978Y-51902290D01*
X56745285Y-51948046D01*
X56717800Y-52121577D01*
X56717800Y-54889364D01*
X56698115Y-54956403D01*
X56681481Y-54977045D01*
X47165345Y-64493181D01*
X47104022Y-64526666D01*
X47077664Y-64529500D01*
X45937123Y-64529500D01*
X45870084Y-64509815D01*
X45864238Y-64505818D01*
X45675054Y-64368368D01*
X45675053Y-64368367D01*
X45675051Y-64368366D01*
X45602764Y-64331534D01*
X45443576Y-64250422D01*
X45196493Y-64170140D01*
X44939902Y-64129500D01*
X44939897Y-64129500D01*
X43880103Y-64129500D01*
X43880098Y-64129500D01*
X43623506Y-64170140D01*
X43376423Y-64250422D01*
X43144945Y-64368368D01*
X42934774Y-64521066D01*
X42934768Y-64521071D01*
X42751071Y-64704768D01*
X42751066Y-64704774D01*
X42598368Y-64914945D01*
X42480422Y-65146423D01*
X42400140Y-65393506D01*
X42359500Y-65650097D01*
X42359500Y-65909902D01*
X42400140Y-66166493D01*
X42480422Y-66413576D01*
X42598368Y-66645054D01*
X42736115Y-66834647D01*
X42751069Y-66855229D01*
X42934771Y-67038931D01*
X43144949Y-67191634D01*
X43292445Y-67266787D01*
X43376423Y-67309577D01*
X43376425Y-67309577D01*
X43376428Y-67309579D01*
X43623507Y-67389860D01*
X43755706Y-67410797D01*
X43880098Y-67430500D01*
X43880103Y-67430500D01*
X44939902Y-67430500D01*
X45053298Y-67412539D01*
X45196493Y-67389860D01*
X45443572Y-67309579D01*
X45675051Y-67191634D01*
X45843154Y-67069500D01*
X45864238Y-67054182D01*
X45930044Y-67030702D01*
X45937123Y-67030500D01*
X46292364Y-67030500D01*
X46359403Y-67050185D01*
X46380045Y-67066819D01*
X48313181Y-68999955D01*
X48346666Y-69061278D01*
X48349500Y-69087636D01*
X48349500Y-71472877D01*
X48329815Y-71539916D01*
X48325818Y-71545762D01*
X48188368Y-71734945D01*
X48070422Y-71966423D01*
X47990140Y-72213506D01*
X47949500Y-72470097D01*
X47949500Y-72729902D01*
X47990140Y-72986493D01*
X48070422Y-73233576D01*
X48188368Y-73465054D01*
X48249000Y-73548507D01*
X48341069Y-73675229D01*
X48524771Y-73858931D01*
X48734949Y-74011634D01*
X48882445Y-74086787D01*
X48966423Y-74129577D01*
X48966425Y-74129577D01*
X48966428Y-74129579D01*
X49213507Y-74209860D01*
X49345706Y-74230797D01*
X49470098Y-74250500D01*
X49470103Y-74250500D01*
X49729902Y-74250500D01*
X49843298Y-74232539D01*
X49986493Y-74209860D01*
X50233572Y-74129579D01*
X50465051Y-74011634D01*
X50675229Y-73858931D01*
X50858931Y-73675229D01*
X51011634Y-73465051D01*
X51129579Y-73233572D01*
X51209860Y-72986493D01*
X51239797Y-72797477D01*
X51250500Y-72729902D01*
X51250500Y-72470097D01*
X51227072Y-72322181D01*
X51209860Y-72213507D01*
X51129579Y-71966428D01*
X51129577Y-71966425D01*
X51129577Y-71966423D01*
X51051825Y-71813828D01*
X51011634Y-71734949D01*
X50874182Y-71545762D01*
X50850702Y-71479956D01*
X50850500Y-71472877D01*
X50850500Y-68419877D01*
X50832586Y-68306783D01*
X50819709Y-68225474D01*
X50819708Y-68225470D01*
X50819708Y-68225469D01*
X50760391Y-68042912D01*
X50759329Y-68039147D01*
X50669523Y-67862894D01*
X50553828Y-67703654D01*
X49110504Y-66260330D01*
X49077019Y-66199007D01*
X49082003Y-66129315D01*
X49110500Y-66084973D01*
X58164408Y-57031064D01*
X58225729Y-56997581D01*
X58295421Y-57002565D01*
X58351354Y-57044437D01*
X58375771Y-57109901D01*
X58374561Y-57138142D01*
X58369500Y-57170100D01*
X58369500Y-57429902D01*
X58410140Y-57686493D01*
X58490422Y-57933576D01*
X58571534Y-58092764D01*
X58608366Y-58165051D01*
X58761069Y-58375229D01*
X58944771Y-58558931D01*
X59154949Y-58711634D01*
X59302445Y-58786787D01*
X59386423Y-58829577D01*
X59386425Y-58829577D01*
X59386428Y-58829579D01*
X59633507Y-58909860D01*
X59765706Y-58930797D01*
X59890098Y-58950500D01*
X59890103Y-58950500D01*
X60949902Y-58950500D01*
X61063298Y-58932539D01*
X61206493Y-58909860D01*
X61453572Y-58829579D01*
X61685051Y-58711634D01*
X61895229Y-58558931D01*
X62078931Y-58375229D01*
X62231634Y-58165051D01*
X62349579Y-57933572D01*
X62429860Y-57686493D01*
X62452539Y-57543298D01*
X62470500Y-57429902D01*
X62470500Y-57170097D01*
X62443965Y-57002565D01*
X62429860Y-56913507D01*
X62349579Y-56666428D01*
X62349577Y-56666425D01*
X62349577Y-56666423D01*
X62306787Y-56582445D01*
X62231634Y-56434949D01*
X62078931Y-56224771D01*
X61971841Y-56117681D01*
X61938356Y-56056358D01*
X61943340Y-55986666D01*
X61971841Y-55942319D01*
X62078931Y-55835229D01*
X62231634Y-55625051D01*
X62349579Y-55393572D01*
X62429860Y-55146493D01*
X62452539Y-55003298D01*
X62470500Y-54889902D01*
X62470500Y-54630097D01*
X62448947Y-54494021D01*
X62429860Y-54373507D01*
X62349579Y-54126428D01*
X62349577Y-54126425D01*
X62349577Y-54126423D01*
X62306787Y-54042445D01*
X62231634Y-53894949D01*
X62078931Y-53684771D01*
X61971841Y-53577681D01*
X61938356Y-53516358D01*
X61943340Y-53446666D01*
X61971841Y-53402319D01*
X62078931Y-53295229D01*
X62231634Y-53085051D01*
X62349579Y-52853572D01*
X62429860Y-52606493D01*
X62470500Y-52349897D01*
X62470500Y-52090103D01*
X62470500Y-52090097D01*
X62438944Y-51890863D01*
X62429860Y-51833507D01*
X62349579Y-51586428D01*
X62349577Y-51586425D01*
X62349577Y-51586423D01*
X62306787Y-51502445D01*
X62231634Y-51354949D01*
X62078931Y-51144771D01*
X61895229Y-50961069D01*
X61895225Y-50961066D01*
X61685054Y-50808368D01*
X61685053Y-50808367D01*
X61685051Y-50808366D01*
X61612419Y-50771358D01*
X61453576Y-50690422D01*
X61206493Y-50610140D01*
X60949902Y-50569500D01*
X60949897Y-50569500D01*
X59890103Y-50569500D01*
X59890098Y-50569500D01*
X59633506Y-50610140D01*
X59386420Y-50690423D01*
X59274894Y-50747249D01*
X59206225Y-50760145D01*
X59141485Y-50733868D01*
X59130919Y-50724445D01*
X57263019Y-48856545D01*
X57229534Y-48795222D01*
X57226700Y-48768864D01*
X57226700Y-47161435D01*
X57246385Y-47094396D01*
X57263015Y-47073758D01*
X57879249Y-46457524D01*
X57879260Y-46457517D01*
X57962768Y-46374006D01*
X58018428Y-46318346D01*
X58018427Y-46318346D01*
X58076978Y-46259796D01*
X58076986Y-46259786D01*
X58449957Y-45886816D01*
X58511279Y-45853334D01*
X58537637Y-45850500D01*
X58892877Y-45850500D01*
X58959916Y-45870185D01*
X58965762Y-45874182D01*
X58996285Y-45896358D01*
X59154949Y-46011634D01*
X59302445Y-46086787D01*
X59386423Y-46129577D01*
X59386425Y-46129577D01*
X59386428Y-46129579D01*
X59633507Y-46209860D01*
X59765706Y-46230797D01*
X59890098Y-46250500D01*
X59890103Y-46250500D01*
X60949902Y-46250500D01*
X61063298Y-46232539D01*
X61206493Y-46209860D01*
X61453572Y-46129579D01*
X61685051Y-46011634D01*
X61874238Y-45874182D01*
X61940044Y-45850702D01*
X61947123Y-45850500D01*
X62970122Y-45850500D01*
X63164526Y-45819709D01*
X63351725Y-45758884D01*
X63527105Y-45669524D01*
X63686346Y-45553828D01*
X63825528Y-45414646D01*
X63941224Y-45255405D01*
X64030584Y-45080025D01*
X64091409Y-44892826D01*
X64095759Y-44865364D01*
X64122200Y-44698422D01*
X64122200Y-43554500D01*
X64124750Y-43545814D01*
X64123462Y-43536853D01*
X64134440Y-43512812D01*
X64141885Y-43487461D01*
X64148725Y-43481533D01*
X64152487Y-43473297D01*
X64174721Y-43459007D01*
X64194689Y-43441706D01*
X64205203Y-43439418D01*
X64211265Y-43435523D01*
X64246200Y-43430500D01*
X64482877Y-43430500D01*
X64549916Y-43450185D01*
X64555762Y-43454182D01*
X64567179Y-43462477D01*
X64744949Y-43591634D01*
X64861999Y-43651274D01*
X64976423Y-43709577D01*
X64976425Y-43709577D01*
X64976428Y-43709579D01*
X65223507Y-43789860D01*
X65355706Y-43810797D01*
X65480098Y-43830500D01*
X65480103Y-43830500D01*
X65739902Y-43830500D01*
X65859128Y-43811616D01*
X65996493Y-43789860D01*
X66243572Y-43709579D01*
X66475051Y-43591634D01*
X66685229Y-43438931D01*
X66868931Y-43255229D01*
X67021634Y-43045051D01*
X67139579Y-42813572D01*
X67219860Y-42566493D01*
X67247621Y-42391213D01*
X67260500Y-42309902D01*
X67260500Y-42050097D01*
X67238947Y-41914021D01*
X67219860Y-41793507D01*
X67139579Y-41546428D01*
X67139577Y-41546425D01*
X67139577Y-41546423D01*
X67093249Y-41455500D01*
X67021634Y-41314949D01*
X66868931Y-41104771D01*
X66685229Y-40921069D01*
X66685225Y-40921066D01*
X66475054Y-40768368D01*
X66475053Y-40768367D01*
X66475051Y-40768366D01*
X66400451Y-40730355D01*
X66243576Y-40650422D01*
X65996493Y-40570140D01*
X65739902Y-40529500D01*
X65739897Y-40529500D01*
X65480103Y-40529500D01*
X65480098Y-40529500D01*
X65223506Y-40570140D01*
X64976423Y-40650422D01*
X64744945Y-40768368D01*
X64555762Y-40905818D01*
X64489956Y-40929298D01*
X64482877Y-40929500D01*
X63437202Y-40929500D01*
X63380907Y-40915985D01*
X63351729Y-40901117D01*
X63164526Y-40840290D01*
X62970122Y-40809500D01*
X62970117Y-40809500D01*
X61947123Y-40809500D01*
X61880084Y-40789815D01*
X61874238Y-40785818D01*
X61685054Y-40648368D01*
X61685053Y-40648367D01*
X61685051Y-40648366D01*
X61573432Y-40591493D01*
X61453576Y-40530422D01*
X61206493Y-40450140D01*
X60949902Y-40409500D01*
X60949897Y-40409500D01*
X59890103Y-40409500D01*
X59890098Y-40409500D01*
X59633506Y-40450140D01*
X59386423Y-40530422D01*
X59154945Y-40648368D01*
X58944774Y-40801066D01*
X58944768Y-40801071D01*
X58761071Y-40984768D01*
X58761066Y-40984774D01*
X58608368Y-41194945D01*
X58490422Y-41426423D01*
X58410140Y-41673506D01*
X58369500Y-41930097D01*
X58369500Y-42189902D01*
X58410140Y-42446493D01*
X58490422Y-42693576D01*
X58608368Y-42925054D01*
X58761066Y-43135225D01*
X58761071Y-43135231D01*
X58763659Y-43137819D01*
X58797144Y-43199142D01*
X58792160Y-43268834D01*
X58750288Y-43324767D01*
X58684824Y-43349184D01*
X58675978Y-43349500D01*
X57869878Y-43349500D01*
X57675473Y-43380290D01*
X57488269Y-43441117D01*
X57312891Y-43530478D01*
X57153660Y-43646165D01*
X57153650Y-43646173D01*
X57152258Y-43647566D01*
X57151600Y-43647924D01*
X57149958Y-43649328D01*
X57149662Y-43648982D01*
X57090932Y-43681045D01*
X57021240Y-43676053D01*
X56976906Y-43647558D01*
X54886820Y-41557532D01*
X54853334Y-41496210D01*
X54850500Y-41469850D01*
X54850500Y-41425973D01*
X54850500Y-41425962D01*
X54847688Y-41378755D01*
X54842265Y-41353828D01*
X54803015Y-41173397D01*
X54803012Y-41173386D01*
X54720281Y-40980191D01*
X54720280Y-40980189D01*
X54720279Y-40980187D01*
X54602477Y-40806135D01*
X54453865Y-40657523D01*
X54279813Y-40539721D01*
X54279811Y-40539720D01*
X54279808Y-40539718D01*
X54086613Y-40456987D01*
X54086602Y-40456984D01*
X53881250Y-40412312D01*
X53866492Y-40411433D01*
X53834038Y-40409500D01*
X51765962Y-40409500D01*
X51735416Y-40411319D01*
X51718749Y-40412312D01*
X51513397Y-40456984D01*
X51513386Y-40456987D01*
X51320191Y-40539718D01*
X51146137Y-40657521D01*
X51146132Y-40657525D01*
X50997525Y-40806132D01*
X50997521Y-40806137D01*
X50879718Y-40980191D01*
X50796987Y-41173386D01*
X50796984Y-41173397D01*
X50752312Y-41378749D01*
X50752312Y-41378755D01*
X50749500Y-41425962D01*
X50749500Y-42694038D01*
X50751484Y-42727360D01*
X50752312Y-42741250D01*
X50796984Y-42946602D01*
X50796987Y-42946613D01*
X50879718Y-43139808D01*
X50879720Y-43139811D01*
X50879721Y-43139813D01*
X50967045Y-43268834D01*
X50997521Y-43313862D01*
X50997525Y-43313867D01*
X51094527Y-43410869D01*
X51128012Y-43472192D01*
X51123028Y-43541884D01*
X51107164Y-43571435D01*
X50988368Y-43734945D01*
X50870422Y-43966423D01*
X50790140Y-44213506D01*
X50749500Y-44470097D01*
X50749500Y-44729902D01*
X50790140Y-44986493D01*
X50870422Y-45233576D01*
X50929147Y-45348828D01*
X50988097Y-45464524D01*
X50988368Y-45465054D01*
X51141066Y-45675225D01*
X51141071Y-45675231D01*
X51143659Y-45677819D01*
X51154271Y-45697255D01*
X51168772Y-45713989D01*
X51170688Y-45727320D01*
X51177144Y-45739142D01*
X51175564Y-45761228D01*
X51178716Y-45783147D01*
X51173120Y-45795398D01*
X51172160Y-45808834D01*
X51158889Y-45826560D01*
X51149691Y-45846703D01*
X51138359Y-45853985D01*
X51130288Y-45864767D01*
X51109542Y-45872504D01*
X51090913Y-45884477D01*
X51068994Y-45887628D01*
X51064824Y-45889184D01*
X51055978Y-45889500D01*
X50917636Y-45889500D01*
X50850597Y-45869815D01*
X50829955Y-45853181D01*
X49929819Y-44953045D01*
X49896334Y-44891722D01*
X49893500Y-44865364D01*
X49893500Y-40818036D01*
X49913185Y-40750997D01*
X49929819Y-40730355D01*
X51280755Y-39379419D01*
X51342078Y-39345934D01*
X51368436Y-39343100D01*
X66264522Y-39343100D01*
X66458926Y-39312309D01*
X66488770Y-39302612D01*
X66646126Y-39251484D01*
X66821505Y-39162124D01*
X66980746Y-39046428D01*
X71895398Y-34131774D01*
X71935620Y-34104898D01*
X72023726Y-34068405D01*
X72216774Y-33956948D01*
X72360014Y-33847037D01*
X72425183Y-33821843D01*
X72493628Y-33835882D01*
X72543618Y-33884696D01*
X72559500Y-33945413D01*
X72559500Y-37726526D01*
X72539815Y-37793565D01*
X72523181Y-37814207D01*
X67946174Y-42391213D01*
X67946174Y-42391214D01*
X67946172Y-42391216D01*
X67906011Y-42446493D01*
X67830476Y-42550456D01*
X67741116Y-42725836D01*
X67741113Y-42725842D01*
X67735052Y-42744499D01*
X67735052Y-42744501D01*
X67680290Y-42913035D01*
X67649500Y-43107439D01*
X67649500Y-47868912D01*
X67629815Y-47935951D01*
X67613181Y-47956593D01*
X63646174Y-51923599D01*
X63646174Y-51923600D01*
X63646172Y-51923602D01*
X63596485Y-51991989D01*
X63530476Y-52082842D01*
X63441117Y-52258219D01*
X63411329Y-52349897D01*
X63411329Y-52349898D01*
X63380290Y-52445421D01*
X63349500Y-52639825D01*
X63349500Y-66118422D01*
X63380290Y-66312826D01*
X63441117Y-66500030D01*
X63510227Y-66635664D01*
X63530476Y-66675405D01*
X63646172Y-66834646D01*
X63646174Y-66834648D01*
X64098765Y-67287239D01*
X64132250Y-67348562D01*
X64133557Y-67355522D01*
X64170139Y-67586493D01*
X64250422Y-67833576D01*
X64317620Y-67965457D01*
X64354722Y-68038274D01*
X64368368Y-68065054D01*
X64482093Y-68221583D01*
X64521069Y-68275229D01*
X64704771Y-68458931D01*
X64914949Y-68611634D01*
X65062445Y-68686787D01*
X65146423Y-68729577D01*
X65146425Y-68729577D01*
X65146428Y-68729579D01*
X65393507Y-68809860D01*
X65525706Y-68830797D01*
X65650098Y-68850500D01*
X65650103Y-68850500D01*
X65909902Y-68850500D01*
X66023298Y-68832539D01*
X66166493Y-68809860D01*
X66413572Y-68729579D01*
X66645051Y-68611634D01*
X66855229Y-68458931D01*
X67038931Y-68275229D01*
X67191634Y-68065051D01*
X67309579Y-67833572D01*
X67309579Y-67833570D01*
X67311302Y-67830190D01*
X67359277Y-67779394D01*
X67427098Y-67762599D01*
X67493233Y-67785136D01*
X67509468Y-67798804D01*
X68813181Y-69102517D01*
X68846666Y-69163840D01*
X68849500Y-69190198D01*
X68849500Y-75525500D01*
X68829815Y-75592539D01*
X68777011Y-75638294D01*
X68725500Y-75649500D01*
X64801579Y-75649500D01*
X64746759Y-75658183D01*
X64733053Y-75660354D01*
X64733052Y-75660354D01*
X64607174Y-75680290D01*
X64607173Y-75680290D01*
X64419969Y-75741117D01*
X64244594Y-75830476D01*
X64167852Y-75886233D01*
X64085355Y-75946171D01*
X64085353Y-75946173D01*
X64085352Y-75946173D01*
X61026174Y-79005351D01*
X61026174Y-79005352D01*
X61026172Y-79005354D01*
X60976485Y-79073741D01*
X60910476Y-79164594D01*
X60821116Y-79339972D01*
X60809356Y-79376170D01*
X60809355Y-79376172D01*
X60760290Y-79527177D01*
X60729500Y-79721577D01*
X60729500Y-82072877D01*
X60709815Y-82139916D01*
X60705818Y-82145762D01*
X60568368Y-82334945D01*
X60450422Y-82566423D01*
X60370140Y-82813506D01*
X60329500Y-83070097D01*
X60329500Y-83329902D01*
X60370140Y-83586493D01*
X60450422Y-83833576D01*
X60568368Y-84065054D01*
X60721066Y-84275225D01*
X60721069Y-84275229D01*
X60904771Y-84458931D01*
X61114949Y-84611634D01*
X61262445Y-84686787D01*
X61346423Y-84729577D01*
X61346425Y-84729577D01*
X61346428Y-84729579D01*
X61593507Y-84809860D01*
X61725706Y-84830797D01*
X61850098Y-84850500D01*
X61850103Y-84850500D01*
X62109902Y-84850500D01*
X62223298Y-84832539D01*
X62366493Y-84809860D01*
X62613572Y-84729579D01*
X62845051Y-84611634D01*
X63055229Y-84458931D01*
X63238931Y-84275229D01*
X63391634Y-84065051D01*
X63509579Y-83833572D01*
X63589860Y-83586493D01*
X63626346Y-83356126D01*
X63630500Y-83329902D01*
X63630500Y-83070097D01*
X63608947Y-82934021D01*
X63589860Y-82813507D01*
X63509579Y-82566428D01*
X63509577Y-82566425D01*
X63509577Y-82566423D01*
X63447836Y-82445252D01*
X63391634Y-82334949D01*
X63254182Y-82145762D01*
X63230702Y-82079956D01*
X63230500Y-82072877D01*
X63230500Y-80389335D01*
X63250185Y-80322296D01*
X63266815Y-80301658D01*
X64029961Y-79538511D01*
X64091284Y-79505027D01*
X64160976Y-79510011D01*
X64216909Y-79551883D01*
X64235573Y-79587874D01*
X64250422Y-79633576D01*
X64304104Y-79738931D01*
X64360686Y-79849979D01*
X64368368Y-79865054D01*
X64475805Y-80012929D01*
X64521069Y-80075229D01*
X64704771Y-80258931D01*
X64914949Y-80411634D01*
X65062445Y-80486787D01*
X65146423Y-80529577D01*
X65146425Y-80529577D01*
X65146428Y-80529579D01*
X65393507Y-80609860D01*
X65520081Y-80629907D01*
X65624477Y-80646442D01*
X65643708Y-80655558D01*
X65664506Y-80660083D01*
X65683936Y-80674628D01*
X65687612Y-80676371D01*
X65692760Y-80681234D01*
X65823181Y-80811655D01*
X65856666Y-80872978D01*
X65859500Y-80899336D01*
X65859500Y-86077877D01*
X65839815Y-86144916D01*
X65835818Y-86150762D01*
X65698368Y-86339945D01*
X65580422Y-86571423D01*
X65500140Y-86818506D01*
X65459500Y-87075097D01*
X65459500Y-87334902D01*
X65500140Y-87591493D01*
X65580421Y-87838572D01*
X65607684Y-87892077D01*
X65621200Y-87948373D01*
X65621200Y-92749275D01*
X65601515Y-92816314D01*
X65548711Y-92862069D01*
X65479553Y-92872013D01*
X65458430Y-92866232D01*
X65458205Y-92866927D01*
X65453575Y-92865422D01*
X65453572Y-92865421D01*
X65206493Y-92785140D01*
X64949902Y-92744500D01*
X64949897Y-92744500D01*
X63890103Y-92744500D01*
X63890098Y-92744500D01*
X63633506Y-92785140D01*
X63549090Y-92812568D01*
X63386428Y-92865421D01*
X63386424Y-92865422D01*
X63381795Y-92866927D01*
X63381120Y-92864850D01*
X63320628Y-92871277D01*
X63258189Y-92839922D01*
X63222613Y-92779788D01*
X63218800Y-92749275D01*
X63218800Y-90964747D01*
X63238485Y-90897708D01*
X63291289Y-90851953D01*
X63323401Y-90842274D01*
X63496493Y-90814860D01*
X63743572Y-90734579D01*
X63975051Y-90616634D01*
X64185229Y-90463931D01*
X64368931Y-90280229D01*
X64521634Y-90070051D01*
X64639579Y-89838572D01*
X64719860Y-89591493D01*
X64742539Y-89448298D01*
X64760500Y-89334902D01*
X64760500Y-89075097D01*
X64738947Y-88939021D01*
X64719860Y-88818507D01*
X64639579Y-88571428D01*
X64639577Y-88571425D01*
X64639577Y-88571423D01*
X64584806Y-88463931D01*
X64521634Y-88339949D01*
X64368931Y-88129771D01*
X64185229Y-87946069D01*
X64110915Y-87892077D01*
X63975054Y-87793368D01*
X63975053Y-87793367D01*
X63975051Y-87793366D01*
X63902764Y-87756534D01*
X63743576Y-87675422D01*
X63496493Y-87595140D01*
X63239902Y-87554500D01*
X63239897Y-87554500D01*
X62980103Y-87554500D01*
X62980098Y-87554500D01*
X62723506Y-87595140D01*
X62476423Y-87675422D01*
X62244945Y-87793368D01*
X62034774Y-87946066D01*
X62034768Y-87946071D01*
X61851071Y-88129768D01*
X61851066Y-88129774D01*
X61698368Y-88339945D01*
X61580422Y-88571423D01*
X61500139Y-88818506D01*
X61463557Y-89049477D01*
X61433628Y-89112612D01*
X61428765Y-89117760D01*
X61014474Y-89532051D01*
X61014474Y-89532052D01*
X61014472Y-89532054D01*
X60971287Y-89591493D01*
X60898776Y-89691294D01*
X60809417Y-89866669D01*
X60792446Y-89918899D01*
X60783620Y-89946068D01*
X60783619Y-89946070D01*
X60748590Y-90053873D01*
X60717800Y-90248277D01*
X60717800Y-94493422D01*
X60748590Y-94687826D01*
X60787193Y-94806631D01*
X60809416Y-94875025D01*
X60898776Y-95050405D01*
X61014472Y-95209646D01*
X61153654Y-95348828D01*
X61312895Y-95464524D01*
X61364850Y-95490996D01*
X61488270Y-95553882D01*
X61488272Y-95553882D01*
X61488275Y-95553884D01*
X61588617Y-95586487D01*
X61675473Y-95614709D01*
X61869878Y-95645500D01*
X61869883Y-95645500D01*
X62066717Y-95645500D01*
X62675978Y-95645500D01*
X62743017Y-95665185D01*
X62788772Y-95717989D01*
X62798716Y-95787147D01*
X62769691Y-95850703D01*
X62763659Y-95857181D01*
X62761071Y-95859768D01*
X62761066Y-95859774D01*
X62608368Y-96069945D01*
X62490422Y-96301423D01*
X62410140Y-96548506D01*
X62369500Y-96805097D01*
X62369500Y-97064902D01*
X62410140Y-97321493D01*
X62490422Y-97568576D01*
X62608368Y-97800054D01*
X62761066Y-98010225D01*
X62761071Y-98010231D01*
X62868159Y-98117319D01*
X62901644Y-98178642D01*
X62896660Y-98248334D01*
X62868159Y-98292681D01*
X62761071Y-98399768D01*
X62761066Y-98399774D01*
X62608368Y-98609945D01*
X62490422Y-98841423D01*
X62410140Y-99088506D01*
X62369500Y-99345097D01*
X62369500Y-99604902D01*
X62410140Y-99861493D01*
X62490422Y-100108576D01*
X62554501Y-100234336D01*
X62608366Y-100340051D01*
X62761069Y-100550229D01*
X62944771Y-100733931D01*
X63154949Y-100886634D01*
X63302445Y-100961787D01*
X63386423Y-101004577D01*
X63386425Y-101004577D01*
X63386428Y-101004579D01*
X63633507Y-101084860D01*
X63765706Y-101105797D01*
X63890098Y-101125500D01*
X63890103Y-101125500D01*
X64949902Y-101125500D01*
X65063298Y-101107539D01*
X65206493Y-101084860D01*
X65453572Y-101004579D01*
X65685051Y-100886634D01*
X65874238Y-100749182D01*
X65940044Y-100725702D01*
X65947123Y-100725500D01*
X69278800Y-100725500D01*
X69345839Y-100745185D01*
X69391594Y-100797989D01*
X69402800Y-100849500D01*
X69402800Y-105156722D01*
X69433590Y-105351126D01*
X69494417Y-105538330D01*
X69555339Y-105657894D01*
X69583776Y-105713705D01*
X69699472Y-105872946D01*
X69699474Y-105872948D01*
X70118765Y-106292239D01*
X70152250Y-106353562D01*
X70153557Y-106360522D01*
X70190139Y-106591493D01*
X70270422Y-106838576D01*
X70348138Y-106991099D01*
X70354326Y-107003245D01*
X70388368Y-107070054D01*
X70533620Y-107269976D01*
X70541069Y-107280229D01*
X70724771Y-107463931D01*
X70934949Y-107616634D01*
X71082445Y-107691787D01*
X71166423Y-107734577D01*
X71166425Y-107734577D01*
X71166428Y-107734579D01*
X71413507Y-107814860D01*
X71545706Y-107835797D01*
X71670098Y-107855500D01*
X71670103Y-107855500D01*
X71929902Y-107855500D01*
X72043298Y-107837539D01*
X72186493Y-107814860D01*
X72433572Y-107734579D01*
X72665051Y-107616634D01*
X72875229Y-107463931D01*
X73058931Y-107280229D01*
X73211634Y-107070051D01*
X73329579Y-106838572D01*
X73409860Y-106591493D01*
X73443657Y-106378103D01*
X73450500Y-106334902D01*
X73450500Y-106075097D01*
X73423369Y-105903800D01*
X73409860Y-105818507D01*
X73329579Y-105571428D01*
X73329577Y-105571425D01*
X73329577Y-105571423D01*
X73286787Y-105487445D01*
X73211634Y-105339949D01*
X73058931Y-105129771D01*
X72875229Y-104946069D01*
X72875225Y-104946066D01*
X72665054Y-104793368D01*
X72665053Y-104793367D01*
X72665051Y-104793366D01*
X72592764Y-104756534D01*
X72433576Y-104675422D01*
X72186493Y-104595140D01*
X72008402Y-104566933D01*
X71945267Y-104537004D01*
X71908336Y-104477692D01*
X71903800Y-104444460D01*
X71903800Y-100097256D01*
X71923485Y-100030217D01*
X71976289Y-99984462D01*
X72008402Y-99974783D01*
X72066928Y-99965512D01*
X72176493Y-99948160D01*
X72423572Y-99867879D01*
X72655051Y-99749934D01*
X72865229Y-99597231D01*
X73048931Y-99413529D01*
X73201634Y-99203351D01*
X73319579Y-98971872D01*
X73399860Y-98724793D01*
X73431637Y-98524158D01*
X73440500Y-98468202D01*
X73440500Y-98208397D01*
X73408209Y-98004524D01*
X73399860Y-97951807D01*
X73319579Y-97704728D01*
X73319577Y-97704725D01*
X73319577Y-97704723D01*
X73251656Y-97571423D01*
X73201634Y-97473249D01*
X73159332Y-97415025D01*
X73074182Y-97297825D01*
X73050702Y-97232019D01*
X73050500Y-97224940D01*
X73050500Y-92332122D01*
X73070185Y-92265083D01*
X73074161Y-92259265D01*
X73211634Y-92070051D01*
X73329579Y-91838572D01*
X73409860Y-91591493D01*
X73439678Y-91403226D01*
X73450500Y-91334902D01*
X73450500Y-91075097D01*
X73413624Y-90842274D01*
X73409860Y-90818507D01*
X73366569Y-90685270D01*
X73360500Y-90646952D01*
X73360500Y-88332122D01*
X73380185Y-88265083D01*
X73384161Y-88259265D01*
X73521634Y-88070051D01*
X73639579Y-87838572D01*
X73719860Y-87591493D01*
X73744797Y-87434045D01*
X73760500Y-87334902D01*
X73760500Y-87075097D01*
X73738947Y-86939021D01*
X73719860Y-86818507D01*
X73639579Y-86571428D01*
X73639577Y-86571425D01*
X73639577Y-86571423D01*
X73596787Y-86487445D01*
X73521634Y-86339949D01*
X73368931Y-86129771D01*
X73185229Y-85946069D01*
X73060571Y-85855500D01*
X72975054Y-85793368D01*
X72975053Y-85793367D01*
X72975051Y-85793366D01*
X72859672Y-85734577D01*
X72743576Y-85675422D01*
X72496493Y-85595139D01*
X72265522Y-85558557D01*
X72202387Y-85528628D01*
X72197239Y-85523765D01*
X70971594Y-84298120D01*
X70938109Y-84236797D01*
X70943093Y-84167105D01*
X70958958Y-84137553D01*
X71011631Y-84065055D01*
X71011632Y-84065054D01*
X71011634Y-84065051D01*
X71129579Y-83833572D01*
X71209860Y-83586493D01*
X71246346Y-83356126D01*
X71250500Y-83329902D01*
X71250500Y-83070097D01*
X71228947Y-82934021D01*
X71209860Y-82813507D01*
X71129579Y-82566428D01*
X71129577Y-82566425D01*
X71129577Y-82566423D01*
X71067836Y-82445252D01*
X71011634Y-82334949D01*
X70858931Y-82124771D01*
X70675229Y-81941069D01*
X70465051Y-81788366D01*
X70392764Y-81751534D01*
X70233576Y-81670422D01*
X69986493Y-81590140D01*
X69729902Y-81549500D01*
X69729897Y-81549500D01*
X69470103Y-81549500D01*
X69470098Y-81549500D01*
X69213506Y-81590140D01*
X68966423Y-81670422D01*
X68734945Y-81788368D01*
X68557385Y-81917373D01*
X68491579Y-81940853D01*
X68423525Y-81925027D01*
X68374830Y-81874922D01*
X68360500Y-81817055D01*
X68360500Y-80231577D01*
X68329709Y-80037173D01*
X68299684Y-79944768D01*
X68282420Y-79891634D01*
X68282419Y-79891631D01*
X68268886Y-79849979D01*
X68268884Y-79849973D01*
X68212303Y-79738928D01*
X68179524Y-79674595D01*
X68063828Y-79515354D01*
X67461234Y-78912760D01*
X67427749Y-78851437D01*
X67426442Y-78844477D01*
X67407071Y-78722173D01*
X67389860Y-78613507D01*
X67309579Y-78366428D01*
X67309577Y-78366425D01*
X67309577Y-78366423D01*
X67291423Y-78330795D01*
X67278527Y-78262126D01*
X67304803Y-78197386D01*
X67361909Y-78157128D01*
X67401908Y-78150500D01*
X70198422Y-78150500D01*
X70392826Y-78119709D01*
X70580025Y-78058884D01*
X70755405Y-77969524D01*
X70914646Y-77853828D01*
X71053828Y-77714646D01*
X71169524Y-77555405D01*
X71258884Y-77380025D01*
X71319709Y-77192826D01*
X71333053Y-77108576D01*
X71350500Y-76998422D01*
X71350500Y-68522439D01*
X71319709Y-68328035D01*
X71258882Y-68140831D01*
X71169523Y-67965456D01*
X71053829Y-67806217D01*
X67916820Y-64669208D01*
X67883335Y-64607885D01*
X67880501Y-64581527D01*
X67880501Y-63404741D01*
X67900186Y-63337702D01*
X67952990Y-63291947D01*
X68022148Y-63282003D01*
X68077383Y-63304421D01*
X68224949Y-63411634D01*
X68327860Y-63464070D01*
X68456423Y-63529577D01*
X68456425Y-63529577D01*
X68456428Y-63529579D01*
X68703507Y-63609860D01*
X68831393Y-63630114D01*
X68934477Y-63646442D01*
X68997612Y-63676371D01*
X69002760Y-63681234D01*
X71820989Y-66499463D01*
X71854474Y-66560786D01*
X71851239Y-66625462D01*
X71790140Y-66813502D01*
X71790140Y-66813505D01*
X71749500Y-67070097D01*
X71749500Y-67329902D01*
X71790140Y-67586493D01*
X71870422Y-67833576D01*
X71988366Y-68065051D01*
X72125819Y-68254239D01*
X72149298Y-68320043D01*
X72149500Y-68327122D01*
X72149500Y-71472877D01*
X72129815Y-71539916D01*
X72125818Y-71545762D01*
X71988368Y-71734945D01*
X71870422Y-71966423D01*
X71790140Y-72213506D01*
X71749500Y-72470097D01*
X71749500Y-72729902D01*
X71790140Y-72986493D01*
X71870422Y-73233576D01*
X71988368Y-73465054D01*
X72049000Y-73548507D01*
X72141069Y-73675229D01*
X72324771Y-73858931D01*
X72534949Y-74011634D01*
X72618016Y-74053958D01*
X72668811Y-74101932D01*
X72685606Y-74169753D01*
X72663069Y-74235888D01*
X72649401Y-74252124D01*
X72446175Y-74455350D01*
X72446174Y-74455351D01*
X72446172Y-74455354D01*
X72396485Y-74523741D01*
X72330476Y-74614594D01*
X72241115Y-74789973D01*
X72241114Y-74789976D01*
X72195756Y-74929578D01*
X72180290Y-74977176D01*
X72180290Y-74977177D01*
X72149500Y-75171577D01*
X72149500Y-77872877D01*
X72129815Y-77939916D01*
X72125818Y-77945762D01*
X71988368Y-78134945D01*
X71870422Y-78366423D01*
X71790140Y-78613506D01*
X71749500Y-78870097D01*
X71749500Y-79129902D01*
X71790140Y-79386493D01*
X71870422Y-79633576D01*
X71924104Y-79738931D01*
X71980686Y-79849979D01*
X71988368Y-79865054D01*
X72095805Y-80012929D01*
X72141069Y-80075229D01*
X72324771Y-80258931D01*
X72534949Y-80411634D01*
X72682445Y-80486787D01*
X72766423Y-80529577D01*
X72766425Y-80529577D01*
X72766428Y-80529579D01*
X73013507Y-80609860D01*
X73145706Y-80630797D01*
X73270098Y-80650500D01*
X73270103Y-80650500D01*
X73529902Y-80650500D01*
X73643298Y-80632539D01*
X73786493Y-80609860D01*
X74033572Y-80529579D01*
X74265051Y-80411634D01*
X74475229Y-80258931D01*
X74658931Y-80075229D01*
X74811634Y-79865051D01*
X74929579Y-79633572D01*
X75009860Y-79386493D01*
X75032539Y-79243298D01*
X75050500Y-79129902D01*
X75050500Y-78870097D01*
X75027071Y-78722173D01*
X75009860Y-78613507D01*
X74929579Y-78366428D01*
X74929577Y-78366425D01*
X74929577Y-78366423D01*
X74876434Y-78262126D01*
X74811634Y-78134949D01*
X74674408Y-77946073D01*
X74674182Y-77945762D01*
X74650702Y-77879956D01*
X74650500Y-77872877D01*
X74650500Y-75839336D01*
X74670185Y-75772297D01*
X74686819Y-75751655D01*
X75216655Y-75221819D01*
X75277978Y-75188334D01*
X75304336Y-75185500D01*
X77272877Y-75185500D01*
X77339916Y-75205185D01*
X77345762Y-75209182D01*
X77399650Y-75248334D01*
X77534949Y-75346634D01*
X77639230Y-75399768D01*
X77766423Y-75464577D01*
X77766425Y-75464577D01*
X77766428Y-75464579D01*
X78013507Y-75544860D01*
X78145706Y-75565797D01*
X78270098Y-75585500D01*
X78270103Y-75585500D01*
X79329902Y-75585500D01*
X79443298Y-75567539D01*
X79586493Y-75544860D01*
X79833572Y-75464579D01*
X80065051Y-75346634D01*
X80275229Y-75193931D01*
X80458931Y-75010229D01*
X80611634Y-74800051D01*
X80729579Y-74568572D01*
X80809860Y-74321493D01*
X80833893Y-74169753D01*
X80850500Y-74064902D01*
X80850500Y-73805097D01*
X80813489Y-73571423D01*
X80809860Y-73548507D01*
X80729579Y-73301428D01*
X80729577Y-73301425D01*
X80729577Y-73301423D01*
X80686787Y-73217445D01*
X80611634Y-73069949D01*
X80521632Y-72946071D01*
X80492835Y-72906435D01*
X80469355Y-72840629D01*
X80485181Y-72772575D01*
X80505465Y-72745876D01*
X80602477Y-72648865D01*
X80720279Y-72474813D01*
X80803013Y-72281612D01*
X80840236Y-72110500D01*
X80847687Y-72076250D01*
X80847687Y-72076249D01*
X80847688Y-72076245D01*
X80850500Y-72029038D01*
X80850500Y-70760962D01*
X80847688Y-70713755D01*
X80807702Y-70529945D01*
X80803015Y-70508397D01*
X80803012Y-70508386D01*
X80788075Y-70473506D01*
X80767525Y-70425517D01*
X80720281Y-70315191D01*
X80720280Y-70315189D01*
X80720279Y-70315187D01*
X80602477Y-70141135D01*
X80453865Y-69992523D01*
X80279813Y-69874721D01*
X80279811Y-69874720D01*
X80279808Y-69874718D01*
X80086613Y-69791987D01*
X80086602Y-69791984D01*
X79881250Y-69747312D01*
X79866492Y-69746433D01*
X79834038Y-69744500D01*
X79834027Y-69744500D01*
X79403000Y-69744500D01*
X79335961Y-69724815D01*
X79290206Y-69672011D01*
X79279000Y-69620500D01*
X79279000Y-65840077D01*
X79254500Y-65685394D01*
X79248209Y-65645674D01*
X79248208Y-65645670D01*
X79248208Y-65645669D01*
X79188891Y-65463112D01*
X79187829Y-65459347D01*
X79154281Y-65393506D01*
X79098024Y-65283095D01*
X78982328Y-65123854D01*
X75771234Y-61912760D01*
X75737749Y-61851437D01*
X75736442Y-61844477D01*
X75720114Y-61741393D01*
X75699860Y-61613507D01*
X75619579Y-61366428D01*
X75619577Y-61366425D01*
X75619577Y-61366423D01*
X75576787Y-61282445D01*
X75501634Y-61134949D01*
X75348931Y-60924771D01*
X75165229Y-60741069D01*
X74955051Y-60588366D01*
X74818684Y-60518883D01*
X74723576Y-60470422D01*
X74476493Y-60390139D01*
X74245522Y-60353557D01*
X74182387Y-60323628D01*
X74177239Y-60318765D01*
X73994119Y-60135645D01*
X73960634Y-60074322D01*
X73957800Y-60047964D01*
X73957800Y-55830627D01*
X73977485Y-55763588D01*
X74030289Y-55717833D01*
X74099447Y-55707889D01*
X74138094Y-55720142D01*
X74166428Y-55734579D01*
X74413507Y-55814860D01*
X74541393Y-55835114D01*
X74644477Y-55851442D01*
X74707612Y-55881371D01*
X74712760Y-55886234D01*
X83252281Y-64425755D01*
X83285766Y-64487078D01*
X83288600Y-64513436D01*
X83288600Y-66635664D01*
X83268915Y-66702703D01*
X83252281Y-66723345D01*
X83014474Y-66961151D01*
X83014474Y-66961152D01*
X83014472Y-66961154D01*
X82978956Y-67010037D01*
X82898776Y-67120394D01*
X82809417Y-67295769D01*
X82798327Y-67329902D01*
X82786542Y-67366172D01*
X82767566Y-67424573D01*
X82748591Y-67482973D01*
X82717800Y-67677377D01*
X82717800Y-71493422D01*
X82748590Y-71687826D01*
X82809417Y-71875029D01*
X82887654Y-72028576D01*
X82898776Y-72050405D01*
X83014472Y-72209646D01*
X83153654Y-72348828D01*
X83312895Y-72464524D01*
X83341889Y-72479297D01*
X83488270Y-72553882D01*
X83488272Y-72553882D01*
X83488275Y-72553884D01*
X83588617Y-72586487D01*
X83675473Y-72614709D01*
X83869878Y-72645500D01*
X83869883Y-72645500D01*
X84066717Y-72645500D01*
X84675978Y-72645500D01*
X84743017Y-72665185D01*
X84788772Y-72717989D01*
X84798716Y-72787147D01*
X84769691Y-72850703D01*
X84763659Y-72857181D01*
X84761071Y-72859768D01*
X84761066Y-72859774D01*
X84608368Y-73069945D01*
X84490422Y-73301423D01*
X84410140Y-73548506D01*
X84369500Y-73805097D01*
X84369500Y-74064902D01*
X84410140Y-74321493D01*
X84490422Y-74568576D01*
X84536461Y-74658931D01*
X84603231Y-74789974D01*
X84608368Y-74800054D01*
X84761066Y-75010225D01*
X84761071Y-75010231D01*
X84868159Y-75117319D01*
X84901644Y-75178642D01*
X84896660Y-75248334D01*
X84868159Y-75292681D01*
X84761071Y-75399768D01*
X84761066Y-75399774D01*
X84608368Y-75609945D01*
X84490422Y-75841423D01*
X84410140Y-76088506D01*
X84369500Y-76345097D01*
X84369500Y-76604902D01*
X84410140Y-76861493D01*
X84490422Y-77108576D01*
X84608368Y-77340054D01*
X84745376Y-77528629D01*
X84761069Y-77550229D01*
X84944771Y-77733931D01*
X85154949Y-77886634D01*
X85271604Y-77946073D01*
X85386423Y-78004577D01*
X85386425Y-78004577D01*
X85386428Y-78004579D01*
X85633507Y-78084860D01*
X85765706Y-78105797D01*
X85890098Y-78125500D01*
X85890103Y-78125500D01*
X86949902Y-78125500D01*
X87063298Y-78107539D01*
X87206493Y-78084860D01*
X87453572Y-78004579D01*
X87685051Y-77886634D01*
X87853154Y-77764500D01*
X87874238Y-77749182D01*
X87940044Y-77725702D01*
X87947123Y-77725500D01*
X91026908Y-77725500D01*
X91093947Y-77745185D01*
X91139702Y-77797989D01*
X91149646Y-77867147D01*
X91120621Y-77930703D01*
X91107439Y-77943791D01*
X91104766Y-77946073D01*
X90921071Y-78129768D01*
X90921066Y-78129774D01*
X90768368Y-78339945D01*
X90650422Y-78571423D01*
X90570140Y-78818506D01*
X90529500Y-79075097D01*
X90529500Y-79334902D01*
X90570140Y-79591493D01*
X90650422Y-79838576D01*
X90704532Y-79944771D01*
X90762574Y-80058684D01*
X90768368Y-80070054D01*
X90916491Y-80273928D01*
X90921069Y-80280229D01*
X91104771Y-80463931D01*
X91314949Y-80616634D01*
X91432189Y-80676371D01*
X91546423Y-80734577D01*
X91546425Y-80734577D01*
X91546428Y-80734579D01*
X91793507Y-80814860D01*
X91925706Y-80835797D01*
X92050098Y-80855500D01*
X92050103Y-80855500D01*
X92309902Y-80855500D01*
X92423298Y-80837539D01*
X92566493Y-80814860D01*
X92813572Y-80734579D01*
X93045051Y-80616634D01*
X93255229Y-80463931D01*
X93438931Y-80280229D01*
X93591634Y-80070051D01*
X93709579Y-79838572D01*
X93789860Y-79591493D01*
X93818583Y-79410140D01*
X93830500Y-79334902D01*
X93830500Y-79075097D01*
X93804788Y-78912760D01*
X93789860Y-78818507D01*
X93709579Y-78571428D01*
X93709577Y-78571425D01*
X93709577Y-78571423D01*
X93666787Y-78487445D01*
X93591634Y-78339949D01*
X93438931Y-78129771D01*
X93255229Y-77946069D01*
X93255224Y-77946065D01*
X93252561Y-77943791D01*
X93251827Y-77942667D01*
X93251784Y-77942624D01*
X93251793Y-77942614D01*
X93214368Y-77885284D01*
X93213868Y-77815416D01*
X93251222Y-77756370D01*
X93314568Y-77726891D01*
X93333092Y-77725500D01*
X96500664Y-77725500D01*
X96567703Y-77745185D01*
X96588345Y-77761819D01*
X98118765Y-79292239D01*
X98152250Y-79353562D01*
X98153557Y-79360522D01*
X98190139Y-79591493D01*
X98270422Y-79838576D01*
X98324532Y-79944771D01*
X98382574Y-80058684D01*
X98388368Y-80070054D01*
X98536491Y-80273928D01*
X98541069Y-80280229D01*
X98724771Y-80463931D01*
X98934949Y-80616634D01*
X99052189Y-80676371D01*
X99166423Y-80734577D01*
X99166425Y-80734577D01*
X99166428Y-80734579D01*
X99413507Y-80814860D01*
X99545706Y-80835797D01*
X99670098Y-80855500D01*
X99670103Y-80855500D01*
X99929902Y-80855500D01*
X100043298Y-80837539D01*
X100186493Y-80814860D01*
X100433572Y-80734579D01*
X100665051Y-80616634D01*
X100875229Y-80463931D01*
X101058931Y-80280229D01*
X101211634Y-80070051D01*
X101329579Y-79838572D01*
X101409860Y-79591493D01*
X101438583Y-79410140D01*
X101450500Y-79334902D01*
X101450500Y-79075097D01*
X101424788Y-78912760D01*
X101409860Y-78818507D01*
X101329579Y-78571428D01*
X101329577Y-78571425D01*
X101329577Y-78571423D01*
X101286787Y-78487445D01*
X101211634Y-78339949D01*
X101058931Y-78129771D01*
X100875229Y-77946069D01*
X100875225Y-77946066D01*
X100665054Y-77793368D01*
X100665053Y-77793367D01*
X100665051Y-77793366D01*
X100579246Y-77749646D01*
X100433576Y-77675422D01*
X100186493Y-77595140D01*
X99955524Y-77558558D01*
X99892389Y-77528629D01*
X99887241Y-77523766D01*
X99156155Y-76792681D01*
X99122670Y-76731358D01*
X99127654Y-76661667D01*
X99156155Y-76617319D01*
X99446981Y-76326493D01*
X99887243Y-75886231D01*
X99948564Y-75852748D01*
X99955525Y-75851441D01*
X100018777Y-75841423D01*
X100186493Y-75814860D01*
X100433572Y-75734579D01*
X100665051Y-75616634D01*
X100875229Y-75463931D01*
X101058931Y-75280229D01*
X101211634Y-75070051D01*
X101329579Y-74838572D01*
X101409860Y-74591493D01*
X101432539Y-74448298D01*
X101450500Y-74334902D01*
X101450500Y-74075097D01*
X101420679Y-73886819D01*
X101409860Y-73818507D01*
X101329579Y-73571428D01*
X101329577Y-73571425D01*
X101329577Y-73571423D01*
X101275377Y-73465051D01*
X101211634Y-73339949D01*
X101058931Y-73129771D01*
X100875229Y-72946069D01*
X100875225Y-72946066D01*
X100665054Y-72793368D01*
X100665053Y-72793367D01*
X100665051Y-72793366D01*
X100592764Y-72756534D01*
X100433576Y-72675422D01*
X100186493Y-72595140D01*
X99929902Y-72554500D01*
X99929897Y-72554500D01*
X99670103Y-72554500D01*
X99670098Y-72554500D01*
X99413506Y-72595140D01*
X99166423Y-72675422D01*
X98934945Y-72793368D01*
X98724774Y-72946066D01*
X98724768Y-72946071D01*
X98541071Y-73129768D01*
X98541066Y-73129774D01*
X98388368Y-73339945D01*
X98270422Y-73571423D01*
X98190139Y-73818506D01*
X98153558Y-74049475D01*
X98123629Y-74112610D01*
X98118766Y-74117758D01*
X97048345Y-75188181D01*
X96987022Y-75221666D01*
X96960664Y-75224500D01*
X93715288Y-75224500D01*
X93648249Y-75204815D01*
X93602494Y-75152011D01*
X93592550Y-75082853D01*
X93604803Y-75044205D01*
X93622304Y-75009859D01*
X93709579Y-74838572D01*
X93789860Y-74591493D01*
X93812539Y-74448298D01*
X93830500Y-74334902D01*
X93830500Y-74075097D01*
X93800679Y-73886819D01*
X93789860Y-73818507D01*
X93709579Y-73571428D01*
X93709577Y-73571425D01*
X93709577Y-73571423D01*
X93655377Y-73465051D01*
X93591634Y-73339949D01*
X93438931Y-73129771D01*
X93255229Y-72946069D01*
X93255225Y-72946066D01*
X93045054Y-72793368D01*
X93045053Y-72793367D01*
X93045051Y-72793366D01*
X92972764Y-72756534D01*
X92813576Y-72675422D01*
X92566493Y-72595140D01*
X92309902Y-72554500D01*
X92309897Y-72554500D01*
X92050103Y-72554500D01*
X92050098Y-72554500D01*
X91793506Y-72595140D01*
X91733280Y-72614709D01*
X91546428Y-72675421D01*
X91546424Y-72675422D01*
X91541795Y-72676927D01*
X91541559Y-72676202D01*
X91499845Y-72684500D01*
X88164022Y-72684500D01*
X88096983Y-72664815D01*
X88051228Y-72612011D01*
X88041284Y-72542853D01*
X88070309Y-72479297D01*
X88076341Y-72472819D01*
X88078931Y-72470229D01*
X88231634Y-72260051D01*
X88349579Y-72028572D01*
X88429860Y-71781493D01*
X88452539Y-71638298D01*
X88470500Y-71524902D01*
X88470500Y-71265097D01*
X88439666Y-71070421D01*
X88429860Y-71008507D01*
X88349579Y-70761428D01*
X88349577Y-70761425D01*
X88349577Y-70761423D01*
X88306787Y-70677445D01*
X88231634Y-70529949D01*
X88078931Y-70319771D01*
X87895229Y-70136069D01*
X87700988Y-69994945D01*
X87685054Y-69983368D01*
X87685053Y-69983367D01*
X87685051Y-69983366D01*
X87612764Y-69946534D01*
X87453576Y-69865422D01*
X87206493Y-69785140D01*
X86949902Y-69744500D01*
X86949897Y-69744500D01*
X85890103Y-69744500D01*
X85890098Y-69744500D01*
X85633506Y-69785140D01*
X85549090Y-69812568D01*
X85386428Y-69865421D01*
X85386424Y-69865422D01*
X85381795Y-69866927D01*
X85381120Y-69864850D01*
X85320628Y-69871277D01*
X85258189Y-69839922D01*
X85222613Y-69779788D01*
X85218800Y-69749275D01*
X85218800Y-68964747D01*
X85238485Y-68897708D01*
X85291289Y-68851953D01*
X85323401Y-68842274D01*
X85496493Y-68814860D01*
X85743572Y-68734579D01*
X85975051Y-68616634D01*
X86185229Y-68463931D01*
X86368931Y-68280229D01*
X86521634Y-68070051D01*
X86639579Y-67838572D01*
X86719860Y-67591493D01*
X86751795Y-67389859D01*
X86760500Y-67334902D01*
X86760500Y-67075097D01*
X86725676Y-66855231D01*
X86719860Y-66818507D01*
X86639579Y-66571428D01*
X86639577Y-66571425D01*
X86639577Y-66571423D01*
X86559149Y-66413576D01*
X86521634Y-66339949D01*
X86368931Y-66129771D01*
X86185229Y-65946069D01*
X86151527Y-65921583D01*
X85975052Y-65793366D01*
X85857304Y-65733369D01*
X85806509Y-65685394D01*
X85789600Y-65622885D01*
X85789600Y-63845677D01*
X85758809Y-63651273D01*
X85697982Y-63464070D01*
X85633594Y-63337702D01*
X85608624Y-63288695D01*
X85492928Y-63129454D01*
X85353746Y-62990272D01*
X76481234Y-54117760D01*
X76447749Y-54056437D01*
X76446442Y-54049477D01*
X76421966Y-53894945D01*
X76409860Y-53818507D01*
X76329579Y-53571428D01*
X76329577Y-53571425D01*
X76329577Y-53571423D01*
X76255802Y-53426634D01*
X76211634Y-53339949D01*
X76058931Y-53129771D01*
X75875229Y-52946069D01*
X75875225Y-52946066D01*
X75665054Y-52793368D01*
X75665053Y-52793367D01*
X75665051Y-52793366D01*
X75590891Y-52755579D01*
X75433572Y-52675420D01*
X75421761Y-52671583D01*
X75364086Y-52632145D01*
X75336889Y-52567786D01*
X75348805Y-52498939D01*
X75372396Y-52465976D01*
X75737128Y-52101246D01*
X75852824Y-51942006D01*
X75939978Y-51770952D01*
X75941882Y-51767552D01*
X75942183Y-51766626D01*
X75942184Y-51766625D01*
X76003009Y-51579426D01*
X76012653Y-51518539D01*
X76033800Y-51385021D01*
X76033800Y-51184595D01*
X76033700Y-51182045D01*
X76033700Y-50688546D01*
X76053385Y-50621507D01*
X76057382Y-50615660D01*
X76058928Y-50613531D01*
X76058931Y-50613529D01*
X76211634Y-50403351D01*
X76329579Y-50171872D01*
X76409860Y-49924793D01*
X76432539Y-49781598D01*
X76450500Y-49668202D01*
X76450500Y-49408397D01*
X76428947Y-49272321D01*
X76409860Y-49151807D01*
X76329579Y-48904728D01*
X76329577Y-48904725D01*
X76329577Y-48904723D01*
X76283832Y-48814945D01*
X76211634Y-48673249D01*
X76058931Y-48463071D01*
X75875229Y-48279369D01*
X75832513Y-48248334D01*
X75665054Y-48126668D01*
X75665053Y-48126667D01*
X75665051Y-48126666D01*
X75592764Y-48089834D01*
X75433576Y-48008722D01*
X75186493Y-47928440D01*
X74929902Y-47887800D01*
X74929897Y-47887800D01*
X74670103Y-47887800D01*
X74670098Y-47887800D01*
X74413506Y-47928440D01*
X74166423Y-48008722D01*
X73934945Y-48126668D01*
X73724774Y-48279366D01*
X73724768Y-48279371D01*
X73541071Y-48463068D01*
X73541066Y-48463074D01*
X73388368Y-48673245D01*
X73270422Y-48904723D01*
X73190140Y-49151806D01*
X73149500Y-49408397D01*
X73149500Y-49668202D01*
X73190140Y-49924793D01*
X73270422Y-50171876D01*
X73342621Y-50313572D01*
X73388366Y-50403351D01*
X73509019Y-50569415D01*
X73516170Y-50589459D01*
X73527677Y-50607364D01*
X73531131Y-50631390D01*
X73532498Y-50635220D01*
X73532700Y-50642299D01*
X73532700Y-50717364D01*
X73513015Y-50784403D01*
X73496381Y-50805045D01*
X71753474Y-52547951D01*
X71753474Y-52547952D01*
X71753472Y-52547954D01*
X71710941Y-52606493D01*
X71637776Y-52707194D01*
X71548417Y-52882569D01*
X71515041Y-52985292D01*
X71487590Y-53069773D01*
X71456800Y-53264177D01*
X71456800Y-60715722D01*
X71487590Y-60910126D01*
X71548417Y-61097330D01*
X71637776Y-61272705D01*
X71753472Y-61431946D01*
X71753474Y-61431948D01*
X72408765Y-62087239D01*
X72442250Y-62148562D01*
X72443557Y-62155522D01*
X72480139Y-62386493D01*
X72560422Y-62633576D01*
X72641534Y-62792764D01*
X72678366Y-62865051D01*
X72831069Y-63075229D01*
X73014771Y-63258931D01*
X73224949Y-63411634D01*
X73327870Y-63464075D01*
X73456423Y-63529577D01*
X73456425Y-63529577D01*
X73456428Y-63529579D01*
X73703507Y-63609860D01*
X73831393Y-63630114D01*
X73934477Y-63646442D01*
X73997612Y-63676371D01*
X74002760Y-63681234D01*
X76741681Y-66420155D01*
X76775166Y-66481478D01*
X76778000Y-66507836D01*
X76778000Y-70582338D01*
X76775166Y-70608696D01*
X76752312Y-70713749D01*
X76752312Y-70713755D01*
X76749500Y-70760962D01*
X76749500Y-72029038D01*
X76750773Y-72050405D01*
X76752312Y-72076250D01*
X76796984Y-72281602D01*
X76796987Y-72281613D01*
X76879718Y-72474808D01*
X76879720Y-72474811D01*
X76879721Y-72474813D01*
X76890675Y-72490998D01*
X76911950Y-72557548D01*
X76893867Y-72625037D01*
X76842167Y-72672036D01*
X76787985Y-72684500D01*
X75304336Y-72684500D01*
X75274895Y-72675855D01*
X75244909Y-72669332D01*
X75239893Y-72665577D01*
X75237297Y-72664815D01*
X75216655Y-72648181D01*
X75081234Y-72512760D01*
X75047749Y-72451437D01*
X75046442Y-72444477D01*
X75030114Y-72341393D01*
X75009860Y-72213507D01*
X74929579Y-71966428D01*
X74929577Y-71966425D01*
X74929577Y-71966423D01*
X74851825Y-71813828D01*
X74811634Y-71734949D01*
X74674182Y-71545762D01*
X74650702Y-71479956D01*
X74650500Y-71472877D01*
X74650500Y-68327122D01*
X74670185Y-68260083D01*
X74674161Y-68254265D01*
X74811634Y-68065051D01*
X74925247Y-67842073D01*
X74929577Y-67833576D01*
X74929577Y-67833575D01*
X74929579Y-67833572D01*
X75009860Y-67586493D01*
X75041003Y-67389860D01*
X75050500Y-67329902D01*
X75050500Y-67070097D01*
X75019757Y-66875996D01*
X75009860Y-66813507D01*
X74929579Y-66566428D01*
X74929577Y-66566425D01*
X74929577Y-66566423D01*
X74873554Y-66456474D01*
X74811634Y-66334949D01*
X74658931Y-66124771D01*
X74658927Y-66124767D01*
X74655767Y-66121067D01*
X74657040Y-66119979D01*
X74653140Y-66113270D01*
X74643242Y-66104376D01*
X74634905Y-66081896D01*
X74629160Y-66072012D01*
X74627346Y-66065398D01*
X74619709Y-66017173D01*
X74584852Y-65909897D01*
X74583958Y-65907145D01*
X74558885Y-65829977D01*
X74558883Y-65829974D01*
X74540231Y-65793366D01*
X74469524Y-65654595D01*
X74353828Y-65495354D01*
X74214646Y-65356172D01*
X70771234Y-61912760D01*
X70737749Y-61851437D01*
X70736442Y-61844477D01*
X70720114Y-61741393D01*
X70699860Y-61613507D01*
X70619579Y-61366428D01*
X70619577Y-61366425D01*
X70619577Y-61366423D01*
X70576787Y-61282445D01*
X70501634Y-61134949D01*
X70348931Y-60924771D01*
X70165229Y-60741069D01*
X69955051Y-60588366D01*
X69818684Y-60518883D01*
X69723576Y-60470422D01*
X69476493Y-60390140D01*
X69219902Y-60349500D01*
X69219897Y-60349500D01*
X68960103Y-60349500D01*
X68960098Y-60349500D01*
X68703506Y-60390140D01*
X68456423Y-60470422D01*
X68224945Y-60588368D01*
X68077386Y-60695576D01*
X68011580Y-60719056D01*
X67943526Y-60703230D01*
X67894831Y-60653125D01*
X67880501Y-60595258D01*
X67880501Y-53611035D01*
X67900186Y-53543996D01*
X67916820Y-53523354D01*
X71373681Y-50066493D01*
X74887241Y-46552932D01*
X74948562Y-46519449D01*
X74955522Y-46518142D01*
X75034539Y-46505626D01*
X75186493Y-46481560D01*
X75433572Y-46401279D01*
X75665051Y-46283334D01*
X75875229Y-46130631D01*
X76058931Y-45946929D01*
X76211634Y-45736751D01*
X76329579Y-45505272D01*
X76409860Y-45258193D01*
X76438078Y-45080029D01*
X76450500Y-45001602D01*
X76450500Y-44741797D01*
X76428947Y-44605721D01*
X76409860Y-44485207D01*
X76329579Y-44238128D01*
X76329577Y-44238125D01*
X76329577Y-44238123D01*
X76275831Y-44132642D01*
X76211634Y-44006649D01*
X76058931Y-43796471D01*
X75875229Y-43612769D01*
X75818338Y-43571435D01*
X75665054Y-43460068D01*
X75665053Y-43460067D01*
X75665051Y-43460066D01*
X75568497Y-43410869D01*
X75433576Y-43342122D01*
X75186493Y-43261840D01*
X74929902Y-43221200D01*
X74929897Y-43221200D01*
X74670103Y-43221200D01*
X74670098Y-43221200D01*
X74413506Y-43261840D01*
X74166423Y-43342122D01*
X73934945Y-43460068D01*
X73724774Y-43612766D01*
X73724768Y-43612771D01*
X73541071Y-43796468D01*
X73541066Y-43796474D01*
X73388368Y-44006645D01*
X73270422Y-44238123D01*
X73190139Y-44485206D01*
X73153557Y-44716177D01*
X73123628Y-44779312D01*
X73118765Y-44784460D01*
X70362181Y-47541045D01*
X70300858Y-47574530D01*
X70231166Y-47569546D01*
X70175233Y-47527674D01*
X70150816Y-47462210D01*
X70150500Y-47453364D01*
X70150500Y-43775197D01*
X70170185Y-43708158D01*
X70186814Y-43687521D01*
X73070533Y-40803801D01*
X73131854Y-40770318D01*
X73201546Y-40775302D01*
X73257479Y-40817174D01*
X73268697Y-40835189D01*
X73279046Y-40855500D01*
X73373271Y-41040426D01*
X73388368Y-41070054D01*
X73502636Y-41227330D01*
X73541069Y-41280229D01*
X73724771Y-41463931D01*
X73934949Y-41616634D01*
X74046568Y-41673507D01*
X74166423Y-41734577D01*
X74166425Y-41734577D01*
X74166428Y-41734579D01*
X74413507Y-41814860D01*
X74545706Y-41835797D01*
X74670098Y-41855500D01*
X74670103Y-41855500D01*
X74929902Y-41855500D01*
X75043298Y-41837539D01*
X75186493Y-41814860D01*
X75433572Y-41734579D01*
X75665051Y-41616634D01*
X75854238Y-41479182D01*
X75920044Y-41455702D01*
X75927123Y-41455500D01*
X77498022Y-41455500D01*
X77692426Y-41424709D01*
X77879626Y-41363884D01*
X78055005Y-41274524D01*
X78214246Y-41158828D01*
X79755528Y-39617546D01*
X79871224Y-39458305D01*
X79875880Y-39449166D01*
X79882129Y-39436904D01*
X79930104Y-39386109D01*
X79992613Y-39369200D01*
X80791111Y-39369200D01*
X80858150Y-39388885D01*
X80903905Y-39441689D01*
X80913849Y-39510847D01*
X80901596Y-39549494D01*
X80890423Y-39571420D01*
X80810140Y-39818506D01*
X80769500Y-40075097D01*
X80769500Y-40334902D01*
X80810140Y-40591493D01*
X80890422Y-40838576D01*
X81008366Y-41070051D01*
X81145819Y-41259239D01*
X81169298Y-41325043D01*
X81169500Y-41332122D01*
X81169500Y-43744577D01*
X81149815Y-43811616D01*
X81145818Y-43817462D01*
X81008368Y-44006645D01*
X80890422Y-44238123D01*
X80810140Y-44485206D01*
X80769500Y-44741797D01*
X80769500Y-45001602D01*
X80810140Y-45258193D01*
X80890422Y-45505276D01*
X80988242Y-45697255D01*
X81008366Y-45736751D01*
X81145819Y-45925939D01*
X81169298Y-45991743D01*
X81169500Y-45998822D01*
X81169500Y-48411177D01*
X81149815Y-48478216D01*
X81145818Y-48484062D01*
X81008368Y-48673245D01*
X80890422Y-48904723D01*
X80810140Y-49151806D01*
X80769500Y-49408397D01*
X80769500Y-49668202D01*
X80810140Y-49924793D01*
X80890422Y-50171876D01*
X80962621Y-50313572D01*
X81008366Y-50403351D01*
X81145819Y-50592539D01*
X81169298Y-50658343D01*
X81169500Y-50665422D01*
X81169500Y-53077877D01*
X81149815Y-53144916D01*
X81145818Y-53150762D01*
X81008368Y-53339945D01*
X80890422Y-53571423D01*
X80810140Y-53818506D01*
X80769500Y-54075097D01*
X80769500Y-54334902D01*
X80810140Y-54591493D01*
X80890422Y-54838576D01*
X81008368Y-55070054D01*
X81038300Y-55111252D01*
X81161069Y-55280229D01*
X81344771Y-55463931D01*
X81554949Y-55616634D01*
X81702445Y-55691787D01*
X81786423Y-55734577D01*
X81786425Y-55734577D01*
X81786428Y-55734579D01*
X82033507Y-55814860D01*
X82162127Y-55835231D01*
X82290098Y-55855500D01*
X82290103Y-55855500D01*
X82549902Y-55855500D01*
X82663298Y-55837539D01*
X82806493Y-55814860D01*
X83053572Y-55734579D01*
X83285051Y-55616634D01*
X83495229Y-55463931D01*
X83678931Y-55280229D01*
X83831634Y-55070051D01*
X83949579Y-54838572D01*
X84029860Y-54591493D01*
X84064385Y-54373507D01*
X84070500Y-54334902D01*
X84070500Y-54075097D01*
X84041966Y-53894945D01*
X84029860Y-53818507D01*
X83949579Y-53571428D01*
X83949577Y-53571425D01*
X83949577Y-53571423D01*
X83875802Y-53426634D01*
X83831634Y-53339949D01*
X83694182Y-53150762D01*
X83670702Y-53084956D01*
X83670500Y-53077877D01*
X83670500Y-50849500D01*
X83690185Y-50782461D01*
X83742989Y-50736706D01*
X83794500Y-50725500D01*
X87272877Y-50725500D01*
X87339916Y-50745185D01*
X87345762Y-50749182D01*
X87372662Y-50768726D01*
X87534949Y-50886634D01*
X87681029Y-50961066D01*
X87766423Y-51004577D01*
X87766425Y-51004577D01*
X87766428Y-51004579D01*
X88013507Y-51084860D01*
X88145706Y-51105797D01*
X88270098Y-51125500D01*
X88270103Y-51125500D01*
X89329902Y-51125500D01*
X89443298Y-51107539D01*
X89586493Y-51084860D01*
X89833572Y-51004579D01*
X90065051Y-50886634D01*
X90275229Y-50733931D01*
X90458931Y-50550229D01*
X90611634Y-50340051D01*
X90729579Y-50108572D01*
X90809860Y-49861493D01*
X90840474Y-49668202D01*
X90850500Y-49604902D01*
X90850500Y-49345097D01*
X90828947Y-49209021D01*
X90809860Y-49088507D01*
X90729579Y-48841428D01*
X90729577Y-48841425D01*
X90729577Y-48841423D01*
X90643885Y-48673245D01*
X90611634Y-48609949D01*
X90458931Y-48399771D01*
X90351841Y-48292681D01*
X90318356Y-48231358D01*
X90323340Y-48161666D01*
X90351841Y-48117319D01*
X90378935Y-48090225D01*
X90458931Y-48010229D01*
X90611634Y-47800051D01*
X90729579Y-47568572D01*
X90809860Y-47321493D01*
X90837829Y-47144902D01*
X90850500Y-47064902D01*
X90850500Y-46805097D01*
X90826189Y-46651605D01*
X90809860Y-46548507D01*
X90729579Y-46301428D01*
X90729577Y-46301425D01*
X90729577Y-46301423D01*
X90642553Y-46130631D01*
X90611634Y-46069949D01*
X90458931Y-45859771D01*
X90275229Y-45676069D01*
X90275225Y-45676066D01*
X90065054Y-45523368D01*
X90065053Y-45523367D01*
X90065051Y-45523366D01*
X89974746Y-45477353D01*
X89833576Y-45405422D01*
X89586493Y-45325140D01*
X89329902Y-45284500D01*
X89329897Y-45284500D01*
X88270103Y-45284500D01*
X88270098Y-45284500D01*
X88013506Y-45325140D01*
X87766423Y-45405422D01*
X87534945Y-45523368D01*
X87345762Y-45660818D01*
X87279956Y-45684298D01*
X87272877Y-45684500D01*
X86917636Y-45684500D01*
X86888195Y-45675855D01*
X86858209Y-45669332D01*
X86853193Y-45665577D01*
X86850597Y-45664815D01*
X86829955Y-45648181D01*
X86696319Y-45514545D01*
X86662834Y-45453222D01*
X86660000Y-45426864D01*
X86660000Y-40175377D01*
X86629209Y-39980974D01*
X86622974Y-39961785D01*
X86622974Y-39961784D01*
X86568384Y-39793774D01*
X86479024Y-39618395D01*
X86363329Y-39459155D01*
X84069046Y-37164872D01*
X83909805Y-37049176D01*
X83734430Y-36959817D01*
X83547226Y-36898990D01*
X83352822Y-36868200D01*
X83352817Y-36868200D01*
X79992613Y-36868200D01*
X79925574Y-36848515D01*
X79882129Y-36800496D01*
X79871224Y-36779095D01*
X79840188Y-36736378D01*
X79755528Y-36619854D01*
X77636819Y-34501145D01*
X77603334Y-34439822D01*
X77600500Y-34413464D01*
X77600500Y-33945413D01*
X77620185Y-33878374D01*
X77672989Y-33832619D01*
X77742147Y-33822675D01*
X77799986Y-33847037D01*
X77943226Y-33956948D01*
X78136274Y-34068405D01*
X78342219Y-34153710D01*
X78557537Y-34211404D01*
X78778543Y-34240500D01*
X78778550Y-34240500D01*
X79001450Y-34240500D01*
X79001457Y-34240500D01*
X79222463Y-34211404D01*
X79437781Y-34153710D01*
X79643726Y-34068405D01*
X79836774Y-33956948D01*
X79980014Y-33847037D01*
X80016845Y-33818776D01*
X80017404Y-33819505D01*
X80076977Y-33791869D01*
X80095355Y-33790500D01*
X87875664Y-33790500D01*
X87942703Y-33810185D01*
X87963345Y-33826819D01*
X93428765Y-39292239D01*
X93462250Y-39353562D01*
X93463557Y-39360522D01*
X93500139Y-39591493D01*
X93580422Y-39838576D01*
X93643201Y-39961784D01*
X93698366Y-40070051D01*
X93851069Y-40280229D01*
X94034771Y-40463931D01*
X94244949Y-40616634D01*
X94332927Y-40661461D01*
X94476423Y-40734577D01*
X94476425Y-40734577D01*
X94476428Y-40734579D01*
X94723507Y-40814860D01*
X94851393Y-40835114D01*
X94954477Y-40851442D01*
X95017612Y-40881371D01*
X95022760Y-40886234D01*
X96669345Y-42532819D01*
X96702830Y-42594142D01*
X96697846Y-42663834D01*
X96655974Y-42719767D01*
X96590510Y-42744184D01*
X96581664Y-42744500D01*
X95890098Y-42744500D01*
X95633506Y-42785140D01*
X95386423Y-42865422D01*
X95154945Y-42983368D01*
X94944774Y-43136066D01*
X94944768Y-43136071D01*
X94761071Y-43319768D01*
X94761066Y-43319774D01*
X94608368Y-43529945D01*
X94490422Y-43761423D01*
X94410140Y-44008506D01*
X94369500Y-44265097D01*
X94369500Y-44524902D01*
X94410140Y-44781493D01*
X94490422Y-45028576D01*
X94549563Y-45144644D01*
X94607419Y-45258193D01*
X94608368Y-45260054D01*
X94761066Y-45470225D01*
X94761071Y-45470231D01*
X94868159Y-45577319D01*
X94901644Y-45638642D01*
X94896660Y-45708334D01*
X94868159Y-45752681D01*
X94761071Y-45859768D01*
X94761066Y-45859774D01*
X94608368Y-46069945D01*
X94490422Y-46301423D01*
X94410140Y-46548506D01*
X94369500Y-46805097D01*
X94369500Y-47064902D01*
X94410140Y-47321493D01*
X94490422Y-47568576D01*
X94608368Y-47800054D01*
X94761066Y-48010225D01*
X94761071Y-48010231D01*
X94868159Y-48117319D01*
X94901644Y-48178642D01*
X94896660Y-48248334D01*
X94868159Y-48292681D01*
X94761071Y-48399768D01*
X94761066Y-48399774D01*
X94608368Y-48609945D01*
X94490422Y-48841423D01*
X94410140Y-49088506D01*
X94369500Y-49345097D01*
X94369500Y-49604902D01*
X94410140Y-49861493D01*
X94490422Y-50108576D01*
X94522676Y-50171876D01*
X94594876Y-50313576D01*
X94608368Y-50340054D01*
X94761066Y-50550225D01*
X94761071Y-50550231D01*
X94868159Y-50657319D01*
X94901644Y-50718642D01*
X94896660Y-50788334D01*
X94868159Y-50832681D01*
X94761071Y-50939768D01*
X94761066Y-50939774D01*
X94608368Y-51149945D01*
X94490422Y-51381423D01*
X94410140Y-51628506D01*
X94369500Y-51885097D01*
X94369500Y-52144902D01*
X94410140Y-52401493D01*
X94490422Y-52648576D01*
X94564199Y-52793368D01*
X94594876Y-52853576D01*
X94608368Y-52880054D01*
X94752095Y-53077877D01*
X94761069Y-53090229D01*
X94944771Y-53273931D01*
X95154949Y-53426634D01*
X95301035Y-53501069D01*
X95386423Y-53544577D01*
X95386425Y-53544577D01*
X95386428Y-53544579D01*
X95633507Y-53624860D01*
X95765706Y-53645797D01*
X95890098Y-53665500D01*
X95890103Y-53665500D01*
X96949902Y-53665500D01*
X97063298Y-53647539D01*
X97206493Y-53624860D01*
X97453572Y-53544579D01*
X97685051Y-53426634D01*
X97895229Y-53273931D01*
X98078931Y-53090229D01*
X98231634Y-52880051D01*
X98349579Y-52648572D01*
X98429860Y-52401493D01*
X98452552Y-52258219D01*
X98470500Y-52144902D01*
X98470500Y-51885097D01*
X98433369Y-51650664D01*
X98429860Y-51628507D01*
X98349579Y-51381428D01*
X98349577Y-51381425D01*
X98349577Y-51381423D01*
X98306787Y-51297445D01*
X98231634Y-51149949D01*
X98078931Y-50939771D01*
X97971841Y-50832681D01*
X97938356Y-50771358D01*
X97943340Y-50701666D01*
X97971841Y-50657319D01*
X98021796Y-50607364D01*
X98078931Y-50550229D01*
X98231634Y-50340051D01*
X98349579Y-50108572D01*
X98429860Y-49861493D01*
X98460474Y-49668202D01*
X98470500Y-49604902D01*
X98470500Y-49345097D01*
X98448947Y-49209021D01*
X98429860Y-49088507D01*
X98349579Y-48841428D01*
X98349577Y-48841425D01*
X98349577Y-48841423D01*
X98263885Y-48673245D01*
X98231634Y-48609949D01*
X98078931Y-48399771D01*
X98076341Y-48397181D01*
X98042856Y-48335858D01*
X98047840Y-48266166D01*
X98089712Y-48210233D01*
X98155176Y-48185816D01*
X98164022Y-48185500D01*
X101394978Y-48185500D01*
X101462017Y-48205185D01*
X101482659Y-48221819D01*
X101534771Y-48273931D01*
X101744949Y-48426634D01*
X101892445Y-48501787D01*
X101976423Y-48544577D01*
X101976425Y-48544577D01*
X101976428Y-48544579D01*
X102223507Y-48624860D01*
X102355706Y-48645797D01*
X102480098Y-48665500D01*
X102480103Y-48665500D01*
X102739902Y-48665500D01*
X102853298Y-48647539D01*
X102996493Y-48624860D01*
X103243572Y-48544579D01*
X103475051Y-48426634D01*
X103685229Y-48273931D01*
X103868931Y-48090229D01*
X104021634Y-47880051D01*
X104139579Y-47648572D01*
X104219860Y-47401493D01*
X104257881Y-47161435D01*
X104260500Y-47144902D01*
X104260500Y-46885097D01*
X104223518Y-46651605D01*
X104219860Y-46628507D01*
X104139579Y-46381428D01*
X104139577Y-46381425D01*
X104139577Y-46381423D01*
X104077584Y-46259757D01*
X104021634Y-46149949D01*
X103868931Y-45939771D01*
X103685229Y-45756069D01*
X103619527Y-45708334D01*
X103475054Y-45603368D01*
X103475053Y-45603367D01*
X103475051Y-45603366D01*
X103377822Y-45553825D01*
X103243576Y-45485422D01*
X102996493Y-45405140D01*
X102739902Y-45364500D01*
X102739897Y-45364500D01*
X102480103Y-45364500D01*
X102480098Y-45364500D01*
X102223506Y-45405140D01*
X101976423Y-45485422D01*
X101744945Y-45603368D01*
X101665872Y-45660818D01*
X101600066Y-45684298D01*
X101592987Y-45684500D01*
X99605967Y-45684500D01*
X99538928Y-45664815D01*
X99493173Y-45612011D01*
X99483229Y-45542853D01*
X99512254Y-45479297D01*
X99533081Y-45460182D01*
X99686346Y-45348828D01*
X99825528Y-45209646D01*
X99941224Y-45050405D01*
X100030584Y-44875025D01*
X100091409Y-44687826D01*
X100122200Y-44493422D01*
X100122200Y-43702636D01*
X100141885Y-43635597D01*
X100158519Y-43614955D01*
X101382261Y-42391213D01*
X102697241Y-41076232D01*
X102758562Y-41042749D01*
X102765522Y-41041442D01*
X102856356Y-41027055D01*
X102996493Y-41004860D01*
X103243572Y-40924579D01*
X103475051Y-40806634D01*
X103685229Y-40653931D01*
X103868931Y-40470229D01*
X104021634Y-40260051D01*
X104139579Y-40028572D01*
X104219860Y-39781493D01*
X104245826Y-39617546D01*
X104260500Y-39524902D01*
X104260500Y-39265097D01*
X104234932Y-39103671D01*
X104219860Y-39008507D01*
X104139579Y-38761428D01*
X104139577Y-38761425D01*
X104139577Y-38761423D01*
X104095756Y-38675421D01*
X104021634Y-38529949D01*
X103868931Y-38319771D01*
X103685229Y-38136069D01*
X103676561Y-38129771D01*
X103475054Y-37983368D01*
X103475053Y-37983367D01*
X103475051Y-37983366D01*
X103343143Y-37916155D01*
X103243576Y-37865422D01*
X102996493Y-37785140D01*
X102739902Y-37744500D01*
X102739897Y-37744500D01*
X102480103Y-37744500D01*
X102480098Y-37744500D01*
X102223506Y-37785140D01*
X101976423Y-37865422D01*
X101744945Y-37983368D01*
X101534774Y-38136066D01*
X101534768Y-38136071D01*
X101351071Y-38319768D01*
X101351066Y-38319774D01*
X101198368Y-38529945D01*
X101080422Y-38761423D01*
X101000139Y-39008506D01*
X100963557Y-39239477D01*
X100933628Y-39302612D01*
X100928765Y-39307760D01*
X99042681Y-41193845D01*
X98981358Y-41227330D01*
X98911666Y-41222346D01*
X98867319Y-41193845D01*
X96791234Y-39117760D01*
X96757749Y-39056437D01*
X96756442Y-39049477D01*
X96734021Y-38907918D01*
X96719860Y-38818507D01*
X96639579Y-38571428D01*
X96639577Y-38571425D01*
X96639577Y-38571423D01*
X96576833Y-38448283D01*
X96521634Y-38339949D01*
X96368931Y-38129771D01*
X96185229Y-37946069D01*
X96074228Y-37865422D01*
X95975054Y-37793368D01*
X95975053Y-37793367D01*
X95975051Y-37793366D01*
X95887093Y-37748549D01*
X95743576Y-37675422D01*
X95496493Y-37595139D01*
X95265522Y-37558557D01*
X95202387Y-37528628D01*
X95197239Y-37523765D01*
X89259648Y-31586174D01*
X89259646Y-31586172D01*
X89100405Y-31470476D01*
X88925030Y-31381117D01*
X88737826Y-31320290D01*
X88543422Y-31289500D01*
X88543417Y-31289500D01*
X80095355Y-31289500D01*
X80028316Y-31269815D01*
X80016868Y-31261193D01*
X80016845Y-31261224D01*
X79836782Y-31123058D01*
X79836780Y-31123057D01*
X79836774Y-31123052D01*
X79643726Y-31011595D01*
X79643722Y-31011593D01*
X79437790Y-30926293D01*
X79437783Y-30926291D01*
X79437781Y-30926290D01*
X79222463Y-30868596D01*
X79222457Y-30868595D01*
X79222452Y-30868594D01*
X79001466Y-30839501D01*
X79001463Y-30839500D01*
X79001457Y-30839500D01*
X78778543Y-30839500D01*
X78778537Y-30839500D01*
X78778533Y-30839501D01*
X78557547Y-30868594D01*
X78557540Y-30868595D01*
X78557537Y-30868596D01*
X78342219Y-30926290D01*
X78342209Y-30926293D01*
X78136277Y-31011593D01*
X78136273Y-31011595D01*
X77943226Y-31123052D01*
X77943217Y-31123058D01*
X77766377Y-31258751D01*
X77766370Y-31258757D01*
X77707681Y-31317447D01*
X77646358Y-31350932D01*
X77576666Y-31345948D01*
X77532319Y-31317447D01*
X77473629Y-31258757D01*
X77473622Y-31258751D01*
X77296782Y-31123058D01*
X77296780Y-31123057D01*
X77296774Y-31123052D01*
X77103726Y-31011595D01*
X77103722Y-31011593D01*
X76897790Y-30926293D01*
X76897783Y-30926291D01*
X76897781Y-30926290D01*
X76682463Y-30868596D01*
X76682457Y-30868595D01*
X76682452Y-30868594D01*
X76461466Y-30839501D01*
X76461463Y-30839500D01*
X76461457Y-30839500D01*
X76238543Y-30839500D01*
X76238537Y-30839500D01*
X76238533Y-30839501D01*
X76017547Y-30868594D01*
X76017540Y-30868595D01*
X76017537Y-30868596D01*
X75802219Y-30926290D01*
X75802209Y-30926293D01*
X75596277Y-31011593D01*
X75596273Y-31011595D01*
X75403226Y-31123052D01*
X75403217Y-31123058D01*
X75226377Y-31258751D01*
X75226370Y-31258757D01*
X75167681Y-31317447D01*
X75106358Y-31350932D01*
X75036666Y-31345948D01*
X74992319Y-31317447D01*
X74933629Y-31258757D01*
X74933622Y-31258751D01*
X74756782Y-31123058D01*
X74756780Y-31123057D01*
X74756774Y-31123052D01*
X74563726Y-31011595D01*
X74563722Y-31011593D01*
X74357790Y-30926293D01*
X74357783Y-30926291D01*
X74357781Y-30926290D01*
X74142463Y-30868596D01*
X74142457Y-30868595D01*
X74142452Y-30868594D01*
X73921466Y-30839501D01*
X73921463Y-30839500D01*
X73921457Y-30839500D01*
X73698543Y-30839500D01*
X73698537Y-30839500D01*
X73698533Y-30839501D01*
X73477547Y-30868594D01*
X73477540Y-30868595D01*
X73477537Y-30868596D01*
X73262219Y-30926290D01*
X73262209Y-30926293D01*
X73056277Y-31011593D01*
X73056273Y-31011595D01*
X72863226Y-31123052D01*
X72863217Y-31123058D01*
X72686377Y-31258751D01*
X72686370Y-31258757D01*
X72627681Y-31317447D01*
X72566358Y-31350932D01*
X72496666Y-31345948D01*
X72452319Y-31317447D01*
X72393629Y-31258757D01*
X72393622Y-31258751D01*
X72216782Y-31123058D01*
X72216780Y-31123057D01*
X72216774Y-31123052D01*
X72023726Y-31011595D01*
X72023722Y-31011593D01*
X71817790Y-30926293D01*
X71817783Y-30926291D01*
X71817781Y-30926290D01*
X71602463Y-30868596D01*
X71602457Y-30868595D01*
X71602452Y-30868594D01*
X71381466Y-30839501D01*
X71381463Y-30839500D01*
X71381457Y-30839500D01*
X71158543Y-30839500D01*
X71158537Y-30839500D01*
X71158533Y-30839501D01*
X70937547Y-30868594D01*
X70937540Y-30868595D01*
X70937537Y-30868596D01*
X70722219Y-30926290D01*
X70722209Y-30926293D01*
X70516277Y-31011593D01*
X70516273Y-31011595D01*
X70323226Y-31123052D01*
X70323217Y-31123058D01*
X70146377Y-31258751D01*
X70146370Y-31258757D01*
X70087681Y-31317447D01*
X70026358Y-31350932D01*
X69956666Y-31345948D01*
X69912319Y-31317447D01*
X69853629Y-31258757D01*
X69853622Y-31258751D01*
X69676782Y-31123058D01*
X69676780Y-31123057D01*
X69676774Y-31123052D01*
X69483726Y-31011595D01*
X69483722Y-31011593D01*
X69277790Y-30926293D01*
X69277783Y-30926291D01*
X69277781Y-30926290D01*
X69062463Y-30868596D01*
X69062457Y-30868595D01*
X69062452Y-30868594D01*
X68841466Y-30839501D01*
X68841463Y-30839500D01*
X68841457Y-30839500D01*
X68618543Y-30839500D01*
X68618537Y-30839500D01*
X68618533Y-30839501D01*
X68397547Y-30868594D01*
X68397540Y-30868595D01*
X68397537Y-30868596D01*
X68182219Y-30926290D01*
X68182209Y-30926293D01*
X67976277Y-31011593D01*
X67976273Y-31011595D01*
X67783226Y-31123052D01*
X67783217Y-31123058D01*
X67606377Y-31258751D01*
X67606370Y-31258757D01*
X67547681Y-31317447D01*
X67486358Y-31350932D01*
X67416666Y-31345948D01*
X67372319Y-31317447D01*
X67313629Y-31258757D01*
X67313622Y-31258751D01*
X67136782Y-31123058D01*
X67136780Y-31123057D01*
X67136774Y-31123052D01*
X66943726Y-31011595D01*
X66943722Y-31011593D01*
X66737790Y-30926293D01*
X66737783Y-30926291D01*
X66737781Y-30926290D01*
X66522463Y-30868596D01*
X66522457Y-30868595D01*
X66522452Y-30868594D01*
X66301466Y-30839501D01*
X66301463Y-30839500D01*
X66301457Y-30839500D01*
X66078543Y-30839500D01*
X66078537Y-30839500D01*
X66078533Y-30839501D01*
X65857547Y-30868594D01*
X65857540Y-30868595D01*
X65857537Y-30868596D01*
X65642219Y-30926290D01*
X65642209Y-30926293D01*
X65436277Y-31011593D01*
X65436273Y-31011595D01*
X65243226Y-31123052D01*
X65243217Y-31123058D01*
X65066377Y-31258751D01*
X65066370Y-31258757D01*
X65007681Y-31317447D01*
X64946358Y-31350932D01*
X64876666Y-31345948D01*
X64832319Y-31317447D01*
X64773629Y-31258757D01*
X64773622Y-31258751D01*
X64596782Y-31123058D01*
X64596780Y-31123057D01*
X64596774Y-31123052D01*
X64403726Y-31011595D01*
X64403722Y-31011593D01*
X64197790Y-30926293D01*
X64197783Y-30926291D01*
X64197781Y-30926290D01*
X63982463Y-30868596D01*
X63982457Y-30868595D01*
X63982452Y-30868594D01*
X63761466Y-30839501D01*
X63761463Y-30839500D01*
X63761457Y-30839500D01*
X63538543Y-30839500D01*
X63538537Y-30839500D01*
X63538533Y-30839501D01*
X63317547Y-30868594D01*
X63317540Y-30868595D01*
X63317537Y-30868596D01*
X63102219Y-30926290D01*
X63102209Y-30926293D01*
X62896277Y-31011593D01*
X62896273Y-31011595D01*
X62703226Y-31123052D01*
X62703217Y-31123058D01*
X62526377Y-31258751D01*
X62526370Y-31258757D01*
X62467681Y-31317447D01*
X62406358Y-31350932D01*
X62336666Y-31345948D01*
X62292319Y-31317447D01*
X62233629Y-31258757D01*
X62233622Y-31258751D01*
X62056782Y-31123058D01*
X62056780Y-31123057D01*
X62056774Y-31123052D01*
X61863726Y-31011595D01*
X61863722Y-31011593D01*
X61657790Y-30926293D01*
X61657783Y-30926291D01*
X61657781Y-30926290D01*
X61442463Y-30868596D01*
X61442457Y-30868595D01*
X61442452Y-30868594D01*
X61221466Y-30839501D01*
X61221463Y-30839500D01*
X61221457Y-30839500D01*
X60998543Y-30839500D01*
X60998537Y-30839500D01*
X60998533Y-30839501D01*
X60777547Y-30868594D01*
X60777540Y-30868595D01*
X60777537Y-30868596D01*
X60562219Y-30926290D01*
X60562209Y-30926293D01*
X60356277Y-31011593D01*
X60356273Y-31011595D01*
X60163226Y-31123052D01*
X60163217Y-31123058D01*
X59986377Y-31258751D01*
X59986370Y-31258757D01*
X59828757Y-31416370D01*
X59828751Y-31416377D01*
X59693058Y-31593217D01*
X59693052Y-31593226D01*
X59581595Y-31786273D01*
X59581593Y-31786277D01*
X59496293Y-31992209D01*
X59496290Y-31992219D01*
X59438597Y-32207534D01*
X59438594Y-32207547D01*
X59409501Y-32428533D01*
X59409500Y-32428549D01*
X59409500Y-32651450D01*
X59409501Y-32651466D01*
X59438594Y-32872452D01*
X59438595Y-32872457D01*
X59438596Y-32872463D01*
X59438597Y-32872465D01*
X59496290Y-33087780D01*
X59496293Y-33087790D01*
X59581593Y-33293722D01*
X59581598Y-33293733D01*
X59614777Y-33351200D01*
X59631250Y-33419100D01*
X59608397Y-33485127D01*
X59553476Y-33528318D01*
X59507390Y-33537200D01*
X43033878Y-33537200D01*
X42839473Y-33567990D01*
X42717194Y-33607722D01*
X42699623Y-33613431D01*
X42661306Y-33619500D01*
X42488543Y-33619500D01*
X42488537Y-33619500D01*
X42488533Y-33619501D01*
X42267547Y-33648594D01*
X42267540Y-33648595D01*
X42267537Y-33648596D01*
X42169477Y-33674871D01*
X42052219Y-33706290D01*
X42052209Y-33706293D01*
X41846277Y-33791593D01*
X41846273Y-33791595D01*
X41653226Y-33903052D01*
X41653217Y-33903058D01*
X41476377Y-34038751D01*
X41476370Y-34038757D01*
X41318757Y-34196370D01*
X41318751Y-34196377D01*
X41183058Y-34373217D01*
X41183052Y-34373226D01*
X41071595Y-34566273D01*
X41071593Y-34566277D01*
X40986293Y-34772209D01*
X40986290Y-34772219D01*
X40928597Y-34987534D01*
X40928594Y-34987547D01*
X40899501Y-35208533D01*
X40899500Y-35208549D01*
X40899500Y-35431450D01*
X40899501Y-35431466D01*
X40928594Y-35652452D01*
X40928595Y-35652457D01*
X40928596Y-35652463D01*
X40967470Y-35797544D01*
X40986290Y-35867780D01*
X40986293Y-35867790D01*
X41062589Y-36051984D01*
X41071595Y-36073726D01*
X41183052Y-36266774D01*
X41183057Y-36266780D01*
X41183058Y-36266782D01*
X41318751Y-36443622D01*
X41318757Y-36443629D01*
X41328721Y-36453593D01*
X41330029Y-36455988D01*
X41332368Y-36457398D01*
X41346678Y-36486479D01*
X41362206Y-36514916D01*
X41362011Y-36517638D01*
X41363217Y-36520089D01*
X41359533Y-36552282D01*
X41357222Y-36584608D01*
X41355585Y-36586794D01*
X41355275Y-36589506D01*
X41334771Y-36614598D01*
X41315350Y-36640541D01*
X41312263Y-36642142D01*
X41311065Y-36643609D01*
X41279397Y-36659192D01*
X41276787Y-36660041D01*
X41276767Y-36660047D01*
X41276748Y-36660054D01*
X41233503Y-36674105D01*
X41150370Y-36701117D01*
X40997332Y-36779095D01*
X40997331Y-36779094D01*
X40974998Y-36790474D01*
X40974990Y-36790478D01*
X40855707Y-36877144D01*
X40815754Y-36906172D01*
X40815752Y-36906174D01*
X40815751Y-36906174D01*
X39542074Y-38179851D01*
X39542074Y-38179852D01*
X39542072Y-38179854D01*
X39532919Y-38192452D01*
X39426376Y-38339094D01*
X39337015Y-38514473D01*
X39337014Y-38514476D01*
X39311377Y-38593383D01*
X39276190Y-38701676D01*
X39276190Y-38701677D01*
X39245400Y-38896077D01*
X39245400Y-51650664D01*
X39225715Y-51717703D01*
X39209081Y-51738345D01*
X35836174Y-55111251D01*
X35836174Y-55111252D01*
X35836172Y-55111254D01*
X35810569Y-55146493D01*
X35720476Y-55270494D01*
X35631115Y-55445873D01*
X35631114Y-55445876D01*
X35575634Y-55616632D01*
X35575633Y-55616635D01*
X35570291Y-55633072D01*
X35570290Y-55633079D01*
X35539500Y-55827477D01*
X35539500Y-64079732D01*
X35519815Y-64146771D01*
X35467011Y-64192526D01*
X35464313Y-64193720D01*
X35310192Y-64259718D01*
X35310188Y-64259720D01*
X35310187Y-64259721D01*
X35271128Y-64286157D01*
X35136137Y-64377521D01*
X35136132Y-64377525D01*
X34987525Y-64526132D01*
X34987521Y-64526137D01*
X34869718Y-64700191D01*
X34786987Y-64893386D01*
X34786984Y-64893397D01*
X34742312Y-65098749D01*
X34742312Y-65098755D01*
X34739500Y-65145962D01*
X34739500Y-66414038D01*
X34741484Y-66447360D01*
X34742312Y-66461250D01*
X34786984Y-66666602D01*
X34786987Y-66666613D01*
X34869718Y-66859808D01*
X34869720Y-66859811D01*
X34869721Y-66859813D01*
X34880675Y-66875998D01*
X34901950Y-66942548D01*
X34883867Y-67010037D01*
X34832167Y-67057036D01*
X34777985Y-67069500D01*
X34239878Y-67069500D01*
X34045473Y-67100290D01*
X33858270Y-67161117D01*
X33682894Y-67250476D01*
X33523651Y-67366174D01*
X33384474Y-67505351D01*
X33384474Y-67505352D01*
X33384472Y-67505354D01*
X33334785Y-67573741D01*
X33268776Y-67664594D01*
X33179417Y-67839970D01*
X33118590Y-68027173D01*
X33087800Y-68221577D01*
X20500500Y-68221577D01*
X20500500Y-25878711D01*
X24149500Y-25878711D01*
X24149500Y-26121288D01*
X24181161Y-26361785D01*
X24243947Y-26596104D01*
X24336773Y-26820205D01*
X24336776Y-26820212D01*
X24458064Y-27030289D01*
X24458066Y-27030292D01*
X24458067Y-27030293D01*
X24605733Y-27222736D01*
X24605739Y-27222743D01*
X24777256Y-27394260D01*
X24777262Y-27394265D01*
X24969711Y-27541936D01*
X25179788Y-27663224D01*
X25403900Y-27756054D01*
X25638211Y-27818838D01*
X25818586Y-27842584D01*
X25878711Y-27850500D01*
X25878712Y-27850500D01*
X26121289Y-27850500D01*
X26169388Y-27844167D01*
X26361789Y-27818838D01*
X26596100Y-27756054D01*
X26820212Y-27663224D01*
X27030289Y-27541936D01*
X27222738Y-27394265D01*
X27394265Y-27222738D01*
X27541936Y-27030289D01*
X27663224Y-26820212D01*
X27756054Y-26596100D01*
X27818838Y-26361789D01*
X27850500Y-26121288D01*
X27850500Y-25878712D01*
X27850500Y-25878711D01*
X112149500Y-25878711D01*
X112149500Y-26121288D01*
X112181161Y-26361785D01*
X112243947Y-26596104D01*
X112336773Y-26820205D01*
X112336776Y-26820212D01*
X112458064Y-27030289D01*
X112458066Y-27030292D01*
X112458067Y-27030293D01*
X112605733Y-27222736D01*
X112605739Y-27222743D01*
X112777256Y-27394260D01*
X112777262Y-27394265D01*
X112969711Y-27541936D01*
X113179788Y-27663224D01*
X113403900Y-27756054D01*
X113638211Y-27818838D01*
X113818586Y-27842584D01*
X113878711Y-27850500D01*
X113878712Y-27850500D01*
X114121289Y-27850500D01*
X114169388Y-27844167D01*
X114361789Y-27818838D01*
X114596100Y-27756054D01*
X114820212Y-27663224D01*
X115030289Y-27541936D01*
X115222738Y-27394265D01*
X115394265Y-27222738D01*
X115541936Y-27030289D01*
X115663224Y-26820212D01*
X115756054Y-26596100D01*
X115818838Y-26361789D01*
X115850500Y-26121288D01*
X115850500Y-25878712D01*
X115818838Y-25638211D01*
X115756054Y-25403900D01*
X115663224Y-25179788D01*
X115541936Y-24969711D01*
X115394265Y-24777262D01*
X115394260Y-24777256D01*
X115222743Y-24605739D01*
X115222736Y-24605733D01*
X115030293Y-24458067D01*
X115030292Y-24458066D01*
X115030289Y-24458064D01*
X114820212Y-24336776D01*
X114820205Y-24336773D01*
X114596104Y-24243947D01*
X114361785Y-24181161D01*
X114121289Y-24149500D01*
X114121288Y-24149500D01*
X113878712Y-24149500D01*
X113878711Y-24149500D01*
X113638214Y-24181161D01*
X113403895Y-24243947D01*
X113179794Y-24336773D01*
X113179785Y-24336777D01*
X112969706Y-24458067D01*
X112777263Y-24605733D01*
X112777256Y-24605739D01*
X112605739Y-24777256D01*
X112605733Y-24777263D01*
X112458067Y-24969706D01*
X112336777Y-25179785D01*
X112336773Y-25179794D01*
X112243947Y-25403895D01*
X112181161Y-25638214D01*
X112149500Y-25878711D01*
X27850500Y-25878711D01*
X27818838Y-25638211D01*
X27756054Y-25403900D01*
X27663224Y-25179788D01*
X27541936Y-24969711D01*
X27394265Y-24777262D01*
X27394260Y-24777256D01*
X27222743Y-24605739D01*
X27222736Y-24605733D01*
X27030293Y-24458067D01*
X27030292Y-24458066D01*
X27030289Y-24458064D01*
X26820212Y-24336776D01*
X26820205Y-24336773D01*
X26596104Y-24243947D01*
X26361785Y-24181161D01*
X26121289Y-24149500D01*
X26121288Y-24149500D01*
X25878712Y-24149500D01*
X25878711Y-24149500D01*
X25638214Y-24181161D01*
X25403895Y-24243947D01*
X25179794Y-24336773D01*
X25179785Y-24336777D01*
X24969706Y-24458067D01*
X24777263Y-24605733D01*
X24777256Y-24605739D01*
X24605739Y-24777256D01*
X24605733Y-24777263D01*
X24458067Y-24969706D01*
X24336777Y-25179785D01*
X24336773Y-25179794D01*
X24243947Y-25403895D01*
X24181161Y-25638214D01*
X24149500Y-25878711D01*
X20500500Y-25878711D01*
X20500500Y-20624500D01*
X20520185Y-20557461D01*
X20572989Y-20511706D01*
X20624500Y-20500500D01*
X119375500Y-20500500D01*
X119442539Y-20520185D01*
G37*
%TD.AperFunction*%
%TD*%
M02*
