M48
; DRILL file KiCad 10.0.4 date 2026-08-30T18:59:52
; FORMAT={-:-/ absolute / metric / decimal}
; #@! TF.CreationDate,2026-08-30T18:59:52+02:00
; #@! TF.GenerationSoftware,Kicad,Pcbnew,10.0.4
; #@! TF.FileFunction,MixedPlating,1,2
FMAT,2
METRIC
; #@! TA.AperFunction,Plated,PTH,ComponentDrill
T1C0.800
; #@! TA.AperFunction,Plated,PTH,ComponentDrill
T2C1.000
; #@! TA.AperFunction,Plated,PTH,ComponentDrill
T3C1.520
; #@! TA.AperFunction,NonPlated,NPTH,ComponentDrill
T4C3.200
%
G90
G05
T1
X36.79Y-65.78
X36.79Y-68.32
X36.79Y-70.86
X36.79Y-73.4
X36.79Y-75.94
X36.79Y-78.48
X36.79Y-81.02
X37.8Y-98.205
X43.8Y-94.205
X43.8Y-102.205
X44.41Y-65.78
X44.41Y-68.32
X44.41Y-70.86
X44.41Y-73.4
X44.41Y-75.94
X44.41Y-78.48
X44.41Y-81.02
X45.42Y-98.205
X48.11Y-90.205
X49.6Y-72.6
X49.6Y-77.6
X51.42Y-94.205
X51.42Y-102.205
X52.8Y-42.06
X52.8Y-44.6
X52.8Y-47.14
X52.8Y-49.68
X52.8Y-52.22
X52.8Y-54.76
X52.8Y-57.3
X53.11Y-90.205
X56.8Y-94.395
X56.8Y-96.935
X56.8Y-99.475
X56.8Y-102.015
X58.11Y-89.205
X58.11Y-108.205
X60.42Y-42.06
X60.42Y-44.6
X60.42Y-47.14
X60.42Y-49.68
X60.42Y-52.22
X60.42Y-54.76
X60.42Y-57.3
X61.98Y-83.2
X63.11Y-89.205
X63.11Y-108.205
X64.42Y-94.395
X64.42Y-96.935
X64.42Y-99.475
X64.42Y-102.015
X65.61Y-42.18
X65.61Y-47.18
X65.78Y-67.2
X65.78Y-72.6
X65.78Y-79.0
X67.11Y-87.205
X69.09Y-62.0
X69.6Y-83.2
X71.79Y-98.338
X71.8Y-91.205
X71.8Y-106.205
X72.11Y-87.205
X73.4Y-67.2
X73.4Y-72.6
X73.4Y-79.0
X74.09Y-62.0
X74.8Y-40.205
X74.8Y-44.872
X74.8Y-49.538
X74.8Y-54.205
X78.8Y-71.395
X78.8Y-73.935
X78.8Y-76.475
X78.8Y-79.015
X79.41Y-98.338
X79.42Y-91.205
X79.42Y-106.205
X80.11Y-67.205
X80.11Y-84.205
X82.42Y-40.205
X82.42Y-44.872
X82.42Y-49.538
X82.42Y-54.205
X85.11Y-67.205
X85.11Y-84.205
X86.42Y-71.395
X86.42Y-73.935
X86.42Y-76.475
X86.42Y-79.015
X88.8Y-44.395
X88.8Y-46.935
X88.8Y-49.475
X88.8Y-52.015
X90.11Y-39.205
X92.18Y-74.205
X92.18Y-79.205
X93.8Y-95.705
X93.8Y-100.705
X95.11Y-39.205
X96.42Y-44.395
X96.42Y-46.935
X96.42Y-49.475
X96.42Y-52.015
X99.8Y-74.205
X99.8Y-79.205
X99.8Y-93.395
X99.8Y-101.015
X102.61Y-39.395
X102.61Y-47.015
X106.8Y-92.205
X106.8Y-102.205
T2
X42.6Y-35.32
X42.6Y-37.86
X42.6Y-40.4
X61.11Y-30.0
X61.11Y-32.54
X63.65Y-30.0
X63.65Y-32.54
X66.19Y-30.0
X66.19Y-32.54
X68.73Y-30.0
X68.73Y-32.54
X71.27Y-30.0
X71.27Y-32.54
X73.81Y-30.0
X73.81Y-32.54
X76.35Y-30.0
X76.35Y-32.54
X78.89Y-30.0
X78.89Y-32.54
X87.06Y-108.415
X89.6Y-108.415
X92.14Y-108.415
T3
X115.8Y-95.665
X115.8Y-100.745
T4
X26.0Y-26.0
X26.0Y-114.0
X114.0Y-26.0
X114.0Y-114.0
M30
