M48
; DRILL file KiCad 10.0.6 date 2026-09-25T00:46:26
; FORMAT={-:-/ absolute / metric / decimal}
; #@! TF.CreationDate,2026-09-25T00:46:26+02:00
; #@! TF.GenerationSoftware,Kicad,Pcbnew,10.0.6
; #@! TF.FileFunction,Plated,1,4,PTH
FMAT,2
METRIC
; #@! TA.AperFunction,Plated,PTH,ViaDrill
T1C0.300
; #@! TA.AperFunction,Plated,PTH,ComponentDrill
T2C0.800
; #@! TA.AperFunction,Plated,PTH,ComponentDrill
T3C1.000
; #@! TA.AperFunction,Plated,PTH,ComponentDrill
T4C1.520
%
G90
G05
T1
X4.25Y-40.25
X8.0Y-83.8
X9.175Y-36.0
X11.35Y-77.562
X14.225Y-10.75
X14.225Y-52.75
X15.5Y-83.8
X15.5Y-29.025
X15.5Y-71.025
X16.4Y-39.75
X19.595Y-16.85
X19.595Y-58.85
X20.865Y-11.9
X20.865Y-53.9
X21.15Y-35.0
X21.415Y-66.969
X21.5Y-81.0
X22.605Y-53.969
X22.823Y-24.759
X23.0Y-83.8
X23.256Y-12.032
X23.925Y-76.75
X24.105Y-57.475
X24.325Y-16.395
X24.625Y-13.212
X24.8Y-79.3
X24.875Y-76.75
X25.15Y-52.525
X25.75Y-16.275
X25.75Y-54.225
X26.875Y-57.287
X27.561Y-26.523
X28.0Y-18.96
X28.0Y-21.5
X28.0Y-24.04
X28.4Y-60.96
X28.4Y-63.5
X28.5Y-30.525
X28.5Y-68.475
X28.5Y-72.525
X28.75Y-36.0
X28.752Y-13.895
X29.25Y-85.0
X29.775Y-26.01
X29.775Y-68.01
X31.153Y-42.507
X31.44Y-82.575
X31.75Y-41.88
X32.275Y-13.355
X32.275Y-55.355
X32.275Y-8.145
X32.275Y-50.145
X32.725Y-15.0
X32.725Y-57.0
X32.95Y-62.23
X33.35Y-17.69
X33.35Y-20.23
X33.883Y-71.625
X34.532Y-68.117
X34.725Y-58.99
X34.841Y-72.16
X35.412Y-34.048
X35.819Y-47.388
X35.85Y-10.115
X35.875Y-4.462
X36.061Y-45.523
X36.265Y-60.954
X36.284Y-64.074
X36.75Y-81.25
X36.775Y-15.0
X37.757Y-66.106
X38.1Y-77.0
X38.533Y-51.573
X38.718Y-8.845
X38.791Y-53.279
X39.018Y-62.597
X39.02Y-38.944
X39.271Y-24.89
X39.44Y-63.435
X39.485Y-57.176
X39.485Y-61.897
X39.608Y-15.5
X39.711Y-25.625
X39.75Y-22.873
X39.769Y-21.895
X40.023Y-69.061
X40.027Y-75.28
X40.141Y-58.727
X40.148Y-66.127
X40.433Y-13.883
X40.796Y-43.08
X41.775Y-23.347
X41.775Y-27.14
X42.375Y-35.525
X42.491Y-34.028
X42.695Y-27.23
X43.013Y-16.713
X43.15Y-76.5
X43.25Y-80.6
X43.32Y-59.552
X43.7Y-77.95
X43.75Y-63.23
X43.865Y-72.049
X43.953Y-25.588
X44.228Y-66.405
X44.55Y-60.69
X44.55Y-64.5
X44.674Y-69.061
X44.75Y-80.0
X45.15Y-38.25
X45.215Y-65.461
X45.228Y-23.77
X45.242Y-67.483
X45.283Y-22.965
X45.322Y-25.588
X45.35Y-18.69
X45.38Y-27.655
X45.5Y-83.8
X45.811Y-69.523
X46.075Y-38.212
X46.725Y-69.01
X46.727Y-36.189
X46.75Y-27.075
X46.75Y-31.525
X46.75Y-73.525
X48.127Y-16.5
X48.22Y-63.23
X48.227Y-21.627
X48.451Y-61.139
X48.955Y-10.799
X49.299Y-57.242
X49.333Y-18.241
X49.575Y-13.787
X49.855Y-55.725
X50.075Y-7.855
X50.075Y-49.855
X50.265Y-14.793
X50.435Y-56.77
X51.055Y-13.725
X51.449Y-9.84
X51.5Y-10.725
X51.5Y-52.725
X51.61Y-80.722
X51.659Y-41.971
X51.703Y-61.797
X51.704Y-19.797
X52.4Y-7.5
X52.4Y-49.5
X52.439Y-56.727
X52.48Y-57.605
X53.0Y-83.8
X53.048Y-64.929
X53.463Y-40.119
X55.329Y-15.649
X57.35Y-79.017
X57.498Y-77.511
X57.65Y-12.0
X57.817Y-53.067
X58.312Y-72.922
X59.407Y-17.646
X59.695Y-55.055
X60.5Y-83.8
X61.378Y-22.785
X61.748Y-47.688
X62.581Y-22.34
X67.75Y-82.587
X68.331Y-45.199
X68.817Y-20.398
X68.831Y-19.132
X68.971Y-18.0
X69.207Y-23.936
X70.9Y-46.1
X71.145Y-26.185
X71.812Y-21.688
X71.848Y-17.061
X73.35Y-71.5
X73.511Y-22.299
X73.817Y-19.132
X74.325Y-30.6
X75.379Y-25.761
X75.595Y-26.65
X75.595Y-30.6
X76.0Y-53.3
X76.0Y-66.7
X77.631Y-12.565
X77.85Y-33.25
X77.928Y-25.755
X78.026Y-26.815
X78.135Y-30.6
X78.274Y-84.8
X78.66Y-12.137
X78.666Y-20.861
X78.926Y-13.695
X79.299Y-18.819
X79.405Y-30.6
X79.5Y-77.225
X79.975Y-51.5
X80.395Y-15.225
X80.675Y-30.6
X80.985Y-12.98
X81.025Y-86.845
X83.1Y-51.5
X83.125Y-20.537
X83.225Y-29.25
X83.375Y-77.25
X84.025Y-51.5
X84.045Y-29.225
X84.117Y-24.89
X85.605Y-19.275
X86.975Y-72.75
X87.275Y-29.25
X88.0Y-60.6
X88.0Y-71.4
X88.6Y-12.345
X88.6Y-13.615
X88.6Y-14.885
X88.6Y-16.155
X88.845Y-25.6
X89.811Y-30.523
X90.027Y-17.411
X90.225Y-12.0
X90.574Y-40.369
X90.75Y-34.525
X91.025Y-72.75
X91.155Y-85.85
X91.225Y-27.0
X91.293Y-83.0
X92.335Y-33.35
X92.335Y-42.65
X92.75Y-75.975
X93.845Y-85.85
X93.975Y-16.25
X94.305Y-31.925
X94.9Y-51.5
X95.835Y-45.35
X95.895Y-24.225
X96.136Y-22.54
X96.24Y-19.025
X96.275Y-27.0
X96.726Y-21.95
X97.029Y-31.804
X98.025Y-16.25
X98.107Y-71.788
X98.21Y-17.65
X99.48Y-16.85
X99.5Y-61.475
X100.0Y-72.25
X100.825Y-15.5
X101.145Y-69.475
X102.02Y-17.65
X102.261Y-75.549
X102.9Y-6.96
X102.9Y-9.5
X103.29Y-20.4
X103.917Y-25.266
X104.155Y-85.85
X104.275Y-14.01
X105.0Y-75.0
X105.26Y-23.975
X105.275Y-15.5
X105.675Y-69.537
X105.765Y-42.65
X106.25Y-12.04
X106.5Y-68.043
X107.355Y-69.475
X107.718Y-9.5
X107.825Y-54.5
X107.85Y-5.69
X108.0Y-66.475
X108.665Y-45.35
X108.665Y-54.65
X109.5Y-79.25
X110.6Y-8.23
X110.712Y-63.11
X112.0Y-16.275
X113.275Y-54.5
X113.5Y-40.45
T2
X15.0Y-20.75
X15.0Y-62.75
X25.0Y-20.75
X25.0Y-62.75
T3
X11.2Y-20.92
X11.2Y-23.46
X11.2Y-26.0
X11.2Y-62.92
X11.2Y-65.46
X11.2Y-68.0
X18.5Y-39.75
X21.04Y-39.75
X57.4Y-19.0
X57.4Y-21.54
X57.4Y-24.08
X57.4Y-26.62
X57.4Y-29.16
X57.4Y-61.0
X57.4Y-63.54
X57.4Y-66.08
X57.4Y-68.62
X57.4Y-71.16
X59.94Y-19.0
X59.94Y-21.54
X59.94Y-24.08
X59.94Y-26.62
X59.94Y-29.16
X59.94Y-61.0
X59.94Y-63.54
X59.94Y-66.08
X59.94Y-68.62
X59.94Y-71.16
X64.23Y-8.37
X64.23Y-10.91
X64.23Y-13.45
X64.23Y-15.99
X64.23Y-18.53
X64.23Y-21.07
X64.23Y-23.61
X64.23Y-26.15
X64.23Y-28.69
X64.23Y-31.23
X64.23Y-33.77
X64.23Y-36.31
X64.23Y-38.85
X64.23Y-41.39
X64.23Y-43.93
X64.23Y-46.47
X64.23Y-49.01
X64.23Y-51.55
X64.23Y-54.09
X64.23Y-56.63
X66.77Y-8.37
X66.77Y-10.91
X66.77Y-13.45
X66.77Y-15.99
X66.77Y-18.53
X66.77Y-21.07
X66.77Y-23.61
X66.77Y-26.15
X66.77Y-28.69
X66.77Y-31.23
X66.77Y-33.77
X66.77Y-36.31
X66.77Y-38.85
X66.77Y-41.39
X66.77Y-43.93
X66.77Y-46.47
X66.77Y-49.01
X66.77Y-51.55
X66.77Y-54.09
X66.77Y-56.63
X75.25Y-3.96
X75.25Y-6.5
X98.75Y-27.5
X101.29Y-27.5
X103.83Y-27.5
X110.8Y-22.0
X110.8Y-24.54
X110.8Y-27.08
X110.8Y-29.62
X110.8Y-32.16
X113.34Y-22.0
X113.34Y-24.54
X113.34Y-27.08
X113.34Y-29.62
X113.34Y-32.16
T4
X4.7Y-10.0
X4.7Y-15.08
X4.7Y-31.0
X4.7Y-36.08
X4.7Y-52.0
X4.7Y-57.08
M30
