%TF.GenerationSoftware,KiCad,Pcbnew,10.0.5-1-g226df246f3*%
%TF.CreationDate,2026-09-09T19:44:35+02:00*%
%TF.ProjectId,vinyl_adc_digital,76696e79-6c5f-4616-9463-5f6469676974,rev?*%
%TF.SameCoordinates,Original*%
%TF.FileFunction,Soldermask,Top*%
%TF.FilePolarity,Negative*%
%FSLAX46Y46*%
G04 Gerber Fmt 4.6, Leading zero omitted, Abs format (unit mm)*
G04 Created by KiCad (PCBNEW 10.0.5-1-g226df246f3) date 2026-09-09 19:44:35*
%MOMM*%
%LPD*%
G01*
G04 APERTURE LIST*
G04 Aperture macros list*
%AMRoundRect*
0 Rectangle with rounded corners*
0 $1 Rounding radius*
0 $2 $3 $4 $5 $6 $7 $8 $9 X,Y pos of 4 corners*
0 Add a 4 corners polygon primitive as box body*
4,1,4,$2,$3,$4,$5,$6,$7,$8,$9,$2,$3,0*
0 Add four circle primitives for the rounded corners*
1,1,$1+$1,$2,$3*
1,1,$1+$1,$4,$5*
1,1,$1+$1,$6,$7*
1,1,$1+$1,$8,$9*
0 Add four rect primitives between the rounded corners*
20,1,$1+$1,$2,$3,$4,$5,0*
20,1,$1+$1,$4,$5,$6,$7,0*
20,1,$1+$1,$6,$7,$8,$9,0*
20,1,$1+$1,$8,$9,$2,$3,0*%
G04 Aperture macros list end*
%ADD10RoundRect,0.100000X-0.850000X0.850000X-0.850000X-0.850000X0.850000X-0.850000X0.850000X0.850000X0*%
%ADD11C,1.900000*%
%ADD12C,3.400000*%
%ADD13C,1.800000*%
%ADD14C,2.000000*%
%ADD15RoundRect,0.350000X0.550000X-0.950000X0.550000X0.950000X-0.550000X0.950000X-0.550000X-0.950000X0*%
%ADD16O,1.800000X2.600000*%
%ADD17RoundRect,0.100000X-0.850000X-0.850000X0.850000X-0.850000X0.850000X0.850000X-0.850000X0.850000X0*%
%ADD18RoundRect,0.350000X-0.950000X-0.550000X0.950000X-0.550000X0.950000X0.550000X-0.950000X0.550000X0*%
%ADD19O,2.600000X1.800000*%
%ADD20C,1.700000*%
G04 APERTURE END LIST*
D10*
%TO.C,J4*%
X78890000Y-30000000D03*
D11*
X78890000Y-32540000D03*
X76350000Y-30000000D03*
X76350000Y-32540000D03*
X73810000Y-30000000D03*
X73810000Y-32540000D03*
X71270000Y-30000000D03*
X71270000Y-32540000D03*
X68730000Y-30000000D03*
X68730000Y-32540000D03*
X66190000Y-30000000D03*
X66190000Y-32540000D03*
X63650000Y-30000000D03*
X63650000Y-32540000D03*
X61110000Y-30000000D03*
X61110000Y-32540000D03*
%TD*%
D12*
%TO.C,H4*%
X114000000Y-114000000D03*
%TD*%
D13*
%TO.C,R11*%
X53910000Y-100330000D03*
X61530000Y-100330000D03*
%TD*%
D14*
%TO.C,WL6a*%
X84000000Y-61500000D03*
%TD*%
D15*
%TO.C,U3*%
X44605000Y-68580000D03*
D16*
X47145000Y-68580000D03*
X49685000Y-68580000D03*
X52225000Y-68580000D03*
X54765000Y-68580000D03*
X57305000Y-68580000D03*
X59845000Y-68580000D03*
X59845000Y-60960000D03*
X57305000Y-60960000D03*
X54765000Y-60960000D03*
X52225000Y-60960000D03*
X49685000Y-60960000D03*
X47145000Y-60960000D03*
X44605000Y-60960000D03*
%TD*%
D17*
%TO.C,J2*%
X106352500Y-55880000D03*
D11*
X106352500Y-58420000D03*
X106352500Y-60960000D03*
X106352500Y-63500000D03*
X106352500Y-66040000D03*
X106352500Y-68580000D03*
X106352500Y-71120000D03*
X106352500Y-73660000D03*
%TD*%
D15*
%TO.C,U9*%
X58282500Y-90170000D03*
D16*
X60822500Y-90170000D03*
X63362500Y-90170000D03*
X65902500Y-90170000D03*
X68442500Y-90170000D03*
X70982500Y-90170000D03*
X73522500Y-90170000D03*
X73522500Y-82550000D03*
X70982500Y-82550000D03*
X68442500Y-82550000D03*
X65902500Y-82550000D03*
X63362500Y-82550000D03*
X60822500Y-82550000D03*
X58282500Y-82550000D03*
%TD*%
D14*
%TO.C,WL1a*%
X79500000Y-49000000D03*
%TD*%
D13*
%TO.C,C15*%
X78752500Y-64770000D03*
X83752500Y-64770000D03*
%TD*%
D14*
%TO.C,WL7b*%
X69500000Y-53000000D03*
%TD*%
%TO.C,WL1b*%
X71500000Y-36500000D03*
%TD*%
%TO.C,WL9b*%
X60000000Y-43000000D03*
%TD*%
%TO.C,WL8b*%
X111000000Y-68500000D03*
%TD*%
D12*
%TO.C,H3*%
X26000000Y-114000000D03*
%TD*%
%TO.C,H1*%
X26000000Y-26000000D03*
%TD*%
D13*
%TO.C,C17*%
X66260000Y-100330000D03*
X71260000Y-100330000D03*
%TD*%
D14*
%TO.C,WL3a*%
X42000000Y-35500000D03*
%TD*%
%TO.C,WL6b*%
X84000000Y-75000000D03*
%TD*%
D18*
%TO.C,U4*%
X84760000Y-31750000D03*
D19*
X84760000Y-34290000D03*
X84760000Y-36830000D03*
X84760000Y-39370000D03*
X84760000Y-41910000D03*
X84760000Y-44450000D03*
X84760000Y-46990000D03*
X84760000Y-49530000D03*
X92380000Y-49530000D03*
X92380000Y-46990000D03*
X92380000Y-44450000D03*
X92380000Y-41910000D03*
X92380000Y-39370000D03*
X92380000Y-36830000D03*
X92380000Y-34290000D03*
X92380000Y-31750000D03*
%TD*%
D13*
%TO.C,R10*%
X70905000Y-107950000D03*
X78525000Y-107950000D03*
%TD*%
D14*
%TO.C,WL2a*%
X97500000Y-47000000D03*
%TD*%
%TO.C,WL3b*%
X99500000Y-68500000D03*
%TD*%
D13*
%TO.C,C10*%
X65055000Y-64770000D03*
X70055000Y-64770000D03*
%TD*%
%TO.C,C11*%
X97510000Y-40640000D03*
X102510000Y-40640000D03*
%TD*%
D20*
%TO.C,Y1*%
X78450000Y-100330000D03*
X83330000Y-100330000D03*
%TD*%
D14*
%TO.C,WL4b*%
X43000000Y-31500000D03*
%TD*%
%TO.C,WL2b*%
X56000000Y-74000000D03*
%TD*%
%TO.C,WL5b*%
X111000000Y-61000000D03*
%TD*%
D10*
%TO.C,J1*%
X68442500Y-76700000D03*
D11*
X65902500Y-76700000D03*
X63362500Y-76700000D03*
%TD*%
D13*
%TO.C,C13*%
X37490000Y-40640000D03*
X42490000Y-40640000D03*
%TD*%
D14*
%TO.C,WL5a*%
X86500000Y-53000000D03*
%TD*%
D18*
%TO.C,U6*%
X47620000Y-31750000D03*
D19*
X47620000Y-34290000D03*
X47620000Y-36830000D03*
X47620000Y-39370000D03*
X47620000Y-41910000D03*
X47620000Y-44450000D03*
X47620000Y-46990000D03*
X47620000Y-49530000D03*
X55240000Y-49530000D03*
X55240000Y-46990000D03*
X55240000Y-44450000D03*
X55240000Y-41910000D03*
X55240000Y-39370000D03*
X55240000Y-36830000D03*
X55240000Y-34290000D03*
X55240000Y-31750000D03*
%TD*%
D13*
%TO.C,C9*%
X48072500Y-86360000D03*
X53072500Y-86360000D03*
%TD*%
D14*
%TO.C,WL8a*%
X100000000Y-58500000D03*
%TD*%
D18*
%TO.C,U8*%
X88882500Y-55880000D03*
D19*
X88882500Y-58420000D03*
X88882500Y-60960000D03*
X88882500Y-63500000D03*
X88882500Y-66040000D03*
X88882500Y-68580000D03*
X88882500Y-71120000D03*
X88882500Y-73660000D03*
X96502500Y-73660000D03*
X96502500Y-71120000D03*
X96502500Y-68580000D03*
X96502500Y-66040000D03*
X96502500Y-63500000D03*
X96502500Y-60960000D03*
X96502500Y-58420000D03*
X96502500Y-55880000D03*
%TD*%
D12*
%TO.C,H2*%
X114000000Y-26000000D03*
%TD*%
D13*
%TO.C,C16*%
X61175000Y-107950000D03*
X66175000Y-107950000D03*
%TD*%
D14*
%TO.C,WL7a*%
X79500000Y-53000000D03*
%TD*%
M02*
