%TF.GenerationSoftware,KiCad,Pcbnew,10.0.5-1-g226df246f3*%
%TF.CreationDate,2026-09-09T19:40:57+02:00*%
%TF.ProjectId,vinyl_adc_digital,76696e79-6c5f-4616-9463-5f6469676974,rev?*%
%TF.SameCoordinates,Original*%
%TF.FileFunction,Copper,L1,Top*%
%TF.FilePolarity,Positive*%
%FSLAX46Y46*%
G04 Gerber Fmt 4.6, Leading zero omitted, Abs format (unit mm)*
G04 Created by KiCad (PCBNEW 10.0.5-1-g226df246f3) date 2026-09-09 19:40:57*
%MOMM*%
%LPD*%
G01*
G04 APERTURE LIST*
G04 Aperture macros list*
%AMRoundRect*
0 Rectangle with rounded corners*
0 $1 Rounding radius*
0 $2 $3 $4 $5 $6 $7 $8 $9 X,Y pos of 4 corners*
0 Add a 4 corners polygon primitive as box body*
4,1,4,$2,$3,$4,$5,$6,$7,$8,$9,$2,$3,0*
0 Add four circle primitives for the rounded corners*
1,1,$1+$1,$2,$3*
1,1,$1+$1,$4,$5*
1,1,$1+$1,$6,$7*
1,1,$1+$1,$8,$9*
0 Add four rect primitives between the rounded corners*
20,1,$1+$1,$2,$3,$4,$5,0*
20,1,$1+$1,$4,$5,$6,$7,0*
20,1,$1+$1,$6,$7,$8,$9,0*
20,1,$1+$1,$8,$9,$2,$3,0*%
G04 Aperture macros list end*
%TA.AperFunction,ComponentPad*%
%ADD10R,1.700000X1.700000*%
%TD*%
%TA.AperFunction,ComponentPad*%
%ADD11C,1.700000*%
%TD*%
%TA.AperFunction,ComponentPad*%
%ADD12C,1.600000*%
%TD*%
%TA.AperFunction,ComponentPad*%
%ADD13C,1.800000*%
%TD*%
%TA.AperFunction,ComponentPad*%
%ADD14RoundRect,0.250000X0.550000X-0.950000X0.550000X0.950000X-0.550000X0.950000X-0.550000X-0.950000X0*%
%TD*%
%TA.AperFunction,ComponentPad*%
%ADD15O,1.600000X2.400000*%
%TD*%
%TA.AperFunction,ComponentPad*%
%ADD16RoundRect,0.250000X-0.950000X-0.550000X0.950000X-0.550000X0.950000X0.550000X-0.950000X0.550000X0*%
%TD*%
%TA.AperFunction,ComponentPad*%
%ADD17O,2.400000X1.600000*%
%TD*%
%TA.AperFunction,ComponentPad*%
%ADD18C,1.500000*%
%TD*%
%TA.AperFunction,ViaPad*%
%ADD19C,0.800000*%
%TD*%
%TA.AperFunction,Conductor*%
%ADD20C,1.000000*%
%TD*%
G04 APERTURE END LIST*
D10*
%TO.P,J4,1*%
%TO.N,GND*%
X78890000Y-30000000D03*
D11*
%TO.P,J4,2*%
%TO.N,+5V*%
X78890000Y-32540000D03*
%TO.P,J4,3*%
%TO.N,GND*%
X76350000Y-30000000D03*
%TO.P,J4,4*%
%TO.N,VREF_P*%
X76350000Y-32540000D03*
%TO.P,J4,5*%
%TO.N,GND*%
X73810000Y-30000000D03*
%TO.P,J4,6*%
%TO.N,VREF_N*%
X73810000Y-32540000D03*
%TO.P,J4,7*%
%TO.N,GND*%
X71270000Y-30000000D03*
%TO.P,J4,8*%
%TO.N,MCLK*%
X71270000Y-32540000D03*
%TO.P,J4,9*%
%TO.N,GND*%
X68730000Y-30000000D03*
%TO.P,J4,10*%
%TO.N,PUMP*%
X68730000Y-32540000D03*
%TO.P,J4,11*%
%TO.N,GND*%
X66190000Y-30000000D03*
%TO.P,J4,12*%
%TO.N,QL*%
X66190000Y-32540000D03*
%TO.P,J4,13*%
%TO.N,GND*%
X63650000Y-30000000D03*
%TO.P,J4,14*%
%TO.N,QR*%
X63650000Y-32540000D03*
%TO.P,J4,15*%
%TO.N,GND*%
X61110000Y-30000000D03*
%TO.P,J4,16*%
%TO.N,-5V*%
X61110000Y-32540000D03*
%TD*%
D12*
%TO.P,R11,1*%
%TO.N,Net-(R10-Pad2)*%
X53910000Y-100330000D03*
%TO.P,R11,2*%
%TO.N,Net-(C17-Pad1)*%
X61530000Y-100330000D03*
%TD*%
D13*
%TO.P,WL6a,1*%
%TO.N,GND*%
X84000000Y-61500000D03*
%TD*%
D14*
%TO.P,U3,1*%
%TO.N,Net-(J1-Pin_2)*%
X44605000Y-68580000D03*
D15*
%TO.P,U3,2*%
X47145000Y-68580000D03*
%TO.P,U3,3*%
%TO.N,CLK6M*%
X49685000Y-68580000D03*
%TO.P,U3,4*%
%TO.N,GND*%
X52225000Y-68580000D03*
%TO.P,U3,5*%
X54765000Y-68580000D03*
%TO.P,U3,6*%
%TO.N,N/C*%
X57305000Y-68580000D03*
%TO.P,U3,7*%
%TO.N,GND*%
X59845000Y-68580000D03*
%TO.P,U3,8*%
%TO.N,N/C*%
X59845000Y-60960000D03*
%TO.P,U3,9*%
%TO.N,GND*%
X57305000Y-60960000D03*
%TO.P,U3,10*%
X54765000Y-60960000D03*
%TO.P,U3,11*%
%TO.N,N/C*%
X52225000Y-60960000D03*
%TO.P,U3,12*%
%TO.N,GND*%
X49685000Y-60960000D03*
%TO.P,U3,13*%
X47145000Y-60960000D03*
%TO.P,U3,14*%
%TO.N,+5V*%
X44605000Y-60960000D03*
%TD*%
D10*
%TO.P,J2,1*%
%TO.N,+5V*%
X106352500Y-55880000D03*
D11*
%TO.P,J2,2*%
%TO.N,GND*%
X106352500Y-58420000D03*
%TO.P,J2,3*%
%TO.N,+3V3*%
X106352500Y-60960000D03*
%TO.P,J2,4*%
%TO.N,PI_BCLK*%
X106352500Y-63500000D03*
%TO.P,J2,5*%
%TO.N,PI_LRCLK*%
X106352500Y-66040000D03*
%TO.P,J2,6*%
%TO.N,PI_DIN*%
X106352500Y-68580000D03*
%TO.P,J2,7*%
%TO.N,GPCLK0*%
X106352500Y-71120000D03*
%TO.P,J2,8*%
%TO.N,GND*%
X106352500Y-73660000D03*
%TD*%
D14*
%TO.P,U9,1*%
%TO.N,Net-(C16-Pad1)*%
X58282500Y-90170000D03*
D15*
%TO.P,U9,2*%
%TO.N,Net-(R10-Pad2)*%
X60822500Y-90170000D03*
%TO.P,U9,3*%
X63362500Y-90170000D03*
%TO.P,U9,4*%
%TO.N,Net-(J1-Pin_1)*%
X65902500Y-90170000D03*
%TO.P,U9,5*%
%TO.N,GND*%
X68442500Y-90170000D03*
%TO.P,U9,6*%
%TO.N,N/C*%
X70982500Y-90170000D03*
%TO.P,U9,7*%
%TO.N,GND*%
X73522500Y-90170000D03*
%TO.P,U9,8*%
%TO.N,N/C*%
X73522500Y-82550000D03*
%TO.P,U9,9*%
%TO.N,GND*%
X70982500Y-82550000D03*
%TO.P,U9,10*%
%TO.N,N/C*%
X68442500Y-82550000D03*
%TO.P,U9,11*%
%TO.N,GND*%
X65902500Y-82550000D03*
%TO.P,U9,12*%
%TO.N,N/C*%
X63362500Y-82550000D03*
%TO.P,U9,13*%
%TO.N,GND*%
X60822500Y-82550000D03*
%TO.P,U9,14*%
%TO.N,+5V*%
X58282500Y-82550000D03*
%TD*%
D13*
%TO.P,WL1a,1*%
%TO.N,MCLK*%
X79500000Y-49000000D03*
%TD*%
D12*
%TO.P,C15,1*%
%TO.N,+3V3*%
X78752500Y-64770000D03*
%TO.P,C15,2*%
%TO.N,GND*%
X83752500Y-64770000D03*
%TD*%
D13*
%TO.P,WL7b,1*%
%TO.N,GND*%
X69500000Y-53000000D03*
%TD*%
%TO.P,WL1b,1*%
%TO.N,MCLK*%
X71500000Y-36500000D03*
%TD*%
%TO.P,WL9b,1*%
%TO.N,GND*%
X60000000Y-43000000D03*
%TD*%
%TO.P,WL8b,1*%
%TO.N,PI_DIN*%
X111000000Y-68500000D03*
%TD*%
D12*
%TO.P,C17,1*%
%TO.N,Net-(C17-Pad1)*%
X66260000Y-100330000D03*
%TO.P,C17,2*%
%TO.N,GND*%
X71260000Y-100330000D03*
%TD*%
D13*
%TO.P,WL3a,1*%
%TO.N,DIN*%
X42000000Y-35500000D03*
%TD*%
%TO.P,WL6b,1*%
%TO.N,GND*%
X84000000Y-75000000D03*
%TD*%
D16*
%TO.P,U4,1*%
%TO.N,N/C*%
X84760000Y-31750000D03*
D17*
%TO.P,U4,2*%
X84760000Y-34290000D03*
%TO.P,U4,3*%
%TO.N,PUMP*%
X84760000Y-36830000D03*
%TO.P,U4,4*%
%TO.N,LRCLK*%
X84760000Y-39370000D03*
%TO.P,U4,5*%
%TO.N,N/C*%
X84760000Y-41910000D03*
%TO.P,U4,6*%
X84760000Y-44450000D03*
%TO.P,U4,7*%
%TO.N,MCLK*%
X84760000Y-46990000D03*
%TO.P,U4,8*%
%TO.N,GND*%
X84760000Y-49530000D03*
%TO.P,U4,9*%
%TO.N,BCLK*%
X92380000Y-49530000D03*
%TO.P,U4,10*%
%TO.N,CLK6M*%
X92380000Y-46990000D03*
%TO.P,U4,11*%
%TO.N,GND*%
X92380000Y-44450000D03*
%TO.P,U4,12*%
%TO.N,N/C*%
X92380000Y-41910000D03*
%TO.P,U4,13*%
X92380000Y-39370000D03*
%TO.P,U4,14*%
X92380000Y-36830000D03*
%TO.P,U4,15*%
X92380000Y-34290000D03*
%TO.P,U4,16*%
%TO.N,+5V*%
X92380000Y-31750000D03*
%TD*%
D12*
%TO.P,R10,1*%
%TO.N,Net-(C16-Pad1)*%
X70905000Y-107950000D03*
%TO.P,R10,2*%
%TO.N,Net-(R10-Pad2)*%
X78525000Y-107950000D03*
%TD*%
D13*
%TO.P,WL2a,1*%
%TO.N,CLK6M*%
X97500000Y-47000000D03*
%TD*%
%TO.P,WL3b,1*%
%TO.N,DIN*%
X99500000Y-68500000D03*
%TD*%
D12*
%TO.P,C10,1*%
%TO.N,+5V*%
X65055000Y-64770000D03*
%TO.P,C10,2*%
%TO.N,GND*%
X70055000Y-64770000D03*
%TD*%
%TO.P,C11,1*%
%TO.N,+5V*%
X97510000Y-40640000D03*
%TO.P,C11,2*%
%TO.N,GND*%
X102510000Y-40640000D03*
%TD*%
D18*
%TO.P,Y1,1*%
%TO.N,Net-(C16-Pad1)*%
X78450000Y-100330000D03*
%TO.P,Y1,2*%
%TO.N,Net-(C17-Pad1)*%
X83330000Y-100330000D03*
%TD*%
D13*
%TO.P,WL4b,1*%
%TO.N,MCLK*%
X43000000Y-31500000D03*
%TD*%
%TO.P,WL2b,1*%
%TO.N,CLK6M*%
X56000000Y-74000000D03*
%TD*%
%TO.P,WL5b,1*%
%TO.N,+3V3*%
X111000000Y-61000000D03*
%TD*%
D10*
%TO.P,J1,1*%
%TO.N,Net-(J1-Pin_1)*%
X68442500Y-76700000D03*
D11*
%TO.P,J1,2*%
%TO.N,Net-(J1-Pin_2)*%
X65902500Y-76700000D03*
%TO.P,J1,3*%
%TO.N,GPCLK0*%
X63362500Y-76700000D03*
%TD*%
D12*
%TO.P,C13,1*%
%TO.N,+5V*%
X37490000Y-40640000D03*
%TO.P,C13,2*%
%TO.N,GND*%
X42490000Y-40640000D03*
%TD*%
D13*
%TO.P,WL5a,1*%
%TO.N,+3V3*%
X86500000Y-53000000D03*
%TD*%
D16*
%TO.P,U6,1*%
%TO.N,MCLK*%
X47620000Y-31750000D03*
D17*
%TO.P,U6,2*%
%TO.N,QR*%
X47620000Y-34290000D03*
%TO.P,U6,3*%
%TO.N,QL*%
X47620000Y-36830000D03*
%TO.P,U6,4*%
%TO.N,DIN*%
X47620000Y-39370000D03*
%TO.P,U6,5*%
%TO.N,GND*%
X47620000Y-41910000D03*
%TO.P,U6,6*%
X47620000Y-44450000D03*
%TO.P,U6,7*%
%TO.N,N/C*%
X47620000Y-46990000D03*
%TO.P,U6,8*%
%TO.N,GND*%
X47620000Y-49530000D03*
%TO.P,U6,9*%
%TO.N,N/C*%
X55240000Y-49530000D03*
%TO.P,U6,10*%
%TO.N,GND*%
X55240000Y-46990000D03*
%TO.P,U6,11*%
X55240000Y-44450000D03*
%TO.P,U6,12*%
%TO.N,N/C*%
X55240000Y-41910000D03*
%TO.P,U6,13*%
%TO.N,GND*%
X55240000Y-39370000D03*
%TO.P,U6,14*%
X55240000Y-36830000D03*
%TO.P,U6,15*%
X55240000Y-34290000D03*
%TO.P,U6,16*%
%TO.N,+5V*%
X55240000Y-31750000D03*
%TD*%
D12*
%TO.P,C9,1*%
%TO.N,+5V*%
X48072500Y-86360000D03*
%TO.P,C9,2*%
%TO.N,GND*%
X53072500Y-86360000D03*
%TD*%
D13*
%TO.P,WL8a,1*%
%TO.N,PI_DIN*%
X100000000Y-58500000D03*
%TD*%
D16*
%TO.P,U8,1*%
%TO.N,+3V3*%
X88882500Y-55880000D03*
D17*
%TO.P,U8,2*%
%TO.N,Net-(U8-Pad2)*%
X88882500Y-58420000D03*
%TO.P,U8,3*%
%TO.N,BCLK*%
X88882500Y-60960000D03*
%TO.P,U8,4*%
%TO.N,PI_BCLK*%
X88882500Y-63500000D03*
%TO.P,U8,5*%
%TO.N,Net-(U8-Pad2)*%
X88882500Y-66040000D03*
%TO.P,U8,6*%
%TO.N,Net-(U8-Pad6)*%
X88882500Y-68580000D03*
%TO.P,U8,7*%
%TO.N,LRCLK*%
X88882500Y-71120000D03*
%TO.P,U8,8*%
%TO.N,GND*%
X88882500Y-73660000D03*
%TO.P,U8,9*%
%TO.N,Net-(U8-Pad6)*%
X96502500Y-73660000D03*
%TO.P,U8,10*%
%TO.N,PI_LRCLK*%
X96502500Y-71120000D03*
%TO.P,U8,11*%
%TO.N,DIN*%
X96502500Y-68580000D03*
%TO.P,U8,12*%
%TO.N,Net-(U8-Pad12)*%
X96502500Y-66040000D03*
%TO.P,U8,13*%
%TO.N,N/C*%
X96502500Y-63500000D03*
%TO.P,U8,14*%
%TO.N,Net-(U8-Pad12)*%
X96502500Y-60960000D03*
%TO.P,U8,15*%
%TO.N,PI_DIN*%
X96502500Y-58420000D03*
%TO.P,U8,16*%
%TO.N,N/C*%
X96502500Y-55880000D03*
%TD*%
D12*
%TO.P,C16,1*%
%TO.N,Net-(C16-Pad1)*%
X61175000Y-107950000D03*
%TO.P,C16,2*%
%TO.N,GND*%
X66175000Y-107950000D03*
%TD*%
D13*
%TO.P,WL7a,1*%
%TO.N,GND*%
X79500000Y-53000000D03*
%TD*%
D19*
%TO.N,GND*%
X79500000Y-53000000D03*
X79500000Y-53000000D03*
%TD*%
%TO.N,GND*%
D20*
X69500000Y-53000000D02*
X79500000Y-53000000D01*
X84000000Y-61500000D02*
X84000000Y-75000000D01*
X69500000Y-52500000D02*
X69500000Y-53000000D01*
X60000000Y-43000000D02*
X69500000Y-52500000D01*
%TO.N,MCLK*%
X71500000Y-41000000D02*
X71500000Y-36500000D01*
X57790000Y-32640559D02*
X57790000Y-30859441D01*
X79500000Y-49000000D02*
X74149441Y-49000000D01*
X74149441Y-49000000D02*
X57790000Y-32640559D01*
X49770000Y-29600000D02*
X47620000Y-31750000D01*
X57790000Y-30859441D02*
X56530559Y-29600000D01*
X56530559Y-29600000D02*
X49770000Y-29600000D01*
X79500000Y-49000000D02*
X71500000Y-41000000D01*
%TO.N,CLK6M*%
X83140330Y-29600000D02*
X82000000Y-30740330D01*
X86379670Y-29600000D02*
X83140330Y-29600000D01*
X82000000Y-30740330D02*
X82000000Y-55865560D01*
X87310000Y-30530330D02*
X86379670Y-29600000D01*
X82000000Y-55865560D02*
X63865560Y-74000000D01*
X90730559Y-47000000D02*
X87310000Y-43579441D01*
X63865560Y-74000000D02*
X56000000Y-74000000D01*
X87310000Y-43579441D02*
X87310000Y-30530330D01*
X97500000Y-47000000D02*
X90730559Y-47000000D01*
%TO.N,+3V3*%
X107120000Y-60620000D02*
X105441230Y-60620000D01*
X105441230Y-60620000D02*
X104152500Y-59331270D01*
X104152500Y-59331270D02*
X104152500Y-57652500D01*
X111000000Y-61000000D02*
X107500000Y-61000000D01*
X107500000Y-61000000D02*
X107120000Y-60620000D01*
X99500000Y-53000000D02*
X86500000Y-53000000D01*
X104152500Y-57652500D02*
X99500000Y-53000000D01*
%TO.N,PI_DIN*%
X105701230Y-68500000D02*
X111000000Y-68500000D01*
X100000000Y-58500000D02*
X100000000Y-62798770D01*
X100000000Y-62798770D02*
X105701230Y-68500000D01*
%TO.N,DIN*%
X62435560Y-58410000D02*
X67905000Y-63879440D01*
X67905000Y-65660560D02*
X61815560Y-71750000D01*
X99500000Y-74103059D02*
X99500000Y-68500000D01*
X53750000Y-74931981D02*
X57718019Y-78900000D01*
X42000000Y-35500000D02*
X46260000Y-39760000D01*
X48910559Y-39760000D02*
X50170000Y-41019441D01*
X96582500Y-68500000D02*
X96502500Y-68580000D01*
X50170000Y-51260000D02*
X57320000Y-58410000D01*
X94703059Y-78900000D02*
X99500000Y-74103059D01*
X46260000Y-39760000D02*
X48910559Y-39760000D01*
X57718019Y-78900000D02*
X94703059Y-78900000D01*
X57320000Y-58410000D02*
X62435560Y-58410000D01*
X53750000Y-73068019D02*
X53750000Y-74931981D01*
X61815560Y-71750000D02*
X55068019Y-71750000D01*
X67905000Y-63879440D02*
X67905000Y-65660560D01*
X50170000Y-41019441D02*
X50170000Y-51260000D01*
X55068019Y-71750000D02*
X53750000Y-73068019D01*
%TD*%
M02*
