%TF.GenerationSoftware,KiCad,Pcbnew,10.0.5-1-g226df246f3*%
%TF.CreationDate,2026-09-09T19:44:35+02:00*%
%TF.ProjectId,vinyl_adc_digital,76696e79-6c5f-4616-9463-5f6469676974,rev?*%
%TF.SameCoordinates,Original*%
%TF.FileFunction,Legend,Top*%
%TF.FilePolarity,Positive*%
%FSLAX46Y46*%
G04 Gerber Fmt 4.6, Leading zero omitted, Abs format (unit mm)*
G04 Created by KiCad (PCBNEW 10.0.5-1-g226df246f3) date 2026-09-09 19:44:35*
%MOMM*%
%LPD*%
G01*
G04 APERTURE LIST*
%ADD10C,0.150000*%
%ADD11C,0.120000*%
G04 APERTURE END LIST*
D10*
X80724819Y-31603333D02*
X81439104Y-31603333D01*
X81439104Y-31603333D02*
X81581961Y-31650952D01*
X81581961Y-31650952D02*
X81677200Y-31746190D01*
X81677200Y-31746190D02*
X81724819Y-31889047D01*
X81724819Y-31889047D02*
X81724819Y-31984285D01*
X81058152Y-30698571D02*
X81724819Y-30698571D01*
X80677200Y-30936666D02*
X81391485Y-31174761D01*
X81391485Y-31174761D02*
X81391485Y-30555714D01*
X113238095Y-110304819D02*
X113238095Y-109304819D01*
X113238095Y-109781009D02*
X113809523Y-109781009D01*
X113809523Y-110304819D02*
X113809523Y-109304819D01*
X114714285Y-109638152D02*
X114714285Y-110304819D01*
X114476190Y-109257200D02*
X114238095Y-109971485D01*
X114238095Y-109971485D02*
X114857142Y-109971485D01*
X57077142Y-98414819D02*
X56743809Y-97938628D01*
X56505714Y-98414819D02*
X56505714Y-97414819D01*
X56505714Y-97414819D02*
X56886666Y-97414819D01*
X56886666Y-97414819D02*
X56981904Y-97462438D01*
X56981904Y-97462438D02*
X57029523Y-97510057D01*
X57029523Y-97510057D02*
X57077142Y-97605295D01*
X57077142Y-97605295D02*
X57077142Y-97748152D01*
X57077142Y-97748152D02*
X57029523Y-97843390D01*
X57029523Y-97843390D02*
X56981904Y-97891009D01*
X56981904Y-97891009D02*
X56886666Y-97938628D01*
X56886666Y-97938628D02*
X56505714Y-97938628D01*
X58029523Y-98414819D02*
X57458095Y-98414819D01*
X57743809Y-98414819D02*
X57743809Y-97414819D01*
X57743809Y-97414819D02*
X57648571Y-97557676D01*
X57648571Y-97557676D02*
X57553333Y-97652914D01*
X57553333Y-97652914D02*
X57458095Y-97700533D01*
X58981904Y-98414819D02*
X58410476Y-98414819D01*
X58696190Y-98414819D02*
X58696190Y-97414819D01*
X58696190Y-97414819D02*
X58600952Y-97557676D01*
X58600952Y-97557676D02*
X58505714Y-97652914D01*
X58505714Y-97652914D02*
X58410476Y-97700533D01*
D11*
X82590475Y-58963855D02*
X82780951Y-59763855D01*
X82780951Y-59763855D02*
X82933332Y-59192426D01*
X82933332Y-59192426D02*
X83085713Y-59763855D01*
X83085713Y-59763855D02*
X83276190Y-58963855D01*
X83961904Y-59763855D02*
X83580952Y-59763855D01*
X83580952Y-59763855D02*
X83580952Y-58963855D01*
X84571428Y-58963855D02*
X84419047Y-58963855D01*
X84419047Y-58963855D02*
X84342856Y-59001950D01*
X84342856Y-59001950D02*
X84304761Y-59040045D01*
X84304761Y-59040045D02*
X84228571Y-59154331D01*
X84228571Y-59154331D02*
X84190475Y-59306712D01*
X84190475Y-59306712D02*
X84190475Y-59611474D01*
X84190475Y-59611474D02*
X84228571Y-59687664D01*
X84228571Y-59687664D02*
X84266666Y-59725760D01*
X84266666Y-59725760D02*
X84342856Y-59763855D01*
X84342856Y-59763855D02*
X84495237Y-59763855D01*
X84495237Y-59763855D02*
X84571428Y-59725760D01*
X84571428Y-59725760D02*
X84609523Y-59687664D01*
X84609523Y-59687664D02*
X84647618Y-59611474D01*
X84647618Y-59611474D02*
X84647618Y-59420998D01*
X84647618Y-59420998D02*
X84609523Y-59344807D01*
X84609523Y-59344807D02*
X84571428Y-59306712D01*
X84571428Y-59306712D02*
X84495237Y-59268617D01*
X84495237Y-59268617D02*
X84342856Y-59268617D01*
X84342856Y-59268617D02*
X84266666Y-59306712D01*
X84266666Y-59306712D02*
X84228571Y-59344807D01*
X84228571Y-59344807D02*
X84190475Y-59420998D01*
X85333333Y-59763855D02*
X85333333Y-59344807D01*
X85333333Y-59344807D02*
X85295238Y-59268617D01*
X85295238Y-59268617D02*
X85219047Y-59230521D01*
X85219047Y-59230521D02*
X85066666Y-59230521D01*
X85066666Y-59230521D02*
X84990476Y-59268617D01*
X85333333Y-59725760D02*
X85257142Y-59763855D01*
X85257142Y-59763855D02*
X85066666Y-59763855D01*
X85066666Y-59763855D02*
X84990476Y-59725760D01*
X84990476Y-59725760D02*
X84952380Y-59649569D01*
X84952380Y-59649569D02*
X84952380Y-59573379D01*
X84952380Y-59573379D02*
X84990476Y-59497188D01*
X84990476Y-59497188D02*
X85066666Y-59459093D01*
X85066666Y-59459093D02*
X85257142Y-59459093D01*
X85257142Y-59459093D02*
X85333333Y-59420998D01*
D10*
X41729819Y-65531904D02*
X42539342Y-65531904D01*
X42539342Y-65531904D02*
X42634580Y-65484285D01*
X42634580Y-65484285D02*
X42682200Y-65436666D01*
X42682200Y-65436666D02*
X42729819Y-65341428D01*
X42729819Y-65341428D02*
X42729819Y-65150952D01*
X42729819Y-65150952D02*
X42682200Y-65055714D01*
X42682200Y-65055714D02*
X42634580Y-65008095D01*
X42634580Y-65008095D02*
X42539342Y-64960476D01*
X42539342Y-64960476D02*
X41729819Y-64960476D01*
X41729819Y-64579523D02*
X41729819Y-63960476D01*
X41729819Y-63960476D02*
X42110771Y-64293809D01*
X42110771Y-64293809D02*
X42110771Y-64150952D01*
X42110771Y-64150952D02*
X42158390Y-64055714D01*
X42158390Y-64055714D02*
X42206009Y-64008095D01*
X42206009Y-64008095D02*
X42301247Y-63960476D01*
X42301247Y-63960476D02*
X42539342Y-63960476D01*
X42539342Y-63960476D02*
X42634580Y-64008095D01*
X42634580Y-64008095D02*
X42682200Y-64055714D01*
X42682200Y-64055714D02*
X42729819Y-64150952D01*
X42729819Y-64150952D02*
X42729819Y-64436666D01*
X42729819Y-64436666D02*
X42682200Y-64531904D01*
X42682200Y-64531904D02*
X42634580Y-64579523D01*
X106019166Y-52954819D02*
X106019166Y-53669104D01*
X106019166Y-53669104D02*
X105971547Y-53811961D01*
X105971547Y-53811961D02*
X105876309Y-53907200D01*
X105876309Y-53907200D02*
X105733452Y-53954819D01*
X105733452Y-53954819D02*
X105638214Y-53954819D01*
X106447738Y-53050057D02*
X106495357Y-53002438D01*
X106495357Y-53002438D02*
X106590595Y-52954819D01*
X106590595Y-52954819D02*
X106828690Y-52954819D01*
X106828690Y-52954819D02*
X106923928Y-53002438D01*
X106923928Y-53002438D02*
X106971547Y-53050057D01*
X106971547Y-53050057D02*
X107019166Y-53145295D01*
X107019166Y-53145295D02*
X107019166Y-53240533D01*
X107019166Y-53240533D02*
X106971547Y-53383390D01*
X106971547Y-53383390D02*
X106400119Y-53954819D01*
X106400119Y-53954819D02*
X107019166Y-53954819D01*
X55407319Y-87121904D02*
X56216842Y-87121904D01*
X56216842Y-87121904D02*
X56312080Y-87074285D01*
X56312080Y-87074285D02*
X56359700Y-87026666D01*
X56359700Y-87026666D02*
X56407319Y-86931428D01*
X56407319Y-86931428D02*
X56407319Y-86740952D01*
X56407319Y-86740952D02*
X56359700Y-86645714D01*
X56359700Y-86645714D02*
X56312080Y-86598095D01*
X56312080Y-86598095D02*
X56216842Y-86550476D01*
X56216842Y-86550476D02*
X55407319Y-86550476D01*
X56407319Y-86026666D02*
X56407319Y-85836190D01*
X56407319Y-85836190D02*
X56359700Y-85740952D01*
X56359700Y-85740952D02*
X56312080Y-85693333D01*
X56312080Y-85693333D02*
X56169223Y-85598095D01*
X56169223Y-85598095D02*
X55978747Y-85550476D01*
X55978747Y-85550476D02*
X55597795Y-85550476D01*
X55597795Y-85550476D02*
X55502557Y-85598095D01*
X55502557Y-85598095D02*
X55454938Y-85645714D01*
X55454938Y-85645714D02*
X55407319Y-85740952D01*
X55407319Y-85740952D02*
X55407319Y-85931428D01*
X55407319Y-85931428D02*
X55454938Y-86026666D01*
X55454938Y-86026666D02*
X55502557Y-86074285D01*
X55502557Y-86074285D02*
X55597795Y-86121904D01*
X55597795Y-86121904D02*
X55835890Y-86121904D01*
X55835890Y-86121904D02*
X55931128Y-86074285D01*
X55931128Y-86074285D02*
X55978747Y-86026666D01*
X55978747Y-86026666D02*
X56026366Y-85931428D01*
X56026366Y-85931428D02*
X56026366Y-85740952D01*
X56026366Y-85740952D02*
X55978747Y-85645714D01*
X55978747Y-85645714D02*
X55931128Y-85598095D01*
X55931128Y-85598095D02*
X55835890Y-85550476D01*
D11*
X78090475Y-46463855D02*
X78280951Y-47263855D01*
X78280951Y-47263855D02*
X78433332Y-46692426D01*
X78433332Y-46692426D02*
X78585713Y-47263855D01*
X78585713Y-47263855D02*
X78776190Y-46463855D01*
X79461904Y-47263855D02*
X79080952Y-47263855D01*
X79080952Y-47263855D02*
X79080952Y-46463855D01*
X80147618Y-47263855D02*
X79690475Y-47263855D01*
X79919047Y-47263855D02*
X79919047Y-46463855D01*
X79919047Y-46463855D02*
X79842856Y-46578140D01*
X79842856Y-46578140D02*
X79766666Y-46654331D01*
X79766666Y-46654331D02*
X79690475Y-46692426D01*
X80833333Y-47263855D02*
X80833333Y-46844807D01*
X80833333Y-46844807D02*
X80795238Y-46768617D01*
X80795238Y-46768617D02*
X80719047Y-46730521D01*
X80719047Y-46730521D02*
X80566666Y-46730521D01*
X80566666Y-46730521D02*
X80490476Y-46768617D01*
X80833333Y-47225760D02*
X80757142Y-47263855D01*
X80757142Y-47263855D02*
X80566666Y-47263855D01*
X80566666Y-47263855D02*
X80490476Y-47225760D01*
X80490476Y-47225760D02*
X80452380Y-47149569D01*
X80452380Y-47149569D02*
X80452380Y-47073379D01*
X80452380Y-47073379D02*
X80490476Y-46997188D01*
X80490476Y-46997188D02*
X80566666Y-46959093D01*
X80566666Y-46959093D02*
X80757142Y-46959093D01*
X80757142Y-46959093D02*
X80833333Y-46920998D01*
D10*
X80609642Y-62629580D02*
X80562023Y-62677200D01*
X80562023Y-62677200D02*
X80419166Y-62724819D01*
X80419166Y-62724819D02*
X80323928Y-62724819D01*
X80323928Y-62724819D02*
X80181071Y-62677200D01*
X80181071Y-62677200D02*
X80085833Y-62581961D01*
X80085833Y-62581961D02*
X80038214Y-62486723D01*
X80038214Y-62486723D02*
X79990595Y-62296247D01*
X79990595Y-62296247D02*
X79990595Y-62153390D01*
X79990595Y-62153390D02*
X80038214Y-61962914D01*
X80038214Y-61962914D02*
X80085833Y-61867676D01*
X80085833Y-61867676D02*
X80181071Y-61772438D01*
X80181071Y-61772438D02*
X80323928Y-61724819D01*
X80323928Y-61724819D02*
X80419166Y-61724819D01*
X80419166Y-61724819D02*
X80562023Y-61772438D01*
X80562023Y-61772438D02*
X80609642Y-61820057D01*
X81562023Y-62724819D02*
X80990595Y-62724819D01*
X81276309Y-62724819D02*
X81276309Y-61724819D01*
X81276309Y-61724819D02*
X81181071Y-61867676D01*
X81181071Y-61867676D02*
X81085833Y-61962914D01*
X81085833Y-61962914D02*
X80990595Y-62010533D01*
X82466785Y-61724819D02*
X81990595Y-61724819D01*
X81990595Y-61724819D02*
X81942976Y-62201009D01*
X81942976Y-62201009D02*
X81990595Y-62153390D01*
X81990595Y-62153390D02*
X82085833Y-62105771D01*
X82085833Y-62105771D02*
X82323928Y-62105771D01*
X82323928Y-62105771D02*
X82419166Y-62153390D01*
X82419166Y-62153390D02*
X82466785Y-62201009D01*
X82466785Y-62201009D02*
X82514404Y-62296247D01*
X82514404Y-62296247D02*
X82514404Y-62534342D01*
X82514404Y-62534342D02*
X82466785Y-62629580D01*
X82466785Y-62629580D02*
X82419166Y-62677200D01*
X82419166Y-62677200D02*
X82323928Y-62724819D01*
X82323928Y-62724819D02*
X82085833Y-62724819D01*
X82085833Y-62724819D02*
X81990595Y-62677200D01*
X81990595Y-62677200D02*
X81942976Y-62629580D01*
D11*
X68090475Y-50463855D02*
X68280951Y-51263855D01*
X68280951Y-51263855D02*
X68433332Y-50692426D01*
X68433332Y-50692426D02*
X68585713Y-51263855D01*
X68585713Y-51263855D02*
X68776190Y-50463855D01*
X69461904Y-51263855D02*
X69080952Y-51263855D01*
X69080952Y-51263855D02*
X69080952Y-50463855D01*
X69652380Y-50463855D02*
X70185714Y-50463855D01*
X70185714Y-50463855D02*
X69842856Y-51263855D01*
X70490476Y-51263855D02*
X70490476Y-50463855D01*
X70490476Y-50768617D02*
X70566666Y-50730521D01*
X70566666Y-50730521D02*
X70719047Y-50730521D01*
X70719047Y-50730521D02*
X70795238Y-50768617D01*
X70795238Y-50768617D02*
X70833333Y-50806712D01*
X70833333Y-50806712D02*
X70871428Y-50882902D01*
X70871428Y-50882902D02*
X70871428Y-51111474D01*
X70871428Y-51111474D02*
X70833333Y-51187664D01*
X70833333Y-51187664D02*
X70795238Y-51225760D01*
X70795238Y-51225760D02*
X70719047Y-51263855D01*
X70719047Y-51263855D02*
X70566666Y-51263855D01*
X70566666Y-51263855D02*
X70490476Y-51225760D01*
X70090475Y-33963855D02*
X70280951Y-34763855D01*
X70280951Y-34763855D02*
X70433332Y-34192426D01*
X70433332Y-34192426D02*
X70585713Y-34763855D01*
X70585713Y-34763855D02*
X70776190Y-33963855D01*
X71461904Y-34763855D02*
X71080952Y-34763855D01*
X71080952Y-34763855D02*
X71080952Y-33963855D01*
X72147618Y-34763855D02*
X71690475Y-34763855D01*
X71919047Y-34763855D02*
X71919047Y-33963855D01*
X71919047Y-33963855D02*
X71842856Y-34078140D01*
X71842856Y-34078140D02*
X71766666Y-34154331D01*
X71766666Y-34154331D02*
X71690475Y-34192426D01*
X72490476Y-34763855D02*
X72490476Y-33963855D01*
X72490476Y-34268617D02*
X72566666Y-34230521D01*
X72566666Y-34230521D02*
X72719047Y-34230521D01*
X72719047Y-34230521D02*
X72795238Y-34268617D01*
X72795238Y-34268617D02*
X72833333Y-34306712D01*
X72833333Y-34306712D02*
X72871428Y-34382902D01*
X72871428Y-34382902D02*
X72871428Y-34611474D01*
X72871428Y-34611474D02*
X72833333Y-34687664D01*
X72833333Y-34687664D02*
X72795238Y-34725760D01*
X72795238Y-34725760D02*
X72719047Y-34763855D01*
X72719047Y-34763855D02*
X72566666Y-34763855D01*
X72566666Y-34763855D02*
X72490476Y-34725760D01*
X58590475Y-40463855D02*
X58780951Y-41263855D01*
X58780951Y-41263855D02*
X58933332Y-40692426D01*
X58933332Y-40692426D02*
X59085713Y-41263855D01*
X59085713Y-41263855D02*
X59276190Y-40463855D01*
X59961904Y-41263855D02*
X59580952Y-41263855D01*
X59580952Y-41263855D02*
X59580952Y-40463855D01*
X60266666Y-41263855D02*
X60419047Y-41263855D01*
X60419047Y-41263855D02*
X60495237Y-41225760D01*
X60495237Y-41225760D02*
X60533333Y-41187664D01*
X60533333Y-41187664D02*
X60609523Y-41073379D01*
X60609523Y-41073379D02*
X60647618Y-40920998D01*
X60647618Y-40920998D02*
X60647618Y-40616236D01*
X60647618Y-40616236D02*
X60609523Y-40540045D01*
X60609523Y-40540045D02*
X60571428Y-40501950D01*
X60571428Y-40501950D02*
X60495237Y-40463855D01*
X60495237Y-40463855D02*
X60342856Y-40463855D01*
X60342856Y-40463855D02*
X60266666Y-40501950D01*
X60266666Y-40501950D02*
X60228571Y-40540045D01*
X60228571Y-40540045D02*
X60190475Y-40616236D01*
X60190475Y-40616236D02*
X60190475Y-40806712D01*
X60190475Y-40806712D02*
X60228571Y-40882902D01*
X60228571Y-40882902D02*
X60266666Y-40920998D01*
X60266666Y-40920998D02*
X60342856Y-40959093D01*
X60342856Y-40959093D02*
X60495237Y-40959093D01*
X60495237Y-40959093D02*
X60571428Y-40920998D01*
X60571428Y-40920998D02*
X60609523Y-40882902D01*
X60609523Y-40882902D02*
X60647618Y-40806712D01*
X60990476Y-41263855D02*
X60990476Y-40463855D01*
X60990476Y-40768617D02*
X61066666Y-40730521D01*
X61066666Y-40730521D02*
X61219047Y-40730521D01*
X61219047Y-40730521D02*
X61295238Y-40768617D01*
X61295238Y-40768617D02*
X61333333Y-40806712D01*
X61333333Y-40806712D02*
X61371428Y-40882902D01*
X61371428Y-40882902D02*
X61371428Y-41111474D01*
X61371428Y-41111474D02*
X61333333Y-41187664D01*
X61333333Y-41187664D02*
X61295238Y-41225760D01*
X61295238Y-41225760D02*
X61219047Y-41263855D01*
X61219047Y-41263855D02*
X61066666Y-41263855D01*
X61066666Y-41263855D02*
X60990476Y-41225760D01*
X109590475Y-65963855D02*
X109780951Y-66763855D01*
X109780951Y-66763855D02*
X109933332Y-66192426D01*
X109933332Y-66192426D02*
X110085713Y-66763855D01*
X110085713Y-66763855D02*
X110276190Y-65963855D01*
X110961904Y-66763855D02*
X110580952Y-66763855D01*
X110580952Y-66763855D02*
X110580952Y-65963855D01*
X111342856Y-66306712D02*
X111266666Y-66268617D01*
X111266666Y-66268617D02*
X111228571Y-66230521D01*
X111228571Y-66230521D02*
X111190475Y-66154331D01*
X111190475Y-66154331D02*
X111190475Y-66116236D01*
X111190475Y-66116236D02*
X111228571Y-66040045D01*
X111228571Y-66040045D02*
X111266666Y-66001950D01*
X111266666Y-66001950D02*
X111342856Y-65963855D01*
X111342856Y-65963855D02*
X111495237Y-65963855D01*
X111495237Y-65963855D02*
X111571428Y-66001950D01*
X111571428Y-66001950D02*
X111609523Y-66040045D01*
X111609523Y-66040045D02*
X111647618Y-66116236D01*
X111647618Y-66116236D02*
X111647618Y-66154331D01*
X111647618Y-66154331D02*
X111609523Y-66230521D01*
X111609523Y-66230521D02*
X111571428Y-66268617D01*
X111571428Y-66268617D02*
X111495237Y-66306712D01*
X111495237Y-66306712D02*
X111342856Y-66306712D01*
X111342856Y-66306712D02*
X111266666Y-66344807D01*
X111266666Y-66344807D02*
X111228571Y-66382902D01*
X111228571Y-66382902D02*
X111190475Y-66459093D01*
X111190475Y-66459093D02*
X111190475Y-66611474D01*
X111190475Y-66611474D02*
X111228571Y-66687664D01*
X111228571Y-66687664D02*
X111266666Y-66725760D01*
X111266666Y-66725760D02*
X111342856Y-66763855D01*
X111342856Y-66763855D02*
X111495237Y-66763855D01*
X111495237Y-66763855D02*
X111571428Y-66725760D01*
X111571428Y-66725760D02*
X111609523Y-66687664D01*
X111609523Y-66687664D02*
X111647618Y-66611474D01*
X111647618Y-66611474D02*
X111647618Y-66459093D01*
X111647618Y-66459093D02*
X111609523Y-66382902D01*
X111609523Y-66382902D02*
X111571428Y-66344807D01*
X111571428Y-66344807D02*
X111495237Y-66306712D01*
X111990476Y-66763855D02*
X111990476Y-65963855D01*
X111990476Y-66268617D02*
X112066666Y-66230521D01*
X112066666Y-66230521D02*
X112219047Y-66230521D01*
X112219047Y-66230521D02*
X112295238Y-66268617D01*
X112295238Y-66268617D02*
X112333333Y-66306712D01*
X112333333Y-66306712D02*
X112371428Y-66382902D01*
X112371428Y-66382902D02*
X112371428Y-66611474D01*
X112371428Y-66611474D02*
X112333333Y-66687664D01*
X112333333Y-66687664D02*
X112295238Y-66725760D01*
X112295238Y-66725760D02*
X112219047Y-66763855D01*
X112219047Y-66763855D02*
X112066666Y-66763855D01*
X112066666Y-66763855D02*
X111990476Y-66725760D01*
D10*
X25238095Y-110304819D02*
X25238095Y-109304819D01*
X25238095Y-109781009D02*
X25809523Y-109781009D01*
X25809523Y-110304819D02*
X25809523Y-109304819D01*
X26190476Y-109304819D02*
X26809523Y-109304819D01*
X26809523Y-109304819D02*
X26476190Y-109685771D01*
X26476190Y-109685771D02*
X26619047Y-109685771D01*
X26619047Y-109685771D02*
X26714285Y-109733390D01*
X26714285Y-109733390D02*
X26761904Y-109781009D01*
X26761904Y-109781009D02*
X26809523Y-109876247D01*
X26809523Y-109876247D02*
X26809523Y-110114342D01*
X26809523Y-110114342D02*
X26761904Y-110209580D01*
X26761904Y-110209580D02*
X26714285Y-110257200D01*
X26714285Y-110257200D02*
X26619047Y-110304819D01*
X26619047Y-110304819D02*
X26333333Y-110304819D01*
X26333333Y-110304819D02*
X26238095Y-110257200D01*
X26238095Y-110257200D02*
X26190476Y-110209580D01*
X25238095Y-22304819D02*
X25238095Y-21304819D01*
X25238095Y-21781009D02*
X25809523Y-21781009D01*
X25809523Y-22304819D02*
X25809523Y-21304819D01*
X26809523Y-22304819D02*
X26238095Y-22304819D01*
X26523809Y-22304819D02*
X26523809Y-21304819D01*
X26523809Y-21304819D02*
X26428571Y-21447676D01*
X26428571Y-21447676D02*
X26333333Y-21542914D01*
X26333333Y-21542914D02*
X26238095Y-21590533D01*
X68117142Y-98189580D02*
X68069523Y-98237200D01*
X68069523Y-98237200D02*
X67926666Y-98284819D01*
X67926666Y-98284819D02*
X67831428Y-98284819D01*
X67831428Y-98284819D02*
X67688571Y-98237200D01*
X67688571Y-98237200D02*
X67593333Y-98141961D01*
X67593333Y-98141961D02*
X67545714Y-98046723D01*
X67545714Y-98046723D02*
X67498095Y-97856247D01*
X67498095Y-97856247D02*
X67498095Y-97713390D01*
X67498095Y-97713390D02*
X67545714Y-97522914D01*
X67545714Y-97522914D02*
X67593333Y-97427676D01*
X67593333Y-97427676D02*
X67688571Y-97332438D01*
X67688571Y-97332438D02*
X67831428Y-97284819D01*
X67831428Y-97284819D02*
X67926666Y-97284819D01*
X67926666Y-97284819D02*
X68069523Y-97332438D01*
X68069523Y-97332438D02*
X68117142Y-97380057D01*
X69069523Y-98284819D02*
X68498095Y-98284819D01*
X68783809Y-98284819D02*
X68783809Y-97284819D01*
X68783809Y-97284819D02*
X68688571Y-97427676D01*
X68688571Y-97427676D02*
X68593333Y-97522914D01*
X68593333Y-97522914D02*
X68498095Y-97570533D01*
X69402857Y-97284819D02*
X70069523Y-97284819D01*
X70069523Y-97284819D02*
X69640952Y-98284819D01*
D11*
X40590475Y-32963855D02*
X40780951Y-33763855D01*
X40780951Y-33763855D02*
X40933332Y-33192426D01*
X40933332Y-33192426D02*
X41085713Y-33763855D01*
X41085713Y-33763855D02*
X41276190Y-32963855D01*
X41961904Y-33763855D02*
X41580952Y-33763855D01*
X41580952Y-33763855D02*
X41580952Y-32963855D01*
X42152380Y-32963855D02*
X42647618Y-32963855D01*
X42647618Y-32963855D02*
X42380952Y-33268617D01*
X42380952Y-33268617D02*
X42495237Y-33268617D01*
X42495237Y-33268617D02*
X42571428Y-33306712D01*
X42571428Y-33306712D02*
X42609523Y-33344807D01*
X42609523Y-33344807D02*
X42647618Y-33420998D01*
X42647618Y-33420998D02*
X42647618Y-33611474D01*
X42647618Y-33611474D02*
X42609523Y-33687664D01*
X42609523Y-33687664D02*
X42571428Y-33725760D01*
X42571428Y-33725760D02*
X42495237Y-33763855D01*
X42495237Y-33763855D02*
X42266666Y-33763855D01*
X42266666Y-33763855D02*
X42190475Y-33725760D01*
X42190475Y-33725760D02*
X42152380Y-33687664D01*
X43333333Y-33763855D02*
X43333333Y-33344807D01*
X43333333Y-33344807D02*
X43295238Y-33268617D01*
X43295238Y-33268617D02*
X43219047Y-33230521D01*
X43219047Y-33230521D02*
X43066666Y-33230521D01*
X43066666Y-33230521D02*
X42990476Y-33268617D01*
X43333333Y-33725760D02*
X43257142Y-33763855D01*
X43257142Y-33763855D02*
X43066666Y-33763855D01*
X43066666Y-33763855D02*
X42990476Y-33725760D01*
X42990476Y-33725760D02*
X42952380Y-33649569D01*
X42952380Y-33649569D02*
X42952380Y-33573379D01*
X42952380Y-33573379D02*
X42990476Y-33497188D01*
X42990476Y-33497188D02*
X43066666Y-33459093D01*
X43066666Y-33459093D02*
X43257142Y-33459093D01*
X43257142Y-33459093D02*
X43333333Y-33420998D01*
X82590475Y-72463855D02*
X82780951Y-73263855D01*
X82780951Y-73263855D02*
X82933332Y-72692426D01*
X82933332Y-72692426D02*
X83085713Y-73263855D01*
X83085713Y-73263855D02*
X83276190Y-72463855D01*
X83961904Y-73263855D02*
X83580952Y-73263855D01*
X83580952Y-73263855D02*
X83580952Y-72463855D01*
X84571428Y-72463855D02*
X84419047Y-72463855D01*
X84419047Y-72463855D02*
X84342856Y-72501950D01*
X84342856Y-72501950D02*
X84304761Y-72540045D01*
X84304761Y-72540045D02*
X84228571Y-72654331D01*
X84228571Y-72654331D02*
X84190475Y-72806712D01*
X84190475Y-72806712D02*
X84190475Y-73111474D01*
X84190475Y-73111474D02*
X84228571Y-73187664D01*
X84228571Y-73187664D02*
X84266666Y-73225760D01*
X84266666Y-73225760D02*
X84342856Y-73263855D01*
X84342856Y-73263855D02*
X84495237Y-73263855D01*
X84495237Y-73263855D02*
X84571428Y-73225760D01*
X84571428Y-73225760D02*
X84609523Y-73187664D01*
X84609523Y-73187664D02*
X84647618Y-73111474D01*
X84647618Y-73111474D02*
X84647618Y-72920998D01*
X84647618Y-72920998D02*
X84609523Y-72844807D01*
X84609523Y-72844807D02*
X84571428Y-72806712D01*
X84571428Y-72806712D02*
X84495237Y-72768617D01*
X84495237Y-72768617D02*
X84342856Y-72768617D01*
X84342856Y-72768617D02*
X84266666Y-72806712D01*
X84266666Y-72806712D02*
X84228571Y-72844807D01*
X84228571Y-72844807D02*
X84190475Y-72920998D01*
X84990476Y-73263855D02*
X84990476Y-72463855D01*
X84990476Y-72768617D02*
X85066666Y-72730521D01*
X85066666Y-72730521D02*
X85219047Y-72730521D01*
X85219047Y-72730521D02*
X85295238Y-72768617D01*
X85295238Y-72768617D02*
X85333333Y-72806712D01*
X85333333Y-72806712D02*
X85371428Y-72882902D01*
X85371428Y-72882902D02*
X85371428Y-73111474D01*
X85371428Y-73111474D02*
X85333333Y-73187664D01*
X85333333Y-73187664D02*
X85295238Y-73225760D01*
X85295238Y-73225760D02*
X85219047Y-73263855D01*
X85219047Y-73263855D02*
X85066666Y-73263855D01*
X85066666Y-73263855D02*
X84990476Y-73225760D01*
D10*
X87808095Y-28874819D02*
X87808095Y-29684342D01*
X87808095Y-29684342D02*
X87855714Y-29779580D01*
X87855714Y-29779580D02*
X87903333Y-29827200D01*
X87903333Y-29827200D02*
X87998571Y-29874819D01*
X87998571Y-29874819D02*
X88189047Y-29874819D01*
X88189047Y-29874819D02*
X88284285Y-29827200D01*
X88284285Y-29827200D02*
X88331904Y-29779580D01*
X88331904Y-29779580D02*
X88379523Y-29684342D01*
X88379523Y-29684342D02*
X88379523Y-28874819D01*
X89284285Y-29208152D02*
X89284285Y-29874819D01*
X89046190Y-28827200D02*
X88808095Y-29541485D01*
X88808095Y-29541485D02*
X89427142Y-29541485D01*
X74072142Y-106034819D02*
X73738809Y-105558628D01*
X73500714Y-106034819D02*
X73500714Y-105034819D01*
X73500714Y-105034819D02*
X73881666Y-105034819D01*
X73881666Y-105034819D02*
X73976904Y-105082438D01*
X73976904Y-105082438D02*
X74024523Y-105130057D01*
X74024523Y-105130057D02*
X74072142Y-105225295D01*
X74072142Y-105225295D02*
X74072142Y-105368152D01*
X74072142Y-105368152D02*
X74024523Y-105463390D01*
X74024523Y-105463390D02*
X73976904Y-105511009D01*
X73976904Y-105511009D02*
X73881666Y-105558628D01*
X73881666Y-105558628D02*
X73500714Y-105558628D01*
X75024523Y-106034819D02*
X74453095Y-106034819D01*
X74738809Y-106034819D02*
X74738809Y-105034819D01*
X74738809Y-105034819D02*
X74643571Y-105177676D01*
X74643571Y-105177676D02*
X74548333Y-105272914D01*
X74548333Y-105272914D02*
X74453095Y-105320533D01*
X75643571Y-105034819D02*
X75738809Y-105034819D01*
X75738809Y-105034819D02*
X75834047Y-105082438D01*
X75834047Y-105082438D02*
X75881666Y-105130057D01*
X75881666Y-105130057D02*
X75929285Y-105225295D01*
X75929285Y-105225295D02*
X75976904Y-105415771D01*
X75976904Y-105415771D02*
X75976904Y-105653866D01*
X75976904Y-105653866D02*
X75929285Y-105844342D01*
X75929285Y-105844342D02*
X75881666Y-105939580D01*
X75881666Y-105939580D02*
X75834047Y-105987200D01*
X75834047Y-105987200D02*
X75738809Y-106034819D01*
X75738809Y-106034819D02*
X75643571Y-106034819D01*
X75643571Y-106034819D02*
X75548333Y-105987200D01*
X75548333Y-105987200D02*
X75500714Y-105939580D01*
X75500714Y-105939580D02*
X75453095Y-105844342D01*
X75453095Y-105844342D02*
X75405476Y-105653866D01*
X75405476Y-105653866D02*
X75405476Y-105415771D01*
X75405476Y-105415771D02*
X75453095Y-105225295D01*
X75453095Y-105225295D02*
X75500714Y-105130057D01*
X75500714Y-105130057D02*
X75548333Y-105082438D01*
X75548333Y-105082438D02*
X75643571Y-105034819D01*
D11*
X96090475Y-44463855D02*
X96280951Y-45263855D01*
X96280951Y-45263855D02*
X96433332Y-44692426D01*
X96433332Y-44692426D02*
X96585713Y-45263855D01*
X96585713Y-45263855D02*
X96776190Y-44463855D01*
X97461904Y-45263855D02*
X97080952Y-45263855D01*
X97080952Y-45263855D02*
X97080952Y-44463855D01*
X97690475Y-44540045D02*
X97728571Y-44501950D01*
X97728571Y-44501950D02*
X97804761Y-44463855D01*
X97804761Y-44463855D02*
X97995237Y-44463855D01*
X97995237Y-44463855D02*
X98071428Y-44501950D01*
X98071428Y-44501950D02*
X98109523Y-44540045D01*
X98109523Y-44540045D02*
X98147618Y-44616236D01*
X98147618Y-44616236D02*
X98147618Y-44692426D01*
X98147618Y-44692426D02*
X98109523Y-44806712D01*
X98109523Y-44806712D02*
X97652380Y-45263855D01*
X97652380Y-45263855D02*
X98147618Y-45263855D01*
X98833333Y-45263855D02*
X98833333Y-44844807D01*
X98833333Y-44844807D02*
X98795238Y-44768617D01*
X98795238Y-44768617D02*
X98719047Y-44730521D01*
X98719047Y-44730521D02*
X98566666Y-44730521D01*
X98566666Y-44730521D02*
X98490476Y-44768617D01*
X98833333Y-45225760D02*
X98757142Y-45263855D01*
X98757142Y-45263855D02*
X98566666Y-45263855D01*
X98566666Y-45263855D02*
X98490476Y-45225760D01*
X98490476Y-45225760D02*
X98452380Y-45149569D01*
X98452380Y-45149569D02*
X98452380Y-45073379D01*
X98452380Y-45073379D02*
X98490476Y-44997188D01*
X98490476Y-44997188D02*
X98566666Y-44959093D01*
X98566666Y-44959093D02*
X98757142Y-44959093D01*
X98757142Y-44959093D02*
X98833333Y-44920998D01*
X98090475Y-65963855D02*
X98280951Y-66763855D01*
X98280951Y-66763855D02*
X98433332Y-66192426D01*
X98433332Y-66192426D02*
X98585713Y-66763855D01*
X98585713Y-66763855D02*
X98776190Y-65963855D01*
X99461904Y-66763855D02*
X99080952Y-66763855D01*
X99080952Y-66763855D02*
X99080952Y-65963855D01*
X99652380Y-65963855D02*
X100147618Y-65963855D01*
X100147618Y-65963855D02*
X99880952Y-66268617D01*
X99880952Y-66268617D02*
X99995237Y-66268617D01*
X99995237Y-66268617D02*
X100071428Y-66306712D01*
X100071428Y-66306712D02*
X100109523Y-66344807D01*
X100109523Y-66344807D02*
X100147618Y-66420998D01*
X100147618Y-66420998D02*
X100147618Y-66611474D01*
X100147618Y-66611474D02*
X100109523Y-66687664D01*
X100109523Y-66687664D02*
X100071428Y-66725760D01*
X100071428Y-66725760D02*
X99995237Y-66763855D01*
X99995237Y-66763855D02*
X99766666Y-66763855D01*
X99766666Y-66763855D02*
X99690475Y-66725760D01*
X99690475Y-66725760D02*
X99652380Y-66687664D01*
X100490476Y-66763855D02*
X100490476Y-65963855D01*
X100490476Y-66268617D02*
X100566666Y-66230521D01*
X100566666Y-66230521D02*
X100719047Y-66230521D01*
X100719047Y-66230521D02*
X100795238Y-66268617D01*
X100795238Y-66268617D02*
X100833333Y-66306712D01*
X100833333Y-66306712D02*
X100871428Y-66382902D01*
X100871428Y-66382902D02*
X100871428Y-66611474D01*
X100871428Y-66611474D02*
X100833333Y-66687664D01*
X100833333Y-66687664D02*
X100795238Y-66725760D01*
X100795238Y-66725760D02*
X100719047Y-66763855D01*
X100719047Y-66763855D02*
X100566666Y-66763855D01*
X100566666Y-66763855D02*
X100490476Y-66725760D01*
D10*
X66912142Y-62629580D02*
X66864523Y-62677200D01*
X66864523Y-62677200D02*
X66721666Y-62724819D01*
X66721666Y-62724819D02*
X66626428Y-62724819D01*
X66626428Y-62724819D02*
X66483571Y-62677200D01*
X66483571Y-62677200D02*
X66388333Y-62581961D01*
X66388333Y-62581961D02*
X66340714Y-62486723D01*
X66340714Y-62486723D02*
X66293095Y-62296247D01*
X66293095Y-62296247D02*
X66293095Y-62153390D01*
X66293095Y-62153390D02*
X66340714Y-61962914D01*
X66340714Y-61962914D02*
X66388333Y-61867676D01*
X66388333Y-61867676D02*
X66483571Y-61772438D01*
X66483571Y-61772438D02*
X66626428Y-61724819D01*
X66626428Y-61724819D02*
X66721666Y-61724819D01*
X66721666Y-61724819D02*
X66864523Y-61772438D01*
X66864523Y-61772438D02*
X66912142Y-61820057D01*
X67864523Y-62724819D02*
X67293095Y-62724819D01*
X67578809Y-62724819D02*
X67578809Y-61724819D01*
X67578809Y-61724819D02*
X67483571Y-61867676D01*
X67483571Y-61867676D02*
X67388333Y-61962914D01*
X67388333Y-61962914D02*
X67293095Y-62010533D01*
X68483571Y-61724819D02*
X68578809Y-61724819D01*
X68578809Y-61724819D02*
X68674047Y-61772438D01*
X68674047Y-61772438D02*
X68721666Y-61820057D01*
X68721666Y-61820057D02*
X68769285Y-61915295D01*
X68769285Y-61915295D02*
X68816904Y-62105771D01*
X68816904Y-62105771D02*
X68816904Y-62343866D01*
X68816904Y-62343866D02*
X68769285Y-62534342D01*
X68769285Y-62534342D02*
X68721666Y-62629580D01*
X68721666Y-62629580D02*
X68674047Y-62677200D01*
X68674047Y-62677200D02*
X68578809Y-62724819D01*
X68578809Y-62724819D02*
X68483571Y-62724819D01*
X68483571Y-62724819D02*
X68388333Y-62677200D01*
X68388333Y-62677200D02*
X68340714Y-62629580D01*
X68340714Y-62629580D02*
X68293095Y-62534342D01*
X68293095Y-62534342D02*
X68245476Y-62343866D01*
X68245476Y-62343866D02*
X68245476Y-62105771D01*
X68245476Y-62105771D02*
X68293095Y-61915295D01*
X68293095Y-61915295D02*
X68340714Y-61820057D01*
X68340714Y-61820057D02*
X68388333Y-61772438D01*
X68388333Y-61772438D02*
X68483571Y-61724819D01*
X99367142Y-38499580D02*
X99319523Y-38547200D01*
X99319523Y-38547200D02*
X99176666Y-38594819D01*
X99176666Y-38594819D02*
X99081428Y-38594819D01*
X99081428Y-38594819D02*
X98938571Y-38547200D01*
X98938571Y-38547200D02*
X98843333Y-38451961D01*
X98843333Y-38451961D02*
X98795714Y-38356723D01*
X98795714Y-38356723D02*
X98748095Y-38166247D01*
X98748095Y-38166247D02*
X98748095Y-38023390D01*
X98748095Y-38023390D02*
X98795714Y-37832914D01*
X98795714Y-37832914D02*
X98843333Y-37737676D01*
X98843333Y-37737676D02*
X98938571Y-37642438D01*
X98938571Y-37642438D02*
X99081428Y-37594819D01*
X99081428Y-37594819D02*
X99176666Y-37594819D01*
X99176666Y-37594819D02*
X99319523Y-37642438D01*
X99319523Y-37642438D02*
X99367142Y-37690057D01*
X100319523Y-38594819D02*
X99748095Y-38594819D01*
X100033809Y-38594819D02*
X100033809Y-37594819D01*
X100033809Y-37594819D02*
X99938571Y-37737676D01*
X99938571Y-37737676D02*
X99843333Y-37832914D01*
X99843333Y-37832914D02*
X99748095Y-37880533D01*
X101271904Y-38594819D02*
X100700476Y-38594819D01*
X100986190Y-38594819D02*
X100986190Y-37594819D01*
X100986190Y-37594819D02*
X100890952Y-37737676D01*
X100890952Y-37737676D02*
X100795714Y-37832914D01*
X100795714Y-37832914D02*
X100700476Y-37880533D01*
X80413809Y-96788628D02*
X80413809Y-97264819D01*
X80080476Y-96264819D02*
X80413809Y-96788628D01*
X80413809Y-96788628D02*
X80747142Y-96264819D01*
X81604285Y-97264819D02*
X81032857Y-97264819D01*
X81318571Y-97264819D02*
X81318571Y-96264819D01*
X81318571Y-96264819D02*
X81223333Y-96407676D01*
X81223333Y-96407676D02*
X81128095Y-96502914D01*
X81128095Y-96502914D02*
X81032857Y-96550533D01*
D11*
X41590475Y-28963855D02*
X41780951Y-29763855D01*
X41780951Y-29763855D02*
X41933332Y-29192426D01*
X41933332Y-29192426D02*
X42085713Y-29763855D01*
X42085713Y-29763855D02*
X42276190Y-28963855D01*
X42961904Y-29763855D02*
X42580952Y-29763855D01*
X42580952Y-29763855D02*
X42580952Y-28963855D01*
X43571428Y-29230521D02*
X43571428Y-29763855D01*
X43380952Y-28925760D02*
X43190475Y-29497188D01*
X43190475Y-29497188D02*
X43685714Y-29497188D01*
X43990476Y-29763855D02*
X43990476Y-28963855D01*
X43990476Y-29268617D02*
X44066666Y-29230521D01*
X44066666Y-29230521D02*
X44219047Y-29230521D01*
X44219047Y-29230521D02*
X44295238Y-29268617D01*
X44295238Y-29268617D02*
X44333333Y-29306712D01*
X44333333Y-29306712D02*
X44371428Y-29382902D01*
X44371428Y-29382902D02*
X44371428Y-29611474D01*
X44371428Y-29611474D02*
X44333333Y-29687664D01*
X44333333Y-29687664D02*
X44295238Y-29725760D01*
X44295238Y-29725760D02*
X44219047Y-29763855D01*
X44219047Y-29763855D02*
X44066666Y-29763855D01*
X44066666Y-29763855D02*
X43990476Y-29725760D01*
X54590475Y-71463855D02*
X54780951Y-72263855D01*
X54780951Y-72263855D02*
X54933332Y-71692426D01*
X54933332Y-71692426D02*
X55085713Y-72263855D01*
X55085713Y-72263855D02*
X55276190Y-71463855D01*
X55961904Y-72263855D02*
X55580952Y-72263855D01*
X55580952Y-72263855D02*
X55580952Y-71463855D01*
X56190475Y-71540045D02*
X56228571Y-71501950D01*
X56228571Y-71501950D02*
X56304761Y-71463855D01*
X56304761Y-71463855D02*
X56495237Y-71463855D01*
X56495237Y-71463855D02*
X56571428Y-71501950D01*
X56571428Y-71501950D02*
X56609523Y-71540045D01*
X56609523Y-71540045D02*
X56647618Y-71616236D01*
X56647618Y-71616236D02*
X56647618Y-71692426D01*
X56647618Y-71692426D02*
X56609523Y-71806712D01*
X56609523Y-71806712D02*
X56152380Y-72263855D01*
X56152380Y-72263855D02*
X56647618Y-72263855D01*
X56990476Y-72263855D02*
X56990476Y-71463855D01*
X56990476Y-71768617D02*
X57066666Y-71730521D01*
X57066666Y-71730521D02*
X57219047Y-71730521D01*
X57219047Y-71730521D02*
X57295238Y-71768617D01*
X57295238Y-71768617D02*
X57333333Y-71806712D01*
X57333333Y-71806712D02*
X57371428Y-71882902D01*
X57371428Y-71882902D02*
X57371428Y-72111474D01*
X57371428Y-72111474D02*
X57333333Y-72187664D01*
X57333333Y-72187664D02*
X57295238Y-72225760D01*
X57295238Y-72225760D02*
X57219047Y-72263855D01*
X57219047Y-72263855D02*
X57066666Y-72263855D01*
X57066666Y-72263855D02*
X56990476Y-72225760D01*
X109590475Y-58463855D02*
X109780951Y-59263855D01*
X109780951Y-59263855D02*
X109933332Y-58692426D01*
X109933332Y-58692426D02*
X110085713Y-59263855D01*
X110085713Y-59263855D02*
X110276190Y-58463855D01*
X110961904Y-59263855D02*
X110580952Y-59263855D01*
X110580952Y-59263855D02*
X110580952Y-58463855D01*
X111609523Y-58463855D02*
X111228571Y-58463855D01*
X111228571Y-58463855D02*
X111190475Y-58844807D01*
X111190475Y-58844807D02*
X111228571Y-58806712D01*
X111228571Y-58806712D02*
X111304761Y-58768617D01*
X111304761Y-58768617D02*
X111495237Y-58768617D01*
X111495237Y-58768617D02*
X111571428Y-58806712D01*
X111571428Y-58806712D02*
X111609523Y-58844807D01*
X111609523Y-58844807D02*
X111647618Y-58920998D01*
X111647618Y-58920998D02*
X111647618Y-59111474D01*
X111647618Y-59111474D02*
X111609523Y-59187664D01*
X111609523Y-59187664D02*
X111571428Y-59225760D01*
X111571428Y-59225760D02*
X111495237Y-59263855D01*
X111495237Y-59263855D02*
X111304761Y-59263855D01*
X111304761Y-59263855D02*
X111228571Y-59225760D01*
X111228571Y-59225760D02*
X111190475Y-59187664D01*
X111990476Y-59263855D02*
X111990476Y-58463855D01*
X111990476Y-58768617D02*
X112066666Y-58730521D01*
X112066666Y-58730521D02*
X112219047Y-58730521D01*
X112219047Y-58730521D02*
X112295238Y-58768617D01*
X112295238Y-58768617D02*
X112333333Y-58806712D01*
X112333333Y-58806712D02*
X112371428Y-58882902D01*
X112371428Y-58882902D02*
X112371428Y-59111474D01*
X112371428Y-59111474D02*
X112333333Y-59187664D01*
X112333333Y-59187664D02*
X112295238Y-59225760D01*
X112295238Y-59225760D02*
X112219047Y-59263855D01*
X112219047Y-59263855D02*
X112066666Y-59263855D01*
X112066666Y-59263855D02*
X111990476Y-59225760D01*
D10*
X70277319Y-77033333D02*
X70991604Y-77033333D01*
X70991604Y-77033333D02*
X71134461Y-77080952D01*
X71134461Y-77080952D02*
X71229700Y-77176190D01*
X71229700Y-77176190D02*
X71277319Y-77319047D01*
X71277319Y-77319047D02*
X71277319Y-77414285D01*
X71277319Y-76033333D02*
X71277319Y-76604761D01*
X71277319Y-76319047D02*
X70277319Y-76319047D01*
X70277319Y-76319047D02*
X70420176Y-76414285D01*
X70420176Y-76414285D02*
X70515414Y-76509523D01*
X70515414Y-76509523D02*
X70563033Y-76604761D01*
X39347142Y-38499580D02*
X39299523Y-38547200D01*
X39299523Y-38547200D02*
X39156666Y-38594819D01*
X39156666Y-38594819D02*
X39061428Y-38594819D01*
X39061428Y-38594819D02*
X38918571Y-38547200D01*
X38918571Y-38547200D02*
X38823333Y-38451961D01*
X38823333Y-38451961D02*
X38775714Y-38356723D01*
X38775714Y-38356723D02*
X38728095Y-38166247D01*
X38728095Y-38166247D02*
X38728095Y-38023390D01*
X38728095Y-38023390D02*
X38775714Y-37832914D01*
X38775714Y-37832914D02*
X38823333Y-37737676D01*
X38823333Y-37737676D02*
X38918571Y-37642438D01*
X38918571Y-37642438D02*
X39061428Y-37594819D01*
X39061428Y-37594819D02*
X39156666Y-37594819D01*
X39156666Y-37594819D02*
X39299523Y-37642438D01*
X39299523Y-37642438D02*
X39347142Y-37690057D01*
X40299523Y-38594819D02*
X39728095Y-38594819D01*
X40013809Y-38594819D02*
X40013809Y-37594819D01*
X40013809Y-37594819D02*
X39918571Y-37737676D01*
X39918571Y-37737676D02*
X39823333Y-37832914D01*
X39823333Y-37832914D02*
X39728095Y-37880533D01*
X40632857Y-37594819D02*
X41251904Y-37594819D01*
X41251904Y-37594819D02*
X40918571Y-37975771D01*
X40918571Y-37975771D02*
X41061428Y-37975771D01*
X41061428Y-37975771D02*
X41156666Y-38023390D01*
X41156666Y-38023390D02*
X41204285Y-38071009D01*
X41204285Y-38071009D02*
X41251904Y-38166247D01*
X41251904Y-38166247D02*
X41251904Y-38404342D01*
X41251904Y-38404342D02*
X41204285Y-38499580D01*
X41204285Y-38499580D02*
X41156666Y-38547200D01*
X41156666Y-38547200D02*
X41061428Y-38594819D01*
X41061428Y-38594819D02*
X40775714Y-38594819D01*
X40775714Y-38594819D02*
X40680476Y-38547200D01*
X40680476Y-38547200D02*
X40632857Y-38499580D01*
D11*
X85090475Y-50463855D02*
X85280951Y-51263855D01*
X85280951Y-51263855D02*
X85433332Y-50692426D01*
X85433332Y-50692426D02*
X85585713Y-51263855D01*
X85585713Y-51263855D02*
X85776190Y-50463855D01*
X86461904Y-51263855D02*
X86080952Y-51263855D01*
X86080952Y-51263855D02*
X86080952Y-50463855D01*
X87109523Y-50463855D02*
X86728571Y-50463855D01*
X86728571Y-50463855D02*
X86690475Y-50844807D01*
X86690475Y-50844807D02*
X86728571Y-50806712D01*
X86728571Y-50806712D02*
X86804761Y-50768617D01*
X86804761Y-50768617D02*
X86995237Y-50768617D01*
X86995237Y-50768617D02*
X87071428Y-50806712D01*
X87071428Y-50806712D02*
X87109523Y-50844807D01*
X87109523Y-50844807D02*
X87147618Y-50920998D01*
X87147618Y-50920998D02*
X87147618Y-51111474D01*
X87147618Y-51111474D02*
X87109523Y-51187664D01*
X87109523Y-51187664D02*
X87071428Y-51225760D01*
X87071428Y-51225760D02*
X86995237Y-51263855D01*
X86995237Y-51263855D02*
X86804761Y-51263855D01*
X86804761Y-51263855D02*
X86728571Y-51225760D01*
X86728571Y-51225760D02*
X86690475Y-51187664D01*
X87833333Y-51263855D02*
X87833333Y-50844807D01*
X87833333Y-50844807D02*
X87795238Y-50768617D01*
X87795238Y-50768617D02*
X87719047Y-50730521D01*
X87719047Y-50730521D02*
X87566666Y-50730521D01*
X87566666Y-50730521D02*
X87490476Y-50768617D01*
X87833333Y-51225760D02*
X87757142Y-51263855D01*
X87757142Y-51263855D02*
X87566666Y-51263855D01*
X87566666Y-51263855D02*
X87490476Y-51225760D01*
X87490476Y-51225760D02*
X87452380Y-51149569D01*
X87452380Y-51149569D02*
X87452380Y-51073379D01*
X87452380Y-51073379D02*
X87490476Y-50997188D01*
X87490476Y-50997188D02*
X87566666Y-50959093D01*
X87566666Y-50959093D02*
X87757142Y-50959093D01*
X87757142Y-50959093D02*
X87833333Y-50920998D01*
D10*
X50668095Y-28874819D02*
X50668095Y-29684342D01*
X50668095Y-29684342D02*
X50715714Y-29779580D01*
X50715714Y-29779580D02*
X50763333Y-29827200D01*
X50763333Y-29827200D02*
X50858571Y-29874819D01*
X50858571Y-29874819D02*
X51049047Y-29874819D01*
X51049047Y-29874819D02*
X51144285Y-29827200D01*
X51144285Y-29827200D02*
X51191904Y-29779580D01*
X51191904Y-29779580D02*
X51239523Y-29684342D01*
X51239523Y-29684342D02*
X51239523Y-28874819D01*
X52144285Y-28874819D02*
X51953809Y-28874819D01*
X51953809Y-28874819D02*
X51858571Y-28922438D01*
X51858571Y-28922438D02*
X51810952Y-28970057D01*
X51810952Y-28970057D02*
X51715714Y-29112914D01*
X51715714Y-29112914D02*
X51668095Y-29303390D01*
X51668095Y-29303390D02*
X51668095Y-29684342D01*
X51668095Y-29684342D02*
X51715714Y-29779580D01*
X51715714Y-29779580D02*
X51763333Y-29827200D01*
X51763333Y-29827200D02*
X51858571Y-29874819D01*
X51858571Y-29874819D02*
X52049047Y-29874819D01*
X52049047Y-29874819D02*
X52144285Y-29827200D01*
X52144285Y-29827200D02*
X52191904Y-29779580D01*
X52191904Y-29779580D02*
X52239523Y-29684342D01*
X52239523Y-29684342D02*
X52239523Y-29446247D01*
X52239523Y-29446247D02*
X52191904Y-29351009D01*
X52191904Y-29351009D02*
X52144285Y-29303390D01*
X52144285Y-29303390D02*
X52049047Y-29255771D01*
X52049047Y-29255771D02*
X51858571Y-29255771D01*
X51858571Y-29255771D02*
X51763333Y-29303390D01*
X51763333Y-29303390D02*
X51715714Y-29351009D01*
X51715714Y-29351009D02*
X51668095Y-29446247D01*
X50405833Y-84219580D02*
X50358214Y-84267200D01*
X50358214Y-84267200D02*
X50215357Y-84314819D01*
X50215357Y-84314819D02*
X50120119Y-84314819D01*
X50120119Y-84314819D02*
X49977262Y-84267200D01*
X49977262Y-84267200D02*
X49882024Y-84171961D01*
X49882024Y-84171961D02*
X49834405Y-84076723D01*
X49834405Y-84076723D02*
X49786786Y-83886247D01*
X49786786Y-83886247D02*
X49786786Y-83743390D01*
X49786786Y-83743390D02*
X49834405Y-83552914D01*
X49834405Y-83552914D02*
X49882024Y-83457676D01*
X49882024Y-83457676D02*
X49977262Y-83362438D01*
X49977262Y-83362438D02*
X50120119Y-83314819D01*
X50120119Y-83314819D02*
X50215357Y-83314819D01*
X50215357Y-83314819D02*
X50358214Y-83362438D01*
X50358214Y-83362438D02*
X50405833Y-83410057D01*
X50882024Y-84314819D02*
X51072500Y-84314819D01*
X51072500Y-84314819D02*
X51167738Y-84267200D01*
X51167738Y-84267200D02*
X51215357Y-84219580D01*
X51215357Y-84219580D02*
X51310595Y-84076723D01*
X51310595Y-84076723D02*
X51358214Y-83886247D01*
X51358214Y-83886247D02*
X51358214Y-83505295D01*
X51358214Y-83505295D02*
X51310595Y-83410057D01*
X51310595Y-83410057D02*
X51262976Y-83362438D01*
X51262976Y-83362438D02*
X51167738Y-83314819D01*
X51167738Y-83314819D02*
X50977262Y-83314819D01*
X50977262Y-83314819D02*
X50882024Y-83362438D01*
X50882024Y-83362438D02*
X50834405Y-83410057D01*
X50834405Y-83410057D02*
X50786786Y-83505295D01*
X50786786Y-83505295D02*
X50786786Y-83743390D01*
X50786786Y-83743390D02*
X50834405Y-83838628D01*
X50834405Y-83838628D02*
X50882024Y-83886247D01*
X50882024Y-83886247D02*
X50977262Y-83933866D01*
X50977262Y-83933866D02*
X51167738Y-83933866D01*
X51167738Y-83933866D02*
X51262976Y-83886247D01*
X51262976Y-83886247D02*
X51310595Y-83838628D01*
X51310595Y-83838628D02*
X51358214Y-83743390D01*
D11*
X98590475Y-55963855D02*
X98780951Y-56763855D01*
X98780951Y-56763855D02*
X98933332Y-56192426D01*
X98933332Y-56192426D02*
X99085713Y-56763855D01*
X99085713Y-56763855D02*
X99276190Y-55963855D01*
X99961904Y-56763855D02*
X99580952Y-56763855D01*
X99580952Y-56763855D02*
X99580952Y-55963855D01*
X100342856Y-56306712D02*
X100266666Y-56268617D01*
X100266666Y-56268617D02*
X100228571Y-56230521D01*
X100228571Y-56230521D02*
X100190475Y-56154331D01*
X100190475Y-56154331D02*
X100190475Y-56116236D01*
X100190475Y-56116236D02*
X100228571Y-56040045D01*
X100228571Y-56040045D02*
X100266666Y-56001950D01*
X100266666Y-56001950D02*
X100342856Y-55963855D01*
X100342856Y-55963855D02*
X100495237Y-55963855D01*
X100495237Y-55963855D02*
X100571428Y-56001950D01*
X100571428Y-56001950D02*
X100609523Y-56040045D01*
X100609523Y-56040045D02*
X100647618Y-56116236D01*
X100647618Y-56116236D02*
X100647618Y-56154331D01*
X100647618Y-56154331D02*
X100609523Y-56230521D01*
X100609523Y-56230521D02*
X100571428Y-56268617D01*
X100571428Y-56268617D02*
X100495237Y-56306712D01*
X100495237Y-56306712D02*
X100342856Y-56306712D01*
X100342856Y-56306712D02*
X100266666Y-56344807D01*
X100266666Y-56344807D02*
X100228571Y-56382902D01*
X100228571Y-56382902D02*
X100190475Y-56459093D01*
X100190475Y-56459093D02*
X100190475Y-56611474D01*
X100190475Y-56611474D02*
X100228571Y-56687664D01*
X100228571Y-56687664D02*
X100266666Y-56725760D01*
X100266666Y-56725760D02*
X100342856Y-56763855D01*
X100342856Y-56763855D02*
X100495237Y-56763855D01*
X100495237Y-56763855D02*
X100571428Y-56725760D01*
X100571428Y-56725760D02*
X100609523Y-56687664D01*
X100609523Y-56687664D02*
X100647618Y-56611474D01*
X100647618Y-56611474D02*
X100647618Y-56459093D01*
X100647618Y-56459093D02*
X100609523Y-56382902D01*
X100609523Y-56382902D02*
X100571428Y-56344807D01*
X100571428Y-56344807D02*
X100495237Y-56306712D01*
X101333333Y-56763855D02*
X101333333Y-56344807D01*
X101333333Y-56344807D02*
X101295238Y-56268617D01*
X101295238Y-56268617D02*
X101219047Y-56230521D01*
X101219047Y-56230521D02*
X101066666Y-56230521D01*
X101066666Y-56230521D02*
X100990476Y-56268617D01*
X101333333Y-56725760D02*
X101257142Y-56763855D01*
X101257142Y-56763855D02*
X101066666Y-56763855D01*
X101066666Y-56763855D02*
X100990476Y-56725760D01*
X100990476Y-56725760D02*
X100952380Y-56649569D01*
X100952380Y-56649569D02*
X100952380Y-56573379D01*
X100952380Y-56573379D02*
X100990476Y-56497188D01*
X100990476Y-56497188D02*
X101066666Y-56459093D01*
X101066666Y-56459093D02*
X101257142Y-56459093D01*
X101257142Y-56459093D02*
X101333333Y-56420998D01*
D10*
X91930595Y-53004819D02*
X91930595Y-53814342D01*
X91930595Y-53814342D02*
X91978214Y-53909580D01*
X91978214Y-53909580D02*
X92025833Y-53957200D01*
X92025833Y-53957200D02*
X92121071Y-54004819D01*
X92121071Y-54004819D02*
X92311547Y-54004819D01*
X92311547Y-54004819D02*
X92406785Y-53957200D01*
X92406785Y-53957200D02*
X92454404Y-53909580D01*
X92454404Y-53909580D02*
X92502023Y-53814342D01*
X92502023Y-53814342D02*
X92502023Y-53004819D01*
X93121071Y-53433390D02*
X93025833Y-53385771D01*
X93025833Y-53385771D02*
X92978214Y-53338152D01*
X92978214Y-53338152D02*
X92930595Y-53242914D01*
X92930595Y-53242914D02*
X92930595Y-53195295D01*
X92930595Y-53195295D02*
X92978214Y-53100057D01*
X92978214Y-53100057D02*
X93025833Y-53052438D01*
X93025833Y-53052438D02*
X93121071Y-53004819D01*
X93121071Y-53004819D02*
X93311547Y-53004819D01*
X93311547Y-53004819D02*
X93406785Y-53052438D01*
X93406785Y-53052438D02*
X93454404Y-53100057D01*
X93454404Y-53100057D02*
X93502023Y-53195295D01*
X93502023Y-53195295D02*
X93502023Y-53242914D01*
X93502023Y-53242914D02*
X93454404Y-53338152D01*
X93454404Y-53338152D02*
X93406785Y-53385771D01*
X93406785Y-53385771D02*
X93311547Y-53433390D01*
X93311547Y-53433390D02*
X93121071Y-53433390D01*
X93121071Y-53433390D02*
X93025833Y-53481009D01*
X93025833Y-53481009D02*
X92978214Y-53528628D01*
X92978214Y-53528628D02*
X92930595Y-53623866D01*
X92930595Y-53623866D02*
X92930595Y-53814342D01*
X92930595Y-53814342D02*
X92978214Y-53909580D01*
X92978214Y-53909580D02*
X93025833Y-53957200D01*
X93025833Y-53957200D02*
X93121071Y-54004819D01*
X93121071Y-54004819D02*
X93311547Y-54004819D01*
X93311547Y-54004819D02*
X93406785Y-53957200D01*
X93406785Y-53957200D02*
X93454404Y-53909580D01*
X93454404Y-53909580D02*
X93502023Y-53814342D01*
X93502023Y-53814342D02*
X93502023Y-53623866D01*
X93502023Y-53623866D02*
X93454404Y-53528628D01*
X93454404Y-53528628D02*
X93406785Y-53481009D01*
X93406785Y-53481009D02*
X93311547Y-53433390D01*
X113238095Y-22304819D02*
X113238095Y-21304819D01*
X113238095Y-21781009D02*
X113809523Y-21781009D01*
X113809523Y-22304819D02*
X113809523Y-21304819D01*
X114238095Y-21400057D02*
X114285714Y-21352438D01*
X114285714Y-21352438D02*
X114380952Y-21304819D01*
X114380952Y-21304819D02*
X114619047Y-21304819D01*
X114619047Y-21304819D02*
X114714285Y-21352438D01*
X114714285Y-21352438D02*
X114761904Y-21400057D01*
X114761904Y-21400057D02*
X114809523Y-21495295D01*
X114809523Y-21495295D02*
X114809523Y-21590533D01*
X114809523Y-21590533D02*
X114761904Y-21733390D01*
X114761904Y-21733390D02*
X114190476Y-22304819D01*
X114190476Y-22304819D02*
X114809523Y-22304819D01*
X63032142Y-105809580D02*
X62984523Y-105857200D01*
X62984523Y-105857200D02*
X62841666Y-105904819D01*
X62841666Y-105904819D02*
X62746428Y-105904819D01*
X62746428Y-105904819D02*
X62603571Y-105857200D01*
X62603571Y-105857200D02*
X62508333Y-105761961D01*
X62508333Y-105761961D02*
X62460714Y-105666723D01*
X62460714Y-105666723D02*
X62413095Y-105476247D01*
X62413095Y-105476247D02*
X62413095Y-105333390D01*
X62413095Y-105333390D02*
X62460714Y-105142914D01*
X62460714Y-105142914D02*
X62508333Y-105047676D01*
X62508333Y-105047676D02*
X62603571Y-104952438D01*
X62603571Y-104952438D02*
X62746428Y-104904819D01*
X62746428Y-104904819D02*
X62841666Y-104904819D01*
X62841666Y-104904819D02*
X62984523Y-104952438D01*
X62984523Y-104952438D02*
X63032142Y-105000057D01*
X63984523Y-105904819D02*
X63413095Y-105904819D01*
X63698809Y-105904819D02*
X63698809Y-104904819D01*
X63698809Y-104904819D02*
X63603571Y-105047676D01*
X63603571Y-105047676D02*
X63508333Y-105142914D01*
X63508333Y-105142914D02*
X63413095Y-105190533D01*
X64841666Y-104904819D02*
X64651190Y-104904819D01*
X64651190Y-104904819D02*
X64555952Y-104952438D01*
X64555952Y-104952438D02*
X64508333Y-105000057D01*
X64508333Y-105000057D02*
X64413095Y-105142914D01*
X64413095Y-105142914D02*
X64365476Y-105333390D01*
X64365476Y-105333390D02*
X64365476Y-105714342D01*
X64365476Y-105714342D02*
X64413095Y-105809580D01*
X64413095Y-105809580D02*
X64460714Y-105857200D01*
X64460714Y-105857200D02*
X64555952Y-105904819D01*
X64555952Y-105904819D02*
X64746428Y-105904819D01*
X64746428Y-105904819D02*
X64841666Y-105857200D01*
X64841666Y-105857200D02*
X64889285Y-105809580D01*
X64889285Y-105809580D02*
X64936904Y-105714342D01*
X64936904Y-105714342D02*
X64936904Y-105476247D01*
X64936904Y-105476247D02*
X64889285Y-105381009D01*
X64889285Y-105381009D02*
X64841666Y-105333390D01*
X64841666Y-105333390D02*
X64746428Y-105285771D01*
X64746428Y-105285771D02*
X64555952Y-105285771D01*
X64555952Y-105285771D02*
X64460714Y-105333390D01*
X64460714Y-105333390D02*
X64413095Y-105381009D01*
X64413095Y-105381009D02*
X64365476Y-105476247D01*
D11*
X78090475Y-50463855D02*
X78280951Y-51263855D01*
X78280951Y-51263855D02*
X78433332Y-50692426D01*
X78433332Y-50692426D02*
X78585713Y-51263855D01*
X78585713Y-51263855D02*
X78776190Y-50463855D01*
X79461904Y-51263855D02*
X79080952Y-51263855D01*
X79080952Y-51263855D02*
X79080952Y-50463855D01*
X79652380Y-50463855D02*
X80185714Y-50463855D01*
X80185714Y-50463855D02*
X79842856Y-51263855D01*
X80833333Y-51263855D02*
X80833333Y-50844807D01*
X80833333Y-50844807D02*
X80795238Y-50768617D01*
X80795238Y-50768617D02*
X80719047Y-50730521D01*
X80719047Y-50730521D02*
X80566666Y-50730521D01*
X80566666Y-50730521D02*
X80490476Y-50768617D01*
X80833333Y-51225760D02*
X80757142Y-51263855D01*
X80757142Y-51263855D02*
X80566666Y-51263855D01*
X80566666Y-51263855D02*
X80490476Y-51225760D01*
X80490476Y-51225760D02*
X80452380Y-51149569D01*
X80452380Y-51149569D02*
X80452380Y-51073379D01*
X80452380Y-51073379D02*
X80490476Y-50997188D01*
X80490476Y-50997188D02*
X80566666Y-50959093D01*
X80566666Y-50959093D02*
X80757142Y-50959093D01*
X80757142Y-50959093D02*
X80833333Y-50920998D01*
%TO.C,J4*%
X59730000Y-28620000D02*
X59730000Y-33920000D01*
X77620000Y-28620000D02*
X59730000Y-28620000D01*
X77620000Y-28620000D02*
X77620000Y-31270000D01*
X77620000Y-31270000D02*
X80270000Y-31270000D01*
X78890000Y-28620000D02*
X80270000Y-28620000D01*
X80270000Y-28620000D02*
X80270000Y-30000000D01*
X80270000Y-31270000D02*
X80270000Y-33920000D01*
X80270000Y-33920000D02*
X59730000Y-33920000D01*
%TO.C,R11*%
X54450000Y-98960000D02*
X60990000Y-98960000D01*
X54450000Y-99290000D02*
X54450000Y-98960000D01*
X54450000Y-101370000D02*
X54450000Y-101700000D01*
X54450000Y-101700000D02*
X60990000Y-101700000D01*
X60990000Y-98960000D02*
X60990000Y-99290000D01*
X60990000Y-101700000D02*
X60990000Y-101370000D01*
%TO.C,WL6a*%
D10*
X85200000Y-61500000D02*
G75*
G02*
X82800000Y-61500000I-1200000J0D01*
G01*
X82800000Y-61500000D02*
G75*
G02*
X85200000Y-61500000I1200000J0D01*
G01*
%TO.C,U3*%
D11*
X43275000Y-62520000D02*
X43275000Y-63770000D01*
X43275000Y-65770000D02*
X43275000Y-67020000D01*
X43275000Y-67020000D02*
X61175000Y-67020000D01*
X61175000Y-62520000D02*
X43275000Y-62520000D01*
X61175000Y-67020000D02*
X61175000Y-62520000D01*
X43275000Y-63770000D02*
G75*
G02*
X43275000Y-65770000I0J-1000000D01*
G01*
%TO.C,J2*%
X104972500Y-54500000D02*
X106352500Y-54500000D01*
X104972500Y-55880000D02*
X104972500Y-54500000D01*
X104972500Y-57150000D02*
X104972500Y-75040000D01*
X104972500Y-57150000D02*
X107732500Y-57150000D01*
X104972500Y-75040000D02*
X107732500Y-75040000D01*
X107732500Y-57150000D02*
X107732500Y-75040000D01*
%TO.C,U9*%
X56952500Y-84110000D02*
X56952500Y-85360000D01*
X56952500Y-87360000D02*
X56952500Y-88610000D01*
X56952500Y-88610000D02*
X74852500Y-88610000D01*
X74852500Y-84110000D02*
X56952500Y-84110000D01*
X74852500Y-88610000D02*
X74852500Y-84110000D01*
X56952500Y-85360000D02*
G75*
G02*
X56952500Y-87360000I0J-1000000D01*
G01*
%TO.C,WL1a*%
D10*
X80700000Y-49000000D02*
G75*
G02*
X78300000Y-49000000I-1200000J0D01*
G01*
X78300000Y-49000000D02*
G75*
G02*
X80700000Y-49000000I1200000J0D01*
G01*
%TO.C,C15*%
D11*
X78632500Y-63400000D02*
X83872500Y-63400000D01*
X78632500Y-63737000D02*
X78632500Y-63400000D01*
X78632500Y-66140000D02*
X78632500Y-65803000D01*
X83872500Y-63400000D02*
X83872500Y-63737000D01*
X83872500Y-65803000D02*
X83872500Y-66140000D01*
X83872500Y-66140000D02*
X78632500Y-66140000D01*
%TO.C,WL7b*%
D10*
X70700000Y-53000000D02*
G75*
G02*
X68300000Y-53000000I-1200000J0D01*
G01*
X68300000Y-53000000D02*
G75*
G02*
X70700000Y-53000000I1200000J0D01*
G01*
%TO.C,WL1b*%
X72700000Y-36500000D02*
G75*
G02*
X70300000Y-36500000I-1200000J0D01*
G01*
X70300000Y-36500000D02*
G75*
G02*
X72700000Y-36500000I1200000J0D01*
G01*
%TO.C,WL9b*%
X61200000Y-43000000D02*
G75*
G02*
X58800000Y-43000000I-1200000J0D01*
G01*
X58800000Y-43000000D02*
G75*
G02*
X61200000Y-43000000I1200000J0D01*
G01*
%TO.C,WL8b*%
X112200000Y-68500000D02*
G75*
G02*
X109800000Y-68500000I-1200000J0D01*
G01*
X109800000Y-68500000D02*
G75*
G02*
X112200000Y-68500000I1200000J0D01*
G01*
%TO.C,C17*%
D11*
X66140000Y-98960000D02*
X71380000Y-98960000D01*
X66140000Y-99297000D02*
X66140000Y-98960000D01*
X66140000Y-101700000D02*
X66140000Y-101363000D01*
X71380000Y-98960000D02*
X71380000Y-99297000D01*
X71380000Y-101363000D02*
X71380000Y-101700000D01*
X71380000Y-101700000D02*
X66140000Y-101700000D01*
%TO.C,WL3a*%
D10*
X43200000Y-35500000D02*
G75*
G02*
X40800000Y-35500000I-1200000J0D01*
G01*
X40800000Y-35500000D02*
G75*
G02*
X43200000Y-35500000I1200000J0D01*
G01*
%TO.C,WL6b*%
X85200000Y-75000000D02*
G75*
G02*
X82800000Y-75000000I-1200000J0D01*
G01*
X82800000Y-75000000D02*
G75*
G02*
X85200000Y-75000000I1200000J0D01*
G01*
%TO.C,U4*%
D11*
X86320000Y-30420000D02*
X86320000Y-50860000D01*
X86320000Y-50860000D02*
X90820000Y-50860000D01*
X87570000Y-30420000D02*
X86320000Y-30420000D01*
X90820000Y-30420000D02*
X89570000Y-30420000D01*
X90820000Y-50860000D02*
X90820000Y-30420000D01*
X89570000Y-30420000D02*
G75*
G02*
X87570000Y-30420000I-1000000J0D01*
G01*
%TO.C,R10*%
X71445000Y-106580000D02*
X77985000Y-106580000D01*
X71445000Y-106910000D02*
X71445000Y-106580000D01*
X71445000Y-108990000D02*
X71445000Y-109320000D01*
X71445000Y-109320000D02*
X77985000Y-109320000D01*
X77985000Y-106580000D02*
X77985000Y-106910000D01*
X77985000Y-109320000D02*
X77985000Y-108990000D01*
%TO.C,WL2a*%
D10*
X98700000Y-47000000D02*
G75*
G02*
X96300000Y-47000000I-1200000J0D01*
G01*
X96300000Y-47000000D02*
G75*
G02*
X98700000Y-47000000I1200000J0D01*
G01*
%TO.C,WL3b*%
X100700000Y-68500000D02*
G75*
G02*
X98300000Y-68500000I-1200000J0D01*
G01*
X98300000Y-68500000D02*
G75*
G02*
X100700000Y-68500000I1200000J0D01*
G01*
%TO.C,C10*%
D11*
X64935000Y-63400000D02*
X70175000Y-63400000D01*
X64935000Y-63737000D02*
X64935000Y-63400000D01*
X64935000Y-66140000D02*
X64935000Y-65803000D01*
X70175000Y-63400000D02*
X70175000Y-63737000D01*
X70175000Y-65803000D02*
X70175000Y-66140000D01*
X70175000Y-66140000D02*
X64935000Y-66140000D01*
%TO.C,C11*%
X97390000Y-39270000D02*
X102630000Y-39270000D01*
X97390000Y-39607000D02*
X97390000Y-39270000D01*
X97390000Y-42010000D02*
X97390000Y-41673000D01*
X102630000Y-39270000D02*
X102630000Y-39607000D01*
X102630000Y-41673000D02*
X102630000Y-42010000D01*
X102630000Y-42010000D02*
X97390000Y-42010000D01*
%TO.C,Y1*%
X77765000Y-97895000D02*
X84015000Y-97895000D01*
X84015000Y-102765000D02*
X77765000Y-102765000D01*
X77765000Y-102765000D02*
G75*
G02*
X77765000Y-97895000I0J2435000D01*
G01*
X84015000Y-97895000D02*
G75*
G02*
X84015000Y-102765000I0J-2435000D01*
G01*
%TO.C,WL4b*%
D10*
X44200000Y-31500000D02*
G75*
G02*
X41800000Y-31500000I-1200000J0D01*
G01*
X41800000Y-31500000D02*
G75*
G02*
X44200000Y-31500000I1200000J0D01*
G01*
%TO.C,WL2b*%
X57200000Y-74000000D02*
G75*
G02*
X54800000Y-74000000I-1200000J0D01*
G01*
X54800000Y-74000000D02*
G75*
G02*
X57200000Y-74000000I1200000J0D01*
G01*
%TO.C,WL5b*%
X112200000Y-61000000D02*
G75*
G02*
X109800000Y-61000000I-1200000J0D01*
G01*
X109800000Y-61000000D02*
G75*
G02*
X112200000Y-61000000I1200000J0D01*
G01*
%TO.C,J1*%
D11*
X61982500Y-75320000D02*
X61982500Y-78080000D01*
X67172500Y-75320000D02*
X61982500Y-75320000D01*
X67172500Y-75320000D02*
X67172500Y-78080000D01*
X67172500Y-78080000D02*
X61982500Y-78080000D01*
X68442500Y-75320000D02*
X69822500Y-75320000D01*
X69822500Y-75320000D02*
X69822500Y-76700000D01*
%TO.C,C13*%
X37370000Y-39270000D02*
X42610000Y-39270000D01*
X37370000Y-39607000D02*
X37370000Y-39270000D01*
X37370000Y-42010000D02*
X37370000Y-41673000D01*
X42610000Y-39270000D02*
X42610000Y-39607000D01*
X42610000Y-41673000D02*
X42610000Y-42010000D01*
X42610000Y-42010000D02*
X37370000Y-42010000D01*
%TO.C,WL5a*%
D10*
X87700000Y-53000000D02*
G75*
G02*
X85300000Y-53000000I-1200000J0D01*
G01*
X85300000Y-53000000D02*
G75*
G02*
X87700000Y-53000000I1200000J0D01*
G01*
%TO.C,U6*%
D11*
X49180000Y-30420000D02*
X49180000Y-50860000D01*
X49180000Y-50860000D02*
X53680000Y-50860000D01*
X50430000Y-30420000D02*
X49180000Y-30420000D01*
X53680000Y-30420000D02*
X52430000Y-30420000D01*
X53680000Y-50860000D02*
X53680000Y-30420000D01*
X52430000Y-30420000D02*
G75*
G02*
X50430000Y-30420000I-1000000J0D01*
G01*
%TO.C,C9*%
X47952500Y-84990000D02*
X53192500Y-84990000D01*
X47952500Y-85327000D02*
X47952500Y-84990000D01*
X47952500Y-87730000D02*
X47952500Y-87393000D01*
X53192500Y-84990000D02*
X53192500Y-85327000D01*
X53192500Y-87393000D02*
X53192500Y-87730000D01*
X53192500Y-87730000D02*
X47952500Y-87730000D01*
%TO.C,WL8a*%
D10*
X101200000Y-58500000D02*
G75*
G02*
X98800000Y-58500000I-1200000J0D01*
G01*
X98800000Y-58500000D02*
G75*
G02*
X101200000Y-58500000I1200000J0D01*
G01*
%TO.C,U8*%
D11*
X90442500Y-54550000D02*
X90442500Y-74990000D01*
X90442500Y-74990000D02*
X94942500Y-74990000D01*
X91692500Y-54550000D02*
X90442500Y-54550000D01*
X94942500Y-54550000D02*
X93692500Y-54550000D01*
X94942500Y-74990000D02*
X94942500Y-54550000D01*
X93692500Y-54550000D02*
G75*
G02*
X91692500Y-54550000I-1000000J0D01*
G01*
%TO.C,C16*%
X61055000Y-106580000D02*
X66295000Y-106580000D01*
X61055000Y-106917000D02*
X61055000Y-106580000D01*
X61055000Y-109320000D02*
X61055000Y-108983000D01*
X66295000Y-106580000D02*
X66295000Y-106917000D01*
X66295000Y-108983000D02*
X66295000Y-109320000D01*
X66295000Y-109320000D02*
X61055000Y-109320000D01*
%TO.C,WL7a*%
D10*
X80700000Y-53000000D02*
G75*
G02*
X78300000Y-53000000I-1200000J0D01*
G01*
X78300000Y-53000000D02*
G75*
G02*
X80700000Y-53000000I1200000J0D01*
G01*
%TD*%
M02*
