M48
; DRILL file KiCad 10.0.5-1-g226df246f3 date 2026-09-09T19:40:57
; FORMAT={-:-/ absolute / metric / decimal}
; #@! TF.CreationDate,2026-09-09T19:40:57+02:00
; #@! TF.GenerationSoftware,Kicad,Pcbnew,10.0.5-1-g226df246f3
; #@! TF.FileFunction,MixedPlating,1,2
FMAT,2
METRIC
; #@! TA.AperFunction,Plated,PTH,ViaDrill
T1C0.400
; #@! TA.AperFunction,Plated,PTH,ComponentDrill
T2C0.800
; #@! TA.AperFunction,Plated,PTH,ComponentDrill
T3C1.000
; #@! TA.AperFunction,NonPlated,NPTH,ComponentDrill
T4C3.200
%
G90
G05
T1
X79.5Y-53.0
X79.5Y-53.0
T2
X37.49Y-40.64
X42.49Y-40.64
X44.605Y-60.96
X44.605Y-68.58
X47.145Y-60.96
X47.145Y-68.58
X47.62Y-31.75
X47.62Y-34.29
X47.62Y-36.83
X47.62Y-39.37
X47.62Y-41.91
X47.62Y-44.45
X47.62Y-46.99
X47.62Y-49.53
X48.072Y-86.36
X49.685Y-60.96
X49.685Y-68.58
X52.225Y-60.96
X52.225Y-68.58
X53.072Y-86.36
X53.91Y-100.33
X54.765Y-60.96
X54.765Y-68.58
X55.24Y-31.75
X55.24Y-34.29
X55.24Y-36.83
X55.24Y-39.37
X55.24Y-41.91
X55.24Y-44.45
X55.24Y-46.99
X55.24Y-49.53
X57.305Y-60.96
X57.305Y-68.58
X58.282Y-82.55
X58.282Y-90.17
X59.845Y-60.96
X59.845Y-68.58
X60.822Y-82.55
X60.822Y-90.17
X61.175Y-107.95
X61.53Y-100.33
X63.362Y-82.55
X63.362Y-90.17
X65.055Y-64.77
X65.903Y-82.55
X65.903Y-90.17
X66.175Y-107.95
X66.26Y-100.33
X68.442Y-82.55
X68.442Y-90.17
X70.055Y-64.77
X70.905Y-107.95
X70.983Y-82.55
X70.983Y-90.17
X71.26Y-100.33
X73.522Y-82.55
X73.522Y-90.17
X78.45Y-100.33
X78.525Y-107.95
X78.752Y-64.77
X83.33Y-100.33
X83.752Y-64.77
X84.76Y-31.75
X84.76Y-34.29
X84.76Y-36.83
X84.76Y-39.37
X84.76Y-41.91
X84.76Y-44.45
X84.76Y-46.99
X84.76Y-49.53
X88.882Y-55.88
X88.882Y-58.42
X88.882Y-60.96
X88.882Y-63.5
X88.882Y-66.04
X88.882Y-68.58
X88.882Y-71.12
X88.882Y-73.66
X92.38Y-31.75
X92.38Y-34.29
X92.38Y-36.83
X92.38Y-39.37
X92.38Y-41.91
X92.38Y-44.45
X92.38Y-46.99
X92.38Y-49.53
X96.502Y-55.88
X96.502Y-58.42
X96.502Y-60.96
X96.502Y-63.5
X96.502Y-66.04
X96.502Y-68.58
X96.502Y-71.12
X96.502Y-73.66
X97.51Y-40.64
X102.51Y-40.64
T3
X42.0Y-35.5
X43.0Y-31.5
X56.0Y-74.0
X60.0Y-43.0
X61.11Y-30.0
X61.11Y-32.54
X63.362Y-76.7
X63.65Y-30.0
X63.65Y-32.54
X65.903Y-76.7
X66.19Y-30.0
X66.19Y-32.54
X68.442Y-76.7
X68.73Y-30.0
X68.73Y-32.54
X69.5Y-53.0
X71.27Y-30.0
X71.27Y-32.54
X71.5Y-36.5
X73.81Y-30.0
X73.81Y-32.54
X76.35Y-30.0
X76.35Y-32.54
X78.89Y-30.0
X78.89Y-32.54
X79.5Y-49.0
X79.5Y-53.0
X84.0Y-61.5
X84.0Y-75.0
X86.5Y-53.0
X97.5Y-47.0
X99.5Y-68.5
X100.0Y-58.5
X106.352Y-55.88
X106.352Y-58.42
X106.352Y-60.96
X106.352Y-63.5
X106.352Y-66.04
X106.352Y-68.58
X106.352Y-71.12
X106.352Y-73.66
X111.0Y-61.0
X111.0Y-68.5
T4
X26.0Y-26.0
X26.0Y-114.0
X114.0Y-26.0
X114.0Y-114.0
M30
