G04 #@! TF.GenerationSoftware,KiCad,Pcbnew,10.0.6*
G04 #@! TF.CreationDate,2026-09-25T00:38:33+02:00*
G04 #@! TF.ProjectId,vinyl_adc_rev_d,76696e79-6c5f-4616-9463-5f7265765f64,rev?*
G04 #@! TF.SameCoordinates,Original*
G04 #@! TF.FileFunction,Legend,Bot*
G04 #@! TF.FilePolarity,Positive*
%FSLAX46Y46*%
G04 Gerber Fmt 4.6, Leading zero omitted, Abs format (unit mm)*
G04 Created by KiCad (PCBNEW 10.0.6) date 2026-09-25 00:38:33*
%MOMM*%
%LPD*%
G01*
G04 APERTURE LIST*
G04 Aperture macros list*
%AMRoundRect*
0 Rectangle with rounded corners*
0 $1 Rounding radius*
0 $2 $3 $4 $5 $6 $7 $8 $9 X,Y pos of 4 corners*
0 Add a 4 corners polygon primitive as box body*
4,1,4,$2,$3,$4,$5,$6,$7,$8,$9,$2,$3,0*
0 Add four circle primitives for the rounded corners*
1,1,$1+$1,$2,$3*
1,1,$1+$1,$4,$5*
1,1,$1+$1,$6,$7*
1,1,$1+$1,$8,$9*
0 Add four rect primitives between the rounded corners*
20,1,$1+$1,$2,$3,$4,$5,0*
20,1,$1+$1,$4,$5,$6,$7,0*
20,1,$1+$1,$6,$7,$8,$9,0*
20,1,$1+$1,$8,$9,$2,$3,0*%
G04 Aperture macros list end*
%ADD10C,0.150000*%
%ADD11C,0.210000*%
%ADD12C,0.120000*%
%ADD13RoundRect,0.250000X0.550000X-0.950000X0.550000X0.950000X-0.550000X0.950000X-0.550000X-0.950000X0*%
%ADD14O,1.600000X2.400000*%
%ADD15R,1.500000X1.050000*%
%ADD16O,1.500000X1.050000*%
%ADD17C,1.600000*%
%ADD18R,1.800000X1.800000*%
%ADD19C,1.800000*%
%ADD20RoundRect,0.250000X-0.550000X-0.550000X0.550000X-0.550000X0.550000X0.550000X-0.550000X0.550000X0*%
%ADD21C,3.200000*%
%ADD22R,1.700000X1.700000*%
%ADD23C,1.700000*%
%ADD24RoundRect,0.250000X-0.550000X0.950000X-0.550000X-0.950000X0.550000X-0.950000X0.550000X0.950000X0*%
%ADD25C,2.700000*%
%ADD26RoundRect,0.249999X-0.850001X-0.850001X0.850001X-0.850001X0.850001X0.850001X-0.850001X0.850001X0*%
%ADD27C,2.200000*%
%ADD28RoundRect,0.250000X-0.550000X0.550000X-0.550000X-0.550000X0.550000X-0.550000X0.550000X0.550000X0*%
%ADD29C,1.500000*%
%ADD30RoundRect,0.250000X-0.950000X-0.550000X0.950000X-0.550000X0.950000X0.550000X-0.950000X0.550000X0*%
%ADD31O,2.400000X1.600000*%
%ADD32C,2.000000*%
%ADD33C,2.400000*%
%ADD34R,3.000000X3.000000*%
%ADD35C,3.000000*%
%ADD36RoundRect,0.249999X-0.850001X0.850001X-0.850001X-0.850001X0.850001X-0.850001X0.850001X0.850001X0*%
%ADD37RoundRect,0.250000X-0.750000X-0.750000X0.750000X-0.750000X0.750000X0.750000X-0.750000X0.750000X0*%
%ADD38RoundRect,0.250000X0.550000X-0.550000X0.550000X0.550000X-0.550000X0.550000X-0.550000X-0.550000X0*%
%ADD39RoundRect,0.250000X0.750000X-0.750000X0.750000X0.750000X-0.750000X0.750000X-0.750000X-0.750000X0*%
G04 APERTURE END LIST*
D10*
X86845240Y-107898152D02*
X86464288Y-107898152D01*
X86702383Y-107564819D02*
X86702383Y-108421961D01*
X86702383Y-108421961D02*
X86654764Y-108517200D01*
X86654764Y-108517200D02*
X86559526Y-108564819D01*
X86559526Y-108564819D02*
X86464288Y-108564819D01*
X86130954Y-108564819D02*
X86130954Y-107564819D01*
X85702383Y-108564819D02*
X85702383Y-108041009D01*
X85702383Y-108041009D02*
X85750002Y-107945771D01*
X85750002Y-107945771D02*
X85845240Y-107898152D01*
X85845240Y-107898152D02*
X85988097Y-107898152D01*
X85988097Y-107898152D02*
X86083335Y-107945771D01*
X86083335Y-107945771D02*
X86130954Y-107993390D01*
X85226192Y-108564819D02*
X85226192Y-107898152D01*
X85226192Y-108088628D02*
X85178573Y-107993390D01*
X85178573Y-107993390D02*
X85130954Y-107945771D01*
X85130954Y-107945771D02*
X85035716Y-107898152D01*
X85035716Y-107898152D02*
X84940478Y-107898152D01*
X84464287Y-108564819D02*
X84559525Y-108517200D01*
X84559525Y-108517200D02*
X84607144Y-108469580D01*
X84607144Y-108469580D02*
X84654763Y-108374342D01*
X84654763Y-108374342D02*
X84654763Y-108088628D01*
X84654763Y-108088628D02*
X84607144Y-107993390D01*
X84607144Y-107993390D02*
X84559525Y-107945771D01*
X84559525Y-107945771D02*
X84464287Y-107898152D01*
X84464287Y-107898152D02*
X84321430Y-107898152D01*
X84321430Y-107898152D02*
X84226192Y-107945771D01*
X84226192Y-107945771D02*
X84178573Y-107993390D01*
X84178573Y-107993390D02*
X84130954Y-108088628D01*
X84130954Y-108088628D02*
X84130954Y-108374342D01*
X84130954Y-108374342D02*
X84178573Y-108469580D01*
X84178573Y-108469580D02*
X84226192Y-108517200D01*
X84226192Y-108517200D02*
X84321430Y-108564819D01*
X84321430Y-108564819D02*
X84464287Y-108564819D01*
X83273811Y-107898152D02*
X83273811Y-108564819D01*
X83702382Y-107898152D02*
X83702382Y-108421961D01*
X83702382Y-108421961D02*
X83654763Y-108517200D01*
X83654763Y-108517200D02*
X83559525Y-108564819D01*
X83559525Y-108564819D02*
X83416668Y-108564819D01*
X83416668Y-108564819D02*
X83321430Y-108517200D01*
X83321430Y-108517200D02*
X83273811Y-108469580D01*
X82369049Y-107898152D02*
X82369049Y-108707676D01*
X82369049Y-108707676D02*
X82416668Y-108802914D01*
X82416668Y-108802914D02*
X82464287Y-108850533D01*
X82464287Y-108850533D02*
X82559525Y-108898152D01*
X82559525Y-108898152D02*
X82702382Y-108898152D01*
X82702382Y-108898152D02*
X82797620Y-108850533D01*
X82369049Y-108517200D02*
X82464287Y-108564819D01*
X82464287Y-108564819D02*
X82654763Y-108564819D01*
X82654763Y-108564819D02*
X82750001Y-108517200D01*
X82750001Y-108517200D02*
X82797620Y-108469580D01*
X82797620Y-108469580D02*
X82845239Y-108374342D01*
X82845239Y-108374342D02*
X82845239Y-108088628D01*
X82845239Y-108088628D02*
X82797620Y-107993390D01*
X82797620Y-107993390D02*
X82750001Y-107945771D01*
X82750001Y-107945771D02*
X82654763Y-107898152D01*
X82654763Y-107898152D02*
X82464287Y-107898152D01*
X82464287Y-107898152D02*
X82369049Y-107945771D01*
X81892858Y-108564819D02*
X81892858Y-107564819D01*
X81464287Y-108564819D02*
X81464287Y-108041009D01*
X81464287Y-108041009D02*
X81511906Y-107945771D01*
X81511906Y-107945771D02*
X81607144Y-107898152D01*
X81607144Y-107898152D02*
X81750001Y-107898152D01*
X81750001Y-107898152D02*
X81845239Y-107945771D01*
X81845239Y-107945771D02*
X81892858Y-107993390D01*
X80988096Y-108183866D02*
X80226192Y-108183866D01*
X79750001Y-108564819D02*
X79750001Y-107564819D01*
X79321430Y-108564819D02*
X79321430Y-108041009D01*
X79321430Y-108041009D02*
X79369049Y-107945771D01*
X79369049Y-107945771D02*
X79464287Y-107898152D01*
X79464287Y-107898152D02*
X79607144Y-107898152D01*
X79607144Y-107898152D02*
X79702382Y-107945771D01*
X79702382Y-107945771D02*
X79750001Y-107993390D01*
X78702382Y-108564819D02*
X78797620Y-108517200D01*
X78797620Y-108517200D02*
X78845239Y-108469580D01*
X78845239Y-108469580D02*
X78892858Y-108374342D01*
X78892858Y-108374342D02*
X78892858Y-108088628D01*
X78892858Y-108088628D02*
X78845239Y-107993390D01*
X78845239Y-107993390D02*
X78797620Y-107945771D01*
X78797620Y-107945771D02*
X78702382Y-107898152D01*
X78702382Y-107898152D02*
X78559525Y-107898152D01*
X78559525Y-107898152D02*
X78464287Y-107945771D01*
X78464287Y-107945771D02*
X78416668Y-107993390D01*
X78416668Y-107993390D02*
X78369049Y-108088628D01*
X78369049Y-108088628D02*
X78369049Y-108374342D01*
X78369049Y-108374342D02*
X78416668Y-108469580D01*
X78416668Y-108469580D02*
X78464287Y-108517200D01*
X78464287Y-108517200D02*
X78559525Y-108564819D01*
X78559525Y-108564819D02*
X78702382Y-108564819D01*
X77797620Y-108564819D02*
X77892858Y-108517200D01*
X77892858Y-108517200D02*
X77940477Y-108421961D01*
X77940477Y-108421961D02*
X77940477Y-107564819D01*
X77035715Y-108517200D02*
X77130953Y-108564819D01*
X77130953Y-108564819D02*
X77321429Y-108564819D01*
X77321429Y-108564819D02*
X77416667Y-108517200D01*
X77416667Y-108517200D02*
X77464286Y-108421961D01*
X77464286Y-108421961D02*
X77464286Y-108041009D01*
X77464286Y-108041009D02*
X77416667Y-107945771D01*
X77416667Y-107945771D02*
X77321429Y-107898152D01*
X77321429Y-107898152D02*
X77130953Y-107898152D01*
X77130953Y-107898152D02*
X77035715Y-107945771D01*
X77035715Y-107945771D02*
X76988096Y-108041009D01*
X76988096Y-108041009D02*
X76988096Y-108136247D01*
X76988096Y-108136247D02*
X77464286Y-108231485D01*
X75226191Y-108564819D02*
X75559524Y-108088628D01*
X75797619Y-108564819D02*
X75797619Y-107564819D01*
X75797619Y-107564819D02*
X75416667Y-107564819D01*
X75416667Y-107564819D02*
X75321429Y-107612438D01*
X75321429Y-107612438D02*
X75273810Y-107660057D01*
X75273810Y-107660057D02*
X75226191Y-107755295D01*
X75226191Y-107755295D02*
X75226191Y-107898152D01*
X75226191Y-107898152D02*
X75273810Y-107993390D01*
X75273810Y-107993390D02*
X75321429Y-108041009D01*
X75321429Y-108041009D02*
X75416667Y-108088628D01*
X75416667Y-108088628D02*
X75797619Y-108088628D01*
X74369048Y-108564819D02*
X74369048Y-108041009D01*
X74369048Y-108041009D02*
X74416667Y-107945771D01*
X74416667Y-107945771D02*
X74511905Y-107898152D01*
X74511905Y-107898152D02*
X74702381Y-107898152D01*
X74702381Y-107898152D02*
X74797619Y-107945771D01*
X74369048Y-108517200D02*
X74464286Y-108564819D01*
X74464286Y-108564819D02*
X74702381Y-108564819D01*
X74702381Y-108564819D02*
X74797619Y-108517200D01*
X74797619Y-108517200D02*
X74845238Y-108421961D01*
X74845238Y-108421961D02*
X74845238Y-108326723D01*
X74845238Y-108326723D02*
X74797619Y-108231485D01*
X74797619Y-108231485D02*
X74702381Y-108183866D01*
X74702381Y-108183866D02*
X74464286Y-108183866D01*
X74464286Y-108183866D02*
X74369048Y-108136247D01*
X73940476Y-108517200D02*
X73845238Y-108564819D01*
X73845238Y-108564819D02*
X73654762Y-108564819D01*
X73654762Y-108564819D02*
X73559524Y-108517200D01*
X73559524Y-108517200D02*
X73511905Y-108421961D01*
X73511905Y-108421961D02*
X73511905Y-108374342D01*
X73511905Y-108374342D02*
X73559524Y-108279104D01*
X73559524Y-108279104D02*
X73654762Y-108231485D01*
X73654762Y-108231485D02*
X73797619Y-108231485D01*
X73797619Y-108231485D02*
X73892857Y-108183866D01*
X73892857Y-108183866D02*
X73940476Y-108088628D01*
X73940476Y-108088628D02*
X73940476Y-108041009D01*
X73940476Y-108041009D02*
X73892857Y-107945771D01*
X73892857Y-107945771D02*
X73797619Y-107898152D01*
X73797619Y-107898152D02*
X73654762Y-107898152D01*
X73654762Y-107898152D02*
X73559524Y-107945771D01*
X73083333Y-107898152D02*
X73083333Y-108898152D01*
X73083333Y-107945771D02*
X72988095Y-107898152D01*
X72988095Y-107898152D02*
X72797619Y-107898152D01*
X72797619Y-107898152D02*
X72702381Y-107945771D01*
X72702381Y-107945771D02*
X72654762Y-107993390D01*
X72654762Y-107993390D02*
X72607143Y-108088628D01*
X72607143Y-108088628D02*
X72607143Y-108374342D01*
X72607143Y-108374342D02*
X72654762Y-108469580D01*
X72654762Y-108469580D02*
X72702381Y-108517200D01*
X72702381Y-108517200D02*
X72797619Y-108564819D01*
X72797619Y-108564819D02*
X72988095Y-108564819D01*
X72988095Y-108564819D02*
X73083333Y-108517200D01*
X72178571Y-108564819D02*
X72178571Y-107564819D01*
X72178571Y-107945771D02*
X72083333Y-107898152D01*
X72083333Y-107898152D02*
X71892857Y-107898152D01*
X71892857Y-107898152D02*
X71797619Y-107945771D01*
X71797619Y-107945771D02*
X71750000Y-107993390D01*
X71750000Y-107993390D02*
X71702381Y-108088628D01*
X71702381Y-108088628D02*
X71702381Y-108374342D01*
X71702381Y-108374342D02*
X71750000Y-108469580D01*
X71750000Y-108469580D02*
X71797619Y-108517200D01*
X71797619Y-108517200D02*
X71892857Y-108564819D01*
X71892857Y-108564819D02*
X72083333Y-108564819D01*
X72083333Y-108564819D02*
X72178571Y-108517200D01*
X70892857Y-108517200D02*
X70988095Y-108564819D01*
X70988095Y-108564819D02*
X71178571Y-108564819D01*
X71178571Y-108564819D02*
X71273809Y-108517200D01*
X71273809Y-108517200D02*
X71321428Y-108421961D01*
X71321428Y-108421961D02*
X71321428Y-108041009D01*
X71321428Y-108041009D02*
X71273809Y-107945771D01*
X71273809Y-107945771D02*
X71178571Y-107898152D01*
X71178571Y-107898152D02*
X70988095Y-107898152D01*
X70988095Y-107898152D02*
X70892857Y-107945771D01*
X70892857Y-107945771D02*
X70845238Y-108041009D01*
X70845238Y-108041009D02*
X70845238Y-108136247D01*
X70845238Y-108136247D02*
X71321428Y-108231485D01*
X70416666Y-108564819D02*
X70416666Y-107898152D01*
X70416666Y-108088628D02*
X70369047Y-107993390D01*
X70369047Y-107993390D02*
X70321428Y-107945771D01*
X70321428Y-107945771D02*
X70226190Y-107898152D01*
X70226190Y-107898152D02*
X70130952Y-107898152D01*
X69797618Y-108564819D02*
X69797618Y-107898152D01*
X69797618Y-108088628D02*
X69749999Y-107993390D01*
X69749999Y-107993390D02*
X69702380Y-107945771D01*
X69702380Y-107945771D02*
X69607142Y-107898152D01*
X69607142Y-107898152D02*
X69511904Y-107898152D01*
X69273808Y-107898152D02*
X69035713Y-108564819D01*
X68797618Y-107898152D02*
X69035713Y-108564819D01*
X69035713Y-108564819D02*
X69130951Y-108802914D01*
X69130951Y-108802914D02*
X69178570Y-108850533D01*
X69178570Y-108850533D02*
X69273808Y-108898152D01*
X67654760Y-108564819D02*
X67654760Y-107564819D01*
X67654760Y-107564819D02*
X67273808Y-107564819D01*
X67273808Y-107564819D02*
X67178570Y-107612438D01*
X67178570Y-107612438D02*
X67130951Y-107660057D01*
X67130951Y-107660057D02*
X67083332Y-107755295D01*
X67083332Y-107755295D02*
X67083332Y-107898152D01*
X67083332Y-107898152D02*
X67130951Y-107993390D01*
X67130951Y-107993390D02*
X67178570Y-108041009D01*
X67178570Y-108041009D02*
X67273808Y-108088628D01*
X67273808Y-108088628D02*
X67654760Y-108088628D01*
X66654760Y-108564819D02*
X66654760Y-107898152D01*
X66654760Y-107564819D02*
X66702379Y-107612438D01*
X66702379Y-107612438D02*
X66654760Y-107660057D01*
X66654760Y-107660057D02*
X66607141Y-107612438D01*
X66607141Y-107612438D02*
X66654760Y-107564819D01*
X66654760Y-107564819D02*
X66654760Y-107660057D01*
X65416665Y-108564819D02*
X65416665Y-107564819D01*
X65416665Y-108041009D02*
X64845237Y-108041009D01*
X64845237Y-108564819D02*
X64845237Y-107564819D01*
X64416665Y-108279104D02*
X63940475Y-108279104D01*
X64511903Y-108564819D02*
X64178570Y-107564819D01*
X64178570Y-107564819D02*
X63845237Y-108564819D01*
X63654760Y-107564819D02*
X63083332Y-107564819D01*
X63369046Y-108564819D02*
X63369046Y-107564819D01*
X62702379Y-108517200D02*
X62702379Y-108564819D01*
X62702379Y-108564819D02*
X62749998Y-108660057D01*
X62749998Y-108660057D02*
X62797617Y-108707676D01*
X61083332Y-107898152D02*
X61083332Y-108564819D01*
X61321427Y-107517200D02*
X61559522Y-108231485D01*
X61559522Y-108231485D02*
X60940475Y-108231485D01*
X59654760Y-108564819D02*
X59749998Y-108517200D01*
X59749998Y-108517200D02*
X59797617Y-108421961D01*
X59797617Y-108421961D02*
X59797617Y-107564819D01*
X58845236Y-108564819D02*
X58845236Y-108041009D01*
X58845236Y-108041009D02*
X58892855Y-107945771D01*
X58892855Y-107945771D02*
X58988093Y-107898152D01*
X58988093Y-107898152D02*
X59178569Y-107898152D01*
X59178569Y-107898152D02*
X59273807Y-107945771D01*
X58845236Y-108517200D02*
X58940474Y-108564819D01*
X58940474Y-108564819D02*
X59178569Y-108564819D01*
X59178569Y-108564819D02*
X59273807Y-108517200D01*
X59273807Y-108517200D02*
X59321426Y-108421961D01*
X59321426Y-108421961D02*
X59321426Y-108326723D01*
X59321426Y-108326723D02*
X59273807Y-108231485D01*
X59273807Y-108231485D02*
X59178569Y-108183866D01*
X59178569Y-108183866D02*
X58940474Y-108183866D01*
X58940474Y-108183866D02*
X58845236Y-108136247D01*
X58464283Y-107898152D02*
X58226188Y-108564819D01*
X57988093Y-107898152D02*
X58226188Y-108564819D01*
X58226188Y-108564819D02*
X58321426Y-108802914D01*
X58321426Y-108802914D02*
X58369045Y-108850533D01*
X58369045Y-108850533D02*
X58464283Y-108898152D01*
X57226188Y-108517200D02*
X57321426Y-108564819D01*
X57321426Y-108564819D02*
X57511902Y-108564819D01*
X57511902Y-108564819D02*
X57607140Y-108517200D01*
X57607140Y-108517200D02*
X57654759Y-108421961D01*
X57654759Y-108421961D02*
X57654759Y-108041009D01*
X57654759Y-108041009D02*
X57607140Y-107945771D01*
X57607140Y-107945771D02*
X57511902Y-107898152D01*
X57511902Y-107898152D02*
X57321426Y-107898152D01*
X57321426Y-107898152D02*
X57226188Y-107945771D01*
X57226188Y-107945771D02*
X57178569Y-108041009D01*
X57178569Y-108041009D02*
X57178569Y-108136247D01*
X57178569Y-108136247D02*
X57654759Y-108231485D01*
X56749997Y-108564819D02*
X56749997Y-107898152D01*
X56749997Y-108088628D02*
X56702378Y-107993390D01*
X56702378Y-107993390D02*
X56654759Y-107945771D01*
X56654759Y-107945771D02*
X56559521Y-107898152D01*
X56559521Y-107898152D02*
X56464283Y-107898152D01*
X56178568Y-108517200D02*
X56083330Y-108564819D01*
X56083330Y-108564819D02*
X55892854Y-108564819D01*
X55892854Y-108564819D02*
X55797616Y-108517200D01*
X55797616Y-108517200D02*
X55749997Y-108421961D01*
X55749997Y-108421961D02*
X55749997Y-108374342D01*
X55749997Y-108374342D02*
X55797616Y-108279104D01*
X55797616Y-108279104D02*
X55892854Y-108231485D01*
X55892854Y-108231485D02*
X56035711Y-108231485D01*
X56035711Y-108231485D02*
X56130949Y-108183866D01*
X56130949Y-108183866D02*
X56178568Y-108088628D01*
X56178568Y-108088628D02*
X56178568Y-108041009D01*
X56178568Y-108041009D02*
X56130949Y-107945771D01*
X56130949Y-107945771D02*
X56035711Y-107898152D01*
X56035711Y-107898152D02*
X55892854Y-107898152D01*
X55892854Y-107898152D02*
X55797616Y-107945771D01*
X81035714Y-110464819D02*
X81035714Y-109464819D01*
X81035714Y-109464819D02*
X80654762Y-109464819D01*
X80654762Y-109464819D02*
X80559524Y-109512438D01*
X80559524Y-109512438D02*
X80511905Y-109560057D01*
X80511905Y-109560057D02*
X80464286Y-109655295D01*
X80464286Y-109655295D02*
X80464286Y-109798152D01*
X80464286Y-109798152D02*
X80511905Y-109893390D01*
X80511905Y-109893390D02*
X80559524Y-109941009D01*
X80559524Y-109941009D02*
X80654762Y-109988628D01*
X80654762Y-109988628D02*
X81035714Y-109988628D01*
X80035714Y-110464819D02*
X80035714Y-109798152D01*
X80035714Y-109464819D02*
X80083333Y-109512438D01*
X80083333Y-109512438D02*
X80035714Y-109560057D01*
X80035714Y-109560057D02*
X79988095Y-109512438D01*
X79988095Y-109512438D02*
X80035714Y-109464819D01*
X80035714Y-109464819D02*
X80035714Y-109560057D01*
X78369048Y-109798152D02*
X78369048Y-110464819D01*
X78607143Y-109417200D02*
X78845238Y-110131485D01*
X78845238Y-110131485D02*
X78226191Y-110131485D01*
X77083333Y-109798152D02*
X77083333Y-110798152D01*
X77083333Y-109845771D02*
X76988095Y-109798152D01*
X76988095Y-109798152D02*
X76797619Y-109798152D01*
X76797619Y-109798152D02*
X76702381Y-109845771D01*
X76702381Y-109845771D02*
X76654762Y-109893390D01*
X76654762Y-109893390D02*
X76607143Y-109988628D01*
X76607143Y-109988628D02*
X76607143Y-110274342D01*
X76607143Y-110274342D02*
X76654762Y-110369580D01*
X76654762Y-110369580D02*
X76702381Y-110417200D01*
X76702381Y-110417200D02*
X76797619Y-110464819D01*
X76797619Y-110464819D02*
X76988095Y-110464819D01*
X76988095Y-110464819D02*
X77083333Y-110417200D01*
X76035714Y-110464819D02*
X76130952Y-110417200D01*
X76130952Y-110417200D02*
X76178571Y-110321961D01*
X76178571Y-110321961D02*
X76178571Y-109464819D01*
X75226190Y-109798152D02*
X75226190Y-110464819D01*
X75654761Y-109798152D02*
X75654761Y-110321961D01*
X75654761Y-110321961D02*
X75607142Y-110417200D01*
X75607142Y-110417200D02*
X75511904Y-110464819D01*
X75511904Y-110464819D02*
X75369047Y-110464819D01*
X75369047Y-110464819D02*
X75273809Y-110417200D01*
X75273809Y-110417200D02*
X75226190Y-110369580D01*
X74321428Y-109798152D02*
X74321428Y-110607676D01*
X74321428Y-110607676D02*
X74369047Y-110702914D01*
X74369047Y-110702914D02*
X74416666Y-110750533D01*
X74416666Y-110750533D02*
X74511904Y-110798152D01*
X74511904Y-110798152D02*
X74654761Y-110798152D01*
X74654761Y-110798152D02*
X74749999Y-110750533D01*
X74321428Y-110417200D02*
X74416666Y-110464819D01*
X74416666Y-110464819D02*
X74607142Y-110464819D01*
X74607142Y-110464819D02*
X74702380Y-110417200D01*
X74702380Y-110417200D02*
X74749999Y-110369580D01*
X74749999Y-110369580D02*
X74797618Y-110274342D01*
X74797618Y-110274342D02*
X74797618Y-109988628D01*
X74797618Y-109988628D02*
X74749999Y-109893390D01*
X74749999Y-109893390D02*
X74702380Y-109845771D01*
X74702380Y-109845771D02*
X74607142Y-109798152D01*
X74607142Y-109798152D02*
X74416666Y-109798152D01*
X74416666Y-109798152D02*
X74321428Y-109845771D01*
X73892856Y-110417200D02*
X73797618Y-110464819D01*
X73797618Y-110464819D02*
X73607142Y-110464819D01*
X73607142Y-110464819D02*
X73511904Y-110417200D01*
X73511904Y-110417200D02*
X73464285Y-110321961D01*
X73464285Y-110321961D02*
X73464285Y-110274342D01*
X73464285Y-110274342D02*
X73511904Y-110179104D01*
X73511904Y-110179104D02*
X73607142Y-110131485D01*
X73607142Y-110131485D02*
X73749999Y-110131485D01*
X73749999Y-110131485D02*
X73845237Y-110083866D01*
X73845237Y-110083866D02*
X73892856Y-109988628D01*
X73892856Y-109988628D02*
X73892856Y-109941009D01*
X73892856Y-109941009D02*
X73845237Y-109845771D01*
X73845237Y-109845771D02*
X73749999Y-109798152D01*
X73749999Y-109798152D02*
X73607142Y-109798152D01*
X73607142Y-109798152D02*
X73511904Y-109845771D01*
X72273808Y-110464819D02*
X72273808Y-109798152D01*
X72273808Y-109464819D02*
X72321427Y-109512438D01*
X72321427Y-109512438D02*
X72273808Y-109560057D01*
X72273808Y-109560057D02*
X72226189Y-109512438D01*
X72226189Y-109512438D02*
X72273808Y-109464819D01*
X72273808Y-109464819D02*
X72273808Y-109560057D01*
X71797618Y-109798152D02*
X71797618Y-110464819D01*
X71797618Y-109893390D02*
X71749999Y-109845771D01*
X71749999Y-109845771D02*
X71654761Y-109798152D01*
X71654761Y-109798152D02*
X71511904Y-109798152D01*
X71511904Y-109798152D02*
X71416666Y-109845771D01*
X71416666Y-109845771D02*
X71369047Y-109941009D01*
X71369047Y-109941009D02*
X71369047Y-110464819D01*
X69988094Y-110464819D02*
X70083332Y-110417200D01*
X70083332Y-110417200D02*
X70130951Y-110369580D01*
X70130951Y-110369580D02*
X70178570Y-110274342D01*
X70178570Y-110274342D02*
X70178570Y-109988628D01*
X70178570Y-109988628D02*
X70130951Y-109893390D01*
X70130951Y-109893390D02*
X70083332Y-109845771D01*
X70083332Y-109845771D02*
X69988094Y-109798152D01*
X69988094Y-109798152D02*
X69845237Y-109798152D01*
X69845237Y-109798152D02*
X69749999Y-109845771D01*
X69749999Y-109845771D02*
X69702380Y-109893390D01*
X69702380Y-109893390D02*
X69654761Y-109988628D01*
X69654761Y-109988628D02*
X69654761Y-110274342D01*
X69654761Y-110274342D02*
X69702380Y-110369580D01*
X69702380Y-110369580D02*
X69749999Y-110417200D01*
X69749999Y-110417200D02*
X69845237Y-110464819D01*
X69845237Y-110464819D02*
X69988094Y-110464819D01*
X69226189Y-109798152D02*
X69226189Y-110464819D01*
X69226189Y-109893390D02*
X69178570Y-109845771D01*
X69178570Y-109845771D02*
X69083332Y-109798152D01*
X69083332Y-109798152D02*
X68940475Y-109798152D01*
X68940475Y-109798152D02*
X68845237Y-109845771D01*
X68845237Y-109845771D02*
X68797618Y-109941009D01*
X68797618Y-109941009D02*
X68797618Y-110464819D01*
X67702379Y-109798152D02*
X67321427Y-109798152D01*
X67559522Y-109464819D02*
X67559522Y-110321961D01*
X67559522Y-110321961D02*
X67511903Y-110417200D01*
X67511903Y-110417200D02*
X67416665Y-110464819D01*
X67416665Y-110464819D02*
X67321427Y-110464819D01*
X66988093Y-110464819D02*
X66988093Y-109464819D01*
X66559522Y-110464819D02*
X66559522Y-109941009D01*
X66559522Y-109941009D02*
X66607141Y-109845771D01*
X66607141Y-109845771D02*
X66702379Y-109798152D01*
X66702379Y-109798152D02*
X66845236Y-109798152D01*
X66845236Y-109798152D02*
X66940474Y-109845771D01*
X66940474Y-109845771D02*
X66988093Y-109893390D01*
X66083331Y-110464819D02*
X66083331Y-109798152D01*
X66083331Y-109464819D02*
X66130950Y-109512438D01*
X66130950Y-109512438D02*
X66083331Y-109560057D01*
X66083331Y-109560057D02*
X66035712Y-109512438D01*
X66035712Y-109512438D02*
X66083331Y-109464819D01*
X66083331Y-109464819D02*
X66083331Y-109560057D01*
X65654760Y-110417200D02*
X65559522Y-110464819D01*
X65559522Y-110464819D02*
X65369046Y-110464819D01*
X65369046Y-110464819D02*
X65273808Y-110417200D01*
X65273808Y-110417200D02*
X65226189Y-110321961D01*
X65226189Y-110321961D02*
X65226189Y-110274342D01*
X65226189Y-110274342D02*
X65273808Y-110179104D01*
X65273808Y-110179104D02*
X65369046Y-110131485D01*
X65369046Y-110131485D02*
X65511903Y-110131485D01*
X65511903Y-110131485D02*
X65607141Y-110083866D01*
X65607141Y-110083866D02*
X65654760Y-109988628D01*
X65654760Y-109988628D02*
X65654760Y-109941009D01*
X65654760Y-109941009D02*
X65607141Y-109845771D01*
X65607141Y-109845771D02*
X65511903Y-109798152D01*
X65511903Y-109798152D02*
X65369046Y-109798152D01*
X65369046Y-109798152D02*
X65273808Y-109845771D01*
X64083331Y-110417200D02*
X63988093Y-110464819D01*
X63988093Y-110464819D02*
X63797617Y-110464819D01*
X63797617Y-110464819D02*
X63702379Y-110417200D01*
X63702379Y-110417200D02*
X63654760Y-110321961D01*
X63654760Y-110321961D02*
X63654760Y-110274342D01*
X63654760Y-110274342D02*
X63702379Y-110179104D01*
X63702379Y-110179104D02*
X63797617Y-110131485D01*
X63797617Y-110131485D02*
X63940474Y-110131485D01*
X63940474Y-110131485D02*
X64035712Y-110083866D01*
X64035712Y-110083866D02*
X64083331Y-109988628D01*
X64083331Y-109988628D02*
X64083331Y-109941009D01*
X64083331Y-109941009D02*
X64035712Y-109845771D01*
X64035712Y-109845771D02*
X63940474Y-109798152D01*
X63940474Y-109798152D02*
X63797617Y-109798152D01*
X63797617Y-109798152D02*
X63702379Y-109845771D01*
X63226188Y-110464819D02*
X63226188Y-109798152D01*
X63226188Y-109464819D02*
X63273807Y-109512438D01*
X63273807Y-109512438D02*
X63226188Y-109560057D01*
X63226188Y-109560057D02*
X63178569Y-109512438D01*
X63178569Y-109512438D02*
X63226188Y-109464819D01*
X63226188Y-109464819D02*
X63226188Y-109560057D01*
X62321427Y-110464819D02*
X62321427Y-109464819D01*
X62321427Y-110417200D02*
X62416665Y-110464819D01*
X62416665Y-110464819D02*
X62607141Y-110464819D01*
X62607141Y-110464819D02*
X62702379Y-110417200D01*
X62702379Y-110417200D02*
X62749998Y-110369580D01*
X62749998Y-110369580D02*
X62797617Y-110274342D01*
X62797617Y-110274342D02*
X62797617Y-109988628D01*
X62797617Y-109988628D02*
X62749998Y-109893390D01*
X62749998Y-109893390D02*
X62702379Y-109845771D01*
X62702379Y-109845771D02*
X62607141Y-109798152D01*
X62607141Y-109798152D02*
X62416665Y-109798152D01*
X62416665Y-109798152D02*
X62321427Y-109845771D01*
X61464284Y-110417200D02*
X61559522Y-110464819D01*
X61559522Y-110464819D02*
X61749998Y-110464819D01*
X61749998Y-110464819D02*
X61845236Y-110417200D01*
X61845236Y-110417200D02*
X61892855Y-110321961D01*
X61892855Y-110321961D02*
X61892855Y-109941009D01*
X61892855Y-109941009D02*
X61845236Y-109845771D01*
X61845236Y-109845771D02*
X61749998Y-109798152D01*
X61749998Y-109798152D02*
X61559522Y-109798152D01*
X61559522Y-109798152D02*
X61464284Y-109845771D01*
X61464284Y-109845771D02*
X61416665Y-109941009D01*
X61416665Y-109941009D02*
X61416665Y-110036247D01*
X61416665Y-110036247D02*
X61892855Y-110131485D01*
X84107145Y-111364819D02*
X84107145Y-112174342D01*
X84107145Y-112174342D02*
X84059526Y-112269580D01*
X84059526Y-112269580D02*
X84011907Y-112317200D01*
X84011907Y-112317200D02*
X83916669Y-112364819D01*
X83916669Y-112364819D02*
X83726193Y-112364819D01*
X83726193Y-112364819D02*
X83630955Y-112317200D01*
X83630955Y-112317200D02*
X83583336Y-112269580D01*
X83583336Y-112269580D02*
X83535717Y-112174342D01*
X83535717Y-112174342D02*
X83535717Y-111364819D01*
X83107145Y-112317200D02*
X82964288Y-112364819D01*
X82964288Y-112364819D02*
X82726193Y-112364819D01*
X82726193Y-112364819D02*
X82630955Y-112317200D01*
X82630955Y-112317200D02*
X82583336Y-112269580D01*
X82583336Y-112269580D02*
X82535717Y-112174342D01*
X82535717Y-112174342D02*
X82535717Y-112079104D01*
X82535717Y-112079104D02*
X82583336Y-111983866D01*
X82583336Y-111983866D02*
X82630955Y-111936247D01*
X82630955Y-111936247D02*
X82726193Y-111888628D01*
X82726193Y-111888628D02*
X82916669Y-111841009D01*
X82916669Y-111841009D02*
X83011907Y-111793390D01*
X83011907Y-111793390D02*
X83059526Y-111745771D01*
X83059526Y-111745771D02*
X83107145Y-111650533D01*
X83107145Y-111650533D02*
X83107145Y-111555295D01*
X83107145Y-111555295D02*
X83059526Y-111460057D01*
X83059526Y-111460057D02*
X83011907Y-111412438D01*
X83011907Y-111412438D02*
X82916669Y-111364819D01*
X82916669Y-111364819D02*
X82678574Y-111364819D01*
X82678574Y-111364819D02*
X82535717Y-111412438D01*
X81773812Y-111841009D02*
X81630955Y-111888628D01*
X81630955Y-111888628D02*
X81583336Y-111936247D01*
X81583336Y-111936247D02*
X81535717Y-112031485D01*
X81535717Y-112031485D02*
X81535717Y-112174342D01*
X81535717Y-112174342D02*
X81583336Y-112269580D01*
X81583336Y-112269580D02*
X81630955Y-112317200D01*
X81630955Y-112317200D02*
X81726193Y-112364819D01*
X81726193Y-112364819D02*
X82107145Y-112364819D01*
X82107145Y-112364819D02*
X82107145Y-111364819D01*
X82107145Y-111364819D02*
X81773812Y-111364819D01*
X81773812Y-111364819D02*
X81678574Y-111412438D01*
X81678574Y-111412438D02*
X81630955Y-111460057D01*
X81630955Y-111460057D02*
X81583336Y-111555295D01*
X81583336Y-111555295D02*
X81583336Y-111650533D01*
X81583336Y-111650533D02*
X81630955Y-111745771D01*
X81630955Y-111745771D02*
X81678574Y-111793390D01*
X81678574Y-111793390D02*
X81773812Y-111841009D01*
X81773812Y-111841009D02*
X82107145Y-111841009D01*
X79630955Y-111317200D02*
X80488097Y-112602914D01*
X78535716Y-111841009D02*
X78202383Y-111841009D01*
X78059526Y-112364819D02*
X78535716Y-112364819D01*
X78535716Y-112364819D02*
X78535716Y-111364819D01*
X78535716Y-111364819D02*
X78059526Y-111364819D01*
X77773811Y-111698152D02*
X77392859Y-111698152D01*
X77630954Y-111364819D02*
X77630954Y-112221961D01*
X77630954Y-112221961D02*
X77583335Y-112317200D01*
X77583335Y-112317200D02*
X77488097Y-112364819D01*
X77488097Y-112364819D02*
X77392859Y-112364819D01*
X77059525Y-112364819D02*
X77059525Y-111364819D01*
X76630954Y-112364819D02*
X76630954Y-111841009D01*
X76630954Y-111841009D02*
X76678573Y-111745771D01*
X76678573Y-111745771D02*
X76773811Y-111698152D01*
X76773811Y-111698152D02*
X76916668Y-111698152D01*
X76916668Y-111698152D02*
X77011906Y-111745771D01*
X77011906Y-111745771D02*
X77059525Y-111793390D01*
X75773811Y-112317200D02*
X75869049Y-112364819D01*
X75869049Y-112364819D02*
X76059525Y-112364819D01*
X76059525Y-112364819D02*
X76154763Y-112317200D01*
X76154763Y-112317200D02*
X76202382Y-112221961D01*
X76202382Y-112221961D02*
X76202382Y-111841009D01*
X76202382Y-111841009D02*
X76154763Y-111745771D01*
X76154763Y-111745771D02*
X76059525Y-111698152D01*
X76059525Y-111698152D02*
X75869049Y-111698152D01*
X75869049Y-111698152D02*
X75773811Y-111745771D01*
X75773811Y-111745771D02*
X75726192Y-111841009D01*
X75726192Y-111841009D02*
X75726192Y-111936247D01*
X75726192Y-111936247D02*
X76202382Y-112031485D01*
X75297620Y-112364819D02*
X75297620Y-111698152D01*
X75297620Y-111888628D02*
X75250001Y-111793390D01*
X75250001Y-111793390D02*
X75202382Y-111745771D01*
X75202382Y-111745771D02*
X75107144Y-111698152D01*
X75107144Y-111698152D02*
X75011906Y-111698152D01*
X74678572Y-111698152D02*
X74678572Y-112364819D01*
X74678572Y-111793390D02*
X74630953Y-111745771D01*
X74630953Y-111745771D02*
X74535715Y-111698152D01*
X74535715Y-111698152D02*
X74392858Y-111698152D01*
X74392858Y-111698152D02*
X74297620Y-111745771D01*
X74297620Y-111745771D02*
X74250001Y-111841009D01*
X74250001Y-111841009D02*
X74250001Y-112364819D01*
X73392858Y-112317200D02*
X73488096Y-112364819D01*
X73488096Y-112364819D02*
X73678572Y-112364819D01*
X73678572Y-112364819D02*
X73773810Y-112317200D01*
X73773810Y-112317200D02*
X73821429Y-112221961D01*
X73821429Y-112221961D02*
X73821429Y-111841009D01*
X73821429Y-111841009D02*
X73773810Y-111745771D01*
X73773810Y-111745771D02*
X73678572Y-111698152D01*
X73678572Y-111698152D02*
X73488096Y-111698152D01*
X73488096Y-111698152D02*
X73392858Y-111745771D01*
X73392858Y-111745771D02*
X73345239Y-111841009D01*
X73345239Y-111841009D02*
X73345239Y-111936247D01*
X73345239Y-111936247D02*
X73821429Y-112031485D01*
X73059524Y-111698152D02*
X72678572Y-111698152D01*
X72916667Y-111364819D02*
X72916667Y-112221961D01*
X72916667Y-112221961D02*
X72869048Y-112317200D01*
X72869048Y-112317200D02*
X72773810Y-112364819D01*
X72773810Y-112364819D02*
X72678572Y-112364819D01*
X71440476Y-112364819D02*
X71535714Y-112317200D01*
X71535714Y-112317200D02*
X71583333Y-112269580D01*
X71583333Y-112269580D02*
X71630952Y-112174342D01*
X71630952Y-112174342D02*
X71630952Y-111888628D01*
X71630952Y-111888628D02*
X71583333Y-111793390D01*
X71583333Y-111793390D02*
X71535714Y-111745771D01*
X71535714Y-111745771D02*
X71440476Y-111698152D01*
X71440476Y-111698152D02*
X71297619Y-111698152D01*
X71297619Y-111698152D02*
X71202381Y-111745771D01*
X71202381Y-111745771D02*
X71154762Y-111793390D01*
X71154762Y-111793390D02*
X71107143Y-111888628D01*
X71107143Y-111888628D02*
X71107143Y-112174342D01*
X71107143Y-112174342D02*
X71154762Y-112269580D01*
X71154762Y-112269580D02*
X71202381Y-112317200D01*
X71202381Y-112317200D02*
X71297619Y-112364819D01*
X71297619Y-112364819D02*
X71440476Y-112364819D01*
X70773809Y-111698152D02*
X70535714Y-112364819D01*
X70535714Y-112364819D02*
X70297619Y-111698152D01*
X69535714Y-112317200D02*
X69630952Y-112364819D01*
X69630952Y-112364819D02*
X69821428Y-112364819D01*
X69821428Y-112364819D02*
X69916666Y-112317200D01*
X69916666Y-112317200D02*
X69964285Y-112221961D01*
X69964285Y-112221961D02*
X69964285Y-111841009D01*
X69964285Y-111841009D02*
X69916666Y-111745771D01*
X69916666Y-111745771D02*
X69821428Y-111698152D01*
X69821428Y-111698152D02*
X69630952Y-111698152D01*
X69630952Y-111698152D02*
X69535714Y-111745771D01*
X69535714Y-111745771D02*
X69488095Y-111841009D01*
X69488095Y-111841009D02*
X69488095Y-111936247D01*
X69488095Y-111936247D02*
X69964285Y-112031485D01*
X69059523Y-112364819D02*
X69059523Y-111698152D01*
X69059523Y-111888628D02*
X69011904Y-111793390D01*
X69011904Y-111793390D02*
X68964285Y-111745771D01*
X68964285Y-111745771D02*
X68869047Y-111698152D01*
X68869047Y-111698152D02*
X68773809Y-111698152D01*
X67821427Y-111698152D02*
X67440475Y-111698152D01*
X67678570Y-111364819D02*
X67678570Y-112221961D01*
X67678570Y-112221961D02*
X67630951Y-112317200D01*
X67630951Y-112317200D02*
X67535713Y-112364819D01*
X67535713Y-112364819D02*
X67440475Y-112364819D01*
X67107141Y-112364819D02*
X67107141Y-111364819D01*
X66678570Y-112364819D02*
X66678570Y-111841009D01*
X66678570Y-111841009D02*
X66726189Y-111745771D01*
X66726189Y-111745771D02*
X66821427Y-111698152D01*
X66821427Y-111698152D02*
X66964284Y-111698152D01*
X66964284Y-111698152D02*
X67059522Y-111745771D01*
X67059522Y-111745771D02*
X67107141Y-111793390D01*
X65821427Y-112317200D02*
X65916665Y-112364819D01*
X65916665Y-112364819D02*
X66107141Y-112364819D01*
X66107141Y-112364819D02*
X66202379Y-112317200D01*
X66202379Y-112317200D02*
X66249998Y-112221961D01*
X66249998Y-112221961D02*
X66249998Y-111841009D01*
X66249998Y-111841009D02*
X66202379Y-111745771D01*
X66202379Y-111745771D02*
X66107141Y-111698152D01*
X66107141Y-111698152D02*
X65916665Y-111698152D01*
X65916665Y-111698152D02*
X65821427Y-111745771D01*
X65821427Y-111745771D02*
X65773808Y-111841009D01*
X65773808Y-111841009D02*
X65773808Y-111936247D01*
X65773808Y-111936247D02*
X66249998Y-112031485D01*
X64726188Y-111698152D02*
X64345236Y-111698152D01*
X64583331Y-111364819D02*
X64583331Y-112221961D01*
X64583331Y-112221961D02*
X64535712Y-112317200D01*
X64535712Y-112317200D02*
X64440474Y-112364819D01*
X64440474Y-112364819D02*
X64345236Y-112364819D01*
X63869045Y-112364819D02*
X63964283Y-112317200D01*
X63964283Y-112317200D02*
X64011902Y-112269580D01*
X64011902Y-112269580D02*
X64059521Y-112174342D01*
X64059521Y-112174342D02*
X64059521Y-111888628D01*
X64059521Y-111888628D02*
X64011902Y-111793390D01*
X64011902Y-111793390D02*
X63964283Y-111745771D01*
X63964283Y-111745771D02*
X63869045Y-111698152D01*
X63869045Y-111698152D02*
X63726188Y-111698152D01*
X63726188Y-111698152D02*
X63630950Y-111745771D01*
X63630950Y-111745771D02*
X63583331Y-111793390D01*
X63583331Y-111793390D02*
X63535712Y-111888628D01*
X63535712Y-111888628D02*
X63535712Y-112174342D01*
X63535712Y-112174342D02*
X63583331Y-112269580D01*
X63583331Y-112269580D02*
X63630950Y-112317200D01*
X63630950Y-112317200D02*
X63726188Y-112364819D01*
X63726188Y-112364819D02*
X63869045Y-112364819D01*
X63107140Y-111698152D02*
X63107140Y-112698152D01*
X63107140Y-111745771D02*
X63011902Y-111698152D01*
X63011902Y-111698152D02*
X62821426Y-111698152D01*
X62821426Y-111698152D02*
X62726188Y-111745771D01*
X62726188Y-111745771D02*
X62678569Y-111793390D01*
X62678569Y-111793390D02*
X62630950Y-111888628D01*
X62630950Y-111888628D02*
X62630950Y-112174342D01*
X62630950Y-112174342D02*
X62678569Y-112269580D01*
X62678569Y-112269580D02*
X62726188Y-112317200D01*
X62726188Y-112317200D02*
X62821426Y-112364819D01*
X62821426Y-112364819D02*
X63011902Y-112364819D01*
X63011902Y-112364819D02*
X63107140Y-112317200D01*
X61059521Y-112317200D02*
X61154759Y-112364819D01*
X61154759Y-112364819D02*
X61345235Y-112364819D01*
X61345235Y-112364819D02*
X61440473Y-112317200D01*
X61440473Y-112317200D02*
X61488092Y-112221961D01*
X61488092Y-112221961D02*
X61488092Y-111841009D01*
X61488092Y-111841009D02*
X61440473Y-111745771D01*
X61440473Y-111745771D02*
X61345235Y-111698152D01*
X61345235Y-111698152D02*
X61154759Y-111698152D01*
X61154759Y-111698152D02*
X61059521Y-111745771D01*
X61059521Y-111745771D02*
X61011902Y-111841009D01*
X61011902Y-111841009D02*
X61011902Y-111936247D01*
X61011902Y-111936247D02*
X61488092Y-112031485D01*
X60154759Y-112364819D02*
X60154759Y-111364819D01*
X60154759Y-112317200D02*
X60249997Y-112364819D01*
X60249997Y-112364819D02*
X60440473Y-112364819D01*
X60440473Y-112364819D02*
X60535711Y-112317200D01*
X60535711Y-112317200D02*
X60583330Y-112269580D01*
X60583330Y-112269580D02*
X60630949Y-112174342D01*
X60630949Y-112174342D02*
X60630949Y-111888628D01*
X60630949Y-111888628D02*
X60583330Y-111793390D01*
X60583330Y-111793390D02*
X60535711Y-111745771D01*
X60535711Y-111745771D02*
X60440473Y-111698152D01*
X60440473Y-111698152D02*
X60249997Y-111698152D01*
X60249997Y-111698152D02*
X60154759Y-111745771D01*
X59249997Y-111698152D02*
X59249997Y-112507676D01*
X59249997Y-112507676D02*
X59297616Y-112602914D01*
X59297616Y-112602914D02*
X59345235Y-112650533D01*
X59345235Y-112650533D02*
X59440473Y-112698152D01*
X59440473Y-112698152D02*
X59583330Y-112698152D01*
X59583330Y-112698152D02*
X59678568Y-112650533D01*
X59249997Y-112317200D02*
X59345235Y-112364819D01*
X59345235Y-112364819D02*
X59535711Y-112364819D01*
X59535711Y-112364819D02*
X59630949Y-112317200D01*
X59630949Y-112317200D02*
X59678568Y-112269580D01*
X59678568Y-112269580D02*
X59726187Y-112174342D01*
X59726187Y-112174342D02*
X59726187Y-111888628D01*
X59726187Y-111888628D02*
X59678568Y-111793390D01*
X59678568Y-111793390D02*
X59630949Y-111745771D01*
X59630949Y-111745771D02*
X59535711Y-111698152D01*
X59535711Y-111698152D02*
X59345235Y-111698152D01*
X59345235Y-111698152D02*
X59249997Y-111745771D01*
X58392854Y-112317200D02*
X58488092Y-112364819D01*
X58488092Y-112364819D02*
X58678568Y-112364819D01*
X58678568Y-112364819D02*
X58773806Y-112317200D01*
X58773806Y-112317200D02*
X58821425Y-112221961D01*
X58821425Y-112221961D02*
X58821425Y-111841009D01*
X58821425Y-111841009D02*
X58773806Y-111745771D01*
X58773806Y-111745771D02*
X58678568Y-111698152D01*
X58678568Y-111698152D02*
X58488092Y-111698152D01*
X58488092Y-111698152D02*
X58392854Y-111745771D01*
X58392854Y-111745771D02*
X58345235Y-111841009D01*
X58345235Y-111841009D02*
X58345235Y-111936247D01*
X58345235Y-111936247D02*
X58821425Y-112031485D01*
D11*
X80350000Y-105066746D02*
X79883334Y-106466746D01*
X79883334Y-106466746D02*
X79416667Y-105066746D01*
X78950000Y-106466746D02*
X78950000Y-105066746D01*
X78283333Y-106466746D02*
X78283333Y-105066746D01*
X78283333Y-105066746D02*
X77483333Y-106466746D01*
X77483333Y-106466746D02*
X77483333Y-105066746D01*
X76550000Y-105800080D02*
X76550000Y-106466746D01*
X77016666Y-105066746D02*
X76550000Y-105800080D01*
X76550000Y-105800080D02*
X76083333Y-105066746D01*
X74950000Y-106466746D02*
X75616666Y-106466746D01*
X75616666Y-106466746D02*
X75616666Y-105066746D01*
X73483333Y-106066746D02*
X72816666Y-106066746D01*
X73616666Y-106466746D02*
X73150000Y-105066746D01*
X73150000Y-105066746D02*
X72683333Y-106466746D01*
X72216666Y-106466746D02*
X72216666Y-105066746D01*
X72216666Y-105066746D02*
X71883333Y-105066746D01*
X71883333Y-105066746D02*
X71683333Y-105133413D01*
X71683333Y-105133413D02*
X71550000Y-105266746D01*
X71550000Y-105266746D02*
X71483333Y-105400080D01*
X71483333Y-105400080D02*
X71416666Y-105666746D01*
X71416666Y-105666746D02*
X71416666Y-105866746D01*
X71416666Y-105866746D02*
X71483333Y-106133413D01*
X71483333Y-106133413D02*
X71550000Y-106266746D01*
X71550000Y-106266746D02*
X71683333Y-106400080D01*
X71683333Y-106400080D02*
X71883333Y-106466746D01*
X71883333Y-106466746D02*
X72216666Y-106466746D01*
X70016666Y-106333413D02*
X70083333Y-106400080D01*
X70083333Y-106400080D02*
X70283333Y-106466746D01*
X70283333Y-106466746D02*
X70416666Y-106466746D01*
X70416666Y-106466746D02*
X70616666Y-106400080D01*
X70616666Y-106400080D02*
X70750000Y-106266746D01*
X70750000Y-106266746D02*
X70816666Y-106133413D01*
X70816666Y-106133413D02*
X70883333Y-105866746D01*
X70883333Y-105866746D02*
X70883333Y-105666746D01*
X70883333Y-105666746D02*
X70816666Y-105400080D01*
X70816666Y-105400080D02*
X70750000Y-105266746D01*
X70750000Y-105266746D02*
X70616666Y-105133413D01*
X70616666Y-105133413D02*
X70416666Y-105066746D01*
X70416666Y-105066746D02*
X70283333Y-105066746D01*
X70283333Y-105066746D02*
X70083333Y-105133413D01*
X70083333Y-105133413D02*
X70016666Y-105200080D01*
X67283332Y-106466746D02*
X67283332Y-105533413D01*
X67283332Y-105800080D02*
X67216666Y-105666746D01*
X67216666Y-105666746D02*
X67149999Y-105600080D01*
X67149999Y-105600080D02*
X67016666Y-105533413D01*
X67016666Y-105533413D02*
X66883332Y-105533413D01*
X65883332Y-106400080D02*
X66016665Y-106466746D01*
X66016665Y-106466746D02*
X66283332Y-106466746D01*
X66283332Y-106466746D02*
X66416665Y-106400080D01*
X66416665Y-106400080D02*
X66483332Y-106266746D01*
X66483332Y-106266746D02*
X66483332Y-105733413D01*
X66483332Y-105733413D02*
X66416665Y-105600080D01*
X66416665Y-105600080D02*
X66283332Y-105533413D01*
X66283332Y-105533413D02*
X66016665Y-105533413D01*
X66016665Y-105533413D02*
X65883332Y-105600080D01*
X65883332Y-105600080D02*
X65816665Y-105733413D01*
X65816665Y-105733413D02*
X65816665Y-105866746D01*
X65816665Y-105866746D02*
X66483332Y-106000080D01*
X65349999Y-105533413D02*
X65016665Y-106466746D01*
X65016665Y-106466746D02*
X64683332Y-105533413D01*
X63083331Y-106466746D02*
X63083331Y-105066746D01*
X63083331Y-105066746D02*
X62749998Y-105066746D01*
X62749998Y-105066746D02*
X62549998Y-105133413D01*
X62549998Y-105133413D02*
X62416665Y-105266746D01*
X62416665Y-105266746D02*
X62349998Y-105400080D01*
X62349998Y-105400080D02*
X62283331Y-105666746D01*
X62283331Y-105666746D02*
X62283331Y-105866746D01*
X62283331Y-105866746D02*
X62349998Y-106133413D01*
X62349998Y-106133413D02*
X62416665Y-106266746D01*
X62416665Y-106266746D02*
X62549998Y-106400080D01*
X62549998Y-106400080D02*
X62749998Y-106466746D01*
X62749998Y-106466746D02*
X63083331Y-106466746D01*
D10*
X87833333Y-58854819D02*
X87833333Y-59569104D01*
X87833333Y-59569104D02*
X87880952Y-59711961D01*
X87880952Y-59711961D02*
X87976190Y-59807200D01*
X87976190Y-59807200D02*
X88119047Y-59854819D01*
X88119047Y-59854819D02*
X88214285Y-59854819D01*
X87404761Y-58950057D02*
X87357142Y-58902438D01*
X87357142Y-58902438D02*
X87261904Y-58854819D01*
X87261904Y-58854819D02*
X87023809Y-58854819D01*
X87023809Y-58854819D02*
X86928571Y-58902438D01*
X86928571Y-58902438D02*
X86880952Y-58950057D01*
X86880952Y-58950057D02*
X86833333Y-59045295D01*
X86833333Y-59045295D02*
X86833333Y-59140533D01*
X86833333Y-59140533D02*
X86880952Y-59283390D01*
X86880952Y-59283390D02*
X87452380Y-59854819D01*
X87452380Y-59854819D02*
X86833333Y-59854819D01*
D12*
X84900000Y-7040000D02*
X90100000Y-7040000D01*
X84900000Y-57960000D02*
X84900000Y-7040000D01*
X84900000Y-57960000D02*
X87500000Y-57960000D01*
X87500000Y-55360000D02*
X90100000Y-55360000D01*
X87500000Y-57960000D02*
X87500000Y-55360000D01*
X88770000Y-57960000D02*
X90100000Y-57960000D01*
X90100000Y-55360000D02*
X90100000Y-7040000D01*
X90100000Y-57960000D02*
X90100000Y-56630000D01*
%LPC*%
D13*
X92500000Y-49250000D03*
D14*
X95040000Y-49250000D03*
X97580000Y-49250000D03*
X100120000Y-49250000D03*
X102660000Y-49250000D03*
X105200000Y-49250000D03*
X107740000Y-49250000D03*
X110280000Y-49250000D03*
X110280000Y-41630000D03*
X107740000Y-41630000D03*
X105200000Y-41630000D03*
X102660000Y-41630000D03*
X100120000Y-41630000D03*
X97580000Y-41630000D03*
X95040000Y-41630000D03*
X92500000Y-41630000D03*
D15*
X24500000Y-109250000D03*
D16*
X24500000Y-107980000D03*
X24500000Y-106710000D03*
D17*
X29500000Y-83000000D03*
X29500000Y-78000000D03*
X13750000Y-117000000D03*
X13750000Y-124620000D03*
D18*
X39500000Y-130000000D03*
D19*
X42040000Y-130000000D03*
D17*
X64000000Y-10250000D03*
X71620000Y-10250000D03*
D20*
X44250000Y-118000000D03*
D17*
X46750000Y-118000000D03*
X38250000Y-13000000D03*
X38250000Y-5380000D03*
D13*
X33750000Y-37250000D03*
D14*
X36290000Y-37250000D03*
X38830000Y-37250000D03*
X41370000Y-37250000D03*
X43910000Y-37250000D03*
X46450000Y-37250000D03*
X48990000Y-37250000D03*
X48990000Y-29630000D03*
X46450000Y-29630000D03*
X43910000Y-29630000D03*
X41370000Y-29630000D03*
X38830000Y-29630000D03*
X36290000Y-29630000D03*
X33750000Y-29630000D03*
D17*
X45750000Y-13000000D03*
X45750000Y-8000000D03*
X10750000Y-90250000D03*
X20750000Y-90250000D03*
X70500000Y-116750000D03*
X70500000Y-124370000D03*
X99750000Y-108000000D03*
X99750000Y-113000000D03*
X73250000Y-95750000D03*
X80870000Y-95750000D03*
X69500000Y-48500000D03*
X69500000Y-56120000D03*
D21*
X136500000Y-132500000D03*
D22*
X122750000Y-26000000D03*
D23*
X120210000Y-26000000D03*
X117670000Y-26000000D03*
D24*
X25000000Y-76000000D03*
D14*
X22460000Y-76000000D03*
X19920000Y-76000000D03*
X17380000Y-76000000D03*
X17380000Y-83620000D03*
X19920000Y-83620000D03*
X22460000Y-83620000D03*
X25000000Y-83620000D03*
D17*
X55000000Y-100250000D03*
X50000000Y-100250000D03*
D25*
X136500000Y-3500000D03*
D17*
X56500000Y-71500000D03*
X56500000Y-63880000D03*
D24*
X43750000Y-75000000D03*
D14*
X41210000Y-75000000D03*
X38670000Y-75000000D03*
X36130000Y-75000000D03*
X36130000Y-82620000D03*
X38670000Y-82620000D03*
X41210000Y-82620000D03*
X43750000Y-82620000D03*
D17*
X65750000Y-79500000D03*
X65750000Y-71880000D03*
D24*
X25000000Y-18000000D03*
D14*
X22460000Y-18000000D03*
X19920000Y-18000000D03*
X17380000Y-18000000D03*
X17380000Y-25620000D03*
X19920000Y-25620000D03*
X22460000Y-25620000D03*
X25000000Y-25620000D03*
D17*
X42000000Y-71000000D03*
X42000000Y-63380000D03*
D26*
X4000000Y-59500000D03*
D27*
X14160000Y-59500000D03*
D17*
X57500000Y-48750000D03*
X57500000Y-56370000D03*
X11250000Y-9500000D03*
X18870000Y-9500000D03*
X92500000Y-38250000D03*
X97500000Y-38250000D03*
D22*
X11200000Y-84000000D03*
D23*
X11200000Y-81460000D03*
X11200000Y-78920000D03*
D17*
X25000000Y-87750000D03*
X25000000Y-92750000D03*
D18*
X68000000Y-130000000D03*
D19*
X70540000Y-130000000D03*
D17*
X11250000Y-67500000D03*
X18870000Y-67500000D03*
X76250000Y-71250000D03*
X76250000Y-63630000D03*
X23500000Y-38250000D03*
X28500000Y-38250000D03*
X94250000Y-14750000D03*
X94250000Y-7130000D03*
D28*
X97500000Y-128000000D03*
D17*
X97500000Y-130500000D03*
X80500000Y-17250000D03*
X80500000Y-9630000D03*
D26*
X11250000Y-54500000D03*
D27*
X21410000Y-54500000D03*
D17*
X69250000Y-16750000D03*
X76870000Y-16750000D03*
X53500000Y-120000000D03*
X61120000Y-120000000D03*
D18*
X49000000Y-130000000D03*
D19*
X51540000Y-130000000D03*
D29*
X105000000Y-13000000D03*
X100120000Y-13000000D03*
D13*
X117750000Y-49250000D03*
D14*
X120290000Y-49250000D03*
X122830000Y-49250000D03*
X125370000Y-49250000D03*
X127910000Y-49250000D03*
X130450000Y-49250000D03*
X132990000Y-49250000D03*
X132990000Y-41630000D03*
X130450000Y-41630000D03*
X127910000Y-41630000D03*
X125370000Y-41630000D03*
X122830000Y-41630000D03*
X120290000Y-41630000D03*
X117750000Y-41630000D03*
D13*
X116500000Y-10500000D03*
D14*
X119040000Y-10500000D03*
X121580000Y-10500000D03*
X124120000Y-10500000D03*
X126660000Y-10500000D03*
X129200000Y-10500000D03*
X131740000Y-10500000D03*
X131740000Y-2880000D03*
X129200000Y-2880000D03*
X126660000Y-2880000D03*
X124120000Y-2880000D03*
X121580000Y-2880000D03*
X119040000Y-2880000D03*
X116500000Y-2880000D03*
D17*
X62250000Y-42250000D03*
X69870000Y-42250000D03*
D30*
X106750000Y-59500000D03*
D31*
X106750000Y-62040000D03*
X106750000Y-64580000D03*
X106750000Y-67120000D03*
X106750000Y-69660000D03*
X106750000Y-72200000D03*
X106750000Y-74740000D03*
X106750000Y-77280000D03*
X106750000Y-79820000D03*
X106750000Y-82360000D03*
X114370000Y-82360000D03*
X114370000Y-79820000D03*
X114370000Y-77280000D03*
X114370000Y-74740000D03*
X114370000Y-72200000D03*
X114370000Y-69660000D03*
X114370000Y-67120000D03*
X114370000Y-64580000D03*
X114370000Y-62040000D03*
X114370000Y-59500000D03*
D32*
X118000000Y-126500000D03*
X124500000Y-126500000D03*
X118000000Y-131000000D03*
X124500000Y-131000000D03*
D17*
X53000000Y-62500000D03*
X45380000Y-62500000D03*
D22*
X126750000Y-102000000D03*
D23*
X124210000Y-102000000D03*
D17*
X73250000Y-37750000D03*
X80870000Y-37750000D03*
X49750000Y-16750000D03*
X49750000Y-11750000D03*
X53000000Y-4500000D03*
X45380000Y-4500000D03*
X114250000Y-41750000D03*
X114250000Y-46750000D03*
D13*
X37750000Y-56750000D03*
D14*
X40290000Y-56750000D03*
X42830000Y-56750000D03*
X45370000Y-56750000D03*
X47910000Y-56750000D03*
X50450000Y-56750000D03*
X52990000Y-56750000D03*
X52990000Y-49130000D03*
X50450000Y-49130000D03*
X47910000Y-49130000D03*
X45370000Y-49130000D03*
X42830000Y-49130000D03*
X40290000Y-49130000D03*
X37750000Y-49130000D03*
D17*
X111000000Y-11750000D03*
X111000000Y-6750000D03*
X29000000Y-124750000D03*
X29000000Y-117130000D03*
D22*
X78500000Y-80000000D03*
D23*
X81040000Y-80000000D03*
X78500000Y-82540000D03*
X81040000Y-82540000D03*
X78500000Y-85080000D03*
X81040000Y-85080000D03*
X78500000Y-87620000D03*
X81040000Y-87620000D03*
X78500000Y-90160000D03*
X81040000Y-90160000D03*
D17*
X31500000Y-75000000D03*
X31500000Y-67380000D03*
X113250000Y-18000000D03*
X118250000Y-18000000D03*
X129750000Y-108000000D03*
X129750000Y-113000000D03*
D33*
X136300000Y-80380000D03*
X136300000Y-95620000D03*
D15*
X66000000Y-124250000D03*
D16*
X66000000Y-122980000D03*
X66000000Y-121710000D03*
D17*
X91750000Y-130000000D03*
X84130000Y-130000000D03*
X123500000Y-38250000D03*
X128500000Y-38250000D03*
D34*
X4700000Y-10000000D03*
D35*
X4700000Y-15080000D03*
D17*
X7250000Y-32250000D03*
X7250000Y-39870000D03*
X23500000Y-117000000D03*
X23500000Y-124620000D03*
D25*
X136500000Y-61500000D03*
D17*
X65250000Y-83000000D03*
X70250000Y-83000000D03*
X34750000Y-63750000D03*
X27130000Y-63750000D03*
X89000000Y-65750000D03*
X89000000Y-70750000D03*
X81750000Y-123000000D03*
X74130000Y-123000000D03*
D30*
X122750000Y-63250000D03*
D31*
X122750000Y-65790000D03*
X122750000Y-68330000D03*
X122750000Y-70870000D03*
X122750000Y-73410000D03*
X122750000Y-75950000D03*
X122750000Y-78490000D03*
X122750000Y-81030000D03*
X122750000Y-83570000D03*
X122750000Y-86110000D03*
X130370000Y-86110000D03*
X130370000Y-83570000D03*
X130370000Y-81030000D03*
X130370000Y-78490000D03*
X130370000Y-75950000D03*
X130370000Y-73410000D03*
X130370000Y-70870000D03*
X130370000Y-68330000D03*
X130370000Y-65790000D03*
X130370000Y-63250000D03*
D34*
X4700000Y-68000000D03*
D35*
X4700000Y-73080000D03*
D18*
X30000000Y-130000000D03*
D19*
X32540000Y-130000000D03*
D17*
X23500000Y-96250000D03*
X28500000Y-96250000D03*
X41000000Y-106000000D03*
X48620000Y-106000000D03*
D20*
X109000000Y-88000000D03*
D17*
X111500000Y-88000000D03*
D13*
X33750000Y-95250000D03*
D14*
X36290000Y-95250000D03*
X38830000Y-95250000D03*
X41370000Y-95250000D03*
X43910000Y-95250000D03*
X46450000Y-95250000D03*
X48990000Y-95250000D03*
X48990000Y-87630000D03*
X46450000Y-87630000D03*
X43910000Y-87630000D03*
X41370000Y-87630000D03*
X38830000Y-87630000D03*
X36290000Y-87630000D03*
X33750000Y-87630000D03*
D21*
X3500000Y-3500000D03*
D17*
X102000000Y-53750000D03*
X94380000Y-53750000D03*
X94750000Y-93000000D03*
X87130000Y-93000000D03*
X28000000Y-13500000D03*
X20380000Y-13500000D03*
X31500000Y-17000000D03*
X31500000Y-9380000D03*
D13*
X55000000Y-37750000D03*
D14*
X57540000Y-37750000D03*
X60080000Y-37750000D03*
X62620000Y-37750000D03*
X65160000Y-37750000D03*
X67700000Y-37750000D03*
X70240000Y-37750000D03*
X70240000Y-30130000D03*
X67700000Y-30130000D03*
X65160000Y-30130000D03*
X62620000Y-30130000D03*
X60080000Y-30130000D03*
X57540000Y-30130000D03*
X55000000Y-30130000D03*
D17*
X30250000Y-87750000D03*
X30250000Y-92750000D03*
X34750000Y-5750000D03*
X27130000Y-5750000D03*
X60500000Y-13500000D03*
X60500000Y-5880000D03*
X52250000Y-113250000D03*
X52250000Y-105630000D03*
D22*
X78500000Y-22000000D03*
D23*
X81040000Y-22000000D03*
X78500000Y-24540000D03*
X81040000Y-24540000D03*
X78500000Y-27080000D03*
X81040000Y-27080000D03*
X78500000Y-29620000D03*
X81040000Y-29620000D03*
X78500000Y-32160000D03*
X81040000Y-32160000D03*
D26*
X119500000Y-89750000D03*
D27*
X129660000Y-89750000D03*
D24*
X62250000Y-17500000D03*
D14*
X59710000Y-17500000D03*
X57170000Y-17500000D03*
X54630000Y-17500000D03*
X54630000Y-25120000D03*
X57170000Y-25120000D03*
X59710000Y-25120000D03*
X62250000Y-25120000D03*
D13*
X118750000Y-113250000D03*
D14*
X121290000Y-113250000D03*
X123830000Y-113250000D03*
X126370000Y-113250000D03*
X126370000Y-105630000D03*
X123830000Y-105630000D03*
X121290000Y-105630000D03*
X118750000Y-105630000D03*
D17*
X38250000Y-71000000D03*
X38250000Y-63380000D03*
X10750000Y-32250000D03*
X20750000Y-32250000D03*
X7250000Y-90250000D03*
X7250000Y-97870000D03*
X89000000Y-120000000D03*
X96620000Y-120000000D03*
X45750000Y-71000000D03*
X45750000Y-66000000D03*
D13*
X92500000Y-26500000D03*
D14*
X95040000Y-26500000D03*
X97580000Y-26500000D03*
X100120000Y-26500000D03*
X102660000Y-26500000D03*
X105200000Y-26500000D03*
X107740000Y-26500000D03*
X110280000Y-26500000D03*
X110280000Y-18880000D03*
X107740000Y-18880000D03*
X105200000Y-18880000D03*
X102660000Y-18880000D03*
X100120000Y-18880000D03*
X97580000Y-18880000D03*
X95040000Y-18880000D03*
X92500000Y-18880000D03*
D34*
X4700000Y-48500000D03*
D35*
X4700000Y-53580000D03*
D17*
X3250000Y-37500000D03*
X3250000Y-42500000D03*
D28*
X37750000Y-105500000D03*
D17*
X37750000Y-113120000D03*
D24*
X43750000Y-17000000D03*
D14*
X41210000Y-17000000D03*
X38670000Y-17000000D03*
X36130000Y-17000000D03*
X36130000Y-24620000D03*
X38670000Y-24620000D03*
X41210000Y-24620000D03*
X43750000Y-24620000D03*
D24*
X119500000Y-30750000D03*
D14*
X116960000Y-30750000D03*
X114420000Y-30750000D03*
X111880000Y-30750000D03*
X109340000Y-30750000D03*
X106800000Y-30750000D03*
X104260000Y-30750000D03*
X101720000Y-30750000D03*
X101720000Y-38370000D03*
X104260000Y-38370000D03*
X106800000Y-38370000D03*
X109340000Y-38370000D03*
X111880000Y-38370000D03*
X114420000Y-38370000D03*
X116960000Y-38370000D03*
X119500000Y-38370000D03*
D17*
X100000000Y-117750000D03*
X107620000Y-117750000D03*
D22*
X11200000Y-26000000D03*
D23*
X11200000Y-23460000D03*
X11200000Y-20920000D03*
D28*
X34500000Y-105500000D03*
D17*
X34500000Y-113120000D03*
X112500000Y-3000000D03*
X107500000Y-3000000D03*
X80500000Y-75250000D03*
X80500000Y-67630000D03*
X114500000Y-13750000D03*
X122120000Y-13750000D03*
X65500000Y-56000000D03*
X65500000Y-48380000D03*
X76250000Y-13250000D03*
X76250000Y-5630000D03*
D18*
X77500000Y-130000000D03*
D19*
X80040000Y-130000000D03*
D17*
X62250000Y-100250000D03*
X69870000Y-100250000D03*
D18*
X20500000Y-130000000D03*
D19*
X23040000Y-130000000D03*
D17*
X60500000Y-71500000D03*
X60500000Y-63880000D03*
D20*
X104250000Y-98000000D03*
D17*
X107750000Y-98000000D03*
X121250000Y-18000000D03*
X128870000Y-18000000D03*
X28000000Y-71500000D03*
X20380000Y-71500000D03*
X97500000Y-91250000D03*
X105120000Y-91250000D03*
D18*
X58500000Y-130000000D03*
D19*
X61040000Y-130000000D03*
D17*
X120750000Y-21750000D03*
X113130000Y-21750000D03*
X37000000Y-41750000D03*
X42000000Y-41750000D03*
X94250000Y-89500000D03*
X94250000Y-81880000D03*
X29500000Y-25000000D03*
X29500000Y-20000000D03*
X65000000Y-6250000D03*
X72620000Y-6250000D03*
X127250000Y-122500000D03*
X134870000Y-122500000D03*
X42000000Y-13000000D03*
X42000000Y-5380000D03*
D36*
X115500000Y-88000000D03*
D27*
X115500000Y-98160000D03*
D22*
X78500000Y-47500000D03*
D23*
X81040000Y-47500000D03*
X78500000Y-50040000D03*
X81040000Y-50040000D03*
X78500000Y-52580000D03*
X81040000Y-52580000D03*
X78500000Y-55120000D03*
X81040000Y-55120000D03*
X78500000Y-57660000D03*
X81040000Y-57660000D03*
D37*
X94250000Y-63000000D03*
D32*
X99250000Y-63000000D03*
D17*
X110750000Y-117750000D03*
X115750000Y-117750000D03*
D21*
X3500000Y-132500000D03*
D17*
X92500000Y-29250000D03*
X92500000Y-34250000D03*
X29000000Y-114750000D03*
X29000000Y-107130000D03*
D20*
X129750000Y-116750000D03*
D17*
X137370000Y-116750000D03*
X118750000Y-102250000D03*
X113750000Y-102250000D03*
X37000000Y-99750000D03*
X42000000Y-99750000D03*
X117750000Y-59500000D03*
X117750000Y-64500000D03*
X119250000Y-98000000D03*
X126870000Y-98000000D03*
D28*
X90500000Y-110250000D03*
D17*
X90500000Y-113750000D03*
X133750000Y-65750000D03*
X133750000Y-70750000D03*
X126500000Y-118000000D03*
X118880000Y-118000000D03*
D25*
X87500000Y-3500000D03*
D17*
X61500000Y-56750000D03*
X61500000Y-49130000D03*
X48250000Y-25000000D03*
X48250000Y-20000000D03*
X40250000Y-124750000D03*
X40250000Y-117130000D03*
X11200000Y-50250000D03*
X11200000Y-42630000D03*
X49750000Y-74750000D03*
X49750000Y-69750000D03*
D32*
X104000000Y-126500000D03*
X110500000Y-126500000D03*
X104000000Y-131000000D03*
X110500000Y-131000000D03*
D17*
X65750000Y-21500000D03*
X65750000Y-13880000D03*
D18*
X11000000Y-130000000D03*
D19*
X13540000Y-130000000D03*
D17*
X97500000Y-124000000D03*
X92500000Y-124000000D03*
D38*
X18000000Y-109250000D03*
D17*
X18000000Y-106750000D03*
D24*
X62250000Y-75500000D03*
D14*
X59710000Y-75500000D03*
X57170000Y-75500000D03*
X54630000Y-75500000D03*
X54630000Y-83120000D03*
X57170000Y-83120000D03*
X59710000Y-83120000D03*
X62250000Y-83120000D03*
D17*
X44250000Y-124250000D03*
X51870000Y-124250000D03*
X48250000Y-83000000D03*
X48250000Y-78000000D03*
D20*
X110750000Y-121750000D03*
D17*
X118370000Y-121750000D03*
D13*
X55000000Y-95750000D03*
D14*
X57540000Y-95750000D03*
X60080000Y-95750000D03*
X62620000Y-95750000D03*
X65160000Y-95750000D03*
X67700000Y-95750000D03*
X70240000Y-95750000D03*
X70240000Y-88130000D03*
X67700000Y-88130000D03*
X65160000Y-88130000D03*
X62620000Y-88130000D03*
X60080000Y-88130000D03*
X57540000Y-88130000D03*
X55000000Y-88130000D03*
D17*
X33000000Y-116750000D03*
X33000000Y-124370000D03*
X30250000Y-29750000D03*
X30250000Y-34750000D03*
X48750000Y-112750000D03*
X41130000Y-112750000D03*
X15500000Y-46750000D03*
X15500000Y-41750000D03*
X34750000Y-56750000D03*
X29750000Y-56750000D03*
X65250000Y-25000000D03*
X70250000Y-25000000D03*
D22*
X15500000Y-50000000D03*
D23*
X18040000Y-50000000D03*
D17*
X3250000Y-95500000D03*
X3250000Y-100500000D03*
X55000000Y-42250000D03*
X50000000Y-42250000D03*
X65000000Y-64250000D03*
X72620000Y-64250000D03*
D24*
X112000000Y-106750000D03*
D14*
X109460000Y-106750000D03*
X106920000Y-106750000D03*
X104380000Y-106750000D03*
X104380000Y-114370000D03*
X106920000Y-114370000D03*
X109460000Y-114370000D03*
X112000000Y-114370000D03*
D33*
X101000000Y-86000000D03*
X101000000Y-70760000D03*
D17*
X56500000Y-13500000D03*
X56500000Y-5880000D03*
X25000000Y-29750000D03*
X25000000Y-34750000D03*
D15*
X9000000Y-117000000D03*
D16*
X9000000Y-118270000D03*
X9000000Y-119540000D03*
D17*
X69250000Y-74750000D03*
X76870000Y-74750000D03*
X87250000Y-103250000D03*
X87250000Y-98250000D03*
X34750000Y-48750000D03*
X29750000Y-48750000D03*
X18000000Y-112750000D03*
X18000000Y-120370000D03*
D39*
X95000000Y-103250000D03*
D32*
X95000000Y-98250000D03*
D25*
X87500000Y-61500000D03*
D17*
X64000000Y-68250000D03*
X71620000Y-68250000D03*
X129750000Y-126500000D03*
X129750000Y-131500000D03*
D22*
X88770000Y-56630000D03*
D23*
X86230000Y-56630000D03*
X88770000Y-54090000D03*
X86230000Y-54090000D03*
X88770000Y-51550000D03*
X86230000Y-51550000D03*
X88770000Y-49010000D03*
X86230000Y-49010000D03*
X88770000Y-46470000D03*
X86230000Y-46470000D03*
X88770000Y-43930000D03*
X86230000Y-43930000D03*
X88770000Y-41390000D03*
X86230000Y-41390000D03*
X88770000Y-38850000D03*
X86230000Y-38850000D03*
X88770000Y-36310000D03*
X86230000Y-36310000D03*
X88770000Y-33770000D03*
X86230000Y-33770000D03*
X88770000Y-31230000D03*
X86230000Y-31230000D03*
X88770000Y-28690000D03*
X86230000Y-28690000D03*
X88770000Y-26150000D03*
X86230000Y-26150000D03*
X88770000Y-23610000D03*
X86230000Y-23610000D03*
X88770000Y-21070000D03*
X86230000Y-21070000D03*
X88770000Y-18530000D03*
X86230000Y-18530000D03*
X88770000Y-15990000D03*
X86230000Y-15990000D03*
X88770000Y-13450000D03*
X86230000Y-13450000D03*
X88770000Y-10910000D03*
X86230000Y-10910000D03*
X88770000Y-8370000D03*
X86230000Y-8370000D03*
%LPD*%
M02*
