M48
; DRILL file KiCad 10.0.6 date 2026-09-25T00:38:34
; FORMAT={-:-/ absolute / metric / decimal}
; #@! TF.CreationDate,2026-09-25T00:38:34+02:00
; #@! TF.GenerationSoftware,Kicad,Pcbnew,10.0.6
; #@! TF.FileFunction,Plated,1,4,PTH
FMAT,2
METRIC
; #@! TA.AperFunction,Plated,PTH,ViaDrill
T1C0.400
; #@! TA.AperFunction,Plated,PTH,ComponentDrill
T2C0.750
; #@! TA.AperFunction,Plated,PTH,ComponentDrill
T3C0.800
; #@! TA.AperFunction,Plated,PTH,ComponentDrill
T4C0.900
; #@! TA.AperFunction,Plated,PTH,ComponentDrill
T5C1.000
; #@! TA.AperFunction,Plated,PTH,ComponentDrill
T6C1.100
; #@! TA.AperFunction,Plated,PTH,ComponentDrill
T7C1.200
; #@! TA.AperFunction,Plated,PTH,ComponentDrill
T8C1.520
%
G90
G05
T1
X30.371Y-59.873
X66.53Y-35.12
X66.976Y-49.346
X70.934Y-69.998
X78.954Y-43.33
X82.642Y-39.77
X84.442Y-44.102
X91.795Y-72.974
X96.238Y-39.755
X96.768Y-54.99
X97.499Y-68.529
X99.485Y-34.947
X106.041Y-50.867
T2
X9.0Y-117.0
X9.0Y-118.27
X9.0Y-119.54
X24.5Y-106.71
X24.5Y-107.98
X24.5Y-109.25
X66.0Y-121.71
X66.0Y-122.98
X66.0Y-124.25
T3
X3.25Y-37.5
X3.25Y-42.5
X3.25Y-95.5
X3.25Y-100.5
X7.25Y-32.25
X7.25Y-39.87
X7.25Y-90.25
X7.25Y-97.87
X10.75Y-32.25
X10.75Y-90.25
X11.2Y-42.63
X11.2Y-50.25
X11.25Y-9.5
X11.25Y-67.5
X13.75Y-117.0
X13.75Y-124.62
X15.5Y-41.75
X15.5Y-46.75
X17.38Y-18.0
X17.38Y-25.62
X17.38Y-76.0
X17.38Y-83.62
X18.0Y-106.75
X18.0Y-109.25
X18.0Y-112.75
X18.0Y-120.37
X18.87Y-9.5
X18.87Y-67.5
X19.92Y-18.0
X19.92Y-25.62
X19.92Y-76.0
X19.92Y-83.62
X20.38Y-13.5
X20.38Y-71.5
X20.75Y-32.25
X20.75Y-90.25
X22.46Y-18.0
X22.46Y-25.62
X22.46Y-76.0
X22.46Y-83.62
X23.5Y-38.25
X23.5Y-96.25
X23.5Y-117.0
X23.5Y-124.62
X25.0Y-18.0
X25.0Y-25.62
X25.0Y-29.75
X25.0Y-34.75
X25.0Y-76.0
X25.0Y-83.62
X25.0Y-87.75
X25.0Y-92.75
X27.13Y-5.75
X27.13Y-63.75
X28.0Y-13.5
X28.0Y-71.5
X28.5Y-38.25
X28.5Y-96.25
X29.0Y-107.13
X29.0Y-114.75
X29.0Y-117.13
X29.0Y-124.75
X29.5Y-20.0
X29.5Y-25.0
X29.5Y-78.0
X29.5Y-83.0
X29.75Y-48.75
X29.75Y-56.75
X30.25Y-29.75
X30.25Y-34.75
X30.25Y-87.75
X30.25Y-92.75
X31.5Y-9.38
X31.5Y-17.0
X31.5Y-67.38
X31.5Y-75.0
X33.0Y-116.75
X33.0Y-124.37
X33.75Y-29.63
X33.75Y-37.25
X33.75Y-87.63
X33.75Y-95.25
X34.5Y-105.5
X34.5Y-113.12
X34.75Y-5.75
X34.75Y-48.75
X34.75Y-56.75
X34.75Y-63.75
X36.13Y-17.0
X36.13Y-24.62
X36.13Y-75.0
X36.13Y-82.62
X36.29Y-29.63
X36.29Y-37.25
X36.29Y-87.63
X36.29Y-95.25
X37.0Y-41.75
X37.0Y-99.75
X37.75Y-49.13
X37.75Y-56.75
X37.75Y-105.5
X37.75Y-113.12
X38.25Y-5.38
X38.25Y-13.0
X38.25Y-63.38
X38.25Y-71.0
X38.67Y-17.0
X38.67Y-24.62
X38.67Y-75.0
X38.67Y-82.62
X38.83Y-29.63
X38.83Y-37.25
X38.83Y-87.63
X38.83Y-95.25
X40.25Y-117.13
X40.25Y-124.75
X40.29Y-49.13
X40.29Y-56.75
X41.0Y-106.0
X41.13Y-112.75
X41.21Y-17.0
X41.21Y-24.62
X41.21Y-75.0
X41.21Y-82.62
X41.37Y-29.63
X41.37Y-37.25
X41.37Y-87.63
X41.37Y-95.25
X42.0Y-5.38
X42.0Y-13.0
X42.0Y-41.75
X42.0Y-63.38
X42.0Y-71.0
X42.0Y-99.75
X42.83Y-49.13
X42.83Y-56.75
X43.75Y-17.0
X43.75Y-24.62
X43.75Y-75.0
X43.75Y-82.62
X43.91Y-29.63
X43.91Y-37.25
X43.91Y-87.63
X43.91Y-95.25
X44.25Y-118.0
X44.25Y-124.25
X45.37Y-49.13
X45.37Y-56.75
X45.38Y-4.5
X45.38Y-62.5
X45.75Y-8.0
X45.75Y-13.0
X45.75Y-66.0
X45.75Y-71.0
X46.45Y-29.63
X46.45Y-37.25
X46.45Y-87.63
X46.45Y-95.25
X46.75Y-118.0
X47.91Y-49.13
X47.91Y-56.75
X48.25Y-20.0
X48.25Y-25.0
X48.25Y-78.0
X48.25Y-83.0
X48.62Y-106.0
X48.75Y-112.75
X48.99Y-29.63
X48.99Y-37.25
X48.99Y-87.63
X48.99Y-95.25
X49.75Y-11.75
X49.75Y-16.75
X49.75Y-69.75
X49.75Y-74.75
X50.0Y-42.25
X50.0Y-100.25
X50.45Y-49.13
X50.45Y-56.75
X51.87Y-124.25
X52.25Y-105.63
X52.25Y-113.25
X52.99Y-49.13
X52.99Y-56.75
X53.0Y-4.5
X53.0Y-62.5
X53.5Y-120.0
X54.63Y-17.5
X54.63Y-25.12
X54.63Y-75.5
X54.63Y-83.12
X55.0Y-30.13
X55.0Y-37.75
X55.0Y-42.25
X55.0Y-88.13
X55.0Y-95.75
X55.0Y-100.25
X56.5Y-5.88
X56.5Y-13.5
X56.5Y-63.88
X56.5Y-71.5
X57.17Y-17.5
X57.17Y-25.12
X57.17Y-75.5
X57.17Y-83.12
X57.5Y-48.75
X57.5Y-56.37
X57.54Y-30.13
X57.54Y-37.75
X57.54Y-88.13
X57.54Y-95.75
X59.71Y-17.5
X59.71Y-25.12
X59.71Y-75.5
X59.71Y-83.12
X60.08Y-30.13
X60.08Y-37.75
X60.08Y-88.13
X60.08Y-95.75
X60.5Y-5.88
X60.5Y-13.5
X60.5Y-63.88
X60.5Y-71.5
X61.12Y-120.0
X61.5Y-49.13
X61.5Y-56.75
X62.25Y-17.5
X62.25Y-25.12
X62.25Y-42.25
X62.25Y-75.5
X62.25Y-83.12
X62.25Y-100.25
X62.62Y-30.13
X62.62Y-37.75
X62.62Y-88.13
X62.62Y-95.75
X64.0Y-10.25
X64.0Y-68.25
X65.0Y-6.25
X65.0Y-64.25
X65.16Y-30.13
X65.16Y-37.75
X65.16Y-88.13
X65.16Y-95.75
X65.25Y-25.0
X65.25Y-83.0
X65.5Y-48.38
X65.5Y-56.0
X65.75Y-13.88
X65.75Y-21.5
X65.75Y-71.88
X65.75Y-79.5
X67.7Y-30.13
X67.7Y-37.75
X67.7Y-88.13
X67.7Y-95.75
X69.25Y-16.75
X69.25Y-74.75
X69.5Y-48.5
X69.5Y-56.12
X69.87Y-42.25
X69.87Y-100.25
X70.24Y-30.13
X70.24Y-37.75
X70.24Y-88.13
X70.24Y-95.75
X70.25Y-25.0
X70.25Y-83.0
X70.5Y-116.75
X70.5Y-124.37
X71.62Y-10.25
X71.62Y-68.25
X72.62Y-6.25
X72.62Y-64.25
X73.25Y-37.75
X73.25Y-95.75
X74.13Y-123.0
X76.25Y-5.63
X76.25Y-13.25
X76.25Y-63.63
X76.25Y-71.25
X76.87Y-16.75
X76.87Y-74.75
X80.5Y-9.63
X80.5Y-17.25
X80.5Y-67.63
X80.5Y-75.25
X80.87Y-37.75
X80.87Y-95.75
X81.75Y-123.0
X84.13Y-130.0
X87.13Y-93.0
X87.25Y-98.25
X87.25Y-103.25
X89.0Y-65.75
X89.0Y-70.75
X89.0Y-120.0
X90.5Y-110.25
X90.5Y-113.75
X91.75Y-130.0
X92.5Y-18.88
X92.5Y-26.5
X92.5Y-29.25
X92.5Y-34.25
X92.5Y-38.25
X92.5Y-41.63
X92.5Y-49.25
X92.5Y-124.0
X94.25Y-7.13
X94.25Y-14.75
X94.25Y-81.88
X94.25Y-89.5
X94.38Y-53.75
X94.75Y-93.0
X95.04Y-18.88
X95.04Y-26.5
X95.04Y-41.63
X95.04Y-49.25
X96.62Y-120.0
X97.5Y-38.25
X97.5Y-91.25
X97.5Y-124.0
X97.5Y-128.0
X97.5Y-130.5
X97.58Y-18.88
X97.58Y-26.5
X97.58Y-41.63
X97.58Y-49.25
X99.75Y-108.0
X99.75Y-113.0
X100.0Y-117.75
X100.12Y-13.0
X100.12Y-18.88
X100.12Y-26.5
X100.12Y-41.63
X100.12Y-49.25
X101.72Y-30.75
X101.72Y-38.37
X102.0Y-53.75
X102.66Y-18.88
X102.66Y-26.5
X102.66Y-41.63
X102.66Y-49.25
X104.25Y-98.0
X104.26Y-30.75
X104.26Y-38.37
X104.38Y-106.75
X104.38Y-114.37
X105.0Y-13.0
X105.12Y-91.25
X105.2Y-18.88
X105.2Y-26.5
X105.2Y-41.63
X105.2Y-49.25
X106.75Y-59.5
X106.75Y-62.04
X106.75Y-64.58
X106.75Y-67.12
X106.75Y-69.66
X106.75Y-72.2
X106.75Y-74.74
X106.75Y-77.28
X106.75Y-79.82
X106.75Y-82.36
X106.8Y-30.75
X106.8Y-38.37
X106.92Y-106.75
X106.92Y-114.37
X107.5Y-3.0
X107.62Y-117.75
X107.74Y-18.88
X107.74Y-26.5
X107.74Y-41.63
X107.74Y-49.25
X107.75Y-98.0
X109.0Y-88.0
X109.34Y-30.75
X109.34Y-38.37
X109.46Y-106.75
X109.46Y-114.37
X110.28Y-18.88
X110.28Y-26.5
X110.28Y-41.63
X110.28Y-49.25
X110.75Y-117.75
X110.75Y-121.75
X111.0Y-6.75
X111.0Y-11.75
X111.5Y-88.0
X111.88Y-30.75
X111.88Y-38.37
X112.0Y-106.75
X112.0Y-114.37
X112.5Y-3.0
X113.13Y-21.75
X113.25Y-18.0
X113.75Y-102.25
X114.25Y-41.75
X114.25Y-46.75
X114.37Y-59.5
X114.37Y-62.04
X114.37Y-64.58
X114.37Y-67.12
X114.37Y-69.66
X114.37Y-72.2
X114.37Y-74.74
X114.37Y-77.28
X114.37Y-79.82
X114.37Y-82.36
X114.42Y-30.75
X114.42Y-38.37
X114.5Y-13.75
X115.75Y-117.75
X116.5Y-2.88
X116.5Y-10.5
X116.96Y-30.75
X116.96Y-38.37
X117.75Y-41.63
X117.75Y-49.25
X117.75Y-59.5
X117.75Y-64.5
X118.25Y-18.0
X118.37Y-121.75
X118.75Y-102.25
X118.75Y-105.63
X118.75Y-113.25
X118.88Y-118.0
X119.04Y-2.88
X119.04Y-10.5
X119.25Y-98.0
X119.5Y-30.75
X119.5Y-38.37
X120.29Y-41.63
X120.29Y-49.25
X120.75Y-21.75
X121.25Y-18.0
X121.29Y-105.63
X121.29Y-113.25
X121.58Y-2.88
X121.58Y-10.5
X122.12Y-13.75
X122.75Y-63.25
X122.75Y-65.79
X122.75Y-68.33
X122.75Y-70.87
X122.75Y-73.41
X122.75Y-75.95
X122.75Y-78.49
X122.75Y-81.03
X122.75Y-83.57
X122.75Y-86.11
X122.83Y-41.63
X122.83Y-49.25
X123.5Y-38.25
X123.83Y-105.63
X123.83Y-113.25
X124.12Y-2.88
X124.12Y-10.5
X125.37Y-41.63
X125.37Y-49.25
X126.37Y-105.63
X126.37Y-113.25
X126.5Y-118.0
X126.66Y-2.88
X126.66Y-10.5
X126.87Y-98.0
X127.25Y-122.5
X127.91Y-41.63
X127.91Y-49.25
X128.5Y-38.25
X128.87Y-18.0
X129.2Y-2.88
X129.2Y-10.5
X129.75Y-108.0
X129.75Y-113.0
X129.75Y-116.75
X129.75Y-126.5
X129.75Y-131.5
X130.37Y-63.25
X130.37Y-65.79
X130.37Y-68.33
X130.37Y-70.87
X130.37Y-73.41
X130.37Y-75.95
X130.37Y-78.49
X130.37Y-81.03
X130.37Y-83.57
X130.37Y-86.11
X130.45Y-41.63
X130.45Y-49.25
X131.74Y-2.88
X131.74Y-10.5
X132.99Y-41.63
X132.99Y-49.25
X133.75Y-65.75
X133.75Y-70.75
X134.87Y-122.5
X137.37Y-116.75
T4
X11.0Y-130.0
X13.54Y-130.0
X20.5Y-130.0
X23.04Y-130.0
X30.0Y-130.0
X32.54Y-130.0
X39.5Y-130.0
X42.04Y-130.0
X49.0Y-130.0
X51.54Y-130.0
X58.5Y-130.0
X61.04Y-130.0
X68.0Y-130.0
X70.54Y-130.0
X77.5Y-130.0
X80.04Y-130.0
T5
X11.2Y-20.92
X11.2Y-23.46
X11.2Y-26.0
X11.2Y-78.92
X11.2Y-81.46
X11.2Y-84.0
X15.5Y-50.0
X18.04Y-50.0
X78.5Y-22.0
X78.5Y-24.54
X78.5Y-27.08
X78.5Y-29.62
X78.5Y-32.16
X78.5Y-47.5
X78.5Y-50.04
X78.5Y-52.58
X78.5Y-55.12
X78.5Y-57.66
X78.5Y-80.0
X78.5Y-82.54
X78.5Y-85.08
X78.5Y-87.62
X78.5Y-90.16
X81.04Y-22.0
X81.04Y-24.54
X81.04Y-27.08
X81.04Y-29.62
X81.04Y-32.16
X81.04Y-47.5
X81.04Y-50.04
X81.04Y-52.58
X81.04Y-55.12
X81.04Y-57.66
X81.04Y-80.0
X81.04Y-82.54
X81.04Y-85.08
X81.04Y-87.62
X81.04Y-90.16
X86.23Y-8.37
X86.23Y-10.91
X86.23Y-13.45
X86.23Y-15.99
X86.23Y-18.53
X86.23Y-21.07
X86.23Y-23.61
X86.23Y-26.15
X86.23Y-28.69
X86.23Y-31.23
X86.23Y-33.77
X86.23Y-36.31
X86.23Y-38.85
X86.23Y-41.39
X86.23Y-43.93
X86.23Y-46.47
X86.23Y-49.01
X86.23Y-51.55
X86.23Y-54.09
X86.23Y-56.63
X88.77Y-8.37
X88.77Y-10.91
X88.77Y-13.45
X88.77Y-15.99
X88.77Y-18.53
X88.77Y-21.07
X88.77Y-23.61
X88.77Y-26.15
X88.77Y-28.69
X88.77Y-31.23
X88.77Y-33.77
X88.77Y-36.31
X88.77Y-38.85
X88.77Y-41.39
X88.77Y-43.93
X88.77Y-46.47
X88.77Y-49.01
X88.77Y-51.55
X88.77Y-54.09
X88.77Y-56.63
X94.25Y-63.0
X95.0Y-98.25
X95.0Y-103.25
X99.25Y-63.0
X117.67Y-26.0
X120.21Y-26.0
X122.75Y-26.0
X124.21Y-102.0
X126.75Y-102.0
T6
X4.0Y-59.5
X11.25Y-54.5
X14.16Y-59.5
X21.41Y-54.5
X104.0Y-126.5
X104.0Y-131.0
X110.5Y-126.5
X110.5Y-131.0
X115.5Y-88.0
X115.5Y-98.16
X118.0Y-126.5
X118.0Y-131.0
X119.5Y-89.75
X124.5Y-126.5
X124.5Y-131.0
X129.66Y-89.75
T7
X101.0Y-70.76
X101.0Y-86.0
X136.3Y-80.38
X136.3Y-95.62
T8
X4.7Y-10.0
X4.7Y-15.08
X4.7Y-48.5
X4.7Y-53.58
X4.7Y-68.0
X4.7Y-73.08
M30
