G04 #@! TF.GenerationSoftware,KiCad,Pcbnew,10.0.6*
G04 #@! TF.CreationDate,2026-09-25T00:38:33+02:00*
G04 #@! TF.ProjectId,vinyl_adc_rev_d,76696e79-6c5f-4616-9463-5f7265765f64,rev?*
G04 #@! TF.SameCoordinates,Original*
G04 #@! TF.FileFunction,Copper,L4,Bot*
G04 #@! TF.FilePolarity,Positive*
%FSLAX46Y46*%
G04 Gerber Fmt 4.6, Leading zero omitted, Abs format (unit mm)*
G04 Created by KiCad (PCBNEW 10.0.6) date 2026-09-25 00:38:33*
%MOMM*%
%LPD*%
G01*
G04 APERTURE LIST*
G04 Aperture macros list*
%AMRoundRect*
0 Rectangle with rounded corners*
0 $1 Rounding radius*
0 $2 $3 $4 $5 $6 $7 $8 $9 X,Y pos of 4 corners*
0 Add a 4 corners polygon primitive as box body*
4,1,4,$2,$3,$4,$5,$6,$7,$8,$9,$2,$3,0*
0 Add four circle primitives for the rounded corners*
1,1,$1+$1,$2,$3*
1,1,$1+$1,$4,$5*
1,1,$1+$1,$6,$7*
1,1,$1+$1,$8,$9*
0 Add four rect primitives between the rounded corners*
20,1,$1+$1,$2,$3,$4,$5,0*
20,1,$1+$1,$4,$5,$6,$7,0*
20,1,$1+$1,$6,$7,$8,$9,0*
20,1,$1+$1,$8,$9,$2,$3,0*%
G04 Aperture macros list end*
G04 #@! TA.AperFunction,ComponentPad*
%ADD10RoundRect,0.250000X0.550000X-0.950000X0.550000X0.950000X-0.550000X0.950000X-0.550000X-0.950000X0*%
G04 #@! TD*
G04 #@! TA.AperFunction,ComponentPad*
%ADD11O,1.600000X2.400000*%
G04 #@! TD*
G04 #@! TA.AperFunction,ComponentPad*
%ADD12R,1.500000X1.050000*%
G04 #@! TD*
G04 #@! TA.AperFunction,ComponentPad*
%ADD13O,1.500000X1.050000*%
G04 #@! TD*
G04 #@! TA.AperFunction,ComponentPad*
%ADD14C,1.600000*%
G04 #@! TD*
G04 #@! TA.AperFunction,ComponentPad*
%ADD15R,1.800000X1.800000*%
G04 #@! TD*
G04 #@! TA.AperFunction,ComponentPad*
%ADD16C,1.800000*%
G04 #@! TD*
G04 #@! TA.AperFunction,ComponentPad*
%ADD17RoundRect,0.250000X-0.550000X-0.550000X0.550000X-0.550000X0.550000X0.550000X-0.550000X0.550000X0*%
G04 #@! TD*
G04 #@! TA.AperFunction,ComponentPad*
%ADD18R,1.700000X1.700000*%
G04 #@! TD*
G04 #@! TA.AperFunction,ComponentPad*
%ADD19C,1.700000*%
G04 #@! TD*
G04 #@! TA.AperFunction,ComponentPad*
%ADD20RoundRect,0.250000X-0.550000X0.950000X-0.550000X-0.950000X0.550000X-0.950000X0.550000X0.950000X0*%
G04 #@! TD*
G04 #@! TA.AperFunction,ComponentPad*
%ADD21RoundRect,0.249999X-0.850001X-0.850001X0.850001X-0.850001X0.850001X0.850001X-0.850001X0.850001X0*%
G04 #@! TD*
G04 #@! TA.AperFunction,ComponentPad*
%ADD22C,2.200000*%
G04 #@! TD*
G04 #@! TA.AperFunction,ComponentPad*
%ADD23RoundRect,0.250000X-0.550000X0.550000X-0.550000X-0.550000X0.550000X-0.550000X0.550000X0.550000X0*%
G04 #@! TD*
G04 #@! TA.AperFunction,ComponentPad*
%ADD24C,1.500000*%
G04 #@! TD*
G04 #@! TA.AperFunction,ComponentPad*
%ADD25RoundRect,0.250000X-0.950000X-0.550000X0.950000X-0.550000X0.950000X0.550000X-0.950000X0.550000X0*%
G04 #@! TD*
G04 #@! TA.AperFunction,ComponentPad*
%ADD26O,2.400000X1.600000*%
G04 #@! TD*
G04 #@! TA.AperFunction,ComponentPad*
%ADD27C,2.000000*%
G04 #@! TD*
G04 #@! TA.AperFunction,ComponentPad*
%ADD28C,2.400000*%
G04 #@! TD*
G04 #@! TA.AperFunction,ComponentPad*
%ADD29R,3.000000X3.000000*%
G04 #@! TD*
G04 #@! TA.AperFunction,ComponentPad*
%ADD30C,3.000000*%
G04 #@! TD*
G04 #@! TA.AperFunction,ComponentPad*
%ADD31RoundRect,0.249999X-0.850001X0.850001X-0.850001X-0.850001X0.850001X-0.850001X0.850001X0.850001X0*%
G04 #@! TD*
G04 #@! TA.AperFunction,ComponentPad*
%ADD32RoundRect,0.250000X-0.750000X-0.750000X0.750000X-0.750000X0.750000X0.750000X-0.750000X0.750000X0*%
G04 #@! TD*
G04 #@! TA.AperFunction,ComponentPad*
%ADD33RoundRect,0.250000X0.550000X-0.550000X0.550000X0.550000X-0.550000X0.550000X-0.550000X-0.550000X0*%
G04 #@! TD*
G04 #@! TA.AperFunction,ComponentPad*
%ADD34RoundRect,0.250000X0.750000X-0.750000X0.750000X0.750000X-0.750000X0.750000X-0.750000X-0.750000X0*%
G04 #@! TD*
G04 #@! TA.AperFunction,ViaPad*
%ADD35C,0.800000*%
G04 #@! TD*
G04 #@! TA.AperFunction,Conductor*
%ADD36C,0.300000*%
G04 #@! TD*
G04 #@! TA.AperFunction,Conductor*
%ADD37C,0.250000*%
G04 #@! TD*
G04 #@! TA.AperFunction,Conductor*
%ADD38C,0.400000*%
G04 #@! TD*
G04 APERTURE END LIST*
D10*
X92500000Y-49250000D03*
D11*
X95040000Y-49250000D03*
X97580000Y-49250000D03*
X100120000Y-49250000D03*
X102660000Y-49250000D03*
X105200000Y-49250000D03*
X107740000Y-49250000D03*
X110280000Y-49250000D03*
X110280000Y-41630000D03*
X107740000Y-41630000D03*
X105200000Y-41630000D03*
X102660000Y-41630000D03*
X100120000Y-41630000D03*
X97580000Y-41630000D03*
X95040000Y-41630000D03*
X92500000Y-41630000D03*
D12*
X24500000Y-109250000D03*
D13*
X24500000Y-107980000D03*
X24500000Y-106710000D03*
D14*
X29500000Y-83000000D03*
X29500000Y-78000000D03*
X13750000Y-117000000D03*
X13750000Y-124620000D03*
D15*
X39500000Y-130000000D03*
D16*
X42040000Y-130000000D03*
D14*
X64000000Y-10250000D03*
X71620000Y-10250000D03*
D17*
X44250000Y-118000000D03*
D14*
X46750000Y-118000000D03*
X38250000Y-13000000D03*
X38250000Y-5380000D03*
D10*
X33750000Y-37250000D03*
D11*
X36290000Y-37250000D03*
X38830000Y-37250000D03*
X41370000Y-37250000D03*
X43910000Y-37250000D03*
X46450000Y-37250000D03*
X48990000Y-37250000D03*
X48990000Y-29630000D03*
X46450000Y-29630000D03*
X43910000Y-29630000D03*
X41370000Y-29630000D03*
X38830000Y-29630000D03*
X36290000Y-29630000D03*
X33750000Y-29630000D03*
D14*
X45750000Y-13000000D03*
X45750000Y-8000000D03*
X10750000Y-90250000D03*
X20750000Y-90250000D03*
X70500000Y-116750000D03*
X70500000Y-124370000D03*
X99750000Y-108000000D03*
X99750000Y-113000000D03*
X73250000Y-95750000D03*
X80870000Y-95750000D03*
X69500000Y-48500000D03*
X69500000Y-56120000D03*
D18*
X122750000Y-26000000D03*
D19*
X120210000Y-26000000D03*
X117670000Y-26000000D03*
D20*
X25000000Y-76000000D03*
D11*
X22460000Y-76000000D03*
X19920000Y-76000000D03*
X17380000Y-76000000D03*
X17380000Y-83620000D03*
X19920000Y-83620000D03*
X22460000Y-83620000D03*
X25000000Y-83620000D03*
D14*
X55000000Y-100250000D03*
X50000000Y-100250000D03*
X56500000Y-71500000D03*
X56500000Y-63880000D03*
D20*
X43750000Y-75000000D03*
D11*
X41210000Y-75000000D03*
X38670000Y-75000000D03*
X36130000Y-75000000D03*
X36130000Y-82620000D03*
X38670000Y-82620000D03*
X41210000Y-82620000D03*
X43750000Y-82620000D03*
D14*
X65750000Y-79500000D03*
X65750000Y-71880000D03*
D20*
X25000000Y-18000000D03*
D11*
X22460000Y-18000000D03*
X19920000Y-18000000D03*
X17380000Y-18000000D03*
X17380000Y-25620000D03*
X19920000Y-25620000D03*
X22460000Y-25620000D03*
X25000000Y-25620000D03*
D14*
X42000000Y-71000000D03*
X42000000Y-63380000D03*
D21*
X4000000Y-59500000D03*
D22*
X14160000Y-59500000D03*
D14*
X57500000Y-48750000D03*
X57500000Y-56370000D03*
X11250000Y-9500000D03*
X18870000Y-9500000D03*
X92500000Y-38250000D03*
X97500000Y-38250000D03*
D18*
X11200000Y-84000000D03*
D19*
X11200000Y-81460000D03*
X11200000Y-78920000D03*
D14*
X25000000Y-87750000D03*
X25000000Y-92750000D03*
D15*
X68000000Y-130000000D03*
D16*
X70540000Y-130000000D03*
D14*
X11250000Y-67500000D03*
X18870000Y-67500000D03*
X76250000Y-71250000D03*
X76250000Y-63630000D03*
X23500000Y-38250000D03*
X28500000Y-38250000D03*
X94250000Y-14750000D03*
X94250000Y-7130000D03*
D23*
X97500000Y-128000000D03*
D14*
X97500000Y-130500000D03*
X80500000Y-17250000D03*
X80500000Y-9630000D03*
D21*
X11250000Y-54500000D03*
D22*
X21410000Y-54500000D03*
D14*
X69250000Y-16750000D03*
X76870000Y-16750000D03*
X53500000Y-120000000D03*
X61120000Y-120000000D03*
D15*
X49000000Y-130000000D03*
D16*
X51540000Y-130000000D03*
D24*
X105000000Y-13000000D03*
X100120000Y-13000000D03*
D10*
X117750000Y-49250000D03*
D11*
X120290000Y-49250000D03*
X122830000Y-49250000D03*
X125370000Y-49250000D03*
X127910000Y-49250000D03*
X130450000Y-49250000D03*
X132990000Y-49250000D03*
X132990000Y-41630000D03*
X130450000Y-41630000D03*
X127910000Y-41630000D03*
X125370000Y-41630000D03*
X122830000Y-41630000D03*
X120290000Y-41630000D03*
X117750000Y-41630000D03*
D10*
X116500000Y-10500000D03*
D11*
X119040000Y-10500000D03*
X121580000Y-10500000D03*
X124120000Y-10500000D03*
X126660000Y-10500000D03*
X129200000Y-10500000D03*
X131740000Y-10500000D03*
X131740000Y-2880000D03*
X129200000Y-2880000D03*
X126660000Y-2880000D03*
X124120000Y-2880000D03*
X121580000Y-2880000D03*
X119040000Y-2880000D03*
X116500000Y-2880000D03*
D14*
X62250000Y-42250000D03*
X69870000Y-42250000D03*
D25*
X106750000Y-59500000D03*
D26*
X106750000Y-62040000D03*
X106750000Y-64580000D03*
X106750000Y-67120000D03*
X106750000Y-69660000D03*
X106750000Y-72200000D03*
X106750000Y-74740000D03*
X106750000Y-77280000D03*
X106750000Y-79820000D03*
X106750000Y-82360000D03*
X114370000Y-82360000D03*
X114370000Y-79820000D03*
X114370000Y-77280000D03*
X114370000Y-74740000D03*
X114370000Y-72200000D03*
X114370000Y-69660000D03*
X114370000Y-67120000D03*
X114370000Y-64580000D03*
X114370000Y-62040000D03*
X114370000Y-59500000D03*
D27*
X118000000Y-126500000D03*
X124500000Y-126500000D03*
X118000000Y-131000000D03*
X124500000Y-131000000D03*
D14*
X53000000Y-62500000D03*
X45380000Y-62500000D03*
D18*
X126750000Y-102000000D03*
D19*
X124210000Y-102000000D03*
D14*
X73250000Y-37750000D03*
X80870000Y-37750000D03*
X49750000Y-16750000D03*
X49750000Y-11750000D03*
X53000000Y-4500000D03*
X45380000Y-4500000D03*
X114250000Y-41750000D03*
X114250000Y-46750000D03*
D10*
X37750000Y-56750000D03*
D11*
X40290000Y-56750000D03*
X42830000Y-56750000D03*
X45370000Y-56750000D03*
X47910000Y-56750000D03*
X50450000Y-56750000D03*
X52990000Y-56750000D03*
X52990000Y-49130000D03*
X50450000Y-49130000D03*
X47910000Y-49130000D03*
X45370000Y-49130000D03*
X42830000Y-49130000D03*
X40290000Y-49130000D03*
X37750000Y-49130000D03*
D14*
X111000000Y-11750000D03*
X111000000Y-6750000D03*
X29000000Y-124750000D03*
X29000000Y-117130000D03*
D18*
X78500000Y-80000000D03*
D19*
X81040000Y-80000000D03*
X78500000Y-82540000D03*
X81040000Y-82540000D03*
X78500000Y-85080000D03*
X81040000Y-85080000D03*
X78500000Y-87620000D03*
X81040000Y-87620000D03*
X78500000Y-90160000D03*
X81040000Y-90160000D03*
D14*
X31500000Y-75000000D03*
X31500000Y-67380000D03*
X113250000Y-18000000D03*
X118250000Y-18000000D03*
X129750000Y-108000000D03*
X129750000Y-113000000D03*
D28*
X136300000Y-80380000D03*
X136300000Y-95620000D03*
D12*
X66000000Y-124250000D03*
D13*
X66000000Y-122980000D03*
X66000000Y-121710000D03*
D14*
X91750000Y-130000000D03*
X84130000Y-130000000D03*
X123500000Y-38250000D03*
X128500000Y-38250000D03*
D29*
X4700000Y-10000000D03*
D30*
X4700000Y-15080000D03*
D14*
X7250000Y-32250000D03*
X7250000Y-39870000D03*
X23500000Y-117000000D03*
X23500000Y-124620000D03*
X65250000Y-83000000D03*
X70250000Y-83000000D03*
X34750000Y-63750000D03*
X27130000Y-63750000D03*
X89000000Y-65750000D03*
X89000000Y-70750000D03*
X81750000Y-123000000D03*
X74130000Y-123000000D03*
D25*
X122750000Y-63250000D03*
D26*
X122750000Y-65790000D03*
X122750000Y-68330000D03*
X122750000Y-70870000D03*
X122750000Y-73410000D03*
X122750000Y-75950000D03*
X122750000Y-78490000D03*
X122750000Y-81030000D03*
X122750000Y-83570000D03*
X122750000Y-86110000D03*
X130370000Y-86110000D03*
X130370000Y-83570000D03*
X130370000Y-81030000D03*
X130370000Y-78490000D03*
X130370000Y-75950000D03*
X130370000Y-73410000D03*
X130370000Y-70870000D03*
X130370000Y-68330000D03*
X130370000Y-65790000D03*
X130370000Y-63250000D03*
D29*
X4700000Y-68000000D03*
D30*
X4700000Y-73080000D03*
D15*
X30000000Y-130000000D03*
D16*
X32540000Y-130000000D03*
D14*
X23500000Y-96250000D03*
X28500000Y-96250000D03*
X41000000Y-106000000D03*
X48620000Y-106000000D03*
D17*
X109000000Y-88000000D03*
D14*
X111500000Y-88000000D03*
D10*
X33750000Y-95250000D03*
D11*
X36290000Y-95250000D03*
X38830000Y-95250000D03*
X41370000Y-95250000D03*
X43910000Y-95250000D03*
X46450000Y-95250000D03*
X48990000Y-95250000D03*
X48990000Y-87630000D03*
X46450000Y-87630000D03*
X43910000Y-87630000D03*
X41370000Y-87630000D03*
X38830000Y-87630000D03*
X36290000Y-87630000D03*
X33750000Y-87630000D03*
D14*
X102000000Y-53750000D03*
X94380000Y-53750000D03*
X94750000Y-93000000D03*
X87130000Y-93000000D03*
X28000000Y-13500000D03*
X20380000Y-13500000D03*
X31500000Y-17000000D03*
X31500000Y-9380000D03*
D10*
X55000000Y-37750000D03*
D11*
X57540000Y-37750000D03*
X60080000Y-37750000D03*
X62620000Y-37750000D03*
X65160000Y-37750000D03*
X67700000Y-37750000D03*
X70240000Y-37750000D03*
X70240000Y-30130000D03*
X67700000Y-30130000D03*
X65160000Y-30130000D03*
X62620000Y-30130000D03*
X60080000Y-30130000D03*
X57540000Y-30130000D03*
X55000000Y-30130000D03*
D14*
X30250000Y-87750000D03*
X30250000Y-92750000D03*
X34750000Y-5750000D03*
X27130000Y-5750000D03*
X60500000Y-13500000D03*
X60500000Y-5880000D03*
X52250000Y-113250000D03*
X52250000Y-105630000D03*
D18*
X78500000Y-22000000D03*
D19*
X81040000Y-22000000D03*
X78500000Y-24540000D03*
X81040000Y-24540000D03*
X78500000Y-27080000D03*
X81040000Y-27080000D03*
X78500000Y-29620000D03*
X81040000Y-29620000D03*
X78500000Y-32160000D03*
X81040000Y-32160000D03*
D21*
X119500000Y-89750000D03*
D22*
X129660000Y-89750000D03*
D20*
X62250000Y-17500000D03*
D11*
X59710000Y-17500000D03*
X57170000Y-17500000D03*
X54630000Y-17500000D03*
X54630000Y-25120000D03*
X57170000Y-25120000D03*
X59710000Y-25120000D03*
X62250000Y-25120000D03*
D10*
X118750000Y-113250000D03*
D11*
X121290000Y-113250000D03*
X123830000Y-113250000D03*
X126370000Y-113250000D03*
X126370000Y-105630000D03*
X123830000Y-105630000D03*
X121290000Y-105630000D03*
X118750000Y-105630000D03*
D14*
X38250000Y-71000000D03*
X38250000Y-63380000D03*
X10750000Y-32250000D03*
X20750000Y-32250000D03*
X7250000Y-90250000D03*
X7250000Y-97870000D03*
X89000000Y-120000000D03*
X96620000Y-120000000D03*
X45750000Y-71000000D03*
X45750000Y-66000000D03*
D10*
X92500000Y-26500000D03*
D11*
X95040000Y-26500000D03*
X97580000Y-26500000D03*
X100120000Y-26500000D03*
X102660000Y-26500000D03*
X105200000Y-26500000D03*
X107740000Y-26500000D03*
X110280000Y-26500000D03*
X110280000Y-18880000D03*
X107740000Y-18880000D03*
X105200000Y-18880000D03*
X102660000Y-18880000D03*
X100120000Y-18880000D03*
X97580000Y-18880000D03*
X95040000Y-18880000D03*
X92500000Y-18880000D03*
D29*
X4700000Y-48500000D03*
D30*
X4700000Y-53580000D03*
D14*
X3250000Y-37500000D03*
X3250000Y-42500000D03*
D23*
X37750000Y-105500000D03*
D14*
X37750000Y-113120000D03*
D20*
X43750000Y-17000000D03*
D11*
X41210000Y-17000000D03*
X38670000Y-17000000D03*
X36130000Y-17000000D03*
X36130000Y-24620000D03*
X38670000Y-24620000D03*
X41210000Y-24620000D03*
X43750000Y-24620000D03*
D20*
X119500000Y-30750000D03*
D11*
X116960000Y-30750000D03*
X114420000Y-30750000D03*
X111880000Y-30750000D03*
X109340000Y-30750000D03*
X106800000Y-30750000D03*
X104260000Y-30750000D03*
X101720000Y-30750000D03*
X101720000Y-38370000D03*
X104260000Y-38370000D03*
X106800000Y-38370000D03*
X109340000Y-38370000D03*
X111880000Y-38370000D03*
X114420000Y-38370000D03*
X116960000Y-38370000D03*
X119500000Y-38370000D03*
D14*
X100000000Y-117750000D03*
X107620000Y-117750000D03*
D18*
X11200000Y-26000000D03*
D19*
X11200000Y-23460000D03*
X11200000Y-20920000D03*
D23*
X34500000Y-105500000D03*
D14*
X34500000Y-113120000D03*
X112500000Y-3000000D03*
X107500000Y-3000000D03*
X80500000Y-75250000D03*
X80500000Y-67630000D03*
X114500000Y-13750000D03*
X122120000Y-13750000D03*
X65500000Y-56000000D03*
X65500000Y-48380000D03*
X76250000Y-13250000D03*
X76250000Y-5630000D03*
D15*
X77500000Y-130000000D03*
D16*
X80040000Y-130000000D03*
D14*
X62250000Y-100250000D03*
X69870000Y-100250000D03*
D15*
X20500000Y-130000000D03*
D16*
X23040000Y-130000000D03*
D14*
X60500000Y-71500000D03*
X60500000Y-63880000D03*
D17*
X104250000Y-98000000D03*
D14*
X107750000Y-98000000D03*
X121250000Y-18000000D03*
X128870000Y-18000000D03*
X28000000Y-71500000D03*
X20380000Y-71500000D03*
X97500000Y-91250000D03*
X105120000Y-91250000D03*
D15*
X58500000Y-130000000D03*
D16*
X61040000Y-130000000D03*
D14*
X120750000Y-21750000D03*
X113130000Y-21750000D03*
X37000000Y-41750000D03*
X42000000Y-41750000D03*
X94250000Y-89500000D03*
X94250000Y-81880000D03*
X29500000Y-25000000D03*
X29500000Y-20000000D03*
X65000000Y-6250000D03*
X72620000Y-6250000D03*
X127250000Y-122500000D03*
X134870000Y-122500000D03*
X42000000Y-13000000D03*
X42000000Y-5380000D03*
D31*
X115500000Y-88000000D03*
D22*
X115500000Y-98160000D03*
D18*
X78500000Y-47500000D03*
D19*
X81040000Y-47500000D03*
X78500000Y-50040000D03*
X81040000Y-50040000D03*
X78500000Y-52580000D03*
X81040000Y-52580000D03*
X78500000Y-55120000D03*
X81040000Y-55120000D03*
X78500000Y-57660000D03*
X81040000Y-57660000D03*
D32*
X94250000Y-63000000D03*
D27*
X99250000Y-63000000D03*
D14*
X110750000Y-117750000D03*
X115750000Y-117750000D03*
X92500000Y-29250000D03*
X92500000Y-34250000D03*
X29000000Y-114750000D03*
X29000000Y-107130000D03*
D17*
X129750000Y-116750000D03*
D14*
X137370000Y-116750000D03*
X118750000Y-102250000D03*
X113750000Y-102250000D03*
X37000000Y-99750000D03*
X42000000Y-99750000D03*
X117750000Y-59500000D03*
X117750000Y-64500000D03*
X119250000Y-98000000D03*
X126870000Y-98000000D03*
D23*
X90500000Y-110250000D03*
D14*
X90500000Y-113750000D03*
X133750000Y-65750000D03*
X133750000Y-70750000D03*
X126500000Y-118000000D03*
X118880000Y-118000000D03*
X61500000Y-56750000D03*
X61500000Y-49130000D03*
X48250000Y-25000000D03*
X48250000Y-20000000D03*
X40250000Y-124750000D03*
X40250000Y-117130000D03*
X11200000Y-50250000D03*
X11200000Y-42630000D03*
X49750000Y-74750000D03*
X49750000Y-69750000D03*
D27*
X104000000Y-126500000D03*
X110500000Y-126500000D03*
X104000000Y-131000000D03*
X110500000Y-131000000D03*
D14*
X65750000Y-21500000D03*
X65750000Y-13880000D03*
D15*
X11000000Y-130000000D03*
D16*
X13540000Y-130000000D03*
D14*
X97500000Y-124000000D03*
X92500000Y-124000000D03*
D33*
X18000000Y-109250000D03*
D14*
X18000000Y-106750000D03*
D20*
X62250000Y-75500000D03*
D11*
X59710000Y-75500000D03*
X57170000Y-75500000D03*
X54630000Y-75500000D03*
X54630000Y-83120000D03*
X57170000Y-83120000D03*
X59710000Y-83120000D03*
X62250000Y-83120000D03*
D14*
X44250000Y-124250000D03*
X51870000Y-124250000D03*
X48250000Y-83000000D03*
X48250000Y-78000000D03*
D17*
X110750000Y-121750000D03*
D14*
X118370000Y-121750000D03*
D10*
X55000000Y-95750000D03*
D11*
X57540000Y-95750000D03*
X60080000Y-95750000D03*
X62620000Y-95750000D03*
X65160000Y-95750000D03*
X67700000Y-95750000D03*
X70240000Y-95750000D03*
X70240000Y-88130000D03*
X67700000Y-88130000D03*
X65160000Y-88130000D03*
X62620000Y-88130000D03*
X60080000Y-88130000D03*
X57540000Y-88130000D03*
X55000000Y-88130000D03*
D14*
X33000000Y-116750000D03*
X33000000Y-124370000D03*
X30250000Y-29750000D03*
X30250000Y-34750000D03*
X48750000Y-112750000D03*
X41130000Y-112750000D03*
X15500000Y-46750000D03*
X15500000Y-41750000D03*
X34750000Y-56750000D03*
X29750000Y-56750000D03*
X65250000Y-25000000D03*
X70250000Y-25000000D03*
D18*
X15500000Y-50000000D03*
D19*
X18040000Y-50000000D03*
D14*
X3250000Y-95500000D03*
X3250000Y-100500000D03*
X55000000Y-42250000D03*
X50000000Y-42250000D03*
X65000000Y-64250000D03*
X72620000Y-64250000D03*
D20*
X112000000Y-106750000D03*
D11*
X109460000Y-106750000D03*
X106920000Y-106750000D03*
X104380000Y-106750000D03*
X104380000Y-114370000D03*
X106920000Y-114370000D03*
X109460000Y-114370000D03*
X112000000Y-114370000D03*
D28*
X101000000Y-86000000D03*
X101000000Y-70760000D03*
D14*
X56500000Y-13500000D03*
X56500000Y-5880000D03*
X25000000Y-29750000D03*
X25000000Y-34750000D03*
D12*
X9000000Y-117000000D03*
D13*
X9000000Y-118270000D03*
X9000000Y-119540000D03*
D14*
X69250000Y-74750000D03*
X76870000Y-74750000D03*
X87250000Y-103250000D03*
X87250000Y-98250000D03*
X34750000Y-48750000D03*
X29750000Y-48750000D03*
X18000000Y-112750000D03*
X18000000Y-120370000D03*
D34*
X95000000Y-103250000D03*
D27*
X95000000Y-98250000D03*
D14*
X64000000Y-68250000D03*
X71620000Y-68250000D03*
X129750000Y-126500000D03*
X129750000Y-131500000D03*
D18*
X88770000Y-56630000D03*
D19*
X86230000Y-56630000D03*
X88770000Y-54090000D03*
X86230000Y-54090000D03*
X88770000Y-51550000D03*
X86230000Y-51550000D03*
X88770000Y-49010000D03*
X86230000Y-49010000D03*
X88770000Y-46470000D03*
X86230000Y-46470000D03*
X88770000Y-43930000D03*
X86230000Y-43930000D03*
X88770000Y-41390000D03*
X86230000Y-41390000D03*
X88770000Y-38850000D03*
X86230000Y-38850000D03*
X88770000Y-36310000D03*
X86230000Y-36310000D03*
X88770000Y-33770000D03*
X86230000Y-33770000D03*
X88770000Y-31230000D03*
X86230000Y-31230000D03*
X88770000Y-28690000D03*
X86230000Y-28690000D03*
X88770000Y-26150000D03*
X86230000Y-26150000D03*
X88770000Y-23610000D03*
X86230000Y-23610000D03*
X88770000Y-21070000D03*
X86230000Y-21070000D03*
X88770000Y-18530000D03*
X86230000Y-18530000D03*
X88770000Y-15990000D03*
X86230000Y-15990000D03*
X88770000Y-13450000D03*
X86230000Y-13450000D03*
X88770000Y-10910000D03*
X86230000Y-10910000D03*
X88770000Y-8370000D03*
X86230000Y-8370000D03*
D35*
X66975700Y-49345800D03*
X96768400Y-54990400D03*
X70934400Y-69998300D03*
X66530200Y-35119600D03*
X96237900Y-39755200D03*
X106040900Y-50867000D03*
X82641600Y-39769600D03*
X84442400Y-44101500D03*
X78954300Y-43330400D03*
X30370900Y-59872800D03*
X97498900Y-68528800D03*
X91795300Y-72973900D03*
X99485000Y-34947500D03*
D36*
X61280600Y-85490400D02*
X61072500Y-85282300D01*
X90960300Y-47710300D02*
X92500000Y-49250000D01*
X66975700Y-72341300D02*
X66975700Y-49345800D01*
X61280600Y-92997700D02*
X61280600Y-85490400D01*
X66285300Y-73031700D02*
X66975700Y-72341300D01*
X60080000Y-95750000D02*
X60080000Y-94198300D01*
X61072500Y-85282300D02*
X61072500Y-82453700D01*
X58522500Y-79903700D02*
X58522500Y-74268900D01*
X60080000Y-94198300D02*
X61280600Y-92997700D01*
X94380000Y-53750000D02*
X92500000Y-51870000D01*
X81040000Y-47500000D02*
X81250300Y-47710300D01*
X92500000Y-51870000D02*
X92500000Y-49250000D01*
X59759700Y-73031700D02*
X66285300Y-73031700D01*
X61072500Y-82453700D02*
X58522500Y-79903700D01*
X81250300Y-47710300D02*
X90960300Y-47710300D01*
X58522500Y-74268900D02*
X59759700Y-73031700D01*
D37*
X66430000Y-84284800D02*
X70934400Y-79780400D01*
X65160000Y-95750000D02*
X65160000Y-94223300D01*
X70934400Y-79780400D02*
X70934400Y-69998300D01*
X96768400Y-53143800D02*
X96768400Y-54990400D01*
X95040000Y-51415400D02*
X96768400Y-53143800D01*
X95040000Y-50776700D02*
X95040000Y-51415400D01*
X95040000Y-49250000D02*
X95040000Y-50776700D01*
X65160000Y-94223300D02*
X66430000Y-92953300D01*
X66430000Y-92953300D02*
X66430000Y-84284800D01*
X96237900Y-46381200D02*
X97580000Y-47723300D01*
X96237900Y-39755200D02*
X96237900Y-46381200D01*
X97580000Y-49250000D02*
X97580000Y-47723300D01*
X65160000Y-36223300D02*
X65426500Y-36223300D01*
X65160000Y-37750000D02*
X65160000Y-36223300D01*
X65426500Y-36223300D02*
X66530200Y-35119600D01*
D36*
X105470000Y-39342500D02*
X105470000Y-36528800D01*
X101316100Y-29125100D02*
X101316100Y-24315600D01*
X100568300Y-31627100D02*
X100568300Y-29872900D01*
X105200000Y-18880000D02*
X105200000Y-20431700D01*
X106040900Y-50867000D02*
X106362700Y-50545200D01*
X101316100Y-24315600D02*
X105200000Y-20431700D01*
X105470000Y-36528800D02*
X100568300Y-31627100D01*
X106362700Y-50545200D02*
X106362700Y-40235200D01*
X106362700Y-40235200D02*
X105470000Y-39342500D01*
X100568300Y-29872900D02*
X101316100Y-29125100D01*
D37*
X24500000Y-109250000D02*
X24500000Y-110101700D01*
X23500000Y-111101700D02*
X24500000Y-110101700D01*
X23500000Y-117000000D02*
X23500000Y-111101700D01*
D38*
X28267000Y-34283600D02*
X29025200Y-35041800D01*
X29750000Y-36753700D02*
X29750000Y-48750000D01*
X39500000Y-130000000D02*
X39500000Y-128698300D01*
X104297300Y-106750000D02*
X104297300Y-105558100D01*
X44045300Y-64295300D02*
X44045300Y-51947000D01*
X28577300Y-92725700D02*
X28577200Y-92725700D01*
X36130000Y-17000000D02*
X36130000Y-5029000D01*
X44045300Y-51947000D02*
X42830000Y-50731700D01*
X29048300Y-93247700D02*
X29048300Y-93196700D01*
X93032200Y-94293000D02*
X93032200Y-83097800D01*
X104297300Y-108452700D02*
X104297300Y-106750000D01*
X36130000Y-55130000D02*
X29750000Y-48750000D01*
X99750000Y-113000000D02*
X104297300Y-108452700D01*
X30487300Y-119685600D02*
X30487300Y-94686700D01*
X29500000Y-20000000D02*
X28267000Y-21233000D01*
X36130000Y-75000000D02*
X36130000Y-55130000D01*
X29048300Y-93196700D02*
X28577300Y-92725700D01*
X93032200Y-83097800D02*
X94250000Y-81880000D01*
X28577200Y-83949600D02*
X28253900Y-83626300D01*
X42830000Y-49130000D02*
X42830000Y-50731700D01*
X30487300Y-94686700D02*
X29048300Y-93247700D01*
X28253900Y-79246100D02*
X29500000Y-78000000D01*
X28577200Y-92725700D02*
X28577200Y-83949600D01*
X36130000Y-5029000D02*
X37476200Y-3682800D01*
X28267000Y-21233000D02*
X28267000Y-34283600D01*
X28253900Y-83626300D02*
X28253900Y-79246100D01*
X45750000Y-66000000D02*
X44045300Y-64295300D01*
X104297300Y-105558100D02*
X93032200Y-94293000D01*
X42059600Y-3682800D02*
X45750000Y-7373200D01*
X29025200Y-36028900D02*
X29750000Y-36753700D01*
X29025200Y-35041800D02*
X29025200Y-36028900D01*
X39500000Y-128698300D02*
X30487300Y-119685600D01*
X104380000Y-106750000D02*
X104297300Y-106750000D01*
X45750000Y-7373200D02*
X45750000Y-8000000D01*
X37476200Y-3682800D02*
X42059600Y-3682800D01*
D37*
X9000000Y-117000000D02*
X13750000Y-117000000D01*
X13540000Y-130000000D02*
X13540000Y-124830000D01*
X13540000Y-124830000D02*
X13750000Y-124620000D01*
X42040000Y-118920000D02*
X42040000Y-130000000D01*
X40250000Y-117130000D02*
X42040000Y-118920000D01*
D38*
X61295200Y-39494700D02*
X57500000Y-43289900D01*
X55256400Y-66256400D02*
X55256400Y-62500000D01*
X60500000Y-71500000D02*
X63750000Y-68250000D01*
X60500000Y-13500000D02*
X53000000Y-6000000D01*
X53000000Y-62500000D02*
X55256400Y-62500000D01*
X61295200Y-27455000D02*
X61295200Y-39494700D01*
X63750000Y-68250000D02*
X64000000Y-68250000D01*
X55256400Y-50993600D02*
X57500000Y-48750000D01*
X87130000Y-69238300D02*
X81040000Y-63148300D01*
X60911700Y-27071500D02*
X61295200Y-27455000D01*
X60500000Y-71500000D02*
X55256400Y-66256400D01*
X58500600Y-15499400D02*
X58500600Y-20748300D01*
X60500000Y-13500000D02*
X58500600Y-15499400D01*
X87130000Y-93000000D02*
X87130000Y-69238300D01*
X58500600Y-20748300D02*
X60911700Y-23159400D01*
X55256400Y-62500000D02*
X55256400Y-50993600D01*
X53000000Y-6000000D02*
X53000000Y-4500000D01*
X60911700Y-23159400D02*
X60911700Y-27071500D01*
X57500000Y-43289900D02*
X57500000Y-48750000D01*
X81040000Y-63148300D02*
X81040000Y-57660000D01*
D37*
X41210000Y-18526700D02*
X42371500Y-19688200D01*
X42371500Y-19688200D02*
X42371500Y-25540900D01*
X42371500Y-25540900D02*
X40100000Y-27812400D01*
X40100000Y-38650000D02*
X37000000Y-41750000D01*
X41210000Y-17000000D02*
X41210000Y-18526700D01*
X40100000Y-27812400D02*
X40100000Y-38650000D01*
X41130000Y-112750000D02*
X44250000Y-115870000D01*
X44250000Y-115870000D02*
X44250000Y-118000000D01*
X37110200Y-4863300D02*
X37757200Y-4216300D01*
X37110200Y-11860200D02*
X37110200Y-4863300D01*
X37506200Y-21929500D02*
X37506200Y-13743800D01*
X38670000Y-23093300D02*
X37506200Y-21929500D01*
X38670000Y-24620000D02*
X38670000Y-23093300D01*
X38250000Y-13000000D02*
X37110200Y-11860200D01*
X40836300Y-4216300D02*
X42000000Y-5380000D01*
X37506200Y-13743800D02*
X38250000Y-13000000D01*
X37757200Y-4216300D02*
X40836300Y-4216300D01*
X40032600Y-21915900D02*
X40032600Y-7162600D01*
X40032600Y-7162600D02*
X38250000Y-5380000D01*
X41210000Y-24620000D02*
X41210000Y-23093300D01*
X41210000Y-23093300D02*
X40032600Y-21915900D01*
X36290000Y-37250000D02*
X36290000Y-35723300D01*
X36290000Y-35723300D02*
X31500000Y-30933300D01*
X31500000Y-30933300D02*
X31500000Y-17000000D01*
X82712800Y-30487200D02*
X81040000Y-32160000D01*
X82712800Y-19462800D02*
X82712800Y-30487200D01*
X80500000Y-17250000D02*
X82712800Y-19462800D01*
X6526700Y-71653400D02*
X6526700Y-86026700D01*
X4700000Y-69826700D02*
X6526700Y-71653400D01*
X4700000Y-68000000D02*
X4700000Y-69826700D01*
X6526700Y-86026700D02*
X10750000Y-90250000D01*
X72746700Y-68716800D02*
X72746700Y-66191100D01*
X70500000Y-116750000D02*
X72118100Y-115131900D01*
X83368300Y-39999200D02*
X85708100Y-37659400D01*
X83368300Y-40070600D02*
X83368300Y-39999200D01*
X86706000Y-37659400D02*
X87593300Y-38546700D01*
X72746700Y-66191100D02*
X71452600Y-64897000D01*
X88770000Y-40632600D02*
X88770000Y-41390000D01*
X85708100Y-37659400D02*
X86706000Y-37659400D01*
X72118100Y-115131900D02*
X72118100Y-69345400D01*
X71452600Y-64897000D02*
X71452600Y-51986300D01*
X87593300Y-38546700D02*
X87593300Y-39455900D01*
X71452600Y-51986300D02*
X83368300Y-40070600D01*
X72118100Y-69345400D02*
X72746700Y-68716800D01*
X87593300Y-39455900D02*
X88770000Y-40632600D01*
X70540000Y-124410000D02*
X70500000Y-124370000D01*
X70540000Y-130000000D02*
X70540000Y-124410000D01*
X79838700Y-94718700D02*
X80870000Y-95750000D01*
X81040000Y-87620000D02*
X79838700Y-88821300D01*
X58861600Y-92901700D02*
X57540000Y-94223300D01*
X59710000Y-84646700D02*
X58861600Y-85495100D01*
X58861600Y-85495100D02*
X58861600Y-92901700D01*
X79838700Y-88821300D02*
X79838700Y-94718700D01*
X57540000Y-95750000D02*
X57540000Y-94223300D01*
X59710000Y-83120000D02*
X59710000Y-84646700D01*
D38*
X68366500Y-73866500D02*
X69250000Y-74750000D01*
X61900900Y-43652300D02*
X61037000Y-42788400D01*
X59710000Y-75500000D02*
X59710000Y-73898300D01*
X59710000Y-17500000D02*
X59710000Y-15898300D01*
X82329800Y-62337000D02*
X82329800Y-56409800D01*
X63835000Y-38887000D02*
X63835000Y-16750000D01*
X63835000Y-16639400D02*
X63062100Y-15866500D01*
X68259200Y-49740800D02*
X68440100Y-49559900D01*
X61037000Y-42788400D02*
X61037000Y-41685000D01*
X63835000Y-16750000D02*
X63835000Y-16639400D01*
X68259200Y-73866500D02*
X68366500Y-73866500D01*
X82329800Y-56409800D02*
X81040000Y-55120000D01*
X59710000Y-73898300D02*
X59741800Y-73866500D01*
X97500000Y-91250000D02*
X97500000Y-77507200D01*
X68440100Y-49559900D02*
X69500000Y-48500000D01*
X63835000Y-16750000D02*
X69250000Y-16750000D01*
X59741800Y-73866500D02*
X68259200Y-73866500D01*
X62532500Y-43652300D02*
X61900900Y-43652300D01*
X61037000Y-41685000D02*
X63835000Y-38887000D01*
X59741800Y-15866500D02*
X59710000Y-15898300D01*
X97500000Y-77507200D02*
X82329800Y-62337000D01*
X68440100Y-49559900D02*
X62532500Y-43652300D01*
X63062100Y-15866500D02*
X59741800Y-15866500D01*
X68259200Y-73866500D02*
X68259200Y-49740800D01*
X47910000Y-52608300D02*
X45370000Y-55148300D01*
X47910000Y-49130000D02*
X47910000Y-52608300D01*
X45370000Y-56750000D02*
X45370000Y-55148300D01*
D37*
X124120000Y-23453300D02*
X124120000Y-10500000D01*
X122750000Y-26000000D02*
X122750000Y-24823300D01*
X122750000Y-24823300D02*
X124120000Y-23453300D01*
X120210000Y-26000000D02*
X121480500Y-27270500D01*
X120290000Y-49250000D02*
X120290000Y-47723300D01*
X121480500Y-46532800D02*
X120290000Y-47723300D01*
X121480500Y-27270500D02*
X121480500Y-46532800D01*
X49959500Y-47603300D02*
X49286600Y-48276200D01*
X52990000Y-49130000D02*
X52990000Y-47603300D01*
X52990000Y-47603300D02*
X49959500Y-47603300D01*
X49286600Y-69286600D02*
X49750000Y-69750000D01*
X49286600Y-48276200D02*
X49286600Y-69286600D01*
X22460000Y-74473300D02*
X20380000Y-72393300D01*
X47466100Y-72466100D02*
X49750000Y-74750000D01*
X18870000Y-69990000D02*
X18870000Y-67500000D01*
X22460000Y-76000000D02*
X22460000Y-74473300D01*
X47466100Y-64586100D02*
X47466100Y-72466100D01*
X20380000Y-72393300D02*
X20380000Y-71500000D01*
X45380000Y-62500000D02*
X47466100Y-64586100D01*
X20380000Y-71500000D02*
X18870000Y-69990000D01*
X23500000Y-89091300D02*
X19920000Y-85511300D01*
X23648300Y-67231700D02*
X23648300Y-78365000D01*
X23500000Y-96250000D02*
X23500000Y-89091300D01*
X61292800Y-63880000D02*
X60500000Y-63880000D01*
X65750000Y-68337200D02*
X61292800Y-63880000D01*
X23648300Y-78365000D02*
X19920000Y-82093300D01*
X19920000Y-85511300D02*
X19920000Y-83620000D01*
X27130000Y-63750000D02*
X23648300Y-67231700D01*
X65750000Y-71880000D02*
X65750000Y-68337200D01*
X19920000Y-83620000D02*
X19920000Y-82093300D01*
X22460000Y-83620000D02*
X22460000Y-87353300D01*
X28500000Y-93393300D02*
X28500000Y-96250000D01*
X22460000Y-87353300D02*
X28500000Y-93393300D01*
X78448400Y-73448400D02*
X76250000Y-71250000D01*
X78448400Y-76034500D02*
X78448400Y-73448400D01*
X43518600Y-72518600D02*
X43518600Y-75000000D01*
X43518600Y-75000000D02*
X42586300Y-75932300D01*
X42000000Y-71000000D02*
X43518600Y-72518600D01*
X79770000Y-83810000D02*
X79770000Y-77356100D01*
X81040000Y-85080000D02*
X79770000Y-83810000D01*
X79770000Y-77356100D02*
X78448400Y-76034500D01*
X42586300Y-99163700D02*
X42000000Y-99750000D01*
X42586300Y-75932300D02*
X42586300Y-99163700D01*
X43750000Y-75000000D02*
X43518600Y-75000000D01*
X71661200Y-98458800D02*
X69870000Y-100250000D01*
X35004800Y-90293900D02*
X35004800Y-86104800D01*
X71661200Y-68291200D02*
X71661200Y-98458800D01*
X37000000Y-99750000D02*
X37416700Y-99333300D01*
X37416700Y-99333300D02*
X37416700Y-92705800D01*
X37416700Y-92705800D02*
X35004800Y-90293900D01*
X33615000Y-84715000D02*
X33615000Y-69495000D01*
X33615000Y-69495000D02*
X31500000Y-67380000D01*
X35004800Y-86104800D02*
X33615000Y-84715000D01*
X71620000Y-68250000D02*
X71661200Y-68291200D01*
X38670000Y-82620000D02*
X38670000Y-81093300D01*
X37094800Y-62919100D02*
X37774500Y-62239400D01*
X37506200Y-71743800D02*
X38250000Y-71000000D01*
X37094800Y-69844800D02*
X37094800Y-62919100D01*
X37506200Y-79929500D02*
X37506200Y-71743800D01*
X38670000Y-81093300D02*
X37506200Y-79929500D01*
X40859400Y-62239400D02*
X42000000Y-63380000D01*
X38250000Y-71000000D02*
X37094800Y-69844800D01*
X37774500Y-62239400D02*
X40859400Y-62239400D01*
X40032600Y-65162600D02*
X38250000Y-63380000D01*
X40032600Y-79915900D02*
X40032600Y-65162600D01*
X41210000Y-81093300D02*
X40032600Y-79915900D01*
X41210000Y-82620000D02*
X41210000Y-81093300D01*
X80500000Y-75250000D02*
X82231200Y-76981200D01*
X82231200Y-88968800D02*
X81040000Y-90160000D01*
X82231200Y-76981200D02*
X82231200Y-88968800D01*
X54175600Y-57640100D02*
X54175600Y-50483200D01*
X51961300Y-13961300D02*
X49750000Y-11750000D01*
X50450000Y-58276700D02*
X53539000Y-58276700D01*
X56038700Y-13961300D02*
X56500000Y-13500000D01*
X56177500Y-27942700D02*
X56038700Y-27803900D01*
X54175600Y-50483200D02*
X56177500Y-48481300D01*
X56038700Y-13961300D02*
X51961300Y-13961300D01*
X56177500Y-48481300D02*
X56177500Y-27942700D01*
X50450000Y-56750000D02*
X50450000Y-58276700D01*
X53539000Y-58276700D02*
X54175600Y-57640100D01*
X56038700Y-27803900D02*
X56038700Y-13961300D01*
X22460000Y-16473300D02*
X20380000Y-14393300D01*
X22460000Y-18000000D02*
X22460000Y-16473300D01*
X18870000Y-11990000D02*
X18870000Y-9500000D01*
X45380000Y-4500000D02*
X47466100Y-6586100D01*
X20380000Y-13500000D02*
X18870000Y-11990000D01*
X20380000Y-14393300D02*
X20380000Y-13500000D01*
X47466100Y-6586100D02*
X47466100Y-14466100D01*
X47466100Y-14466100D02*
X49750000Y-16750000D01*
X23648300Y-9231700D02*
X23648300Y-20365000D01*
X27130000Y-5750000D02*
X23648300Y-9231700D01*
X23500000Y-31091300D02*
X19920000Y-27511300D01*
X65750000Y-13880000D02*
X60500000Y-8630000D01*
X23648300Y-20365000D02*
X19920000Y-24093300D01*
X60500000Y-8630000D02*
X60500000Y-5880000D01*
X19920000Y-27511300D02*
X19920000Y-25620000D01*
X19920000Y-25620000D02*
X19920000Y-24093300D01*
X23500000Y-38250000D02*
X23500000Y-31091300D01*
X77587600Y-25810000D02*
X79770000Y-25810000D01*
X22460000Y-25620000D02*
X22460000Y-29351200D01*
X66430000Y-36967600D02*
X77587600Y-25810000D01*
X79770000Y-25810000D02*
X81040000Y-24540000D01*
X66430000Y-38521900D02*
X66430000Y-36967600D01*
X62701900Y-42250000D02*
X66430000Y-38521900D01*
X22460000Y-29351200D02*
X28498500Y-35389700D01*
X28498500Y-35389700D02*
X28498500Y-38248500D01*
X28498500Y-38248500D02*
X28500000Y-38250000D01*
X62250000Y-42250000D02*
X62701900Y-42250000D01*
X11250000Y-54500000D02*
X11200000Y-54450000D01*
X11250000Y-56590000D02*
X11250000Y-54500000D01*
X4700000Y-53580000D02*
X4700000Y-48500000D01*
X15500000Y-50000000D02*
X15500000Y-46750000D01*
X11200000Y-54450000D02*
X11200000Y-50250000D01*
X14160000Y-59500000D02*
X11250000Y-56590000D01*
D38*
X50450000Y-49130000D02*
X50450000Y-52608300D01*
X50450000Y-52608300D02*
X52990000Y-55148300D01*
X52990000Y-56750000D02*
X52990000Y-55148300D01*
D37*
X9998300Y-22258300D02*
X9998300Y-10751700D01*
X9998300Y-10751700D02*
X11250000Y-9500000D01*
X11200000Y-23460000D02*
X9998300Y-22258300D01*
X11200000Y-84000000D02*
X11200000Y-85176700D01*
X11200000Y-85176700D02*
X11900600Y-85877300D01*
X11900600Y-93219400D02*
X7250000Y-97870000D01*
X11900600Y-85877300D02*
X11900600Y-93219400D01*
X9998300Y-80258300D02*
X9998300Y-68751700D01*
X11200000Y-81460000D02*
X9998300Y-80258300D01*
X9998300Y-68751700D02*
X11250000Y-67500000D01*
X73881100Y-65511100D02*
X73881100Y-71761100D01*
X72620000Y-64250000D02*
X73881100Y-65511100D01*
X73881100Y-71761100D02*
X76870000Y-74750000D01*
X100120000Y-26500000D02*
X100120000Y-24973300D01*
X96310000Y-21163300D02*
X100120000Y-24973300D01*
X96310000Y-16810000D02*
X96310000Y-21163300D01*
X94250000Y-14750000D02*
X96310000Y-16810000D01*
D36*
X84600300Y-20920800D02*
X84600300Y-37810900D01*
X91797800Y-17210300D02*
X89208100Y-19800000D01*
X94250000Y-7130000D02*
X91797800Y-9582200D01*
X85721100Y-19800000D02*
X84600300Y-20920800D01*
X84600300Y-37810900D02*
X82641600Y-39769600D01*
X89208100Y-19800000D02*
X85721100Y-19800000D01*
X91797800Y-9582200D02*
X91797800Y-17210300D01*
D37*
X70638500Y-51646200D02*
X70638500Y-56814400D01*
X70638500Y-56814400D02*
X70207700Y-57245200D01*
X70207700Y-57245200D02*
X70207700Y-71982300D01*
X63890000Y-85979600D02*
X63890000Y-109610000D01*
X70429000Y-72203600D02*
X70429000Y-79440600D01*
X78954300Y-43330400D02*
X70638500Y-51646200D01*
X70429000Y-79440600D02*
X63890000Y-85979600D01*
X70207700Y-71982300D02*
X70429000Y-72203600D01*
X63890000Y-109610000D02*
X53500000Y-120000000D01*
X87559700Y-45140300D02*
X85481200Y-45140300D01*
X88770000Y-43930000D02*
X87559700Y-45140300D01*
X85481200Y-45140300D02*
X84442400Y-44101500D01*
X61120000Y-129920000D02*
X61040000Y-130000000D01*
X61120000Y-120000000D02*
X61120000Y-129920000D01*
X51870000Y-124250000D02*
X51540000Y-124580000D01*
X51540000Y-124580000D02*
X51540000Y-130000000D01*
X116500000Y-10500000D02*
X116500000Y-11750000D01*
X116500000Y-11750000D02*
X114500000Y-13750000D01*
X112538200Y-17288200D02*
X113250000Y-18000000D01*
X104408200Y-17288200D02*
X112538200Y-17288200D01*
X100120000Y-13000000D02*
X104408200Y-17288200D01*
X113130000Y-21750000D02*
X113250000Y-21630000D01*
X113250000Y-21630000D02*
X113250000Y-18000000D01*
D36*
X108886600Y-29198300D02*
X107740000Y-28051700D01*
X111880000Y-29198300D02*
X108886600Y-29198300D01*
X111880000Y-30750000D02*
X111880000Y-29198300D01*
X107740000Y-26500000D02*
X107740000Y-28051700D01*
D37*
X129750000Y-108000000D02*
X128201600Y-106451600D01*
X129645900Y-64520000D02*
X131098600Y-64520000D01*
X131098600Y-64520000D02*
X131918300Y-63700300D01*
X131918300Y-63700300D02*
X131918300Y-52245000D01*
X130450000Y-49250000D02*
X130450000Y-50776700D01*
X128201600Y-106451600D02*
X128201600Y-65964300D01*
X128201600Y-65964300D02*
X129645900Y-64520000D01*
X131918300Y-52245000D02*
X130450000Y-50776700D01*
X120062600Y-21062600D02*
X120062600Y-15807400D01*
X121580000Y-13210000D02*
X122120000Y-13750000D01*
X120750000Y-21750000D02*
X120062600Y-21062600D01*
X121580000Y-10500000D02*
X121580000Y-13210000D01*
X120062600Y-15807400D02*
X122120000Y-13750000D01*
D38*
X114420000Y-32351700D02*
X113150000Y-33621700D01*
X130370000Y-86110000D02*
X131971700Y-86110000D01*
X113150000Y-40857300D02*
X112659800Y-41347500D01*
X131971700Y-70870000D02*
X131971700Y-75950000D01*
X130370000Y-75950000D02*
X131971700Y-75950000D01*
X112659800Y-57731900D02*
X108351700Y-62040000D01*
X130370000Y-70870000D02*
X131971700Y-70870000D01*
X112659800Y-41347500D02*
X112659800Y-57731900D01*
X114420000Y-30750000D02*
X114420000Y-32351700D01*
X131971700Y-75950000D02*
X131971700Y-81030000D01*
X106750000Y-62040000D02*
X108351700Y-62040000D01*
X131971700Y-86110000D02*
X131971700Y-81030000D01*
X130370000Y-81030000D02*
X131971700Y-81030000D01*
X108351700Y-67120000D02*
X108351700Y-62040000D01*
X113150000Y-33621700D02*
X113150000Y-40857300D01*
X106750000Y-67120000D02*
X108351700Y-67120000D01*
D37*
X112843300Y-79349000D02*
X113785600Y-78406700D01*
X115896700Y-76813200D02*
X115236800Y-76153300D01*
X114370000Y-69660000D02*
X112843300Y-69660000D01*
X112843300Y-79820000D02*
X112843300Y-79349000D01*
X114370000Y-74740000D02*
X112843300Y-74740000D01*
X108276700Y-79820000D02*
X108276700Y-87276700D01*
X112843300Y-74740000D02*
X112843300Y-69660000D01*
X113785500Y-76153300D02*
X112843300Y-75211100D01*
X122750000Y-83570000D02*
X124276700Y-83570000D01*
X122750000Y-68330000D02*
X124276700Y-68330000D01*
X114370000Y-64580000D02*
X112843300Y-64580000D01*
X106750000Y-79820000D02*
X108276700Y-79820000D01*
X124276700Y-78490000D02*
X124276700Y-73410000D01*
X122750000Y-78490000D02*
X124276700Y-78490000D01*
X115236800Y-78406700D02*
X115896700Y-77746800D01*
X113785600Y-78406700D02*
X115236800Y-78406700D01*
X115896700Y-77746800D02*
X115896700Y-76813200D01*
X115236800Y-76153300D02*
X113785500Y-76153300D01*
X112843300Y-75211100D02*
X112843300Y-74740000D01*
X124276700Y-83570000D02*
X124276700Y-78490000D01*
X122750000Y-73410000D02*
X124276700Y-73410000D01*
X112843300Y-64580000D02*
X112843300Y-69660000D01*
X124276700Y-73410000D02*
X124276700Y-68330000D01*
X114370000Y-79820000D02*
X112843300Y-79820000D01*
X108276700Y-87276700D02*
X109000000Y-88000000D01*
X126750000Y-102000000D02*
X126750000Y-98120000D01*
X126750000Y-98120000D02*
X126870000Y-98000000D01*
X79838700Y-30821300D02*
X79838700Y-36718700D01*
X59710000Y-25120000D02*
X59710000Y-26646700D01*
X81040000Y-29620000D02*
X79838700Y-30821300D01*
X57540000Y-37750000D02*
X57540000Y-36223300D01*
X58861600Y-34901700D02*
X57540000Y-36223300D01*
X58861600Y-27495100D02*
X58861600Y-34901700D01*
X79838700Y-36718700D02*
X80870000Y-37750000D01*
X59710000Y-26646700D02*
X58861600Y-27495100D01*
X31500000Y-77872600D02*
X30370900Y-76743500D01*
X31500000Y-102500000D02*
X31500000Y-77872600D01*
X30370900Y-76743500D02*
X30370900Y-59872800D01*
X34500000Y-105500000D02*
X31500000Y-102500000D01*
X43461100Y-60316900D02*
X41560000Y-58415800D01*
X45264800Y-72108200D02*
X43461100Y-70304500D01*
X41560000Y-58415800D02*
X41560000Y-51926700D01*
X48620000Y-106000000D02*
X45264800Y-102644800D01*
X45264800Y-102644800D02*
X45264800Y-72108200D01*
X40290000Y-49130000D02*
X40290000Y-50656700D01*
X43461100Y-70304500D02*
X43461100Y-60316900D01*
X41560000Y-51926700D02*
X40290000Y-50656700D01*
X18000000Y-109250000D02*
X18000000Y-112750000D01*
X36290000Y-93723300D02*
X31951700Y-89385000D01*
X36290000Y-95250000D02*
X36290000Y-93723300D01*
X31951700Y-89385000D02*
X31951700Y-75451700D01*
X31951700Y-75451700D02*
X31500000Y-75000000D01*
X129750000Y-116750000D02*
X129750000Y-113000000D01*
X91750000Y-130000000D02*
X93636400Y-128113600D01*
X93636400Y-128113600D02*
X93636400Y-121727600D01*
X91795300Y-119886500D02*
X91795300Y-72973900D01*
X90635100Y-41909200D02*
X96221300Y-47495400D01*
X90635100Y-40715100D02*
X90635100Y-41909200D01*
X96221300Y-51854500D02*
X97498900Y-53132100D01*
X96221300Y-47495400D02*
X96221300Y-51854500D01*
X97498900Y-53132100D02*
X97498900Y-68528800D01*
X93636400Y-121727600D02*
X91795300Y-119886500D01*
X88770000Y-38850000D02*
X90635100Y-40715100D01*
X6526700Y-28026700D02*
X10750000Y-32250000D01*
X4700000Y-11826700D02*
X6526700Y-13653400D01*
X4700000Y-10000000D02*
X4700000Y-11826700D01*
X6526700Y-13653400D02*
X6526700Y-28026700D01*
X11200000Y-26000000D02*
X11200000Y-27176700D01*
X11900600Y-35219400D02*
X7250000Y-39870000D01*
X11900600Y-27877300D02*
X11900600Y-35219400D01*
X11200000Y-27176700D02*
X11900600Y-27877300D01*
X23040000Y-125080000D02*
X23500000Y-124620000D01*
X23040000Y-130000000D02*
X23040000Y-125080000D01*
X32540000Y-130000000D02*
X32540000Y-124830000D01*
X32540000Y-124830000D02*
X33000000Y-124370000D01*
D36*
X99485000Y-34947500D02*
X99485000Y-38437500D01*
X101390000Y-53140000D02*
X102000000Y-53750000D01*
X99485000Y-38437500D02*
X101390000Y-40342500D01*
X101390000Y-40342500D02*
X101390000Y-53140000D01*
D37*
X105666600Y-111589900D02*
X105666600Y-91796600D01*
X106920000Y-114370000D02*
X106920000Y-112843300D01*
X103370000Y-93000000D02*
X105120000Y-91250000D01*
X106920000Y-112843300D02*
X105666600Y-111589900D01*
X94750000Y-93000000D02*
X103370000Y-93000000D01*
X105666600Y-91796600D02*
X105120000Y-91250000D01*
X82234200Y-21276100D02*
X82234200Y-25885800D01*
X82234200Y-25885800D02*
X81040000Y-27080000D01*
X45090600Y-38659400D02*
X45090600Y-18340600D01*
X42000000Y-41750000D02*
X45090600Y-38659400D01*
X43750000Y-17000000D02*
X43750000Y-14750000D01*
X43750000Y-14750000D02*
X42000000Y-13000000D01*
X79333300Y-16333300D02*
X79333300Y-18375200D01*
X45090600Y-18340600D02*
X43750000Y-17000000D01*
X76250000Y-13250000D02*
X79333300Y-16333300D01*
X79333300Y-18375200D02*
X82234200Y-21276100D01*
X98758300Y-53577100D02*
X102260500Y-57079300D01*
X123033300Y-98050300D02*
X123033300Y-102506500D01*
X98758300Y-33834800D02*
X98758300Y-53577100D01*
X124630100Y-104103300D02*
X126370000Y-104103300D01*
X110476900Y-73928200D02*
X110476900Y-81237600D01*
X126370000Y-105630000D02*
X126370000Y-104103300D01*
X90134800Y-24974800D02*
X90134800Y-26496800D01*
X90134800Y-26496800D02*
X91713600Y-28075600D01*
X105944700Y-70930000D02*
X107478700Y-70930000D01*
X102260500Y-57079300D02*
X102260500Y-67245800D01*
X110476900Y-81237600D02*
X113684500Y-84445200D01*
X88770000Y-23610000D02*
X90134800Y-24974800D01*
X91713600Y-28075600D02*
X92999100Y-28075600D01*
X113684500Y-88701500D02*
X123033300Y-98050300D01*
X123033300Y-102506500D02*
X124630100Y-104103300D01*
X113684500Y-84445200D02*
X113684500Y-88701500D01*
X102260500Y-67245800D02*
X105944700Y-70930000D01*
X107478700Y-70930000D02*
X110476900Y-73928200D01*
X92999100Y-28075600D02*
X98758300Y-33834800D01*
X126194900Y-103254900D02*
X127505900Y-104565900D01*
X103133300Y-35785400D02*
X103133300Y-39903300D01*
X112321900Y-73177500D02*
X112321900Y-79981600D01*
X113430300Y-81090000D02*
X115140100Y-81090000D01*
X127505900Y-104565900D02*
X127505900Y-106537000D01*
X107498000Y-68353600D02*
X112321900Y-73177500D01*
X103133300Y-39903300D02*
X103808500Y-40578500D01*
X125839900Y-103254900D02*
X126194900Y-103254900D01*
X98779400Y-25643300D02*
X98779400Y-31431500D01*
X126886200Y-107156700D02*
X123830000Y-107156700D01*
X103808500Y-40578500D02*
X103808500Y-66242200D01*
X115140100Y-81090000D02*
X125541000Y-91490900D01*
X112321900Y-79981600D02*
X113430300Y-81090000D01*
X123830000Y-105630000D02*
X123830000Y-107156700D01*
X127505900Y-106537000D02*
X126886200Y-107156700D01*
X125541000Y-102956000D02*
X125839900Y-103254900D01*
X125541000Y-91490900D02*
X125541000Y-102956000D01*
X95555600Y-22419500D02*
X98779400Y-25643300D01*
X105919900Y-68353600D02*
X107498000Y-68353600D01*
X86230000Y-23610000D02*
X87420500Y-22419500D01*
X103808500Y-66242200D02*
X105919900Y-68353600D01*
X98779400Y-31431500D02*
X103133300Y-35785400D01*
X87420500Y-22419500D02*
X95555600Y-22419500D01*
D38*
X88770000Y-56630000D02*
X88770000Y-57881700D01*
X118750000Y-105630000D02*
X118750000Y-102250000D01*
X109022100Y-90049800D02*
X100197000Y-81224700D01*
X88770000Y-36310000D02*
X90716900Y-34363100D01*
X100197000Y-77369200D02*
X90980100Y-68152300D01*
X111299800Y-90049800D02*
X109022100Y-90049800D01*
X100197000Y-81224700D02*
X100197000Y-77369200D01*
X90716900Y-34363100D02*
X90716900Y-31033100D01*
X119250000Y-101750000D02*
X119250000Y-98000000D01*
X90716900Y-31033100D02*
X92500000Y-29250000D01*
X90980100Y-68152300D02*
X90980100Y-60091800D01*
X118750000Y-102250000D02*
X119250000Y-101750000D01*
X90980100Y-60091800D02*
X88770000Y-57881700D01*
X119250000Y-98000000D02*
X111299800Y-90049800D01*
D37*
X82957200Y-53850000D02*
X83987200Y-52820000D01*
X83987200Y-52820000D02*
X87500000Y-52820000D01*
X79824700Y-54670500D02*
X80645200Y-53850000D01*
X83624600Y-69133600D02*
X79824700Y-65333700D01*
X83624600Y-114624600D02*
X83624600Y-69133600D01*
X80645200Y-53850000D02*
X82957200Y-53850000D01*
X87500000Y-52820000D02*
X88770000Y-51550000D01*
X79824700Y-65333700D02*
X79824700Y-54670500D01*
X89000000Y-120000000D02*
X83624600Y-114624600D01*
X97500000Y-124000000D02*
X96620000Y-123120000D01*
X110500000Y-126500000D02*
X104000000Y-126500000D01*
X96620000Y-123120000D02*
X96620000Y-120000000D01*
D36*
X101720000Y-38370000D02*
X101720000Y-36818300D01*
X101720000Y-36818300D02*
X101720000Y-36119500D01*
X101720000Y-36119500D02*
X97580000Y-31979500D01*
X97580000Y-31979500D02*
X97580000Y-26500000D01*
D37*
X105713400Y-24973300D02*
X105200000Y-24973300D01*
X110280000Y-20406700D02*
X105713400Y-24973300D01*
X110280000Y-18880000D02*
X110280000Y-20406700D01*
X105200000Y-26500000D02*
X105200000Y-24973300D01*
X87500000Y-40120000D02*
X87500000Y-41820900D01*
X122560000Y-117810000D02*
X127250000Y-122500000D01*
X105929900Y-78550000D02*
X107645600Y-78550000D01*
X112626700Y-87485000D02*
X112626700Y-89776600D01*
X89174400Y-42660000D02*
X93796700Y-47282300D01*
X87500000Y-41820900D02*
X88339100Y-42660000D01*
X88339100Y-42660000D02*
X89174400Y-42660000D01*
X93796700Y-47282300D02*
X93796700Y-51424600D01*
X109000000Y-83858300D02*
X112626700Y-87485000D01*
X93796700Y-51424600D02*
X95607400Y-53235300D01*
X109000000Y-79904400D02*
X109000000Y-83858300D01*
X95607400Y-53235300D02*
X95607400Y-68227500D01*
X95607400Y-68227500D02*
X105929900Y-78550000D01*
X112626700Y-89776600D02*
X122560000Y-99709900D01*
X107645600Y-78550000D02*
X109000000Y-79904400D01*
X86230000Y-38850000D02*
X87500000Y-40120000D01*
X122560000Y-99709900D02*
X122560000Y-117810000D01*
D38*
X86230000Y-54090000D02*
X86230000Y-56630000D01*
X90201700Y-60601700D02*
X90201700Y-68374500D01*
X99383100Y-77555900D02*
X99383100Y-84383100D01*
X99383100Y-84383100D02*
X101000000Y-86000000D01*
X86230000Y-56630000D02*
X90201700Y-60601700D01*
X90201700Y-68374500D02*
X99383100Y-77555900D01*
M02*
