0
SECTION
2
HEADER
9
$ACADVER
1
AC1015
9
$INSUNITS
70
4
0
ENDSEC
0
SECTION
2
TABLES
0
TABLE
2
LAYER
70
2
0
LAYER
2
MASK
70
0
62
1
6
CONTINUOUS
0
LAYER
2
EDGE
70
0
62
3
6
CONTINUOUS
0
ENDTAB
0
ENDSEC
0
SECTION
2
ENTITIES
0
LWPOLYLINE
8
MASK
90
20
70
1
10
79.7400
20
-29.0500
10
79.7783
20
-29.0576
10
79.8107
20
-29.0793
10
79.8324
20
-29.1117
10
79.8400
20
-29.1500
10
79.8400
20
-30.8500
10
79.8324
20
-30.8883
10
79.8107
20
-30.9207
10
79.7783
20
-30.9424
10
79.7400
20
-30.9500
10
78.0400
20
-30.9500
10
78.0017
20
-30.9424
10
77.9693
20
-30.9207
10
77.9476
20
-30.8883
10
77.9400
20
-30.8500
10
77.9400
20
-29.1500
10
77.9476
20
-29.1117
10
77.9693
20
-29.0793
10
78.0017
20
-29.0576
10
78.0400
20
-29.0500
0
CIRCLE
8
MASK
10
78.8900
20
-32.5400
40
0.9500
0
CIRCLE
8
MASK
10
76.3500
20
-30.0000
40
0.9500
0
CIRCLE
8
MASK
10
76.3500
20
-32.5400
40
0.9500
0
CIRCLE
8
MASK
10
73.8100
20
-30.0000
40
0.9500
0
CIRCLE
8
MASK
10
73.8100
20
-32.5400
40
0.9500
0
CIRCLE
8
MASK
10
71.2700
20
-30.0000
40
0.9500
0
CIRCLE
8
MASK
10
71.2700
20
-32.5400
40
0.9500
0
CIRCLE
8
MASK
10
68.7300
20
-30.0000
40
0.9500
0
CIRCLE
8
MASK
10
68.7300
20
-32.5400
40
0.9500
0
CIRCLE
8
MASK
10
66.1900
20
-30.0000
40
0.9500
0
CIRCLE
8
MASK
10
66.1900
20
-32.5400
40
0.9500
0
CIRCLE
8
MASK
10
63.6500
20
-30.0000
40
0.9500
0
CIRCLE
8
MASK
10
63.6500
20
-32.5400
40
0.9500
0
CIRCLE
8
MASK
10
61.1100
20
-30.0000
40
0.9500
0
CIRCLE
8
MASK
10
61.1100
20
-32.5400
40
0.9500
0
CIRCLE
8
MASK
10
114.0000
20
-114.0000
40
1.7000
0
CIRCLE
8
MASK
10
53.9100
20
-100.3300
40
0.9000
0
CIRCLE
8
MASK
10
61.5300
20
-100.3300
40
0.9000
0
CIRCLE
8
MASK
10
84.0000
20
-61.5000
40
1.0000
0
LWPOLYLINE
8
MASK
90
20
70
1
10
44.0550
20
-69.8800
10
43.9211
20
-69.8534
10
43.8075
20
-69.7775
10
43.7316
20
-69.6639
10
43.7050
20
-69.5300
10
43.7050
20
-67.6300
10
43.7316
20
-67.4961
10
43.8075
20
-67.3825
10
43.9211
20
-67.3066
10
44.0550
20
-67.2800
10
45.1550
20
-67.2800
10
45.2889
20
-67.3066
10
45.4025
20
-67.3825
10
45.4784
20
-67.4961
10
45.5050
20
-67.6300
10
45.5050
20
-69.5300
10
45.4784
20
-69.6639
10
45.4025
20
-69.7775
10
45.2889
20
-69.8534
10
45.1550
20
-69.8800
0
LWPOLYLINE
8
MASK
90
28
70
1
10
46.2527
20
-68.0625
10
46.3135
20
-67.8356
10
46.4310
20
-67.6321
10
46.5971
20
-67.4660
10
46.8006
20
-67.3485
10
47.0275
20
-67.2877
10
47.2625
20
-67.2877
10
47.4894
20
-67.3485
10
47.6929
20
-67.4660
10
47.8590
20
-67.6321
10
47.9765
20
-67.8356
10
48.0373
20
-68.0625
10
48.0450
20
-68.1800
10
48.0450
20
-68.9800
10
48.0373
20
-69.0975
10
47.9765
20
-69.3244
10
47.8590
20
-69.5279
10
47.6929
20
-69.6940
10
47.4894
20
-69.8115
10
47.2625
20
-69.8723
10
47.0275
20
-69.8723
10
46.8006
20
-69.8115
10
46.5971
20
-69.6940
10
46.4310
20
-69.5279
10
46.3135
20
-69.3244
10
46.2527
20
-69.0975
10
46.2450
20
-68.9800
10
46.2450
20
-68.1800
0
LWPOLYLINE
8
MASK
90
28
70
1
10
48.7927
20
-68.0625
10
48.8535
20
-67.8356
10
48.9710
20
-67.6321
10
49.1371
20
-67.4660
10
49.3406
20
-67.3485
10
49.5675
20
-67.2877
10
49.8025
20
-67.2877
10
50.0294
20
-67.3485
10
50.2329
20
-67.4660
10
50.3990
20
-67.6321
10
50.5165
20
-67.8356
10
50.5773
20
-68.0625
10
50.5850
20
-68.1800
10
50.5850
20
-68.9800
10
50.5773
20
-69.0975
10
50.5165
20
-69.3244
10
50.3990
20
-69.5279
10
50.2329
20
-69.6940
10
50.0294
20
-69.8115
10
49.8025
20
-69.8723
10
49.5675
20
-69.8723
10
49.3406
20
-69.8115
10
49.1371
20
-69.6940
10
48.9710
20
-69.5279
10
48.8535
20
-69.3244
10
48.7927
20
-69.0975
10
48.7850
20
-68.9800
10
48.7850
20
-68.1800
0
LWPOLYLINE
8
MASK
90
28
70
1
10
51.3327
20
-68.0625
10
51.3935
20
-67.8356
10
51.5110
20
-67.6321
10
51.6771
20
-67.4660
10
51.8806
20
-67.3485
10
52.1075
20
-67.2877
10
52.3425
20
-67.2877
10
52.5694
20
-67.3485
10
52.7729
20
-67.4660
10
52.9390
20
-67.6321
10
53.0565
20
-67.8356
10
53.1173
20
-68.0625
10
53.1250
20
-68.1800
10
53.1250
20
-68.9800
10
53.1173
20
-69.0975
10
53.0565
20
-69.3244
10
52.9390
20
-69.5279
10
52.7729
20
-69.6940
10
52.5694
20
-69.8115
10
52.3425
20
-69.8723
10
52.1075
20
-69.8723
10
51.8806
20
-69.8115
10
51.6771
20
-69.6940
10
51.5110
20
-69.5279
10
51.3935
20
-69.3244
10
51.3327
20
-69.0975
10
51.3250
20
-68.9800
10
51.3250
20
-68.1800
0
LWPOLYLINE
8
MASK
90
28
70
1
10
53.8727
20
-68.0625
10
53.9335
20
-67.8356
10
54.0510
20
-67.6321
10
54.2171
20
-67.4660
10
54.4206
20
-67.3485
10
54.6475
20
-67.2877
10
54.8825
20
-67.2877
10
55.1094
20
-67.3485
10
55.3129
20
-67.4660
10
55.4790
20
-67.6321
10
55.5965
20
-67.8356
10
55.6573
20
-68.0625
10
55.6650
20
-68.1800
10
55.6650
20
-68.9800
10
55.6573
20
-69.0975
10
55.5965
20
-69.3244
10
55.4790
20
-69.5279
10
55.3129
20
-69.6940
10
55.1094
20
-69.8115
10
54.8825
20
-69.8723
10
54.6475
20
-69.8723
10
54.4206
20
-69.8115
10
54.2171
20
-69.6940
10
54.0510
20
-69.5279
10
53.9335
20
-69.3244
10
53.8727
20
-69.0975
10
53.8650
20
-68.9800
10
53.8650
20
-68.1800
0
LWPOLYLINE
8
MASK
90
28
70
1
10
56.4127
20
-68.0625
10
56.4735
20
-67.8356
10
56.5910
20
-67.6321
10
56.7571
20
-67.4660
10
56.9606
20
-67.3485
10
57.1875
20
-67.2877
10
57.4225
20
-67.2877
10
57.6494
20
-67.3485
10
57.8529
20
-67.4660
10
58.0190
20
-67.6321
10
58.1365
20
-67.8356
10
58.1973
20
-68.0625
10
58.2050
20
-68.1800
10
58.2050
20
-68.9800
10
58.1973
20
-69.0975
10
58.1365
20
-69.3244
10
58.0190
20
-69.5279
10
57.8529
20
-69.6940
10
57.6494
20
-69.8115
10
57.4225
20
-69.8723
10
57.1875
20
-69.8723
10
56.9606
20
-69.8115
10
56.7571
20
-69.6940
10
56.5910
20
-69.5279
10
56.4735
20
-69.3244
10
56.4127
20
-69.0975
10
56.4050
20
-68.9800
10
56.4050
20
-68.1800
0
LWPOLYLINE
8
MASK
90
28
70
1
10
58.9527
20
-68.0625
10
59.0135
20
-67.8356
10
59.1310
20
-67.6321
10
59.2971
20
-67.4660
10
59.5006
20
-67.3485
10
59.7275
20
-67.2877
10
59.9625
20
-67.2877
10
60.1894
20
-67.3485
10
60.3929
20
-67.4660
10
60.5590
20
-67.6321
10
60.6765
20
-67.8356
10
60.7373
20
-68.0625
10
60.7450
20
-68.1800
10
60.7450
20
-68.9800
10
60.7373
20
-69.0975
10
60.6765
20
-69.3244
10
60.5590
20
-69.5279
10
60.3929
20
-69.6940
10
60.1894
20
-69.8115
10
59.9625
20
-69.8723
10
59.7275
20
-69.8723
10
59.5006
20
-69.8115
10
59.2971
20
-69.6940
10
59.1310
20
-69.5279
10
59.0135
20
-69.3244
10
58.9527
20
-69.0975
10
58.9450
20
-68.9800
10
58.9450
20
-68.1800
0
LWPOLYLINE
8
MASK
90
28
70
1
10
58.9527
20
-60.4425
10
59.0135
20
-60.2156
10
59.1310
20
-60.0121
10
59.2971
20
-59.8460
10
59.5006
20
-59.7285
10
59.7275
20
-59.6677
10
59.9625
20
-59.6677
10
60.1894
20
-59.7285
10
60.3929
20
-59.8460
10
60.5590
20
-60.0121
10
60.6765
20
-60.2156
10
60.7373
20
-60.4425
10
60.7450
20
-60.5600
10
60.7450
20
-61.3600
10
60.7373
20
-61.4775
10
60.6765
20
-61.7044
10
60.5590
20
-61.9079
10
60.3929
20
-62.0740
10
60.1894
20
-62.1915
10
59.9625
20
-62.2523
10
59.7275
20
-62.2523
10
59.5006
20
-62.1915
10
59.2971
20
-62.0740
10
59.1310
20
-61.9079
10
59.0135
20
-61.7044
10
58.9527
20
-61.4775
10
58.9450
20
-61.3600
10
58.9450
20
-60.5600
0
LWPOLYLINE
8
MASK
90
28
70
1
10
56.4127
20
-60.4425
10
56.4735
20
-60.2156
10
56.5910
20
-60.0121
10
56.7571
20
-59.8460
10
56.9606
20
-59.7285
10
57.1875
20
-59.6677
10
57.4225
20
-59.6677
10
57.6494
20
-59.7285
10
57.8529
20
-59.8460
10
58.0190
20
-60.0121
10
58.1365
20
-60.2156
10
58.1973
20
-60.4425
10
58.2050
20
-60.5600
10
58.2050
20
-61.3600
10
58.1973
20
-61.4775
10
58.1365
20
-61.7044
10
58.0190
20
-61.9079
10
57.8529
20
-62.0740
10
57.6494
20
-62.1915
10
57.4225
20
-62.2523
10
57.1875
20
-62.2523
10
56.9606
20
-62.1915
10
56.7571
20
-62.0740
10
56.5910
20
-61.9079
10
56.4735
20
-61.7044
10
56.4127
20
-61.4775
10
56.4050
20
-61.3600
10
56.4050
20
-60.5600
0
LWPOLYLINE
8
MASK
90
28
70
1
10
53.8727
20
-60.4425
10
53.9335
20
-60.2156
10
54.0510
20
-60.0121
10
54.2171
20
-59.8460
10
54.4206
20
-59.7285
10
54.6475
20
-59.6677
10
54.8825
20
-59.6677
10
55.1094
20
-59.7285
10
55.3129
20
-59.8460
10
55.4790
20
-60.0121
10
55.5965
20
-60.2156
10
55.6573
20
-60.4425
10
55.6650
20
-60.5600
10
55.6650
20
-61.3600
10
55.6573
20
-61.4775
10
55.5965
20
-61.7044
10
55.4790
20
-61.9079
10
55.3129
20
-62.0740
10
55.1094
20
-62.1915
10
54.8825
20
-62.2523
10
54.6475
20
-62.2523
10
54.4206
20
-62.1915
10
54.2171
20
-62.0740
10
54.0510
20
-61.9079
10
53.9335
20
-61.7044
10
53.8727
20
-61.4775
10
53.8650
20
-61.3600
10
53.8650
20
-60.5600
0
LWPOLYLINE
8
MASK
90
28
70
1
10
51.3327
20
-60.4425
10
51.3935
20
-60.2156
10
51.5110
20
-60.0121
10
51.6771
20
-59.8460
10
51.8806
20
-59.7285
10
52.1075
20
-59.6677
10
52.3425
20
-59.6677
10
52.5694
20
-59.7285
10
52.7729
20
-59.8460
10
52.9390
20
-60.0121
10
53.0565
20
-60.2156
10
53.1173
20
-60.4425
10
53.1250
20
-60.5600
10
53.1250
20
-61.3600
10
53.1173
20
-61.4775
10
53.0565
20
-61.7044
10
52.9390
20
-61.9079
10
52.7729
20
-62.0740
10
52.5694
20
-62.1915
10
52.3425
20
-62.2523
10
52.1075
20
-62.2523
10
51.8806
20
-62.1915
10
51.6771
20
-62.0740
10
51.5110
20
-61.9079
10
51.3935
20
-61.7044
10
51.3327
20
-61.4775
10
51.3250
20
-61.3600
10
51.3250
20
-60.5600
0
LWPOLYLINE
8
MASK
90
28
70
1
10
48.7927
20
-60.4425
10
48.8535
20
-60.2156
10
48.9710
20
-60.0121
10
49.1371
20
-59.8460
10
49.3406
20
-59.7285
10
49.5675
20
-59.6677
10
49.8025
20
-59.6677
10
50.0294
20
-59.7285
10
50.2329
20
-59.8460
10
50.3990
20
-60.0121
10
50.5165
20
-60.2156
10
50.5773
20
-60.4425
10
50.5850
20
-60.5600
10
50.5850
20
-61.3600
10
50.5773
20
-61.4775
10
50.5165
20
-61.7044
10
50.3990
20
-61.9079
10
50.2329
20
-62.0740
10
50.0294
20
-62.1915
10
49.8025
20
-62.2523
10
49.5675
20
-62.2523
10
49.3406
20
-62.1915
10
49.1371
20
-62.0740
10
48.9710
20
-61.9079
10
48.8535
20
-61.7044
10
48.7927
20
-61.4775
10
48.7850
20
-61.3600
10
48.7850
20
-60.5600
0
LWPOLYLINE
8
MASK
90
28
70
1
10
46.2527
20
-60.4425
10
46.3135
20
-60.2156
10
46.4310
20
-60.0121
10
46.5971
20
-59.8460
10
46.8006
20
-59.7285
10
47.0275
20
-59.6677
10
47.2625
20
-59.6677
10
47.4894
20
-59.7285
10
47.6929
20
-59.8460
10
47.8590
20
-60.0121
10
47.9765
20
-60.2156
10
48.0373
20
-60.4425
10
48.0450
20
-60.5600
10
48.0450
20
-61.3600
10
48.0373
20
-61.4775
10
47.9765
20
-61.7044
10
47.8590
20
-61.9079
10
47.6929
20
-62.0740
10
47.4894
20
-62.1915
10
47.2625
20
-62.2523
10
47.0275
20
-62.2523
10
46.8006
20
-62.1915
10
46.5971
20
-62.0740
10
46.4310
20
-61.9079
10
46.3135
20
-61.7044
10
46.2527
20
-61.4775
10
46.2450
20
-61.3600
10
46.2450
20
-60.5600
0
LWPOLYLINE
8
MASK
90
28
70
1
10
43.7127
20
-60.4425
10
43.7735
20
-60.2156
10
43.8910
20
-60.0121
10
44.0571
20
-59.8460
10
44.2606
20
-59.7285
10
44.4875
20
-59.6677
10
44.7225
20
-59.6677
10
44.9494
20
-59.7285
10
45.1529
20
-59.8460
10
45.3190
20
-60.0121
10
45.4365
20
-60.2156
10
45.4973
20
-60.4425
10
45.5050
20
-60.5600
10
45.5050
20
-61.3600
10
45.4973
20
-61.4775
10
45.4365
20
-61.7044
10
45.3190
20
-61.9079
10
45.1529
20
-62.0740
10
44.9494
20
-62.1915
10
44.7225
20
-62.2523
10
44.4875
20
-62.2523
10
44.2606
20
-62.1915
10
44.0571
20
-62.0740
10
43.8910
20
-61.9079
10
43.7735
20
-61.7044
10
43.7127
20
-61.4775
10
43.7050
20
-61.3600
10
43.7050
20
-60.5600
0
LWPOLYLINE
8
MASK
90
20
70
1
10
105.4025
20
-55.0300
10
105.4101
20
-54.9917
10
105.4318
20
-54.9593
10
105.4642
20
-54.9376
10
105.5025
20
-54.9300
10
107.2025
20
-54.9300
10
107.2408
20
-54.9376
10
107.2732
20
-54.9593
10
107.2949
20
-54.9917
10
107.3025
20
-55.0300
10
107.3025
20
-56.7300
10
107.2949
20
-56.7683
10
107.2732
20
-56.8007
10
107.2408
20
-56.8224
10
107.2025
20
-56.8300
10
105.5025
20
-56.8300
10
105.4642
20
-56.8224
10
105.4318
20
-56.8007
10
105.4101
20
-56.7683
10
105.4025
20
-56.7300
0
CIRCLE
8
MASK
10
106.3525
20
-58.4200
40
0.9500
0
CIRCLE
8
MASK
10
106.3525
20
-60.9600
40
0.9500
0
CIRCLE
8
MASK
10
106.3525
20
-63.5000
40
0.9500
0
CIRCLE
8
MASK
10
106.3525
20
-66.0400
40
0.9500
0
CIRCLE
8
MASK
10
106.3525
20
-68.5800
40
0.9500
0
CIRCLE
8
MASK
10
106.3525
20
-71.1200
40
0.9500
0
CIRCLE
8
MASK
10
106.3525
20
-73.6600
40
0.9500
0
LWPOLYLINE
8
MASK
90
20
70
1
10
57.7325
20
-91.4700
10
57.5986
20
-91.4434
10
57.4850
20
-91.3675
10
57.4091
20
-91.2539
10
57.3825
20
-91.1200
10
57.3825
20
-89.2200
10
57.4091
20
-89.0861
10
57.4850
20
-88.9725
10
57.5986
20
-88.8966
10
57.7325
20
-88.8700
10
58.8325
20
-88.8700
10
58.9664
20
-88.8966
10
59.0800
20
-88.9725
10
59.1559
20
-89.0861
10
59.1825
20
-89.2200
10
59.1825
20
-91.1200
10
59.1559
20
-91.2539
10
59.0800
20
-91.3675
10
58.9664
20
-91.4434
10
58.8325
20
-91.4700
0
LWPOLYLINE
8
MASK
90
28
70
1
10
59.9302
20
-89.6525
10
59.9910
20
-89.4256
10
60.1085
20
-89.2221
10
60.2746
20
-89.0560
10
60.4781
20
-88.9385
10
60.7050
20
-88.8777
10
60.9400
20
-88.8777
10
61.1669
20
-88.9385
10
61.3704
20
-89.0560
10
61.5365
20
-89.2221
10
61.6540
20
-89.4256
10
61.7148
20
-89.6525
10
61.7225
20
-89.7700
10
61.7225
20
-90.5700
10
61.7148
20
-90.6875
10
61.6540
20
-90.9144
10
61.5365
20
-91.1179
10
61.3704
20
-91.2840
10
61.1669
20
-91.4015
10
60.9400
20
-91.4623
10
60.7050
20
-91.4623
10
60.4781
20
-91.4015
10
60.2746
20
-91.2840
10
60.1085
20
-91.1179
10
59.9910
20
-90.9144
10
59.9302
20
-90.6875
10
59.9225
20
-90.5700
10
59.9225
20
-89.7700
0
LWPOLYLINE
8
MASK
90
28
70
1
10
62.4702
20
-89.6525
10
62.5310
20
-89.4256
10
62.6485
20
-89.2221
10
62.8146
20
-89.0560
10
63.0181
20
-88.9385
10
63.2450
20
-88.8777
10
63.4800
20
-88.8777
10
63.7069
20
-88.9385
10
63.9104
20
-89.0560
10
64.0765
20
-89.2221
10
64.1940
20
-89.4256
10
64.2548
20
-89.6525
10
64.2625
20
-89.7700
10
64.2625
20
-90.5700
10
64.2548
20
-90.6875
10
64.1940
20
-90.9144
10
64.0765
20
-91.1179
10
63.9104
20
-91.2840
10
63.7069
20
-91.4015
10
63.4800
20
-91.4623
10
63.2450
20
-91.4623
10
63.0181
20
-91.4015
10
62.8146
20
-91.2840
10
62.6485
20
-91.1179
10
62.5310
20
-90.9144
10
62.4702
20
-90.6875
10
62.4625
20
-90.5700
10
62.4625
20
-89.7700
0
LWPOLYLINE
8
MASK
90
28
70
1
10
65.0102
20
-89.6525
10
65.0710
20
-89.4256
10
65.1885
20
-89.2221
10
65.3546
20
-89.0560
10
65.5581
20
-88.9385
10
65.7850
20
-88.8777
10
66.0200
20
-88.8777
10
66.2469
20
-88.9385
10
66.4504
20
-89.0560
10
66.6165
20
-89.2221
10
66.7340
20
-89.4256
10
66.7948
20
-89.6525
10
66.8025
20
-89.7700
10
66.8025
20
-90.5700
10
66.7948
20
-90.6875
10
66.7340
20
-90.9144
10
66.6165
20
-91.1179
10
66.4504
20
-91.2840
10
66.2469
20
-91.4015
10
66.0200
20
-91.4623
10
65.7850
20
-91.4623
10
65.5581
20
-91.4015
10
65.3546
20
-91.2840
10
65.1885
20
-91.1179
10
65.0710
20
-90.9144
10
65.0102
20
-90.6875
10
65.0025
20
-90.5700
10
65.0025
20
-89.7700
0
LWPOLYLINE
8
MASK
90
28
70
1
10
67.5502
20
-89.6525
10
67.6110
20
-89.4256
10
67.7285
20
-89.2221
10
67.8946
20
-89.0560
10
68.0981
20
-88.9385
10
68.3250
20
-88.8777
10
68.5600
20
-88.8777
10
68.7869
20
-88.9385
10
68.9904
20
-89.0560
10
69.1565
20
-89.2221
10
69.2740
20
-89.4256
10
69.3348
20
-89.6525
10
69.3425
20
-89.7700
10
69.3425
20
-90.5700
10
69.3348
20
-90.6875
10
69.2740
20
-90.9144
10
69.1565
20
-91.1179
10
68.9904
20
-91.2840
10
68.7869
20
-91.4015
10
68.5600
20
-91.4623
10
68.3250
20
-91.4623
10
68.0981
20
-91.4015
10
67.8946
20
-91.2840
10
67.7285
20
-91.1179
10
67.6110
20
-90.9144
10
67.5502
20
-90.6875
10
67.5425
20
-90.5700
10
67.5425
20
-89.7700
0
LWPOLYLINE
8
MASK
90
28
70
1
10
70.0902
20
-89.6525
10
70.1510
20
-89.4256
10
70.2685
20
-89.2221
10
70.4346
20
-89.0560
10
70.6381
20
-88.9385
10
70.8650
20
-88.8777
10
71.1000
20
-88.8777
10
71.3269
20
-88.9385
10
71.5304
20
-89.0560
10
71.6965
20
-89.2221
10
71.8140
20
-89.4256
10
71.8748
20
-89.6525
10
71.8825
20
-89.7700
10
71.8825
20
-90.5700
10
71.8748
20
-90.6875
10
71.8140
20
-90.9144
10
71.6965
20
-91.1179
10
71.5304
20
-91.2840
10
71.3269
20
-91.4015
10
71.1000
20
-91.4623
10
70.8650
20
-91.4623
10
70.6381
20
-91.4015
10
70.4346
20
-91.2840
10
70.2685
20
-91.1179
10
70.1510
20
-90.9144
10
70.0902
20
-90.6875
10
70.0825
20
-90.5700
10
70.0825
20
-89.7700
0
LWPOLYLINE
8
MASK
90
28
70
1
10
72.6302
20
-89.6525
10
72.6910
20
-89.4256
10
72.8085
20
-89.2221
10
72.9746
20
-89.0560
10
73.1781
20
-88.9385
10
73.4050
20
-88.8777
10
73.6400
20
-88.8777
10
73.8669
20
-88.9385
10
74.0704
20
-89.0560
10
74.2365
20
-89.2221
10
74.3540
20
-89.4256
10
74.4148
20
-89.6525
10
74.4225
20
-89.7700
10
74.4225
20
-90.5700
10
74.4148
20
-90.6875
10
74.3540
20
-90.9144
10
74.2365
20
-91.1179
10
74.0704
20
-91.2840
10
73.8669
20
-91.4015
10
73.6400
20
-91.4623
10
73.4050
20
-91.4623
10
73.1781
20
-91.4015
10
72.9746
20
-91.2840
10
72.8085
20
-91.1179
10
72.6910
20
-90.9144
10
72.6302
20
-90.6875
10
72.6225
20
-90.5700
10
72.6225
20
-89.7700
0
LWPOLYLINE
8
MASK
90
28
70
1
10
72.6302
20
-82.0325
10
72.6910
20
-81.8056
10
72.8085
20
-81.6021
10
72.9746
20
-81.4360
10
73.1781
20
-81.3185
10
73.4050
20
-81.2577
10
73.6400
20
-81.2577
10
73.8669
20
-81.3185
10
74.0704
20
-81.4360
10
74.2365
20
-81.6021
10
74.3540
20
-81.8056
10
74.4148
20
-82.0325
10
74.4225
20
-82.1500
10
74.4225
20
-82.9500
10
74.4148
20
-83.0675
10
74.3540
20
-83.2944
10
74.2365
20
-83.4979
10
74.0704
20
-83.6640
10
73.8669
20
-83.7815
10
73.6400
20
-83.8423
10
73.4050
20
-83.8423
10
73.1781
20
-83.7815
10
72.9746
20
-83.6640
10
72.8085
20
-83.4979
10
72.6910
20
-83.2944
10
72.6302
20
-83.0675
10
72.6225
20
-82.9500
10
72.6225
20
-82.1500
0
LWPOLYLINE
8
MASK
90
28
70
1
10
70.0902
20
-82.0325
10
70.1510
20
-81.8056
10
70.2685
20
-81.6021
10
70.4346
20
-81.4360
10
70.6381
20
-81.3185
10
70.8650
20
-81.2577
10
71.1000
20
-81.2577
10
71.3269
20
-81.3185
10
71.5304
20
-81.4360
10
71.6965
20
-81.6021
10
71.8140
20
-81.8056
10
71.8748
20
-82.0325
10
71.8825
20
-82.1500
10
71.8825
20
-82.9500
10
71.8748
20
-83.0675
10
71.8140
20
-83.2944
10
71.6965
20
-83.4979
10
71.5304
20
-83.6640
10
71.3269
20
-83.7815
10
71.1000
20
-83.8423
10
70.8650
20
-83.8423
10
70.6381
20
-83.7815
10
70.4346
20
-83.6640
10
70.2685
20
-83.4979
10
70.1510
20
-83.2944
10
70.0902
20
-83.0675
10
70.0825
20
-82.9500
10
70.0825
20
-82.1500
0
LWPOLYLINE
8
MASK
90
28
70
1
10
67.5502
20
-82.0325
10
67.6110
20
-81.8056
10
67.7285
20
-81.6021
10
67.8946
20
-81.4360
10
68.0981
20
-81.3185
10
68.3250
20
-81.2577
10
68.5600
20
-81.2577
10
68.7869
20
-81.3185
10
68.9904
20
-81.4360
10
69.1565
20
-81.6021
10
69.2740
20
-81.8056
10
69.3348
20
-82.0325
10
69.3425
20
-82.1500
10
69.3425
20
-82.9500
10
69.3348
20
-83.0675
10
69.2740
20
-83.2944
10
69.1565
20
-83.4979
10
68.9904
20
-83.6640
10
68.7869
20
-83.7815
10
68.5600
20
-83.8423
10
68.3250
20
-83.8423
10
68.0981
20
-83.7815
10
67.8946
20
-83.6640
10
67.7285
20
-83.4979
10
67.6110
20
-83.2944
10
67.5502
20
-83.0675
10
67.5425
20
-82.9500
10
67.5425
20
-82.1500
0
LWPOLYLINE
8
MASK
90
28
70
1
10
65.0102
20
-82.0325
10
65.0710
20
-81.8056
10
65.1885
20
-81.6021
10
65.3546
20
-81.4360
10
65.5581
20
-81.3185
10
65.7850
20
-81.2577
10
66.0200
20
-81.2577
10
66.2469
20
-81.3185
10
66.4504
20
-81.4360
10
66.6165
20
-81.6021
10
66.7340
20
-81.8056
10
66.7948
20
-82.0325
10
66.8025
20
-82.1500
10
66.8025
20
-82.9500
10
66.7948
20
-83.0675
10
66.7340
20
-83.2944
10
66.6165
20
-83.4979
10
66.4504
20
-83.6640
10
66.2469
20
-83.7815
10
66.0200
20
-83.8423
10
65.7850
20
-83.8423
10
65.5581
20
-83.7815
10
65.3546
20
-83.6640
10
65.1885
20
-83.4979
10
65.0710
20
-83.2944
10
65.0102
20
-83.0675
10
65.0025
20
-82.9500
10
65.0025
20
-82.1500
0
LWPOLYLINE
8
MASK
90
28
70
1
10
62.4702
20
-82.0325
10
62.5310
20
-81.8056
10
62.6485
20
-81.6021
10
62.8146
20
-81.4360
10
63.0181
20
-81.3185
10
63.2450
20
-81.2577
10
63.4800
20
-81.2577
10
63.7069
20
-81.3185
10
63.9104
20
-81.4360
10
64.0765
20
-81.6021
10
64.1940
20
-81.8056
10
64.2548
20
-82.0325
10
64.2625
20
-82.1500
10
64.2625
20
-82.9500
10
64.2548
20
-83.0675
10
64.1940
20
-83.2944
10
64.0765
20
-83.4979
10
63.9104
20
-83.6640
10
63.7069
20
-83.7815
10
63.4800
20
-83.8423
10
63.2450
20
-83.8423
10
63.0181
20
-83.7815
10
62.8146
20
-83.6640
10
62.6485
20
-83.4979
10
62.5310
20
-83.2944
10
62.4702
20
-83.0675
10
62.4625
20
-82.9500
10
62.4625
20
-82.1500
0
LWPOLYLINE
8
MASK
90
28
70
1
10
59.9302
20
-82.0325
10
59.9910
20
-81.8056
10
60.1085
20
-81.6021
10
60.2746
20
-81.4360
10
60.4781
20
-81.3185
10
60.7050
20
-81.2577
10
60.9400
20
-81.2577
10
61.1669
20
-81.3185
10
61.3704
20
-81.4360
10
61.5365
20
-81.6021
10
61.6540
20
-81.8056
10
61.7148
20
-82.0325
10
61.7225
20
-82.1500
10
61.7225
20
-82.9500
10
61.7148
20
-83.0675
10
61.6540
20
-83.2944
10
61.5365
20
-83.4979
10
61.3704
20
-83.6640
10
61.1669
20
-83.7815
10
60.9400
20
-83.8423
10
60.7050
20
-83.8423
10
60.4781
20
-83.7815
10
60.2746
20
-83.6640
10
60.1085
20
-83.4979
10
59.9910
20
-83.2944
10
59.9302
20
-83.0675
10
59.9225
20
-82.9500
10
59.9225
20
-82.1500
0
LWPOLYLINE
8
MASK
90
28
70
1
10
57.3902
20
-82.0325
10
57.4510
20
-81.8056
10
57.5685
20
-81.6021
10
57.7346
20
-81.4360
10
57.9381
20
-81.3185
10
58.1650
20
-81.2577
10
58.4000
20
-81.2577
10
58.6269
20
-81.3185
10
58.8304
20
-81.4360
10
58.9965
20
-81.6021
10
59.1140
20
-81.8056
10
59.1748
20
-82.0325
10
59.1825
20
-82.1500
10
59.1825
20
-82.9500
10
59.1748
20
-83.0675
10
59.1140
20
-83.2944
10
58.9965
20
-83.4979
10
58.8304
20
-83.6640
10
58.6269
20
-83.7815
10
58.4000
20
-83.8423
10
58.1650
20
-83.8423
10
57.9381
20
-83.7815
10
57.7346
20
-83.6640
10
57.5685
20
-83.4979
10
57.4510
20
-83.2944
10
57.3902
20
-83.0675
10
57.3825
20
-82.9500
10
57.3825
20
-82.1500
0
CIRCLE
8
MASK
10
79.5000
20
-49.0000
40
1.0000
0
CIRCLE
8
MASK
10
78.7525
20
-64.7700
40
0.9000
0
CIRCLE
8
MASK
10
83.7525
20
-64.7700
40
0.9000
0
CIRCLE
8
MASK
10
69.5000
20
-53.0000
40
1.0000
0
CIRCLE
8
MASK
10
71.5000
20
-36.5000
40
1.0000
0
CIRCLE
8
MASK
10
60.0000
20
-43.0000
40
1.0000
0
CIRCLE
8
MASK
10
111.0000
20
-68.5000
40
1.0000
0
CIRCLE
8
MASK
10
26.0000
20
-114.0000
40
1.7000
0
CIRCLE
8
MASK
10
26.0000
20
-26.0000
40
1.7000
0
CIRCLE
8
MASK
10
66.2600
20
-100.3300
40
0.9000
0
CIRCLE
8
MASK
10
71.2600
20
-100.3300
40
0.9000
0
CIRCLE
8
MASK
10
42.0000
20
-35.5000
40
1.0000
0
CIRCLE
8
MASK
10
84.0000
20
-75.0000
40
1.0000
0
LWPOLYLINE
8
MASK
90
20
70
1
10
83.4600
20
-31.2000
10
83.4866
20
-31.0661
10
83.5625
20
-30.9525
10
83.6761
20
-30.8766
10
83.8100
20
-30.8500
10
85.7100
20
-30.8500
10
85.8439
20
-30.8766
10
85.9575
20
-30.9525
10
86.0334
20
-31.0661
10
86.0600
20
-31.2000
10
86.0600
20
-32.3000
10
86.0334
20
-32.4339
10
85.9575
20
-32.5475
10
85.8439
20
-32.6234
10
85.7100
20
-32.6500
10
83.8100
20
-32.6500
10
83.6761
20
-32.6234
10
83.5625
20
-32.5475
10
83.4866
20
-32.4339
10
83.4600
20
-32.3000
0
LWPOLYLINE
8
MASK
90
28
70
1
10
85.2775
20
-33.3977
10
85.5044
20
-33.4585
10
85.7079
20
-33.5760
10
85.8740
20
-33.7421
10
85.9915
20
-33.9456
10
86.0523
20
-34.1725
10
86.0523
20
-34.4075
10
85.9915
20
-34.6344
10
85.8740
20
-34.8379
10
85.7079
20
-35.0040
10
85.5044
20
-35.1215
10
85.2775
20
-35.1823
10
85.1600
20
-35.1900
10
84.3600
20
-35.1900
10
84.2425
20
-35.1823
10
84.0156
20
-35.1215
10
83.8121
20
-35.0040
10
83.6460
20
-34.8379
10
83.5285
20
-34.6344
10
83.4677
20
-34.4075
10
83.4677
20
-34.1725
10
83.5285
20
-33.9456
10
83.6460
20
-33.7421
10
83.8121
20
-33.5760
10
84.0156
20
-33.4585
10
84.2425
20
-33.3977
10
84.3600
20
-33.3900
10
85.1600
20
-33.3900
0
LWPOLYLINE
8
MASK
90
28
70
1
10
85.2775
20
-35.9377
10
85.5044
20
-35.9985
10
85.7079
20
-36.1160
10
85.8740
20
-36.2821
10
85.9915
20
-36.4856
10
86.0523
20
-36.7125
10
86.0523
20
-36.9475
10
85.9915
20
-37.1744
10
85.8740
20
-37.3779
10
85.7079
20
-37.5440
10
85.5044
20
-37.6615
10
85.2775
20
-37.7223
10
85.1600
20
-37.7300
10
84.3600
20
-37.7300
10
84.2425
20
-37.7223
10
84.0156
20
-37.6615
10
83.8121
20
-37.5440
10
83.6460
20
-37.3779
10
83.5285
20
-37.1744
10
83.4677
20
-36.9475
10
83.4677
20
-36.7125
10
83.5285
20
-36.4856
10
83.6460
20
-36.2821
10
83.8121
20
-36.1160
10
84.0156
20
-35.9985
10
84.2425
20
-35.9377
10
84.3600
20
-35.9300
10
85.1600
20
-35.9300
0
LWPOLYLINE
8
MASK
90
28
70
1
10
85.2775
20
-38.4777
10
85.5044
20
-38.5385
10
85.7079
20
-38.6560
10
85.8740
20
-38.8221
10
85.9915
20
-39.0256
10
86.0523
20
-39.2525
10
86.0523
20
-39.4875
10
85.9915
20
-39.7144
10
85.8740
20
-39.9179
10
85.7079
20
-40.0840
10
85.5044
20
-40.2015
10
85.2775
20
-40.2623
10
85.1600
20
-40.2700
10
84.3600
20
-40.2700
10
84.2425
20
-40.2623
10
84.0156
20
-40.2015
10
83.8121
20
-40.0840
10
83.6460
20
-39.9179
10
83.5285
20
-39.7144
10
83.4677
20
-39.4875
10
83.4677
20
-39.2525
10
83.5285
20
-39.0256
10
83.6460
20
-38.8221
10
83.8121
20
-38.6560
10
84.0156
20
-38.5385
10
84.2425
20
-38.4777
10
84.3600
20
-38.4700
10
85.1600
20
-38.4700
0
LWPOLYLINE
8
MASK
90
28
70
1
10
85.2775
20
-41.0177
10
85.5044
20
-41.0785
10
85.7079
20
-41.1960
10
85.8740
20
-41.3621
10
85.9915
20
-41.5656
10
86.0523
20
-41.7925
10
86.0523
20
-42.0275
10
85.9915
20
-42.2544
10
85.8740
20
-42.4579
10
85.7079
20
-42.6240
10
85.5044
20
-42.7415
10
85.2775
20
-42.8023
10
85.1600
20
-42.8100
10
84.3600
20
-42.8100
10
84.2425
20
-42.8023
10
84.0156
20
-42.7415
10
83.8121
20
-42.6240
10
83.6460
20
-42.4579
10
83.5285
20
-42.2544
10
83.4677
20
-42.0275
10
83.4677
20
-41.7925
10
83.5285
20
-41.5656
10
83.6460
20
-41.3621
10
83.8121
20
-41.1960
10
84.0156
20
-41.0785
10
84.2425
20
-41.0177
10
84.3600
20
-41.0100
10
85.1600
20
-41.0100
0
LWPOLYLINE
8
MASK
90
28
70
1
10
85.2775
20
-43.5577
10
85.5044
20
-43.6185
10
85.7079
20
-43.7360
10
85.8740
20
-43.9021
10
85.9915
20
-44.1056
10
86.0523
20
-44.3325
10
86.0523
20
-44.5675
10
85.9915
20
-44.7944
10
85.8740
20
-44.9979
10
85.7079
20
-45.1640
10
85.5044
20
-45.2815
10
85.2775
20
-45.3423
10
85.1600
20
-45.3500
10
84.3600
20
-45.3500
10
84.2425
20
-45.3423
10
84.0156
20
-45.2815
10
83.8121
20
-45.1640
10
83.6460
20
-44.9979
10
83.5285
20
-44.7944
10
83.4677
20
-44.5675
10
83.4677
20
-44.3325
10
83.5285
20
-44.1056
10
83.6460
20
-43.9021
10
83.8121
20
-43.7360
10
84.0156
20
-43.6185
10
84.2425
20
-43.5577
10
84.3600
20
-43.5500
10
85.1600
20
-43.5500
0
LWPOLYLINE
8
MASK
90
28
70
1
10
85.2775
20
-46.0977
10
85.5044
20
-46.1585
10
85.7079
20
-46.2760
10
85.8740
20
-46.4421
10
85.9915
20
-46.6456
10
86.0523
20
-46.8725
10
86.0523
20
-47.1075
10
85.9915
20
-47.3344
10
85.8740
20
-47.5379
10
85.7079
20
-47.7040
10
85.5044
20
-47.8215
10
85.2775
20
-47.8823
10
85.1600
20
-47.8900
10
84.3600
20
-47.8900
10
84.2425
20
-47.8823
10
84.0156
20
-47.8215
10
83.8121
20
-47.7040
10
83.6460
20
-47.5379
10
83.5285
20
-47.3344
10
83.4677
20
-47.1075
10
83.4677
20
-46.8725
10
83.5285
20
-46.6456
10
83.6460
20
-46.4421
10
83.8121
20
-46.2760
10
84.0156
20
-46.1585
10
84.2425
20
-46.0977
10
84.3600
20
-46.0900
10
85.1600
20
-46.0900
0
LWPOLYLINE
8
MASK
90
28
70
1
10
85.2775
20
-48.6377
10
85.5044
20
-48.6985
10
85.7079
20
-48.8160
10
85.8740
20
-48.9821
10
85.9915
20
-49.1856
10
86.0523
20
-49.4125
10
86.0523
20
-49.6475
10
85.9915
20
-49.8744
10
85.8740
20
-50.0779
10
85.7079
20
-50.2440
10
85.5044
20
-50.3615
10
85.2775
20
-50.4223
10
85.1600
20
-50.4300
10
84.3600
20
-50.4300
10
84.2425
20
-50.4223
10
84.0156
20
-50.3615
10
83.8121
20
-50.2440
10
83.6460
20
-50.0779
10
83.5285
20
-49.8744
10
83.4677
20
-49.6475
10
83.4677
20
-49.4125
10
83.5285
20
-49.1856
10
83.6460
20
-48.9821
10
83.8121
20
-48.8160
10
84.0156
20
-48.6985
10
84.2425
20
-48.6377
10
84.3600
20
-48.6300
10
85.1600
20
-48.6300
0
LWPOLYLINE
8
MASK
90
28
70
1
10
92.8975
20
-48.6377
10
93.1244
20
-48.6985
10
93.3279
20
-48.8160
10
93.4940
20
-48.9821
10
93.6115
20
-49.1856
10
93.6723
20
-49.4125
10
93.6723
20
-49.6475
10
93.6115
20
-49.8744
10
93.4940
20
-50.0779
10
93.3279
20
-50.2440
10
93.1244
20
-50.3615
10
92.8975
20
-50.4223
10
92.7800
20
-50.4300
10
91.9800
20
-50.4300
10
91.8625
20
-50.4223
10
91.6356
20
-50.3615
10
91.4321
20
-50.2440
10
91.2660
20
-50.0779
10
91.1485
20
-49.8744
10
91.0877
20
-49.6475
10
91.0877
20
-49.4125
10
91.1485
20
-49.1856
10
91.2660
20
-48.9821
10
91.4321
20
-48.8160
10
91.6356
20
-48.6985
10
91.8625
20
-48.6377
10
91.9800
20
-48.6300
10
92.7800
20
-48.6300
0
LWPOLYLINE
8
MASK
90
28
70
1
10
92.8975
20
-46.0977
10
93.1244
20
-46.1585
10
93.3279
20
-46.2760
10
93.4940
20
-46.4421
10
93.6115
20
-46.6456
10
93.6723
20
-46.8725
10
93.6723
20
-47.1075
10
93.6115
20
-47.3344
10
93.4940
20
-47.5379
10
93.3279
20
-47.7040
10
93.1244
20
-47.8215
10
92.8975
20
-47.8823
10
92.7800
20
-47.8900
10
91.9800
20
-47.8900
10
91.8625
20
-47.8823
10
91.6356
20
-47.8215
10
91.4321
20
-47.7040
10
91.2660
20
-47.5379
10
91.1485
20
-47.3344
10
91.0877
20
-47.1075
10
91.0877
20
-46.8725
10
91.1485
20
-46.6456
10
91.2660
20
-46.4421
10
91.4321
20
-46.2760
10
91.6356
20
-46.1585
10
91.8625
20
-46.0977
10
91.9800
20
-46.0900
10
92.7800
20
-46.0900
0
LWPOLYLINE
8
MASK
90
28
70
1
10
92.8975
20
-43.5577
10
93.1244
20
-43.6185
10
93.3279
20
-43.7360
10
93.4940
20
-43.9021
10
93.6115
20
-44.1056
10
93.6723
20
-44.3325
10
93.6723
20
-44.5675
10
93.6115
20
-44.7944
10
93.4940
20
-44.9979
10
93.3279
20
-45.1640
10
93.1244
20
-45.2815
10
92.8975
20
-45.3423
10
92.7800
20
-45.3500
10
91.9800
20
-45.3500
10
91.8625
20
-45.3423
10
91.6356
20
-45.2815
10
91.4321
20
-45.1640
10
91.2660
20
-44.9979
10
91.1485
20
-44.7944
10
91.0877
20
-44.5675
10
91.0877
20
-44.3325
10
91.1485
20
-44.1056
10
91.2660
20
-43.9021
10
91.4321
20
-43.7360
10
91.6356
20
-43.6185
10
91.8625
20
-43.5577
10
91.9800
20
-43.5500
10
92.7800
20
-43.5500
0
LWPOLYLINE
8
MASK
90
28
70
1
10
92.8975
20
-41.0177
10
93.1244
20
-41.0785
10
93.3279
20
-41.1960
10
93.4940
20
-41.3621
10
93.6115
20
-41.5656
10
93.6723
20
-41.7925
10
93.6723
20
-42.0275
10
93.6115
20
-42.2544
10
93.4940
20
-42.4579
10
93.3279
20
-42.6240
10
93.1244
20
-42.7415
10
92.8975
20
-42.8023
10
92.7800
20
-42.8100
10
91.9800
20
-42.8100
10
91.8625
20
-42.8023
10
91.6356
20
-42.7415
10
91.4321
20
-42.6240
10
91.2660
20
-42.4579
10
91.1485
20
-42.2544
10
91.0877
20
-42.0275
10
91.0877
20
-41.7925
10
91.1485
20
-41.5656
10
91.2660
20
-41.3621
10
91.4321
20
-41.1960
10
91.6356
20
-41.0785
10
91.8625
20
-41.0177
10
91.9800
20
-41.0100
10
92.7800
20
-41.0100
0
LWPOLYLINE
8
MASK
90
28
70
1
10
92.8975
20
-38.4777
10
93.1244
20
-38.5385
10
93.3279
20
-38.6560
10
93.4940
20
-38.8221
10
93.6115
20
-39.0256
10
93.6723
20
-39.2525
10
93.6723
20
-39.4875
10
93.6115
20
-39.7144
10
93.4940
20
-39.9179
10
93.3279
20
-40.0840
10
93.1244
20
-40.2015
10
92.8975
20
-40.2623
10
92.7800
20
-40.2700
10
91.9800
20
-40.2700
10
91.8625
20
-40.2623
10
91.6356
20
-40.2015
10
91.4321
20
-40.0840
10
91.2660
20
-39.9179
10
91.1485
20
-39.7144
10
91.0877
20
-39.4875
10
91.0877
20
-39.2525
10
91.1485
20
-39.0256
10
91.2660
20
-38.8221
10
91.4321
20
-38.6560
10
91.6356
20
-38.5385
10
91.8625
20
-38.4777
10
91.9800
20
-38.4700
10
92.7800
20
-38.4700
0
LWPOLYLINE
8
MASK
90
28
70
1
10
92.8975
20
-35.9377
10
93.1244
20
-35.9985
10
93.3279
20
-36.1160
10
93.4940
20
-36.2821
10
93.6115
20
-36.4856
10
93.6723
20
-36.7125
10
93.6723
20
-36.9475
10
93.6115
20
-37.1744
10
93.4940
20
-37.3779
10
93.3279
20
-37.5440
10
93.1244
20
-37.6615
10
92.8975
20
-37.7223
10
92.7800
20
-37.7300
10
91.9800
20
-37.7300
10
91.8625
20
-37.7223
10
91.6356
20
-37.6615
10
91.4321
20
-37.5440
10
91.2660
20
-37.3779
10
91.1485
20
-37.1744
10
91.0877
20
-36.9475
10
91.0877
20
-36.7125
10
91.1485
20
-36.4856
10
91.2660
20
-36.2821
10
91.4321
20
-36.1160
10
91.6356
20
-35.9985
10
91.8625
20
-35.9377
10
91.9800
20
-35.9300
10
92.7800
20
-35.9300
0
LWPOLYLINE
8
MASK
90
28
70
1
10
92.8975
20
-33.3977
10
93.1244
20
-33.4585
10
93.3279
20
-33.5760
10
93.4940
20
-33.7421
10
93.6115
20
-33.9456
10
93.6723
20
-34.1725
10
93.6723
20
-34.4075
10
93.6115
20
-34.6344
10
93.4940
20
-34.8379
10
93.3279
20
-35.0040
10
93.1244
20
-35.1215
10
92.8975
20
-35.1823
10
92.7800
20
-35.1900
10
91.9800
20
-35.1900
10
91.8625
20
-35.1823
10
91.6356
20
-35.1215
10
91.4321
20
-35.0040
10
91.2660
20
-34.8379
10
91.1485
20
-34.6344
10
91.0877
20
-34.4075
10
91.0877
20
-34.1725
10
91.1485
20
-33.9456
10
91.2660
20
-33.7421
10
91.4321
20
-33.5760
10
91.6356
20
-33.4585
10
91.8625
20
-33.3977
10
91.9800
20
-33.3900
10
92.7800
20
-33.3900
0
LWPOLYLINE
8
MASK
90
28
70
1
10
92.8975
20
-30.8577
10
93.1244
20
-30.9185
10
93.3279
20
-31.0360
10
93.4940
20
-31.2021
10
93.6115
20
-31.4056
10
93.6723
20
-31.6325
10
93.6723
20
-31.8675
10
93.6115
20
-32.0944
10
93.4940
20
-32.2979
10
93.3279
20
-32.4640
10
93.1244
20
-32.5815
10
92.8975
20
-32.6423
10
92.7800
20
-32.6500
10
91.9800
20
-32.6500
10
91.8625
20
-32.6423
10
91.6356
20
-32.5815
10
91.4321
20
-32.4640
10
91.2660
20
-32.2979
10
91.1485
20
-32.0944
10
91.0877
20
-31.8675
10
91.0877
20
-31.6325
10
91.1485
20
-31.4056
10
91.2660
20
-31.2021
10
91.4321
20
-31.0360
10
91.6356
20
-30.9185
10
91.8625
20
-30.8577
10
91.9800
20
-30.8500
10
92.7800
20
-30.8500
0
CIRCLE
8
MASK
10
70.9050
20
-107.9500
40
0.9000
0
CIRCLE
8
MASK
10
78.5250
20
-107.9500
40
0.9000
0
CIRCLE
8
MASK
10
97.5000
20
-47.0000
40
1.0000
0
CIRCLE
8
MASK
10
99.5000
20
-68.5000
40
1.0000
0
CIRCLE
8
MASK
10
65.0550
20
-64.7700
40
0.9000
0
CIRCLE
8
MASK
10
70.0550
20
-64.7700
40
0.9000
0
CIRCLE
8
MASK
10
97.5100
20
-40.6400
40
0.9000
0
CIRCLE
8
MASK
10
102.5100
20
-40.6400
40
0.9000
0
CIRCLE
8
MASK
10
78.4500
20
-100.3300
40
0.8500
0
CIRCLE
8
MASK
10
83.3300
20
-100.3300
40
0.8500
0
CIRCLE
8
MASK
10
43.0000
20
-31.5000
40
1.0000
0
CIRCLE
8
MASK
10
56.0000
20
-74.0000
40
1.0000
0
CIRCLE
8
MASK
10
111.0000
20
-61.0000
40
1.0000
0
LWPOLYLINE
8
MASK
90
20
70
1
10
69.2925
20
-75.7500
10
69.3308
20
-75.7576
10
69.3632
20
-75.7793
10
69.3849
20
-75.8117
10
69.3925
20
-75.8500
10
69.3925
20
-77.5500
10
69.3849
20
-77.5883
10
69.3632
20
-77.6207
10
69.3308
20
-77.6424
10
69.2925
20
-77.6500
10
67.5925
20
-77.6500
10
67.5542
20
-77.6424
10
67.5218
20
-77.6207
10
67.5001
20
-77.5883
10
67.4925
20
-77.5500
10
67.4925
20
-75.8500
10
67.5001
20
-75.8117
10
67.5218
20
-75.7793
10
67.5542
20
-75.7576
10
67.5925
20
-75.7500
0
CIRCLE
8
MASK
10
65.9025
20
-76.7000
40
0.9500
0
CIRCLE
8
MASK
10
63.3625
20
-76.7000
40
0.9500
0
CIRCLE
8
MASK
10
37.4900
20
-40.6400
40
0.9000
0
CIRCLE
8
MASK
10
42.4900
20
-40.6400
40
0.9000
0
CIRCLE
8
MASK
10
86.5000
20
-53.0000
40
1.0000
0
LWPOLYLINE
8
MASK
90
20
70
1
10
46.3200
20
-31.2000
10
46.3466
20
-31.0661
10
46.4225
20
-30.9525
10
46.5361
20
-30.8766
10
46.6700
20
-30.8500
10
48.5700
20
-30.8500
10
48.7039
20
-30.8766
10
48.8175
20
-30.9525
10
48.8934
20
-31.0661
10
48.9200
20
-31.2000
10
48.9200
20
-32.3000
10
48.8934
20
-32.4339
10
48.8175
20
-32.5475
10
48.7039
20
-32.6234
10
48.5700
20
-32.6500
10
46.6700
20
-32.6500
10
46.5361
20
-32.6234
10
46.4225
20
-32.5475
10
46.3466
20
-32.4339
10
46.3200
20
-32.3000
0
LWPOLYLINE
8
MASK
90
28
70
1
10
48.1375
20
-33.3977
10
48.3644
20
-33.4585
10
48.5679
20
-33.5760
10
48.7340
20
-33.7421
10
48.8515
20
-33.9456
10
48.9123
20
-34.1725
10
48.9123
20
-34.4075
10
48.8515
20
-34.6344
10
48.7340
20
-34.8379
10
48.5679
20
-35.0040
10
48.3644
20
-35.1215
10
48.1375
20
-35.1823
10
48.0200
20
-35.1900
10
47.2200
20
-35.1900
10
47.1025
20
-35.1823
10
46.8756
20
-35.1215
10
46.6721
20
-35.0040
10
46.5060
20
-34.8379
10
46.3885
20
-34.6344
10
46.3277
20
-34.4075
10
46.3277
20
-34.1725
10
46.3885
20
-33.9456
10
46.5060
20
-33.7421
10
46.6721
20
-33.5760
10
46.8756
20
-33.4585
10
47.1025
20
-33.3977
10
47.2200
20
-33.3900
10
48.0200
20
-33.3900
0
LWPOLYLINE
8
MASK
90
28
70
1
10
48.1375
20
-35.9377
10
48.3644
20
-35.9985
10
48.5679
20
-36.1160
10
48.7340
20
-36.2821
10
48.8515
20
-36.4856
10
48.9123
20
-36.7125
10
48.9123
20
-36.9475
10
48.8515
20
-37.1744
10
48.7340
20
-37.3779
10
48.5679
20
-37.5440
10
48.3644
20
-37.6615
10
48.1375
20
-37.7223
10
48.0200
20
-37.7300
10
47.2200
20
-37.7300
10
47.1025
20
-37.7223
10
46.8756
20
-37.6615
10
46.6721
20
-37.5440
10
46.5060
20
-37.3779
10
46.3885
20
-37.1744
10
46.3277
20
-36.9475
10
46.3277
20
-36.7125
10
46.3885
20
-36.4856
10
46.5060
20
-36.2821
10
46.6721
20
-36.1160
10
46.8756
20
-35.9985
10
47.1025
20
-35.9377
10
47.2200
20
-35.9300
10
48.0200
20
-35.9300
0
LWPOLYLINE
8
MASK
90
28
70
1
10
48.1375
20
-38.4777
10
48.3644
20
-38.5385
10
48.5679
20
-38.6560
10
48.7340
20
-38.8221
10
48.8515
20
-39.0256
10
48.9123
20
-39.2525
10
48.9123
20
-39.4875
10
48.8515
20
-39.7144
10
48.7340
20
-39.9179
10
48.5679
20
-40.0840
10
48.3644
20
-40.2015
10
48.1375
20
-40.2623
10
48.0200
20
-40.2700
10
47.2200
20
-40.2700
10
47.1025
20
-40.2623
10
46.8756
20
-40.2015
10
46.6721
20
-40.0840
10
46.5060
20
-39.9179
10
46.3885
20
-39.7144
10
46.3277
20
-39.4875
10
46.3277
20
-39.2525
10
46.3885
20
-39.0256
10
46.5060
20
-38.8221
10
46.6721
20
-38.6560
10
46.8756
20
-38.5385
10
47.1025
20
-38.4777
10
47.2200
20
-38.4700
10
48.0200
20
-38.4700
0
LWPOLYLINE
8
MASK
90
28
70
1
10
48.1375
20
-41.0177
10
48.3644
20
-41.0785
10
48.5679
20
-41.1960
10
48.7340
20
-41.3621
10
48.8515
20
-41.5656
10
48.9123
20
-41.7925
10
48.9123
20
-42.0275
10
48.8515
20
-42.2544
10
48.7340
20
-42.4579
10
48.5679
20
-42.6240
10
48.3644
20
-42.7415
10
48.1375
20
-42.8023
10
48.0200
20
-42.8100
10
47.2200
20
-42.8100
10
47.1025
20
-42.8023
10
46.8756
20
-42.7415
10
46.6721
20
-42.6240
10
46.5060
20
-42.4579
10
46.3885
20
-42.2544
10
46.3277
20
-42.0275
10
46.3277
20
-41.7925
10
46.3885
20
-41.5656
10
46.5060
20
-41.3621
10
46.6721
20
-41.1960
10
46.8756
20
-41.0785
10
47.1025
20
-41.0177
10
47.2200
20
-41.0100
10
48.0200
20
-41.0100
0
LWPOLYLINE
8
MASK
90
28
70
1
10
48.1375
20
-43.5577
10
48.3644
20
-43.6185
10
48.5679
20
-43.7360
10
48.7340
20
-43.9021
10
48.8515
20
-44.1056
10
48.9123
20
-44.3325
10
48.9123
20
-44.5675
10
48.8515
20
-44.7944
10
48.7340
20
-44.9979
10
48.5679
20
-45.1640
10
48.3644
20
-45.2815
10
48.1375
20
-45.3423
10
48.0200
20
-45.3500
10
47.2200
20
-45.3500
10
47.1025
20
-45.3423
10
46.8756
20
-45.2815
10
46.6721
20
-45.1640
10
46.5060
20
-44.9979
10
46.3885
20
-44.7944
10
46.3277
20
-44.5675
10
46.3277
20
-44.3325
10
46.3885
20
-44.1056
10
46.5060
20
-43.9021
10
46.6721
20
-43.7360
10
46.8756
20
-43.6185
10
47.1025
20
-43.5577
10
47.2200
20
-43.5500
10
48.0200
20
-43.5500
0
LWPOLYLINE
8
MASK
90
28
70
1
10
48.1375
20
-46.0977
10
48.3644
20
-46.1585
10
48.5679
20
-46.2760
10
48.7340
20
-46.4421
10
48.8515
20
-46.6456
10
48.9123
20
-46.8725
10
48.9123
20
-47.1075
10
48.8515
20
-47.3344
10
48.7340
20
-47.5379
10
48.5679
20
-47.7040
10
48.3644
20
-47.8215
10
48.1375
20
-47.8823
10
48.0200
20
-47.8900
10
47.2200
20
-47.8900
10
47.1025
20
-47.8823
10
46.8756
20
-47.8215
10
46.6721
20
-47.7040
10
46.5060
20
-47.5379
10
46.3885
20
-47.3344
10
46.3277
20
-47.1075
10
46.3277
20
-46.8725
10
46.3885
20
-46.6456
10
46.5060
20
-46.4421
10
46.6721
20
-46.2760
10
46.8756
20
-46.1585
10
47.1025
20
-46.0977
10
47.2200
20
-46.0900
10
48.0200
20
-46.0900
0
LWPOLYLINE
8
MASK
90
28
70
1
10
48.1375
20
-48.6377
10
48.3644
20
-48.6985
10
48.5679
20
-48.8160
10
48.7340
20
-48.9821
10
48.8515
20
-49.1856
10
48.9123
20
-49.4125
10
48.9123
20
-49.6475
10
48.8515
20
-49.8744
10
48.7340
20
-50.0779
10
48.5679
20
-50.2440
10
48.3644
20
-50.3615
10
48.1375
20
-50.4223
10
48.0200
20
-50.4300
10
47.2200
20
-50.4300
10
47.1025
20
-50.4223
10
46.8756
20
-50.3615
10
46.6721
20
-50.2440
10
46.5060
20
-50.0779
10
46.3885
20
-49.8744
10
46.3277
20
-49.6475
10
46.3277
20
-49.4125
10
46.3885
20
-49.1856
10
46.5060
20
-48.9821
10
46.6721
20
-48.8160
10
46.8756
20
-48.6985
10
47.1025
20
-48.6377
10
47.2200
20
-48.6300
10
48.0200
20
-48.6300
0
LWPOLYLINE
8
MASK
90
28
70
1
10
55.7575
20
-48.6377
10
55.9844
20
-48.6985
10
56.1879
20
-48.8160
10
56.3540
20
-48.9821
10
56.4715
20
-49.1856
10
56.5323
20
-49.4125
10
56.5323
20
-49.6475
10
56.4715
20
-49.8744
10
56.3540
20
-50.0779
10
56.1879
20
-50.2440
10
55.9844
20
-50.3615
10
55.7575
20
-50.4223
10
55.6400
20
-50.4300
10
54.8400
20
-50.4300
10
54.7225
20
-50.4223
10
54.4956
20
-50.3615
10
54.2921
20
-50.2440
10
54.1260
20
-50.0779
10
54.0085
20
-49.8744
10
53.9477
20
-49.6475
10
53.9477
20
-49.4125
10
54.0085
20
-49.1856
10
54.1260
20
-48.9821
10
54.2921
20
-48.8160
10
54.4956
20
-48.6985
10
54.7225
20
-48.6377
10
54.8400
20
-48.6300
10
55.6400
20
-48.6300
0
LWPOLYLINE
8
MASK
90
28
70
1
10
55.7575
20
-46.0977
10
55.9844
20
-46.1585
10
56.1879
20
-46.2760
10
56.3540
20
-46.4421
10
56.4715
20
-46.6456
10
56.5323
20
-46.8725
10
56.5323
20
-47.1075
10
56.4715
20
-47.3344
10
56.3540
20
-47.5379
10
56.1879
20
-47.7040
10
55.9844
20
-47.8215
10
55.7575
20
-47.8823
10
55.6400
20
-47.8900
10
54.8400
20
-47.8900
10
54.7225
20
-47.8823
10
54.4956
20
-47.8215
10
54.2921
20
-47.7040
10
54.1260
20
-47.5379
10
54.0085
20
-47.3344
10
53.9477
20
-47.1075
10
53.9477
20
-46.8725
10
54.0085
20
-46.6456
10
54.1260
20
-46.4421
10
54.2921
20
-46.2760
10
54.4956
20
-46.1585
10
54.7225
20
-46.0977
10
54.8400
20
-46.0900
10
55.6400
20
-46.0900
0
LWPOLYLINE
8
MASK
90
28
70
1
10
55.7575
20
-43.5577
10
55.9844
20
-43.6185
10
56.1879
20
-43.7360
10
56.3540
20
-43.9021
10
56.4715
20
-44.1056
10
56.5323
20
-44.3325
10
56.5323
20
-44.5675
10
56.4715
20
-44.7944
10
56.3540
20
-44.9979
10
56.1879
20
-45.1640
10
55.9844
20
-45.2815
10
55.7575
20
-45.3423
10
55.6400
20
-45.3500
10
54.8400
20
-45.3500
10
54.7225
20
-45.3423
10
54.4956
20
-45.2815
10
54.2921
20
-45.1640
10
54.1260
20
-44.9979
10
54.0085
20
-44.7944
10
53.9477
20
-44.5675
10
53.9477
20
-44.3325
10
54.0085
20
-44.1056
10
54.1260
20
-43.9021
10
54.2921
20
-43.7360
10
54.4956
20
-43.6185
10
54.7225
20
-43.5577
10
54.8400
20
-43.5500
10
55.6400
20
-43.5500
0
LWPOLYLINE
8
MASK
90
28
70
1
10
55.7575
20
-41.0177
10
55.9844
20
-41.0785
10
56.1879
20
-41.1960
10
56.3540
20
-41.3621
10
56.4715
20
-41.5656
10
56.5323
20
-41.7925
10
56.5323
20
-42.0275
10
56.4715
20
-42.2544
10
56.3540
20
-42.4579
10
56.1879
20
-42.6240
10
55.9844
20
-42.7415
10
55.7575
20
-42.8023
10
55.6400
20
-42.8100
10
54.8400
20
-42.8100
10
54.7225
20
-42.8023
10
54.4956
20
-42.7415
10
54.2921
20
-42.6240
10
54.1260
20
-42.4579
10
54.0085
20
-42.2544
10
53.9477
20
-42.0275
10
53.9477
20
-41.7925
10
54.0085
20
-41.5656
10
54.1260
20
-41.3621
10
54.2921
20
-41.1960
10
54.4956
20
-41.0785
10
54.7225
20
-41.0177
10
54.8400
20
-41.0100
10
55.6400
20
-41.0100
0
LWPOLYLINE
8
MASK
90
28
70
1
10
55.7575
20
-38.4777
10
55.9844
20
-38.5385
10
56.1879
20
-38.6560
10
56.3540
20
-38.8221
10
56.4715
20
-39.0256
10
56.5323
20
-39.2525
10
56.5323
20
-39.4875
10
56.4715
20
-39.7144
10
56.3540
20
-39.9179
10
56.1879
20
-40.0840
10
55.9844
20
-40.2015
10
55.7575
20
-40.2623
10
55.6400
20
-40.2700
10
54.8400
20
-40.2700
10
54.7225
20
-40.2623
10
54.4956
20
-40.2015
10
54.2921
20
-40.0840
10
54.1260
20
-39.9179
10
54.0085
20
-39.7144
10
53.9477
20
-39.4875
10
53.9477
20
-39.2525
10
54.0085
20
-39.0256
10
54.1260
20
-38.8221
10
54.2921
20
-38.6560
10
54.4956
20
-38.5385
10
54.7225
20
-38.4777
10
54.8400
20
-38.4700
10
55.6400
20
-38.4700
0
LWPOLYLINE
8
MASK
90
28
70
1
10
55.7575
20
-35.9377
10
55.9844
20
-35.9985
10
56.1879
20
-36.1160
10
56.3540
20
-36.2821
10
56.4715
20
-36.4856
10
56.5323
20
-36.7125
10
56.5323
20
-36.9475
10
56.4715
20
-37.1744
10
56.3540
20
-37.3779
10
56.1879
20
-37.5440
10
55.9844
20
-37.6615
10
55.7575
20
-37.7223
10
55.6400
20
-37.7300
10
54.8400
20
-37.7300
10
54.7225
20
-37.7223
10
54.4956
20
-37.6615
10
54.2921
20
-37.5440
10
54.1260
20
-37.3779
10
54.0085
20
-37.1744
10
53.9477
20
-36.9475
10
53.9477
20
-36.7125
10
54.0085
20
-36.4856
10
54.1260
20
-36.2821
10
54.2921
20
-36.1160
10
54.4956
20
-35.9985
10
54.7225
20
-35.9377
10
54.8400
20
-35.9300
10
55.6400
20
-35.9300
0
LWPOLYLINE
8
MASK
90
28
70
1
10
55.7575
20
-33.3977
10
55.9844
20
-33.4585
10
56.1879
20
-33.5760
10
56.3540
20
-33.7421
10
56.4715
20
-33.9456
10
56.5323
20
-34.1725
10
56.5323
20
-34.4075
10
56.4715
20
-34.6344
10
56.3540
20
-34.8379
10
56.1879
20
-35.0040
10
55.9844
20
-35.1215
10
55.7575
20
-35.1823
10
55.6400
20
-35.1900
10
54.8400
20
-35.1900
10
54.7225
20
-35.1823
10
54.4956
20
-35.1215
10
54.2921
20
-35.0040
10
54.1260
20
-34.8379
10
54.0085
20
-34.6344
10
53.9477
20
-34.4075
10
53.9477
20
-34.1725
10
54.0085
20
-33.9456
10
54.1260
20
-33.7421
10
54.2921
20
-33.5760
10
54.4956
20
-33.4585
10
54.7225
20
-33.3977
10
54.8400
20
-33.3900
10
55.6400
20
-33.3900
0
LWPOLYLINE
8
MASK
90
28
70
1
10
55.7575
20
-30.8577
10
55.9844
20
-30.9185
10
56.1879
20
-31.0360
10
56.3540
20
-31.2021
10
56.4715
20
-31.4056
10
56.5323
20
-31.6325
10
56.5323
20
-31.8675
10
56.4715
20
-32.0944
10
56.3540
20
-32.2979
10
56.1879
20
-32.4640
10
55.9844
20
-32.5815
10
55.7575
20
-32.6423
10
55.6400
20
-32.6500
10
54.8400
20
-32.6500
10
54.7225
20
-32.6423
10
54.4956
20
-32.5815
10
54.2921
20
-32.4640
10
54.1260
20
-32.2979
10
54.0085
20
-32.0944
10
53.9477
20
-31.8675
10
53.9477
20
-31.6325
10
54.0085
20
-31.4056
10
54.1260
20
-31.2021
10
54.2921
20
-31.0360
10
54.4956
20
-30.9185
10
54.7225
20
-30.8577
10
54.8400
20
-30.8500
10
55.6400
20
-30.8500
0
CIRCLE
8
MASK
10
48.0725
20
-86.3600
40
0.9000
0
CIRCLE
8
MASK
10
53.0725
20
-86.3600
40
0.9000
0
CIRCLE
8
MASK
10
100.0000
20
-58.5000
40
1.0000
0
LWPOLYLINE
8
MASK
90
20
70
1
10
87.5825
20
-55.3300
10
87.6091
20
-55.1961
10
87.6850
20
-55.0825
10
87.7986
20
-55.0066
10
87.9325
20
-54.9800
10
89.8325
20
-54.9800
10
89.9664
20
-55.0066
10
90.0800
20
-55.0825
10
90.1559
20
-55.1961
10
90.1825
20
-55.3300
10
90.1825
20
-56.4300
10
90.1559
20
-56.5639
10
90.0800
20
-56.6775
10
89.9664
20
-56.7534
10
89.8325
20
-56.7800
10
87.9325
20
-56.7800
10
87.7986
20
-56.7534
10
87.6850
20
-56.6775
10
87.6091
20
-56.5639
10
87.5825
20
-56.4300
0
LWPOLYLINE
8
MASK
90
28
70
1
10
89.4000
20
-57.5277
10
89.6269
20
-57.5885
10
89.8304
20
-57.7060
10
89.9965
20
-57.8721
10
90.1140
20
-58.0756
10
90.1748
20
-58.3025
10
90.1748
20
-58.5375
10
90.1140
20
-58.7644
10
89.9965
20
-58.9679
10
89.8304
20
-59.1340
10
89.6269
20
-59.2515
10
89.4000
20
-59.3123
10
89.2825
20
-59.3200
10
88.4825
20
-59.3200
10
88.3650
20
-59.3123
10
88.1381
20
-59.2515
10
87.9346
20
-59.1340
10
87.7685
20
-58.9679
10
87.6510
20
-58.7644
10
87.5902
20
-58.5375
10
87.5902
20
-58.3025
10
87.6510
20
-58.0756
10
87.7685
20
-57.8721
10
87.9346
20
-57.7060
10
88.1381
20
-57.5885
10
88.3650
20
-57.5277
10
88.4825
20
-57.5200
10
89.2825
20
-57.5200
0
LWPOLYLINE
8
MASK
90
28
70
1
10
89.4000
20
-60.0677
10
89.6269
20
-60.1285
10
89.8304
20
-60.2460
10
89.9965
20
-60.4121
10
90.1140
20
-60.6156
10
90.1748
20
-60.8425
10
90.1748
20
-61.0775
10
90.1140
20
-61.3044
10
89.9965
20
-61.5079
10
89.8304
20
-61.6740
10
89.6269
20
-61.7915
10
89.4000
20
-61.8523
10
89.2825
20
-61.8600
10
88.4825
20
-61.8600
10
88.3650
20
-61.8523
10
88.1381
20
-61.7915
10
87.9346
20
-61.6740
10
87.7685
20
-61.5079
10
87.6510
20
-61.3044
10
87.5902
20
-61.0775
10
87.5902
20
-60.8425
10
87.6510
20
-60.6156
10
87.7685
20
-60.4121
10
87.9346
20
-60.2460
10
88.1381
20
-60.1285
10
88.3650
20
-60.0677
10
88.4825
20
-60.0600
10
89.2825
20
-60.0600
0
LWPOLYLINE
8
MASK
90
28
70
1
10
89.4000
20
-62.6077
10
89.6269
20
-62.6685
10
89.8304
20
-62.7860
10
89.9965
20
-62.9521
10
90.1140
20
-63.1556
10
90.1748
20
-63.3825
10
90.1748
20
-63.6175
10
90.1140
20
-63.8444
10
89.9965
20
-64.0479
10
89.8304
20
-64.2140
10
89.6269
20
-64.3315
10
89.4000
20
-64.3923
10
89.2825
20
-64.4000
10
88.4825
20
-64.4000
10
88.3650
20
-64.3923
10
88.1381
20
-64.3315
10
87.9346
20
-64.2140
10
87.7685
20
-64.0479
10
87.6510
20
-63.8444
10
87.5902
20
-63.6175
10
87.5902
20
-63.3825
10
87.6510
20
-63.1556
10
87.7685
20
-62.9521
10
87.9346
20
-62.7860
10
88.1381
20
-62.6685
10
88.3650
20
-62.6077
10
88.4825
20
-62.6000
10
89.2825
20
-62.6000
0
LWPOLYLINE
8
MASK
90
28
70
1
10
89.4000
20
-65.1477
10
89.6269
20
-65.2085
10
89.8304
20
-65.3260
10
89.9965
20
-65.4921
10
90.1140
20
-65.6956
10
90.1748
20
-65.9225
10
90.1748
20
-66.1575
10
90.1140
20
-66.3844
10
89.9965
20
-66.5879
10
89.8304
20
-66.7540
10
89.6269
20
-66.8715
10
89.4000
20
-66.9323
10
89.2825
20
-66.9400
10
88.4825
20
-66.9400
10
88.3650
20
-66.9323
10
88.1381
20
-66.8715
10
87.9346
20
-66.7540
10
87.7685
20
-66.5879
10
87.6510
20
-66.3844
10
87.5902
20
-66.1575
10
87.5902
20
-65.9225
10
87.6510
20
-65.6956
10
87.7685
20
-65.4921
10
87.9346
20
-65.3260
10
88.1381
20
-65.2085
10
88.3650
20
-65.1477
10
88.4825
20
-65.1400
10
89.2825
20
-65.1400
0
LWPOLYLINE
8
MASK
90
28
70
1
10
89.4000
20
-67.6877
10
89.6269
20
-67.7485
10
89.8304
20
-67.8660
10
89.9965
20
-68.0321
10
90.1140
20
-68.2356
10
90.1748
20
-68.4625
10
90.1748
20
-68.6975
10
90.1140
20
-68.9244
10
89.9965
20
-69.1279
10
89.8304
20
-69.2940
10
89.6269
20
-69.4115
10
89.4000
20
-69.4723
10
89.2825
20
-69.4800
10
88.4825
20
-69.4800
10
88.3650
20
-69.4723
10
88.1381
20
-69.4115
10
87.9346
20
-69.2940
10
87.7685
20
-69.1279
10
87.6510
20
-68.9244
10
87.5902
20
-68.6975
10
87.5902
20
-68.4625
10
87.6510
20
-68.2356
10
87.7685
20
-68.0321
10
87.9346
20
-67.8660
10
88.1381
20
-67.7485
10
88.3650
20
-67.6877
10
88.4825
20
-67.6800
10
89.2825
20
-67.6800
0
LWPOLYLINE
8
MASK
90
28
70
1
10
89.4000
20
-70.2277
10
89.6269
20
-70.2885
10
89.8304
20
-70.4060
10
89.9965
20
-70.5721
10
90.1140
20
-70.7756
10
90.1748
20
-71.0025
10
90.1748
20
-71.2375
10
90.1140
20
-71.4644
10
89.9965
20
-71.6679
10
89.8304
20
-71.8340
10
89.6269
20
-71.9515
10
89.4000
20
-72.0123
10
89.2825
20
-72.0200
10
88.4825
20
-72.0200
10
88.3650
20
-72.0123
10
88.1381
20
-71.9515
10
87.9346
20
-71.8340
10
87.7685
20
-71.6679
10
87.6510
20
-71.4644
10
87.5902
20
-71.2375
10
87.5902
20
-71.0025
10
87.6510
20
-70.7756
10
87.7685
20
-70.5721
10
87.9346
20
-70.4060
10
88.1381
20
-70.2885
10
88.3650
20
-70.2277
10
88.4825
20
-70.2200
10
89.2825
20
-70.2200
0
LWPOLYLINE
8
MASK
90
28
70
1
10
89.4000
20
-72.7677
10
89.6269
20
-72.8285
10
89.8304
20
-72.9460
10
89.9965
20
-73.1121
10
90.1140
20
-73.3156
10
90.1748
20
-73.5425
10
90.1748
20
-73.7775
10
90.1140
20
-74.0044
10
89.9965
20
-74.2079
10
89.8304
20
-74.3740
10
89.6269
20
-74.4915
10
89.4000
20
-74.5523
10
89.2825
20
-74.5600
10
88.4825
20
-74.5600
10
88.3650
20
-74.5523
10
88.1381
20
-74.4915
10
87.9346
20
-74.3740
10
87.7685
20
-74.2079
10
87.6510
20
-74.0044
10
87.5902
20
-73.7775
10
87.5902
20
-73.5425
10
87.6510
20
-73.3156
10
87.7685
20
-73.1121
10
87.9346
20
-72.9460
10
88.1381
20
-72.8285
10
88.3650
20
-72.7677
10
88.4825
20
-72.7600
10
89.2825
20
-72.7600
0
LWPOLYLINE
8
MASK
90
28
70
1
10
97.0200
20
-72.7677
10
97.2469
20
-72.8285
10
97.4504
20
-72.9460
10
97.6165
20
-73.1121
10
97.7340
20
-73.3156
10
97.7948
20
-73.5425
10
97.7948
20
-73.7775
10
97.7340
20
-74.0044
10
97.6165
20
-74.2079
10
97.4504
20
-74.3740
10
97.2469
20
-74.4915
10
97.0200
20
-74.5523
10
96.9025
20
-74.5600
10
96.1025
20
-74.5600
10
95.9850
20
-74.5523
10
95.7581
20
-74.4915
10
95.5546
20
-74.3740
10
95.3885
20
-74.2079
10
95.2710
20
-74.0044
10
95.2102
20
-73.7775
10
95.2102
20
-73.5425
10
95.2710
20
-73.3156
10
95.3885
20
-73.1121
10
95.5546
20
-72.9460
10
95.7581
20
-72.8285
10
95.9850
20
-72.7677
10
96.1025
20
-72.7600
10
96.9025
20
-72.7600
0
LWPOLYLINE
8
MASK
90
28
70
1
10
97.0200
20
-70.2277
10
97.2469
20
-70.2885
10
97.4504
20
-70.4060
10
97.6165
20
-70.5721
10
97.7340
20
-70.7756
10
97.7948
20
-71.0025
10
97.7948
20
-71.2375
10
97.7340
20
-71.4644
10
97.6165
20
-71.6679
10
97.4504
20
-71.8340
10
97.2469
20
-71.9515
10
97.0200
20
-72.0123
10
96.9025
20
-72.0200
10
96.1025
20
-72.0200
10
95.9850
20
-72.0123
10
95.7581
20
-71.9515
10
95.5546
20
-71.8340
10
95.3885
20
-71.6679
10
95.2710
20
-71.4644
10
95.2102
20
-71.2375
10
95.2102
20
-71.0025
10
95.2710
20
-70.7756
10
95.3885
20
-70.5721
10
95.5546
20
-70.4060
10
95.7581
20
-70.2885
10
95.9850
20
-70.2277
10
96.1025
20
-70.2200
10
96.9025
20
-70.2200
0
LWPOLYLINE
8
MASK
90
28
70
1
10
97.0200
20
-67.6877
10
97.2469
20
-67.7485
10
97.4504
20
-67.8660
10
97.6165
20
-68.0321
10
97.7340
20
-68.2356
10
97.7948
20
-68.4625
10
97.7948
20
-68.6975
10
97.7340
20
-68.9244
10
97.6165
20
-69.1279
10
97.4504
20
-69.2940
10
97.2469
20
-69.4115
10
97.0200
20
-69.4723
10
96.9025
20
-69.4800
10
96.1025
20
-69.4800
10
95.9850
20
-69.4723
10
95.7581
20
-69.4115
10
95.5546
20
-69.2940
10
95.3885
20
-69.1279
10
95.2710
20
-68.9244
10
95.2102
20
-68.6975
10
95.2102
20
-68.4625
10
95.2710
20
-68.2356
10
95.3885
20
-68.0321
10
95.5546
20
-67.8660
10
95.7581
20
-67.7485
10
95.9850
20
-67.6877
10
96.1025
20
-67.6800
10
96.9025
20
-67.6800
0
LWPOLYLINE
8
MASK
90
28
70
1
10
97.0200
20
-65.1477
10
97.2469
20
-65.2085
10
97.4504
20
-65.3260
10
97.6165
20
-65.4921
10
97.7340
20
-65.6956
10
97.7948
20
-65.9225
10
97.7948
20
-66.1575
10
97.7340
20
-66.3844
10
97.6165
20
-66.5879
10
97.4504
20
-66.7540
10
97.2469
20
-66.8715
10
97.0200
20
-66.9323
10
96.9025
20
-66.9400
10
96.1025
20
-66.9400
10
95.9850
20
-66.9323
10
95.7581
20
-66.8715
10
95.5546
20
-66.7540
10
95.3885
20
-66.5879
10
95.2710
20
-66.3844
10
95.2102
20
-66.1575
10
95.2102
20
-65.9225
10
95.2710
20
-65.6956
10
95.3885
20
-65.4921
10
95.5546
20
-65.3260
10
95.7581
20
-65.2085
10
95.9850
20
-65.1477
10
96.1025
20
-65.1400
10
96.9025
20
-65.1400
0
LWPOLYLINE
8
MASK
90
28
70
1
10
97.0200
20
-62.6077
10
97.2469
20
-62.6685
10
97.4504
20
-62.7860
10
97.6165
20
-62.9521
10
97.7340
20
-63.1556
10
97.7948
20
-63.3825
10
97.7948
20
-63.6175
10
97.7340
20
-63.8444
10
97.6165
20
-64.0479
10
97.4504
20
-64.2140
10
97.2469
20
-64.3315
10
97.0200
20
-64.3923
10
96.9025
20
-64.4000
10
96.1025
20
-64.4000
10
95.9850
20
-64.3923
10
95.7581
20
-64.3315
10
95.5546
20
-64.2140
10
95.3885
20
-64.0479
10
95.2710
20
-63.8444
10
95.2102
20
-63.6175
10
95.2102
20
-63.3825
10
95.2710
20
-63.1556
10
95.3885
20
-62.9521
10
95.5546
20
-62.7860
10
95.7581
20
-62.6685
10
95.9850
20
-62.6077
10
96.1025
20
-62.6000
10
96.9025
20
-62.6000
0
LWPOLYLINE
8
MASK
90
28
70
1
10
97.0200
20
-60.0677
10
97.2469
20
-60.1285
10
97.4504
20
-60.2460
10
97.6165
20
-60.4121
10
97.7340
20
-60.6156
10
97.7948
20
-60.8425
10
97.7948
20
-61.0775
10
97.7340
20
-61.3044
10
97.6165
20
-61.5079
10
97.4504
20
-61.6740
10
97.2469
20
-61.7915
10
97.0200
20
-61.8523
10
96.9025
20
-61.8600
10
96.1025
20
-61.8600
10
95.9850
20
-61.8523
10
95.7581
20
-61.7915
10
95.5546
20
-61.6740
10
95.3885
20
-61.5079
10
95.2710
20
-61.3044
10
95.2102
20
-61.0775
10
95.2102
20
-60.8425
10
95.2710
20
-60.6156
10
95.3885
20
-60.4121
10
95.5546
20
-60.2460
10
95.7581
20
-60.1285
10
95.9850
20
-60.0677
10
96.1025
20
-60.0600
10
96.9025
20
-60.0600
0
LWPOLYLINE
8
MASK
90
28
70
1
10
97.0200
20
-57.5277
10
97.2469
20
-57.5885
10
97.4504
20
-57.7060
10
97.6165
20
-57.8721
10
97.7340
20
-58.0756
10
97.7948
20
-58.3025
10
97.7948
20
-58.5375
10
97.7340
20
-58.7644
10
97.6165
20
-58.9679
10
97.4504
20
-59.1340
10
97.2469
20
-59.2515
10
97.0200
20
-59.3123
10
96.9025
20
-59.3200
10
96.1025
20
-59.3200
10
95.9850
20
-59.3123
10
95.7581
20
-59.2515
10
95.5546
20
-59.1340
10
95.3885
20
-58.9679
10
95.2710
20
-58.7644
10
95.2102
20
-58.5375
10
95.2102
20
-58.3025
10
95.2710
20
-58.0756
10
95.3885
20
-57.8721
10
95.5546
20
-57.7060
10
95.7581
20
-57.5885
10
95.9850
20
-57.5277
10
96.1025
20
-57.5200
10
96.9025
20
-57.5200
0
LWPOLYLINE
8
MASK
90
28
70
1
10
97.0200
20
-54.9877
10
97.2469
20
-55.0485
10
97.4504
20
-55.1660
10
97.6165
20
-55.3321
10
97.7340
20
-55.5356
10
97.7948
20
-55.7625
10
97.7948
20
-55.9975
10
97.7340
20
-56.2244
10
97.6165
20
-56.4279
10
97.4504
20
-56.5940
10
97.2469
20
-56.7115
10
97.0200
20
-56.7723
10
96.9025
20
-56.7800
10
96.1025
20
-56.7800
10
95.9850
20
-56.7723
10
95.7581
20
-56.7115
10
95.5546
20
-56.5940
10
95.3885
20
-56.4279
10
95.2710
20
-56.2244
10
95.2102
20
-55.9975
10
95.2102
20
-55.7625
10
95.2710
20
-55.5356
10
95.3885
20
-55.3321
10
95.5546
20
-55.1660
10
95.7581
20
-55.0485
10
95.9850
20
-54.9877
10
96.1025
20
-54.9800
10
96.9025
20
-54.9800
0
CIRCLE
8
MASK
10
114.0000
20
-26.0000
40
1.7000
0
CIRCLE
8
MASK
10
61.1750
20
-107.9500
40
0.9000
0
CIRCLE
8
MASK
10
66.1750
20
-107.9500
40
0.9000
0
CIRCLE
8
MASK
10
79.5000
20
-53.0000
40
1.0000
0
LWPOLYLINE
8
EDGE
90
4
70
1
10
120.0000
20
-120.0000
10
20.0000
20
-120.0000
10
20.0000
20
-20.0000
10
120.0000
20
-20.0000
0
ENDSEC
0
EOF
