0
SECTION
2
HEADER
9
$ACADVER
1
AC1015
9
$INSUNITS
70
4
0
ENDSEC
0
SECTION
2
TABLES
0
TABLE
2
LAYER
70
2
0
LAYER
2
MASK
70
0
62
1
6
CONTINUOUS
0
LAYER
2
EDGE
70
0
62
3
6
CONTINUOUS
0
ENDTAB
0
ENDSEC
0
SECTION
2
ENTITIES
0
LWPOLYLINE
8
MASK
90
4
70
1
10
79.7400
20
-29.1500
10
79.7400
20
-30.8500
10
78.0400
20
-30.8500
10
78.0400
20
-29.1500
0
CIRCLE
8
MASK
10
78.8900
20
-32.5400
40
0.8500
0
CIRCLE
8
MASK
10
76.3500
20
-30.0000
40
0.8500
0
CIRCLE
8
MASK
10
76.3500
20
-32.5400
40
0.8500
0
CIRCLE
8
MASK
10
73.8100
20
-30.0000
40
0.8500
0
CIRCLE
8
MASK
10
73.8100
20
-32.5400
40
0.8500
0
CIRCLE
8
MASK
10
71.2700
20
-30.0000
40
0.8500
0
CIRCLE
8
MASK
10
71.2700
20
-32.5400
40
0.8500
0
CIRCLE
8
MASK
10
68.7300
20
-30.0000
40
0.8500
0
CIRCLE
8
MASK
10
68.7300
20
-32.5400
40
0.8500
0
CIRCLE
8
MASK
10
66.1900
20
-30.0000
40
0.8500
0
CIRCLE
8
MASK
10
66.1900
20
-32.5400
40
0.8500
0
CIRCLE
8
MASK
10
63.6500
20
-30.0000
40
0.8500
0
CIRCLE
8
MASK
10
63.6500
20
-32.5400
40
0.8500
0
CIRCLE
8
MASK
10
61.1100
20
-30.0000
40
0.8500
0
CIRCLE
8
MASK
10
61.1100
20
-32.5400
40
0.8500
0
CIRCLE
8
MASK
10
114.0000
20
-114.0000
40
1.6000
0
CIRCLE
8
MASK
10
53.9100
20
-100.3300
40
0.8000
0
CIRCLE
8
MASK
10
61.5300
20
-100.3300
40
0.8000
0
CIRCLE
8
MASK
10
84.0000
20
-61.5000
40
0.9000
0
LWPOLYLINE
8
MASK
90
20
70
1
10
44.0550
20
-69.7800
10
43.9593
20
-69.7610
10
43.8782
20
-69.7068
10
43.8240
20
-69.6257
10
43.8050
20
-69.5300
10
43.8050
20
-67.6300
10
43.8240
20
-67.5343
10
43.8782
20
-67.4532
10
43.9593
20
-67.3990
10
44.0550
20
-67.3800
10
45.1550
20
-67.3800
10
45.2507
20
-67.3990
10
45.3318
20
-67.4532
10
45.3860
20
-67.5343
10
45.4050
20
-67.6300
10
45.4050
20
-69.5300
10
45.3860
20
-69.6257
10
45.3318
20
-69.7068
10
45.2507
20
-69.7610
10
45.1550
20
-69.7800
0
LWPOLYLINE
8
MASK
90
28
70
1
10
46.3518
20
-68.0756
10
46.4059
20
-67.8739
10
46.5103
20
-67.6930
10
46.6580
20
-67.5453
10
46.8389
20
-67.4409
10
47.0406
20
-67.3868
10
47.2494
20
-67.3868
10
47.4511
20
-67.4409
10
47.6320
20
-67.5453
10
47.7797
20
-67.6930
10
47.8841
20
-67.8739
10
47.9382
20
-68.0756
10
47.9450
20
-68.1800
10
47.9450
20
-68.9800
10
47.9382
20
-69.0844
10
47.8841
20
-69.2861
10
47.7797
20
-69.4670
10
47.6320
20
-69.6147
10
47.4511
20
-69.7191
10
47.2494
20
-69.7732
10
47.0406
20
-69.7732
10
46.8389
20
-69.7191
10
46.6580
20
-69.6147
10
46.5103
20
-69.4670
10
46.4059
20
-69.2861
10
46.3518
20
-69.0844
10
46.3450
20
-68.9800
10
46.3450
20
-68.1800
0
LWPOLYLINE
8
MASK
90
28
70
1
10
48.8918
20
-68.0756
10
48.9459
20
-67.8739
10
49.0503
20
-67.6930
10
49.1980
20
-67.5453
10
49.3789
20
-67.4409
10
49.5806
20
-67.3868
10
49.7894
20
-67.3868
10
49.9911
20
-67.4409
10
50.1720
20
-67.5453
10
50.3197
20
-67.6930
10
50.4241
20
-67.8739
10
50.4782
20
-68.0756
10
50.4850
20
-68.1800
10
50.4850
20
-68.9800
10
50.4782
20
-69.0844
10
50.4241
20
-69.2861
10
50.3197
20
-69.4670
10
50.1720
20
-69.6147
10
49.9911
20
-69.7191
10
49.7894
20
-69.7732
10
49.5806
20
-69.7732
10
49.3789
20
-69.7191
10
49.1980
20
-69.6147
10
49.0503
20
-69.4670
10
48.9459
20
-69.2861
10
48.8918
20
-69.0844
10
48.8850
20
-68.9800
10
48.8850
20
-68.1800
0
LWPOLYLINE
8
MASK
90
28
70
1
10
51.4318
20
-68.0756
10
51.4859
20
-67.8739
10
51.5903
20
-67.6930
10
51.7380
20
-67.5453
10
51.9189
20
-67.4409
10
52.1206
20
-67.3868
10
52.3294
20
-67.3868
10
52.5311
20
-67.4409
10
52.7120
20
-67.5453
10
52.8597
20
-67.6930
10
52.9641
20
-67.8739
10
53.0182
20
-68.0756
10
53.0250
20
-68.1800
10
53.0250
20
-68.9800
10
53.0182
20
-69.0844
10
52.9641
20
-69.2861
10
52.8597
20
-69.4670
10
52.7120
20
-69.6147
10
52.5311
20
-69.7191
10
52.3294
20
-69.7732
10
52.1206
20
-69.7732
10
51.9189
20
-69.7191
10
51.7380
20
-69.6147
10
51.5903
20
-69.4670
10
51.4859
20
-69.2861
10
51.4318
20
-69.0844
10
51.4250
20
-68.9800
10
51.4250
20
-68.1800
0
LWPOLYLINE
8
MASK
90
28
70
1
10
53.9718
20
-68.0756
10
54.0259
20
-67.8739
10
54.1303
20
-67.6930
10
54.2780
20
-67.5453
10
54.4589
20
-67.4409
10
54.6606
20
-67.3868
10
54.8694
20
-67.3868
10
55.0711
20
-67.4409
10
55.2520
20
-67.5453
10
55.3997
20
-67.6930
10
55.5041
20
-67.8739
10
55.5582
20
-68.0756
10
55.5650
20
-68.1800
10
55.5650
20
-68.9800
10
55.5582
20
-69.0844
10
55.5041
20
-69.2861
10
55.3997
20
-69.4670
10
55.2520
20
-69.6147
10
55.0711
20
-69.7191
10
54.8694
20
-69.7732
10
54.6606
20
-69.7732
10
54.4589
20
-69.7191
10
54.2780
20
-69.6147
10
54.1303
20
-69.4670
10
54.0259
20
-69.2861
10
53.9718
20
-69.0844
10
53.9650
20
-68.9800
10
53.9650
20
-68.1800
0
LWPOLYLINE
8
MASK
90
28
70
1
10
56.5118
20
-68.0756
10
56.5659
20
-67.8739
10
56.6703
20
-67.6930
10
56.8180
20
-67.5453
10
56.9989
20
-67.4409
10
57.2006
20
-67.3868
10
57.4094
20
-67.3868
10
57.6111
20
-67.4409
10
57.7920
20
-67.5453
10
57.9397
20
-67.6930
10
58.0441
20
-67.8739
10
58.0982
20
-68.0756
10
58.1050
20
-68.1800
10
58.1050
20
-68.9800
10
58.0982
20
-69.0844
10
58.0441
20
-69.2861
10
57.9397
20
-69.4670
10
57.7920
20
-69.6147
10
57.6111
20
-69.7191
10
57.4094
20
-69.7732
10
57.2006
20
-69.7732
10
56.9989
20
-69.7191
10
56.8180
20
-69.6147
10
56.6703
20
-69.4670
10
56.5659
20
-69.2861
10
56.5118
20
-69.0844
10
56.5050
20
-68.9800
10
56.5050
20
-68.1800
0
LWPOLYLINE
8
MASK
90
28
70
1
10
59.0518
20
-68.0756
10
59.1059
20
-67.8739
10
59.2103
20
-67.6930
10
59.3580
20
-67.5453
10
59.5389
20
-67.4409
10
59.7406
20
-67.3868
10
59.9494
20
-67.3868
10
60.1511
20
-67.4409
10
60.3320
20
-67.5453
10
60.4797
20
-67.6930
10
60.5841
20
-67.8739
10
60.6382
20
-68.0756
10
60.6450
20
-68.1800
10
60.6450
20
-68.9800
10
60.6382
20
-69.0844
10
60.5841
20
-69.2861
10
60.4797
20
-69.4670
10
60.3320
20
-69.6147
10
60.1511
20
-69.7191
10
59.9494
20
-69.7732
10
59.7406
20
-69.7732
10
59.5389
20
-69.7191
10
59.3580
20
-69.6147
10
59.2103
20
-69.4670
10
59.1059
20
-69.2861
10
59.0518
20
-69.0844
10
59.0450
20
-68.9800
10
59.0450
20
-68.1800
0
LWPOLYLINE
8
MASK
90
28
70
1
10
59.0518
20
-60.4556
10
59.1059
20
-60.2539
10
59.2103
20
-60.0730
10
59.3580
20
-59.9253
10
59.5389
20
-59.8209
10
59.7406
20
-59.7668
10
59.9494
20
-59.7668
10
60.1511
20
-59.8209
10
60.3320
20
-59.9253
10
60.4797
20
-60.0730
10
60.5841
20
-60.2539
10
60.6382
20
-60.4556
10
60.6450
20
-60.5600
10
60.6450
20
-61.3600
10
60.6382
20
-61.4644
10
60.5841
20
-61.6661
10
60.4797
20
-61.8470
10
60.3320
20
-61.9947
10
60.1511
20
-62.0991
10
59.9494
20
-62.1532
10
59.7406
20
-62.1532
10
59.5389
20
-62.0991
10
59.3580
20
-61.9947
10
59.2103
20
-61.8470
10
59.1059
20
-61.6661
10
59.0518
20
-61.4644
10
59.0450
20
-61.3600
10
59.0450
20
-60.5600
0
LWPOLYLINE
8
MASK
90
28
70
1
10
56.5118
20
-60.4556
10
56.5659
20
-60.2539
10
56.6703
20
-60.0730
10
56.8180
20
-59.9253
10
56.9989
20
-59.8209
10
57.2006
20
-59.7668
10
57.4094
20
-59.7668
10
57.6111
20
-59.8209
10
57.7920
20
-59.9253
10
57.9397
20
-60.0730
10
58.0441
20
-60.2539
10
58.0982
20
-60.4556
10
58.1050
20
-60.5600
10
58.1050
20
-61.3600
10
58.0982
20
-61.4644
10
58.0441
20
-61.6661
10
57.9397
20
-61.8470
10
57.7920
20
-61.9947
10
57.6111
20
-62.0991
10
57.4094
20
-62.1532
10
57.2006
20
-62.1532
10
56.9989
20
-62.0991
10
56.8180
20
-61.9947
10
56.6703
20
-61.8470
10
56.5659
20
-61.6661
10
56.5118
20
-61.4644
10
56.5050
20
-61.3600
10
56.5050
20
-60.5600
0
LWPOLYLINE
8
MASK
90
28
70
1
10
53.9718
20
-60.4556
10
54.0259
20
-60.2539
10
54.1303
20
-60.0730
10
54.2780
20
-59.9253
10
54.4589
20
-59.8209
10
54.6606
20
-59.7668
10
54.8694
20
-59.7668
10
55.0711
20
-59.8209
10
55.2520
20
-59.9253
10
55.3997
20
-60.0730
10
55.5041
20
-60.2539
10
55.5582
20
-60.4556
10
55.5650
20
-60.5600
10
55.5650
20
-61.3600
10
55.5582
20
-61.4644
10
55.5041
20
-61.6661
10
55.3997
20
-61.8470
10
55.2520
20
-61.9947
10
55.0711
20
-62.0991
10
54.8694
20
-62.1532
10
54.6606
20
-62.1532
10
54.4589
20
-62.0991
10
54.2780
20
-61.9947
10
54.1303
20
-61.8470
10
54.0259
20
-61.6661
10
53.9718
20
-61.4644
10
53.9650
20
-61.3600
10
53.9650
20
-60.5600
0
LWPOLYLINE
8
MASK
90
28
70
1
10
51.4318
20
-60.4556
10
51.4859
20
-60.2539
10
51.5903
20
-60.0730
10
51.7380
20
-59.9253
10
51.9189
20
-59.8209
10
52.1206
20
-59.7668
10
52.3294
20
-59.7668
10
52.5311
20
-59.8209
10
52.7120
20
-59.9253
10
52.8597
20
-60.0730
10
52.9641
20
-60.2539
10
53.0182
20
-60.4556
10
53.0250
20
-60.5600
10
53.0250
20
-61.3600
10
53.0182
20
-61.4644
10
52.9641
20
-61.6661
10
52.8597
20
-61.8470
10
52.7120
20
-61.9947
10
52.5311
20
-62.0991
10
52.3294
20
-62.1532
10
52.1206
20
-62.1532
10
51.9189
20
-62.0991
10
51.7380
20
-61.9947
10
51.5903
20
-61.8470
10
51.4859
20
-61.6661
10
51.4318
20
-61.4644
10
51.4250
20
-61.3600
10
51.4250
20
-60.5600
0
LWPOLYLINE
8
MASK
90
28
70
1
10
48.8918
20
-60.4556
10
48.9459
20
-60.2539
10
49.0503
20
-60.0730
10
49.1980
20
-59.9253
10
49.3789
20
-59.8209
10
49.5806
20
-59.7668
10
49.7894
20
-59.7668
10
49.9911
20
-59.8209
10
50.1720
20
-59.9253
10
50.3197
20
-60.0730
10
50.4241
20
-60.2539
10
50.4782
20
-60.4556
10
50.4850
20
-60.5600
10
50.4850
20
-61.3600
10
50.4782
20
-61.4644
10
50.4241
20
-61.6661
10
50.3197
20
-61.8470
10
50.1720
20
-61.9947
10
49.9911
20
-62.0991
10
49.7894
20
-62.1532
10
49.5806
20
-62.1532
10
49.3789
20
-62.0991
10
49.1980
20
-61.9947
10
49.0503
20
-61.8470
10
48.9459
20
-61.6661
10
48.8918
20
-61.4644
10
48.8850
20
-61.3600
10
48.8850
20
-60.5600
0
LWPOLYLINE
8
MASK
90
28
70
1
10
46.3518
20
-60.4556
10
46.4059
20
-60.2539
10
46.5103
20
-60.0730
10
46.6580
20
-59.9253
10
46.8389
20
-59.8209
10
47.0406
20
-59.7668
10
47.2494
20
-59.7668
10
47.4511
20
-59.8209
10
47.6320
20
-59.9253
10
47.7797
20
-60.0730
10
47.8841
20
-60.2539
10
47.9382
20
-60.4556
10
47.9450
20
-60.5600
10
47.9450
20
-61.3600
10
47.9382
20
-61.4644
10
47.8841
20
-61.6661
10
47.7797
20
-61.8470
10
47.6320
20
-61.9947
10
47.4511
20
-62.0991
10
47.2494
20
-62.1532
10
47.0406
20
-62.1532
10
46.8389
20
-62.0991
10
46.6580
20
-61.9947
10
46.5103
20
-61.8470
10
46.4059
20
-61.6661
10
46.3518
20
-61.4644
10
46.3450
20
-61.3600
10
46.3450
20
-60.5600
0
LWPOLYLINE
8
MASK
90
28
70
1
10
43.8118
20
-60.4556
10
43.8659
20
-60.2539
10
43.9703
20
-60.0730
10
44.1180
20
-59.9253
10
44.2989
20
-59.8209
10
44.5006
20
-59.7668
10
44.7094
20
-59.7668
10
44.9111
20
-59.8209
10
45.0920
20
-59.9253
10
45.2397
20
-60.0730
10
45.3441
20
-60.2539
10
45.3982
20
-60.4556
10
45.4050
20
-60.5600
10
45.4050
20
-61.3600
10
45.3982
20
-61.4644
10
45.3441
20
-61.6661
10
45.2397
20
-61.8470
10
45.0920
20
-61.9947
10
44.9111
20
-62.0991
10
44.7094
20
-62.1532
10
44.5006
20
-62.1532
10
44.2989
20
-62.0991
10
44.1180
20
-61.9947
10
43.9703
20
-61.8470
10
43.8659
20
-61.6661
10
43.8118
20
-61.4644
10
43.8050
20
-61.3600
10
43.8050
20
-60.5600
0
LWPOLYLINE
8
MASK
90
4
70
1
10
105.5025
20
-55.0300
10
107.2025
20
-55.0300
10
107.2025
20
-56.7300
10
105.5025
20
-56.7300
0
CIRCLE
8
MASK
10
106.3525
20
-58.4200
40
0.8500
0
CIRCLE
8
MASK
10
106.3525
20
-60.9600
40
0.8500
0
CIRCLE
8
MASK
10
106.3525
20
-63.5000
40
0.8500
0
CIRCLE
8
MASK
10
106.3525
20
-66.0400
40
0.8500
0
CIRCLE
8
MASK
10
106.3525
20
-68.5800
40
0.8500
0
CIRCLE
8
MASK
10
106.3525
20
-71.1200
40
0.8500
0
CIRCLE
8
MASK
10
106.3525
20
-73.6600
40
0.8500
0
LWPOLYLINE
8
MASK
90
20
70
1
10
57.7325
20
-91.3700
10
57.6368
20
-91.3510
10
57.5557
20
-91.2968
10
57.5015
20
-91.2157
10
57.4825
20
-91.1200
10
57.4825
20
-89.2200
10
57.5015
20
-89.1243
10
57.5557
20
-89.0432
10
57.6368
20
-88.9890
10
57.7325
20
-88.9700
10
58.8325
20
-88.9700
10
58.9282
20
-88.9890
10
59.0093
20
-89.0432
10
59.0635
20
-89.1243
10
59.0825
20
-89.2200
10
59.0825
20
-91.1200
10
59.0635
20
-91.2157
10
59.0093
20
-91.2968
10
58.9282
20
-91.3510
10
58.8325
20
-91.3700
0
LWPOLYLINE
8
MASK
90
28
70
1
10
60.0293
20
-89.6656
10
60.0834
20
-89.4639
10
60.1878
20
-89.2830
10
60.3355
20
-89.1353
10
60.5164
20
-89.0309
10
60.7181
20
-88.9768
10
60.9269
20
-88.9768
10
61.1286
20
-89.0309
10
61.3095
20
-89.1353
10
61.4572
20
-89.2830
10
61.5616
20
-89.4639
10
61.6157
20
-89.6656
10
61.6225
20
-89.7700
10
61.6225
20
-90.5700
10
61.6157
20
-90.6744
10
61.5616
20
-90.8761
10
61.4572
20
-91.0570
10
61.3095
20
-91.2047
10
61.1286
20
-91.3091
10
60.9269
20
-91.3632
10
60.7181
20
-91.3632
10
60.5164
20
-91.3091
10
60.3355
20
-91.2047
10
60.1878
20
-91.0570
10
60.0834
20
-90.8761
10
60.0293
20
-90.6744
10
60.0225
20
-90.5700
10
60.0225
20
-89.7700
0
LWPOLYLINE
8
MASK
90
28
70
1
10
62.5693
20
-89.6656
10
62.6234
20
-89.4639
10
62.7278
20
-89.2830
10
62.8755
20
-89.1353
10
63.0564
20
-89.0309
10
63.2581
20
-88.9768
10
63.4669
20
-88.9768
10
63.6686
20
-89.0309
10
63.8495
20
-89.1353
10
63.9972
20
-89.2830
10
64.1016
20
-89.4639
10
64.1557
20
-89.6656
10
64.1625
20
-89.7700
10
64.1625
20
-90.5700
10
64.1557
20
-90.6744
10
64.1016
20
-90.8761
10
63.9972
20
-91.0570
10
63.8495
20
-91.2047
10
63.6686
20
-91.3091
10
63.4669
20
-91.3632
10
63.2581
20
-91.3632
10
63.0564
20
-91.3091
10
62.8755
20
-91.2047
10
62.7278
20
-91.0570
10
62.6234
20
-90.8761
10
62.5693
20
-90.6744
10
62.5625
20
-90.5700
10
62.5625
20
-89.7700
0
LWPOLYLINE
8
MASK
90
28
70
1
10
65.1093
20
-89.6656
10
65.1634
20
-89.4639
10
65.2678
20
-89.2830
10
65.4155
20
-89.1353
10
65.5964
20
-89.0309
10
65.7981
20
-88.9768
10
66.0069
20
-88.9768
10
66.2086
20
-89.0309
10
66.3895
20
-89.1353
10
66.5372
20
-89.2830
10
66.6416
20
-89.4639
10
66.6957
20
-89.6656
10
66.7025
20
-89.7700
10
66.7025
20
-90.5700
10
66.6957
20
-90.6744
10
66.6416
20
-90.8761
10
66.5372
20
-91.0570
10
66.3895
20
-91.2047
10
66.2086
20
-91.3091
10
66.0069
20
-91.3632
10
65.7981
20
-91.3632
10
65.5964
20
-91.3091
10
65.4155
20
-91.2047
10
65.2678
20
-91.0570
10
65.1634
20
-90.8761
10
65.1093
20
-90.6744
10
65.1025
20
-90.5700
10
65.1025
20
-89.7700
0
LWPOLYLINE
8
MASK
90
28
70
1
10
67.6493
20
-89.6656
10
67.7034
20
-89.4639
10
67.8078
20
-89.2830
10
67.9555
20
-89.1353
10
68.1364
20
-89.0309
10
68.3381
20
-88.9768
10
68.5469
20
-88.9768
10
68.7486
20
-89.0309
10
68.9295
20
-89.1353
10
69.0772
20
-89.2830
10
69.1816
20
-89.4639
10
69.2357
20
-89.6656
10
69.2425
20
-89.7700
10
69.2425
20
-90.5700
10
69.2357
20
-90.6744
10
69.1816
20
-90.8761
10
69.0772
20
-91.0570
10
68.9295
20
-91.2047
10
68.7486
20
-91.3091
10
68.5469
20
-91.3632
10
68.3381
20
-91.3632
10
68.1364
20
-91.3091
10
67.9555
20
-91.2047
10
67.8078
20
-91.0570
10
67.7034
20
-90.8761
10
67.6493
20
-90.6744
10
67.6425
20
-90.5700
10
67.6425
20
-89.7700
0
LWPOLYLINE
8
MASK
90
28
70
1
10
70.1893
20
-89.6656
10
70.2434
20
-89.4639
10
70.3478
20
-89.2830
10
70.4955
20
-89.1353
10
70.6764
20
-89.0309
10
70.8781
20
-88.9768
10
71.0869
20
-88.9768
10
71.2886
20
-89.0309
10
71.4695
20
-89.1353
10
71.6172
20
-89.2830
10
71.7216
20
-89.4639
10
71.7757
20
-89.6656
10
71.7825
20
-89.7700
10
71.7825
20
-90.5700
10
71.7757
20
-90.6744
10
71.7216
20
-90.8761
10
71.6172
20
-91.0570
10
71.4695
20
-91.2047
10
71.2886
20
-91.3091
10
71.0869
20
-91.3632
10
70.8781
20
-91.3632
10
70.6764
20
-91.3091
10
70.4955
20
-91.2047
10
70.3478
20
-91.0570
10
70.2434
20
-90.8761
10
70.1893
20
-90.6744
10
70.1825
20
-90.5700
10
70.1825
20
-89.7700
0
LWPOLYLINE
8
MASK
90
28
70
1
10
72.7293
20
-89.6656
10
72.7834
20
-89.4639
10
72.8878
20
-89.2830
10
73.0355
20
-89.1353
10
73.2164
20
-89.0309
10
73.4181
20
-88.9768
10
73.6269
20
-88.9768
10
73.8286
20
-89.0309
10
74.0095
20
-89.1353
10
74.1572
20
-89.2830
10
74.2616
20
-89.4639
10
74.3157
20
-89.6656
10
74.3225
20
-89.7700
10
74.3225
20
-90.5700
10
74.3157
20
-90.6744
10
74.2616
20
-90.8761
10
74.1572
20
-91.0570
10
74.0095
20
-91.2047
10
73.8286
20
-91.3091
10
73.6269
20
-91.3632
10
73.4181
20
-91.3632
10
73.2164
20
-91.3091
10
73.0355
20
-91.2047
10
72.8878
20
-91.0570
10
72.7834
20
-90.8761
10
72.7293
20
-90.6744
10
72.7225
20
-90.5700
10
72.7225
20
-89.7700
0
LWPOLYLINE
8
MASK
90
28
70
1
10
72.7293
20
-82.0456
10
72.7834
20
-81.8439
10
72.8878
20
-81.6630
10
73.0355
20
-81.5153
10
73.2164
20
-81.4109
10
73.4181
20
-81.3568
10
73.6269
20
-81.3568
10
73.8286
20
-81.4109
10
74.0095
20
-81.5153
10
74.1572
20
-81.6630
10
74.2616
20
-81.8439
10
74.3157
20
-82.0456
10
74.3225
20
-82.1500
10
74.3225
20
-82.9500
10
74.3157
20
-83.0544
10
74.2616
20
-83.2561
10
74.1572
20
-83.4370
10
74.0095
20
-83.5847
10
73.8286
20
-83.6891
10
73.6269
20
-83.7432
10
73.4181
20
-83.7432
10
73.2164
20
-83.6891
10
73.0355
20
-83.5847
10
72.8878
20
-83.4370
10
72.7834
20
-83.2561
10
72.7293
20
-83.0544
10
72.7225
20
-82.9500
10
72.7225
20
-82.1500
0
LWPOLYLINE
8
MASK
90
28
70
1
10
70.1893
20
-82.0456
10
70.2434
20
-81.8439
10
70.3478
20
-81.6630
10
70.4955
20
-81.5153
10
70.6764
20
-81.4109
10
70.8781
20
-81.3568
10
71.0869
20
-81.3568
10
71.2886
20
-81.4109
10
71.4695
20
-81.5153
10
71.6172
20
-81.6630
10
71.7216
20
-81.8439
10
71.7757
20
-82.0456
10
71.7825
20
-82.1500
10
71.7825
20
-82.9500
10
71.7757
20
-83.0544
10
71.7216
20
-83.2561
10
71.6172
20
-83.4370
10
71.4695
20
-83.5847
10
71.2886
20
-83.6891
10
71.0869
20
-83.7432
10
70.8781
20
-83.7432
10
70.6764
20
-83.6891
10
70.4955
20
-83.5847
10
70.3478
20
-83.4370
10
70.2434
20
-83.2561
10
70.1893
20
-83.0544
10
70.1825
20
-82.9500
10
70.1825
20
-82.1500
0
LWPOLYLINE
8
MASK
90
28
70
1
10
67.6493
20
-82.0456
10
67.7034
20
-81.8439
10
67.8078
20
-81.6630
10
67.9555
20
-81.5153
10
68.1364
20
-81.4109
10
68.3381
20
-81.3568
10
68.5469
20
-81.3568
10
68.7486
20
-81.4109
10
68.9295
20
-81.5153
10
69.0772
20
-81.6630
10
69.1816
20
-81.8439
10
69.2357
20
-82.0456
10
69.2425
20
-82.1500
10
69.2425
20
-82.9500
10
69.2357
20
-83.0544
10
69.1816
20
-83.2561
10
69.0772
20
-83.4370
10
68.9295
20
-83.5847
10
68.7486
20
-83.6891
10
68.5469
20
-83.7432
10
68.3381
20
-83.7432
10
68.1364
20
-83.6891
10
67.9555
20
-83.5847
10
67.8078
20
-83.4370
10
67.7034
20
-83.2561
10
67.6493
20
-83.0544
10
67.6425
20
-82.9500
10
67.6425
20
-82.1500
0
LWPOLYLINE
8
MASK
90
28
70
1
10
65.1093
20
-82.0456
10
65.1634
20
-81.8439
10
65.2678
20
-81.6630
10
65.4155
20
-81.5153
10
65.5964
20
-81.4109
10
65.7981
20
-81.3568
10
66.0069
20
-81.3568
10
66.2086
20
-81.4109
10
66.3895
20
-81.5153
10
66.5372
20
-81.6630
10
66.6416
20
-81.8439
10
66.6957
20
-82.0456
10
66.7025
20
-82.1500
10
66.7025
20
-82.9500
10
66.6957
20
-83.0544
10
66.6416
20
-83.2561
10
66.5372
20
-83.4370
10
66.3895
20
-83.5847
10
66.2086
20
-83.6891
10
66.0069
20
-83.7432
10
65.7981
20
-83.7432
10
65.5964
20
-83.6891
10
65.4155
20
-83.5847
10
65.2678
20
-83.4370
10
65.1634
20
-83.2561
10
65.1093
20
-83.0544
10
65.1025
20
-82.9500
10
65.1025
20
-82.1500
0
LWPOLYLINE
8
MASK
90
28
70
1
10
62.5693
20
-82.0456
10
62.6234
20
-81.8439
10
62.7278
20
-81.6630
10
62.8755
20
-81.5153
10
63.0564
20
-81.4109
10
63.2581
20
-81.3568
10
63.4669
20
-81.3568
10
63.6686
20
-81.4109
10
63.8495
20
-81.5153
10
63.9972
20
-81.6630
10
64.1016
20
-81.8439
10
64.1557
20
-82.0456
10
64.1625
20
-82.1500
10
64.1625
20
-82.9500
10
64.1557
20
-83.0544
10
64.1016
20
-83.2561
10
63.9972
20
-83.4370
10
63.8495
20
-83.5847
10
63.6686
20
-83.6891
10
63.4669
20
-83.7432
10
63.2581
20
-83.7432
10
63.0564
20
-83.6891
10
62.8755
20
-83.5847
10
62.7278
20
-83.4370
10
62.6234
20
-83.2561
10
62.5693
20
-83.0544
10
62.5625
20
-82.9500
10
62.5625
20
-82.1500
0
LWPOLYLINE
8
MASK
90
28
70
1
10
60.0293
20
-82.0456
10
60.0834
20
-81.8439
10
60.1878
20
-81.6630
10
60.3355
20
-81.5153
10
60.5164
20
-81.4109
10
60.7181
20
-81.3568
10
60.9269
20
-81.3568
10
61.1286
20
-81.4109
10
61.3095
20
-81.5153
10
61.4572
20
-81.6630
10
61.5616
20
-81.8439
10
61.6157
20
-82.0456
10
61.6225
20
-82.1500
10
61.6225
20
-82.9500
10
61.6157
20
-83.0544
10
61.5616
20
-83.2561
10
61.4572
20
-83.4370
10
61.3095
20
-83.5847
10
61.1286
20
-83.6891
10
60.9269
20
-83.7432
10
60.7181
20
-83.7432
10
60.5164
20
-83.6891
10
60.3355
20
-83.5847
10
60.1878
20
-83.4370
10
60.0834
20
-83.2561
10
60.0293
20
-83.0544
10
60.0225
20
-82.9500
10
60.0225
20
-82.1500
0
LWPOLYLINE
8
MASK
90
28
70
1
10
57.4893
20
-82.0456
10
57.5434
20
-81.8439
10
57.6478
20
-81.6630
10
57.7955
20
-81.5153
10
57.9764
20
-81.4109
10
58.1781
20
-81.3568
10
58.3869
20
-81.3568
10
58.5886
20
-81.4109
10
58.7695
20
-81.5153
10
58.9172
20
-81.6630
10
59.0216
20
-81.8439
10
59.0757
20
-82.0456
10
59.0825
20
-82.1500
10
59.0825
20
-82.9500
10
59.0757
20
-83.0544
10
59.0216
20
-83.2561
10
58.9172
20
-83.4370
10
58.7695
20
-83.5847
10
58.5886
20
-83.6891
10
58.3869
20
-83.7432
10
58.1781
20
-83.7432
10
57.9764
20
-83.6891
10
57.7955
20
-83.5847
10
57.6478
20
-83.4370
10
57.5434
20
-83.2561
10
57.4893
20
-83.0544
10
57.4825
20
-82.9500
10
57.4825
20
-82.1500
0
CIRCLE
8
MASK
10
79.5000
20
-49.0000
40
0.9000
0
CIRCLE
8
MASK
10
78.7525
20
-64.7700
40
0.8000
0
CIRCLE
8
MASK
10
83.7525
20
-64.7700
40
0.8000
0
CIRCLE
8
MASK
10
69.5000
20
-53.0000
40
0.9000
0
CIRCLE
8
MASK
10
71.5000
20
-36.5000
40
0.9000
0
CIRCLE
8
MASK
10
60.0000
20
-43.0000
40
0.9000
0
CIRCLE
8
MASK
10
111.0000
20
-68.5000
40
0.9000
0
CIRCLE
8
MASK
10
26.0000
20
-114.0000
40
1.6000
0
CIRCLE
8
MASK
10
26.0000
20
-26.0000
40
1.6000
0
CIRCLE
8
MASK
10
66.2600
20
-100.3300
40
0.8000
0
CIRCLE
8
MASK
10
71.2600
20
-100.3300
40
0.8000
0
CIRCLE
8
MASK
10
42.0000
20
-35.5000
40
0.9000
0
CIRCLE
8
MASK
10
84.0000
20
-75.0000
40
0.9000
0
LWPOLYLINE
8
MASK
90
20
70
1
10
83.5600
20
-31.2000
10
83.5790
20
-31.1043
10
83.6332
20
-31.0232
10
83.7143
20
-30.9690
10
83.8100
20
-30.9500
10
85.7100
20
-30.9500
10
85.8057
20
-30.9690
10
85.8868
20
-31.0232
10
85.9410
20
-31.1043
10
85.9600
20
-31.2000
10
85.9600
20
-32.3000
10
85.9410
20
-32.3957
10
85.8868
20
-32.4768
10
85.8057
20
-32.5310
10
85.7100
20
-32.5500
10
83.8100
20
-32.5500
10
83.7143
20
-32.5310
10
83.6332
20
-32.4768
10
83.5790
20
-32.3957
10
83.5600
20
-32.3000
0
LWPOLYLINE
8
MASK
90
28
70
1
10
85.2644
20
-33.4968
10
85.4661
20
-33.5509
10
85.6470
20
-33.6553
10
85.7947
20
-33.8030
10
85.8991
20
-33.9839
10
85.9532
20
-34.1856
10
85.9532
20
-34.3944
10
85.8991
20
-34.5961
10
85.7947
20
-34.7770
10
85.6470
20
-34.9247
10
85.4661
20
-35.0291
10
85.2644
20
-35.0832
10
85.1600
20
-35.0900
10
84.3600
20
-35.0900
10
84.2556
20
-35.0832
10
84.0539
20
-35.0291
10
83.8730
20
-34.9247
10
83.7253
20
-34.7770
10
83.6209
20
-34.5961
10
83.5668
20
-34.3944
10
83.5668
20
-34.1856
10
83.6209
20
-33.9839
10
83.7253
20
-33.8030
10
83.8730
20
-33.6553
10
84.0539
20
-33.5509
10
84.2556
20
-33.4968
10
84.3600
20
-33.4900
10
85.1600
20
-33.4900
0
LWPOLYLINE
8
MASK
90
28
70
1
10
85.2644
20
-36.0368
10
85.4661
20
-36.0909
10
85.6470
20
-36.1953
10
85.7947
20
-36.3430
10
85.8991
20
-36.5239
10
85.9532
20
-36.7256
10
85.9532
20
-36.9344
10
85.8991
20
-37.1361
10
85.7947
20
-37.3170
10
85.6470
20
-37.4647
10
85.4661
20
-37.5691
10
85.2644
20
-37.6232
10
85.1600
20
-37.6300
10
84.3600
20
-37.6300
10
84.2556
20
-37.6232
10
84.0539
20
-37.5691
10
83.8730
20
-37.4647
10
83.7253
20
-37.3170
10
83.6209
20
-37.1361
10
83.5668
20
-36.9344
10
83.5668
20
-36.7256
10
83.6209
20
-36.5239
10
83.7253
20
-36.3430
10
83.8730
20
-36.1953
10
84.0539
20
-36.0909
10
84.2556
20
-36.0368
10
84.3600
20
-36.0300
10
85.1600
20
-36.0300
0
LWPOLYLINE
8
MASK
90
28
70
1
10
85.2644
20
-38.5768
10
85.4661
20
-38.6309
10
85.6470
20
-38.7353
10
85.7947
20
-38.8830
10
85.8991
20
-39.0639
10
85.9532
20
-39.2656
10
85.9532
20
-39.4744
10
85.8991
20
-39.6761
10
85.7947
20
-39.8570
10
85.6470
20
-40.0047
10
85.4661
20
-40.1091
10
85.2644
20
-40.1632
10
85.1600
20
-40.1700
10
84.3600
20
-40.1700
10
84.2556
20
-40.1632
10
84.0539
20
-40.1091
10
83.8730
20
-40.0047
10
83.7253
20
-39.8570
10
83.6209
20
-39.6761
10
83.5668
20
-39.4744
10
83.5668
20
-39.2656
10
83.6209
20
-39.0639
10
83.7253
20
-38.8830
10
83.8730
20
-38.7353
10
84.0539
20
-38.6309
10
84.2556
20
-38.5768
10
84.3600
20
-38.5700
10
85.1600
20
-38.5700
0
LWPOLYLINE
8
MASK
90
28
70
1
10
85.2644
20
-41.1168
10
85.4661
20
-41.1709
10
85.6470
20
-41.2753
10
85.7947
20
-41.4230
10
85.8991
20
-41.6039
10
85.9532
20
-41.8056
10
85.9532
20
-42.0144
10
85.8991
20
-42.2161
10
85.7947
20
-42.3970
10
85.6470
20
-42.5447
10
85.4661
20
-42.6491
10
85.2644
20
-42.7032
10
85.1600
20
-42.7100
10
84.3600
20
-42.7100
10
84.2556
20
-42.7032
10
84.0539
20
-42.6491
10
83.8730
20
-42.5447
10
83.7253
20
-42.3970
10
83.6209
20
-42.2161
10
83.5668
20
-42.0144
10
83.5668
20
-41.8056
10
83.6209
20
-41.6039
10
83.7253
20
-41.4230
10
83.8730
20
-41.2753
10
84.0539
20
-41.1709
10
84.2556
20
-41.1168
10
84.3600
20
-41.1100
10
85.1600
20
-41.1100
0
LWPOLYLINE
8
MASK
90
28
70
1
10
85.2644
20
-43.6568
10
85.4661
20
-43.7109
10
85.6470
20
-43.8153
10
85.7947
20
-43.9630
10
85.8991
20
-44.1439
10
85.9532
20
-44.3456
10
85.9532
20
-44.5544
10
85.8991
20
-44.7561
10
85.7947
20
-44.9370
10
85.6470
20
-45.0847
10
85.4661
20
-45.1891
10
85.2644
20
-45.2432
10
85.1600
20
-45.2500
10
84.3600
20
-45.2500
10
84.2556
20
-45.2432
10
84.0539
20
-45.1891
10
83.8730
20
-45.0847
10
83.7253
20
-44.9370
10
83.6209
20
-44.7561
10
83.5668
20
-44.5544
10
83.5668
20
-44.3456
10
83.6209
20
-44.1439
10
83.7253
20
-43.9630
10
83.8730
20
-43.8153
10
84.0539
20
-43.7109
10
84.2556
20
-43.6568
10
84.3600
20
-43.6500
10
85.1600
20
-43.6500
0
LWPOLYLINE
8
MASK
90
28
70
1
10
85.2644
20
-46.1968
10
85.4661
20
-46.2509
10
85.6470
20
-46.3553
10
85.7947
20
-46.5030
10
85.8991
20
-46.6839
10
85.9532
20
-46.8856
10
85.9532
20
-47.0944
10
85.8991
20
-47.2961
10
85.7947
20
-47.4770
10
85.6470
20
-47.6247
10
85.4661
20
-47.7291
10
85.2644
20
-47.7832
10
85.1600
20
-47.7900
10
84.3600
20
-47.7900
10
84.2556
20
-47.7832
10
84.0539
20
-47.7291
10
83.8730
20
-47.6247
10
83.7253
20
-47.4770
10
83.6209
20
-47.2961
10
83.5668
20
-47.0944
10
83.5668
20
-46.8856
10
83.6209
20
-46.6839
10
83.7253
20
-46.5030
10
83.8730
20
-46.3553
10
84.0539
20
-46.2509
10
84.2556
20
-46.1968
10
84.3600
20
-46.1900
10
85.1600
20
-46.1900
0
LWPOLYLINE
8
MASK
90
28
70
1
10
85.2644
20
-48.7368
10
85.4661
20
-48.7909
10
85.6470
20
-48.8953
10
85.7947
20
-49.0430
10
85.8991
20
-49.2239
10
85.9532
20
-49.4256
10
85.9532
20
-49.6344
10
85.8991
20
-49.8361
10
85.7947
20
-50.0170
10
85.6470
20
-50.1647
10
85.4661
20
-50.2691
10
85.2644
20
-50.3232
10
85.1600
20
-50.3300
10
84.3600
20
-50.3300
10
84.2556
20
-50.3232
10
84.0539
20
-50.2691
10
83.8730
20
-50.1647
10
83.7253
20
-50.0170
10
83.6209
20
-49.8361
10
83.5668
20
-49.6344
10
83.5668
20
-49.4256
10
83.6209
20
-49.2239
10
83.7253
20
-49.0430
10
83.8730
20
-48.8953
10
84.0539
20
-48.7909
10
84.2556
20
-48.7368
10
84.3600
20
-48.7300
10
85.1600
20
-48.7300
0
LWPOLYLINE
8
MASK
90
28
70
1
10
92.8844
20
-48.7368
10
93.0861
20
-48.7909
10
93.2670
20
-48.8953
10
93.4147
20
-49.0430
10
93.5191
20
-49.2239
10
93.5732
20
-49.4256
10
93.5732
20
-49.6344
10
93.5191
20
-49.8361
10
93.4147
20
-50.0170
10
93.2670
20
-50.1647
10
93.0861
20
-50.2691
10
92.8844
20
-50.3232
10
92.7800
20
-50.3300
10
91.9800
20
-50.3300
10
91.8756
20
-50.3232
10
91.6739
20
-50.2691
10
91.4930
20
-50.1647
10
91.3453
20
-50.0170
10
91.2409
20
-49.8361
10
91.1868
20
-49.6344
10
91.1868
20
-49.4256
10
91.2409
20
-49.2239
10
91.3453
20
-49.0430
10
91.4930
20
-48.8953
10
91.6739
20
-48.7909
10
91.8756
20
-48.7368
10
91.9800
20
-48.7300
10
92.7800
20
-48.7300
0
LWPOLYLINE
8
MASK
90
28
70
1
10
92.8844
20
-46.1968
10
93.0861
20
-46.2509
10
93.2670
20
-46.3553
10
93.4147
20
-46.5030
10
93.5191
20
-46.6839
10
93.5732
20
-46.8856
10
93.5732
20
-47.0944
10
93.5191
20
-47.2961
10
93.4147
20
-47.4770
10
93.2670
20
-47.6247
10
93.0861
20
-47.7291
10
92.8844
20
-47.7832
10
92.7800
20
-47.7900
10
91.9800
20
-47.7900
10
91.8756
20
-47.7832
10
91.6739
20
-47.7291
10
91.4930
20
-47.6247
10
91.3453
20
-47.4770
10
91.2409
20
-47.2961
10
91.1868
20
-47.0944
10
91.1868
20
-46.8856
10
91.2409
20
-46.6839
10
91.3453
20
-46.5030
10
91.4930
20
-46.3553
10
91.6739
20
-46.2509
10
91.8756
20
-46.1968
10
91.9800
20
-46.1900
10
92.7800
20
-46.1900
0
LWPOLYLINE
8
MASK
90
28
70
1
10
92.8844
20
-43.6568
10
93.0861
20
-43.7109
10
93.2670
20
-43.8153
10
93.4147
20
-43.9630
10
93.5191
20
-44.1439
10
93.5732
20
-44.3456
10
93.5732
20
-44.5544
10
93.5191
20
-44.7561
10
93.4147
20
-44.9370
10
93.2670
20
-45.0847
10
93.0861
20
-45.1891
10
92.8844
20
-45.2432
10
92.7800
20
-45.2500
10
91.9800
20
-45.2500
10
91.8756
20
-45.2432
10
91.6739
20
-45.1891
10
91.4930
20
-45.0847
10
91.3453
20
-44.9370
10
91.2409
20
-44.7561
10
91.1868
20
-44.5544
10
91.1868
20
-44.3456
10
91.2409
20
-44.1439
10
91.3453
20
-43.9630
10
91.4930
20
-43.8153
10
91.6739
20
-43.7109
10
91.8756
20
-43.6568
10
91.9800
20
-43.6500
10
92.7800
20
-43.6500
0
LWPOLYLINE
8
MASK
90
28
70
1
10
92.8844
20
-41.1168
10
93.0861
20
-41.1709
10
93.2670
20
-41.2753
10
93.4147
20
-41.4230
10
93.5191
20
-41.6039
10
93.5732
20
-41.8056
10
93.5732
20
-42.0144
10
93.5191
20
-42.2161
10
93.4147
20
-42.3970
10
93.2670
20
-42.5447
10
93.0861
20
-42.6491
10
92.8844
20
-42.7032
10
92.7800
20
-42.7100
10
91.9800
20
-42.7100
10
91.8756
20
-42.7032
10
91.6739
20
-42.6491
10
91.4930
20
-42.5447
10
91.3453
20
-42.3970
10
91.2409
20
-42.2161
10
91.1868
20
-42.0144
10
91.1868
20
-41.8056
10
91.2409
20
-41.6039
10
91.3453
20
-41.4230
10
91.4930
20
-41.2753
10
91.6739
20
-41.1709
10
91.8756
20
-41.1168
10
91.9800
20
-41.1100
10
92.7800
20
-41.1100
0
LWPOLYLINE
8
MASK
90
28
70
1
10
92.8844
20
-38.5768
10
93.0861
20
-38.6309
10
93.2670
20
-38.7353
10
93.4147
20
-38.8830
10
93.5191
20
-39.0639
10
93.5732
20
-39.2656
10
93.5732
20
-39.4744
10
93.5191
20
-39.6761
10
93.4147
20
-39.8570
10
93.2670
20
-40.0047
10
93.0861
20
-40.1091
10
92.8844
20
-40.1632
10
92.7800
20
-40.1700
10
91.9800
20
-40.1700
10
91.8756
20
-40.1632
10
91.6739
20
-40.1091
10
91.4930
20
-40.0047
10
91.3453
20
-39.8570
10
91.2409
20
-39.6761
10
91.1868
20
-39.4744
10
91.1868
20
-39.2656
10
91.2409
20
-39.0639
10
91.3453
20
-38.8830
10
91.4930
20
-38.7353
10
91.6739
20
-38.6309
10
91.8756
20
-38.5768
10
91.9800
20
-38.5700
10
92.7800
20
-38.5700
0
LWPOLYLINE
8
MASK
90
28
70
1
10
92.8844
20
-36.0368
10
93.0861
20
-36.0909
10
93.2670
20
-36.1953
10
93.4147
20
-36.3430
10
93.5191
20
-36.5239
10
93.5732
20
-36.7256
10
93.5732
20
-36.9344
10
93.5191
20
-37.1361
10
93.4147
20
-37.3170
10
93.2670
20
-37.4647
10
93.0861
20
-37.5691
10
92.8844
20
-37.6232
10
92.7800
20
-37.6300
10
91.9800
20
-37.6300
10
91.8756
20
-37.6232
10
91.6739
20
-37.5691
10
91.4930
20
-37.4647
10
91.3453
20
-37.3170
10
91.2409
20
-37.1361
10
91.1868
20
-36.9344
10
91.1868
20
-36.7256
10
91.2409
20
-36.5239
10
91.3453
20
-36.3430
10
91.4930
20
-36.1953
10
91.6739
20
-36.0909
10
91.8756
20
-36.0368
10
91.9800
20
-36.0300
10
92.7800
20
-36.0300
0
LWPOLYLINE
8
MASK
90
28
70
1
10
92.8844
20
-33.4968
10
93.0861
20
-33.5509
10
93.2670
20
-33.6553
10
93.4147
20
-33.8030
10
93.5191
20
-33.9839
10
93.5732
20
-34.1856
10
93.5732
20
-34.3944
10
93.5191
20
-34.5961
10
93.4147
20
-34.7770
10
93.2670
20
-34.9247
10
93.0861
20
-35.0291
10
92.8844
20
-35.0832
10
92.7800
20
-35.0900
10
91.9800
20
-35.0900
10
91.8756
20
-35.0832
10
91.6739
20
-35.0291
10
91.4930
20
-34.9247
10
91.3453
20
-34.7770
10
91.2409
20
-34.5961
10
91.1868
20
-34.3944
10
91.1868
20
-34.1856
10
91.2409
20
-33.9839
10
91.3453
20
-33.8030
10
91.4930
20
-33.6553
10
91.6739
20
-33.5509
10
91.8756
20
-33.4968
10
91.9800
20
-33.4900
10
92.7800
20
-33.4900
0
LWPOLYLINE
8
MASK
90
28
70
1
10
92.8844
20
-30.9568
10
93.0861
20
-31.0109
10
93.2670
20
-31.1153
10
93.4147
20
-31.2630
10
93.5191
20
-31.4439
10
93.5732
20
-31.6456
10
93.5732
20
-31.8544
10
93.5191
20
-32.0561
10
93.4147
20
-32.2370
10
93.2670
20
-32.3847
10
93.0861
20
-32.4891
10
92.8844
20
-32.5432
10
92.7800
20
-32.5500
10
91.9800
20
-32.5500
10
91.8756
20
-32.5432
10
91.6739
20
-32.4891
10
91.4930
20
-32.3847
10
91.3453
20
-32.2370
10
91.2409
20
-32.0561
10
91.1868
20
-31.8544
10
91.1868
20
-31.6456
10
91.2409
20
-31.4439
10
91.3453
20
-31.2630
10
91.4930
20
-31.1153
10
91.6739
20
-31.0109
10
91.8756
20
-30.9568
10
91.9800
20
-30.9500
10
92.7800
20
-30.9500
0
CIRCLE
8
MASK
10
70.9050
20
-107.9500
40
0.8000
0
CIRCLE
8
MASK
10
78.5250
20
-107.9500
40
0.8000
0
CIRCLE
8
MASK
10
97.5000
20
-47.0000
40
0.9000
0
CIRCLE
8
MASK
10
99.5000
20
-68.5000
40
0.9000
0
CIRCLE
8
MASK
10
65.0550
20
-64.7700
40
0.8000
0
CIRCLE
8
MASK
10
70.0550
20
-64.7700
40
0.8000
0
CIRCLE
8
MASK
10
97.5100
20
-40.6400
40
0.8000
0
CIRCLE
8
MASK
10
102.5100
20
-40.6400
40
0.8000
0
CIRCLE
8
MASK
10
78.4500
20
-100.3300
40
0.7500
0
CIRCLE
8
MASK
10
83.3300
20
-100.3300
40
0.7500
0
CIRCLE
8
MASK
10
43.0000
20
-31.5000
40
0.9000
0
CIRCLE
8
MASK
10
56.0000
20
-74.0000
40
0.9000
0
CIRCLE
8
MASK
10
111.0000
20
-61.0000
40
0.9000
0
LWPOLYLINE
8
MASK
90
4
70
1
10
69.2925
20
-75.8500
10
69.2925
20
-77.5500
10
67.5925
20
-77.5500
10
67.5925
20
-75.8500
0
CIRCLE
8
MASK
10
65.9025
20
-76.7000
40
0.8500
0
CIRCLE
8
MASK
10
63.3625
20
-76.7000
40
0.8500
0
CIRCLE
8
MASK
10
37.4900
20
-40.6400
40
0.8000
0
CIRCLE
8
MASK
10
42.4900
20
-40.6400
40
0.8000
0
CIRCLE
8
MASK
10
86.5000
20
-53.0000
40
0.9000
0
LWPOLYLINE
8
MASK
90
20
70
1
10
46.4200
20
-31.2000
10
46.4390
20
-31.1043
10
46.4932
20
-31.0232
10
46.5743
20
-30.9690
10
46.6700
20
-30.9500
10
48.5700
20
-30.9500
10
48.6657
20
-30.9690
10
48.7468
20
-31.0232
10
48.8010
20
-31.1043
10
48.8200
20
-31.2000
10
48.8200
20
-32.3000
10
48.8010
20
-32.3957
10
48.7468
20
-32.4768
10
48.6657
20
-32.5310
10
48.5700
20
-32.5500
10
46.6700
20
-32.5500
10
46.5743
20
-32.5310
10
46.4932
20
-32.4768
10
46.4390
20
-32.3957
10
46.4200
20
-32.3000
0
LWPOLYLINE
8
MASK
90
28
70
1
10
48.1244
20
-33.4968
10
48.3261
20
-33.5509
10
48.5070
20
-33.6553
10
48.6547
20
-33.8030
10
48.7591
20
-33.9839
10
48.8132
20
-34.1856
10
48.8132
20
-34.3944
10
48.7591
20
-34.5961
10
48.6547
20
-34.7770
10
48.5070
20
-34.9247
10
48.3261
20
-35.0291
10
48.1244
20
-35.0832
10
48.0200
20
-35.0900
10
47.2200
20
-35.0900
10
47.1156
20
-35.0832
10
46.9139
20
-35.0291
10
46.7330
20
-34.9247
10
46.5853
20
-34.7770
10
46.4809
20
-34.5961
10
46.4268
20
-34.3944
10
46.4268
20
-34.1856
10
46.4809
20
-33.9839
10
46.5853
20
-33.8030
10
46.7330
20
-33.6553
10
46.9139
20
-33.5509
10
47.1156
20
-33.4968
10
47.2200
20
-33.4900
10
48.0200
20
-33.4900
0
LWPOLYLINE
8
MASK
90
28
70
1
10
48.1244
20
-36.0368
10
48.3261
20
-36.0909
10
48.5070
20
-36.1953
10
48.6547
20
-36.3430
10
48.7591
20
-36.5239
10
48.8132
20
-36.7256
10
48.8132
20
-36.9344
10
48.7591
20
-37.1361
10
48.6547
20
-37.3170
10
48.5070
20
-37.4647
10
48.3261
20
-37.5691
10
48.1244
20
-37.6232
10
48.0200
20
-37.6300
10
47.2200
20
-37.6300
10
47.1156
20
-37.6232
10
46.9139
20
-37.5691
10
46.7330
20
-37.4647
10
46.5853
20
-37.3170
10
46.4809
20
-37.1361
10
46.4268
20
-36.9344
10
46.4268
20
-36.7256
10
46.4809
20
-36.5239
10
46.5853
20
-36.3430
10
46.7330
20
-36.1953
10
46.9139
20
-36.0909
10
47.1156
20
-36.0368
10
47.2200
20
-36.0300
10
48.0200
20
-36.0300
0
LWPOLYLINE
8
MASK
90
28
70
1
10
48.1244
20
-38.5768
10
48.3261
20
-38.6309
10
48.5070
20
-38.7353
10
48.6547
20
-38.8830
10
48.7591
20
-39.0639
10
48.8132
20
-39.2656
10
48.8132
20
-39.4744
10
48.7591
20
-39.6761
10
48.6547
20
-39.8570
10
48.5070
20
-40.0047
10
48.3261
20
-40.1091
10
48.1244
20
-40.1632
10
48.0200
20
-40.1700
10
47.2200
20
-40.1700
10
47.1156
20
-40.1632
10
46.9139
20
-40.1091
10
46.7330
20
-40.0047
10
46.5853
20
-39.8570
10
46.4809
20
-39.6761
10
46.4268
20
-39.4744
10
46.4268
20
-39.2656
10
46.4809
20
-39.0639
10
46.5853
20
-38.8830
10
46.7330
20
-38.7353
10
46.9139
20
-38.6309
10
47.1156
20
-38.5768
10
47.2200
20
-38.5700
10
48.0200
20
-38.5700
0
LWPOLYLINE
8
MASK
90
28
70
1
10
48.1244
20
-41.1168
10
48.3261
20
-41.1709
10
48.5070
20
-41.2753
10
48.6547
20
-41.4230
10
48.7591
20
-41.6039
10
48.8132
20
-41.8056
10
48.8132
20
-42.0144
10
48.7591
20
-42.2161
10
48.6547
20
-42.3970
10
48.5070
20
-42.5447
10
48.3261
20
-42.6491
10
48.1244
20
-42.7032
10
48.0200
20
-42.7100
10
47.2200
20
-42.7100
10
47.1156
20
-42.7032
10
46.9139
20
-42.6491
10
46.7330
20
-42.5447
10
46.5853
20
-42.3970
10
46.4809
20
-42.2161
10
46.4268
20
-42.0144
10
46.4268
20
-41.8056
10
46.4809
20
-41.6039
10
46.5853
20
-41.4230
10
46.7330
20
-41.2753
10
46.9139
20
-41.1709
10
47.1156
20
-41.1168
10
47.2200
20
-41.1100
10
48.0200
20
-41.1100
0
LWPOLYLINE
8
MASK
90
28
70
1
10
48.1244
20
-43.6568
10
48.3261
20
-43.7109
10
48.5070
20
-43.8153
10
48.6547
20
-43.9630
10
48.7591
20
-44.1439
10
48.8132
20
-44.3456
10
48.8132
20
-44.5544
10
48.7591
20
-44.7561
10
48.6547
20
-44.9370
10
48.5070
20
-45.0847
10
48.3261
20
-45.1891
10
48.1244
20
-45.2432
10
48.0200
20
-45.2500
10
47.2200
20
-45.2500
10
47.1156
20
-45.2432
10
46.9139
20
-45.1891
10
46.7330
20
-45.0847
10
46.5853
20
-44.9370
10
46.4809
20
-44.7561
10
46.4268
20
-44.5544
10
46.4268
20
-44.3456
10
46.4809
20
-44.1439
10
46.5853
20
-43.9630
10
46.7330
20
-43.8153
10
46.9139
20
-43.7109
10
47.1156
20
-43.6568
10
47.2200
20
-43.6500
10
48.0200
20
-43.6500
0
LWPOLYLINE
8
MASK
90
28
70
1
10
48.1244
20
-46.1968
10
48.3261
20
-46.2509
10
48.5070
20
-46.3553
10
48.6547
20
-46.5030
10
48.7591
20
-46.6839
10
48.8132
20
-46.8856
10
48.8132
20
-47.0944
10
48.7591
20
-47.2961
10
48.6547
20
-47.4770
10
48.5070
20
-47.6247
10
48.3261
20
-47.7291
10
48.1244
20
-47.7832
10
48.0200
20
-47.7900
10
47.2200
20
-47.7900
10
47.1156
20
-47.7832
10
46.9139
20
-47.7291
10
46.7330
20
-47.6247
10
46.5853
20
-47.4770
10
46.4809
20
-47.2961
10
46.4268
20
-47.0944
10
46.4268
20
-46.8856
10
46.4809
20
-46.6839
10
46.5853
20
-46.5030
10
46.7330
20
-46.3553
10
46.9139
20
-46.2509
10
47.1156
20
-46.1968
10
47.2200
20
-46.1900
10
48.0200
20
-46.1900
0
LWPOLYLINE
8
MASK
90
28
70
1
10
48.1244
20
-48.7368
10
48.3261
20
-48.7909
10
48.5070
20
-48.8953
10
48.6547
20
-49.0430
10
48.7591
20
-49.2239
10
48.8132
20
-49.4256
10
48.8132
20
-49.6344
10
48.7591
20
-49.8361
10
48.6547
20
-50.0170
10
48.5070
20
-50.1647
10
48.3261
20
-50.2691
10
48.1244
20
-50.3232
10
48.0200
20
-50.3300
10
47.2200
20
-50.3300
10
47.1156
20
-50.3232
10
46.9139
20
-50.2691
10
46.7330
20
-50.1647
10
46.5853
20
-50.0170
10
46.4809
20
-49.8361
10
46.4268
20
-49.6344
10
46.4268
20
-49.4256
10
46.4809
20
-49.2239
10
46.5853
20
-49.0430
10
46.7330
20
-48.8953
10
46.9139
20
-48.7909
10
47.1156
20
-48.7368
10
47.2200
20
-48.7300
10
48.0200
20
-48.7300
0
LWPOLYLINE
8
MASK
90
28
70
1
10
55.7444
20
-48.7368
10
55.9461
20
-48.7909
10
56.1270
20
-48.8953
10
56.2747
20
-49.0430
10
56.3791
20
-49.2239
10
56.4332
20
-49.4256
10
56.4332
20
-49.6344
10
56.3791
20
-49.8361
10
56.2747
20
-50.0170
10
56.1270
20
-50.1647
10
55.9461
20
-50.2691
10
55.7444
20
-50.3232
10
55.6400
20
-50.3300
10
54.8400
20
-50.3300
10
54.7356
20
-50.3232
10
54.5339
20
-50.2691
10
54.3530
20
-50.1647
10
54.2053
20
-50.0170
10
54.1009
20
-49.8361
10
54.0468
20
-49.6344
10
54.0468
20
-49.4256
10
54.1009
20
-49.2239
10
54.2053
20
-49.0430
10
54.3530
20
-48.8953
10
54.5339
20
-48.7909
10
54.7356
20
-48.7368
10
54.8400
20
-48.7300
10
55.6400
20
-48.7300
0
LWPOLYLINE
8
MASK
90
28
70
1
10
55.7444
20
-46.1968
10
55.9461
20
-46.2509
10
56.1270
20
-46.3553
10
56.2747
20
-46.5030
10
56.3791
20
-46.6839
10
56.4332
20
-46.8856
10
56.4332
20
-47.0944
10
56.3791
20
-47.2961
10
56.2747
20
-47.4770
10
56.1270
20
-47.6247
10
55.9461
20
-47.7291
10
55.7444
20
-47.7832
10
55.6400
20
-47.7900
10
54.8400
20
-47.7900
10
54.7356
20
-47.7832
10
54.5339
20
-47.7291
10
54.3530
20
-47.6247
10
54.2053
20
-47.4770
10
54.1009
20
-47.2961
10
54.0468
20
-47.0944
10
54.0468
20
-46.8856
10
54.1009
20
-46.6839
10
54.2053
20
-46.5030
10
54.3530
20
-46.3553
10
54.5339
20
-46.2509
10
54.7356
20
-46.1968
10
54.8400
20
-46.1900
10
55.6400
20
-46.1900
0
LWPOLYLINE
8
MASK
90
28
70
1
10
55.7444
20
-43.6568
10
55.9461
20
-43.7109
10
56.1270
20
-43.8153
10
56.2747
20
-43.9630
10
56.3791
20
-44.1439
10
56.4332
20
-44.3456
10
56.4332
20
-44.5544
10
56.3791
20
-44.7561
10
56.2747
20
-44.9370
10
56.1270
20
-45.0847
10
55.9461
20
-45.1891
10
55.7444
20
-45.2432
10
55.6400
20
-45.2500
10
54.8400
20
-45.2500
10
54.7356
20
-45.2432
10
54.5339
20
-45.1891
10
54.3530
20
-45.0847
10
54.2053
20
-44.9370
10
54.1009
20
-44.7561
10
54.0468
20
-44.5544
10
54.0468
20
-44.3456
10
54.1009
20
-44.1439
10
54.2053
20
-43.9630
10
54.3530
20
-43.8153
10
54.5339
20
-43.7109
10
54.7356
20
-43.6568
10
54.8400
20
-43.6500
10
55.6400
20
-43.6500
0
LWPOLYLINE
8
MASK
90
28
70
1
10
55.7444
20
-41.1168
10
55.9461
20
-41.1709
10
56.1270
20
-41.2753
10
56.2747
20
-41.4230
10
56.3791
20
-41.6039
10
56.4332
20
-41.8056
10
56.4332
20
-42.0144
10
56.3791
20
-42.2161
10
56.2747
20
-42.3970
10
56.1270
20
-42.5447
10
55.9461
20
-42.6491
10
55.7444
20
-42.7032
10
55.6400
20
-42.7100
10
54.8400
20
-42.7100
10
54.7356
20
-42.7032
10
54.5339
20
-42.6491
10
54.3530
20
-42.5447
10
54.2053
20
-42.3970
10
54.1009
20
-42.2161
10
54.0468
20
-42.0144
10
54.0468
20
-41.8056
10
54.1009
20
-41.6039
10
54.2053
20
-41.4230
10
54.3530
20
-41.2753
10
54.5339
20
-41.1709
10
54.7356
20
-41.1168
10
54.8400
20
-41.1100
10
55.6400
20
-41.1100
0
LWPOLYLINE
8
MASK
90
28
70
1
10
55.7444
20
-38.5768
10
55.9461
20
-38.6309
10
56.1270
20
-38.7353
10
56.2747
20
-38.8830
10
56.3791
20
-39.0639
10
56.4332
20
-39.2656
10
56.4332
20
-39.4744
10
56.3791
20
-39.6761
10
56.2747
20
-39.8570
10
56.1270
20
-40.0047
10
55.9461
20
-40.1091
10
55.7444
20
-40.1632
10
55.6400
20
-40.1700
10
54.8400
20
-40.1700
10
54.7356
20
-40.1632
10
54.5339
20
-40.1091
10
54.3530
20
-40.0047
10
54.2053
20
-39.8570
10
54.1009
20
-39.6761
10
54.0468
20
-39.4744
10
54.0468
20
-39.2656
10
54.1009
20
-39.0639
10
54.2053
20
-38.8830
10
54.3530
20
-38.7353
10
54.5339
20
-38.6309
10
54.7356
20
-38.5768
10
54.8400
20
-38.5700
10
55.6400
20
-38.5700
0
LWPOLYLINE
8
MASK
90
28
70
1
10
55.7444
20
-36.0368
10
55.9461
20
-36.0909
10
56.1270
20
-36.1953
10
56.2747
20
-36.3430
10
56.3791
20
-36.5239
10
56.4332
20
-36.7256
10
56.4332
20
-36.9344
10
56.3791
20
-37.1361
10
56.2747
20
-37.3170
10
56.1270
20
-37.4647
10
55.9461
20
-37.5691
10
55.7444
20
-37.6232
10
55.6400
20
-37.6300
10
54.8400
20
-37.6300
10
54.7356
20
-37.6232
10
54.5339
20
-37.5691
10
54.3530
20
-37.4647
10
54.2053
20
-37.3170
10
54.1009
20
-37.1361
10
54.0468
20
-36.9344
10
54.0468
20
-36.7256
10
54.1009
20
-36.5239
10
54.2053
20
-36.3430
10
54.3530
20
-36.1953
10
54.5339
20
-36.0909
10
54.7356
20
-36.0368
10
54.8400
20
-36.0300
10
55.6400
20
-36.0300
0
LWPOLYLINE
8
MASK
90
28
70
1
10
55.7444
20
-33.4968
10
55.9461
20
-33.5509
10
56.1270
20
-33.6553
10
56.2747
20
-33.8030
10
56.3791
20
-33.9839
10
56.4332
20
-34.1856
10
56.4332
20
-34.3944
10
56.3791
20
-34.5961
10
56.2747
20
-34.7770
10
56.1270
20
-34.9247
10
55.9461
20
-35.0291
10
55.7444
20
-35.0832
10
55.6400
20
-35.0900
10
54.8400
20
-35.0900
10
54.7356
20
-35.0832
10
54.5339
20
-35.0291
10
54.3530
20
-34.9247
10
54.2053
20
-34.7770
10
54.1009
20
-34.5961
10
54.0468
20
-34.3944
10
54.0468
20
-34.1856
10
54.1009
20
-33.9839
10
54.2053
20
-33.8030
10
54.3530
20
-33.6553
10
54.5339
20
-33.5509
10
54.7356
20
-33.4968
10
54.8400
20
-33.4900
10
55.6400
20
-33.4900
0
LWPOLYLINE
8
MASK
90
28
70
1
10
55.7444
20
-30.9568
10
55.9461
20
-31.0109
10
56.1270
20
-31.1153
10
56.2747
20
-31.2630
10
56.3791
20
-31.4439
10
56.4332
20
-31.6456
10
56.4332
20
-31.8544
10
56.3791
20
-32.0561
10
56.2747
20
-32.2370
10
56.1270
20
-32.3847
10
55.9461
20
-32.4891
10
55.7444
20
-32.5432
10
55.6400
20
-32.5500
10
54.8400
20
-32.5500
10
54.7356
20
-32.5432
10
54.5339
20
-32.4891
10
54.3530
20
-32.3847
10
54.2053
20
-32.2370
10
54.1009
20
-32.0561
10
54.0468
20
-31.8544
10
54.0468
20
-31.6456
10
54.1009
20
-31.4439
10
54.2053
20
-31.2630
10
54.3530
20
-31.1153
10
54.5339
20
-31.0109
10
54.7356
20
-30.9568
10
54.8400
20
-30.9500
10
55.6400
20
-30.9500
0
CIRCLE
8
MASK
10
48.0725
20
-86.3600
40
0.8000
0
CIRCLE
8
MASK
10
53.0725
20
-86.3600
40
0.8000
0
CIRCLE
8
MASK
10
100.0000
20
-58.5000
40
0.9000
0
LWPOLYLINE
8
MASK
90
20
70
1
10
87.6825
20
-55.3300
10
87.7015
20
-55.2343
10
87.7557
20
-55.1532
10
87.8368
20
-55.0990
10
87.9325
20
-55.0800
10
89.8325
20
-55.0800
10
89.9282
20
-55.0990
10
90.0093
20
-55.1532
10
90.0635
20
-55.2343
10
90.0825
20
-55.3300
10
90.0825
20
-56.4300
10
90.0635
20
-56.5257
10
90.0093
20
-56.6068
10
89.9282
20
-56.6610
10
89.8325
20
-56.6800
10
87.9325
20
-56.6800
10
87.8368
20
-56.6610
10
87.7557
20
-56.6068
10
87.7015
20
-56.5257
10
87.6825
20
-56.4300
0
LWPOLYLINE
8
MASK
90
28
70
1
10
89.3869
20
-57.6268
10
89.5886
20
-57.6809
10
89.7695
20
-57.7853
10
89.9172
20
-57.9330
10
90.0216
20
-58.1139
10
90.0757
20
-58.3156
10
90.0757
20
-58.5244
10
90.0216
20
-58.7261
10
89.9172
20
-58.9070
10
89.7695
20
-59.0547
10
89.5886
20
-59.1591
10
89.3869
20
-59.2132
10
89.2825
20
-59.2200
10
88.4825
20
-59.2200
10
88.3781
20
-59.2132
10
88.1764
20
-59.1591
10
87.9955
20
-59.0547
10
87.8478
20
-58.9070
10
87.7434
20
-58.7261
10
87.6893
20
-58.5244
10
87.6893
20
-58.3156
10
87.7434
20
-58.1139
10
87.8478
20
-57.9330
10
87.9955
20
-57.7853
10
88.1764
20
-57.6809
10
88.3781
20
-57.6268
10
88.4825
20
-57.6200
10
89.2825
20
-57.6200
0
LWPOLYLINE
8
MASK
90
28
70
1
10
89.3869
20
-60.1668
10
89.5886
20
-60.2209
10
89.7695
20
-60.3253
10
89.9172
20
-60.4730
10
90.0216
20
-60.6539
10
90.0757
20
-60.8556
10
90.0757
20
-61.0644
10
90.0216
20
-61.2661
10
89.9172
20
-61.4470
10
89.7695
20
-61.5947
10
89.5886
20
-61.6991
10
89.3869
20
-61.7532
10
89.2825
20
-61.7600
10
88.4825
20
-61.7600
10
88.3781
20
-61.7532
10
88.1764
20
-61.6991
10
87.9955
20
-61.5947
10
87.8478
20
-61.4470
10
87.7434
20
-61.2661
10
87.6893
20
-61.0644
10
87.6893
20
-60.8556
10
87.7434
20
-60.6539
10
87.8478
20
-60.4730
10
87.9955
20
-60.3253
10
88.1764
20
-60.2209
10
88.3781
20
-60.1668
10
88.4825
20
-60.1600
10
89.2825
20
-60.1600
0
LWPOLYLINE
8
MASK
90
28
70
1
10
89.3869
20
-62.7068
10
89.5886
20
-62.7609
10
89.7695
20
-62.8653
10
89.9172
20
-63.0130
10
90.0216
20
-63.1939
10
90.0757
20
-63.3956
10
90.0757
20
-63.6044
10
90.0216
20
-63.8061
10
89.9172
20
-63.9870
10
89.7695
20
-64.1347
10
89.5886
20
-64.2391
10
89.3869
20
-64.2932
10
89.2825
20
-64.3000
10
88.4825
20
-64.3000
10
88.3781
20
-64.2932
10
88.1764
20
-64.2391
10
87.9955
20
-64.1347
10
87.8478
20
-63.9870
10
87.7434
20
-63.8061
10
87.6893
20
-63.6044
10
87.6893
20
-63.3956
10
87.7434
20
-63.1939
10
87.8478
20
-63.0130
10
87.9955
20
-62.8653
10
88.1764
20
-62.7609
10
88.3781
20
-62.7068
10
88.4825
20
-62.7000
10
89.2825
20
-62.7000
0
LWPOLYLINE
8
MASK
90
28
70
1
10
89.3869
20
-65.2468
10
89.5886
20
-65.3009
10
89.7695
20
-65.4053
10
89.9172
20
-65.5530
10
90.0216
20
-65.7339
10
90.0757
20
-65.9356
10
90.0757
20
-66.1444
10
90.0216
20
-66.3461
10
89.9172
20
-66.5270
10
89.7695
20
-66.6747
10
89.5886
20
-66.7791
10
89.3869
20
-66.8332
10
89.2825
20
-66.8400
10
88.4825
20
-66.8400
10
88.3781
20
-66.8332
10
88.1764
20
-66.7791
10
87.9955
20
-66.6747
10
87.8478
20
-66.5270
10
87.7434
20
-66.3461
10
87.6893
20
-66.1444
10
87.6893
20
-65.9356
10
87.7434
20
-65.7339
10
87.8478
20
-65.5530
10
87.9955
20
-65.4053
10
88.1764
20
-65.3009
10
88.3781
20
-65.2468
10
88.4825
20
-65.2400
10
89.2825
20
-65.2400
0
LWPOLYLINE
8
MASK
90
28
70
1
10
89.3869
20
-67.7868
10
89.5886
20
-67.8409
10
89.7695
20
-67.9453
10
89.9172
20
-68.0930
10
90.0216
20
-68.2739
10
90.0757
20
-68.4756
10
90.0757
20
-68.6844
10
90.0216
20
-68.8861
10
89.9172
20
-69.0670
10
89.7695
20
-69.2147
10
89.5886
20
-69.3191
10
89.3869
20
-69.3732
10
89.2825
20
-69.3800
10
88.4825
20
-69.3800
10
88.3781
20
-69.3732
10
88.1764
20
-69.3191
10
87.9955
20
-69.2147
10
87.8478
20
-69.0670
10
87.7434
20
-68.8861
10
87.6893
20
-68.6844
10
87.6893
20
-68.4756
10
87.7434
20
-68.2739
10
87.8478
20
-68.0930
10
87.9955
20
-67.9453
10
88.1764
20
-67.8409
10
88.3781
20
-67.7868
10
88.4825
20
-67.7800
10
89.2825
20
-67.7800
0
LWPOLYLINE
8
MASK
90
28
70
1
10
89.3869
20
-70.3268
10
89.5886
20
-70.3809
10
89.7695
20
-70.4853
10
89.9172
20
-70.6330
10
90.0216
20
-70.8139
10
90.0757
20
-71.0156
10
90.0757
20
-71.2244
10
90.0216
20
-71.4261
10
89.9172
20
-71.6070
10
89.7695
20
-71.7547
10
89.5886
20
-71.8591
10
89.3869
20
-71.9132
10
89.2825
20
-71.9200
10
88.4825
20
-71.9200
10
88.3781
20
-71.9132
10
88.1764
20
-71.8591
10
87.9955
20
-71.7547
10
87.8478
20
-71.6070
10
87.7434
20
-71.4261
10
87.6893
20
-71.2244
10
87.6893
20
-71.0156
10
87.7434
20
-70.8139
10
87.8478
20
-70.6330
10
87.9955
20
-70.4853
10
88.1764
20
-70.3809
10
88.3781
20
-70.3268
10
88.4825
20
-70.3200
10
89.2825
20
-70.3200
0
LWPOLYLINE
8
MASK
90
28
70
1
10
89.3869
20
-72.8668
10
89.5886
20
-72.9209
10
89.7695
20
-73.0253
10
89.9172
20
-73.1730
10
90.0216
20
-73.3539
10
90.0757
20
-73.5556
10
90.0757
20
-73.7644
10
90.0216
20
-73.9661
10
89.9172
20
-74.1470
10
89.7695
20
-74.2947
10
89.5886
20
-74.3991
10
89.3869
20
-74.4532
10
89.2825
20
-74.4600
10
88.4825
20
-74.4600
10
88.3781
20
-74.4532
10
88.1764
20
-74.3991
10
87.9955
20
-74.2947
10
87.8478
20
-74.1470
10
87.7434
20
-73.9661
10
87.6893
20
-73.7644
10
87.6893
20
-73.5556
10
87.7434
20
-73.3539
10
87.8478
20
-73.1730
10
87.9955
20
-73.0253
10
88.1764
20
-72.9209
10
88.3781
20
-72.8668
10
88.4825
20
-72.8600
10
89.2825
20
-72.8600
0
LWPOLYLINE
8
MASK
90
28
70
1
10
97.0069
20
-72.8668
10
97.2086
20
-72.9209
10
97.3895
20
-73.0253
10
97.5372
20
-73.1730
10
97.6416
20
-73.3539
10
97.6957
20
-73.5556
10
97.6957
20
-73.7644
10
97.6416
20
-73.9661
10
97.5372
20
-74.1470
10
97.3895
20
-74.2947
10
97.2086
20
-74.3991
10
97.0069
20
-74.4532
10
96.9025
20
-74.4600
10
96.1025
20
-74.4600
10
95.9981
20
-74.4532
10
95.7964
20
-74.3991
10
95.6155
20
-74.2947
10
95.4678
20
-74.1470
10
95.3634
20
-73.9661
10
95.3093
20
-73.7644
10
95.3093
20
-73.5556
10
95.3634
20
-73.3539
10
95.4678
20
-73.1730
10
95.6155
20
-73.0253
10
95.7964
20
-72.9209
10
95.9981
20
-72.8668
10
96.1025
20
-72.8600
10
96.9025
20
-72.8600
0
LWPOLYLINE
8
MASK
90
28
70
1
10
97.0069
20
-70.3268
10
97.2086
20
-70.3809
10
97.3895
20
-70.4853
10
97.5372
20
-70.6330
10
97.6416
20
-70.8139
10
97.6957
20
-71.0156
10
97.6957
20
-71.2244
10
97.6416
20
-71.4261
10
97.5372
20
-71.6070
10
97.3895
20
-71.7547
10
97.2086
20
-71.8591
10
97.0069
20
-71.9132
10
96.9025
20
-71.9200
10
96.1025
20
-71.9200
10
95.9981
20
-71.9132
10
95.7964
20
-71.8591
10
95.6155
20
-71.7547
10
95.4678
20
-71.6070
10
95.3634
20
-71.4261
10
95.3093
20
-71.2244
10
95.3093
20
-71.0156
10
95.3634
20
-70.8139
10
95.4678
20
-70.6330
10
95.6155
20
-70.4853
10
95.7964
20
-70.3809
10
95.9981
20
-70.3268
10
96.1025
20
-70.3200
10
96.9025
20
-70.3200
0
LWPOLYLINE
8
MASK
90
28
70
1
10
97.0069
20
-67.7868
10
97.2086
20
-67.8409
10
97.3895
20
-67.9453
10
97.5372
20
-68.0930
10
97.6416
20
-68.2739
10
97.6957
20
-68.4756
10
97.6957
20
-68.6844
10
97.6416
20
-68.8861
10
97.5372
20
-69.0670
10
97.3895
20
-69.2147
10
97.2086
20
-69.3191
10
97.0069
20
-69.3732
10
96.9025
20
-69.3800
10
96.1025
20
-69.3800
10
95.9981
20
-69.3732
10
95.7964
20
-69.3191
10
95.6155
20
-69.2147
10
95.4678
20
-69.0670
10
95.3634
20
-68.8861
10
95.3093
20
-68.6844
10
95.3093
20
-68.4756
10
95.3634
20
-68.2739
10
95.4678
20
-68.0930
10
95.6155
20
-67.9453
10
95.7964
20
-67.8409
10
95.9981
20
-67.7868
10
96.1025
20
-67.7800
10
96.9025
20
-67.7800
0
LWPOLYLINE
8
MASK
90
28
70
1
10
97.0069
20
-65.2468
10
97.2086
20
-65.3009
10
97.3895
20
-65.4053
10
97.5372
20
-65.5530
10
97.6416
20
-65.7339
10
97.6957
20
-65.9356
10
97.6957
20
-66.1444
10
97.6416
20
-66.3461
10
97.5372
20
-66.5270
10
97.3895
20
-66.6747
10
97.2086
20
-66.7791
10
97.0069
20
-66.8332
10
96.9025
20
-66.8400
10
96.1025
20
-66.8400
10
95.9981
20
-66.8332
10
95.7964
20
-66.7791
10
95.6155
20
-66.6747
10
95.4678
20
-66.5270
10
95.3634
20
-66.3461
10
95.3093
20
-66.1444
10
95.3093
20
-65.9356
10
95.3634
20
-65.7339
10
95.4678
20
-65.5530
10
95.6155
20
-65.4053
10
95.7964
20
-65.3009
10
95.9981
20
-65.2468
10
96.1025
20
-65.2400
10
96.9025
20
-65.2400
0
LWPOLYLINE
8
MASK
90
28
70
1
10
97.0069
20
-62.7068
10
97.2086
20
-62.7609
10
97.3895
20
-62.8653
10
97.5372
20
-63.0130
10
97.6416
20
-63.1939
10
97.6957
20
-63.3956
10
97.6957
20
-63.6044
10
97.6416
20
-63.8061
10
97.5372
20
-63.9870
10
97.3895
20
-64.1347
10
97.2086
20
-64.2391
10
97.0069
20
-64.2932
10
96.9025
20
-64.3000
10
96.1025
20
-64.3000
10
95.9981
20
-64.2932
10
95.7964
20
-64.2391
10
95.6155
20
-64.1347
10
95.4678
20
-63.9870
10
95.3634
20
-63.8061
10
95.3093
20
-63.6044
10
95.3093
20
-63.3956
10
95.3634
20
-63.1939
10
95.4678
20
-63.0130
10
95.6155
20
-62.8653
10
95.7964
20
-62.7609
10
95.9981
20
-62.7068
10
96.1025
20
-62.7000
10
96.9025
20
-62.7000
0
LWPOLYLINE
8
MASK
90
28
70
1
10
97.0069
20
-60.1668
10
97.2086
20
-60.2209
10
97.3895
20
-60.3253
10
97.5372
20
-60.4730
10
97.6416
20
-60.6539
10
97.6957
20
-60.8556
10
97.6957
20
-61.0644
10
97.6416
20
-61.2661
10
97.5372
20
-61.4470
10
97.3895
20
-61.5947
10
97.2086
20
-61.6991
10
97.0069
20
-61.7532
10
96.9025
20
-61.7600
10
96.1025
20
-61.7600
10
95.9981
20
-61.7532
10
95.7964
20
-61.6991
10
95.6155
20
-61.5947
10
95.4678
20
-61.4470
10
95.3634
20
-61.2661
10
95.3093
20
-61.0644
10
95.3093
20
-60.8556
10
95.3634
20
-60.6539
10
95.4678
20
-60.4730
10
95.6155
20
-60.3253
10
95.7964
20
-60.2209
10
95.9981
20
-60.1668
10
96.1025
20
-60.1600
10
96.9025
20
-60.1600
0
LWPOLYLINE
8
MASK
90
28
70
1
10
97.0069
20
-57.6268
10
97.2086
20
-57.6809
10
97.3895
20
-57.7853
10
97.5372
20
-57.9330
10
97.6416
20
-58.1139
10
97.6957
20
-58.3156
10
97.6957
20
-58.5244
10
97.6416
20
-58.7261
10
97.5372
20
-58.9070
10
97.3895
20
-59.0547
10
97.2086
20
-59.1591
10
97.0069
20
-59.2132
10
96.9025
20
-59.2200
10
96.1025
20
-59.2200
10
95.9981
20
-59.2132
10
95.7964
20
-59.1591
10
95.6155
20
-59.0547
10
95.4678
20
-58.9070
10
95.3634
20
-58.7261
10
95.3093
20
-58.5244
10
95.3093
20
-58.3156
10
95.3634
20
-58.1139
10
95.4678
20
-57.9330
10
95.6155
20
-57.7853
10
95.7964
20
-57.6809
10
95.9981
20
-57.6268
10
96.1025
20
-57.6200
10
96.9025
20
-57.6200
0
LWPOLYLINE
8
MASK
90
28
70
1
10
97.0069
20
-55.0868
10
97.2086
20
-55.1409
10
97.3895
20
-55.2453
10
97.5372
20
-55.3930
10
97.6416
20
-55.5739
10
97.6957
20
-55.7756
10
97.6957
20
-55.9844
10
97.6416
20
-56.1861
10
97.5372
20
-56.3670
10
97.3895
20
-56.5147
10
97.2086
20
-56.6191
10
97.0069
20
-56.6732
10
96.9025
20
-56.6800
10
96.1025
20
-56.6800
10
95.9981
20
-56.6732
10
95.7964
20
-56.6191
10
95.6155
20
-56.5147
10
95.4678
20
-56.3670
10
95.3634
20
-56.1861
10
95.3093
20
-55.9844
10
95.3093
20
-55.7756
10
95.3634
20
-55.5739
10
95.4678
20
-55.3930
10
95.6155
20
-55.2453
10
95.7964
20
-55.1409
10
95.9981
20
-55.0868
10
96.1025
20
-55.0800
10
96.9025
20
-55.0800
0
CIRCLE
8
MASK
10
114.0000
20
-26.0000
40
1.6000
0
CIRCLE
8
MASK
10
61.1750
20
-107.9500
40
0.8000
0
CIRCLE
8
MASK
10
66.1750
20
-107.9500
40
0.8000
0
CIRCLE
8
MASK
10
79.5000
20
-53.0000
40
0.9000
0
LWPOLYLINE
8
EDGE
90
4
70
1
10
120.0000
20
-120.0000
10
20.0000
20
-120.0000
10
20.0000
20
-20.0000
10
120.0000
20
-20.0000
0
ENDSEC
0
EOF
